M48
;Layer_Color=9474304
;FILE_FORMAT=4:4
METRIC,LZ
;TYPE=PLATED
T1F00S00C0.2032
T2F00S00C0.2540
T3F00S00C0.3048
T4F00S00C0.5000
T6F00S00C0.7620
T7F00S00C0.9000
T8F00S00C1.0408
T9F00S00C1.3508
%
T01
X00006858Y0010287
X00040386Y00115824
X00055328Y0012425
X00055118Y001016
X0004572Y00089408
X00036322Y00140208
X00067818Y00142494
X0008128Y0013208
X00088138
X00100584Y0012192
X00107188Y00114046
X00121666Y00109728
X00126612Y00106038
X0013716Y00098806
X00136398Y00084074
Y00078994
X00131318
Y00084074
X00120222Y00074248
X00148336Y00074168
X00152654Y00107442
X00136144Y0013208
Y0013716
X00131064
Y0013208
X0010414Y00098044
X00158878Y00084202
X00169418Y0008382
X00160528Y00073152
X00161798Y00110872
X00161036Y00119888
X00176276Y00111506
X00170688Y00141224
X00217042Y00132462
X00224282Y00126492
X00218948Y00119126
X00232664Y00107442
X00222504Y0008636
X0020828Y00075438
X0024257Y00054356
Y0003683
X0026289Y00043434
X00274574Y00049784
X00280924Y00058674
X002943Y0005554
X00316992Y0005588
X0031644Y0004699
X00324992Y00037718
X00323724Y00029338
X00311912Y00018288
X00302514Y0000508
X002943Y00006436
X00289306Y00003556
X00282575Y00004699
X00262636Y00004826
X00273812Y00018542
X00272288Y0009017
X00279654Y00101346
X00287528
Y00094234
X00295402
Y00101346
X00303276
Y00094234
X0032496Y0011938
X0034274
X0033385Y0013716
X00291084Y00137668
X00263703Y00120548
X00234696Y00138176
X00330962Y00060198
X00366776Y00040132
X00374142
X00381508
X00382778Y00148336
X00377444
Y00155702
X00382778
X00388112
Y00148336
X00386757Y00184404
Y00191262
X00377698
Y00184404
X00395817
Y00191262
X00404876
Y00184404
X0041021Y00187452
Y00178943
Y00170434
X0042275Y0017272
Y0020828
X00399034Y00214376
Y00220218
X00392557Y00224113
X00386588
X00380619
Y00233595
X00386588
X00392557
Y00243078
X00386588
X00380619
Y0021463
X00386588
X00392557
X00338582Y00216408
X00345948Y00192278
Y00184489
Y00176699
X00338836Y00161798
X00333502
Y0015621
X00338836
X0034417
X00338836Y00150622
Y00145288
X0032496Y0015494
X00291084Y00150114
Y00143891
X00286512Y00146558
X0028194Y00150114
X0024257Y00143764
X0020955Y00166624
X00167132Y0016383
X00162306Y00169164
X00162343Y00194056
X00166661
X0017383Y0024384
X0020939
X002005Y0026162
X0020939Y002794
X002005Y0029718
X0017145Y00298704
X0016494Y0029718
X00159512Y0028956
X0017383Y002794
X0023606Y0026162
X0027162
X00277114Y00270002
X002894Y0026162
X00321564Y0025527
X00327533
X00333502
X00334137Y00279908
X00328168
X00322199
X00354203Y00279654
X00360172
X00366141
X00379222Y00277876
Y00282702
Y00287528
X00385318
Y00282702
X00385191Y00277876
X0039116
Y00282702
Y00287528
X0040005Y0029972
X0041386Y0029718
X0042275Y0031496
X0040497
Y002794
X0042275
X00421894Y00338582
X0042275Y0035052
Y0038608
X00417576Y00409702
Y00416115
Y00422529
X0042275Y0042164
X00417576Y00428942
Y00435356
X0041386Y0043942
X0040497Y004572
Y0042164
X0038719Y0038608
X00380073Y00382359
X0037465Y00369062
X00389636Y0037211
X00399034
X00355009Y00378631
X00332994Y0037465
X00326234Y00401984
X00319734Y00401626
X0034274Y0040386
X0033385Y0042164
X00321666Y0042799
X00315976
X00310286
Y00434594
X00315976
X00321666
X00291794Y00439472
X00299008Y00451308
X0029829Y004572
X0028051
X00276352Y00462788
X002894Y0047498
X0030718
X00336296Y00467106
X00343662
X00351028
X00348234Y00462026
X00339852
X00258572Y0048006
X00250698
X0023606Y0047498
X00222504Y00474963
Y00468808
Y00462653
Y00456497
Y00450342
X00222279Y00443992
X00216517
X00210755
X00204993
X0019923
X00193468
X00187706
X00181559
X00175797
X00170035
X00164273
X0016494Y0043942
X00169498Y00438752
X00179498
X00174498Y00428752
X0017383Y0042164
X00169498Y00418752
X00164498Y00428752
X00157828Y0042926
X00158511Y00443992
X00184498Y00428752
X00190406Y00428498
X0019161Y0042164
X00195406Y00418498
X00200406Y00428498
X00210406
X0020939Y0042164
X0022717
X0024064Y00412572
X00246329
X00252019
Y004064
X00246329
X0024064
X00248514Y00400355
X00255219
X00248514Y0039182
Y00383286
X00256032Y0035179
X00230886Y00346456
X0023114Y00338074
X0023114Y00329692
X00230944Y0032086
X00242002Y00320996
X00260096Y00319024
X00266446Y00313182
X0026289Y00280924
X00257302Y00281432
X0030718Y0029718
X0034798Y00318008
X00351536Y00324104
X0032766Y00342138
X00321818Y00347218
X00369824Y0029718
X00373634Y002921
X0026805Y0019804
X00263652Y00192024
X0024892Y00201168
X0024495Y0020828
X00224282Y00213106
X0020939Y0038608
X0021828Y0040386
Y0043942
X00205406Y00438498
X00195406
X0024495Y004572
X00222504Y00481118
Y00487273
X00152748Y00443992
X00152828Y0043926
X0014716Y0043942
X00142828Y0043926
X00141224Y00443992
X00146986
X00147828Y0042926
X00137828
X00137922Y0043434
X00133096Y00430022
X00127508Y00427482
X00121412Y0042672
X0011557
X00109982
X00104648
Y0042164
Y0041656
Y0041148
Y004064
Y0040132
X00122428Y00398526
X0012938Y0040386
X00131572Y00381762
X0010541Y00376936
X00088138Y00384048
X00080264
Y00389636
Y00395224
X00088138
X000889Y00414528
Y00421386
Y00427228
X00081788Y00441612
X0007604Y0043942
X00071788Y00446612
Y00456612
X0006715Y004572
X0008493
X00091788Y00456612
X00096774Y00455126
Y00461281
Y00467436
Y00473591
Y00479747
Y00485902
X0008628Y0048625
X0007628
X0007604Y0047498
X0007128Y0047625
X0008128
X0009128
X0008628Y0046625
X00081788Y00461612
Y00451612
X00091788Y00446612
X00096774Y0044897
Y00443738
X00102929
X00109085
X0011524
X00121395
X0012049Y0042164
X0013827
X00142828Y0041926
X00152828
X00137002Y00351886
X00128524Y00352806
X00122428Y0029845
X0007493Y00294386
X00068072Y00310896
Y00316484
Y00322072
X00042672Y0030607
X00037084
X00031496
X00025146
X00019558
X0001397
X00013716Y00313182
X00019304
X00024892
X0000762
X00009652Y0029337
X00004318
X00014986
X00020574Y00293116
X00025908
X00031242
X00036068
X00041402
X00046736
X00028194Y00285242
X0002286
X00017526
Y0027559
X0002286
X00028194
X0000492Y0026162
Y0022606
X00006604Y00217678
X00040132Y00204216
X00038862Y00191973
X00039624Y00179324
X00040386Y00166624
X00037338Y00153416
X00053848Y00151384
X00068834Y00151892
X00081026Y00158496
X00087884
X00058928Y00164338
X0006715Y0020828
X00075184Y0021971
X00074168Y00229616
X00113284Y00231394
X00112522Y00225298
X00126746Y0016764
X00131318Y00160782
X00136652Y00165354
X0005826Y003683
X0004048
X000227
X0000492
X0001381Y0038608
X0003159
X0004937
X0005826Y0040386
X0007604
X0006715Y0042164
X0004937
X0003159
X0001381
X000227Y0043942
X0004048
X0005826
X0004937Y004572
X0003159
X0004048Y0047498
X0005826
X0007628Y0046625
X000227Y0047498
X0000492
Y0043942
Y0040386
X000227
X0004048
T02
X00284734Y00027178
X00290322
X0029591
X00291719Y00032766
X00291846Y00038862
T03
X00006096Y00090424
T04
X00329184Y001016
X00328168Y0014605
X00304298Y00184658
Y00204869
Y0022508
Y00245291
Y00265176
Y00285714
Y00305925
X0030861Y00325882
X0032766Y00244856
X00365506Y00256032
X00417068Y00374396
Y00398272
X00346202Y0047879
X00226314Y00411038
X00203899
X00181483
X00159067
X00172974Y0039021
X00194818
X00217678Y00389956
X0015113Y0039021
X00136652Y00411038
X00011684Y003737
T06
X00323088Y00130302
X00014224Y00458978
T07
X00417322Y00450342
Y00475742
T08
X00352512Y0001549
X00397512
T09
X00339962Y0004039
X00410062
M30
