G04*
G04 #@! TF.GenerationSoftware,Altium Limited,Altium Designer,20.0.1 (14)*
G04*
G04 Layer_Color=16711935*
%FSLAX44Y44*%
%MOMM*%
G71*
G01*
G75*
%ADD68R,0.7332X0.7532*%
%ADD72R,3.4032X1.7032*%
%ADD74R,0.5032X0.6032*%
%ADD75R,0.6032X0.5032*%
%ADD95R,1.2032X1.2032*%
%ADD112C,1.7272*%
%ADD113C,1.1400*%
%ADD114R,1.8032X1.8032*%
%ADD115C,1.8032*%
%ADD116O,2.8032X1.5032*%
%ADD117O,2.4032X1.3032*%
%ADD118C,2.2292*%
%ADD119C,1.7642*%
%ADD157R,1.2032X1.2332*%
%ADD158R,0.8532X1.5032*%
%ADD159R,0.6832X2.0032*%
%ADD160R,5.2032X5.2032*%
%ADD161R,2.2032X1.1032*%
%ADD162R,1.1032X2.2032*%
%ADD163R,0.8032X1.5532*%
%ADD164R,0.7532X0.7332*%
%ADD165R,0.7032X1.2032*%
%ADD166R,1.2032X0.7032*%
%ADD167R,1.0032X0.4032*%
%ADD168R,0.4032X1.0032*%
%ADD169R,1.9032X1.9032*%
%ADD170R,1.1032X1.8032*%
D68*
X294894Y184278D02*
D03*
Y192658D02*
D03*
X316738Y29338D02*
D03*
Y37718D02*
D03*
D72*
X387378Y213532D02*
D03*
Y171532D02*
D03*
D74*
X236010Y329692D02*
D03*
X241510D02*
D03*
X246370Y269748D02*
D03*
X251870D02*
D03*
X241510Y338074D02*
D03*
X236010D02*
D03*
X241510Y346456D02*
D03*
X236010D02*
D03*
X246170Y255524D02*
D03*
X251670D02*
D03*
X341166Y135890D02*
D03*
X346666D02*
D03*
X333204Y85852D02*
D03*
X327704D02*
D03*
X279356Y8636D02*
D03*
X273856D02*
D03*
D75*
X231394Y183090D02*
D03*
Y177590D02*
D03*
X242316Y182836D02*
D03*
Y177336D02*
D03*
X325196Y60230D02*
D03*
Y54730D02*
D03*
X151459Y366246D02*
D03*
Y360746D02*
D03*
X174658Y366246D02*
D03*
Y360746D02*
D03*
X139860Y366246D02*
D03*
Y360746D02*
D03*
X163059Y366246D02*
D03*
Y360746D02*
D03*
D95*
X421700Y127060D02*
D03*
X365700D02*
D03*
X401700D02*
D03*
D112*
X323088Y130302D02*
D03*
X14224Y458978D02*
D03*
D113*
X417068Y398272D02*
D03*
Y374396D02*
D03*
X329184Y101600D02*
D03*
X346202Y478790D02*
D03*
X308610Y325882D02*
D03*
X304298Y305925D02*
D03*
X327660Y244856D02*
D03*
X365506Y256032D02*
D03*
X304298Y184658D02*
D03*
Y204869D02*
D03*
Y225080D02*
D03*
Y245291D02*
D03*
X328168Y146050D02*
D03*
X304298Y285714D02*
D03*
X151130Y390210D02*
D03*
X203899Y411038D02*
D03*
X181483D02*
D03*
X159067D02*
D03*
X136652D02*
D03*
X304298Y265176D02*
D03*
X11684Y373700D02*
D03*
X217678Y389956D02*
D03*
X226314Y411038D02*
D03*
X194818Y390210D02*
D03*
X172974D02*
D03*
D114*
X417322Y475742D02*
D03*
D115*
Y450342D02*
D03*
D116*
X412070Y235732D02*
D03*
Y149332D02*
D03*
D117*
X358470Y235732D02*
D03*
Y149332D02*
D03*
D118*
X410062Y40390D02*
D03*
X339962D02*
D03*
D119*
X397512Y15490D02*
D03*
X352512D02*
D03*
D157*
X276964Y482090D02*
D03*
X366264D02*
D03*
D158*
X353414Y361190D02*
D03*
X340714D02*
D03*
X328014D02*
D03*
X315314D02*
D03*
X302614D02*
D03*
X289914D02*
D03*
D159*
X274914Y367390D02*
D03*
X368214D02*
D03*
X274914Y424890D02*
D03*
X368214D02*
D03*
D160*
X97954Y152724D02*
D03*
D161*
X22954Y77724D02*
D03*
Y90424D02*
D03*
Y103124D02*
D03*
Y115824D02*
D03*
Y128524D02*
D03*
Y141224D02*
D03*
Y153924D02*
D03*
Y166624D02*
D03*
Y179324D02*
D03*
Y192024D02*
D03*
Y204724D02*
D03*
Y217424D02*
D03*
Y230124D02*
D03*
Y242824D02*
D03*
X192954D02*
D03*
Y230124D02*
D03*
Y217424D02*
D03*
Y204724D02*
D03*
Y192024D02*
D03*
Y179324D02*
D03*
Y166624D02*
D03*
Y153924D02*
D03*
Y141224D02*
D03*
Y128524D02*
D03*
Y115824D02*
D03*
Y103124D02*
D03*
Y90424D02*
D03*
Y77724D02*
D03*
D162*
X50804Y252824D02*
D03*
X63504D02*
D03*
X76204D02*
D03*
X88904D02*
D03*
X101604D02*
D03*
X114304D02*
D03*
X127004D02*
D03*
X139704D02*
D03*
X152404D02*
D03*
X165104D02*
D03*
D163*
X248768Y221554D02*
D03*
X258268Y241554D02*
D03*
X239268D02*
D03*
D164*
X276226Y183896D02*
D03*
X284606D02*
D03*
X348360Y126746D02*
D03*
X339980D02*
D03*
D165*
X424200Y71060D02*
D03*
X363200D02*
D03*
D166*
X404200Y69060D02*
D03*
X383200D02*
D03*
D167*
X304800Y28956D02*
D03*
Y32956D02*
D03*
Y36956D02*
D03*
Y40956D02*
D03*
X275800Y28956D02*
D03*
Y32956D02*
D03*
Y36956D02*
D03*
Y40956D02*
D03*
X304800Y24956D02*
D03*
X275800D02*
D03*
D168*
X290300Y18456D02*
D03*
Y47456D02*
D03*
X294300Y18456D02*
D03*
X298300D02*
D03*
X286300D02*
D03*
X282300D02*
D03*
X294300Y47456D02*
D03*
X298300D02*
D03*
X286300D02*
D03*
X282300D02*
D03*
D169*
X290300Y32956D02*
D03*
D170*
X308528Y71120D02*
D03*
X297528D02*
D03*
X286528D02*
D03*
X275528D02*
D03*
X264528D02*
D03*
X253528D02*
D03*
X242528D02*
D03*
X231528D02*
D03*
X220528D02*
D03*
X308528Y163120D02*
D03*
X297528D02*
D03*
X286528D02*
D03*
X275528D02*
D03*
X220528D02*
D03*
X231528D02*
D03*
X242528D02*
D03*
X253528D02*
D03*
X264528D02*
D03*
M02*
