G04*
G04 #@! TF.GenerationSoftware,Altium Limited,Altium Designer,20.0.1 (14)*
G04*
G04 Layer_Color=8388736*
%FSLAX44Y44*%
%MOMM*%
G71*
G01*
G75*
%ADD68R,0.7332X0.7532*%
%ADD69R,0.9032X1.3532*%
G04:AMPARAMS|DCode=70|XSize=2.4032mm|YSize=1.1532mm|CornerRadius=0.3391mm|HoleSize=0mm|Usage=FLASHONLY|Rotation=90.000|XOffset=0mm|YOffset=0mm|HoleType=Round|Shape=RoundedRectangle|*
%AMROUNDEDRECTD70*
21,1,2.4032,0.4750,0,0,90.0*
21,1,1.7250,1.1532,0,0,90.0*
1,1,0.6782,0.2375,0.8625*
1,1,0.6782,0.2375,-0.8625*
1,1,0.6782,-0.2375,-0.8625*
1,1,0.6782,-0.2375,0.8625*
%
%ADD70ROUNDEDRECTD70*%
G04:AMPARAMS|DCode=71|XSize=1.1532mm|YSize=1.1532mm|CornerRadius=0.3391mm|HoleSize=0mm|Usage=FLASHONLY|Rotation=0.000|XOffset=0mm|YOffset=0mm|HoleType=Round|Shape=RoundedRectangle|*
%AMROUNDEDRECTD71*
21,1,1.1532,0.4750,0,0,0.0*
21,1,0.4750,1.1532,0,0,0.0*
1,1,0.6782,0.2375,-0.2375*
1,1,0.6782,-0.2375,-0.2375*
1,1,0.6782,-0.2375,0.2375*
1,1,0.6782,0.2375,0.2375*
%
%ADD71ROUNDEDRECTD71*%
%ADD72R,3.4032X1.7032*%
%ADD73R,1.8532X0.7032*%
%ADD74R,0.5032X0.6032*%
%ADD75R,0.6032X0.5032*%
%ADD76R,0.4532X0.9032*%
%ADD77R,0.4532X1.6032*%
%ADD78R,0.9032X0.4532*%
G04:AMPARAMS|DCode=79|XSize=1.4732mm|YSize=1.4732mm|CornerRadius=0.4191mm|HoleSize=0mm|Usage=FLASHONLY|Rotation=270.000|XOffset=0mm|YOffset=0mm|HoleType=Round|Shape=RoundedRectangle|*
%AMROUNDEDRECTD79*
21,1,1.4732,0.6350,0,0,270.0*
21,1,0.6350,1.4732,0,0,270.0*
1,1,0.8382,-0.3175,-0.3175*
1,1,0.8382,-0.3175,0.3175*
1,1,0.8382,0.3175,0.3175*
1,1,0.8382,0.3175,-0.3175*
%
%ADD79ROUNDEDRECTD79*%
G04:AMPARAMS|DCode=80|XSize=1.4732mm|YSize=1.4732mm|CornerRadius=0.4191mm|HoleSize=0mm|Usage=FLASHONLY|Rotation=180.000|XOffset=0mm|YOffset=0mm|HoleType=Round|Shape=RoundedRectangle|*
%AMROUNDEDRECTD80*
21,1,1.4732,0.6350,0,0,180.0*
21,1,0.6350,1.4732,0,0,180.0*
1,1,0.8382,-0.3175,0.3175*
1,1,0.8382,0.3175,0.3175*
1,1,0.8382,0.3175,-0.3175*
1,1,0.8382,-0.3175,-0.3175*
%
%ADD80ROUNDEDRECTD80*%
%ADD81R,1.1032X1.1032*%
%ADD82R,0.9032X1.2032*%
%ADD83R,0.9032X0.5032*%
%ADD84R,1.2032X1.4532*%
%ADD85R,0.4532X1.1032*%
%ADD86R,0.4532X1.5032*%
%ADD87R,0.4532X0.8032*%
G04:AMPARAMS|DCode=88|XSize=1.2632mm|YSize=1.9232mm|CornerRadius=0.3507mm|HoleSize=0mm|Usage=FLASHONLY|Rotation=0.000|XOffset=0mm|YOffset=0mm|HoleType=Round|Shape=RoundedRectangle|*
%AMROUNDEDRECTD88*
21,1,1.2632,1.2218,0,0,0.0*
21,1,0.5618,1.9232,0,0,0.0*
1,1,0.7014,0.2809,-0.6109*
1,1,0.7014,-0.2809,-0.6109*
1,1,0.7014,-0.2809,0.6109*
1,1,0.7014,0.2809,0.6109*
%
%ADD88ROUNDEDRECTD88*%
G04:AMPARAMS|DCode=89|XSize=0.7532mm|YSize=0.7332mm|CornerRadius=0.2341mm|HoleSize=0mm|Usage=FLASHONLY|Rotation=180.000|XOffset=0mm|YOffset=0mm|HoleType=Round|Shape=RoundedRectangle|*
%AMROUNDEDRECTD89*
21,1,0.7532,0.2650,0,0,180.0*
21,1,0.2850,0.7332,0,0,180.0*
1,1,0.4682,-0.1425,0.1325*
1,1,0.4682,0.1425,0.1325*
1,1,0.4682,0.1425,-0.1325*
1,1,0.4682,-0.1425,-0.1325*
%
%ADD89ROUNDEDRECTD89*%
G04:AMPARAMS|DCode=90|XSize=0.7532mm|YSize=0.7332mm|CornerRadius=0.2341mm|HoleSize=0mm|Usage=FLASHONLY|Rotation=270.000|XOffset=0mm|YOffset=0mm|HoleType=Round|Shape=RoundedRectangle|*
%AMROUNDEDRECTD90*
21,1,0.7532,0.2650,0,0,270.0*
21,1,0.2850,0.7332,0,0,270.0*
1,1,0.4682,-0.1325,-0.1425*
1,1,0.4682,-0.1325,0.1425*
1,1,0.4682,0.1325,0.1425*
1,1,0.4682,0.1325,-0.1425*
%
%ADD90ROUNDEDRECTD90*%
%ADD91R,0.6000X0.4000*%
%ADD92R,1.7000X2.5000*%
%ADD93R,0.7332X0.7532*%
%ADD94R,1.3532X0.9032*%
%ADD95R,1.2032X1.2032*%
G04:AMPARAMS|DCode=96|XSize=0.9032mm|YSize=1.3532mm|CornerRadius=0.2766mm|HoleSize=0mm|Usage=FLASHONLY|Rotation=90.000|XOffset=0mm|YOffset=0mm|HoleType=Round|Shape=RoundedRectangle|*
%AMROUNDEDRECTD96*
21,1,0.9032,0.8000,0,0,90.0*
21,1,0.3500,1.3532,0,0,90.0*
1,1,0.5532,0.4000,0.1750*
1,1,0.5532,0.4000,-0.1750*
1,1,0.5532,-0.4000,-0.1750*
1,1,0.5532,-0.4000,0.1750*
%
%ADD96ROUNDEDRECTD96*%
G04:AMPARAMS|DCode=97|XSize=1.2632mm|YSize=1.9232mm|CornerRadius=0.3507mm|HoleSize=0mm|Usage=FLASHONLY|Rotation=270.000|XOffset=0mm|YOffset=0mm|HoleType=Round|Shape=RoundedRectangle|*
%AMROUNDEDRECTD97*
21,1,1.2632,1.2218,0,0,270.0*
21,1,0.5618,1.9232,0,0,270.0*
1,1,0.7014,-0.6109,-0.2809*
1,1,0.7014,-0.6109,0.2809*
1,1,0.7014,0.6109,0.2809*
1,1,0.7014,0.6109,-0.2809*
%
%ADD97ROUNDEDRECTD97*%
G04:AMPARAMS|DCode=98|XSize=1.1032mm|YSize=0.4632mm|CornerRadius=0.1341mm|HoleSize=0mm|Usage=FLASHONLY|Rotation=90.000|XOffset=0mm|YOffset=0mm|HoleType=Round|Shape=RoundedRectangle|*
%AMROUNDEDRECTD98*
21,1,1.1032,0.1950,0,0,90.0*
21,1,0.8350,0.4632,0,0,90.0*
1,1,0.2682,0.0975,0.4175*
1,1,0.2682,0.0975,-0.4175*
1,1,0.2682,-0.0975,-0.4175*
1,1,0.2682,-0.0975,0.4175*
%
%ADD98ROUNDEDRECTD98*%
G04:AMPARAMS|DCode=99|XSize=1.1032mm|YSize=0.4632mm|CornerRadius=0.1341mm|HoleSize=0mm|Usage=FLASHONLY|Rotation=180.000|XOffset=0mm|YOffset=0mm|HoleType=Round|Shape=RoundedRectangle|*
%AMROUNDEDRECTD99*
21,1,1.1032,0.1950,0,0,180.0*
21,1,0.8350,0.4632,0,0,180.0*
1,1,0.2682,-0.4175,0.0975*
1,1,0.2682,0.4175,0.0975*
1,1,0.2682,0.4175,-0.0975*
1,1,0.2682,-0.4175,-0.0975*
%
%ADD99ROUNDEDRECTD99*%
%ADD100R,3.2532X2.2532*%
%ADD101R,1.1532X1.0032*%
%ADD102R,0.9032X1.8032*%
%ADD103R,1.0032X0.6032*%
%ADD104R,2.7032X2.1032*%
%ADD105R,0.5032X1.1532*%
%ADD106R,0.5700X0.6000*%
%ADD107R,0.4700X0.6000*%
%ADD108R,0.7532X0.7332*%
%ADD109C,0.4032*%
%ADD110R,0.3500X0.3750*%
%ADD111R,0.3750X0.3500*%
%ADD112C,1.7272*%
%ADD113C,1.1400*%
%ADD114R,1.8032X1.8032*%
%ADD115C,1.8032*%
%ADD116O,2.8032X1.5032*%
%ADD117O,2.4032X1.3032*%
%ADD118C,2.2292*%
%ADD119C,1.7642*%
D68*
X20320Y81154D02*
D03*
Y89534D02*
D03*
X293370Y323470D02*
D03*
Y331850D02*
D03*
X284734Y439472D02*
D03*
Y447852D02*
D03*
X242545Y439065D02*
D03*
Y447445D02*
D03*
X313436Y482726D02*
D03*
Y474346D02*
D03*
X151384Y84202D02*
D03*
Y92582D02*
D03*
X113792Y89026D02*
D03*
Y80646D02*
D03*
D69*
X159002Y180790D02*
D03*
X170002D02*
D03*
X198002Y364290D02*
D03*
X159002Y364290D02*
D03*
X148002D02*
D03*
X137002D02*
D03*
X126002D02*
D03*
X115002D02*
D03*
X104002D02*
D03*
X82002D02*
D03*
X93002D02*
D03*
X71002D02*
D03*
X187002Y364290D02*
D03*
X209002D02*
D03*
X220002D02*
D03*
X231002D02*
D03*
X242002D02*
D03*
X253002D02*
D03*
X264002D02*
D03*
Y180790D02*
D03*
X253002D02*
D03*
X242002D02*
D03*
X231002D02*
D03*
X220002D02*
D03*
X209002D02*
D03*
X198002D02*
D03*
X187002D02*
D03*
X71002Y180790D02*
D03*
X93002D02*
D03*
X82002D02*
D03*
X104002D02*
D03*
X115002D02*
D03*
X126002D02*
D03*
X137002D02*
D03*
X148002D02*
D03*
X170002Y364290D02*
D03*
D70*
X8610Y276353D02*
D03*
X37110D02*
D03*
D71*
X22860Y260603D02*
D03*
D72*
X377952Y477184D02*
D03*
Y435184D02*
D03*
D73*
X394837Y365813D02*
D03*
X394783Y400759D02*
D03*
D74*
X368692Y389128D02*
D03*
X374192D02*
D03*
X368732Y382359D02*
D03*
X374232D02*
D03*
X374694Y375158D02*
D03*
X380194D02*
D03*
X380194Y365252D02*
D03*
X374694D02*
D03*
X345650Y367792D02*
D03*
X340150D02*
D03*
X361238Y389636D02*
D03*
X355738D02*
D03*
X333546Y350266D02*
D03*
X339046D02*
D03*
X339300Y342138D02*
D03*
X333800D02*
D03*
X333546Y334603D02*
D03*
X339046D02*
D03*
X339246Y326136D02*
D03*
X333746D02*
D03*
X333546Y318008D02*
D03*
X339046D02*
D03*
X407554Y338582D02*
D03*
X413054D02*
D03*
X407554Y330708D02*
D03*
X413054D02*
D03*
X377234Y295656D02*
D03*
X382734D02*
D03*
X358278Y311658D02*
D03*
X363778D02*
D03*
X369708D02*
D03*
X375208D02*
D03*
X369708Y304546D02*
D03*
X375208D02*
D03*
X276308Y378742D02*
D03*
X270808D02*
D03*
X105454Y389890D02*
D03*
X110954D02*
D03*
X105454Y381762D02*
D03*
X110954D02*
D03*
X147618Y165862D02*
D03*
X153118D02*
D03*
X48768Y101600D02*
D03*
X43268D02*
D03*
X37829Y108200D02*
D03*
X43328D02*
D03*
X262218Y130150D02*
D03*
X256718D02*
D03*
X270852Y385854D02*
D03*
X276352D02*
D03*
X270852Y392712D02*
D03*
X276352D02*
D03*
D75*
X362806Y373336D02*
D03*
Y367836D02*
D03*
X355346Y399840D02*
D03*
Y405340D02*
D03*
X355266Y373336D02*
D03*
Y367836D02*
D03*
X355760Y277114D02*
D03*
Y271614D02*
D03*
X362618Y277114D02*
D03*
Y271614D02*
D03*
X369222Y277114D02*
D03*
Y271614D02*
D03*
X266598Y473419D02*
D03*
Y467919D02*
D03*
X258572Y467719D02*
D03*
Y473219D02*
D03*
X250546Y473419D02*
D03*
Y467919D02*
D03*
X6350Y322304D02*
D03*
Y327804D02*
D03*
X14478D02*
D03*
Y322304D02*
D03*
X167386Y127298D02*
D03*
Y132798D02*
D03*
X43180Y153372D02*
D03*
Y147872D02*
D03*
X42934Y141942D02*
D03*
Y136442D02*
D03*
Y129750D02*
D03*
Y124250D02*
D03*
X22606Y327804D02*
D03*
Y322304D02*
D03*
D76*
X358708Y324686D02*
D03*
X383708D02*
D03*
Y353686D02*
D03*
X358708D02*
D03*
D77*
X363708Y328186D02*
D03*
X368708D02*
D03*
X373708D02*
D03*
X378708D02*
D03*
Y350186D02*
D03*
X373708D02*
D03*
X368708D02*
D03*
X363708D02*
D03*
D78*
X390708Y331686D02*
D03*
Y336686D02*
D03*
Y341686D02*
D03*
Y346686D02*
D03*
X351708D02*
D03*
Y341686D02*
D03*
Y336686D02*
D03*
Y331686D02*
D03*
D79*
X328422Y299974D02*
D03*
Y266954D02*
D03*
D80*
X422148Y256540D02*
D03*
X389128D02*
D03*
D81*
X346202Y279766D02*
D03*
Y293766D02*
D03*
D82*
X367370Y161532D02*
D03*
Y223532D02*
D03*
D83*
Y170032D02*
D03*
Y175032D02*
D03*
Y180032D02*
D03*
Y185032D02*
D03*
Y190032D02*
D03*
Y195032D02*
D03*
Y200032D02*
D03*
Y205032D02*
D03*
Y210032D02*
D03*
Y215032D02*
D03*
X354370Y222532D02*
D03*
Y217532D02*
D03*
Y212532D02*
D03*
Y207532D02*
D03*
Y202532D02*
D03*
Y197532D02*
D03*
Y187532D02*
D03*
Y182532D02*
D03*
Y177532D02*
D03*
Y172532D02*
D03*
Y167532D02*
D03*
Y162532D02*
D03*
D84*
X282999Y416003D02*
D03*
X262999D02*
D03*
D85*
X273627Y437693D02*
D03*
X268627D02*
D03*
X258627D02*
D03*
X253627D02*
D03*
D86*
X263627Y439693D02*
D03*
D87*
X253627Y454193D02*
D03*
X258627D02*
D03*
X263627D02*
D03*
X268627D02*
D03*
X273627D02*
D03*
D88*
X262528Y386654D02*
D03*
X234028D02*
D03*
D89*
X207232Y485460D02*
D03*
X215612D02*
D03*
X189198D02*
D03*
X197578D02*
D03*
X96486Y434914D02*
D03*
X88106D02*
D03*
X96486Y406720D02*
D03*
X88106D02*
D03*
X42526Y239014D02*
D03*
X34146D02*
D03*
D90*
X132174Y474158D02*
D03*
Y482538D02*
D03*
Y456124D02*
D03*
Y464504D02*
D03*
X96614Y416500D02*
D03*
Y424880D02*
D03*
X43020Y229046D02*
D03*
Y220666D02*
D03*
X34036Y220600D02*
D03*
Y228980D02*
D03*
D91*
X96868Y377828D02*
D03*
Y383328D02*
D03*
Y388328D02*
D03*
Y393328D02*
D03*
Y398828D02*
D03*
X71868D02*
D03*
Y393328D02*
D03*
Y388328D02*
D03*
Y383328D02*
D03*
Y377828D02*
D03*
D92*
X84368Y388328D02*
D03*
D93*
X57658Y394842D02*
D03*
Y386462D02*
D03*
X167640Y110872D02*
D03*
Y119252D02*
D03*
X205486Y102744D02*
D03*
Y111124D02*
D03*
X302514Y11304D02*
D03*
Y19684D02*
D03*
X282575Y11304D02*
D03*
Y19684D02*
D03*
X262636Y11304D02*
D03*
Y19684D02*
D03*
X205386Y132462D02*
D03*
Y140842D02*
D03*
D94*
X278252Y278040D02*
D03*
Y289040D02*
D03*
Y300040D02*
D03*
Y311040D02*
D03*
Y322040D02*
D03*
Y333040D02*
D03*
Y344040D02*
D03*
Y253040D02*
D03*
Y242040D02*
D03*
Y231040D02*
D03*
Y220040D02*
D03*
Y209040D02*
D03*
Y198040D02*
D03*
X57752D02*
D03*
Y209040D02*
D03*
Y231040D02*
D03*
Y242040D02*
D03*
Y253040D02*
D03*
Y344040D02*
D03*
Y333040D02*
D03*
Y322040D02*
D03*
Y311040D02*
D03*
Y300040D02*
D03*
Y289040D02*
D03*
Y278040D02*
D03*
D95*
X91502Y298040D02*
D03*
Y247040D02*
D03*
Y264040D02*
D03*
Y281040D02*
D03*
X108502D02*
D03*
Y264040D02*
D03*
Y247040D02*
D03*
Y298040D02*
D03*
X244502Y247040D02*
D03*
Y264040D02*
D03*
Y281040D02*
D03*
Y298040D02*
D03*
X227502D02*
D03*
Y247040D02*
D03*
Y264040D02*
D03*
Y281040D02*
D03*
X210502Y332040D02*
D03*
X193502D02*
D03*
X176502D02*
D03*
X159502D02*
D03*
X142502D02*
D03*
X125502D02*
D03*
Y315040D02*
D03*
X142502D02*
D03*
X159502D02*
D03*
X210502D02*
D03*
X193502D02*
D03*
X142502Y213040D02*
D03*
X125502D02*
D03*
X159502Y213040D02*
D03*
X176502D02*
D03*
X193502D02*
D03*
X210502D02*
D03*
Y230040D02*
D03*
X193502D02*
D03*
X125502D02*
D03*
X142502D02*
D03*
X159502D02*
D03*
X176502D02*
D03*
Y315040D02*
D03*
D96*
X57752Y220040D02*
D03*
D97*
X37846Y319024D02*
D03*
Y347524D02*
D03*
D98*
X151612Y118024D02*
D03*
X116612Y151724D02*
D03*
Y118024D02*
D03*
X121612D02*
D03*
X126612D02*
D03*
X131612D02*
D03*
X136612D02*
D03*
X141612D02*
D03*
X146612D02*
D03*
X151612Y151724D02*
D03*
X146612D02*
D03*
X141612D02*
D03*
X136612D02*
D03*
X131612D02*
D03*
X126612D02*
D03*
X121612D02*
D03*
D99*
X155962Y127374D02*
D03*
X112262Y142374D02*
D03*
Y127374D02*
D03*
X155962Y142374D02*
D03*
D100*
X134112Y134874D02*
D03*
D101*
X36066Y73026D02*
D03*
Y89026D02*
D03*
X301750Y132650D02*
D03*
Y116650D02*
D03*
X302608Y34544D02*
D03*
Y50544D02*
D03*
X282749Y34544D02*
D03*
Y50544D02*
D03*
X262890Y34544D02*
D03*
Y50544D02*
D03*
D102*
X189738Y80518D02*
D03*
D103*
X179738Y75518D02*
D03*
Y85518D02*
D03*
X199738D02*
D03*
Y75518D02*
D03*
D104*
X316484Y432308D02*
D03*
D105*
X326234Y413308D02*
D03*
X319734D02*
D03*
X313234D02*
D03*
X306734D02*
D03*
Y451308D02*
D03*
X313234D02*
D03*
X319734D02*
D03*
X326234D02*
D03*
D106*
X254000Y155574D02*
D03*
X232156D02*
D03*
D107*
X250000Y147574D02*
D03*
X258000D02*
D03*
X228156D02*
D03*
X236156D02*
D03*
D108*
X283082Y140462D02*
D03*
X274702D02*
D03*
X280288Y109918D02*
D03*
X271908D02*
D03*
D109*
X274130Y121476D02*
D03*
Y125476D02*
D03*
Y129476D02*
D03*
X278130Y121476D02*
D03*
Y125476D02*
D03*
Y129476D02*
D03*
X282130Y121476D02*
D03*
Y125476D02*
D03*
Y129476D02*
D03*
X286130Y121476D02*
D03*
Y125476D02*
D03*
Y129476D02*
D03*
D110*
X136353Y74248D02*
D03*
X131353D02*
D03*
X131353Y89248D02*
D03*
X136353D02*
D03*
D111*
X126228Y74248D02*
D03*
Y79248D02*
D03*
Y84248D02*
D03*
Y89248D02*
D03*
X141478Y74248D02*
D03*
Y89248D02*
D03*
Y84248D02*
D03*
Y79248D02*
D03*
D112*
X323088Y130302D02*
D03*
X14224Y458978D02*
D03*
D113*
X417068Y398272D02*
D03*
Y374396D02*
D03*
X329184Y101600D02*
D03*
X346202Y478790D02*
D03*
X308610Y325882D02*
D03*
X304298Y305925D02*
D03*
X327660Y244856D02*
D03*
X365506Y256032D02*
D03*
X304298Y184658D02*
D03*
Y204869D02*
D03*
Y225080D02*
D03*
Y245291D02*
D03*
X328168Y146050D02*
D03*
X304298Y285714D02*
D03*
X151130Y390210D02*
D03*
X203899Y411038D02*
D03*
X181483D02*
D03*
X159067D02*
D03*
X136652D02*
D03*
X304298Y265176D02*
D03*
X11684Y373700D02*
D03*
X217678Y389956D02*
D03*
X226314Y411038D02*
D03*
X194818Y390210D02*
D03*
X172974D02*
D03*
D114*
X417322Y475742D02*
D03*
D115*
Y450342D02*
D03*
D116*
X412070Y235732D02*
D03*
Y149332D02*
D03*
D117*
X358470Y235732D02*
D03*
Y149332D02*
D03*
D118*
X410062Y40390D02*
D03*
X339962D02*
D03*
D119*
X397512Y15490D02*
D03*
X352512D02*
D03*
M02*
