G04*
G04 #@! TF.GenerationSoftware,Altium Limited,Altium Designer,20.0.1 (14)*
G04*
G04 Layer_Physical_Order=1*
G04 Layer_Color=255*
%FSLAX44Y44*%
%MOMM*%
G71*
G01*
G75*
%ADD13C,0.2500*%
%ADD16C,0.2540*%
%ADD25R,0.5300X0.5500*%
%ADD26R,0.7000X1.1500*%
G04:AMPARAMS|DCode=27|XSize=2.2mm|YSize=0.95mm|CornerRadius=0.2375mm|HoleSize=0mm|Usage=FLASHONLY|Rotation=90.000|XOffset=0mm|YOffset=0mm|HoleType=Round|Shape=RoundedRectangle|*
%AMROUNDEDRECTD27*
21,1,2.2000,0.4750,0,0,90.0*
21,1,1.7250,0.9500,0,0,90.0*
1,1,0.4750,0.2375,0.8625*
1,1,0.4750,0.2375,-0.8625*
1,1,0.4750,-0.2375,-0.8625*
1,1,0.4750,-0.2375,0.8625*
%
%ADD27ROUNDEDRECTD27*%
G04:AMPARAMS|DCode=28|XSize=0.95mm|YSize=0.95mm|CornerRadius=0.2375mm|HoleSize=0mm|Usage=FLASHONLY|Rotation=0.000|XOffset=0mm|YOffset=0mm|HoleType=Round|Shape=RoundedRectangle|*
%AMROUNDEDRECTD28*
21,1,0.9500,0.4750,0,0,0.0*
21,1,0.4750,0.9500,0,0,0.0*
1,1,0.4750,0.2375,-0.2375*
1,1,0.4750,-0.2375,-0.2375*
1,1,0.4750,-0.2375,0.2375*
1,1,0.4750,0.2375,0.2375*
%
%ADD28ROUNDEDRECTD28*%
%ADD29R,3.2000X1.5000*%
%ADD30R,1.6500X0.5000*%
%ADD31R,0.3000X0.4000*%
%ADD32R,0.4000X0.3000*%
%ADD33R,0.2500X0.7000*%
%ADD34R,0.2500X1.4000*%
%ADD35R,0.7000X0.2500*%
G04:AMPARAMS|DCode=36|XSize=1.27mm|YSize=1.27mm|CornerRadius=0.3175mm|HoleSize=0mm|Usage=FLASHONLY|Rotation=270.000|XOffset=0mm|YOffset=0mm|HoleType=Round|Shape=RoundedRectangle|*
%AMROUNDEDRECTD36*
21,1,1.2700,0.6350,0,0,270.0*
21,1,0.6350,1.2700,0,0,270.0*
1,1,0.6350,-0.3175,-0.3175*
1,1,0.6350,-0.3175,0.3175*
1,1,0.6350,0.3175,0.3175*
1,1,0.6350,0.3175,-0.3175*
%
%ADD36ROUNDEDRECTD36*%
G04:AMPARAMS|DCode=37|XSize=1.27mm|YSize=1.27mm|CornerRadius=0.3175mm|HoleSize=0mm|Usage=FLASHONLY|Rotation=180.000|XOffset=0mm|YOffset=0mm|HoleType=Round|Shape=RoundedRectangle|*
%AMROUNDEDRECTD37*
21,1,1.2700,0.6350,0,0,180.0*
21,1,0.6350,1.2700,0,0,180.0*
1,1,0.6350,-0.3175,0.3175*
1,1,0.6350,0.3175,0.3175*
1,1,0.6350,0.3175,-0.3175*
1,1,0.6350,-0.3175,-0.3175*
%
%ADD37ROUNDEDRECTD37*%
%ADD38R,0.9000X0.9000*%
%ADD39R,0.7000X1.0000*%
%ADD40R,0.7000X0.3000*%
%ADD41R,1.0000X1.2500*%
%ADD42R,0.2500X0.9000*%
%ADD43R,0.2500X1.3000*%
%ADD44R,0.2500X0.6000*%
G04:AMPARAMS|DCode=45|XSize=1.06mm|YSize=1.72mm|CornerRadius=0.2491mm|HoleSize=0mm|Usage=FLASHONLY|Rotation=0.000|XOffset=0mm|YOffset=0mm|HoleType=Round|Shape=RoundedRectangle|*
%AMROUNDEDRECTD45*
21,1,1.0600,1.2218,0,0,0.0*
21,1,0.5618,1.7200,0,0,0.0*
1,1,0.4982,0.2809,-0.6109*
1,1,0.4982,-0.2809,-0.6109*
1,1,0.4982,-0.2809,0.6109*
1,1,0.4982,0.2809,0.6109*
%
%ADD45ROUNDEDRECTD45*%
G04:AMPARAMS|DCode=46|XSize=0.55mm|YSize=0.53mm|CornerRadius=0.1325mm|HoleSize=0mm|Usage=FLASHONLY|Rotation=180.000|XOffset=0mm|YOffset=0mm|HoleType=Round|Shape=RoundedRectangle|*
%AMROUNDEDRECTD46*
21,1,0.5500,0.2650,0,0,180.0*
21,1,0.2850,0.5300,0,0,180.0*
1,1,0.2650,-0.1425,0.1325*
1,1,0.2650,0.1425,0.1325*
1,1,0.2650,0.1425,-0.1325*
1,1,0.2650,-0.1425,-0.1325*
%
%ADD46ROUNDEDRECTD46*%
G04:AMPARAMS|DCode=47|XSize=0.55mm|YSize=0.53mm|CornerRadius=0.1325mm|HoleSize=0mm|Usage=FLASHONLY|Rotation=270.000|XOffset=0mm|YOffset=0mm|HoleType=Round|Shape=RoundedRectangle|*
%AMROUNDEDRECTD47*
21,1,0.5500,0.2650,0,0,270.0*
21,1,0.2850,0.5300,0,0,270.0*
1,1,0.2650,-0.1325,-0.1425*
1,1,0.2650,-0.1325,0.1425*
1,1,0.2650,0.1325,0.1425*
1,1,0.2650,0.1325,-0.1425*
%
%ADD47ROUNDEDRECTD47*%
%ADD48R,0.5000X0.3000*%
%ADD49R,1.6000X2.4000*%
%ADD50R,0.5300X0.5500*%
%ADD51R,1.1500X0.7000*%
%ADD52R,1.0000X1.0000*%
G04:AMPARAMS|DCode=53|XSize=0.7mm|YSize=1.15mm|CornerRadius=0.175mm|HoleSize=0mm|Usage=FLASHONLY|Rotation=90.000|XOffset=0mm|YOffset=0mm|HoleType=Round|Shape=RoundedRectangle|*
%AMROUNDEDRECTD53*
21,1,0.7000,0.8000,0,0,90.0*
21,1,0.3500,1.1500,0,0,90.0*
1,1,0.3500,0.4000,0.1750*
1,1,0.3500,0.4000,-0.1750*
1,1,0.3500,-0.4000,-0.1750*
1,1,0.3500,-0.4000,0.1750*
%
%ADD53ROUNDEDRECTD53*%
G04:AMPARAMS|DCode=54|XSize=1.06mm|YSize=1.72mm|CornerRadius=0.2491mm|HoleSize=0mm|Usage=FLASHONLY|Rotation=270.000|XOffset=0mm|YOffset=0mm|HoleType=Round|Shape=RoundedRectangle|*
%AMROUNDEDRECTD54*
21,1,1.0600,1.2218,0,0,270.0*
21,1,0.5618,1.7200,0,0,270.0*
1,1,0.4982,-0.6109,-0.2809*
1,1,0.4982,-0.6109,0.2809*
1,1,0.4982,0.6109,0.2809*
1,1,0.4982,0.6109,-0.2809*
%
%ADD54ROUNDEDRECTD54*%
G04:AMPARAMS|DCode=55|XSize=0.9mm|YSize=0.26mm|CornerRadius=0.0325mm|HoleSize=0mm|Usage=FLASHONLY|Rotation=90.000|XOffset=0mm|YOffset=0mm|HoleType=Round|Shape=RoundedRectangle|*
%AMROUNDEDRECTD55*
21,1,0.9000,0.1950,0,0,90.0*
21,1,0.8350,0.2600,0,0,90.0*
1,1,0.0650,0.0975,0.4175*
1,1,0.0650,0.0975,-0.4175*
1,1,0.0650,-0.0975,-0.4175*
1,1,0.0650,-0.0975,0.4175*
%
%ADD55ROUNDEDRECTD55*%
G04:AMPARAMS|DCode=56|XSize=0.9mm|YSize=0.26mm|CornerRadius=0.0325mm|HoleSize=0mm|Usage=FLASHONLY|Rotation=180.000|XOffset=0mm|YOffset=0mm|HoleType=Round|Shape=RoundedRectangle|*
%AMROUNDEDRECTD56*
21,1,0.9000,0.1950,0,0,180.0*
21,1,0.8350,0.2600,0,0,180.0*
1,1,0.0650,-0.4175,0.0975*
1,1,0.0650,0.4175,0.0975*
1,1,0.0650,0.4175,-0.0975*
1,1,0.0650,-0.4175,-0.0975*
%
%ADD56ROUNDEDRECTD56*%
%ADD57R,0.9500X0.8000*%
%ADD58R,0.7000X1.6000*%
%ADD59R,0.8000X0.4000*%
%ADD60R,2.5000X1.9000*%
%ADD61R,0.3000X0.9500*%
%ADD62R,0.4700X0.5000*%
%ADD63R,0.3700X0.5000*%
%ADD64R,0.5500X0.5300*%
%ADD65C,0.2000*%
%ADD66R,0.2500X0.2750*%
%ADD67R,0.2750X0.2500*%
%ADD120C,0.5080*%
%ADD121C,0.5000*%
%ADD122R,3.0500X2.0500*%
%ADD123C,0.1778*%
%ADD124C,0.3048*%
%ADD125C,0.2700*%
%ADD126C,0.2032*%
%ADD127C,0.3810*%
%ADD128C,0.1444*%
%ADD129R,0.6260X0.5010*%
%ADD130C,1.5240*%
%ADD131C,1.0000*%
%ADD132R,1.6000X1.6000*%
%ADD133C,1.6000*%
%ADD134O,2.6000X1.3000*%
%ADD135O,2.2000X1.1000*%
%ADD136C,2.0260*%
%ADD137C,1.5610*%
%ADD138C,0.3048*%
%ADD139C,0.5080*%
%ADD140C,0.4064*%
G36*
X430022Y466344D02*
X427228Y463550D01*
X405892D01*
X400558Y458216D01*
X336296D01*
X331724Y462788D01*
Y471754D01*
X314706Y471754D01*
X314706Y446913D01*
X311658Y446888D01*
Y472568D01*
X315061Y475971D01*
X331724D01*
X331724Y489966D01*
X430022Y489966D01*
Y466344D01*
D02*
G37*
G36*
X330074Y488730D02*
Y477620D01*
X318687D01*
X317610Y478620D01*
X317356Y479785D01*
Y481456D01*
X313436D01*
X309516D01*
Y479785D01*
X309262Y478620D01*
X309262Y477541D01*
Y470072D01*
X310008D01*
Y458748D01*
X309758Y457582D01*
X303710D01*
Y454934D01*
X299209D01*
X298958Y454984D01*
X297570Y454708D01*
X296394Y453922D01*
X295608Y452746D01*
X295332Y451358D01*
X295608Y449971D01*
X296394Y448794D01*
X296444Y448744D01*
X296444Y448744D01*
X297621Y447958D01*
X299008Y447682D01*
X299008Y447682D01*
X303710D01*
Y445034D01*
X309758D01*
X309758Y445034D01*
X310210D01*
Y445034D01*
X311028Y445034D01*
X315799D01*
X316258Y445034D01*
X317423Y445288D01*
X318464D01*
Y451308D01*
Y457328D01*
X316964D01*
X316356Y458346D01*
X316356Y470072D01*
X317610D01*
Y470105D01*
X330074Y470105D01*
Y462788D01*
X330558Y461622D01*
X335130Y457050D01*
X336296Y456566D01*
X400558D01*
X401724Y457050D01*
X406575Y461900D01*
X427228D01*
X428394Y462384D01*
X428827Y462816D01*
X430000Y462330D01*
Y263002D01*
X428730Y262617D01*
X428528Y262920D01*
X427057Y263902D01*
X425323Y264247D01*
X423418D01*
Y256540D01*
Y248833D01*
X425323D01*
X427057Y249178D01*
X428528Y250160D01*
X428730Y250463D01*
X430000Y250078D01*
Y135890D01*
X351028D01*
X347218Y132080D01*
Y64770D01*
X353568Y58420D01*
X430000D01*
Y0D01*
X303014D01*
X302889Y1270D01*
X303338Y1359D01*
X304001Y1491D01*
X305261Y2333D01*
X306103Y3593D01*
X306399Y5080D01*
Y7030D01*
X306688D01*
Y15410D01*
Y23958D01*
X306493D01*
Y29020D01*
X308882D01*
Y40068D01*
X296334D01*
Y29020D01*
X298723D01*
Y23958D01*
X298340D01*
Y15410D01*
Y8748D01*
X298087Y8540D01*
X296497Y8633D01*
X295489Y9307D01*
X294300Y9544D01*
X293111Y9307D01*
X292103Y8633D01*
X291429Y7625D01*
X291192Y6436D01*
X291429Y5247D01*
X292103Y4238D01*
X293111Y3565D01*
X294300Y3328D01*
X295489Y3565D01*
X296497Y4238D01*
X297171Y5247D01*
X297359Y6193D01*
X298629Y6068D01*
Y5080D01*
X298925Y3593D01*
X299767Y2333D01*
X301027Y1491D01*
X301690Y1359D01*
X302139Y1270D01*
X302014Y0D01*
X284512D01*
X284485Y67D01*
X284301Y1270D01*
X285322Y1952D01*
X286164Y3212D01*
X286460Y4699D01*
Y7030D01*
X286749D01*
Y15410D01*
Y23958D01*
X283795D01*
X283539Y24214D01*
Y29020D01*
X289023D01*
Y40068D01*
X276475D01*
Y33549D01*
X276065Y32936D01*
X275769Y31449D01*
Y22605D01*
X275810Y22400D01*
X275518Y22044D01*
X274700Y21473D01*
X273812Y21650D01*
X272623Y21413D01*
X271614Y20740D01*
X270941Y19731D01*
X270704Y18542D01*
X270941Y17353D01*
X271614Y16344D01*
X272623Y15671D01*
X273812Y15434D01*
X275001Y15671D01*
X276010Y16344D01*
X276683Y17353D01*
X278040Y17663D01*
X278401Y17426D01*
Y7030D01*
X278690D01*
Y4699D01*
X278986Y3212D01*
X279828Y1952D01*
X280849Y1270D01*
X280665Y67D01*
X280638Y0D01*
X264463D01*
X264153Y1175D01*
X264172Y1270D01*
X265383Y2079D01*
X266225Y3339D01*
X266521Y4826D01*
Y7030D01*
X266810D01*
Y15410D01*
Y23958D01*
X266521D01*
Y29020D01*
X269164D01*
Y40068D01*
X266365D01*
X265766Y41338D01*
X266240Y42046D01*
X266516Y43434D01*
Y45020D01*
X269164D01*
Y56068D01*
X256616D01*
Y45020D01*
X259264D01*
Y43434D01*
X259540Y42046D01*
X260014Y41338D01*
X259415Y40068D01*
X256616D01*
Y29020D01*
X258751D01*
Y23958D01*
X258462D01*
Y15410D01*
Y7030D01*
X258751D01*
Y4826D01*
X259047Y3339D01*
X259889Y2079D01*
X261100Y1270D01*
X261119Y1175D01*
X260809Y0D01*
X206650D01*
Y65000D01*
X206166Y66166D01*
X205000Y66650D01*
X160812D01*
X160326Y67823D01*
X163092Y70588D01*
X163878Y71764D01*
X164154Y73152D01*
X163931Y74270D01*
X164620Y75540D01*
X164764D01*
X164764Y75540D01*
X166152Y75816D01*
X167328Y76602D01*
X172618Y81892D01*
X179738D01*
X180249Y81994D01*
X184968D01*
Y81788D01*
X189738D01*
X194508D01*
Y81994D01*
X199227D01*
X199738Y81892D01*
X200249Y81994D01*
X205262D01*
Y89042D01*
X203524D01*
Y91186D01*
X203248Y92573D01*
X202462Y93750D01*
X202462Y93750D01*
X199668Y96544D01*
X198491Y97330D01*
X197104Y97606D01*
X197104Y97606D01*
X186414D01*
X179902Y104118D01*
Y107880D01*
X185950D01*
X193650Y100180D01*
X194827Y99394D01*
X196214Y99118D01*
X196214Y99118D01*
X201312D01*
Y98470D01*
X209660D01*
Y107239D01*
X216280D01*
X217767Y107535D01*
X219027Y108377D01*
X221695Y111045D01*
X222537Y112305D01*
X222833Y113792D01*
Y119126D01*
X222537Y120613D01*
X221695Y121873D01*
X220435Y122715D01*
X218948Y123011D01*
X217461Y122715D01*
X216201Y121873D01*
X215359Y120613D01*
X215063Y119126D01*
Y115401D01*
X214671Y115009D01*
X209660D01*
Y115398D01*
X201312D01*
Y106370D01*
X197716D01*
X190016Y114070D01*
X188839Y114856D01*
X187452Y115132D01*
X187452Y115132D01*
X176276D01*
X174888Y114856D01*
X173712Y114070D01*
X173084Y113129D01*
X171912Y113301D01*
X171814Y113341D01*
Y123526D01*
X171139D01*
Y127171D01*
X171139Y127171D01*
X170910Y128321D01*
Y130322D01*
X170656D01*
Y131528D01*
X164116D01*
Y130962D01*
X156153D01*
X155962Y131000D01*
X154574Y130724D01*
X153842Y130234D01*
X151787D01*
X150632Y131212D01*
Y133604D01*
X134112D01*
X117592D01*
Y131212D01*
X116437Y130234D01*
X114382D01*
X113650Y130724D01*
X112262Y131000D01*
X103498D01*
X102111Y130724D01*
X100934Y129938D01*
X100934Y129938D01*
X98020Y127024D01*
X97234Y125848D01*
X96958Y124460D01*
X96958Y124460D01*
Y123071D01*
X95688Y122545D01*
X94004Y124230D01*
X92828Y125016D01*
X91440Y125292D01*
X91440Y125292D01*
X75670D01*
X63824Y137138D01*
Y139665D01*
X65094Y140051D01*
X65254Y139810D01*
X66431Y139024D01*
X67818Y138748D01*
X112262D01*
X113650Y139024D01*
X114382Y139514D01*
X116437D01*
X117592Y138536D01*
Y136144D01*
X134112D01*
X150632D01*
Y138806D01*
X150660Y138864D01*
X151787Y139773D01*
X154692D01*
Y142374D01*
Y144975D01*
X154349D01*
X153974Y146060D01*
X153940Y146245D01*
X154329Y146828D01*
X154472Y147549D01*
Y155899D01*
X154879Y156394D01*
X163322D01*
X163322Y156394D01*
X164709Y156670D01*
X165886Y157456D01*
X169696Y161266D01*
X170482Y162442D01*
X170758Y163830D01*
X170482Y165217D01*
X169696Y166394D01*
X168519Y167180D01*
X167132Y167456D01*
X166810Y167392D01*
X165797Y168485D01*
X165932Y169164D01*
X165656Y170551D01*
X164870Y171728D01*
X164842Y171779D01*
X164889Y173242D01*
X165297Y173516D01*
X175026D01*
Y188064D01*
X170162D01*
X169185Y188715D01*
Y191528D01*
X169734Y192349D01*
X169987Y193622D01*
Y194056D01*
X169734Y195329D01*
X169013Y196408D01*
X167934Y197129D01*
X166661Y197382D01*
X165388Y197129D01*
X164502Y196537D01*
X163616Y197129D01*
X162343Y197382D01*
X161070Y197129D01*
X159991Y196408D01*
X159270Y195329D01*
X159017Y194056D01*
Y193622D01*
X159270Y192349D01*
X159819Y191528D01*
Y189839D01*
X159819Y189839D01*
Y189128D01*
X158701Y188064D01*
X154296D01*
X153978Y188064D01*
X153026D01*
X152708Y188064D01*
X143296D01*
X142978Y188064D01*
X142026D01*
X141708Y188064D01*
X132296D01*
X131978Y188064D01*
X131026D01*
X130708Y188064D01*
X121296D01*
X120978Y188064D01*
X120026D01*
X119708Y188064D01*
X110296D01*
X109978Y188064D01*
X109026D01*
X108708Y188064D01*
X98978D01*
Y187964D01*
X97772Y187810D01*
X97708Y187810D01*
X94272D01*
Y180790D01*
Y173770D01*
X97708D01*
X97772Y173770D01*
X98978Y173615D01*
Y173516D01*
X108708D01*
X109026Y173516D01*
X109978D01*
X110296Y173516D01*
X119708D01*
X120026Y173516D01*
X120978D01*
X121296Y173516D01*
X130708D01*
X131026Y173516D01*
X131978D01*
X132296Y173516D01*
X141708D01*
X142026Y173516D01*
X142978D01*
X143992Y172534D01*
Y165862D01*
X144180Y164916D01*
X143535Y163850D01*
X143295Y163646D01*
X142802D01*
X141508Y163388D01*
X141372Y163396D01*
X140238Y164110D01*
X140238Y164111D01*
Y165153D01*
X140278Y165354D01*
X140002Y166742D01*
X139216Y167918D01*
X138040Y168704D01*
X136652Y168980D01*
X135265Y168704D01*
X134088Y167918D01*
X134048Y167878D01*
X133262Y166702D01*
X132986Y165314D01*
X132986Y165314D01*
X131716Y164328D01*
X131318Y164408D01*
X131219Y164388D01*
X130238Y165194D01*
Y166966D01*
X130372Y167640D01*
X130096Y169028D01*
X129310Y170204D01*
X128133Y170990D01*
X126746Y171266D01*
X125358Y170990D01*
X124182Y170204D01*
X124048Y170070D01*
X123262Y168894D01*
X122986Y167506D01*
X122986Y167506D01*
Y164183D01*
X121813Y163697D01*
X118608Y166902D01*
X117432Y167688D01*
X116044Y167964D01*
X116044Y167964D01*
X58928D01*
X57982Y168740D01*
Y174520D01*
X60626Y177164D01*
X65978D01*
Y173516D01*
X75708D01*
X76026Y173516D01*
X76978D01*
X77296Y173516D01*
X87026D01*
Y173615D01*
X88232Y173770D01*
X88296Y173770D01*
X91732D01*
Y180790D01*
Y187810D01*
X88296D01*
X88232Y187810D01*
X87026Y187964D01*
Y188064D01*
X77296D01*
X76978Y188064D01*
X76026D01*
X75708Y188064D01*
X65978D01*
Y184416D01*
X59124D01*
X59124Y184416D01*
X57737Y184140D01*
X56560Y183354D01*
X56560Y183354D01*
X54515Y181309D01*
X53342Y181795D01*
Y193270D01*
X56482D01*
Y198040D01*
Y202810D01*
X50732D01*
Y200403D01*
X49559Y199917D01*
X42696Y206780D01*
X41519Y207566D01*
X40132Y207842D01*
X38744Y207566D01*
X37568Y206780D01*
X36782Y205604D01*
X36506Y204216D01*
X36782Y202829D01*
X37568Y201652D01*
X46090Y193130D01*
Y156958D01*
X44820Y156553D01*
X44567Y156722D01*
X43180Y156998D01*
X37559D01*
X37338Y157042D01*
X35951Y156766D01*
X34774Y155980D01*
X33988Y154803D01*
X33712Y153416D01*
X33988Y152029D01*
X34774Y150852D01*
X34818Y150808D01*
X34818Y150808D01*
X35995Y150022D01*
X37382Y149746D01*
X39910D01*
Y149142D01*
X43180D01*
X46450D01*
Y150348D01*
X46704D01*
Y151604D01*
X47974Y152130D01*
X51284Y148820D01*
X52460Y148034D01*
X53848Y147758D01*
X55236Y148034D01*
X55302Y148079D01*
X56572Y147400D01*
Y135636D01*
X56572Y135636D01*
X56848Y134249D01*
X57634Y133072D01*
X71604Y119102D01*
X71604Y119102D01*
X72780Y118316D01*
X74168Y118040D01*
X89938D01*
X104584Y103394D01*
X104294Y102606D01*
X104019Y102163D01*
X102554Y101872D01*
X101210Y100974D01*
X100312Y99630D01*
X99996Y98044D01*
Y94234D01*
X100312Y92648D01*
X101210Y91304D01*
X106418Y86096D01*
X107762Y85198D01*
X108742Y85003D01*
X109872Y84666D01*
Y81916D01*
X113792D01*
Y80646D01*
X115062D01*
Y76626D01*
X115817D01*
X116558Y75356D01*
X116337Y74248D01*
X116633Y72761D01*
X117475Y71501D01*
X118735Y70659D01*
X120222Y70363D01*
X126228D01*
X127715Y70659D01*
X128747Y71349D01*
X131948D01*
X132727Y70403D01*
X133003Y69015D01*
X133736Y67920D01*
X133612Y67357D01*
X133320Y66650D01*
X42481D01*
X42086Y67756D01*
X42086Y67920D01*
Y71756D01*
X36066D01*
X30046D01*
Y67920D01*
X30046Y67756D01*
X29652Y66650D01*
X0D01*
Y215138D01*
X68Y215206D01*
X4817D01*
X5415Y214807D01*
X6604Y214570D01*
X7793Y214807D01*
X8391Y215206D01*
X51845D01*
X51986Y215080D01*
X51502Y213810D01*
X50732D01*
Y210310D01*
X57752D01*
X64772D01*
Y213810D01*
X62521D01*
X62396Y215080D01*
X63029Y215206D01*
X64113Y215930D01*
X64836Y217013D01*
X65090Y218290D01*
Y221790D01*
X64836Y223067D01*
X64113Y224150D01*
X63029Y224874D01*
X62396Y225000D01*
X62521Y226270D01*
X64772D01*
Y229770D01*
X57752D01*
Y231040D01*
X56482D01*
Y235810D01*
X52475D01*
Y237270D01*
X56482D01*
Y242040D01*
X57752D01*
Y243310D01*
X64772D01*
Y246810D01*
X64772D01*
X64927Y248016D01*
X65026D01*
Y258064D01*
X52475D01*
X52475Y272824D01*
X53412Y272999D01*
X53716Y273016D01*
X65026D01*
Y283064D01*
X64927D01*
X64772Y284270D01*
X64772Y284334D01*
Y287770D01*
X57752D01*
X50732D01*
Y284334D01*
X50732Y284270D01*
X50578Y283064D01*
X50478D01*
X50478Y273016D01*
X49299Y272796D01*
X43201D01*
Y275083D01*
X37110D01*
X31019D01*
Y272796D01*
X14701D01*
Y275083D01*
X8610D01*
X2519D01*
Y272796D01*
X0D01*
Y309815D01*
X1270Y310341D01*
X12042Y299570D01*
X13208Y299086D01*
X43688D01*
X44854Y299570D01*
X49462Y304177D01*
X50732Y303651D01*
Y301310D01*
X57752D01*
X64772D01*
Y304810D01*
X65888Y305182D01*
X71120D01*
X72286Y305666D01*
X76096Y309476D01*
X76580Y310642D01*
Y322834D01*
X76096Y324000D01*
X72794Y327302D01*
X71628Y327786D01*
X66201D01*
X65026Y328016D01*
X65026Y329056D01*
Y338064D01*
X64927D01*
X64772Y339270D01*
X64772Y339334D01*
Y342770D01*
X57752D01*
X50732D01*
Y339334D01*
X50732Y339270D01*
X50578Y338064D01*
X50478D01*
X50478Y328016D01*
X49303Y327786D01*
X29210D01*
X28044Y327302D01*
X27146Y326405D01*
X26834Y326534D01*
X22606D01*
X19336D01*
Y325500D01*
X17748D01*
Y326534D01*
X14478D01*
X11208D01*
Y325500D01*
X9620D01*
Y326534D01*
X6350D01*
X3080D01*
Y325500D01*
X2032D01*
X1270Y325184D01*
X0Y325810D01*
Y490000D01*
X100330D01*
X100330Y446664D01*
X127147D01*
Y443860D01*
X127171Y443742D01*
X126897Y442364D01*
X126049Y441097D01*
X124782Y440249D01*
X123404Y439975D01*
X123286Y439999D01*
X96786D01*
X94819Y439608D01*
X94521Y439408D01*
X94520Y439408D01*
X92852Y438294D01*
X92830Y438259D01*
X91533Y438124D01*
X91264Y438202D01*
X90544Y438684D01*
X89531Y438885D01*
X89376D01*
Y434914D01*
Y430943D01*
X89531D01*
X90077Y431052D01*
X91347Y430271D01*
Y426624D01*
X91104Y425400D01*
X91398Y423921D01*
X91660Y423530D01*
X91739Y423134D01*
X92852Y421466D01*
X93235Y421211D01*
Y420667D01*
X93098Y419775D01*
X92605Y419037D01*
X92384Y417925D01*
Y415075D01*
X92406Y414963D01*
Y410656D01*
X92076Y410412D01*
X91136Y410093D01*
X90544Y410490D01*
X89531Y410691D01*
X89376D01*
Y406720D01*
X88106D01*
Y405450D01*
X84035D01*
Y405395D01*
X84237Y404383D01*
X84810Y403524D01*
X85669Y402951D01*
X86084Y402868D01*
X85958Y401598D01*
X85638D01*
Y388328D01*
Y375058D01*
X95598D01*
Y377828D01*
X98138D01*
Y375058D01*
X100638D01*
Y375058D01*
X101819Y375324D01*
X101908Y375319D01*
X102663Y374189D01*
X103923Y373347D01*
X105410Y373051D01*
X106897Y373347D01*
X108157Y374189D01*
X108999Y375449D01*
X109295Y376936D01*
Y378492D01*
X109684D01*
Y381762D01*
Y385032D01*
X109643D01*
X109423Y385272D01*
X109559Y386109D01*
X109684Y386291D01*
Y389890D01*
X110954D01*
Y391160D01*
X113724D01*
Y393160D01*
X113724Y393160D01*
X113839Y394382D01*
X122428D01*
X124014Y394698D01*
X125358Y395596D01*
X126256Y396940D01*
X126572Y398526D01*
X126256Y400112D01*
X125358Y401456D01*
X124014Y402354D01*
X122428Y402670D01*
X112014D01*
X110428Y402354D01*
X109084Y401456D01*
X102524Y394896D01*
X101908Y393974D01*
X100638Y394359D01*
Y395804D01*
X100892D01*
Y398227D01*
X101012Y398828D01*
X100892Y399430D01*
Y401852D01*
X100821D01*
Y406529D01*
X100816Y406553D01*
Y408045D01*
X100694Y408659D01*
Y414320D01*
X100844Y415075D01*
Y417925D01*
X100623Y419037D01*
X100051Y419893D01*
X99996Y420024D01*
X100086Y421444D01*
X100120Y421466D01*
X101234Y423134D01*
X101625Y425100D01*
Y429721D01*
X123286D01*
Y429699D01*
X126951Y430181D01*
X130367Y431596D01*
X133300Y433847D01*
X135550Y436779D01*
X136965Y440195D01*
X137447Y443860D01*
X137425D01*
Y446664D01*
X219710Y446664D01*
X219710Y490000D01*
X328819D01*
X330074Y488730D01*
D02*
G37*
G36*
X74930Y322834D02*
Y310642D01*
X71120Y306832D01*
X49784D01*
X43688Y300736D01*
X13208D01*
X2032Y311912D01*
Y323850D01*
X26924D01*
X29210Y326136D01*
X71628D01*
X74930Y322834D01*
D02*
G37*
G36*
X116297Y158958D02*
X115811Y157784D01*
X115637D01*
X114916Y157641D01*
X114304Y157232D01*
X113895Y156620D01*
X113752Y155899D01*
Y155609D01*
X69679D01*
X68834Y155777D01*
X67347Y155481D01*
X66087Y154639D01*
X65245Y153379D01*
X63900Y153125D01*
X63824Y153162D01*
X63548Y154550D01*
X62762Y155726D01*
X62762Y155726D01*
X59045Y159442D01*
X59571Y160712D01*
X114543D01*
X116297Y158958D01*
D02*
G37*
G36*
X156000Y123710D02*
X156000Y123710D01*
X162272D01*
X163466Y123526D01*
Y114757D01*
X161798D01*
X160311Y114461D01*
X159051Y113619D01*
X158209Y112359D01*
X157913Y110872D01*
X158209Y109385D01*
X159051Y108125D01*
X160311Y107283D01*
X161798Y106987D01*
X163466D01*
Y106598D01*
X171814D01*
X172650Y105674D01*
Y102616D01*
X172650Y102616D01*
X172926Y101229D01*
X173712Y100052D01*
X182348Y91416D01*
X182348Y91416D01*
X183524Y90630D01*
X183956Y89328D01*
X183896Y89153D01*
X183721Y89042D01*
X180249D01*
X179738Y89144D01*
X171116D01*
X171116Y89144D01*
X169729Y88868D01*
X168552Y88082D01*
X168552Y88082D01*
X163905Y83434D01*
X162734Y84060D01*
X162763Y84202D01*
X162467Y85689D01*
X161625Y86949D01*
X160365Y87791D01*
X158878Y88087D01*
X156377D01*
X155558Y88449D01*
Y88476D01*
X155304Y88562D01*
Y91312D01*
X151384D01*
X147464D01*
Y88780D01*
X144123D01*
Y91768D01*
X142748D01*
Y89248D01*
X140208D01*
Y91768D01*
X139127D01*
Y92147D01*
X129179D01*
X129158Y92178D01*
X127814Y93076D01*
X126228Y93392D01*
X115824D01*
X115363Y93300D01*
X110934D01*
X108284Y95950D01*
Y97899D01*
X108666Y98203D01*
X109265Y98451D01*
X109487Y98504D01*
X110626Y97742D01*
X112014Y97466D01*
X112014Y97466D01*
X129794D01*
X129794Y97466D01*
X131181Y97742D01*
X131963Y98264D01*
X132329Y98258D01*
X133184Y98060D01*
X133504Y97879D01*
X133809Y97422D01*
X133810Y97418D01*
X134596Y96242D01*
X135772Y95456D01*
X137160Y95180D01*
X138547Y95456D01*
X139724Y96242D01*
X140510Y97418D01*
X140786Y98806D01*
Y99081D01*
X140786Y99081D01*
X140510Y100468D01*
X140238Y100876D01*
Y105565D01*
X141411Y106051D01*
X142584Y104878D01*
X142584Y104878D01*
X143760Y104092D01*
X145148Y103816D01*
X145148Y103816D01*
X152654D01*
X154042Y104092D01*
X155218Y104878D01*
X156004Y106054D01*
X156280Y107442D01*
X156004Y108829D01*
X155218Y110006D01*
X154042Y110792D01*
X153587Y110882D01*
X153418Y111627D01*
X153453Y112204D01*
X153920Y112516D01*
X154329Y113128D01*
X154472Y113849D01*
Y122199D01*
X154364Y122741D01*
X154774Y123390D01*
X155225Y123864D01*
X156000Y123710D01*
D02*
G37*
%LPC*%
G36*
X317356Y486746D02*
X314706D01*
Y483996D01*
X317356D01*
Y486746D01*
D02*
G37*
G36*
X312166D02*
X309516D01*
Y483996D01*
X312166D01*
Y486746D01*
D02*
G37*
G36*
X269868Y476189D02*
X267868D01*
Y474689D01*
X269868D01*
Y476189D01*
D02*
G37*
G36*
X323464Y457328D02*
X322504D01*
X322194Y457328D01*
X321004D01*
Y451308D01*
Y445288D01*
X322194D01*
X322504Y445288D01*
X323464D01*
X323774Y445288D01*
X324964D01*
Y451308D01*
Y457328D01*
X323774D01*
X323464Y457328D01*
D02*
G37*
G36*
X327504Y457328D02*
Y452578D01*
X329004D01*
Y457328D01*
X327504D01*
D02*
G37*
G36*
X250698Y484204D02*
X249112Y483888D01*
X247768Y482990D01*
X246870Y481646D01*
X246554Y480060D01*
Y474185D01*
X246402Y473419D01*
X246717Y471833D01*
X247022Y471378D01*
Y468430D01*
X246920Y467919D01*
Y463230D01*
X246920Y463230D01*
X247196Y461842D01*
X247982Y460666D01*
X249908Y458740D01*
Y454286D01*
X249908Y454286D01*
X250184Y452899D01*
X250853Y451898D01*
Y449669D01*
X261401D01*
Y449923D01*
X262357D01*
Y453413D01*
X262512Y454193D01*
X264897D01*
Y449923D01*
X267357D01*
Y454193D01*
Y458463D01*
X262484D01*
Y463934D01*
X266498D01*
X267985Y464230D01*
X268980Y464895D01*
X270122D01*
Y466335D01*
X270187Y466432D01*
X270483Y467919D01*
X270187Y469405D01*
X270122Y469503D01*
Y470943D01*
X269868D01*
Y472149D01*
X266598D01*
Y473419D01*
X265328D01*
Y476189D01*
X263328D01*
Y476189D01*
X262198Y476525D01*
Y480060D01*
X261922Y481447D01*
X261136Y482624D01*
X259960Y483410D01*
X258572Y483686D01*
X257185Y483410D01*
X256008Y482624D01*
X255646Y482082D01*
X255619Y482071D01*
X254177Y482169D01*
X253628Y482990D01*
X252284Y483888D01*
X250698Y484204D01*
D02*
G37*
G36*
X14224Y468201D02*
X11837Y467887D01*
X9613Y466965D01*
X7702Y465500D01*
X6237Y463589D01*
X5315Y461365D01*
X5001Y458978D01*
X5315Y456591D01*
X6237Y454367D01*
X7702Y452456D01*
X9613Y450991D01*
X11837Y450069D01*
X14224Y449755D01*
X16611Y450069D01*
X18835Y450991D01*
X20746Y452456D01*
X22211Y454367D01*
X23133Y456591D01*
X23447Y458978D01*
X23133Y461365D01*
X22211Y463589D01*
X20746Y465500D01*
X18835Y466965D01*
X16611Y467887D01*
X14224Y468201D01*
D02*
G37*
G36*
X276352Y466414D02*
X274965Y466138D01*
X273788Y465352D01*
X271063Y462626D01*
X270277Y461450D01*
X270001Y460063D01*
X270001Y460062D01*
Y458463D01*
X269897D01*
Y454193D01*
Y449923D01*
X270853D01*
Y449669D01*
X276401D01*
Y451944D01*
X276976Y452806D01*
X277252Y454193D01*
Y458561D01*
X278916Y460224D01*
X279702Y461400D01*
X279978Y462788D01*
X279702Y464175D01*
X278916Y465352D01*
X277740Y466138D01*
X276352Y466414D01*
D02*
G37*
G36*
X288654Y451872D02*
X286004D01*
Y449122D01*
X288654D01*
Y451872D01*
D02*
G37*
G36*
X283464D02*
X280814D01*
Y449122D01*
X283464D01*
Y451872D01*
D02*
G37*
G36*
X246465Y451465D02*
X243815D01*
Y448715D01*
X246465D01*
Y451465D01*
D02*
G37*
G36*
X241275D02*
X238625D01*
Y448715D01*
X241275D01*
Y451465D01*
D02*
G37*
G36*
X329004Y450038D02*
X327504D01*
Y445288D01*
X329004D01*
Y450038D01*
D02*
G37*
G36*
X266147Y447463D02*
X264897D01*
Y439693D01*
X262357D01*
Y447463D01*
X261107D01*
Y443717D01*
X256298D01*
X256259Y443812D01*
X255649Y444422D01*
X254483Y444905D01*
X246465D01*
Y446175D01*
X242545D01*
X238625D01*
Y444723D01*
X237898Y444422D01*
X236019Y442542D01*
X235536Y441376D01*
Y421030D01*
Y406730D01*
X236019Y405564D01*
X241911Y399672D01*
Y393042D01*
X240641Y392917D01*
X240380Y394230D01*
X239549Y395475D01*
X238305Y396306D01*
X236837Y396598D01*
X235298D01*
Y386654D01*
Y376710D01*
X236837D01*
X238305Y377002D01*
X239549Y377834D01*
X240380Y379078D01*
X240641Y380391D01*
X241911Y380266D01*
Y378181D01*
X242394Y377014D01*
X246574Y372834D01*
X246048Y371564D01*
X236978D01*
Y371564D01*
X236026D01*
Y371564D01*
X226296D01*
X225978Y371564D01*
X225026D01*
X224708Y371564D01*
X215296D01*
X214978Y371564D01*
X214026D01*
X213708Y371564D01*
X204296D01*
X203978Y371564D01*
X203026D01*
X202708Y371564D01*
X193296D01*
X192978Y371564D01*
X192026D01*
X191708Y371564D01*
X181978D01*
Y357016D01*
X191708D01*
X192026Y357016D01*
X192978D01*
X193296Y357016D01*
X202708D01*
X203026Y357016D01*
X203978D01*
X204296Y357016D01*
X213708D01*
X214026Y357016D01*
X214978D01*
X215296Y357016D01*
X224708D01*
X225026Y357016D01*
X226106D01*
X227376Y356558D01*
Y354468D01*
X227376Y354468D01*
X227652Y353080D01*
X228438Y351904D01*
X229088Y351255D01*
X228601Y350082D01*
X141790D01*
X140780Y351352D01*
X140887Y351886D01*
Y356118D01*
X141785Y357016D01*
X142978Y357016D01*
X143296Y357016D01*
X152708D01*
X153026Y357016D01*
X153978D01*
X154296Y357016D01*
X163708D01*
X164026Y357016D01*
X165296Y357016D01*
X175026D01*
Y371564D01*
X165296D01*
X164978Y371564D01*
X163708Y371564D01*
X154296D01*
X153978Y371564D01*
X153026D01*
X152708Y371564D01*
X143296D01*
X142978Y371564D01*
X142026D01*
X141708Y371564D01*
X132296D01*
X131978Y371564D01*
X130898D01*
X129628Y372022D01*
Y374690D01*
X134136Y379198D01*
X134922Y380374D01*
X135198Y381762D01*
X134922Y383149D01*
X134136Y384326D01*
X132959Y385112D01*
X131572Y385388D01*
X130184Y385112D01*
X129008Y384326D01*
X123438Y378756D01*
X122652Y377579D01*
X122376Y376192D01*
X122376Y376192D01*
Y372462D01*
X121688Y371774D01*
X121106Y371564D01*
X120026D01*
X119708Y371564D01*
X109978D01*
Y371564D01*
X109026D01*
Y371564D01*
X98978D01*
Y371465D01*
X97772Y371310D01*
X97708Y371310D01*
X94272D01*
Y364290D01*
Y357270D01*
X97708D01*
X97772Y357270D01*
X98978Y357116D01*
Y357016D01*
X100376D01*
Y353452D01*
X100376Y353452D01*
X100652Y352064D01*
X101438Y350888D01*
X114530Y337796D01*
X114530Y337796D01*
X115707Y337010D01*
X117094Y336734D01*
X117094Y336734D01*
X118978D01*
Y325516D01*
X132026D01*
Y336734D01*
X135978D01*
Y325516D01*
X149026D01*
Y336734D01*
X152978D01*
Y325516D01*
X163377D01*
X164375Y324246D01*
X164263Y323686D01*
Y321564D01*
X152978D01*
Y308516D01*
X155876D01*
Y289316D01*
X155876Y289316D01*
X156152Y287929D01*
X156938Y286752D01*
X156948Y286742D01*
X158125Y285956D01*
X159512Y285680D01*
X160900Y285956D01*
X162076Y286742D01*
X162862Y287918D01*
X163138Y289306D01*
X163128Y289356D01*
Y301206D01*
X164398Y301331D01*
X164559Y300519D01*
X165401Y299259D01*
X168703Y295957D01*
X169963Y295115D01*
X171450Y294819D01*
X172937Y295115D01*
X174197Y295957D01*
X175039Y297217D01*
X175335Y298704D01*
X175039Y300191D01*
X174197Y301451D01*
X172033Y303615D01*
Y308516D01*
X183026D01*
Y321564D01*
X173316D01*
X172790Y322834D01*
X175472Y325516D01*
X183026D01*
Y336734D01*
X187232D01*
Y333310D01*
X193502D01*
X199772D01*
Y336734D01*
X204232D01*
Y333310D01*
X210502D01*
X216772D01*
Y336734D01*
X227352D01*
X228576Y335510D01*
X229753Y334724D01*
X231140Y334448D01*
X232528Y334724D01*
X232848Y334939D01*
X234118Y334260D01*
Y332833D01*
X232848Y332216D01*
X232329Y332563D01*
X231140Y332800D01*
X229951Y332563D01*
X228943Y331889D01*
X228269Y330881D01*
X228032Y329692D01*
X228269Y328503D01*
X228943Y327495D01*
X229951Y326821D01*
X229976Y326816D01*
X230394Y325438D01*
X228380Y323424D01*
X228380Y323424D01*
X228322Y323366D01*
X227536Y322189D01*
X227260Y320802D01*
X227536Y319415D01*
X228322Y318238D01*
X229499Y317452D01*
X230886Y317176D01*
X232274Y317452D01*
X233450Y318238D01*
X233508Y318296D01*
X233508Y318296D01*
X237203Y321992D01*
X238376Y321506D01*
Y320996D01*
X238652Y319609D01*
X239438Y318432D01*
X240615Y317646D01*
X242002Y317370D01*
X243389Y317646D01*
X244566Y318432D01*
X245352Y319609D01*
X245628Y320996D01*
Y356118D01*
X246316Y356806D01*
X246898Y357016D01*
X247978D01*
X248296Y357016D01*
X249233D01*
X249276Y356998D01*
X272186D01*
X273353Y357482D01*
X273836Y358648D01*
Y375472D01*
X275038D01*
Y378742D01*
X276308D01*
Y380012D01*
X279078D01*
Y382012D01*
X279078D01*
X279122Y382584D01*
X279122D01*
X279122Y383264D01*
Y384584D01*
X276352D01*
Y387124D01*
X279122D01*
Y389124D01*
X279122D01*
Y389442D01*
X279122D01*
Y391442D01*
X276352D01*
Y392712D01*
X275082D01*
Y395982D01*
X273876D01*
Y396236D01*
X273554D01*
X273353Y396721D01*
X271549Y398524D01*
X270383Y399007D01*
X264234Y399007D01*
X256742Y406499D01*
Y408229D01*
X269523D01*
Y423777D01*
X266929D01*
X266827Y424285D01*
X265929Y425629D01*
X262770Y428788D01*
Y431923D01*
X264646D01*
X264798Y431158D01*
X265697Y429814D01*
X271517Y423993D01*
X272861Y423095D01*
X274447Y422780D01*
X276475D01*
Y408229D01*
X289523D01*
Y423777D01*
X286058D01*
Y424891D01*
X285743Y426477D01*
X284845Y427821D01*
X282813Y429853D01*
X281468Y430751D01*
X279883Y431067D01*
X277421D01*
X276401Y431669D01*
Y434940D01*
X291586D01*
X291846Y434888D01*
X293580Y435233D01*
X295051Y436215D01*
X296033Y437686D01*
X296378Y439420D01*
X296033Y441154D01*
X295051Y442625D01*
X294999Y442677D01*
X293529Y443659D01*
X291794Y444004D01*
X288654D01*
Y446582D01*
X284734D01*
X280814D01*
Y444004D01*
X274574D01*
X273134Y443717D01*
X266147D01*
Y447463D01*
D02*
G37*
G36*
X86836Y438885D02*
X86681D01*
X85669Y438684D01*
X84810Y438110D01*
X84237Y437252D01*
X84035Y436239D01*
Y436184D01*
X86836D01*
Y438885D01*
D02*
G37*
G36*
X330254Y443078D02*
X317754D01*
Y433578D01*
X330254D01*
Y443078D01*
D02*
G37*
G36*
X315214D02*
X302714D01*
Y433578D01*
X315214D01*
Y443078D01*
D02*
G37*
G36*
X86836Y433644D02*
X84035D01*
Y433589D01*
X84237Y432576D01*
X84810Y431718D01*
X85669Y431145D01*
X86681Y430943D01*
X86836D01*
Y433644D01*
D02*
G37*
G36*
X330254Y431038D02*
X317754D01*
Y421538D01*
X330254D01*
Y431038D01*
D02*
G37*
G36*
X315214D02*
X302714D01*
Y421538D01*
X315214D01*
Y431038D01*
D02*
G37*
G36*
X316258Y419582D02*
X316258Y419582D01*
X310210Y419582D01*
X308940Y419582D01*
X303710D01*
Y407034D01*
X308940D01*
X309758Y407034D01*
X311028Y407034D01*
X316108D01*
Y401626D01*
X316384Y400238D01*
X317170Y399062D01*
X318347Y398276D01*
X319734Y398000D01*
X321121Y398276D01*
X322298Y399062D01*
X322340Y399125D01*
X323670Y399420D01*
X323862Y399292D01*
X324846Y398634D01*
X326234Y398358D01*
X327621Y398634D01*
X328798Y399420D01*
X329584Y400597D01*
X329860Y401984D01*
Y413308D01*
X329584Y414696D01*
X329258Y415183D01*
Y419582D01*
X323210D01*
Y419582D01*
X322758D01*
Y419582D01*
X317528D01*
X316710Y419582D01*
Y419582D01*
X316258D01*
D02*
G37*
G36*
X86836Y410691D02*
X86681D01*
X85669Y410490D01*
X84810Y409916D01*
X84237Y409058D01*
X84035Y408045D01*
Y407990D01*
X86836D01*
Y410691D01*
D02*
G37*
G36*
X354076Y408110D02*
X352076D01*
Y406610D01*
X354076D01*
Y408110D01*
D02*
G37*
G36*
X226314Y417618D02*
X224611Y417394D01*
X223024Y416737D01*
X221661Y415691D01*
X220615Y414328D01*
X219958Y412741D01*
X219734Y411038D01*
X219958Y409335D01*
X220615Y407748D01*
X221661Y406385D01*
X223024Y405339D01*
X224611Y404682D01*
X226314Y404458D01*
X228017Y404682D01*
X229604Y405339D01*
X230967Y406385D01*
X232013Y407748D01*
X232670Y409335D01*
X232894Y411038D01*
X232670Y412741D01*
X232013Y414328D01*
X230967Y415691D01*
X229604Y416737D01*
X228017Y417394D01*
X226314Y417618D01*
D02*
G37*
G36*
X203899D02*
X202195Y417394D01*
X200608Y416737D01*
X199246Y415691D01*
X198200Y414328D01*
X197542Y412741D01*
X197318Y411038D01*
X197542Y409335D01*
X198200Y407748D01*
X199246Y406385D01*
X200608Y405339D01*
X202195Y404682D01*
X203899Y404458D01*
X205602Y404682D01*
X207189Y405339D01*
X208551Y406385D01*
X209597Y407748D01*
X210255Y409335D01*
X210479Y411038D01*
X210255Y412741D01*
X209597Y414328D01*
X208551Y415691D01*
X207189Y416737D01*
X205602Y417394D01*
X203899Y417618D01*
D02*
G37*
G36*
X181483D02*
X179780Y417394D01*
X178193Y416737D01*
X176830Y415691D01*
X175784Y414328D01*
X175127Y412741D01*
X174903Y411038D01*
X175127Y409335D01*
X175784Y407748D01*
X176830Y406385D01*
X178193Y405339D01*
X179780Y404682D01*
X181483Y404458D01*
X183186Y404682D01*
X184773Y405339D01*
X186136Y406385D01*
X187182Y407748D01*
X187839Y409335D01*
X188063Y411038D01*
X187839Y412741D01*
X187182Y414328D01*
X186136Y415691D01*
X184773Y416737D01*
X183186Y417394D01*
X181483Y417618D01*
D02*
G37*
G36*
X159067D02*
X157364Y417394D01*
X155777Y416737D01*
X154415Y415691D01*
X153369Y414328D01*
X152711Y412741D01*
X152487Y411038D01*
X152711Y409335D01*
X153369Y407748D01*
X154415Y406385D01*
X155777Y405339D01*
X157364Y404682D01*
X159067Y404458D01*
X160771Y404682D01*
X162358Y405339D01*
X163720Y406385D01*
X164766Y407748D01*
X165424Y409335D01*
X165648Y411038D01*
X165424Y412741D01*
X164766Y414328D01*
X163720Y415691D01*
X162358Y416737D01*
X160771Y417394D01*
X159067Y417618D01*
D02*
G37*
G36*
X136652D02*
X134949Y417394D01*
X133362Y416737D01*
X131999Y415691D01*
X130953Y414328D01*
X130296Y412741D01*
X130072Y411038D01*
X130296Y409335D01*
X130953Y407748D01*
X131999Y406385D01*
X133362Y405339D01*
X134949Y404682D01*
X136652Y404458D01*
X138355Y404682D01*
X139942Y405339D01*
X141305Y406385D01*
X142351Y407748D01*
X143008Y409335D01*
X143232Y411038D01*
X143008Y412741D01*
X142351Y414328D01*
X141305Y415691D01*
X139942Y416737D01*
X138355Y417394D01*
X136652Y417618D01*
D02*
G37*
G36*
X70598Y401598D02*
X68098D01*
Y400098D01*
X70598D01*
Y401598D01*
D02*
G37*
G36*
X83098D02*
X73138D01*
Y398828D01*
X71868D01*
Y397558D01*
X68098D01*
Y396824D01*
X61832D01*
Y399116D01*
X53484D01*
Y390568D01*
Y382188D01*
X61832D01*
Y384832D01*
X68098D01*
Y384598D01*
X71868D01*
Y382058D01*
X68098D01*
Y380852D01*
X67844D01*
Y379492D01*
X67338Y378735D01*
X67036Y377217D01*
Y371564D01*
X65978D01*
Y357016D01*
X76026D01*
Y357116D01*
X77232Y357270D01*
X77296Y357270D01*
X80732D01*
Y364290D01*
Y371310D01*
X77296D01*
X77232Y371310D01*
X76026Y371465D01*
Y371564D01*
X74968D01*
Y374804D01*
X75892D01*
Y375058D01*
X83098D01*
Y388328D01*
Y401598D01*
D02*
G37*
G36*
X279122Y395982D02*
X277622D01*
Y393982D01*
X279122D01*
Y395982D01*
D02*
G37*
G36*
X397510Y449452D02*
X359918D01*
X358752Y448968D01*
X358268Y447802D01*
Y408110D01*
X356616D01*
Y405340D01*
X355346D01*
Y404070D01*
X352076D01*
Y402864D01*
X351822D01*
Y400351D01*
X351720Y399840D01*
X351822Y399329D01*
Y396816D01*
X351916D01*
Y393262D01*
X316230D01*
X314843Y392986D01*
X313666Y392200D01*
X313666Y392200D01*
X277136Y355670D01*
X266192D01*
X266192Y355670D01*
X264804Y355394D01*
X263628Y354608D01*
X263628Y354608D01*
X260341Y351321D01*
X259515Y351643D01*
X259119Y351894D01*
X258903Y352979D01*
X258230Y353988D01*
X257221Y354661D01*
X256032Y354898D01*
X254843Y354661D01*
X253834Y353988D01*
X253161Y352979D01*
X252924Y351790D01*
X253161Y350601D01*
X253834Y349593D01*
X254843Y348919D01*
X255928Y348703D01*
X256178Y348307D01*
X256501Y347481D01*
X249404Y340384D01*
X248618Y339207D01*
X248342Y337820D01*
X248342Y337820D01*
Y319764D01*
X244116Y315538D01*
X225044D01*
X223657Y315262D01*
X222480Y314476D01*
X222480Y314476D01*
X218199Y310195D01*
X217026Y310681D01*
Y321564D01*
X203978D01*
Y308516D01*
X214861D01*
X215347Y307343D01*
X182521Y274517D01*
X149225D01*
X149225Y274517D01*
X147837Y274241D01*
X146661Y273455D01*
X146661Y273455D01*
X115945Y242739D01*
X114772Y243225D01*
Y245770D01*
X108502D01*
X102232D01*
Y240770D01*
X101029Y240608D01*
X98975D01*
X97772Y240770D01*
X97772Y241878D01*
Y245770D01*
X91502D01*
X85232D01*
X85232Y240770D01*
X84029Y240608D01*
X81534D01*
X81534Y240608D01*
X80147Y240332D01*
X78970Y239546D01*
X78970Y239546D01*
X71604Y232180D01*
X70818Y231003D01*
X70542Y229616D01*
X70818Y228228D01*
X71604Y227052D01*
X72780Y226266D01*
X74168Y225990D01*
X75556Y226266D01*
X76732Y227052D01*
X83036Y233356D01*
X109518D01*
X110314Y232086D01*
X110176Y231394D01*
X110413Y230205D01*
X110985Y229348D01*
X111065Y229078D01*
X110835Y227837D01*
X110324Y227495D01*
X109651Y226487D01*
X109414Y225298D01*
X109651Y224109D01*
X110324Y223100D01*
X111333Y222427D01*
X112522Y222190D01*
X113711Y222427D01*
X114719Y223100D01*
X115393Y224109D01*
X115630Y225298D01*
X115393Y226487D01*
X114821Y227344D01*
X114741Y227614D01*
X114971Y228855D01*
X115482Y229196D01*
X116155Y230205D01*
X116392Y231394D01*
X116155Y232583D01*
X116174Y232628D01*
X116896Y233761D01*
X117708Y234303D01*
X118978Y233950D01*
Y223516D01*
X132026D01*
Y236564D01*
X121685D01*
X121199Y237737D01*
X150727Y267265D01*
X184023D01*
X184023Y267265D01*
X185410Y267541D01*
X186587Y268327D01*
X219805Y301545D01*
X220978Y301059D01*
Y291516D01*
X234026D01*
Y304564D01*
X224483D01*
X223997Y305737D01*
X226546Y308286D01*
X245618D01*
X245618Y308286D01*
X247006Y308562D01*
X248182Y309348D01*
X254532Y315698D01*
X254532Y315698D01*
X255318Y316875D01*
X255594Y318262D01*
Y336318D01*
X267694Y348418D01*
X271232D01*
Y345310D01*
X278252D01*
X285272D01*
Y348810D01*
X282328D01*
X281801Y350080D01*
X317732Y386010D01*
X355738D01*
X355738Y386010D01*
X356249Y386112D01*
X358466D01*
X358752Y385422D01*
X359918Y384938D01*
X363807D01*
X364618Y384127D01*
Y379730D01*
X365102Y378564D01*
X365888Y377777D01*
Y376106D01*
X364076D01*
Y373336D01*
X361536D01*
Y376106D01*
X359536D01*
Y376106D01*
X358536D01*
Y376106D01*
X356536D01*
Y373336D01*
X355266D01*
Y372066D01*
X351996D01*
Y371875D01*
X347561D01*
X347058Y371975D01*
X345571Y371679D01*
X345028Y371316D01*
X341734D01*
X341637Y371381D01*
X340150Y371677D01*
X336879D01*
Y374650D01*
X336583Y376137D01*
X335741Y377397D01*
X334481Y378239D01*
X332994Y378535D01*
X331507Y378239D01*
X330247Y377397D01*
X329405Y376137D01*
X329109Y374650D01*
Y370011D01*
X329405Y368525D01*
X330247Y367264D01*
X332466Y365045D01*
X333727Y364203D01*
X335213Y363907D01*
X340150D01*
X341637Y364203D01*
X341734Y364268D01*
X346340D01*
X347158Y364105D01*
X351047D01*
Y362364D01*
X351343Y360877D01*
X352185Y359617D01*
X354823Y356979D01*
Y353686D01*
X355119Y352199D01*
X355934Y350980D01*
Y349460D01*
X354414D01*
X353195Y350275D01*
X351708Y350571D01*
X351107D01*
X348665Y353013D01*
X347405Y353855D01*
X345918Y354151D01*
X339046D01*
X337559Y353855D01*
X337462Y353790D01*
X336022D01*
Y353536D01*
X334816D01*
Y350266D01*
Y346816D01*
X334940Y346663D01*
X335200Y345621D01*
X335031Y345408D01*
X331030D01*
Y343408D01*
X333800D01*
Y340868D01*
X331030D01*
Y338868D01*
X331030Y338868D01*
X330776Y337873D01*
X330776Y337873D01*
X330776Y337703D01*
Y335873D01*
X333546D01*
Y333333D01*
X330776D01*
Y331333D01*
X333647D01*
X333685Y331229D01*
X332833Y329839D01*
X332259Y329725D01*
X332162Y329660D01*
X330722D01*
Y328518D01*
X330057Y327523D01*
X329761Y326036D01*
Y318511D01*
X329661Y318008D01*
X329957Y316521D01*
X330522Y315676D01*
Y314484D01*
X331962D01*
X332059Y314419D01*
X333546Y314123D01*
X335033Y314419D01*
X335130Y314484D01*
X337462D01*
X337559Y314419D01*
X339046Y314123D01*
X347980D01*
X349467Y314419D01*
X350727Y315261D01*
X351569Y316521D01*
X351865Y318008D01*
X351664Y319014D01*
X351686Y319605D01*
X352506Y320378D01*
X353195Y320515D01*
X353597Y320784D01*
X354867Y320105D01*
Y312739D01*
X354652Y311658D01*
X354928Y310271D01*
X355254Y309783D01*
Y308134D01*
X357767D01*
X357839Y308120D01*
X358333Y306940D01*
X358339Y306824D01*
X353901Y302386D01*
X343408D01*
X342242Y301902D01*
X340718Y300378D01*
X340474Y299790D01*
X340178D01*
Y287742D01*
X340178D01*
X339778Y286638D01*
X322580D01*
X321414Y286154D01*
X317604Y282344D01*
X317120Y281178D01*
Y240284D01*
X317604Y239118D01*
X322684Y234038D01*
X323850Y233554D01*
X331470D01*
X332636Y234038D01*
X337716Y239118D01*
X338200Y240284D01*
Y269827D01*
X341805Y273432D01*
X352490D01*
Y272884D01*
X355760D01*
Y271614D01*
X357030D01*
Y268844D01*
X359030D01*
Y268844D01*
X359348D01*
Y268844D01*
X360946D01*
X361244Y267781D01*
X361253Y267574D01*
X354180Y260500D01*
X353696Y259334D01*
Y250698D01*
X354180Y249532D01*
X358498Y245214D01*
X359664Y244730D01*
X367617D01*
X375159Y237188D01*
Y209931D01*
X375370Y209422D01*
X375163Y208886D01*
X374596Y208152D01*
X372394D01*
Y218056D01*
X372140D01*
Y222262D01*
X367370D01*
X362600D01*
Y218056D01*
X362346D01*
Y210352D01*
X361173Y209866D01*
X360830Y210208D01*
X359664Y210692D01*
X359394D01*
Y220556D01*
X359140D01*
Y221262D01*
X354370D01*
X349600D01*
Y220556D01*
X349346D01*
Y209577D01*
X349124Y209042D01*
Y205994D01*
X349346Y205459D01*
Y195680D01*
X349346Y194965D01*
X348457Y194603D01*
X348076Y194522D01*
X348050Y194539D01*
X347137Y195149D01*
X345948Y195386D01*
X344759Y195149D01*
X343750Y194475D01*
X343077Y193467D01*
X342840Y192278D01*
X343077Y191089D01*
X343750Y190081D01*
X344759Y189407D01*
X345948Y189170D01*
X347137Y189407D01*
X347642Y189744D01*
X348858Y189790D01*
X348858Y189790D01*
X348858Y189790D01*
Y189790D01*
X349346Y189591D01*
X349346Y189418D01*
Y187175D01*
X348457Y186813D01*
X348076Y186733D01*
X347137Y187360D01*
X345948Y187596D01*
X344759Y187360D01*
X343750Y186686D01*
X343077Y185678D01*
X342840Y184489D01*
X343077Y183299D01*
X343750Y182291D01*
X344759Y181618D01*
X345948Y181381D01*
X347137Y181618D01*
X348076Y182245D01*
X348457Y182164D01*
X349346Y181802D01*
Y179605D01*
X349290Y179470D01*
X348893Y179271D01*
X348167Y179083D01*
X347861Y179087D01*
X347137Y179571D01*
X345948Y179807D01*
X344759Y179571D01*
X343750Y178897D01*
X343077Y177889D01*
X342840Y176699D01*
X343077Y175510D01*
X343750Y174502D01*
X344759Y173828D01*
X345948Y173592D01*
X347137Y173828D01*
X348076Y174455D01*
X348457Y174375D01*
X349346Y174013D01*
Y164508D01*
X349600D01*
Y163802D01*
X354370D01*
X359140D01*
Y164508D01*
X359394D01*
Y174372D01*
X360680D01*
X361076Y174536D01*
X362346Y173696D01*
Y167008D01*
X362600D01*
Y162802D01*
X367370D01*
X372140D01*
Y167008D01*
X372394D01*
Y172611D01*
X373664Y173290D01*
X373762Y173224D01*
Y167894D01*
X374246Y166728D01*
X375412Y166244D01*
X411480Y166244D01*
X412646Y166728D01*
X414932Y169013D01*
X415415Y170180D01*
X415416Y200660D01*
X414933Y201826D01*
X409090Y207668D01*
X407924Y208152D01*
X404676D01*
X404190Y209325D01*
X405788Y210924D01*
X406272Y212090D01*
Y219456D01*
X405788Y220622D01*
X397636Y228775D01*
Y230805D01*
X398906Y231236D01*
X399847Y230009D01*
X401523Y228723D01*
X403475Y227915D01*
X405570Y227639D01*
X418570D01*
X420665Y227915D01*
X422617Y228723D01*
X424293Y230009D01*
X425579Y231685D01*
X426387Y233637D01*
X426663Y235732D01*
X426387Y237827D01*
X425579Y239779D01*
X424293Y241455D01*
X422617Y242741D01*
X420665Y243549D01*
X418570Y243825D01*
X405570D01*
X403475Y243549D01*
X402880Y243303D01*
X402160Y244379D01*
X403248Y245468D01*
X403732Y246634D01*
Y260604D01*
X403248Y261770D01*
X397406Y267612D01*
X396240Y268096D01*
X373452D01*
X372492Y268844D01*
X372492Y269366D01*
Y270344D01*
X369222D01*
Y272884D01*
X372492D01*
Y273432D01*
X372872D01*
X374038Y273916D01*
X374800Y274678D01*
X374930Y274991D01*
X376428Y275289D01*
X377040Y274678D01*
X378206Y274194D01*
X394462D01*
X395628Y274678D01*
X396112Y275844D01*
Y288036D01*
X395628Y289202D01*
X393342Y291488D01*
X392176Y291972D01*
X386602D01*
X385504Y292386D01*
Y294386D01*
X382734D01*
Y295656D01*
X381464D01*
Y298926D01*
X380258D01*
Y299180D01*
X377022D01*
X376240Y300129D01*
X376715Y301276D01*
X377978D01*
Y303276D01*
X375208D01*
Y305816D01*
X377978D01*
Y307816D01*
X377978D01*
Y308388D01*
X377978D01*
Y310388D01*
X375208D01*
Y311658D01*
X373938D01*
Y314928D01*
X373760D01*
Y315214D01*
X373276Y316380D01*
X371728Y317929D01*
Y319662D01*
X376482D01*
Y319916D01*
X377438D01*
Y328186D01*
X379978D01*
Y319916D01*
X380082D01*
Y310982D01*
X380082Y310982D01*
X380358Y309594D01*
X381144Y308418D01*
X392406Y297156D01*
X392406Y297156D01*
X393582Y296370D01*
X394970Y296094D01*
X394970Y296094D01*
X400050D01*
X401437Y296370D01*
X402614Y297156D01*
X403400Y298333D01*
X403676Y299720D01*
X403400Y301108D01*
X402614Y302284D01*
X401437Y303070D01*
X400050Y303346D01*
X396472D01*
X387334Y312484D01*
Y324686D01*
X387058Y326073D01*
X386482Y326935D01*
Y328912D01*
X388459D01*
X389321Y328336D01*
X390708Y328060D01*
X399094D01*
X399518Y327636D01*
X399518Y327636D01*
X400695Y326850D01*
X402082Y326574D01*
X402082Y326574D01*
X407070D01*
X407070Y326574D01*
X408457Y326850D01*
X408957Y327184D01*
X410578D01*
Y327438D01*
X411784D01*
Y330708D01*
X413054D01*
Y331978D01*
X415824D01*
Y333978D01*
X412420D01*
X412035Y334645D01*
X412420Y335312D01*
X415824D01*
Y337312D01*
X413054D01*
Y338582D01*
X411784D01*
Y341852D01*
X410578D01*
Y342106D01*
X408065D01*
X407554Y342208D01*
X405265D01*
X404739Y343478D01*
X419632Y358370D01*
X420418Y359547D01*
X420694Y360934D01*
X420694Y360934D01*
Y368955D01*
X421721Y369743D01*
X422767Y371106D01*
X423424Y372693D01*
X423648Y374396D01*
X423424Y376099D01*
X422767Y377686D01*
X421721Y379049D01*
X420358Y380095D01*
X418771Y380752D01*
X417068Y380976D01*
X415365Y380752D01*
X413778Y380095D01*
X412566Y379165D01*
X411960Y379304D01*
X411296Y379676D01*
Y387372D01*
X415784Y391861D01*
X417068Y391692D01*
X418771Y391916D01*
X420358Y392573D01*
X421721Y393619D01*
X422767Y394982D01*
X423424Y396569D01*
X423648Y398272D01*
X423424Y399975D01*
X422767Y401562D01*
X421721Y402925D01*
X420358Y403971D01*
X418771Y404628D01*
X417068Y404852D01*
X415365Y404628D01*
X413778Y403971D01*
X412415Y402925D01*
X411369Y401562D01*
X410712Y399975D01*
X410488Y398272D01*
X410657Y396988D01*
X407034Y393365D01*
X405764Y393891D01*
X405764Y414020D01*
X405280Y415186D01*
X399160Y421307D01*
Y447802D01*
X398676Y448968D01*
X397510Y449452D01*
D02*
G37*
G36*
X232758Y396598D02*
X231219D01*
X229752Y396306D01*
X228507Y395475D01*
X227676Y394230D01*
X227384Y392763D01*
Y387924D01*
X232758D01*
Y396598D01*
D02*
G37*
G36*
X113724Y388620D02*
X112224D01*
Y386620D01*
X113724D01*
Y388620D01*
D02*
G37*
G36*
X194818Y396790D02*
X193115Y396566D01*
X191528Y395909D01*
X190165Y394863D01*
X189119Y393500D01*
X188462Y391913D01*
X188238Y390210D01*
X188462Y388507D01*
X189119Y386920D01*
X190165Y385557D01*
X191528Y384511D01*
X193115Y383854D01*
X194818Y383630D01*
X196521Y383854D01*
X198108Y384511D01*
X199471Y385557D01*
X200517Y386920D01*
X201174Y388507D01*
X201398Y390210D01*
X201174Y391913D01*
X200517Y393500D01*
X199471Y394863D01*
X198108Y395909D01*
X196521Y396566D01*
X194818Y396790D01*
D02*
G37*
G36*
X172974D02*
X171271Y396566D01*
X169684Y395909D01*
X168321Y394863D01*
X167275Y393500D01*
X166618Y391913D01*
X166394Y390210D01*
X166618Y388507D01*
X167275Y386920D01*
X168321Y385557D01*
X169684Y384511D01*
X171271Y383854D01*
X172974Y383630D01*
X174677Y383854D01*
X176264Y384511D01*
X177627Y385557D01*
X178673Y386920D01*
X179330Y388507D01*
X179554Y390210D01*
X179330Y391913D01*
X178673Y393500D01*
X177627Y394863D01*
X176264Y395909D01*
X174677Y396566D01*
X172974Y396790D01*
D02*
G37*
G36*
X151130D02*
X149427Y396566D01*
X147840Y395909D01*
X146477Y394863D01*
X145431Y393500D01*
X144774Y391913D01*
X144550Y390210D01*
X144774Y388507D01*
X145431Y386920D01*
X146477Y385557D01*
X147840Y384511D01*
X149427Y383854D01*
X151130Y383630D01*
X152833Y383854D01*
X154420Y384511D01*
X155783Y385557D01*
X156829Y386920D01*
X157486Y388507D01*
X157710Y390210D01*
X157486Y391913D01*
X156829Y393500D01*
X155783Y394863D01*
X154420Y395909D01*
X152833Y396566D01*
X151130Y396790D01*
D02*
G37*
G36*
X217678Y396536D02*
X215975Y396312D01*
X214388Y395655D01*
X213025Y394609D01*
X211979Y393246D01*
X211322Y391659D01*
X211098Y389956D01*
X211322Y388253D01*
X211979Y386666D01*
X213025Y385303D01*
X214388Y384257D01*
X215975Y383600D01*
X217678Y383376D01*
X219381Y383600D01*
X220968Y384257D01*
X222331Y385303D01*
X223377Y386666D01*
X224034Y388253D01*
X224258Y389956D01*
X224034Y391659D01*
X223377Y393246D01*
X222331Y394609D01*
X220968Y395655D01*
X219381Y396312D01*
X217678Y396536D01*
D02*
G37*
G36*
X113724Y385032D02*
X112224D01*
Y383032D01*
X113724D01*
Y385032D01*
D02*
G37*
G36*
Y380492D02*
X112224D01*
Y378492D01*
X113724D01*
Y380492D01*
D02*
G37*
G36*
X232758Y385384D02*
X227384D01*
Y380545D01*
X227676Y379078D01*
X228507Y377834D01*
X229752Y377002D01*
X231219Y376710D01*
X232758D01*
Y385384D01*
D02*
G37*
G36*
X279078Y377472D02*
X277578D01*
Y375472D01*
X279078D01*
Y377472D01*
D02*
G37*
G36*
X353996Y376106D02*
X351996D01*
Y374606D01*
X353996D01*
Y376106D01*
D02*
G37*
G36*
X11684Y380280D02*
X9981Y380056D01*
X8394Y379399D01*
X7031Y378353D01*
X5985Y376990D01*
X5328Y375403D01*
X5104Y373700D01*
X5328Y371997D01*
X5985Y370410D01*
X7031Y369047D01*
X8394Y368001D01*
X9981Y367344D01*
X11684Y367120D01*
X13387Y367344D01*
X14974Y368001D01*
X16337Y369047D01*
X17383Y370410D01*
X18040Y371997D01*
X18264Y373700D01*
X18040Y375403D01*
X17383Y376990D01*
X16337Y378353D01*
X14974Y379399D01*
X13387Y380056D01*
X11684Y380280D01*
D02*
G37*
G36*
X83272Y371310D02*
Y365560D01*
X86772D01*
Y371310D01*
X83272D01*
D02*
G37*
G36*
X91732D02*
X88232D01*
Y365560D01*
X91732D01*
Y371310D01*
D02*
G37*
G36*
X86772Y363020D02*
X83272D01*
Y357270D01*
X86772D01*
Y363020D01*
D02*
G37*
G36*
X91732D02*
X88232D01*
Y357270D01*
X91732D01*
Y363020D01*
D02*
G37*
G36*
X332276Y353536D02*
X330776D01*
Y351536D01*
X332276D01*
Y353536D01*
D02*
G37*
G36*
X43955Y354168D02*
X39116D01*
Y348794D01*
X47790D01*
Y350333D01*
X47498Y351800D01*
X46666Y353045D01*
X45422Y353876D01*
X43955Y354168D01*
D02*
G37*
G36*
X36576D02*
X31737D01*
X30270Y353876D01*
X29025Y353045D01*
X28194Y351800D01*
X27902Y350333D01*
Y348794D01*
X36576D01*
Y354168D01*
D02*
G37*
G36*
X332276Y348996D02*
X330776D01*
Y346996D01*
X332276D01*
Y348996D01*
D02*
G37*
G36*
X64772Y348810D02*
X59022D01*
Y345310D01*
X64772D01*
Y348810D01*
D02*
G37*
G36*
X56482D02*
X50732D01*
Y345310D01*
X56482D01*
Y348810D01*
D02*
G37*
G36*
X321818Y350326D02*
X320629Y350089D01*
X319620Y349416D01*
X318947Y348407D01*
X318710Y347218D01*
X318947Y346029D01*
X319620Y345020D01*
X320629Y344347D01*
X321818Y344110D01*
X323007Y344347D01*
X324016Y345020D01*
X324689Y346029D01*
X324926Y347218D01*
X324689Y348407D01*
X324016Y349416D01*
X323007Y350089D01*
X321818Y350326D01*
D02*
G37*
G36*
X47790Y346254D02*
X39116D01*
Y340880D01*
X43955D01*
X45422Y341172D01*
X46666Y342004D01*
X47498Y343248D01*
X47790Y344715D01*
Y346254D01*
D02*
G37*
G36*
X36576D02*
X27902D01*
Y344715D01*
X28194Y343248D01*
X29025Y342004D01*
X30270Y341172D01*
X31737Y340880D01*
X36576D01*
Y346254D01*
D02*
G37*
G36*
X415824Y341852D02*
X414324D01*
Y339852D01*
X415824D01*
Y341852D01*
D02*
G37*
G36*
X297290Y335870D02*
X294640D01*
Y333120D01*
X297290D01*
Y335870D01*
D02*
G37*
G36*
X292100D02*
X289450D01*
Y333120D01*
X292100D01*
Y335870D01*
D02*
G37*
G36*
X25876Y330574D02*
X23876D01*
Y329074D01*
X25876D01*
Y330574D01*
D02*
G37*
G36*
X17748D02*
X15748D01*
Y329074D01*
X17748D01*
Y330574D01*
D02*
G37*
G36*
X9620D02*
X7620D01*
Y329074D01*
X9620D01*
Y330574D01*
D02*
G37*
G36*
X21336D02*
X19336D01*
Y329074D01*
X21336D01*
Y330574D01*
D02*
G37*
G36*
X13208D02*
X11208D01*
Y329074D01*
X13208D01*
Y330574D01*
D02*
G37*
G36*
X5080D02*
X3080D01*
Y329074D01*
X5080D01*
Y330574D01*
D02*
G37*
G36*
X415824Y329438D02*
X414324D01*
Y327438D01*
X415824D01*
Y329438D01*
D02*
G37*
G36*
X285272Y342770D02*
X278252D01*
X271232D01*
Y339334D01*
X271232Y339270D01*
X271078Y338064D01*
X270978D01*
Y328334D01*
X270978Y328016D01*
Y327064D01*
X270486Y326572D01*
X268700D01*
X268700Y326572D01*
X266966Y326227D01*
X265495Y325245D01*
X265495Y325245D01*
X263241Y322991D01*
X262837Y322386D01*
X261285Y321895D01*
X260096Y322132D01*
X258907Y321895D01*
X257899Y321222D01*
X257225Y320213D01*
X256988Y319024D01*
X257225Y317835D01*
X257899Y316826D01*
X258907Y316153D01*
X260096Y315916D01*
X260644Y316025D01*
X261914Y315162D01*
Y313182D01*
X262259Y311448D01*
X263241Y309977D01*
X264712Y308995D01*
X266446Y308650D01*
X268180Y308995D01*
X269651Y309977D01*
X269708Y310063D01*
X270978Y309678D01*
Y306334D01*
X270978Y306016D01*
Y305064D01*
X270978Y304746D01*
Y295334D01*
X270978Y295016D01*
Y294064D01*
X270978Y293746D01*
Y284334D01*
X270978Y284016D01*
Y283064D01*
X270978Y282746D01*
Y273016D01*
X273229D01*
Y270002D01*
X273525Y268515D01*
X274367Y267255D01*
X275627Y266413D01*
X277114Y266117D01*
X278601Y266413D01*
X279861Y267255D01*
X280703Y268515D01*
X280999Y270002D01*
Y273016D01*
X285526D01*
Y282746D01*
X285526Y283064D01*
Y284016D01*
X285526Y284334D01*
Y293746D01*
X285526Y294064D01*
Y295016D01*
X286456Y296155D01*
X297724D01*
X299210Y296451D01*
X300471Y297293D01*
X302729Y299551D01*
X304298Y299345D01*
X306001Y299569D01*
X307588Y300226D01*
X308951Y301272D01*
X309997Y302635D01*
X310654Y304222D01*
X310878Y305925D01*
X310654Y307628D01*
X309997Y309215D01*
X308951Y310578D01*
X307588Y311623D01*
X306001Y312281D01*
X304298Y312505D01*
X302595Y312281D01*
X301008Y311623D01*
X299645Y310578D01*
X298599Y309215D01*
X297942Y307628D01*
X297718Y305925D01*
X297764Y305574D01*
X296115Y303925D01*
X286424D01*
X285526Y304823D01*
X285526Y306016D01*
X286456Y307155D01*
X292752D01*
X294239Y307451D01*
X295499Y308293D01*
X306783Y319577D01*
X306907Y319526D01*
X308610Y319302D01*
X310313Y319526D01*
X311900Y320183D01*
X313263Y321229D01*
X314309Y322592D01*
X314966Y324179D01*
X315190Y325882D01*
X314966Y327585D01*
X314309Y329172D01*
X313263Y330535D01*
X311900Y331581D01*
X310313Y332238D01*
X308610Y332462D01*
X306907Y332238D01*
X305320Y331581D01*
X303957Y330535D01*
X302911Y329172D01*
X302254Y327585D01*
X302030Y325882D01*
X302038Y325820D01*
X299075Y322857D01*
X297902Y323470D01*
X297557Y325204D01*
X297544Y325224D01*
Y327744D01*
X297290Y327830D01*
Y330580D01*
X293370D01*
X289450D01*
Y328002D01*
X286790D01*
X285526Y328016D01*
X285526Y329272D01*
Y338064D01*
X285427D01*
X285272Y339270D01*
X285272Y339334D01*
Y342770D01*
D02*
G37*
G36*
X216772Y330770D02*
X211772D01*
Y325770D01*
X216772D01*
Y330770D01*
D02*
G37*
G36*
X209232D02*
X204232D01*
Y325770D01*
X209232D01*
Y330770D01*
D02*
G37*
G36*
X199772Y330770D02*
X194772D01*
Y325770D01*
X199772D01*
Y330770D01*
D02*
G37*
G36*
X192232D02*
X187232D01*
Y325770D01*
X192232D01*
Y330770D01*
D02*
G37*
G36*
X377978Y314928D02*
X376478D01*
Y312928D01*
X377978D01*
Y314928D01*
D02*
G37*
G36*
X200026Y321564D02*
X186978D01*
Y308516D01*
X200026D01*
Y321564D01*
D02*
G37*
G36*
X149026D02*
X135978D01*
Y308516D01*
X149026D01*
Y321564D01*
D02*
G37*
G36*
X132026D02*
X118978D01*
Y308516D01*
X132026D01*
Y321564D01*
D02*
G37*
G36*
X331597Y307681D02*
X329692D01*
Y301244D01*
X336129D01*
Y303149D01*
X335784Y304883D01*
X334802Y306354D01*
X333331Y307336D01*
X331597Y307681D01*
D02*
G37*
G36*
X327152D02*
X325247D01*
X323513Y307336D01*
X322042Y306354D01*
X321060Y304883D01*
X320715Y303149D01*
Y301244D01*
X327152D01*
Y307681D01*
D02*
G37*
G36*
X250772Y304310D02*
X245772D01*
Y299310D01*
X250772D01*
Y304310D01*
D02*
G37*
G36*
X97772D02*
X92772D01*
Y299310D01*
X97772D01*
Y304310D01*
D02*
G37*
G36*
X243232D02*
X238232D01*
Y299310D01*
X243232D01*
Y304310D01*
D02*
G37*
G36*
X90232D02*
X85232D01*
Y299310D01*
X90232D01*
Y304310D01*
D02*
G37*
G36*
X385504Y298926D02*
X384004D01*
Y296926D01*
X385504D01*
Y298926D01*
D02*
G37*
G36*
X122428Y301558D02*
X121239Y301321D01*
X120231Y300648D01*
X119557Y299639D01*
X119320Y298450D01*
X119557Y297261D01*
X120231Y296252D01*
X121239Y295579D01*
X122428Y295342D01*
X123617Y295579D01*
X124626Y296252D01*
X125299Y297261D01*
X125536Y298450D01*
X125299Y299639D01*
X124626Y300648D01*
X123617Y301321D01*
X122428Y301558D01*
D02*
G37*
G36*
X64772Y298770D02*
X59022D01*
Y295270D01*
X64772D01*
Y298770D01*
D02*
G37*
G36*
X56482D02*
X50732D01*
Y295270D01*
X56482D01*
Y298770D01*
D02*
G37*
G36*
X336129Y298704D02*
X329692D01*
Y292267D01*
X331597D01*
X333331Y292612D01*
X334802Y293594D01*
X335784Y295065D01*
X336129Y296799D01*
Y298704D01*
D02*
G37*
G36*
X327152D02*
X320715D01*
Y296799D01*
X321060Y295065D01*
X322042Y293594D01*
X323513Y292612D01*
X325247Y292267D01*
X327152D01*
Y298704D01*
D02*
G37*
G36*
X250772Y296770D02*
X245772D01*
Y291770D01*
X250772D01*
Y296770D01*
D02*
G37*
G36*
X243232D02*
X238232D01*
Y291770D01*
X243232D01*
Y296770D01*
D02*
G37*
G36*
X97772D02*
X92772D01*
Y291770D01*
X97772D01*
Y296770D01*
D02*
G37*
G36*
X90232D02*
X85232D01*
Y291770D01*
X90232D01*
Y296770D01*
D02*
G37*
G36*
X115026Y304564D02*
X101978D01*
Y291516D01*
X115026D01*
Y304564D01*
D02*
G37*
G36*
X74930Y297494D02*
X73741Y297257D01*
X72733Y296583D01*
X72059Y295575D01*
X71822Y294386D01*
X72059Y293197D01*
X72733Y292188D01*
X73741Y291515D01*
X74930Y291278D01*
X76119Y291515D01*
X77127Y292188D01*
X77801Y293197D01*
X78038Y294386D01*
X77801Y295575D01*
X77127Y296583D01*
X76119Y297257D01*
X74930Y297494D01*
D02*
G37*
G36*
X64772Y293810D02*
X59022D01*
Y290310D01*
X64772D01*
Y293810D01*
D02*
G37*
G36*
X56482D02*
X50732D01*
Y290310D01*
X56482D01*
Y293810D01*
D02*
G37*
G36*
X250772Y287310D02*
X245772D01*
Y282310D01*
X250772D01*
Y287310D01*
D02*
G37*
G36*
X114772D02*
X109772D01*
Y282310D01*
X114772D01*
Y287310D01*
D02*
G37*
G36*
X97772D02*
X92772D01*
Y282310D01*
X97772D01*
Y287310D01*
D02*
G37*
G36*
X243232D02*
X238232D01*
Y282310D01*
X243232D01*
Y287310D01*
D02*
G37*
G36*
X107232D02*
X102232D01*
Y282310D01*
X107232D01*
Y287310D01*
D02*
G37*
G36*
X90232D02*
X85232D01*
Y282310D01*
X90232D01*
Y287310D01*
D02*
G37*
G36*
X233772D02*
X228772D01*
Y282310D01*
X233772D01*
Y287310D01*
D02*
G37*
G36*
X226232D02*
X221232D01*
Y282310D01*
X226232D01*
Y287310D01*
D02*
G37*
G36*
X304298Y292294D02*
X302595Y292070D01*
X301008Y291412D01*
X299645Y290367D01*
X298599Y289004D01*
X297942Y287417D01*
X297718Y285714D01*
X297942Y284011D01*
X298599Y282424D01*
X299645Y281061D01*
X301008Y280015D01*
X302595Y279358D01*
X304298Y279133D01*
X306001Y279358D01*
X307588Y280015D01*
X308951Y281061D01*
X309997Y282424D01*
X310654Y284011D01*
X310878Y285714D01*
X310654Y287417D01*
X309997Y289004D01*
X308951Y290367D01*
X307588Y291412D01*
X306001Y292070D01*
X304298Y292294D01*
D02*
G37*
G36*
X39485Y288694D02*
X38380D01*
Y277623D01*
X43201D01*
Y284978D01*
X42919Y286400D01*
X42113Y287606D01*
X40907Y288412D01*
X39485Y288694D01*
D02*
G37*
G36*
X10985D02*
X9880D01*
Y277623D01*
X14701D01*
Y284978D01*
X14418Y286400D01*
X13613Y287606D01*
X12407Y288412D01*
X10985Y288694D01*
D02*
G37*
G36*
X35840D02*
X34735D01*
X33313Y288412D01*
X32107Y287606D01*
X31302Y286400D01*
X31019Y284978D01*
Y277623D01*
X35840D01*
Y288694D01*
D02*
G37*
G36*
X7340D02*
X6235D01*
X4813Y288412D01*
X3607Y287606D01*
X2801Y286400D01*
X2519Y284978D01*
Y277623D01*
X7340D01*
Y288694D01*
D02*
G37*
G36*
X250772Y279770D02*
X245772D01*
Y274770D01*
X250772D01*
Y279770D01*
D02*
G37*
G36*
X243232D02*
X238232D01*
Y274770D01*
X243232D01*
Y279770D01*
D02*
G37*
G36*
X233772Y279770D02*
X228772D01*
Y274770D01*
X233772D01*
Y279770D01*
D02*
G37*
G36*
X226232D02*
X221232D01*
Y274770D01*
X226232D01*
Y279770D01*
D02*
G37*
G36*
X114772Y279770D02*
X109772D01*
Y274770D01*
X114772D01*
Y279770D01*
D02*
G37*
G36*
X107232D02*
X102232D01*
Y274770D01*
X107232D01*
Y279770D01*
D02*
G37*
G36*
X97772D02*
X92772D01*
Y274770D01*
X97772D01*
Y279770D01*
D02*
G37*
G36*
X90232D02*
X85232D01*
Y274770D01*
X90232D01*
Y279770D01*
D02*
G37*
G36*
X354490Y270344D02*
X352490D01*
Y268844D01*
X354490D01*
Y270344D01*
D02*
G37*
G36*
X114772Y270310D02*
X109772D01*
Y265310D01*
X114772D01*
Y270310D01*
D02*
G37*
G36*
X97772D02*
X92772D01*
Y265310D01*
X97772D01*
Y270310D01*
D02*
G37*
G36*
X250772Y270310D02*
X245772D01*
Y265310D01*
X250772D01*
Y270310D01*
D02*
G37*
G36*
X243232D02*
X238232D01*
Y265310D01*
X243232D01*
Y270310D01*
D02*
G37*
G36*
X107232Y270310D02*
X102232D01*
Y265310D01*
X107232D01*
Y270310D01*
D02*
G37*
G36*
X90232D02*
X85232D01*
Y265310D01*
X90232D01*
Y270310D01*
D02*
G37*
G36*
X233772D02*
X228772D01*
Y265310D01*
X233772D01*
Y270310D01*
D02*
G37*
G36*
X226232D02*
X221232D01*
Y265310D01*
X226232D01*
Y270310D01*
D02*
G37*
G36*
X304298Y271756D02*
X302595Y271532D01*
X301008Y270875D01*
X299645Y269829D01*
X298599Y268466D01*
X297942Y266879D01*
X297718Y265176D01*
X297942Y263473D01*
X298599Y261886D01*
X299645Y260523D01*
X301008Y259477D01*
X302595Y258820D01*
X304298Y258596D01*
X306001Y258820D01*
X307588Y259477D01*
X308951Y260523D01*
X309997Y261886D01*
X310654Y263473D01*
X310878Y265176D01*
X310654Y266879D01*
X309997Y268466D01*
X308951Y269829D01*
X307588Y270875D01*
X306001Y271532D01*
X304298Y271756D01*
D02*
G37*
G36*
X420878Y264247D02*
X418973D01*
X417239Y263902D01*
X415768Y262920D01*
X414786Y261449D01*
X414441Y259715D01*
Y257810D01*
X420878D01*
Y264247D01*
D02*
G37*
G36*
X250772Y262770D02*
X245772D01*
Y257770D01*
X250772D01*
Y262770D01*
D02*
G37*
G36*
X243232D02*
X238232D01*
Y257770D01*
X243232D01*
Y262770D01*
D02*
G37*
G36*
X233772Y262770D02*
X228772D01*
Y257770D01*
X233772D01*
Y262770D01*
D02*
G37*
G36*
X226232D02*
X221232D01*
Y257770D01*
X226232D01*
Y262770D01*
D02*
G37*
G36*
X114772Y262770D02*
X109772D01*
Y257770D01*
X114772D01*
Y262770D01*
D02*
G37*
G36*
X107232D02*
X102232D01*
Y257770D01*
X107232D01*
Y262770D01*
D02*
G37*
G36*
X97772D02*
X92772D01*
Y257770D01*
X97772D01*
Y262770D01*
D02*
G37*
G36*
X90232D02*
X85232D01*
Y257770D01*
X90232D01*
Y262770D01*
D02*
G37*
G36*
X420878Y255270D02*
X414441D01*
Y253365D01*
X414786Y251631D01*
X415768Y250160D01*
X417239Y249178D01*
X418973Y248833D01*
X420878D01*
Y255270D01*
D02*
G37*
G36*
X114772Y253310D02*
X109772D01*
Y248310D01*
X114772D01*
Y253310D01*
D02*
G37*
G36*
X97772D02*
X92772D01*
Y248310D01*
X97772D01*
Y253310D01*
D02*
G37*
G36*
X250772Y253310D02*
X245772D01*
Y248310D01*
X250772D01*
Y253310D01*
D02*
G37*
G36*
X107232Y253310D02*
X102232D01*
Y248310D01*
X107232D01*
Y253310D01*
D02*
G37*
G36*
X243232Y253310D02*
X238232D01*
Y248310D01*
X243232D01*
Y253310D01*
D02*
G37*
G36*
X90232Y253310D02*
X85232D01*
Y248310D01*
X90232D01*
Y253310D01*
D02*
G37*
G36*
X233772D02*
X228772D01*
Y248310D01*
X233772D01*
Y253310D01*
D02*
G37*
G36*
X226232D02*
X221232D01*
Y248310D01*
X226232D01*
Y253310D01*
D02*
G37*
G36*
X250772Y245770D02*
X245772D01*
Y240770D01*
X250772D01*
Y245770D01*
D02*
G37*
G36*
X243232D02*
X238232D01*
Y240770D01*
X243232D01*
Y245770D01*
D02*
G37*
G36*
X233772Y245770D02*
X228772D01*
Y240770D01*
X233772D01*
Y245770D01*
D02*
G37*
G36*
X226232D02*
X221232D01*
Y240770D01*
X226232D01*
Y245770D01*
D02*
G37*
G36*
X64772Y240770D02*
X59022D01*
Y237270D01*
X64772D01*
Y240770D01*
D02*
G37*
G36*
Y235810D02*
X59022D01*
Y232310D01*
X64772D01*
Y235810D01*
D02*
G37*
G36*
X363970Y242817D02*
X352970D01*
X351136Y242575D01*
X349428Y241868D01*
X347960Y240742D01*
X346834Y239274D01*
X346127Y237566D01*
X345885Y235732D01*
X346127Y233898D01*
X346834Y232190D01*
X347960Y230722D01*
X349428Y229597D01*
X351136Y228889D01*
X352970Y228647D01*
X362600D01*
Y224802D01*
X367370D01*
X372140D01*
Y229802D01*
X369732D01*
X369248Y231072D01*
X370106Y232190D01*
X370813Y233898D01*
X371055Y235732D01*
X370813Y237566D01*
X370106Y239274D01*
X368980Y240742D01*
X367512Y241868D01*
X365804Y242575D01*
X363970Y242817D01*
D02*
G37*
G36*
X359140Y225302D02*
X355640D01*
Y223802D01*
X359140D01*
Y225302D01*
D02*
G37*
G36*
X353100D02*
X349600D01*
Y223802D01*
X353100D01*
Y225302D01*
D02*
G37*
G36*
X217026Y236564D02*
X203978D01*
Y223516D01*
X217026D01*
Y236564D01*
D02*
G37*
G36*
X200026D02*
X186978D01*
Y223516D01*
X200026D01*
Y236564D01*
D02*
G37*
G36*
X183026D02*
X169978D01*
Y223516D01*
X183026D01*
Y236564D01*
D02*
G37*
G36*
X166026D02*
X152978D01*
Y223516D01*
X166026D01*
Y236564D01*
D02*
G37*
G36*
X149026D02*
X135978D01*
Y223516D01*
X149026D01*
Y236564D01*
D02*
G37*
G36*
X257302Y285317D02*
X255815Y285021D01*
X254555Y284179D01*
X253713Y282919D01*
X253417Y281432D01*
Y218944D01*
X253713Y217457D01*
X254555Y216197D01*
X264459Y206293D01*
X265719Y205451D01*
X267206Y205155D01*
X270080D01*
X270978Y204257D01*
X270978Y202936D01*
X270520Y201666D01*
X268372D01*
X267970Y201746D01*
X266583Y201470D01*
X265406Y200684D01*
X264620Y199508D01*
X264344Y198120D01*
X264620Y196733D01*
X263842Y195612D01*
X263652Y195650D01*
X262264Y195374D01*
X261088Y194588D01*
X260302Y193412D01*
X260026Y192024D01*
Y188962D01*
X259128Y188064D01*
X258026Y188064D01*
X257708Y188064D01*
X248296D01*
X247978Y188064D01*
X247026D01*
X246708Y188064D01*
X237296D01*
X236978Y188064D01*
X236026D01*
X235708Y188064D01*
X226296D01*
X225978Y188064D01*
X225026D01*
X224708Y188064D01*
X215296D01*
X214978Y188064D01*
X214026D01*
X213708Y188064D01*
X204296D01*
X203978Y188064D01*
X203026D01*
X202708Y188064D01*
X193296D01*
X192978Y188064D01*
X192026D01*
X191708Y188064D01*
X181978D01*
Y173516D01*
X191708D01*
X192026Y173516D01*
X192978D01*
X193296Y173516D01*
X202708D01*
X203026Y173516D01*
X203978D01*
X204296Y173516D01*
X213708D01*
X214026Y173516D01*
X214978D01*
X215296Y173516D01*
X224708D01*
X225026Y173516D01*
X225978D01*
X226296Y173516D01*
X228530D01*
Y159598D01*
X228282D01*
Y151598D01*
X224782D01*
Y151200D01*
X220704D01*
X213176Y158728D01*
Y166624D01*
X212900Y168011D01*
X212114Y169188D01*
X210938Y169974D01*
X209550Y170250D01*
X208162Y169974D01*
X206986Y169188D01*
X206200Y168011D01*
X205924Y166624D01*
Y157226D01*
X205924Y157226D01*
X206200Y155838D01*
X206986Y154662D01*
X216638Y145010D01*
X216638Y145010D01*
X217815Y144224D01*
X219202Y143948D01*
X219202Y143948D01*
X224782D01*
Y143550D01*
X231530D01*
Y146309D01*
X231782Y147574D01*
X231530Y148839D01*
Y150365D01*
X231766Y150554D01*
X232312Y150436D01*
X233036Y149945D01*
Y148844D01*
X239276D01*
Y151344D01*
X237215D01*
X236030Y151550D01*
X236030Y152614D01*
Y159598D01*
X235782D01*
Y173338D01*
X236978Y173516D01*
X237296Y173516D01*
X246708D01*
X247026Y173516D01*
X247978D01*
X248296Y173516D01*
X250374D01*
Y159598D01*
X250126D01*
Y151598D01*
X246626D01*
Y149007D01*
X246618Y148996D01*
X246342Y147608D01*
X246342Y147608D01*
Y145891D01*
X245072Y145505D01*
X244767Y145962D01*
X243759Y146635D01*
X242570Y146872D01*
X241381Y146635D01*
X240546Y146077D01*
X239840Y146275D01*
X239790Y146304D01*
X237426D01*
Y143804D01*
X238258D01*
X239288Y143770D01*
X239674Y142699D01*
X239699Y142575D01*
X240373Y141566D01*
X241381Y140893D01*
X242570Y140656D01*
X243759Y140893D01*
X244767Y141566D01*
X245072Y142023D01*
X246342Y141637D01*
Y139353D01*
X246310Y139192D01*
X246310Y139192D01*
Y113030D01*
X246310Y113030D01*
X246586Y111643D01*
X247372Y110466D01*
X268909Y88929D01*
X268938Y88783D01*
X269724Y87606D01*
X270900Y86820D01*
X272288Y86544D01*
X273675Y86820D01*
X274286Y87228D01*
X275006Y87544D01*
X276054Y87119D01*
X281282Y81892D01*
X282448Y81408D01*
X305308D01*
X306474Y81892D01*
X310030Y85448D01*
X310514Y86614D01*
Y101092D01*
X310030Y102258D01*
X304442Y107846D01*
X303276Y108330D01*
X288924D01*
Y108890D01*
X288440Y110056D01*
X285596Y112900D01*
X285596Y117139D01*
X286866Y118188D01*
X291467Y118188D01*
X295022Y114633D01*
Y112547D01*
X295476Y111452D01*
Y111126D01*
X296121D01*
X296672Y110898D01*
X307035D01*
X307586Y111126D01*
X308024D01*
Y111307D01*
X308202Y111381D01*
X309014Y112194D01*
X309498Y113360D01*
X309498Y122428D01*
X309014Y123594D01*
X308202Y124407D01*
X307154Y124841D01*
X307092Y125476D01*
X307154Y126111D01*
X308202Y126545D01*
X309014Y127358D01*
X309498Y128524D01*
Y136398D01*
X309014Y137564D01*
X308760Y137818D01*
X308024Y138123D01*
Y138174D01*
X307902D01*
X307594Y138302D01*
X296672D01*
X296036Y139413D01*
Y152146D01*
X295552Y153312D01*
X293774Y155090D01*
X292608Y155574D01*
X280670Y155574D01*
X279503Y155090D01*
X278234Y153820D01*
X277750Y152654D01*
Y144382D01*
X275972D01*
Y140462D01*
X274702D01*
Y139192D01*
X270682D01*
Y136542D01*
X273195D01*
X274100Y135721D01*
X274194Y135272D01*
Y134071D01*
X272924Y132827D01*
X268792Y132827D01*
X267408Y134212D01*
X266242Y134695D01*
X260198D01*
X259031Y134212D01*
X258703Y133420D01*
X257988D01*
Y130150D01*
Y126880D01*
X258919D01*
X259031Y126608D01*
X260198Y126125D01*
X269984Y126125D01*
X270362Y125476D01*
X269984Y124827D01*
X260198Y124827D01*
X259031Y124344D01*
X258548Y123178D01*
Y117907D01*
X259031Y116740D01*
X260198Y116257D01*
X266242D01*
X267408Y116740D01*
X268792Y118125D01*
X273559Y118125D01*
X274695Y117248D01*
X274829Y117040D01*
Y113838D01*
X273178D01*
Y109918D01*
Y105998D01*
X274155D01*
X274956Y105029D01*
Y94933D01*
X273686Y94407D01*
X253562Y114532D01*
Y125770D01*
X253948Y126880D01*
X255448D01*
Y130150D01*
Y133420D01*
X253948D01*
X253562Y134530D01*
Y139063D01*
X253594Y139224D01*
X253594Y139224D01*
Y147479D01*
X253626Y147640D01*
X253374Y148905D01*
Y150365D01*
X253610Y150554D01*
X254156Y150436D01*
X254880Y149945D01*
Y148844D01*
X261120D01*
Y151344D01*
X259059D01*
X257874Y151550D01*
X257874Y152614D01*
Y159598D01*
X257626D01*
Y173116D01*
X258026Y173516D01*
X258978D01*
X259296Y173516D01*
X269026D01*
Y188064D01*
X267278D01*
Y192024D01*
X267002Y193411D01*
X267830Y194458D01*
X268050Y194414D01*
X268050Y194414D01*
X270978D01*
Y193016D01*
X285526D01*
Y202746D01*
X285526Y203064D01*
Y204016D01*
X285526Y204334D01*
Y213746D01*
X285526Y214064D01*
Y215144D01*
X285984Y216414D01*
X297957D01*
X297957Y216414D01*
X299344Y216690D01*
X300520Y217476D01*
X302010Y218966D01*
X302595Y218724D01*
X304298Y218500D01*
X306001Y218724D01*
X307588Y219382D01*
X308951Y220427D01*
X309997Y221790D01*
X310654Y223377D01*
X310878Y225080D01*
X310654Y226783D01*
X309997Y228370D01*
X308951Y229733D01*
X307588Y230779D01*
X306001Y231436D01*
X304298Y231661D01*
X302595Y231436D01*
X302207Y231276D01*
X301488Y232353D01*
X306862Y237726D01*
X306862Y237726D01*
X307648Y238902D01*
X307820Y239771D01*
X308951Y240639D01*
X309997Y242001D01*
X310654Y243588D01*
X310878Y245291D01*
X310654Y246994D01*
X309997Y248582D01*
X308951Y249944D01*
X307588Y250990D01*
X306001Y251647D01*
X304298Y251872D01*
X302595Y251647D01*
X301008Y250990D01*
X299645Y249944D01*
X298599Y248582D01*
X297942Y246994D01*
X297718Y245291D01*
X297942Y243588D01*
X298599Y242001D01*
X299590Y240710D01*
X293546Y234666D01*
X286424D01*
X285736Y235354D01*
X285526Y235936D01*
Y237016D01*
X285526Y237334D01*
Y246746D01*
X285526Y247064D01*
Y248016D01*
X285526Y248334D01*
Y258064D01*
X270978D01*
Y248334D01*
X270978Y248016D01*
Y246852D01*
X269708Y246326D01*
X266775Y249259D01*
Y280924D01*
X266479Y282411D01*
X265637Y283671D01*
X264377Y284513D01*
X262890Y284809D01*
X261403Y284513D01*
X260313Y283784D01*
X260049Y284179D01*
X258789Y285021D01*
X257302Y285317D01*
D02*
G37*
G36*
X75184Y222818D02*
X73995Y222581D01*
X72986Y221908D01*
X72313Y220899D01*
X72076Y219710D01*
X72313Y218521D01*
X72986Y217512D01*
X73995Y216839D01*
X75184Y216602D01*
X76373Y216839D01*
X77382Y217512D01*
X78055Y218521D01*
X78292Y219710D01*
X78055Y220899D01*
X77382Y221908D01*
X76373Y222581D01*
X75184Y222818D01*
D02*
G37*
G36*
X216772Y219310D02*
X211772D01*
Y214310D01*
X216772D01*
Y219310D01*
D02*
G37*
G36*
X209232D02*
X204232D01*
Y214310D01*
X209232D01*
Y219310D01*
D02*
G37*
G36*
X199772D02*
X194772D01*
Y214310D01*
X199772D01*
Y219310D01*
D02*
G37*
G36*
X192232D02*
X187232D01*
Y214310D01*
X192232D01*
Y219310D01*
D02*
G37*
G36*
X338582Y219516D02*
X337393Y219279D01*
X336385Y218605D01*
X335711Y217597D01*
X335474Y216408D01*
X335711Y215219D01*
X336385Y214210D01*
X337393Y213537D01*
X338582Y213300D01*
X339771Y213537D01*
X340779Y214210D01*
X341453Y215219D01*
X341690Y216408D01*
X341453Y217597D01*
X340779Y218605D01*
X339771Y219279D01*
X338582Y219516D01*
D02*
G37*
G36*
X216772Y211770D02*
X211772D01*
Y206770D01*
X216772D01*
Y211770D01*
D02*
G37*
G36*
X209232D02*
X204232D01*
Y206770D01*
X209232D01*
Y211770D01*
D02*
G37*
G36*
X199772Y211770D02*
X194772D01*
Y206770D01*
X199772D01*
Y211770D01*
D02*
G37*
G36*
X192232D02*
X187232D01*
Y206770D01*
X192232D01*
Y211770D01*
D02*
G37*
G36*
X183026Y219564D02*
X169978D01*
Y206516D01*
X183026D01*
Y219564D01*
D02*
G37*
G36*
X166026D02*
X152978D01*
Y206516D01*
X166026D01*
Y219564D01*
D02*
G37*
G36*
X149026Y219564D02*
X135978D01*
Y206516D01*
X149026D01*
Y219564D01*
D02*
G37*
G36*
X132026D02*
X118978D01*
Y206516D01*
X132026D01*
Y219564D01*
D02*
G37*
G36*
X64772Y207770D02*
X59022D01*
Y204270D01*
X64772D01*
Y207770D01*
D02*
G37*
G36*
X56482D02*
X50732D01*
Y204270D01*
X56482D01*
Y207770D01*
D02*
G37*
G36*
X64772Y202810D02*
X59022D01*
Y199310D01*
X64772D01*
Y202810D01*
D02*
G37*
G36*
X304298Y211449D02*
X302595Y211225D01*
X301008Y210568D01*
X299645Y209522D01*
X298599Y208159D01*
X297942Y206572D01*
X297718Y204869D01*
X297942Y203166D01*
X298599Y201579D01*
X299645Y200216D01*
X301008Y199170D01*
X302595Y198513D01*
X304298Y198289D01*
X306001Y198513D01*
X307588Y199170D01*
X308951Y200216D01*
X309997Y201579D01*
X310654Y203166D01*
X310878Y204869D01*
X310654Y206572D01*
X309997Y208159D01*
X308951Y209522D01*
X307588Y210568D01*
X306001Y211225D01*
X304298Y211449D01*
D02*
G37*
G36*
X64772Y196770D02*
X59022D01*
Y193270D01*
X64772D01*
Y196770D01*
D02*
G37*
G36*
X38862Y195081D02*
X37673Y194844D01*
X36665Y194171D01*
X35991Y193162D01*
X35754Y191973D01*
X35991Y190784D01*
X36665Y189776D01*
X37673Y189102D01*
X38862Y188866D01*
X40051Y189102D01*
X41059Y189776D01*
X41733Y190784D01*
X41970Y191973D01*
X41733Y193162D01*
X41059Y194171D01*
X40051Y194844D01*
X38862Y195081D01*
D02*
G37*
G36*
X304298Y191238D02*
X302595Y191014D01*
X301008Y190357D01*
X299645Y189311D01*
X298599Y187948D01*
X297942Y186361D01*
X297718Y184658D01*
X297942Y182955D01*
X298599Y181368D01*
X299645Y180005D01*
X301008Y178959D01*
X302595Y178302D01*
X304298Y178078D01*
X306001Y178302D01*
X307588Y178959D01*
X308951Y180005D01*
X309997Y181368D01*
X310654Y182955D01*
X310878Y184658D01*
X310654Y186361D01*
X309997Y187948D01*
X308951Y189311D01*
X307588Y190357D01*
X306001Y191014D01*
X304298Y191238D01*
D02*
G37*
G36*
X39624Y182432D02*
X38435Y182195D01*
X37427Y181521D01*
X36753Y180513D01*
X36516Y179324D01*
X36753Y178135D01*
X37427Y177127D01*
X38435Y176453D01*
X39624Y176216D01*
X40813Y176453D01*
X41821Y177127D01*
X42495Y178135D01*
X42732Y179324D01*
X42495Y180513D01*
X41821Y181521D01*
X40813Y182195D01*
X39624Y182432D01*
D02*
G37*
G36*
X40386Y169732D02*
X39197Y169495D01*
X38189Y168822D01*
X37515Y167813D01*
X37278Y166624D01*
X37515Y165435D01*
X38189Y164426D01*
X39197Y163753D01*
X40386Y163516D01*
X41575Y163753D01*
X42583Y164426D01*
X43257Y165435D01*
X43494Y166624D01*
X43257Y167813D01*
X42583Y168822D01*
X41575Y169495D01*
X40386Y169732D01*
D02*
G37*
G36*
X359140Y161262D02*
X355640D01*
Y159762D01*
X359140D01*
Y161262D01*
D02*
G37*
G36*
X353100D02*
X349600D01*
Y159762D01*
X353100D01*
Y161262D01*
D02*
G37*
G36*
X209560Y145116D02*
X201212D01*
Y144659D01*
X171648D01*
X170688Y144850D01*
X169300Y144574D01*
X168124Y143788D01*
X167338Y142612D01*
X167062Y141224D01*
X167338Y139837D01*
X168124Y138660D01*
X168315Y138469D01*
X168315Y138469D01*
X169492Y137683D01*
X170879Y137407D01*
X201212D01*
Y128188D01*
X209560D01*
Y128577D01*
X216526D01*
X217170Y128449D01*
X218657Y128745D01*
X219917Y129587D01*
X220759Y130847D01*
X221055Y132334D01*
X220759Y133821D01*
X219917Y135081D01*
X219789Y135209D01*
X218529Y136051D01*
X217042Y136347D01*
X209560D01*
Y136568D01*
Y145116D01*
D02*
G37*
G36*
X261120Y146304D02*
X259270D01*
Y143804D01*
X261120D01*
Y146304D01*
D02*
G37*
G36*
X256730D02*
X254880D01*
Y143804D01*
X256730D01*
Y146304D01*
D02*
G37*
G36*
X234886D02*
X233036D01*
Y143804D01*
X234886D01*
Y146304D01*
D02*
G37*
G36*
X160137Y144975D02*
X157232D01*
Y143644D01*
X161705D01*
X161639Y143971D01*
X161287Y144499D01*
X160759Y144852D01*
X160137Y144975D01*
D02*
G37*
G36*
X46450Y146602D02*
X43180D01*
X39910D01*
Y145880D01*
X39664Y144712D01*
X39664Y143719D01*
X38394Y143100D01*
X37710Y143558D01*
X36322Y143834D01*
X34934Y143558D01*
X33758Y142772D01*
X32972Y141595D01*
X32696Y140208D01*
X32972Y138820D01*
X33758Y137644D01*
X37040Y134362D01*
X37040Y134362D01*
X38217Y133576D01*
X39308Y133359D01*
Y129750D01*
X39410Y129239D01*
Y124761D01*
X39308Y124250D01*
X39410Y123739D01*
Y121226D01*
X41059D01*
X41547Y120900D01*
X42934Y120624D01*
X55151D01*
X55372Y120580D01*
X56760Y120856D01*
X57936Y121642D01*
X58722Y122818D01*
X58998Y124206D01*
X58722Y125594D01*
X57936Y126770D01*
X57892Y126814D01*
X56715Y127600D01*
X55328Y127876D01*
X55328Y127876D01*
X46458D01*
Y129239D01*
X46560Y129750D01*
Y136442D01*
X46560Y136442D01*
X46458Y136953D01*
Y139466D01*
X46204D01*
Y140672D01*
X42934D01*
Y143212D01*
X46204D01*
Y143934D01*
X46450Y145102D01*
X46450Y145880D01*
Y146602D01*
D02*
G37*
G36*
X372140Y160262D02*
X367370D01*
X362600D01*
Y156417D01*
X352970D01*
X351136Y156175D01*
X349428Y155468D01*
X347960Y154342D01*
X346834Y152874D01*
X346127Y151166D01*
X345885Y149332D01*
X346127Y147498D01*
X346834Y145790D01*
X347960Y144323D01*
X349428Y143197D01*
X351136Y142489D01*
X352970Y142247D01*
X363970D01*
X365804Y142489D01*
X367512Y143197D01*
X368980Y144323D01*
X370106Y145790D01*
X370813Y147498D01*
X371055Y149332D01*
X370813Y151166D01*
X370106Y152874D01*
X369248Y153992D01*
X369732Y155262D01*
X372140D01*
Y160262D01*
D02*
G37*
G36*
X273432Y144382D02*
X270682D01*
Y141732D01*
X273432D01*
Y144382D01*
D02*
G37*
G36*
X418570Y157425D02*
X405570D01*
X403475Y157149D01*
X401523Y156341D01*
X399847Y155055D01*
X398561Y153379D01*
X397752Y151427D01*
X397477Y149332D01*
X397752Y147237D01*
X398561Y145285D01*
X399847Y143609D01*
X401523Y142323D01*
X403475Y141515D01*
X405570Y141239D01*
X418570D01*
X420665Y141515D01*
X422617Y142323D01*
X424293Y143609D01*
X425579Y145285D01*
X426387Y147237D01*
X426663Y149332D01*
X426387Y151427D01*
X425579Y153379D01*
X424293Y155055D01*
X422617Y156341D01*
X420665Y157149D01*
X418570Y157425D01*
D02*
G37*
G36*
X161705Y141104D02*
X157232D01*
Y139773D01*
X160137D01*
X160759Y139897D01*
X161287Y140249D01*
X161639Y140777D01*
X161705Y141104D01*
D02*
G37*
G36*
X328168Y152630D02*
X326465Y152406D01*
X324878Y151749D01*
X323515Y150703D01*
X322469Y149340D01*
X321812Y147753D01*
X321588Y146050D01*
X321812Y144347D01*
X322469Y142760D01*
X323515Y141397D01*
X324534Y140616D01*
X324030Y139401D01*
X323088Y139525D01*
X320701Y139211D01*
X318477Y138289D01*
X316566Y136824D01*
X315101Y134913D01*
X314179Y132689D01*
X313865Y130302D01*
X314179Y127915D01*
X315101Y125691D01*
X316566Y123780D01*
X318477Y122315D01*
X320701Y121393D01*
X323088Y121079D01*
X325475Y121393D01*
X327699Y122315D01*
X329610Y123780D01*
X331075Y125691D01*
X331997Y127915D01*
X332311Y130302D01*
X331997Y132689D01*
X331075Y134913D01*
X329610Y136824D01*
X327700Y138289D01*
X328168Y139470D01*
X329871Y139694D01*
X331458Y140351D01*
X332821Y141397D01*
X333867Y142760D01*
X334524Y144347D01*
X334748Y146050D01*
X334524Y147753D01*
X333867Y149340D01*
X332821Y150703D01*
X331458Y151749D01*
X329871Y152406D01*
X328168Y152630D01*
D02*
G37*
G36*
X234696Y141284D02*
X233507Y141047D01*
X232498Y140373D01*
X231825Y139365D01*
X231588Y138176D01*
X231825Y136987D01*
X232498Y135978D01*
X233507Y135305D01*
X234696Y135068D01*
X235885Y135305D01*
X236894Y135978D01*
X237567Y136987D01*
X237804Y138176D01*
X237567Y139365D01*
X236894Y140373D01*
X235885Y141047D01*
X234696Y141284D01*
D02*
G37*
G36*
X170656Y135568D02*
X168656D01*
Y134068D01*
X170656D01*
Y135568D01*
D02*
G37*
G36*
X166116D02*
X164116D01*
Y134068D01*
X166116D01*
Y135568D01*
D02*
G37*
G36*
X224282Y129600D02*
X223093Y129363D01*
X222085Y128689D01*
X221411Y127681D01*
X221174Y126492D01*
X221411Y125303D01*
X222085Y124295D01*
X223093Y123621D01*
X224282Y123384D01*
X225471Y123621D01*
X226479Y124295D01*
X227153Y125303D01*
X227390Y126492D01*
X227153Y127681D01*
X226479Y128689D01*
X225471Y129363D01*
X224282Y129600D01*
D02*
G37*
G36*
X270638Y113838D02*
X267888D01*
Y111188D01*
X270638D01*
Y113838D01*
D02*
G37*
G36*
Y108648D02*
X267888D01*
Y105998D01*
X270638D01*
Y108648D01*
D02*
G37*
G36*
X40386Y118932D02*
X39197Y118695D01*
X38189Y118021D01*
X37515Y117013D01*
X37278Y115824D01*
X37515Y114635D01*
X38189Y113626D01*
X38730Y113265D01*
X39177Y111914D01*
X39173Y111663D01*
X39041Y111470D01*
X35059D01*
Y109470D01*
X37829D01*
Y106930D01*
X35059D01*
Y105182D01*
X9674D01*
X9422Y105434D01*
X8245Y106220D01*
X6858Y106496D01*
X5470Y106220D01*
X4294Y105434D01*
X3508Y104257D01*
X3232Y102870D01*
X3508Y101482D01*
X4294Y100306D01*
X5608Y98992D01*
X5608Y98992D01*
X6784Y98206D01*
X8172Y97930D01*
X8172Y97930D01*
X43434D01*
X43434Y97930D01*
X44166Y98076D01*
X47184D01*
X47281Y98011D01*
X48768Y97715D01*
X55118D01*
X56605Y98011D01*
X57865Y98853D01*
X58707Y100113D01*
X59003Y101600D01*
X58707Y103087D01*
X57865Y104347D01*
X56605Y105189D01*
X55118Y105485D01*
X48768D01*
X48277Y105387D01*
X47007Y106417D01*
Y108147D01*
X46731Y109534D01*
X46353Y110101D01*
Y111724D01*
X43840D01*
X43328Y111825D01*
X42817Y111724D01*
X42089D01*
X41619Y112899D01*
X41636Y112994D01*
X42583Y113626D01*
X43257Y114635D01*
X43494Y115824D01*
X43257Y117013D01*
X42583Y118021D01*
X41575Y118695D01*
X40386Y118932D01*
D02*
G37*
G36*
X232664Y110550D02*
X231475Y110313D01*
X230466Y109640D01*
X229793Y108631D01*
X229556Y107442D01*
X229793Y106253D01*
X230466Y105245D01*
X231475Y104571D01*
X232664Y104334D01*
X233853Y104571D01*
X234862Y105245D01*
X235535Y106253D01*
X235772Y107442D01*
X235535Y108631D01*
X234862Y109640D01*
X233853Y110313D01*
X232664Y110550D01*
D02*
G37*
G36*
X6096Y94956D02*
X4362Y94611D01*
X2891Y93629D01*
X1909Y92158D01*
X1564Y90424D01*
X1909Y88690D01*
X2891Y87219D01*
X3134Y86976D01*
X3134Y86976D01*
X4605Y85994D01*
X6339Y85649D01*
X15327D01*
X16146Y85286D01*
Y85260D01*
X16400Y85174D01*
Y82424D01*
X20320D01*
X24240D01*
Y84748D01*
X29792D01*
Y83502D01*
X42340D01*
Y84876D01*
X45720D01*
X47454Y85221D01*
X48925Y86203D01*
X49907Y87674D01*
X50252Y89408D01*
X49907Y91142D01*
X48925Y92613D01*
X47454Y93595D01*
X45720Y93940D01*
X42340D01*
Y94550D01*
X29792D01*
Y93812D01*
X22239D01*
X21407Y94368D01*
X19673Y94713D01*
X7318D01*
X6096Y94956D01*
D02*
G37*
G36*
X222504Y89468D02*
X221315Y89231D01*
X220306Y88558D01*
X219633Y87549D01*
X219396Y86360D01*
X219633Y85171D01*
X220306Y84163D01*
X221315Y83489D01*
X222504Y83252D01*
X223693Y83489D01*
X224701Y84163D01*
X225375Y85171D01*
X225612Y86360D01*
X225375Y87549D01*
X224701Y88558D01*
X223693Y89231D01*
X222504Y89468D01*
D02*
G37*
G36*
X208200Y79403D02*
X199738D01*
X198251Y79107D01*
X198154Y79042D01*
X194508D01*
Y79248D01*
X191008D01*
Y71248D01*
X194508D01*
Y71994D01*
X198154D01*
X198251Y71929D01*
X199738Y71633D01*
X207878D01*
X208280Y71553D01*
X209767Y71849D01*
X211027Y72691D01*
X211869Y73951D01*
X212165Y75438D01*
X211869Y76925D01*
X211027Y78185D01*
X210947Y78265D01*
X209687Y79107D01*
X208200Y79403D01*
D02*
G37*
G36*
X24240Y79884D02*
X21590D01*
Y77134D01*
X24240D01*
Y79884D01*
D02*
G37*
G36*
X19050D02*
X16400D01*
Y77134D01*
X19050D01*
Y79884D01*
D02*
G37*
G36*
X178468Y78788D02*
X174468D01*
Y76788D01*
X178468D01*
Y78788D01*
D02*
G37*
G36*
X112522Y79376D02*
X109872D01*
Y76626D01*
X112522D01*
Y79376D01*
D02*
G37*
G36*
X42086Y78296D02*
X37336D01*
Y74296D01*
X42086D01*
Y78296D01*
D02*
G37*
G36*
X34796D02*
X30046D01*
Y74296D01*
X34796D01*
Y78296D01*
D02*
G37*
G36*
X178468Y74248D02*
X174468D01*
Y72248D01*
X178468D01*
Y74248D01*
D02*
G37*
G36*
X188468Y79248D02*
X184968D01*
Y78788D01*
X181008D01*
Y75518D01*
Y72248D01*
X184968D01*
Y71248D01*
X188468D01*
Y79248D01*
D02*
G37*
G36*
X330962Y63306D02*
X329773Y63069D01*
X328764Y62396D01*
X328091Y61387D01*
X327854Y60198D01*
X328091Y59009D01*
X328764Y58000D01*
X329773Y57327D01*
X330962Y57090D01*
X332151Y57327D01*
X333159Y58000D01*
X333833Y59009D01*
X334070Y60198D01*
X333833Y61387D01*
X333159Y62396D01*
X332151Y63069D01*
X330962Y63306D01*
D02*
G37*
G36*
X316992Y58988D02*
X315803Y58751D01*
X314795Y58078D01*
X314121Y57069D01*
X313884Y55880D01*
X314121Y54691D01*
X314795Y53682D01*
X315803Y53009D01*
X316992Y52772D01*
X318181Y53009D01*
X319189Y53682D01*
X319863Y54691D01*
X320100Y55880D01*
X319863Y57069D01*
X319189Y58078D01*
X318181Y58751D01*
X316992Y58988D01*
D02*
G37*
G36*
X242570Y57464D02*
X241381Y57227D01*
X240373Y56554D01*
X239699Y55545D01*
X239462Y54356D01*
X239699Y53167D01*
X240373Y52158D01*
X241381Y51485D01*
X242570Y51248D01*
X243759Y51485D01*
X244767Y52158D01*
X245441Y53167D01*
X245678Y54356D01*
X245441Y55545D01*
X244767Y56554D01*
X243759Y57227D01*
X242570Y57464D01*
D02*
G37*
G36*
X294300Y59166D02*
X292913Y58890D01*
X291736Y58104D01*
X290950Y56927D01*
X290674Y55540D01*
X290950Y54152D01*
X291736Y52976D01*
X291931Y52782D01*
X293107Y51996D01*
X294494Y51720D01*
X294494Y51720D01*
X295555D01*
X296334Y50940D01*
Y45020D01*
X308882D01*
Y56068D01*
X301462D01*
X299620Y57909D01*
X298444Y58695D01*
X297057Y58971D01*
X297056Y58971D01*
X295277D01*
X294300Y59166D01*
D02*
G37*
G36*
X280924Y61782D02*
X279735Y61545D01*
X278727Y60872D01*
X278053Y59863D01*
X277816Y58674D01*
X278053Y57485D01*
X278151Y57338D01*
X277472Y56068D01*
X276475D01*
Y53410D01*
X274574D01*
X273186Y53134D01*
X272010Y52348D01*
X271224Y51171D01*
X270948Y49784D01*
X271224Y48397D01*
X272010Y47220D01*
X273186Y46434D01*
X274574Y46158D01*
X276475D01*
Y45020D01*
X289023D01*
Y56068D01*
X284376D01*
X283697Y57338D01*
X283795Y57485D01*
X284032Y58674D01*
X283795Y59863D01*
X283121Y60872D01*
X282113Y61545D01*
X280924Y61782D01*
D02*
G37*
G36*
X316440Y50098D02*
X315251Y49861D01*
X314243Y49187D01*
X313569Y48179D01*
X313333Y46990D01*
X313569Y45801D01*
X314243Y44792D01*
X315251Y44119D01*
X316440Y43882D01*
X317630Y44119D01*
X318638Y44792D01*
X319312Y45801D01*
X319548Y46990D01*
X319312Y48179D01*
X318638Y49187D01*
X317630Y49861D01*
X316440Y50098D01*
D02*
G37*
G36*
X242570Y39938D02*
X241381Y39701D01*
X240373Y39028D01*
X239699Y38019D01*
X239462Y36830D01*
X239699Y35641D01*
X240373Y34632D01*
X241381Y33959D01*
X242570Y33722D01*
X243759Y33959D01*
X244767Y34632D01*
X245441Y35641D01*
X245678Y36830D01*
X245441Y38019D01*
X244767Y39028D01*
X243759Y39701D01*
X242570Y39938D01*
D02*
G37*
G36*
X410062Y52145D02*
X407020Y51744D01*
X404185Y50570D01*
X401750Y48702D01*
X399882Y46267D01*
X398708Y43432D01*
X398307Y40390D01*
X398708Y37348D01*
X399882Y34513D01*
X401750Y32078D01*
X404185Y30210D01*
X407020Y29036D01*
X410062Y28635D01*
X413104Y29036D01*
X415939Y30210D01*
X418374Y32078D01*
X420242Y34513D01*
X421416Y37348D01*
X421817Y40390D01*
X421416Y43432D01*
X420242Y46267D01*
X418374Y48702D01*
X415939Y50570D01*
X413104Y51744D01*
X410062Y52145D01*
D02*
G37*
G36*
X339962D02*
X336920Y51744D01*
X334085Y50570D01*
X331650Y48702D01*
X329782Y46267D01*
X328608Y43432D01*
X328208Y40390D01*
X328608Y37348D01*
X329782Y34513D01*
X331650Y32078D01*
X334085Y30210D01*
X336920Y29036D01*
X339962Y28635D01*
X343004Y29036D01*
X345839Y30210D01*
X348274Y32078D01*
X350142Y34513D01*
X351316Y37348D01*
X351717Y40390D01*
X351316Y43432D01*
X350142Y46267D01*
X348274Y48702D01*
X345839Y50570D01*
X343004Y51744D01*
X339962Y52145D01*
D02*
G37*
G36*
X323724Y32446D02*
X322535Y32209D01*
X321526Y31535D01*
X320853Y30527D01*
X320616Y29338D01*
X320853Y28149D01*
X321526Y27141D01*
X322535Y26467D01*
X323724Y26230D01*
X324913Y26467D01*
X325922Y27141D01*
X326595Y28149D01*
X326832Y29338D01*
X326595Y30527D01*
X325922Y31535D01*
X324913Y32209D01*
X323724Y32446D01*
D02*
G37*
G36*
X311912Y21396D02*
X310723Y21159D01*
X309715Y20485D01*
X309041Y19477D01*
X308804Y18288D01*
X309041Y17099D01*
X309715Y16091D01*
X310723Y15417D01*
X311912Y15180D01*
X313101Y15417D01*
X314109Y16091D01*
X314783Y17099D01*
X315020Y18288D01*
X314783Y19477D01*
X314109Y20485D01*
X313101Y21159D01*
X311912Y21396D01*
D02*
G37*
G36*
X397512Y24899D02*
X395077Y24579D01*
X392807Y23639D01*
X390859Y22143D01*
X389363Y20195D01*
X388423Y17925D01*
X388103Y15490D01*
X388423Y13055D01*
X389363Y10785D01*
X390859Y8837D01*
X392807Y7341D01*
X395077Y6401D01*
X397512Y6080D01*
X399948Y6401D01*
X402217Y7341D01*
X404166Y8837D01*
X405661Y10785D01*
X406601Y13055D01*
X406922Y15490D01*
X406601Y17925D01*
X405661Y20195D01*
X404166Y22143D01*
X402217Y23639D01*
X399948Y24579D01*
X397512Y24899D01*
D02*
G37*
G36*
X352512D02*
X350077Y24579D01*
X347807Y23639D01*
X345859Y22143D01*
X344363Y20195D01*
X343423Y17925D01*
X343103Y15490D01*
X343423Y13055D01*
X344363Y10785D01*
X345859Y8837D01*
X347807Y7341D01*
X350077Y6401D01*
X352512Y6080D01*
X354947Y6401D01*
X357217Y7341D01*
X359166Y8837D01*
X360661Y10785D01*
X361601Y13055D01*
X361922Y15490D01*
X361601Y17925D01*
X360661Y20195D01*
X359166Y22143D01*
X357217Y23639D01*
X354947Y24579D01*
X352512Y24899D01*
D02*
G37*
%LPD*%
G36*
X255092Y442646D02*
X255092Y428396D01*
X255092Y405816D01*
X263550Y397358D01*
X270383Y397358D01*
X272186Y395554D01*
X272186Y358648D01*
X249276D01*
Y372466D01*
X243561Y378181D01*
Y400355D01*
X237185Y406730D01*
Y421030D01*
Y441376D01*
X239065Y443255D01*
X254483D01*
X255092Y442646D01*
D02*
G37*
G36*
X404373Y390449D02*
X404392Y390369D01*
X404320Y390261D01*
X404044Y388874D01*
X404044Y388874D01*
Y369583D01*
X396107D01*
Y365813D01*
Y362043D01*
X404044D01*
Y358372D01*
X395984Y350312D01*
X390708D01*
X389321Y350036D01*
X388459Y349460D01*
X386228D01*
Y352416D01*
X383708D01*
Y354956D01*
X386228D01*
Y358456D01*
X384217D01*
X383538Y359726D01*
X383588Y359800D01*
X383864Y361188D01*
X383864Y361188D01*
Y366016D01*
X383914Y366268D01*
X383814Y366771D01*
Y374296D01*
X383814Y374296D01*
X383538Y375683D01*
X383218Y376162D01*
Y378682D01*
X378104D01*
X377119Y379045D01*
X377002Y379883D01*
Y381088D01*
X374232D01*
Y383629D01*
X377002D01*
Y384605D01*
X377002Y385629D01*
X377003Y385629D01*
X376962Y385858D01*
X376962D01*
Y387858D01*
X374192D01*
Y390398D01*
X376962D01*
Y391542D01*
X403649Y391542D01*
X404373Y390449D01*
D02*
G37*
G36*
X397510Y420624D02*
X404114Y414020D01*
X404114Y393192D01*
X372110Y393192D01*
X371094Y392176D01*
X371094Y358394D01*
X369824Y357124D01*
Y343408D01*
X367538D01*
Y378460D01*
X366268Y379730D01*
Y384810D01*
X364490Y386588D01*
X359918D01*
Y447802D01*
X397510D01*
Y420624D01*
D02*
G37*
G36*
X365252Y333756D02*
Y293624D01*
X360934Y289306D01*
X341884D01*
Y299212D01*
X343408Y300736D01*
X354584D01*
X361950Y308102D01*
Y333756D01*
X365252Y333756D01*
D02*
G37*
G36*
X370078Y317246D02*
X372110Y315214D01*
Y299720D01*
X374142D01*
X376682Y297180D01*
Y290322D01*
X392176Y290322D01*
X394462Y288036D01*
Y275844D01*
X378206D01*
X368300Y285750D01*
X367792Y333248D01*
X370078D01*
Y317246D01*
D02*
G37*
G36*
X373634Y277368D02*
Y275844D01*
X372872Y275082D01*
X341122D01*
X336550Y270510D01*
Y240284D01*
X331470Y235204D01*
X323850D01*
X318770Y240284D01*
Y281178D01*
X322580Y284988D01*
X366014D01*
X373634Y277368D01*
D02*
G37*
G36*
X402082Y260604D02*
Y246634D01*
X395986Y240538D01*
Y228092D01*
X404622Y219456D01*
Y212090D01*
X401574Y209042D01*
X377698D01*
X376809Y209931D01*
Y237871D01*
X368300Y246380D01*
X359664D01*
X355346Y250698D01*
Y259334D01*
X362458Y266446D01*
X396240D01*
X402082Y260604D01*
D02*
G37*
G36*
X362204Y206502D02*
X407924Y206502D01*
X413766Y200660D01*
X413766Y170180D01*
X411480Y167894D01*
X375412Y167894D01*
Y175006D01*
X372110Y178308D01*
X362966D01*
X360680Y176022D01*
X350774D01*
Y179070D01*
X360680D01*
X363220Y181610D01*
X372618D01*
X374142Y183134D01*
Y200914D01*
X371602Y203454D01*
X360934D01*
X358394Y205994D01*
X350774Y205994D01*
Y209042D01*
X359664D01*
X362204Y206502D01*
D02*
G37*
%LPC*%
G36*
X393567Y369583D02*
X385317D01*
Y367083D01*
X393567D01*
Y369583D01*
D02*
G37*
G36*
Y364543D02*
X385317D01*
Y362043D01*
X393567D01*
Y364543D01*
D02*
G37*
%LPD*%
G36*
X265753Y239293D02*
X267013Y238451D01*
X268500Y238155D01*
X270080D01*
X270978Y237257D01*
X270978Y236064D01*
X270978Y235746D01*
Y226334D01*
X270978Y226016D01*
Y225064D01*
X270978Y224746D01*
Y215334D01*
X270978Y215016D01*
Y214064D01*
X270048Y212925D01*
X268815D01*
X261187Y220553D01*
Y242200D01*
X262360Y242686D01*
X265753Y239293D01*
D02*
G37*
G36*
X268109Y131178D02*
X274130Y131178D01*
X274130Y127774D01*
X260198Y127774D01*
Y133045D01*
X266242D01*
X268109Y131178D01*
D02*
G37*
G36*
X307848Y136398D02*
Y128524D01*
X307035Y127711D01*
X286130Y127711D01*
X286130Y131115D01*
X292151Y131115D01*
X296672Y135636D01*
Y136652D01*
X307594D01*
X307848Y136398D01*
D02*
G37*
G36*
X294386Y152146D02*
Y136398D01*
X293370Y135382D01*
X287274D01*
Y132588D01*
X283743D01*
Y124206D01*
X280670D01*
Y126848D01*
X279502Y128016D01*
X276606Y128016D01*
Y131064D01*
X275844Y131826D01*
X275844Y135382D01*
Y135636D01*
X276606Y136652D01*
X279400D01*
Y152654D01*
X280670Y153924D01*
X292608Y153924D01*
X294386Y152146D01*
D02*
G37*
G36*
X274130Y119774D02*
X268109Y119774D01*
X266242Y117907D01*
X260198D01*
Y123178D01*
X274130Y123178D01*
X274130Y119774D01*
D02*
G37*
G36*
X307035Y123241D02*
X307848Y122428D01*
X307848Y113360D01*
X307035Y112547D01*
X296672D01*
Y115316D01*
X292151Y119837D01*
X286130Y119837D01*
X286130Y123241D01*
X307035Y123241D01*
D02*
G37*
G36*
X279324Y122860D02*
X282854Y122860D01*
X283947Y121768D01*
X283947Y112217D01*
X287274Y108890D01*
Y106680D01*
X303276D01*
X308864Y101092D01*
Y86614D01*
X305308Y83058D01*
X282448D01*
X276606Y88900D01*
Y105029D01*
X276885Y105308D01*
X276479Y105715D01*
Y118313D01*
X277012Y118847D01*
Y126086D01*
X279324D01*
X279324Y122860D01*
D02*
G37*
%LPC*%
G36*
X155304Y96602D02*
X152654D01*
Y93852D01*
X155304D01*
Y96602D01*
D02*
G37*
G36*
X150114D02*
X147464D01*
Y93852D01*
X150114D01*
Y96602D01*
D02*
G37*
%LPD*%
D13*
X94968Y425400D02*
X94974Y425406D01*
D16*
X351708Y324104D02*
Y331686D01*
X43020Y229046D02*
X55758D01*
X57012Y241300D02*
X57752Y242040D01*
X50038Y241300D02*
X57012D01*
X42526Y239014D02*
X47752D01*
X50038Y241300D01*
X307594Y325882D02*
X308610D01*
X292752Y311040D02*
X307594Y325882D01*
X335213Y367792D02*
X340150D01*
X332994Y370011D02*
X335213Y367792D01*
X332994Y370011D02*
Y374650D01*
X137002Y351886D02*
Y364290D01*
X34036Y220600D02*
X34069Y220633D01*
X42987D01*
X43020Y220666D01*
X34091Y229035D02*
Y238959D01*
X57126Y220666D02*
X57752Y220040D01*
X43020Y220666D02*
X57126D01*
X69002Y151724D02*
X116612D01*
X68834Y151892D02*
X69002Y151724D01*
X199738Y75518D02*
X208200D01*
X208280Y75438D01*
X48768Y101600D02*
X55118D01*
X36066Y89026D02*
X36448Y89408D01*
X151384Y84202D02*
X158878D01*
X120222Y74248D02*
X126228D01*
X35558Y89534D02*
X36066Y89026D01*
X168148Y302006D02*
X171450Y298704D01*
X168148Y302006D02*
Y323686D01*
X176502Y332040D01*
X105410Y381718D02*
X105454Y381762D01*
X105410Y376936D02*
Y381718D01*
X96868Y383328D02*
X104388D01*
X277114Y276902D02*
X278252Y278040D01*
X277114Y270002D02*
Y276902D01*
X262890Y247650D02*
X268500Y242040D01*
X262890Y247650D02*
Y280924D01*
X257302Y218944D02*
Y281432D01*
Y218944D02*
X267206Y209040D01*
X278252D01*
Y311040D02*
X292752D01*
X278252Y300040D02*
X297724D01*
X303608Y305925D01*
X304298D01*
X268500Y242040D02*
X278252D01*
X161798Y110872D02*
X167640D01*
X205386Y132462D02*
X217042D01*
X217170Y132334D01*
X216280Y111124D02*
X218948Y113792D01*
Y119126D01*
X205486Y111124D02*
X216280D01*
X258572Y467719D02*
X258672Y467819D01*
X266498D01*
X266598Y467919D01*
X258599Y454221D02*
X258627Y454193D01*
X258599Y454221D02*
Y467691D01*
X258572Y467719D02*
X258599Y467691D01*
X358708Y353686D02*
Y358588D01*
X354932Y362364D02*
X358708Y358588D01*
X354932Y362364D02*
Y367890D01*
X347058Y368090D02*
X347158Y367990D01*
X354832D01*
X354932Y367890D01*
X363708Y350186D02*
Y367688D01*
X363306Y368090D02*
X363708Y367688D01*
X362806Y368090D02*
X363306D01*
X339046Y350266D02*
X345918D01*
X349498Y346686D01*
X351708D01*
X339274Y342069D02*
Y342569D01*
Y342069D02*
X339504Y341839D01*
X340004D01*
X340157Y341686D01*
X351708D01*
X339046Y334603D02*
Y335103D01*
X339276Y335333D01*
X343065D01*
X344398Y336666D01*
X351688D01*
X351708Y336686D01*
X333646Y326036D02*
X333746Y326136D01*
X333646Y318108D02*
Y326036D01*
X333546Y318008D02*
X333646Y318108D01*
X339046Y334603D02*
X339146Y334503D01*
Y326236D02*
Y334503D01*
Y326236D02*
X339246Y326136D01*
X339046Y318008D02*
X347980D01*
X279654Y31449D02*
X282749Y34544D01*
X279654Y22605D02*
Y31449D01*
Y22605D02*
X282575Y19684D01*
X302608Y19778D02*
Y34544D01*
X302514Y19684D02*
X302608Y19778D01*
X302514Y5080D02*
Y11304D01*
X282575Y4699D02*
Y11304D01*
X262636Y4826D02*
Y11304D01*
Y19684D02*
Y34290D01*
X262890Y34544D01*
D25*
X20320Y81154D02*
D03*
Y89534D02*
D03*
X293370Y323470D02*
D03*
Y331850D02*
D03*
X284734Y439472D02*
D03*
Y447852D02*
D03*
X242545Y439065D02*
D03*
Y447445D02*
D03*
X313436Y482726D02*
D03*
Y474346D02*
D03*
X151384Y84202D02*
D03*
Y92582D02*
D03*
X113792Y89026D02*
D03*
Y80646D02*
D03*
D26*
X159002Y180790D02*
D03*
X170002D02*
D03*
X198002Y364290D02*
D03*
X159002Y364290D02*
D03*
X148002D02*
D03*
X137002D02*
D03*
X126002D02*
D03*
X115002D02*
D03*
X104002D02*
D03*
X82002D02*
D03*
X93002D02*
D03*
X71002D02*
D03*
X187002Y364290D02*
D03*
X209002D02*
D03*
X220002D02*
D03*
X231002D02*
D03*
X242002D02*
D03*
X253002D02*
D03*
X264002D02*
D03*
Y180790D02*
D03*
X253002D02*
D03*
X242002D02*
D03*
X231002D02*
D03*
X220002D02*
D03*
X209002D02*
D03*
X198002D02*
D03*
X187002D02*
D03*
X71002Y180790D02*
D03*
X93002D02*
D03*
X82002D02*
D03*
X104002D02*
D03*
X115002D02*
D03*
X126002D02*
D03*
X137002D02*
D03*
X148002D02*
D03*
X170002Y364290D02*
D03*
D27*
X8610Y276353D02*
D03*
X37110D02*
D03*
D28*
X22860Y260603D02*
D03*
D29*
X377952Y477184D02*
D03*
Y435184D02*
D03*
D30*
X394837Y365813D02*
D03*
X394783Y400759D02*
D03*
D31*
X368692Y389128D02*
D03*
X374192D02*
D03*
X368732Y382359D02*
D03*
X374232D02*
D03*
X374694Y375158D02*
D03*
X380194D02*
D03*
X380194Y365252D02*
D03*
X374694D02*
D03*
X345650Y367792D02*
D03*
X340150D02*
D03*
X361238Y389636D02*
D03*
X355738D02*
D03*
X333546Y350266D02*
D03*
X339046D02*
D03*
X339300Y342138D02*
D03*
X333800D02*
D03*
X333546Y334603D02*
D03*
X339046D02*
D03*
X339246Y326136D02*
D03*
X333746D02*
D03*
X333546Y318008D02*
D03*
X339046D02*
D03*
X407554Y338582D02*
D03*
X413054D02*
D03*
X407554Y330708D02*
D03*
X413054D02*
D03*
X377234Y295656D02*
D03*
X382734D02*
D03*
X358278Y311658D02*
D03*
X363778D02*
D03*
X369708D02*
D03*
X375208D02*
D03*
X369708Y304546D02*
D03*
X375208D02*
D03*
X276308Y378742D02*
D03*
X270808D02*
D03*
X105454Y389890D02*
D03*
X110954D02*
D03*
X105454Y381762D02*
D03*
X110954D02*
D03*
X147618Y165862D02*
D03*
X153118D02*
D03*
X48768Y101600D02*
D03*
X43268D02*
D03*
X37829Y108200D02*
D03*
X43328D02*
D03*
X262218Y130150D02*
D03*
X256718D02*
D03*
X270852Y385854D02*
D03*
X276352D02*
D03*
X270852Y392712D02*
D03*
X276352D02*
D03*
D32*
X362806Y373336D02*
D03*
Y367836D02*
D03*
X355346Y399840D02*
D03*
Y405340D02*
D03*
X355266Y373336D02*
D03*
Y367836D02*
D03*
X355760Y277114D02*
D03*
Y271614D02*
D03*
X362618Y277114D02*
D03*
Y271614D02*
D03*
X369222Y277114D02*
D03*
Y271614D02*
D03*
X266598Y473419D02*
D03*
Y467919D02*
D03*
X258572Y467719D02*
D03*
Y473219D02*
D03*
X250546Y473419D02*
D03*
Y467919D02*
D03*
X6350Y322304D02*
D03*
Y327804D02*
D03*
X14478D02*
D03*
Y322304D02*
D03*
X167386Y127298D02*
D03*
Y132798D02*
D03*
X43180Y153372D02*
D03*
Y147872D02*
D03*
X42934Y141942D02*
D03*
Y136442D02*
D03*
Y129750D02*
D03*
Y124250D02*
D03*
X22606Y327804D02*
D03*
Y322304D02*
D03*
D33*
X358708Y324686D02*
D03*
X383708D02*
D03*
Y353686D02*
D03*
X358708D02*
D03*
D34*
X363708Y328186D02*
D03*
X368708D02*
D03*
X373708D02*
D03*
X378708D02*
D03*
Y350186D02*
D03*
X373708D02*
D03*
X368708D02*
D03*
X363708D02*
D03*
D35*
X390708Y331686D02*
D03*
Y336686D02*
D03*
Y341686D02*
D03*
Y346686D02*
D03*
X351708D02*
D03*
Y341686D02*
D03*
Y336686D02*
D03*
Y331686D02*
D03*
D36*
X328422Y299974D02*
D03*
Y266954D02*
D03*
D37*
X422148Y256540D02*
D03*
X389128D02*
D03*
D38*
X346202Y279766D02*
D03*
Y293766D02*
D03*
D39*
X367370Y161532D02*
D03*
Y223532D02*
D03*
D40*
Y170032D02*
D03*
Y175032D02*
D03*
Y180032D02*
D03*
Y185032D02*
D03*
Y190032D02*
D03*
Y195032D02*
D03*
Y200032D02*
D03*
Y205032D02*
D03*
Y210032D02*
D03*
Y215032D02*
D03*
X354370Y222532D02*
D03*
Y217532D02*
D03*
Y212532D02*
D03*
Y207532D02*
D03*
Y202532D02*
D03*
Y197532D02*
D03*
Y187532D02*
D03*
Y182532D02*
D03*
Y177532D02*
D03*
Y172532D02*
D03*
Y167532D02*
D03*
Y162532D02*
D03*
D41*
X282999Y416003D02*
D03*
X262999D02*
D03*
D42*
X273627Y437693D02*
D03*
X268627D02*
D03*
X258627D02*
D03*
X253627D02*
D03*
D43*
X263627Y439693D02*
D03*
D44*
X253627Y454193D02*
D03*
X258627D02*
D03*
X263627D02*
D03*
X268627D02*
D03*
X273627D02*
D03*
D45*
X262528Y386654D02*
D03*
X234028D02*
D03*
D46*
X207232Y485460D02*
D03*
X215612D02*
D03*
X189198D02*
D03*
X197578D02*
D03*
X96486Y434914D02*
D03*
X88106D02*
D03*
X96486Y406720D02*
D03*
X88106D02*
D03*
X42526Y239014D02*
D03*
X34146D02*
D03*
D47*
X132174Y474158D02*
D03*
Y482538D02*
D03*
Y456124D02*
D03*
Y464504D02*
D03*
X96614Y416500D02*
D03*
Y424880D02*
D03*
X43020Y229046D02*
D03*
Y220666D02*
D03*
X34036Y220600D02*
D03*
Y228980D02*
D03*
D48*
X96868Y377828D02*
D03*
Y383328D02*
D03*
Y388328D02*
D03*
Y393328D02*
D03*
Y398828D02*
D03*
X71868D02*
D03*
Y393328D02*
D03*
Y388328D02*
D03*
Y383328D02*
D03*
Y377828D02*
D03*
D49*
X84368Y388328D02*
D03*
D50*
X57658Y394842D02*
D03*
Y386462D02*
D03*
X167640Y110872D02*
D03*
Y119252D02*
D03*
X205486Y102744D02*
D03*
Y111124D02*
D03*
X302514Y11304D02*
D03*
Y19684D02*
D03*
X282575Y11304D02*
D03*
Y19684D02*
D03*
X262636Y11304D02*
D03*
Y19684D02*
D03*
X205386Y132462D02*
D03*
Y140842D02*
D03*
D51*
X278252Y278040D02*
D03*
Y289040D02*
D03*
Y300040D02*
D03*
Y311040D02*
D03*
Y322040D02*
D03*
Y333040D02*
D03*
Y344040D02*
D03*
Y253040D02*
D03*
Y242040D02*
D03*
Y231040D02*
D03*
Y220040D02*
D03*
Y209040D02*
D03*
Y198040D02*
D03*
X57752D02*
D03*
Y209040D02*
D03*
Y231040D02*
D03*
Y242040D02*
D03*
Y253040D02*
D03*
Y344040D02*
D03*
Y333040D02*
D03*
Y322040D02*
D03*
Y311040D02*
D03*
Y300040D02*
D03*
Y289040D02*
D03*
Y278040D02*
D03*
D52*
X91502Y298040D02*
D03*
Y247040D02*
D03*
Y264040D02*
D03*
Y281040D02*
D03*
X108502D02*
D03*
Y264040D02*
D03*
Y247040D02*
D03*
Y298040D02*
D03*
X244502Y247040D02*
D03*
Y264040D02*
D03*
Y281040D02*
D03*
Y298040D02*
D03*
X227502D02*
D03*
Y247040D02*
D03*
Y264040D02*
D03*
Y281040D02*
D03*
X210502Y332040D02*
D03*
X193502D02*
D03*
X176502D02*
D03*
X159502D02*
D03*
X142502D02*
D03*
X125502D02*
D03*
Y315040D02*
D03*
X142502D02*
D03*
X159502D02*
D03*
X210502D02*
D03*
X193502D02*
D03*
X142502Y213040D02*
D03*
X125502D02*
D03*
X159502Y213040D02*
D03*
X176502D02*
D03*
X193502D02*
D03*
X210502D02*
D03*
Y230040D02*
D03*
X193502D02*
D03*
X125502D02*
D03*
X142502D02*
D03*
X159502D02*
D03*
X176502D02*
D03*
Y315040D02*
D03*
D53*
X57752Y220040D02*
D03*
D54*
X37846Y319024D02*
D03*
Y347524D02*
D03*
D55*
X151612Y118024D02*
D03*
X116612Y151724D02*
D03*
Y118024D02*
D03*
X121612D02*
D03*
X126612D02*
D03*
X131612D02*
D03*
X136612D02*
D03*
X141612D02*
D03*
X146612D02*
D03*
X151612Y151724D02*
D03*
X146612D02*
D03*
X141612D02*
D03*
X136612D02*
D03*
X131612D02*
D03*
X126612D02*
D03*
X121612D02*
D03*
D56*
X155962Y127374D02*
D03*
X112262Y142374D02*
D03*
Y127374D02*
D03*
X155962Y142374D02*
D03*
D57*
X36066Y73026D02*
D03*
Y89026D02*
D03*
X301750Y132650D02*
D03*
Y116650D02*
D03*
X302608Y34544D02*
D03*
Y50544D02*
D03*
X282749Y34544D02*
D03*
Y50544D02*
D03*
X262890Y34544D02*
D03*
Y50544D02*
D03*
D58*
X189738Y80518D02*
D03*
D59*
X179738Y75518D02*
D03*
Y85518D02*
D03*
X199738D02*
D03*
Y75518D02*
D03*
D60*
X316484Y432308D02*
D03*
D61*
X326234Y413308D02*
D03*
X319734D02*
D03*
X313234D02*
D03*
X306734D02*
D03*
Y451308D02*
D03*
X313234D02*
D03*
X319734D02*
D03*
X326234D02*
D03*
D62*
X254000Y155574D02*
D03*
X232156D02*
D03*
D63*
X250000Y147574D02*
D03*
X258000D02*
D03*
X228156D02*
D03*
X236156D02*
D03*
D64*
X283082Y140462D02*
D03*
X274702D02*
D03*
X280288Y109918D02*
D03*
X271908D02*
D03*
D65*
X274130Y121476D02*
D03*
Y125476D02*
D03*
Y129476D02*
D03*
X278130Y121476D02*
D03*
Y125476D02*
D03*
Y129476D02*
D03*
X282130Y121476D02*
D03*
Y125476D02*
D03*
Y129476D02*
D03*
X286130Y121476D02*
D03*
Y125476D02*
D03*
Y129476D02*
D03*
D66*
X136353Y74248D02*
D03*
X131353D02*
D03*
X131353Y89248D02*
D03*
X136353D02*
D03*
D67*
X126228Y74248D02*
D03*
Y79248D02*
D03*
Y84248D02*
D03*
Y89248D02*
D03*
X141478Y74248D02*
D03*
Y89248D02*
D03*
Y84248D02*
D03*
Y79248D02*
D03*
D120*
X22860Y260603D02*
G03*
X30145Y243015I24874J0D01*
G01*
X215612Y485460D02*
X222946D01*
X30145Y243015D02*
X34146Y239014D01*
D121*
X123286Y434860D02*
G03*
X132286Y443860I0J9000D01*
G01*
X197578Y485460D02*
X207232D01*
X132174Y464504D02*
Y474158D01*
X133544Y485460D02*
X189804D01*
X105504D02*
X133544D01*
X96486Y425100D02*
Y434660D01*
X96786Y434860D02*
X123286D01*
X132286Y443860D02*
Y456600D01*
D122*
X134112Y134874D02*
D03*
D123*
X55758Y229046D02*
X57752Y231040D01*
X222946Y485460D02*
X223266Y485140D01*
X96868Y393328D02*
X97479Y393939D01*
X84368Y388328D02*
X89368Y393328D01*
X96868D01*
X59172D02*
X71868D01*
X57658Y394842D02*
X59172Y393328D01*
X57658Y386462D02*
Y386562D01*
X59419Y388323D01*
X59519D01*
X59524Y388328D01*
X71868D01*
X71002Y377217D02*
X71613Y377828D01*
X71868D01*
X286130Y125476D02*
X310896D01*
D124*
X112014Y398526D02*
X122428D01*
X105454Y391966D02*
X112014Y398526D01*
X105454Y389890D02*
Y391966D01*
X96701Y398828D02*
X96868D01*
X96677Y398852D02*
X96701Y398828D01*
X96677Y398852D02*
Y406529D01*
X96486Y406720D02*
X96677Y406529D01*
X96486Y406720D02*
X96550Y406784D01*
Y416436D01*
X96614Y416500D01*
X250698Y473571D02*
Y480060D01*
X250546Y473419D02*
X250698Y473571D01*
X113792Y89026D02*
X115824D01*
X109348D02*
X113792D01*
X115824Y89248D02*
X126228D01*
X104140Y94234D02*
X109348Y89026D01*
X104140Y94234D02*
Y98044D01*
X105144Y389890D02*
X105454D01*
X103582Y388328D02*
X105144Y389890D01*
X96868Y388328D02*
X103582D01*
X274447Y426923D02*
X279883D01*
X268627Y432744D02*
X274447Y426923D01*
X268627Y432744D02*
Y437693D01*
X262999Y416003D02*
Y422699D01*
X258627Y427072D02*
X262999Y422699D01*
X258627Y427072D02*
Y437693D01*
X281915Y417087D02*
X282999Y416003D01*
X281915Y417087D02*
Y424891D01*
X279883Y426923D02*
X281915Y424891D01*
D125*
X71002Y364290D02*
Y377217D01*
D126*
X260210Y125476D02*
X274130D01*
X260198Y125488D02*
X260210Y125476D01*
X374682Y361220D02*
Y365264D01*
X258572Y473219D02*
Y480060D01*
X258572Y480060D02*
X258572Y480060D01*
X273627Y454193D02*
Y460063D01*
X276352Y462788D01*
X123444Y346456D02*
X230886D01*
X115002Y354898D02*
X123444Y346456D01*
X228854Y340360D02*
X231140Y338074D01*
X117094Y340360D02*
X228854D01*
X104002Y353452D02*
X117094Y340360D01*
X81534Y236982D02*
X115316D01*
X74168Y229616D02*
X81534Y236982D01*
X115316D02*
X149225Y270891D01*
X184023D01*
X225044Y311912D01*
X245618D02*
X251968Y318262D01*
X225044Y311912D02*
X245618D01*
X251968Y318262D02*
Y337820D01*
X266192Y352044D01*
X278638D01*
X316230Y389636D02*
X355738D01*
X278638Y352044D02*
X316230Y389636D01*
X34036Y228980D02*
X34091Y229035D01*
Y238959D02*
X34146Y239014D01*
X355760Y271614D02*
X362618D01*
X369222D01*
X394970Y299720D02*
X400050D01*
X383708Y310982D02*
X394970Y299720D01*
X383708Y310982D02*
Y324686D01*
X141478Y74248D02*
X148256D01*
X148336Y74168D01*
X126228Y79248D02*
X126355Y79121D01*
X131191D01*
X131318Y78994D01*
X126228Y84248D02*
X126315Y84161D01*
X131231D01*
X131318Y84074D01*
Y160782D02*
X131612Y160488D01*
X159004Y165862D02*
X162306Y169164D01*
X153118Y165862D02*
X159004D01*
X131612Y151724D02*
Y160488D01*
X147618Y180406D02*
X148002Y180790D01*
X147618Y165862D02*
Y180406D01*
X42934Y124250D02*
X55328D01*
X55372Y124206D01*
X205195Y141033D02*
X205386Y140842D01*
X170879Y141033D02*
X205195D01*
X170688Y141224D02*
X170879Y141033D01*
X156210Y68834D02*
X160528Y73152D01*
X137922Y68834D02*
X156210D01*
X136353Y70403D02*
X137922Y68834D01*
X136353Y70403D02*
Y74248D01*
X196214Y102744D02*
X205486D01*
X187452Y111506D02*
X196214Y102744D01*
X176276Y111506D02*
X187452D01*
X199738Y85518D02*
X199898Y85678D01*
Y91186D01*
X197104Y93980D02*
X199898Y91186D01*
X184912Y93980D02*
X197104D01*
X176276Y102616D02*
X184912Y93980D01*
X176276Y102616D02*
Y111506D01*
X171116Y85518D02*
X179738D01*
X164764Y79166D02*
X171116Y85518D01*
X141478Y79248D02*
X141560Y79166D01*
X164764D01*
X136612Y99629D02*
Y118024D01*
Y99629D02*
X137160Y99081D01*
Y98806D02*
Y99081D01*
X126002Y364290D02*
Y376192D01*
X131572Y381762D01*
X278252Y322040D02*
X279682Y323470D01*
X8172Y101556D02*
X43434D01*
X6858Y102870D02*
X8172Y101556D01*
X43328Y108200D02*
X43381Y108147D01*
Y101609D02*
Y108147D01*
Y101609D02*
X43434Y101556D01*
X155962Y127374D02*
X156000Y127336D01*
X167348D01*
X167386Y127298D01*
X167513Y119379D02*
X167640Y119252D01*
X167513Y119379D02*
Y127171D01*
X167386Y127298D02*
X167513Y127171D01*
X159502Y289316D02*
Y315040D01*
X319734Y401626D02*
Y413308D01*
X326234Y401984D02*
Y413308D01*
X121612Y109782D02*
X121666Y109728D01*
X121612Y109782D02*
Y118024D01*
X104002Y353452D02*
Y364290D01*
X115002Y354898D02*
Y364290D01*
X230944Y320860D02*
X237744Y327660D01*
X231002Y354468D02*
Y364290D01*
X237744Y327660D02*
Y347726D01*
X231002Y354468D02*
X237744Y347726D01*
X242002Y320996D02*
Y364290D01*
X230886Y320802D02*
X230944Y320860D01*
X145148Y107442D02*
X152654D01*
X141612Y110978D02*
X145148Y107442D01*
X141612Y110978D02*
Y118024D01*
X159502Y289316D02*
X159512Y289306D01*
X272288Y90170D02*
Y90678D01*
X249936Y113030D02*
X272288Y90678D01*
X249968Y139224D02*
Y147608D01*
X249936Y113030D02*
Y139192D01*
X268050Y198040D02*
X278252D01*
X267970Y198120D02*
X268050Y198040D01*
X131612Y102910D02*
Y118024D01*
X129794Y101092D02*
X131612Y102910D01*
X112014Y101092D02*
X129794D01*
X74168Y121666D02*
X91440D01*
X112014Y101092D01*
X60198Y135636D02*
X74168Y121666D01*
X60198Y135636D02*
Y153162D01*
X54356Y159004D02*
X60198Y153162D01*
X54356Y159004D02*
Y176022D01*
X67818Y142374D02*
X112262D01*
X49716Y155516D02*
X53848Y151384D01*
X49716Y155516D02*
Y194632D01*
X59124Y180790D02*
X71002D01*
X54356Y176022D02*
X59124Y180790D01*
X263652Y181140D02*
X264002Y180790D01*
X263652Y181140D02*
Y192024D01*
X126612Y106038D02*
Y118024D01*
X100584Y121920D02*
Y124460D01*
X103498Y127374D02*
X112262D01*
X100584Y124460D02*
X103498Y127374D01*
X142802Y160020D02*
X163322D01*
X167132Y163830D01*
X141612Y151724D02*
Y158830D01*
X142802Y160020D01*
X136612Y151724D02*
Y165314D01*
X136652Y165354D01*
X126612Y151724D02*
Y167506D01*
X126746Y167640D01*
X42450Y136926D02*
X42934Y136442D01*
X39604Y136926D02*
X42450D01*
X36322Y140208D02*
X39604Y136926D01*
X42934Y129750D02*
Y136442D01*
X37382Y153372D02*
X43180D01*
X37338Y153416D02*
X37382Y153372D01*
X40132Y204216D02*
X49716Y194632D01*
X121612Y151724D02*
Y158770D01*
X116044Y164338D02*
X121612Y158770D01*
X58928Y164338D02*
X116044D01*
X299008Y451308D02*
X306734D01*
X298958Y451358D02*
X299008Y451308D01*
X355092Y373510D02*
X355266Y373336D01*
X355092Y373510D02*
Y378714D01*
X304298Y240290D02*
Y245291D01*
X295048Y231040D02*
X304298Y240290D01*
X278252Y231040D02*
X295048D01*
X278252Y220040D02*
X297957D01*
X302997Y225080D01*
X304298D01*
X193502Y213040D02*
X210502D01*
X263627Y454193D02*
X268627D01*
X253534Y454286D02*
X253627Y454193D01*
X253534Y454286D02*
Y460241D01*
X250546Y463230D02*
X253534Y460241D01*
X250546Y463230D02*
Y467919D01*
X319734Y451308D02*
X326234D01*
X394837Y365813D02*
X397550D01*
X399034Y367297D01*
Y372110D01*
X389636Y367297D02*
Y372110D01*
X391120Y365813D02*
X394837D01*
X389636Y367297D02*
X391120Y365813D01*
X394837Y358261D02*
Y365813D01*
X390262Y353686D02*
X394837Y358261D01*
X383708Y353686D02*
X390262D01*
X355266Y373336D02*
X362806D01*
X374682Y365264D02*
X374694Y365252D01*
X374650Y365296D02*
X374682Y365264D01*
X374650Y365296D02*
Y369062D01*
X372110Y337820D02*
X373708Y336222D01*
Y328186D02*
Y336222D01*
X365132Y337820D02*
X372110D01*
X363942Y328420D02*
Y336630D01*
X365132Y337820D01*
X363708Y328186D02*
X363942Y328420D01*
X375208Y304546D02*
Y311658D01*
Y316788D01*
X378474Y327952D02*
X378708Y328186D01*
X378474Y320054D02*
Y327952D01*
X375208Y316788D02*
X378474Y320054D01*
X358493Y324471D02*
X358708Y324686D01*
X358493Y311873D02*
Y324471D01*
X358278Y311658D02*
X358493Y311873D01*
X413054Y338582D02*
X421894D01*
X421894Y338582D01*
X413054Y330708D02*
Y338582D01*
X407670Y388874D02*
X417068Y398272D01*
X407670Y356870D02*
Y388874D01*
X397486Y346686D02*
X407670Y356870D01*
X390708Y346686D02*
X397486D01*
X417068Y360934D02*
Y374396D01*
X397820Y341686D02*
X417068Y360934D01*
X390708Y341686D02*
X397820D01*
X407554Y330684D02*
Y330708D01*
X407070Y330200D02*
X407554Y330684D01*
X402082Y330200D02*
X407070D01*
X390708Y331686D02*
X400596D01*
X402082Y330200D01*
X403606Y338582D02*
X407554D01*
X401710Y336686D02*
X403606Y338582D01*
X390708Y336686D02*
X401710D01*
X355542Y389832D02*
X355738Y389636D01*
X355542Y389832D02*
Y399644D01*
X355346Y399840D02*
X355542Y399644D01*
X374390Y382359D02*
Y388930D01*
Y374594D02*
Y382359D01*
X380073D01*
X374232D02*
X374390D01*
X380073D02*
X380238Y382524D01*
X374192Y389128D02*
X374390Y388930D01*
Y374594D02*
X374588Y374396D01*
X373708Y360246D02*
X374682Y361220D01*
X373708Y350186D02*
Y360246D01*
X380088Y374396D02*
X380188Y374296D01*
Y366368D02*
Y374296D01*
Y366368D02*
X380288Y366268D01*
X380238Y366218D02*
X380288Y366268D01*
X380238Y361188D02*
Y366218D01*
X378708Y350186D02*
Y359658D01*
X380238Y361188D01*
X333546Y342138D02*
Y350266D01*
Y334603D02*
Y342138D01*
X333800D01*
X327660D02*
X333546D01*
X209550Y157226D02*
Y166624D01*
X219202Y147574D02*
X228156D01*
X209550Y157226D02*
X219202Y147574D01*
X232156Y155574D02*
Y179636D01*
X231002Y180790D02*
X232156Y179636D01*
X254000Y155640D02*
Y179792D01*
X253002Y180790D02*
X254000Y179792D01*
X249968Y147608D02*
X250000Y147640D01*
X249936Y139192D02*
X249968Y139224D01*
X281989Y49784D02*
X282749Y50544D01*
X274574Y49784D02*
X281989D01*
X301858Y50544D02*
X302608D01*
X297057Y55346D02*
X301858Y50544D01*
X294494Y55346D02*
X297057D01*
X294300Y55540D02*
X294494Y55346D01*
X262890Y43434D02*
Y50544D01*
D127*
X284734Y439472D02*
X291794D01*
X291846Y439420D01*
X274574Y439472D02*
X284734D01*
X35304Y89280D02*
X35558Y89534D01*
X36448Y89408D02*
X45720D01*
X141478Y84248D02*
X151338D01*
X151384Y84202D01*
X20320Y89534D02*
X20574Y89280D01*
X35304D01*
X19673Y90181D02*
X20320Y89534D01*
X6339Y90181D02*
X19673D01*
X6096Y90424D02*
X6339Y90181D01*
X109420Y118024D02*
X115824D01*
X107188Y114046D02*
Y115792D01*
X109420Y118024D01*
X266446Y313182D02*
Y319786D01*
X268700Y322040D02*
X278252D01*
X266446Y319786D02*
X268700Y322040D01*
X279682Y323470D02*
X293370D01*
D128*
X165859Y186664D02*
X166705Y185818D01*
X167224D02*
X170002Y183040D01*
X165859Y188714D02*
X165859Y188715D01*
X170002Y180790D02*
Y183040D01*
X159002D02*
X161780Y185818D01*
X159002Y180790D02*
Y183040D01*
X165859Y192820D02*
X166661Y193622D01*
Y194056D01*
X162299Y185818D02*
X163145Y186664D01*
X166705Y185818D02*
X167224D01*
X165859Y186664D02*
Y188714D01*
X163145Y186664D02*
Y189839D01*
X165859Y188715D02*
Y192820D01*
X162343Y193622D02*
X163145Y192820D01*
X163145Y189839D02*
X163145Y189839D01*
X162343Y193622D02*
Y194056D01*
X163145Y189839D02*
Y192820D01*
X161780Y185818D02*
X162299D01*
D129*
X106074Y485455D02*
D03*
D130*
X323088Y130302D02*
D03*
X14224Y458978D02*
D03*
D131*
X417068Y398272D02*
D03*
Y374396D02*
D03*
X329184Y101600D02*
D03*
X346202Y478790D02*
D03*
X308610Y325882D02*
D03*
X304298Y305925D02*
D03*
X327660Y244856D02*
D03*
X365506Y256032D02*
D03*
X304298Y184658D02*
D03*
Y204869D02*
D03*
Y225080D02*
D03*
Y245291D02*
D03*
X328168Y146050D02*
D03*
X304298Y285714D02*
D03*
X151130Y390210D02*
D03*
X203899Y411038D02*
D03*
X181483D02*
D03*
X159067D02*
D03*
X136652D02*
D03*
X304298Y265176D02*
D03*
X11684Y373700D02*
D03*
X217678Y389956D02*
D03*
X226314Y411038D02*
D03*
X194818Y390210D02*
D03*
X172974D02*
D03*
D132*
X417322Y475742D02*
D03*
D133*
Y450342D02*
D03*
D134*
X412070Y235732D02*
D03*
Y149332D02*
D03*
D135*
X358470Y235732D02*
D03*
Y149332D02*
D03*
D136*
X410062Y40390D02*
D03*
X339962D02*
D03*
D137*
X397512Y15490D02*
D03*
X352512D02*
D03*
D138*
X81026Y158496D02*
D03*
X87884D02*
D03*
X88138Y132080D02*
D03*
X81280D02*
D03*
X131064Y137160D02*
D03*
X136144D02*
D03*
X131064Y132080D02*
D03*
X136144D02*
D03*
X413860Y439420D02*
D03*
X422750Y421640D02*
D03*
Y386080D02*
D03*
Y350520D02*
D03*
Y314960D02*
D03*
X413860Y297180D02*
D03*
X422750Y279400D02*
D03*
Y208280D02*
D03*
Y172720D02*
D03*
X404970Y457200D02*
D03*
Y421640D02*
D03*
Y314960D02*
D03*
Y279400D02*
D03*
X387190Y386080D02*
D03*
X342740Y403860D02*
D03*
Y119380D02*
D03*
X333850Y421640D02*
D03*
X324960Y154940D02*
D03*
X333850Y137160D02*
D03*
X324960Y119380D02*
D03*
X307180Y474980D02*
D03*
Y297180D02*
D03*
X289400Y474980D02*
D03*
X298290Y457200D02*
D03*
X289400Y261620D02*
D03*
X280510Y457200D02*
D03*
X271620Y261620D02*
D03*
X236060Y474980D02*
D03*
X244950Y457200D02*
D03*
X236060Y261620D02*
D03*
X244950Y208280D02*
D03*
X218280Y439420D02*
D03*
X227170Y421640D02*
D03*
X218280Y403860D02*
D03*
X209390Y421640D02*
D03*
Y386080D02*
D03*
X200500Y297180D02*
D03*
X209390Y279400D02*
D03*
X200500Y261620D02*
D03*
X209390Y243840D02*
D03*
X191610Y421640D02*
D03*
X164940Y439420D02*
D03*
X173830Y421640D02*
D03*
X164940Y297180D02*
D03*
X173830Y279400D02*
D03*
Y243840D02*
D03*
X147160Y439420D02*
D03*
X138270Y421640D02*
D03*
X129380Y403860D02*
D03*
X120490Y421640D02*
D03*
X76040Y474980D02*
D03*
X84930Y457200D02*
D03*
X76040Y439420D02*
D03*
Y403860D02*
D03*
X58260Y474980D02*
D03*
X67150Y457200D02*
D03*
X58260Y439420D02*
D03*
X67150Y421640D02*
D03*
X58260Y403860D02*
D03*
Y368300D02*
D03*
X67150Y208280D02*
D03*
X40480Y474980D02*
D03*
X49370Y457200D02*
D03*
X40480Y439420D02*
D03*
X49370Y421640D02*
D03*
X40480Y403860D02*
D03*
X49370Y386080D02*
D03*
X40480Y368300D02*
D03*
X22700Y474980D02*
D03*
X31590Y457200D02*
D03*
X22700Y439420D02*
D03*
X31590Y421640D02*
D03*
X22700Y403860D02*
D03*
X31590Y386080D02*
D03*
X22700Y368300D02*
D03*
X4920Y474980D02*
D03*
Y439420D02*
D03*
X13810Y421640D02*
D03*
X4920Y403860D02*
D03*
X13810Y386080D02*
D03*
X4920Y368300D02*
D03*
Y261620D02*
D03*
Y226060D02*
D03*
X366776Y40132D02*
D03*
X374142D02*
D03*
X381508D02*
D03*
X71788Y456612D02*
D03*
X81788Y461612D02*
D03*
X71788Y446612D02*
D03*
X81788Y441612D02*
D03*
X338836Y145288D02*
D03*
Y150622D02*
D03*
X333502Y156210D02*
D03*
X338836D02*
D03*
X344170D02*
D03*
X333502Y161798D02*
D03*
X338836D02*
D03*
X377444Y148336D02*
D03*
X382778D02*
D03*
X388112D02*
D03*
X377444Y155702D02*
D03*
X382778D02*
D03*
X388112D02*
D03*
X17526Y285242D02*
D03*
X22860D02*
D03*
X28194D02*
D03*
X36068Y293116D02*
D03*
X41402D02*
D03*
X46736D02*
D03*
X20574D02*
D03*
X25908D02*
D03*
X31242D02*
D03*
X4318Y293370D02*
D03*
X9652D02*
D03*
X14986D02*
D03*
X28194Y275590D02*
D03*
X22860D02*
D03*
X17526D02*
D03*
X88900Y414528D02*
D03*
Y421386D02*
D03*
Y427228D02*
D03*
X137922Y434340D02*
D03*
X133096Y430022D02*
D03*
X127508Y427482D02*
D03*
X121412Y426720D02*
D03*
X115570D02*
D03*
X109982D02*
D03*
X104648Y401320D02*
D03*
Y406400D02*
D03*
Y411480D02*
D03*
Y416560D02*
D03*
Y421640D02*
D03*
Y426720D02*
D03*
X91788Y446612D02*
D03*
Y456612D02*
D03*
X81788Y451612D02*
D03*
X76280Y466250D02*
D03*
X71280Y476250D02*
D03*
X76280Y486250D02*
D03*
X86280Y466250D02*
D03*
X81280Y476250D02*
D03*
X86280Y486250D02*
D03*
X91280Y476250D02*
D03*
X195406Y418498D02*
D03*
X190406Y428498D02*
D03*
X195406Y438498D02*
D03*
X200406Y428498D02*
D03*
X205406Y438498D02*
D03*
X210406Y428498D02*
D03*
X169498Y418752D02*
D03*
X164498Y428752D02*
D03*
X169498Y438752D02*
D03*
X174498Y428752D02*
D03*
X179498Y438752D02*
D03*
X184498Y428752D02*
D03*
X142828Y419260D02*
D03*
X137828Y429260D02*
D03*
X142828Y439260D02*
D03*
X152828Y419260D02*
D03*
X147828Y429260D02*
D03*
X152828Y439260D02*
D03*
X157828Y429260D02*
D03*
X102929Y443738D02*
D03*
X96774D02*
D03*
X109085D02*
D03*
X121395D02*
D03*
X115240D02*
D03*
X96774Y479747D02*
D03*
Y485902D02*
D03*
Y473591D02*
D03*
Y461281D02*
D03*
Y467436D02*
D03*
Y448970D02*
D03*
Y455126D02*
D03*
X222279Y443992D02*
D03*
X193468D02*
D03*
X187706D02*
D03*
X199230D02*
D03*
X210755D02*
D03*
X204993D02*
D03*
X216517D02*
D03*
X146986D02*
D03*
X141224D02*
D03*
X152748D02*
D03*
X164273D02*
D03*
X158511D02*
D03*
X175797D02*
D03*
X170035D02*
D03*
X181559D02*
D03*
X222504Y456497D02*
D03*
Y450342D02*
D03*
Y468808D02*
D03*
Y462653D02*
D03*
Y474963D02*
D03*
Y487273D02*
D03*
Y481118D02*
D03*
X310286Y427990D02*
D03*
X321666D02*
D03*
X315976D02*
D03*
X310286Y434594D02*
D03*
X321666D02*
D03*
X315976D02*
D03*
X417576Y409702D02*
D03*
Y416115D02*
D03*
Y422529D02*
D03*
Y428942D02*
D03*
Y435356D02*
D03*
X348234Y462026D02*
D03*
X339852D02*
D03*
X351028Y467106D02*
D03*
X343662D02*
D03*
X336296D02*
D03*
X88138Y395224D02*
D03*
Y384048D02*
D03*
X80264Y395224D02*
D03*
Y389636D02*
D03*
Y384048D02*
D03*
X291794Y439472D02*
D03*
X250698Y480060D02*
D03*
X258572D02*
D03*
X276352Y462788D02*
D03*
X255219Y400355D02*
D03*
X246329Y406400D02*
D03*
X248514Y400355D02*
D03*
X246329Y412572D02*
D03*
X122428Y298450D02*
D03*
X332994Y374650D02*
D03*
X224282Y126492D02*
D03*
X256032Y351790D02*
D03*
X137002Y351886D02*
D03*
X128524Y352806D02*
D03*
X113284Y231394D02*
D03*
X75184Y219710D02*
D03*
X74168Y229616D02*
D03*
X232664Y107442D02*
D03*
X7620Y313182D02*
D03*
X13716D02*
D03*
X19304D02*
D03*
X24892D02*
D03*
X13970Y306070D02*
D03*
X19558D02*
D03*
X25146D02*
D03*
X31496D02*
D03*
X37084D02*
D03*
X42672D02*
D03*
X68072Y310896D02*
D03*
Y316484D02*
D03*
Y322072D02*
D03*
X399034Y220218D02*
D03*
Y214376D02*
D03*
X392557Y243078D02*
D03*
X386588D02*
D03*
X380619D02*
D03*
X392557Y233595D02*
D03*
X386588D02*
D03*
X380619D02*
D03*
X392557Y224113D02*
D03*
X386588D02*
D03*
X380619D02*
D03*
X392557Y214630D02*
D03*
X386588D02*
D03*
X380619D02*
D03*
X354203Y279654D02*
D03*
X360172D02*
D03*
X366141D02*
D03*
X322199Y279908D02*
D03*
X328168D02*
D03*
X334137D02*
D03*
X333502Y255270D02*
D03*
X327533D02*
D03*
X321564D02*
D03*
X379222Y287528D02*
D03*
X385318D02*
D03*
Y282702D02*
D03*
X369824Y297180D02*
D03*
X379222Y282702D02*
D03*
Y277876D02*
D03*
X385191D02*
D03*
X391160D02*
D03*
Y282702D02*
D03*
Y287528D02*
D03*
X347980Y318008D02*
D03*
X351536Y324104D02*
D03*
X373634Y292100D02*
D03*
X161036Y119888D02*
D03*
X148336Y74168D02*
D03*
X136398Y78994D02*
D03*
X131318D02*
D03*
X136398Y84074D02*
D03*
X131318D02*
D03*
Y160782D02*
D03*
X162306Y169164D02*
D03*
X338582Y216408D02*
D03*
X55328Y124250D02*
D03*
X224282Y213106D02*
D03*
X248920Y201168D02*
D03*
X279654Y101346D02*
D03*
X287528Y94234D02*
D03*
Y101346D02*
D03*
X295402Y94234D02*
D03*
Y101346D02*
D03*
X303276Y94234D02*
D03*
Y101346D02*
D03*
X330962Y60198D02*
D03*
X234696Y138176D02*
D03*
X242570Y143764D02*
D03*
X68834Y151892D02*
D03*
X169418Y83820D02*
D03*
X160528Y73152D02*
D03*
X208280Y75438D02*
D03*
X55118Y101600D02*
D03*
X45720Y89408D02*
D03*
X158878Y84202D02*
D03*
X120222Y74248D02*
D03*
X104140Y98044D02*
D03*
X112522Y225298D02*
D03*
X171450Y298704D02*
D03*
X105410Y376936D02*
D03*
X131572Y381762D02*
D03*
X122428Y398526D02*
D03*
X74930Y294386D02*
D03*
X277114Y270002D02*
D03*
X262890Y280924D02*
D03*
X257302Y281432D02*
D03*
X161798Y110872D02*
D03*
X107188Y114046D02*
D03*
X266446Y313182D02*
D03*
X6858Y102870D02*
D03*
X222504Y86360D02*
D03*
X273812Y18542D02*
D03*
X40386Y166624D02*
D03*
X39624Y179324D02*
D03*
X176276Y111506D02*
D03*
X170688Y141224D02*
D03*
X217042Y132462D02*
D03*
X218948Y119126D02*
D03*
X260096Y319024D02*
D03*
X326234Y401984D02*
D03*
X319734Y401626D02*
D03*
X121666Y109728D02*
D03*
X231140Y338074D02*
D03*
X230886Y346456D02*
D03*
X231140Y329692D02*
D03*
X242002Y320996D02*
D03*
X230944Y320860D02*
D03*
X321818Y347218D02*
D03*
X137160Y98806D02*
D03*
X152654Y107442D02*
D03*
X159512Y289560D02*
D03*
X272288Y90170D02*
D03*
X268050Y198040D02*
D03*
X67818Y142494D02*
D03*
X53848Y151384D02*
D03*
X263652Y192024D02*
D03*
X126612Y106038D02*
D03*
X100584Y121920D02*
D03*
X167132Y163830D02*
D03*
X136652Y165354D02*
D03*
X126746Y167640D02*
D03*
X36322Y140208D02*
D03*
X37338Y153416D02*
D03*
X58928Y164338D02*
D03*
X6604Y217678D02*
D03*
X40132Y204216D02*
D03*
X299008Y451308D02*
D03*
X355009Y378631D02*
D03*
X248514Y383286D02*
D03*
Y391820D02*
D03*
X252019Y406400D02*
D03*
X240640D02*
D03*
X252019Y412572D02*
D03*
X240640D02*
D03*
X38862Y191973D02*
D03*
X316992Y55880D02*
D03*
X316440Y46990D02*
D03*
X263703Y120548D02*
D03*
X291084Y143891D02*
D03*
Y137668D02*
D03*
X286512Y146558D02*
D03*
X291084Y150114D02*
D03*
X281940D02*
D03*
X40386Y115824D02*
D03*
X400050Y299720D02*
D03*
X399034Y372110D02*
D03*
X389636D02*
D03*
X374650Y369062D02*
D03*
X421894Y338582D02*
D03*
X380073Y382359D02*
D03*
X345948Y184489D02*
D03*
Y176699D02*
D03*
X327660Y342138D02*
D03*
X209550Y166624D02*
D03*
X311912Y18288D02*
D03*
X289306Y3556D02*
D03*
X280924Y58674D02*
D03*
X324992Y37718D02*
D03*
X274574Y49784D02*
D03*
X294300Y55540D02*
D03*
X262890Y43434D02*
D03*
X323724Y29338D02*
D03*
X294300Y6436D02*
D03*
X302514Y5080D02*
D03*
X282575Y4699D02*
D03*
X262636Y4826D02*
D03*
X242570Y54356D02*
D03*
Y36830D02*
D03*
X166661Y194056D02*
D03*
X162343D02*
D03*
X345948Y192278D02*
D03*
X410210Y170434D02*
D03*
Y178943D02*
D03*
Y187452D02*
D03*
X404876Y184404D02*
D03*
X395817D02*
D03*
X386757D02*
D03*
X377698D02*
D03*
Y191262D02*
D03*
X386757D02*
D03*
X395817D02*
D03*
X404876D02*
D03*
D139*
X6096Y90424D02*
D03*
D140*
X295910Y27178D02*
D03*
X284734D02*
D03*
X291846Y38862D02*
D03*
X291719Y32766D02*
D03*
X290322Y27178D02*
D03*
M02*
