G04*
G04 #@! TF.GenerationSoftware,Altium Limited,Altium Designer,20.0.1 (14)*
G04*
G04 Layer_Color=255*
%FSLAX44Y44*%
%MOMM*%
G71*
G01*
G75*
%ADD25R,0.5300X0.5500*%
%ADD29R,3.2000X1.5000*%
%ADD31R,0.3000X0.4000*%
%ADD32R,0.4000X0.3000*%
%ADD52R,1.0000X1.0000*%
%ADD130C,1.5240*%
%ADD131C,1.0000*%
%ADD132R,1.6000X1.6000*%
%ADD133C,1.6000*%
%ADD134O,2.6000X1.3000*%
%ADD135O,2.2000X1.1000*%
%ADD136C,2.0260*%
%ADD137C,1.5610*%
%ADD143R,1.0000X1.0300*%
%ADD144R,0.6500X1.3000*%
%ADD145R,0.4800X1.8000*%
%ADD146R,5.0000X5.0000*%
%ADD147R,2.0000X0.9000*%
%ADD148R,0.9000X2.0000*%
%ADD149R,0.6000X1.3500*%
%ADD150R,0.5500X0.5300*%
%ADD151R,0.5000X1.0000*%
%ADD152R,1.0000X0.5000*%
%ADD153R,0.8000X0.2000*%
%ADD154R,0.2000X0.8000*%
%ADD155R,1.7000X1.7000*%
%ADD156R,0.9000X1.6000*%
D25*
X294894Y184278D02*
D03*
Y192658D02*
D03*
X316738Y29338D02*
D03*
Y37718D02*
D03*
D29*
X387378Y213532D02*
D03*
Y171532D02*
D03*
D31*
X236010Y329692D02*
D03*
X241510D02*
D03*
X246370Y269748D02*
D03*
X251870D02*
D03*
X241510Y338074D02*
D03*
X236010D02*
D03*
X241510Y346456D02*
D03*
X236010D02*
D03*
X246170Y255524D02*
D03*
X251670D02*
D03*
X341166Y135890D02*
D03*
X346666D02*
D03*
X333204Y85852D02*
D03*
X327704D02*
D03*
X279356Y8636D02*
D03*
X273856D02*
D03*
D32*
X231394Y183090D02*
D03*
Y177590D02*
D03*
X242316Y182836D02*
D03*
Y177336D02*
D03*
X325196Y60230D02*
D03*
Y54730D02*
D03*
X151459Y366246D02*
D03*
Y360746D02*
D03*
X174658Y366246D02*
D03*
Y360746D02*
D03*
X139860Y366246D02*
D03*
Y360746D02*
D03*
X163059Y366246D02*
D03*
Y360746D02*
D03*
D52*
X421700Y127060D02*
D03*
X365700D02*
D03*
X401700D02*
D03*
D130*
X323088Y130302D02*
D03*
X14224Y458978D02*
D03*
D131*
X417068Y398272D02*
D03*
Y374396D02*
D03*
X329184Y101600D02*
D03*
X346202Y478790D02*
D03*
X308610Y325882D02*
D03*
X304298Y305925D02*
D03*
X327660Y244856D02*
D03*
X365506Y256032D02*
D03*
X304298Y184658D02*
D03*
Y204869D02*
D03*
Y225080D02*
D03*
Y245291D02*
D03*
X328168Y146050D02*
D03*
X304298Y285714D02*
D03*
X151130Y390210D02*
D03*
X203899Y411038D02*
D03*
X181483D02*
D03*
X159067D02*
D03*
X136652D02*
D03*
X304298Y265176D02*
D03*
X11684Y373700D02*
D03*
X217678Y389956D02*
D03*
X226314Y411038D02*
D03*
X194818Y390210D02*
D03*
X172974D02*
D03*
D132*
X417322Y475742D02*
D03*
D133*
Y450342D02*
D03*
D134*
X412070Y235732D02*
D03*
Y149332D02*
D03*
D135*
X358470Y235732D02*
D03*
Y149332D02*
D03*
D136*
X410062Y40390D02*
D03*
X339962D02*
D03*
D137*
X397512Y15490D02*
D03*
X352512D02*
D03*
D143*
X276964Y482090D02*
D03*
X366264D02*
D03*
D144*
X353414Y361190D02*
D03*
X340714D02*
D03*
X328014D02*
D03*
X315314D02*
D03*
X302614D02*
D03*
X289914D02*
D03*
D145*
X274914Y367390D02*
D03*
X368214D02*
D03*
X274914Y424890D02*
D03*
X368214D02*
D03*
D146*
X97954Y152724D02*
D03*
D147*
X22954Y77724D02*
D03*
Y90424D02*
D03*
Y103124D02*
D03*
Y115824D02*
D03*
Y128524D02*
D03*
Y141224D02*
D03*
Y153924D02*
D03*
Y166624D02*
D03*
Y179324D02*
D03*
Y192024D02*
D03*
Y204724D02*
D03*
Y217424D02*
D03*
Y230124D02*
D03*
Y242824D02*
D03*
X192954D02*
D03*
Y230124D02*
D03*
Y217424D02*
D03*
Y204724D02*
D03*
Y192024D02*
D03*
Y179324D02*
D03*
Y166624D02*
D03*
Y153924D02*
D03*
Y141224D02*
D03*
Y128524D02*
D03*
Y115824D02*
D03*
Y103124D02*
D03*
Y90424D02*
D03*
Y77724D02*
D03*
D148*
X50804Y252824D02*
D03*
X63504D02*
D03*
X76204D02*
D03*
X88904D02*
D03*
X101604D02*
D03*
X114304D02*
D03*
X127004D02*
D03*
X139704D02*
D03*
X152404D02*
D03*
X165104D02*
D03*
D149*
X248768Y221554D02*
D03*
X258268Y241554D02*
D03*
X239268D02*
D03*
D150*
X276226Y183896D02*
D03*
X284606D02*
D03*
X348360Y126746D02*
D03*
X339980D02*
D03*
D151*
X424200Y71060D02*
D03*
X363200D02*
D03*
D152*
X404200Y69060D02*
D03*
X383200D02*
D03*
D153*
X304800Y28956D02*
D03*
Y32956D02*
D03*
Y36956D02*
D03*
Y40956D02*
D03*
X275800Y28956D02*
D03*
Y32956D02*
D03*
Y36956D02*
D03*
Y40956D02*
D03*
X304800Y24956D02*
D03*
X275800D02*
D03*
D154*
X290300Y18456D02*
D03*
Y47456D02*
D03*
X294300Y18456D02*
D03*
X298300D02*
D03*
X286300D02*
D03*
X282300D02*
D03*
X294300Y47456D02*
D03*
X298300D02*
D03*
X286300D02*
D03*
X282300D02*
D03*
D155*
X290300Y32956D02*
D03*
D156*
X308528Y71120D02*
D03*
X297528D02*
D03*
X286528D02*
D03*
X275528D02*
D03*
X264528D02*
D03*
X253528D02*
D03*
X242528D02*
D03*
X231528D02*
D03*
X220528D02*
D03*
X308528Y163120D02*
D03*
X297528D02*
D03*
X286528D02*
D03*
X275528D02*
D03*
X220528D02*
D03*
X231528D02*
D03*
X242528D02*
D03*
X253528D02*
D03*
X264528D02*
D03*
M02*
