G04*
G04 #@! TF.GenerationSoftware,Altium Limited,Altium Designer,20.0.1 (14)*
G04*
G04 Layer_Physical_Order=6*
G04 Layer_Color=16711680*
%FSLAX44Y44*%
%MOMM*%
G71*
G01*
G75*
%ADD16C,0.2540*%
%ADD25R,0.5300X0.5500*%
%ADD29R,3.2000X1.5000*%
%ADD31R,0.3000X0.4000*%
%ADD32R,0.4000X0.3000*%
%ADD52R,1.0000X1.0000*%
%ADD124C,0.3048*%
%ADD126C,0.2032*%
%ADD127C,0.3810*%
%ADD128C,0.1444*%
%ADD130C,1.5240*%
%ADD131C,1.0000*%
%ADD132R,1.6000X1.6000*%
%ADD133C,1.6000*%
%ADD134O,2.6000X1.3000*%
%ADD135O,2.2000X1.1000*%
%ADD136C,2.0260*%
%ADD137C,1.5610*%
%ADD138C,0.3048*%
%ADD139C,0.5080*%
%ADD140C,0.4064*%
%ADD141C,0.6350*%
%ADD143R,1.0000X1.0300*%
%ADD144R,0.6500X1.3000*%
%ADD145R,0.4800X1.8000*%
%ADD146R,5.0000X5.0000*%
%ADD147R,2.0000X0.9000*%
%ADD148R,0.9000X2.0000*%
%ADD149R,0.6000X1.3500*%
%ADD150R,0.5500X0.5300*%
%ADD151R,0.5000X1.0000*%
%ADD152R,1.0000X0.5000*%
%ADD153R,0.8000X0.2000*%
%ADD154R,0.2000X0.8000*%
%ADD155R,1.7000X1.7000*%
%ADD156R,0.9000X1.6000*%
G36*
X430000Y135890D02*
X418730D01*
X415800Y138820D01*
X414456Y139718D01*
X413196Y139969D01*
X413321Y141239D01*
X418570D01*
X420665Y141515D01*
X422617Y142323D01*
X424293Y143609D01*
X425579Y145285D01*
X426387Y147237D01*
X426663Y149332D01*
X426387Y151427D01*
X425579Y153379D01*
X424293Y155055D01*
X422617Y156341D01*
X420665Y157149D01*
X418570Y157425D01*
X405570D01*
X403475Y157149D01*
X401523Y156341D01*
X399847Y155055D01*
X398561Y153379D01*
X397752Y151427D01*
X397477Y149332D01*
X397752Y147237D01*
X398561Y145285D01*
X399847Y143609D01*
X401523Y142323D01*
X403475Y141515D01*
X405077Y141304D01*
X404994Y140034D01*
X346666D01*
X345080Y139718D01*
X344625Y139414D01*
X343642D01*
Y139160D01*
X342436D01*
Y135890D01*
Y132620D01*
X343642D01*
Y132366D01*
X343667D01*
X343932Y132140D01*
X343549Y130823D01*
X343517Y130796D01*
X342921Y130666D01*
X341250D01*
Y126746D01*
Y122826D01*
X342921D01*
X344086Y122572D01*
X345165Y122572D01*
X347218D01*
Y90384D01*
X333204D01*
X331470Y90039D01*
X330477Y89376D01*
X328355D01*
X327362Y90039D01*
X325628Y90384D01*
X305286D01*
X304901Y91654D01*
X305473Y92037D01*
X306147Y93045D01*
X306384Y94234D01*
X306147Y95423D01*
X305473Y96432D01*
X304465Y97105D01*
X304277Y97143D01*
Y98437D01*
X304465Y98475D01*
X305473Y99149D01*
X306147Y100157D01*
X306384Y101346D01*
X306147Y102535D01*
X305473Y103544D01*
X304465Y104217D01*
X303276Y104454D01*
X302087Y104217D01*
X301078Y103544D01*
X300405Y102535D01*
X300168Y101346D01*
X300405Y100157D01*
X301078Y99149D01*
X302087Y98475D01*
X302275Y98437D01*
Y97143D01*
X302087Y97105D01*
X301078Y96432D01*
X300405Y95423D01*
X300168Y94234D01*
X300405Y93045D01*
X301078Y92037D01*
X302055Y91384D01*
X302073Y91278D01*
X301928Y90086D01*
X301643Y90049D01*
X299296Y89076D01*
X297330Y87569D01*
X297280Y87535D01*
X297274Y87541D01*
X297253Y87562D01*
X297250Y87560D01*
X296505Y86588D01*
X296503Y86586D01*
X296478Y86553D01*
X294921Y84524D01*
X293457Y80990D01*
X293412Y80644D01*
X291504D01*
Y80390D01*
X287798D01*
Y71120D01*
Y61850D01*
X291504D01*
Y61596D01*
X303552D01*
Y61850D01*
X307258D01*
Y71120D01*
X308528D01*
Y72390D01*
X314298D01*
Y80390D01*
X315119Y81320D01*
X325628D01*
X327362Y81665D01*
X328355Y82328D01*
X330477D01*
X331470Y81665D01*
X333204Y81320D01*
X347218D01*
Y64770D01*
X353568Y58420D01*
X430000D01*
Y0D01*
X284512D01*
X284485Y67D01*
X284301Y1270D01*
X285322Y1952D01*
X286164Y3212D01*
X286460Y4699D01*
X286164Y6186D01*
X286115Y6259D01*
X286067Y6501D01*
X285225Y7761D01*
X282965Y10021D01*
X282945Y10123D01*
X282380Y10968D01*
Y12160D01*
X283330Y12932D01*
X288824D01*
Y13186D01*
X290415D01*
Y6436D01*
X290711Y4949D01*
X291553Y3689D01*
X292813Y2847D01*
X294300Y2551D01*
X295787Y2847D01*
X297047Y3689D01*
X297889Y4949D01*
X298185Y6436D01*
Y12932D01*
X300824D01*
Y14830D01*
X311067D01*
X311912Y14662D01*
X313300Y14938D01*
X314476Y15724D01*
X315262Y16901D01*
X315538Y18288D01*
X315262Y19676D01*
X314476Y20852D01*
X314308Y21020D01*
X313132Y21806D01*
X311744Y22082D01*
X311744Y22082D01*
X311449D01*
X310324Y22432D01*
Y25071D01*
X312564D01*
Y25064D01*
X320912D01*
Y25453D01*
X323724D01*
X325211Y25749D01*
X326471Y26591D01*
X327313Y27851D01*
X327609Y29338D01*
X327313Y30825D01*
X326471Y32085D01*
X325211Y32927D01*
X323724Y33223D01*
X322032D01*
X320912Y33612D01*
X320658Y34777D01*
Y36448D01*
X316738D01*
X312818D01*
Y34777D01*
X312564Y33612D01*
X311594Y32874D01*
X310324Y33066D01*
Y35480D01*
X310070D01*
Y35686D01*
X304800D01*
Y37330D01*
X307768D01*
X309156Y37606D01*
X310070Y38217D01*
Y38217D01*
X310332Y38392D01*
X310348Y38408D01*
X311134Y39585D01*
X311410Y40972D01*
X311410Y40972D01*
Y42438D01*
X312336Y43364D01*
X322047D01*
X322047Y43364D01*
X323434Y43640D01*
X324610Y44426D01*
X327760Y47576D01*
X327760Y47576D01*
X328546Y48752D01*
X328822Y50140D01*
Y54730D01*
X328753Y55075D01*
X329183Y56346D01*
X330800D01*
X330962Y56313D01*
X332449Y56609D01*
X333709Y57451D01*
X334551Y58711D01*
X334847Y60198D01*
X334551Y61685D01*
X333709Y62945D01*
X333677Y62977D01*
X332416Y63819D01*
X330930Y64115D01*
X325196D01*
X323710Y63819D01*
X322864Y63254D01*
X321672D01*
Y61814D01*
X321607Y61717D01*
X321311Y60230D01*
X321607Y58744D01*
X321672Y58646D01*
Y57088D01*
X320402Y56963D01*
X320342Y57267D01*
X319556Y58444D01*
X318379Y59230D01*
X316992Y59506D01*
X310134D01*
X310134Y59506D01*
X308746Y59230D01*
X307570Y58444D01*
X307570Y58444D01*
X301731Y52604D01*
X300824Y52980D01*
Y52980D01*
X297926D01*
Y55540D01*
X297650Y56927D01*
X296864Y58104D01*
X295688Y58890D01*
X294300Y59166D01*
X292913Y58890D01*
X291736Y58104D01*
X290950Y56927D01*
X290726Y55798D01*
X290026Y55514D01*
X289404Y55489D01*
X289005Y56087D01*
X284512Y60580D01*
X285038Y61850D01*
X285258D01*
Y71120D01*
Y80390D01*
X281552D01*
Y80644D01*
X270355D01*
Y86385D01*
X271625Y87194D01*
X272288Y87062D01*
X273477Y87299D01*
X274485Y87972D01*
X275159Y88981D01*
X275396Y90170D01*
X275159Y91359D01*
X274485Y92367D01*
X273477Y93041D01*
X272288Y93278D01*
X271625Y93146D01*
X270355Y93955D01*
Y106666D01*
X279648Y115960D01*
X280912Y117850D01*
X281355Y120080D01*
Y146255D01*
X282181Y146790D01*
X283427Y146318D01*
X283492Y146119D01*
X283641Y145369D01*
X284314Y144361D01*
X285323Y143687D01*
X286512Y143450D01*
X286808Y143509D01*
X287488Y143539D01*
X288202Y142747D01*
X288213Y142702D01*
X288887Y141693D01*
X289111Y141543D01*
Y140016D01*
X288887Y139866D01*
X288213Y138857D01*
X287976Y137668D01*
X288213Y136479D01*
X288887Y135471D01*
X289895Y134797D01*
X291084Y134560D01*
X292273Y134797D01*
X293281Y135471D01*
X293955Y136479D01*
X294192Y137668D01*
X293955Y138857D01*
X293281Y139866D01*
X293057Y140016D01*
Y141543D01*
X293281Y141693D01*
X293955Y142702D01*
X294192Y143891D01*
X293955Y145080D01*
X293281Y146088D01*
X293057Y146239D01*
Y147766D01*
X293281Y147916D01*
X293955Y148925D01*
X294192Y150114D01*
X293955Y151303D01*
X293281Y152311D01*
X293260Y152326D01*
X293645Y153596D01*
X314552D01*
Y172644D01*
X282053D01*
Y177933D01*
X282226Y178025D01*
X283323Y178476D01*
X285368Y178069D01*
X303536D01*
X303866Y178135D01*
X304298Y178078D01*
X306001Y178302D01*
X307588Y178959D01*
X308951Y180005D01*
X309997Y181368D01*
X310654Y182955D01*
X310878Y184658D01*
X310795Y185294D01*
X318652Y193152D01*
X319550Y194496D01*
X319866Y196082D01*
Y210312D01*
X319550Y211898D01*
X318652Y213242D01*
X313572Y218322D01*
X312228Y219220D01*
X310642Y219536D01*
X309753D01*
X309241Y220806D01*
X309997Y221790D01*
X310654Y223377D01*
X310878Y225080D01*
X310654Y226783D01*
X309997Y228370D01*
X308951Y229733D01*
X307588Y230779D01*
X306001Y231436D01*
X304298Y231661D01*
X302595Y231436D01*
X301008Y230779D01*
X299645Y229733D01*
X298599Y228370D01*
X297942Y226783D01*
X297718Y225080D01*
X297942Y223377D01*
X298599Y221790D01*
X298848Y221466D01*
X298296Y220099D01*
X297665Y220005D01*
X272170Y245500D01*
X270826Y246398D01*
X269240Y246714D01*
X262792D01*
Y249828D01*
X262208D01*
Y254036D01*
X261892Y255622D01*
X260994Y256966D01*
X259506Y258454D01*
X258162Y259352D01*
X256576Y259668D01*
X255814D01*
Y269748D01*
X255498Y271334D01*
X254894Y272238D01*
Y273272D01*
X253711D01*
X253256Y273576D01*
X251670Y273892D01*
X251266Y273811D01*
X249996Y274853D01*
Y277126D01*
X253214Y280345D01*
X254622Y279956D01*
X255105Y279235D01*
X256113Y278561D01*
X257302Y278324D01*
X258491Y278561D01*
X259499Y279235D01*
X260690Y278730D01*
X260693Y278727D01*
X261701Y278053D01*
X262890Y277816D01*
X264079Y278053D01*
X265088Y278727D01*
X265761Y279735D01*
X265998Y280924D01*
X265761Y282113D01*
X265088Y283121D01*
X264079Y283795D01*
X262890Y284032D01*
X261701Y283795D01*
X260693Y283121D01*
X259502Y283626D01*
X259499Y283629D01*
X258778Y284112D01*
X258389Y285520D01*
X262660Y289790D01*
X262660Y289790D01*
X263446Y290966D01*
X263722Y292354D01*
X263722Y292354D01*
Y309809D01*
X264992Y310488D01*
X265257Y310311D01*
X266446Y310074D01*
X267635Y310311D01*
X268643Y310984D01*
X269317Y311993D01*
X269554Y313182D01*
X269317Y314371D01*
X268643Y315380D01*
X267635Y316053D01*
X266446Y316290D01*
X265257Y316053D01*
X264992Y315876D01*
X263722Y316555D01*
Y319024D01*
X263446Y320411D01*
X262660Y321588D01*
X261483Y322374D01*
X260096Y322650D01*
X258708Y322374D01*
X257532Y321588D01*
X256746Y320411D01*
X256470Y319024D01*
Y293856D01*
X243806Y281192D01*
X243020Y280016D01*
X242744Y278628D01*
X242744Y278628D01*
Y269748D01*
X243020Y268361D01*
X243346Y267873D01*
Y266224D01*
X245859D01*
X246370Y266122D01*
X247526Y265244D01*
Y259894D01*
X246256Y259132D01*
X246170Y259150D01*
X241808D01*
X241808Y259150D01*
X240421Y258874D01*
X239244Y258088D01*
X239244Y258088D01*
X236704Y255548D01*
X235918Y254371D01*
X235642Y252984D01*
X235642Y252984D01*
Y249828D01*
X234744D01*
Y233280D01*
X235383D01*
Y219033D01*
X224959Y208609D01*
X205376D01*
X204478Y209507D01*
X204478Y211074D01*
X204478Y212018D01*
Y213798D01*
X210312D01*
X210312Y213798D01*
X211700Y214074D01*
X212876Y214860D01*
X219226Y221210D01*
X219226Y221210D01*
X220012Y222386D01*
X220288Y223774D01*
Y340636D01*
X226053Y346402D01*
X227367Y345919D01*
X227536Y345069D01*
X228322Y343892D01*
X229499Y343106D01*
X230600Y342887D01*
X230600Y341592D01*
X229753Y341424D01*
X228576Y340638D01*
X227790Y339461D01*
X227514Y338074D01*
X227790Y336687D01*
X228576Y335510D01*
X229753Y334724D01*
X230727Y334530D01*
X230727Y333236D01*
X229753Y333042D01*
X228576Y332256D01*
X227790Y331079D01*
X227514Y329692D01*
X227790Y328304D01*
X228576Y327128D01*
X229753Y326342D01*
X231140Y326066D01*
X236010D01*
X236521Y326168D01*
X240999D01*
X241510Y326066D01*
X294894D01*
X294894Y326066D01*
X296281Y326342D01*
X297458Y327128D01*
X316789Y346460D01*
X318167Y346042D01*
X318229Y345731D01*
X319071Y344471D01*
X320331Y343629D01*
X321818Y343333D01*
X329992D01*
X331479Y343629D01*
X332739Y344471D01*
X341434Y353166D01*
X345488D01*
Y369214D01*
X335940D01*
Y358660D01*
X333961Y356681D01*
X332788Y357167D01*
Y369214D01*
X323240D01*
Y353166D01*
X328787D01*
X329273Y351993D01*
X328383Y351103D01*
X321818D01*
X320331Y350807D01*
X320210Y350726D01*
X318940Y351404D01*
Y353166D01*
X320088D01*
Y369214D01*
X310540D01*
Y353166D01*
X311688D01*
Y351614D01*
X293392Y333318D01*
X290640D01*
X290515Y334588D01*
X291201Y334724D01*
X292378Y335510D01*
X305178Y348310D01*
X305178Y348310D01*
X305964Y349487D01*
X306240Y350874D01*
Y353166D01*
X307388D01*
Y369214D01*
X297840D01*
Y353166D01*
X297983D01*
X298508Y351896D01*
X288312Y341700D01*
X285306D01*
X285181Y342970D01*
X285867Y343106D01*
X287044Y343892D01*
X292478Y349326D01*
X292478Y349326D01*
X293264Y350503D01*
X293540Y351890D01*
Y353166D01*
X294688D01*
Y369214D01*
X285140D01*
Y353166D01*
X285140D01*
X285410Y352514D01*
X282978Y350082D01*
X259967D01*
X259053Y351352D01*
X259140Y351790D01*
X258903Y352979D01*
X258230Y353988D01*
X257221Y354661D01*
X256032Y354898D01*
X254843Y354661D01*
X253834Y353988D01*
X253161Y352979D01*
X252924Y351790D01*
X253011Y351352D01*
X252097Y350082D01*
X241510D01*
X240999Y349980D01*
X236521D01*
X236010Y350082D01*
X231529D01*
X231003Y351352D01*
X266724Y387072D01*
X266724Y387072D01*
X267510Y388248D01*
X267786Y389636D01*
Y449094D01*
X278916Y460224D01*
X279702Y461400D01*
X279978Y462788D01*
X279702Y464175D01*
X278916Y465352D01*
X277740Y466138D01*
X276352Y466414D01*
X274965Y466138D01*
X273788Y465352D01*
X261596Y453160D01*
X260810Y451983D01*
X260534Y450596D01*
X260534Y450596D01*
Y391138D01*
X252851Y383455D01*
X251499Y383899D01*
X251385Y384475D01*
X250711Y385484D01*
X249703Y386157D01*
X248514Y386394D01*
X247324Y386157D01*
X246316Y385484D01*
X245642Y384475D01*
X245406Y383286D01*
X245642Y382097D01*
X246316Y381088D01*
X247324Y380415D01*
X247901Y380300D01*
X248345Y378948D01*
X214098Y344702D01*
X213312Y343526D01*
X213036Y342138D01*
X213036Y342138D01*
Y225276D01*
X208810Y221050D01*
X205376D01*
X204478Y221948D01*
X204478Y223774D01*
X204478Y224718D01*
Y235530D01*
X204478Y236474D01*
X204478Y237418D01*
Y248848D01*
X196580D01*
Y366354D01*
X196580Y366354D01*
X196304Y367741D01*
X195518Y368918D01*
X195518Y368918D01*
X185156Y379280D01*
Y405633D01*
X186136Y406385D01*
X187182Y407748D01*
X187839Y409335D01*
X188063Y411038D01*
X187839Y412741D01*
X187182Y414328D01*
X186136Y415691D01*
X184773Y416737D01*
X183186Y417394D01*
X181483Y417618D01*
X179780Y417394D01*
X178193Y416737D01*
X176830Y415691D01*
X175784Y414328D01*
X175127Y412741D01*
X174903Y411038D01*
X175127Y409335D01*
X175784Y407748D01*
X176830Y406385D01*
X177904Y405561D01*
Y396251D01*
X176634Y395625D01*
X176264Y395909D01*
X174677Y396566D01*
X172974Y396790D01*
X171271Y396566D01*
X169684Y395909D01*
X168321Y394863D01*
X167275Y393500D01*
X166618Y391913D01*
X166394Y390210D01*
X166618Y388507D01*
X167275Y386920D01*
X168321Y385557D01*
X169684Y384511D01*
X170190Y384302D01*
Y366730D01*
X170190Y366730D01*
X170466Y365342D01*
X171134Y364343D01*
Y361257D01*
X171032Y360746D01*
Y348118D01*
X149840Y326926D01*
X149054Y325750D01*
X148778Y324362D01*
X148778Y324362D01*
Y265246D01*
X147880Y264348D01*
X146054Y264348D01*
X145110Y264348D01*
X134298D01*
X133354Y264348D01*
X132410Y264348D01*
X121598D01*
X120654Y264348D01*
X119710Y264348D01*
X108898D01*
X107954Y264348D01*
X107010Y264348D01*
X96198D01*
X95254Y264348D01*
X94310Y264348D01*
X83498D01*
X82554Y264348D01*
X81610Y264348D01*
X70798D01*
X69854Y264348D01*
X68910Y264348D01*
X67130D01*
Y273330D01*
X69320Y275520D01*
X84328D01*
X84328Y275520D01*
X85716Y275796D01*
X86892Y276582D01*
X165622Y355313D01*
X166408Y356489D01*
X166684Y357877D01*
X166684Y357877D01*
Y360746D01*
X166583Y361257D01*
Y365735D01*
X166684Y366246D01*
Y378281D01*
X166408Y379669D01*
X165622Y380845D01*
X165622Y380845D01*
X157541Y388926D01*
X157710Y390210D01*
X157486Y391913D01*
X156829Y393500D01*
X155783Y394863D01*
X154420Y395909D01*
X152833Y396566D01*
X151130Y396790D01*
X149792Y396614D01*
X149133Y397751D01*
X156445Y405063D01*
X157364Y404682D01*
X159067Y404458D01*
X160771Y404682D01*
X162358Y405339D01*
X163720Y406385D01*
X164766Y407748D01*
X165424Y409335D01*
X165648Y411038D01*
X165424Y412741D01*
X164766Y414328D01*
X163720Y415691D01*
X162358Y416737D01*
X160771Y417394D01*
X159067Y417618D01*
X157364Y417394D01*
X155777Y416737D01*
X154415Y415691D01*
X153369Y414328D01*
X152711Y412741D01*
X152536Y411409D01*
X141451Y400324D01*
X140278Y400810D01*
Y405597D01*
X141305Y406385D01*
X142351Y407748D01*
X143008Y409335D01*
X143232Y411038D01*
X143008Y412741D01*
X142351Y414328D01*
X141305Y415691D01*
X139942Y416737D01*
X138355Y417394D01*
X136652Y417618D01*
X134949Y417394D01*
X133362Y416737D01*
X131999Y415691D01*
X130953Y414328D01*
X130296Y412741D01*
X130072Y411038D01*
X130296Y409335D01*
X130953Y407748D01*
X131999Y406385D01*
X133026Y405597D01*
Y385867D01*
X131756Y384833D01*
X131572Y384870D01*
X130383Y384633D01*
X129375Y383960D01*
X128701Y382951D01*
X128464Y381762D01*
X128701Y380573D01*
X129375Y379565D01*
X130383Y378891D01*
X131572Y378654D01*
X132761Y378891D01*
X132839Y378943D01*
X134085Y378695D01*
X134088Y378690D01*
X136234Y376544D01*
Y366246D01*
X136336Y365735D01*
Y364372D01*
X131384D01*
X131384Y364372D01*
X129997Y364096D01*
X128820Y363310D01*
X128820Y363310D01*
X125960Y360450D01*
X125174Y359273D01*
X124898Y357886D01*
X124898Y357886D01*
Y352806D01*
X125174Y351418D01*
X125960Y350242D01*
X127136Y349456D01*
X128524Y349180D01*
X129911Y349456D01*
X131088Y350242D01*
X131874Y351418D01*
X132150Y352806D01*
Y356384D01*
X132886Y357120D01*
X139860D01*
X141248Y357396D01*
X141735Y357722D01*
X143384D01*
Y360235D01*
X143486Y360746D01*
X143384Y361257D01*
Y365735D01*
X143486Y366246D01*
Y376269D01*
X144659Y376755D01*
X147834Y373581D01*
Y366246D01*
X147935Y365735D01*
Y361257D01*
X147834Y360746D01*
Y354637D01*
X86509Y293313D01*
X78825D01*
X78019Y294294D01*
X78038Y294386D01*
X77801Y295575D01*
X77127Y296583D01*
X76119Y297257D01*
X74930Y297494D01*
X73741Y297257D01*
X72733Y296583D01*
X72059Y295575D01*
X71822Y294386D01*
X71841Y294294D01*
X71035Y293313D01*
X56769D01*
X55381Y293037D01*
X54205Y292251D01*
X54205Y292251D01*
X37822Y275868D01*
X37036Y274692D01*
X36760Y273304D01*
X36760Y273304D01*
Y248136D01*
X35748Y247124D01*
X34478Y247650D01*
Y248848D01*
X11430D01*
Y237418D01*
X11430Y236474D01*
X11430Y235530D01*
Y224718D01*
X11430Y223774D01*
X11430Y222830D01*
Y221050D01*
X7881D01*
X6604Y221304D01*
X5217Y221028D01*
X4040Y220242D01*
X3254Y219065D01*
X2978Y217678D01*
X3254Y216290D01*
X4040Y215114D01*
X4294Y214860D01*
X4294Y214860D01*
X5470Y214074D01*
X6858Y213798D01*
X6858Y213798D01*
X10532D01*
X11430Y212900D01*
X11430Y211074D01*
X11430Y210130D01*
Y199318D01*
X11430Y198374D01*
X11430Y197430D01*
Y186618D01*
X11430Y185674D01*
X11430Y184730D01*
Y173918D01*
X11430Y172974D01*
X11430Y172030D01*
Y161218D01*
X11430Y160274D01*
X11430Y159330D01*
Y148518D01*
X11430Y147574D01*
X11430Y146630D01*
Y135818D01*
X11430Y134874D01*
X11430Y133930D01*
Y123118D01*
X11430Y122174D01*
X11430Y121230D01*
Y110418D01*
X11430Y109474D01*
X11430Y108530D01*
Y106496D01*
X6858D01*
X5470Y106220D01*
X4294Y105434D01*
X3508Y104257D01*
X3232Y102870D01*
X3508Y101482D01*
X4294Y100306D01*
X5470Y99520D01*
X6858Y99244D01*
X10532D01*
X11430Y98346D01*
Y95854D01*
X10532Y94956D01*
X6096D01*
X4362Y94611D01*
X2891Y93629D01*
X1909Y92158D01*
X1564Y90424D01*
X1909Y88690D01*
X2891Y87219D01*
X4362Y86237D01*
X6096Y85892D01*
X10532D01*
X11430Y84994D01*
Y84400D01*
X11684Y83235D01*
Y83130D01*
Y78994D01*
X34224D01*
Y83235D01*
X34478Y84400D01*
X34478Y84659D01*
Y95830D01*
X34478Y96774D01*
X34478Y97718D01*
Y99498D01*
X45212D01*
X45212Y99498D01*
X46599Y99774D01*
X47776Y100560D01*
X52348Y105132D01*
X52348Y105132D01*
X53134Y106308D01*
X53410Y107696D01*
Y120455D01*
X54680Y121271D01*
X55328Y121142D01*
X56517Y121379D01*
X57526Y122052D01*
X58199Y123061D01*
X58436Y124250D01*
X58199Y125439D01*
X57526Y126447D01*
X56517Y127121D01*
X55328Y127358D01*
X54680Y127229D01*
X53410Y128045D01*
Y145035D01*
X54583Y145521D01*
X60174Y139930D01*
X60174Y139930D01*
X61350Y139144D01*
X62738Y138868D01*
X62738Y138868D01*
X67818D01*
X69205Y139144D01*
X70382Y139930D01*
X70414Y139979D01*
X71684Y139593D01*
Y126454D01*
X96684D01*
Y152724D01*
Y178994D01*
X72126D01*
X71540Y180204D01*
X113128Y221793D01*
X113910Y221948D01*
X115086Y222734D01*
X115872Y223911D01*
X116148Y225298D01*
X115872Y226686D01*
X115520Y227211D01*
X115798Y228797D01*
X115848Y228830D01*
X116634Y230007D01*
X116910Y231394D01*
X116634Y232782D01*
X115848Y233958D01*
X114671Y234744D01*
X113284Y235020D01*
X109220D01*
X109220Y235020D01*
X107832Y234744D01*
X106656Y233958D01*
X106656Y233958D01*
X43156Y170458D01*
X42506Y169484D01*
X41774Y169974D01*
X40386Y170250D01*
X35376D01*
X34478Y171148D01*
X34478Y172974D01*
X34478Y173918D01*
Y175698D01*
X39624D01*
X41012Y175974D01*
X42188Y176760D01*
X42974Y177936D01*
X43250Y179324D01*
X42974Y180711D01*
X42188Y181888D01*
X41012Y182674D01*
X39624Y182950D01*
X35376D01*
X34478Y183848D01*
X34478Y185674D01*
X34478Y186618D01*
Y188398D01*
X38607D01*
X38862Y188347D01*
X40250Y188624D01*
X41426Y189410D01*
X42212Y190586D01*
X42488Y191973D01*
X42212Y193361D01*
X41426Y194537D01*
X41375Y194588D01*
X40199Y195374D01*
X38811Y195650D01*
X38811Y195650D01*
X35376D01*
X34478Y196548D01*
X34478Y198374D01*
X34478Y199692D01*
X35376Y200590D01*
X40132D01*
X41519Y200866D01*
X42696Y201652D01*
X43482Y202829D01*
X43758Y204216D01*
X43482Y205604D01*
X42696Y206780D01*
X41519Y207566D01*
X40132Y207842D01*
X35376D01*
X34478Y208740D01*
X34478Y211074D01*
X34478Y212018D01*
Y222830D01*
X34478Y223774D01*
X34478Y224718D01*
Y226498D01*
X37360D01*
X46712Y217146D01*
X46712Y217146D01*
X47888Y216360D01*
X49276Y216084D01*
X49276Y216084D01*
X75184D01*
X76571Y216360D01*
X77748Y217146D01*
X78534Y218323D01*
X78810Y219710D01*
X78534Y221098D01*
X77748Y222274D01*
X76571Y223060D01*
X75184Y223336D01*
X50778D01*
X41426Y232688D01*
X40250Y233474D01*
X38862Y233750D01*
X38862Y233750D01*
X35376D01*
X34478Y234648D01*
X34478Y236474D01*
X34478Y237418D01*
Y239198D01*
X36576D01*
X36576Y239198D01*
X37964Y239474D01*
X39140Y240260D01*
X42950Y244070D01*
X43736Y245247D01*
X43764Y245389D01*
X45034Y245264D01*
Y241554D01*
X49534D01*
Y252824D01*
Y264094D01*
X45282D01*
X45034Y264094D01*
X44012Y264692D01*
Y271802D01*
X58271Y286061D01*
X84456D01*
X84943Y284888D01*
X82826Y282772D01*
X67818D01*
X67818Y282772D01*
X66431Y282496D01*
X65254Y281710D01*
X60940Y277396D01*
X60154Y276220D01*
X59878Y274832D01*
X59878Y274832D01*
Y264348D01*
X57739D01*
X57480Y264348D01*
X56315Y264094D01*
X56210D01*
X52074D01*
Y252824D01*
Y241554D01*
X56315D01*
X57480Y241300D01*
X57739Y241300D01*
X68910D01*
X69854Y241300D01*
X70798Y241300D01*
X81610D01*
X82554Y241300D01*
X83498Y241300D01*
X94310D01*
X95254Y241300D01*
X96198Y241300D01*
X107010D01*
X107954Y241300D01*
X108898Y241300D01*
X119710D01*
X120654Y241300D01*
X121598Y241300D01*
X132410D01*
X133354Y241300D01*
X134298Y241300D01*
X145110D01*
X146054Y241300D01*
X146998Y241300D01*
X157810D01*
X158428Y241300D01*
X159583Y241300D01*
X160069Y240127D01*
X124182Y204240D01*
X123396Y203064D01*
X123120Y201676D01*
X123120Y201676D01*
Y178994D01*
X99224D01*
Y153994D01*
X124224D01*
Y163701D01*
X125119Y164179D01*
X125494Y164263D01*
X126746Y164014D01*
X127692Y163238D01*
Y160782D01*
X127968Y159395D01*
X128754Y158218D01*
X129930Y157432D01*
X131318Y157156D01*
X132705Y157432D01*
X133882Y158218D01*
X134668Y159395D01*
X134944Y160782D01*
Y160808D01*
X136214Y161815D01*
X136652Y161728D01*
X146304D01*
X146304Y161728D01*
X147691Y162004D01*
X148868Y162790D01*
X174476Y188398D01*
X180532D01*
X181430Y187500D01*
X181430Y185674D01*
X181430Y184730D01*
Y182950D01*
X176530D01*
X176530Y182950D01*
X175142Y182674D01*
X173966Y181888D01*
X164568Y172490D01*
X164382Y172212D01*
X163495Y172035D01*
X162306Y172272D01*
X161117Y172035D01*
X160109Y171362D01*
X159435Y170353D01*
X159198Y169164D01*
X159435Y167975D01*
X160109Y166966D01*
X161117Y166293D01*
X162306Y166056D01*
X163506Y165000D01*
Y163830D01*
X163782Y162442D01*
X164568Y161266D01*
X165744Y160480D01*
X167132Y160204D01*
X168519Y160480D01*
X169696Y161266D01*
X170482Y162442D01*
X170758Y163830D01*
Y168424D01*
X178032Y175698D01*
X180532D01*
X181430Y174800D01*
X181430Y172974D01*
X181430Y172030D01*
Y161218D01*
X181430Y160274D01*
X181430Y159330D01*
Y148518D01*
X181430Y147574D01*
X181430Y146630D01*
Y144850D01*
X170688D01*
X169300Y144574D01*
X168124Y143788D01*
X167338Y142612D01*
X167062Y141224D01*
X167338Y139837D01*
X168124Y138660D01*
X169300Y137874D01*
X170688Y137598D01*
X180532D01*
X181430Y136700D01*
X181430Y134874D01*
X181430Y133930D01*
Y123118D01*
X181430Y122174D01*
X181430Y121230D01*
Y109800D01*
X181430D01*
Y109800D01*
X180167Y109131D01*
X179902Y109308D01*
Y111506D01*
X179626Y112893D01*
X178840Y114070D01*
X177663Y114856D01*
X176276Y115132D01*
X174888Y114856D01*
X173712Y114070D01*
X172926Y112893D01*
X172650Y111506D01*
Y106934D01*
X172650Y106934D01*
X172926Y105547D01*
X173712Y104370D01*
X177522Y100560D01*
X178699Y99774D01*
X180086Y99498D01*
X180086Y99498D01*
X180532D01*
X181430Y98600D01*
X181430Y96774D01*
X181430Y95830D01*
Y84659D01*
X181430Y84400D01*
X181684Y83235D01*
Y83130D01*
Y78994D01*
X192954D01*
Y77724D01*
X194224D01*
Y71954D01*
X204224D01*
Y73239D01*
X204445Y73405D01*
X206082Y73240D01*
X207091Y72567D01*
X208280Y72330D01*
X209469Y72567D01*
X210478Y73240D01*
X211151Y74249D01*
X211388Y75438D01*
X211151Y76627D01*
X210478Y77635D01*
X209469Y78309D01*
X208280Y78546D01*
X207091Y78309D01*
X206082Y77635D01*
X204445Y77471D01*
X204224Y77636D01*
Y83235D01*
X204478Y84400D01*
X204478Y84659D01*
Y86798D01*
X216938D01*
X219940Y83796D01*
X221117Y83010D01*
X222504Y82734D01*
X223892Y83010D01*
X225068Y83796D01*
X225854Y84972D01*
X226130Y86360D01*
X225854Y87747D01*
X225068Y88924D01*
X221004Y92988D01*
X219827Y93774D01*
X218440Y94050D01*
X218440Y94050D01*
X205376D01*
X204478Y94948D01*
X204478Y96774D01*
X204478Y97718D01*
Y99498D01*
X221256D01*
X227902Y92852D01*
Y80644D01*
X214504D01*
Y61596D01*
X227768D01*
Y55626D01*
X227768Y55626D01*
X228044Y54239D01*
X228830Y53062D01*
X240627Y41266D01*
X240424Y39673D01*
X240006Y39394D01*
X239220Y38217D01*
X238944Y36830D01*
X239220Y35443D01*
X240006Y34266D01*
X247880Y26392D01*
X247880Y26392D01*
X249056Y25606D01*
X250444Y25330D01*
X250444Y25330D01*
X270276D01*
Y22432D01*
X270530D01*
Y8636D01*
X270783Y7363D01*
X270832Y7290D01*
Y5112D01*
X276886D01*
X279292Y2706D01*
X279731Y2049D01*
X279828Y1952D01*
X280849Y1270D01*
X280665Y67D01*
X280638Y0D01*
X206650D01*
Y65000D01*
X206166Y66166D01*
X205000Y66650D01*
X0D01*
Y490000D01*
X100330D01*
X100330Y446664D01*
X219710Y446664D01*
X219710Y490000D01*
X430000D01*
Y135890D01*
D02*
G37*
G36*
X178966Y375214D02*
X189328Y364852D01*
Y248848D01*
X181430D01*
Y237418D01*
X181430Y236474D01*
X181430Y235530D01*
Y233750D01*
X165606D01*
X165121Y234923D01*
X167668Y237470D01*
X167668Y237470D01*
X168454Y238647D01*
X168730Y240034D01*
X168730Y240034D01*
Y241300D01*
X171128D01*
Y264348D01*
X159698D01*
X158754Y264348D01*
X157810Y264348D01*
X156030D01*
Y286999D01*
X157300Y287385D01*
X157315Y287362D01*
X158323Y286689D01*
X159512Y286452D01*
X160701Y286689D01*
X161709Y287362D01*
X162383Y288371D01*
X162620Y289560D01*
X162383Y290749D01*
X161709Y291758D01*
X160701Y292431D01*
X159512Y292668D01*
X158323Y292431D01*
X157315Y291758D01*
X157300Y291735D01*
X156030Y292121D01*
Y322860D01*
X177222Y344052D01*
X177222Y344052D01*
X178008Y345229D01*
X178284Y346616D01*
X178284Y346616D01*
Y360746D01*
X178182Y361257D01*
Y365735D01*
X178284Y366246D01*
X178182Y366757D01*
Y369270D01*
X177442D01*
Y375210D01*
X178712Y375595D01*
X178966Y375214D01*
D02*
G37*
G36*
X181430Y225600D02*
X181430Y223774D01*
X181430Y222830D01*
Y212018D01*
X181430Y211074D01*
X181430Y210130D01*
Y199318D01*
X181430Y198374D01*
X181430Y197430D01*
Y195650D01*
X172974D01*
X171586Y195374D01*
X170894Y194911D01*
X169652Y195216D01*
X169428Y195401D01*
X168859Y196254D01*
X167850Y196927D01*
X166661Y197164D01*
X165472Y196927D01*
X164502Y196279D01*
X163532Y196927D01*
X162343Y197164D01*
X161154Y196927D01*
X160146Y196254D01*
X159472Y195245D01*
X159235Y194056D01*
X159472Y192867D01*
X160146Y191859D01*
X161154Y191185D01*
X162343Y190948D01*
X163532Y191185D01*
X164141Y191591D01*
X165406Y191074D01*
X165534Y190768D01*
X165672Y189850D01*
X144802Y168980D01*
X136652D01*
X136214Y168892D01*
X134944Y169900D01*
Y196872D01*
X164570Y226498D01*
X180532D01*
X181430Y225600D01*
D02*
G37*
G36*
X250084Y251696D02*
X251670Y251380D01*
X253920D01*
Y249828D01*
X253744D01*
Y233280D01*
X262792D01*
Y238426D01*
X267524D01*
X293488Y212462D01*
X294832Y211564D01*
X296418Y211248D01*
X296418Y211248D01*
X299809D01*
X300240Y209978D01*
X299645Y209522D01*
X298599Y208159D01*
X297942Y206572D01*
X297718Y204869D01*
X297942Y203166D01*
X298599Y201579D01*
X299645Y200216D01*
X301008Y199170D01*
X302595Y198513D01*
X304298Y198289D01*
X306001Y198513D01*
X307588Y199170D01*
X308951Y200216D01*
X309997Y201579D01*
X310308Y202331D01*
X311578Y202079D01*
Y197798D01*
X304935Y191154D01*
X304298Y191238D01*
X302595Y191014D01*
X301008Y190357D01*
X300182Y189723D01*
X298814D01*
Y191388D01*
X294894D01*
X290974D01*
Y189723D01*
X285368D01*
X283138Y189279D01*
X281328Y188070D01*
X280266D01*
X278456Y189279D01*
X276226Y189723D01*
X273996Y189279D01*
X272186Y188070D01*
X271952D01*
Y187786D01*
X270843Y186126D01*
X270399Y183896D01*
Y172644D01*
X246201D01*
Y177336D01*
X245905Y178823D01*
X245840Y178920D01*
Y180360D01*
X245586D01*
Y181566D01*
X239046D01*
Y180360D01*
X238792D01*
Y178920D01*
X238727Y178823D01*
X238431Y177336D01*
Y172644D01*
X235279D01*
Y177590D01*
X234983Y179077D01*
X234918Y179174D01*
Y180614D01*
X234664D01*
Y181820D01*
X228124D01*
Y180614D01*
X227870D01*
Y179174D01*
X227805Y179077D01*
X227509Y177590D01*
Y172644D01*
X225504D01*
Y172390D01*
X221798D01*
Y163120D01*
Y153850D01*
X225504D01*
Y153596D01*
X227643D01*
Y141992D01*
X226373Y141466D01*
X224052Y143788D01*
X222875Y144574D01*
X221488Y144850D01*
X221488Y144850D01*
X205376D01*
X204478Y145748D01*
X204478Y147574D01*
X204478Y148518D01*
Y159330D01*
X204478Y160274D01*
X204478Y161218D01*
Y162998D01*
X209550D01*
X210938Y163274D01*
X212114Y164060D01*
X212900Y165236D01*
X213176Y166624D01*
X212900Y168011D01*
X212114Y169188D01*
X210938Y169974D01*
X209550Y170250D01*
X205376D01*
X204478Y171148D01*
X204478Y172974D01*
X204478Y173918D01*
Y184730D01*
X204478Y185674D01*
X204478Y186618D01*
Y197430D01*
X204478Y198374D01*
X204478Y199318D01*
Y200839D01*
X226568D01*
X228055Y201135D01*
X229315Y201977D01*
X242015Y214677D01*
X242857Y215937D01*
X243153Y217424D01*
Y233280D01*
X243792D01*
Y249828D01*
X242894D01*
Y251482D01*
X243310Y251898D01*
X246170D01*
X246681Y252000D01*
X249629D01*
X250084Y251696D01*
D02*
G37*
G36*
X71684Y178552D02*
Y155181D01*
X70414Y154502D01*
X70023Y154763D01*
X68834Y155000D01*
X67645Y154763D01*
X66637Y154089D01*
X65963Y153081D01*
X65726Y151892D01*
X65963Y150703D01*
X66637Y149694D01*
X67645Y149021D01*
X68834Y148784D01*
X70023Y149021D01*
X70414Y149282D01*
X71684Y148603D01*
Y145395D01*
X70414Y145009D01*
X70382Y145058D01*
X69205Y145844D01*
X67818Y146120D01*
X64240D01*
X56412Y153948D01*
X55236Y154734D01*
X53848Y155010D01*
X53410Y155369D01*
Y162074D01*
X54716Y163380D01*
X55813Y163191D01*
X56146Y163015D01*
X56730Y162141D01*
X57739Y161467D01*
X58928Y161230D01*
X60117Y161467D01*
X61125Y162141D01*
X61799Y163149D01*
X62036Y164338D01*
X61799Y165527D01*
X61125Y166535D01*
X60251Y167120D01*
X60075Y167453D01*
X59886Y168550D01*
X70474Y179138D01*
X71684Y178552D01*
D02*
G37*
G36*
X269701Y122494D02*
X268047Y120840D01*
X266669Y121258D01*
X266574Y121738D01*
X265900Y122746D01*
X264892Y123420D01*
X263703Y123656D01*
X262514Y123420D01*
X261505Y122746D01*
X260832Y121738D01*
X260595Y120548D01*
X260832Y119359D01*
X261505Y118351D01*
X262514Y117677D01*
X262993Y117582D01*
X263411Y116204D01*
X260408Y113200D01*
X259145Y111310D01*
X258701Y109080D01*
Y80644D01*
X246154D01*
Y120184D01*
X246154Y120184D01*
X245878Y121571D01*
X245092Y122748D01*
X234757Y133083D01*
X235237Y134399D01*
X236183Y134587D01*
X237443Y135429D01*
X238285Y136689D01*
X238581Y138176D01*
X238285Y139663D01*
X237443Y140923D01*
X235413Y142953D01*
Y153596D01*
X238643D01*
Y143806D01*
X238939Y142319D01*
X239781Y141059D01*
X239823Y141017D01*
X241083Y140175D01*
X242570Y139879D01*
X244057Y140175D01*
X245317Y141017D01*
X246159Y142277D01*
X246455Y143764D01*
X246413Y143975D01*
Y153596D01*
X269701D01*
Y122494D01*
D02*
G37*
G36*
X238902Y118682D02*
Y80644D01*
X235154D01*
Y94354D01*
X234878Y95742D01*
X234092Y96918D01*
X234092Y96918D01*
X228367Y102643D01*
X228853Y103816D01*
X232664D01*
X234051Y104092D01*
X235228Y104878D01*
X236014Y106054D01*
X236290Y107442D01*
X236014Y108829D01*
X235228Y110006D01*
X234051Y110792D01*
X232664Y111068D01*
X222990D01*
X219270Y114788D01*
X219688Y116166D01*
X220137Y116255D01*
X221145Y116929D01*
X221819Y117937D01*
X222056Y119126D01*
X221819Y120315D01*
X221145Y121323D01*
X220137Y121997D01*
X218948Y122234D01*
X217759Y121997D01*
X216751Y121323D01*
X216077Y120315D01*
X215959Y119722D01*
X214689Y119081D01*
X214635Y119079D01*
X214494Y119174D01*
X213106Y119450D01*
X213106Y119450D01*
X205376D01*
X204478Y120348D01*
X204478Y122174D01*
X204478Y123118D01*
Y124898D01*
X220748D01*
X221718Y123928D01*
X222894Y123142D01*
X224282Y122866D01*
X225669Y123142D01*
X226846Y123928D01*
X227632Y125105D01*
X227908Y126492D01*
X227632Y127879D01*
X227073Y128715D01*
X228060Y129525D01*
X238902Y118682D01*
D02*
G37*
G36*
X277446Y60326D02*
X277335Y60161D01*
X277039Y58674D01*
X277335Y57187D01*
X278177Y55927D01*
X280171Y53933D01*
X279776Y52980D01*
X279776D01*
Y51082D01*
X278404D01*
X277138Y52348D01*
X275961Y53134D01*
X274574Y53410D01*
X273186Y53134D01*
X272010Y52348D01*
X271224Y51171D01*
X270948Y49784D01*
X271224Y48397D01*
X272010Y47220D01*
X273379Y45852D01*
X272853Y44582D01*
X266870D01*
X265454Y45998D01*
X264277Y46784D01*
X262890Y47060D01*
X261502Y46784D01*
X260326Y45998D01*
X259540Y44822D01*
X259264Y43434D01*
X259540Y42046D01*
X259671Y41852D01*
X258992Y40582D01*
X251566D01*
X242624Y49523D01*
X243106Y50837D01*
X243958Y51006D01*
X245134Y51792D01*
X245920Y52969D01*
X246196Y54356D01*
Y61596D01*
X276767D01*
X277446Y60326D01*
D02*
G37*
%LPC*%
G36*
X372534Y488510D02*
X367534D01*
Y483360D01*
X372534D01*
Y488510D01*
D02*
G37*
G36*
X283234D02*
X278234D01*
Y483360D01*
X283234D01*
Y488510D01*
D02*
G37*
G36*
X364994D02*
X359994D01*
Y483360D01*
X364994D01*
Y488510D01*
D02*
G37*
G36*
X275694D02*
X270694D01*
Y483360D01*
X275694D01*
Y488510D01*
D02*
G37*
G36*
X258572Y483168D02*
X257383Y482931D01*
X256374Y482257D01*
X255701Y481249D01*
X255464Y480060D01*
X255701Y478871D01*
X256374Y477863D01*
X257383Y477189D01*
X258572Y476952D01*
X259761Y477189D01*
X260770Y477863D01*
X261443Y478871D01*
X261680Y480060D01*
X261443Y481249D01*
X260770Y482257D01*
X259761Y482931D01*
X258572Y483168D01*
D02*
G37*
G36*
X250698D02*
X249509Y482931D01*
X248500Y482257D01*
X247827Y481249D01*
X247590Y480060D01*
X247827Y478871D01*
X248500Y477863D01*
X249509Y477189D01*
X250698Y476952D01*
X251887Y477189D01*
X252896Y477863D01*
X253569Y478871D01*
X253806Y480060D01*
X253569Y481249D01*
X252896Y482257D01*
X251887Y482931D01*
X250698Y483168D01*
D02*
G37*
G36*
X372534Y480820D02*
X367534D01*
Y475670D01*
X372534D01*
Y480820D01*
D02*
G37*
G36*
X364994D02*
X359994D01*
Y475670D01*
X364994D01*
Y480820D01*
D02*
G37*
G36*
X283234D02*
X278234D01*
Y475670D01*
X283234D01*
Y480820D01*
D02*
G37*
G36*
X275694D02*
X270694D01*
Y475670D01*
X275694D01*
Y480820D01*
D02*
G37*
G36*
X346202Y485370D02*
X344499Y485146D01*
X342912Y484489D01*
X341549Y483443D01*
X340503Y482080D01*
X339846Y480493D01*
X339622Y478790D01*
X339846Y477087D01*
X340503Y475500D01*
X341549Y474137D01*
X342912Y473091D01*
X344499Y472434D01*
X346202Y472210D01*
X347905Y472434D01*
X349492Y473091D01*
X350855Y474137D01*
X351901Y475500D01*
X352558Y477087D01*
X352782Y478790D01*
X352558Y480493D01*
X351901Y482080D01*
X350855Y483443D01*
X349492Y484489D01*
X347905Y485146D01*
X346202Y485370D01*
D02*
G37*
G36*
X351028Y470214D02*
X349839Y469977D01*
X348830Y469304D01*
X348157Y468295D01*
X347992Y467469D01*
X346698D01*
X346533Y468295D01*
X345859Y469304D01*
X344851Y469977D01*
X343662Y470214D01*
X342473Y469977D01*
X341465Y469304D01*
X340791Y468295D01*
X340626Y467469D01*
X339332D01*
X339167Y468295D01*
X338493Y469304D01*
X337485Y469977D01*
X336296Y470214D01*
X335107Y469977D01*
X334099Y469304D01*
X333425Y468295D01*
X333188Y467106D01*
X333425Y465917D01*
X334099Y464908D01*
X335107Y464235D01*
X336014Y464054D01*
X336473Y463656D01*
X336903Y462824D01*
X336744Y462026D01*
X336981Y460837D01*
X337654Y459828D01*
X338663Y459155D01*
X339852Y458918D01*
X341041Y459155D01*
X342049Y459828D01*
X342723Y460837D01*
X342960Y462026D01*
X342840Y462629D01*
X343625Y463739D01*
X344417Y463857D01*
X345297Y462885D01*
X345126Y462026D01*
X345363Y460837D01*
X346036Y459828D01*
X347045Y459155D01*
X348234Y458918D01*
X349423Y459155D01*
X350432Y459828D01*
X351105Y460837D01*
X351342Y462026D01*
X351181Y462832D01*
X351128Y463240D01*
X351982Y464188D01*
X352217Y464235D01*
X353226Y464908D01*
X353899Y465917D01*
X354136Y467106D01*
X353899Y468295D01*
X353226Y469304D01*
X352217Y469977D01*
X351028Y470214D01*
D02*
G37*
G36*
X426846Y485266D02*
X407798D01*
Y466218D01*
X426846D01*
Y485266D01*
D02*
G37*
G36*
X14224Y468201D02*
X11837Y467887D01*
X9613Y466965D01*
X7702Y465500D01*
X6237Y463589D01*
X5315Y461365D01*
X5001Y458978D01*
X5315Y456591D01*
X6237Y454367D01*
X7702Y452456D01*
X9613Y450991D01*
X11837Y450069D01*
X14224Y449755D01*
X16611Y450069D01*
X18835Y450991D01*
X20746Y452456D01*
X22211Y454367D01*
X23133Y456591D01*
X23447Y458978D01*
X23133Y461365D01*
X22211Y463589D01*
X20746Y465500D01*
X18835Y466965D01*
X16611Y467887D01*
X14224Y468201D01*
D02*
G37*
G36*
X299008Y454416D02*
X297819Y454179D01*
X296810Y453506D01*
X296137Y452497D01*
X295900Y451308D01*
X296137Y450119D01*
X296810Y449110D01*
X297819Y448437D01*
X299008Y448200D01*
X300197Y448437D01*
X301206Y449110D01*
X301879Y450119D01*
X302116Y451308D01*
X301879Y452497D01*
X301206Y453506D01*
X300197Y454179D01*
X299008Y454416D01*
D02*
G37*
G36*
X291794Y442579D02*
X290605Y442343D01*
X289597Y441669D01*
X288923Y440661D01*
X288687Y439472D01*
X288923Y438283D01*
X289597Y437274D01*
X290605Y436601D01*
X291794Y436364D01*
X292983Y436601D01*
X293992Y437274D01*
X294665Y438283D01*
X294902Y439472D01*
X294665Y440661D01*
X293992Y441669D01*
X292983Y442343D01*
X291794Y442579D01*
D02*
G37*
G36*
X371884Y435160D02*
X369484D01*
Y426160D01*
X371884D01*
Y435160D01*
D02*
G37*
G36*
X366944D02*
X364544D01*
Y426160D01*
X366944D01*
Y435160D01*
D02*
G37*
G36*
X278584D02*
X276184D01*
Y426160D01*
X278584D01*
Y435160D01*
D02*
G37*
G36*
X273644D02*
X271244D01*
Y426160D01*
X273644D01*
Y435160D01*
D02*
G37*
G36*
X252019Y415680D02*
X250830Y415443D01*
X249982Y414877D01*
X249459Y414751D01*
X248888D01*
X248366Y414877D01*
X247519Y415443D01*
X246329Y415680D01*
X245140Y415443D01*
X244293Y414877D01*
X243770Y414751D01*
X243199D01*
X242676Y414877D01*
X241829Y415443D01*
X240640Y415680D01*
X239450Y415443D01*
X238442Y414770D01*
X237768Y413761D01*
X237532Y412572D01*
X237768Y411383D01*
X238442Y410375D01*
X238629Y410250D01*
Y408722D01*
X238442Y408597D01*
X237768Y407589D01*
X237532Y406400D01*
X237768Y405211D01*
X238442Y404202D01*
X239450Y403529D01*
X240640Y403292D01*
X241829Y403529D01*
X242676Y404095D01*
X243199Y404221D01*
X243770D01*
X244293Y404095D01*
X245140Y403529D01*
X245508Y403456D01*
X245562Y403396D01*
X245990Y402065D01*
X245642Y401544D01*
X245406Y400355D01*
X245642Y399165D01*
X246316Y398157D01*
X247324Y397484D01*
X248514Y397247D01*
X249703Y397484D01*
X250711Y398157D01*
X251161Y398830D01*
X251396Y398897D01*
X252337D01*
X252572Y398830D01*
X253022Y398157D01*
X254030Y397484D01*
X255219Y397247D01*
X256409Y397484D01*
X257417Y398157D01*
X258090Y399165D01*
X258327Y400355D01*
X258090Y401544D01*
X257417Y402552D01*
X256409Y403226D01*
X255219Y403462D01*
X254490Y404612D01*
X254890Y405211D01*
X255126Y406400D01*
X254890Y407589D01*
X254216Y408597D01*
X254029Y408722D01*
Y410250D01*
X254216Y410375D01*
X254890Y411383D01*
X255126Y412572D01*
X254890Y413761D01*
X254216Y414770D01*
X253208Y415443D01*
X252019Y415680D01*
D02*
G37*
G36*
X371884Y423620D02*
X369484D01*
Y414620D01*
X371884D01*
Y423620D01*
D02*
G37*
G36*
X366944D02*
X364544D01*
Y414620D01*
X366944D01*
Y423620D01*
D02*
G37*
G36*
X278584D02*
X276184D01*
Y414620D01*
X278584D01*
Y423620D01*
D02*
G37*
G36*
X273644D02*
X271244D01*
Y414620D01*
X273644D01*
Y423620D01*
D02*
G37*
G36*
X226314Y417618D02*
X224611Y417394D01*
X223024Y416737D01*
X221661Y415691D01*
X220615Y414328D01*
X219958Y412741D01*
X219734Y411038D01*
X219958Y409335D01*
X220615Y407748D01*
X221661Y406385D01*
X223024Y405339D01*
X224611Y404682D01*
X226314Y404458D01*
X228017Y404682D01*
X229604Y405339D01*
X230967Y406385D01*
X232013Y407748D01*
X232670Y409335D01*
X232894Y411038D01*
X232670Y412741D01*
X232013Y414328D01*
X230967Y415691D01*
X229604Y416737D01*
X228017Y417394D01*
X226314Y417618D01*
D02*
G37*
G36*
X203899D02*
X202195Y417394D01*
X200608Y416737D01*
X199246Y415691D01*
X198200Y414328D01*
X197542Y412741D01*
X197318Y411038D01*
X197542Y409335D01*
X198200Y407748D01*
X199246Y406385D01*
X200608Y405339D01*
X202195Y404682D01*
X203899Y404458D01*
X205602Y404682D01*
X207189Y405339D01*
X208551Y406385D01*
X209597Y407748D01*
X210255Y409335D01*
X210479Y411038D01*
X210255Y412741D01*
X209597Y414328D01*
X208551Y415691D01*
X207189Y416737D01*
X205602Y417394D01*
X203899Y417618D01*
D02*
G37*
G36*
X326234Y405092D02*
X325045Y404855D01*
X324036Y404182D01*
X323628Y403570D01*
X322389Y403424D01*
X322159Y403483D01*
X321931Y403824D01*
X320923Y404497D01*
X319734Y404734D01*
X318545Y404497D01*
X317537Y403824D01*
X316863Y402815D01*
X316626Y401626D01*
X316863Y400437D01*
X317537Y399428D01*
X318545Y398755D01*
X319734Y398518D01*
X320923Y398755D01*
X321931Y399428D01*
X322340Y400040D01*
X323579Y400186D01*
X323809Y400127D01*
X324036Y399786D01*
X325045Y399113D01*
X326234Y398876D01*
X327423Y399113D01*
X328432Y399786D01*
X329105Y400795D01*
X329342Y401984D01*
X329105Y403173D01*
X328432Y404182D01*
X327423Y404855D01*
X326234Y405092D01*
D02*
G37*
G36*
X122428Y401634D02*
X121239Y401397D01*
X120231Y400723D01*
X119557Y399715D01*
X119320Y398526D01*
X119557Y397337D01*
X120231Y396329D01*
X121239Y395655D01*
X122428Y395418D01*
X123617Y395655D01*
X124626Y396329D01*
X125299Y397337D01*
X125536Y398526D01*
X125299Y399715D01*
X124626Y400723D01*
X123617Y401397D01*
X122428Y401634D01*
D02*
G37*
G36*
X417068Y404852D02*
X415365Y404628D01*
X413778Y403971D01*
X412415Y402925D01*
X411369Y401562D01*
X410712Y399975D01*
X410488Y398272D01*
X410712Y396569D01*
X411369Y394982D01*
X412415Y393619D01*
X413778Y392573D01*
X415365Y391916D01*
X417068Y391692D01*
X418771Y391916D01*
X420358Y392573D01*
X421721Y393619D01*
X422767Y394982D01*
X423424Y396569D01*
X423648Y398272D01*
X423424Y399975D01*
X422767Y401562D01*
X421721Y402925D01*
X420358Y403971D01*
X418771Y404628D01*
X417068Y404852D01*
D02*
G37*
G36*
X248514Y394928D02*
X247324Y394692D01*
X246316Y394018D01*
X245642Y393010D01*
X245406Y391820D01*
X245642Y390631D01*
X246316Y389623D01*
X247324Y388949D01*
X248514Y388713D01*
X249703Y388949D01*
X250711Y389623D01*
X251385Y390631D01*
X251621Y391820D01*
X251385Y393010D01*
X250711Y394018D01*
X249703Y394692D01*
X248514Y394928D01*
D02*
G37*
G36*
X194818Y396790D02*
X193115Y396566D01*
X191528Y395909D01*
X190165Y394863D01*
X189119Y393500D01*
X188462Y391913D01*
X188238Y390210D01*
X188462Y388507D01*
X189119Y386920D01*
X190165Y385557D01*
X191528Y384511D01*
X193115Y383854D01*
X194818Y383630D01*
X196521Y383854D01*
X198108Y384511D01*
X199471Y385557D01*
X200517Y386920D01*
X201174Y388507D01*
X201398Y390210D01*
X201174Y391913D01*
X200517Y393500D01*
X199471Y394863D01*
X198108Y395909D01*
X196521Y396566D01*
X194818Y396790D01*
D02*
G37*
G36*
X217678Y396536D02*
X215975Y396312D01*
X214388Y395655D01*
X213025Y394609D01*
X211979Y393246D01*
X211322Y391659D01*
X211098Y389956D01*
X211322Y388253D01*
X211979Y386666D01*
X213025Y385303D01*
X214388Y384257D01*
X215975Y383600D01*
X217678Y383376D01*
X219381Y383600D01*
X220968Y384257D01*
X222331Y385303D01*
X223377Y386666D01*
X224034Y388253D01*
X224258Y389956D01*
X224034Y391659D01*
X223377Y393246D01*
X222331Y394609D01*
X220968Y395655D01*
X219381Y396312D01*
X217678Y396536D01*
D02*
G37*
G36*
X105410Y380044D02*
X104221Y379807D01*
X103212Y379133D01*
X102539Y378125D01*
X102302Y376936D01*
X102539Y375747D01*
X103212Y374739D01*
X104221Y374065D01*
X105410Y373828D01*
X106599Y374065D01*
X107607Y374739D01*
X108281Y375747D01*
X108518Y376936D01*
X108281Y378125D01*
X107607Y379133D01*
X106599Y379807D01*
X105410Y380044D01*
D02*
G37*
G36*
X332994Y377758D02*
X331805Y377521D01*
X330797Y376847D01*
X330123Y375839D01*
X329886Y374650D01*
X330123Y373461D01*
X330797Y372453D01*
X331805Y371779D01*
X332994Y371542D01*
X334183Y371779D01*
X335191Y372453D01*
X335865Y373461D01*
X336102Y374650D01*
X335865Y375839D01*
X335191Y376847D01*
X334183Y377521D01*
X332994Y377758D01*
D02*
G37*
G36*
X366944Y377660D02*
X364544D01*
Y368660D01*
X366944D01*
Y377660D01*
D02*
G37*
G36*
X278584D02*
X276184D01*
Y368660D01*
X278584D01*
Y377660D01*
D02*
G37*
G36*
X273644D02*
X271244D01*
Y368660D01*
X273644D01*
Y377660D01*
D02*
G37*
G36*
X417068Y380976D02*
X415365Y380752D01*
X413778Y380095D01*
X412415Y379049D01*
X411369Y377686D01*
X410712Y376099D01*
X410488Y374396D01*
X410712Y372693D01*
X411369Y371106D01*
X412415Y369743D01*
X413778Y368697D01*
X415365Y368040D01*
X417068Y367816D01*
X418771Y368040D01*
X420358Y368697D01*
X421721Y369743D01*
X422767Y371106D01*
X423424Y372693D01*
X423648Y374396D01*
X423424Y376099D01*
X422767Y377686D01*
X421721Y379049D01*
X420358Y380095D01*
X418771Y380752D01*
X417068Y380976D01*
D02*
G37*
G36*
X11684Y380280D02*
X9981Y380056D01*
X8394Y379399D01*
X7031Y378353D01*
X5985Y376990D01*
X5328Y375403D01*
X5104Y373700D01*
X5328Y371997D01*
X5985Y370410D01*
X7031Y369047D01*
X8394Y368001D01*
X9981Y367344D01*
X11684Y367120D01*
X13387Y367344D01*
X14974Y368001D01*
X16337Y369047D01*
X17383Y370410D01*
X18040Y371997D01*
X18264Y373700D01*
X18040Y375403D01*
X17383Y376990D01*
X16337Y378353D01*
X14974Y379399D01*
X13387Y380056D01*
X11684Y380280D01*
D02*
G37*
G36*
X371884Y377660D02*
X369484D01*
Y367390D01*
Y357120D01*
X371884D01*
Y365717D01*
X373154Y366396D01*
X373461Y366191D01*
X374650Y365954D01*
X375839Y366191D01*
X376847Y366865D01*
X377521Y367873D01*
X377758Y369062D01*
X377521Y370251D01*
X376847Y371259D01*
X375839Y371933D01*
X374650Y372170D01*
X373461Y371933D01*
X373154Y371728D01*
X371884Y372407D01*
Y377660D01*
D02*
G37*
G36*
X357934Y368960D02*
X354684D01*
Y362460D01*
X357934D01*
Y368960D01*
D02*
G37*
G36*
X352144D02*
X348894D01*
Y362460D01*
X352144D01*
Y368960D01*
D02*
G37*
G36*
X366944Y366120D02*
X364544D01*
Y357120D01*
X366944D01*
Y366120D01*
D02*
G37*
G36*
X278584D02*
X276184D01*
Y357120D01*
X278584D01*
Y366120D01*
D02*
G37*
G36*
X273644D02*
X271244D01*
Y357120D01*
X273644D01*
Y366120D01*
D02*
G37*
G36*
X357934Y359920D02*
X354684D01*
Y353420D01*
X357934D01*
Y359920D01*
D02*
G37*
G36*
X352144D02*
X348894D01*
Y353420D01*
X352144D01*
Y359920D01*
D02*
G37*
G36*
X137002Y354994D02*
X135813Y354757D01*
X134805Y354084D01*
X134131Y353075D01*
X133894Y351886D01*
X134131Y350697D01*
X134805Y349689D01*
X135813Y349015D01*
X137002Y348778D01*
X138191Y349015D01*
X139199Y349689D01*
X139873Y350697D01*
X140110Y351886D01*
X139873Y353075D01*
X139199Y354084D01*
X138191Y354757D01*
X137002Y354994D01*
D02*
G37*
G36*
X351536Y327212D02*
X350347Y326975D01*
X349338Y326301D01*
X348665Y325293D01*
X348428Y324104D01*
X348665Y322915D01*
X349158Y322176D01*
X348678Y321172D01*
X348529Y321007D01*
X347980Y321116D01*
X346791Y320879D01*
X345783Y320205D01*
X345109Y319197D01*
X344872Y318008D01*
X345109Y316819D01*
X345783Y315811D01*
X346791Y315137D01*
X347980Y314900D01*
X349169Y315137D01*
X350177Y315811D01*
X350851Y316819D01*
X351088Y318008D01*
X350851Y319197D01*
X350358Y319936D01*
X350838Y320940D01*
X350987Y321105D01*
X351536Y320996D01*
X352725Y321233D01*
X353733Y321907D01*
X354407Y322915D01*
X354644Y324104D01*
X354407Y325293D01*
X353733Y326301D01*
X352725Y326975D01*
X351536Y327212D01*
D02*
G37*
G36*
X308610Y332462D02*
X306907Y332238D01*
X305320Y331581D01*
X303957Y330535D01*
X302911Y329172D01*
X302254Y327585D01*
X302030Y325882D01*
X302254Y324179D01*
X302911Y322592D01*
X303957Y321229D01*
X305320Y320183D01*
X306907Y319526D01*
X308610Y319302D01*
X310313Y319526D01*
X311900Y320183D01*
X313263Y321229D01*
X314309Y322592D01*
X314966Y324179D01*
X315190Y325882D01*
X314966Y327585D01*
X314309Y329172D01*
X313263Y330535D01*
X311900Y331581D01*
X310313Y332238D01*
X308610Y332462D01*
D02*
G37*
G36*
X242002Y324104D02*
X240813Y323867D01*
X239805Y323194D01*
X239131Y322185D01*
X238894Y320996D01*
X239131Y319807D01*
X239805Y318799D01*
X240813Y318125D01*
X242002Y317888D01*
X243191Y318125D01*
X244200Y318799D01*
X244873Y319807D01*
X245110Y320996D01*
X244873Y322185D01*
X244200Y323194D01*
X243191Y323867D01*
X242002Y324104D01*
D02*
G37*
G36*
X230944Y323968D02*
X229755Y323731D01*
X228747Y323058D01*
X228073Y322049D01*
X227836Y320860D01*
X228073Y319671D01*
X228747Y318663D01*
X229755Y317989D01*
X230944Y317752D01*
X232133Y317989D01*
X233141Y318663D01*
X233815Y319671D01*
X234052Y320860D01*
X233815Y322049D01*
X233141Y323058D01*
X232133Y323731D01*
X230944Y323968D01*
D02*
G37*
G36*
X24892Y316290D02*
X23703Y316053D01*
X22926Y315534D01*
X22098Y315444D01*
X21270Y315534D01*
X20493Y316053D01*
X19304Y316290D01*
X18115Y316053D01*
X17338Y315534D01*
X16510Y315444D01*
X15682Y315534D01*
X14905Y316053D01*
X13716Y316290D01*
X12527Y316053D01*
X11518Y315380D01*
X11432Y315250D01*
X9904D01*
X9818Y315380D01*
X8809Y316053D01*
X7620Y316290D01*
X6431Y316053D01*
X5422Y315380D01*
X4749Y314371D01*
X4512Y313182D01*
X4749Y311993D01*
X5422Y310984D01*
X6431Y310311D01*
X7620Y310074D01*
X8809Y310311D01*
X9818Y310984D01*
X9904Y311114D01*
X11432D01*
X11518Y310984D01*
X12527Y310311D01*
X12842Y310248D01*
Y308953D01*
X12781Y308941D01*
X11773Y308267D01*
X11099Y307259D01*
X10862Y306070D01*
X11099Y304881D01*
X11773Y303873D01*
X12781Y303199D01*
X13970Y302962D01*
X15159Y303199D01*
X15936Y303718D01*
X16764Y303808D01*
X17592Y303718D01*
X18369Y303199D01*
X19558Y302962D01*
X20747Y303199D01*
X21524Y303718D01*
X22352Y303808D01*
X23180Y303718D01*
X23957Y303199D01*
X25146Y302962D01*
X26335Y303199D01*
X27343Y303873D01*
X27564Y304202D01*
X29079D01*
X29299Y303873D01*
X30307Y303199D01*
X31496Y302962D01*
X32685Y303199D01*
X33462Y303718D01*
X34290Y303808D01*
X35118Y303718D01*
X35895Y303199D01*
X37084Y302962D01*
X38273Y303199D01*
X39050Y303718D01*
X39878Y303808D01*
X40706Y303718D01*
X41483Y303199D01*
X42672Y302962D01*
X43861Y303199D01*
X44869Y303873D01*
X45543Y304881D01*
X45780Y306070D01*
X45543Y307259D01*
X44869Y308267D01*
X43861Y308941D01*
X42672Y309178D01*
X41483Y308941D01*
X40706Y308422D01*
X39878Y308332D01*
X39050Y308422D01*
X38273Y308941D01*
X37084Y309178D01*
X35895Y308941D01*
X35118Y308422D01*
X34290Y308332D01*
X33462Y308422D01*
X32685Y308941D01*
X31496Y309178D01*
X30307Y308941D01*
X29299Y308267D01*
X29079Y307938D01*
X27564D01*
X27343Y308267D01*
X26335Y308941D01*
X26020Y309004D01*
Y310299D01*
X26081Y310311D01*
X27090Y310984D01*
X27763Y311993D01*
X28000Y313182D01*
X27763Y314371D01*
X27090Y315380D01*
X26081Y316053D01*
X24892Y316290D01*
D02*
G37*
G36*
X68072Y325180D02*
X66883Y324943D01*
X65875Y324269D01*
X65201Y323261D01*
X64964Y322072D01*
X65201Y320883D01*
X65720Y320106D01*
X65810Y319278D01*
X65720Y318450D01*
X65201Y317673D01*
X64964Y316484D01*
X65201Y315295D01*
X65720Y314518D01*
X65810Y313690D01*
X65720Y312862D01*
X65201Y312085D01*
X64964Y310896D01*
X65201Y309707D01*
X65875Y308699D01*
X66883Y308025D01*
X68072Y307788D01*
X69261Y308025D01*
X70269Y308699D01*
X70943Y309707D01*
X71180Y310896D01*
X70943Y312085D01*
X70424Y312862D01*
X70334Y313690D01*
X70424Y314518D01*
X70943Y315295D01*
X71180Y316484D01*
X70943Y317673D01*
X70424Y318450D01*
X70334Y319278D01*
X70424Y320106D01*
X70943Y320883D01*
X71180Y322072D01*
X70943Y323261D01*
X70269Y324269D01*
X69261Y324943D01*
X68072Y325180D01*
D02*
G37*
G36*
X304298Y312505D02*
X302595Y312281D01*
X301008Y311623D01*
X299645Y310578D01*
X298599Y309215D01*
X297942Y307628D01*
X297718Y305925D01*
X297942Y304222D01*
X298599Y302635D01*
X299645Y301272D01*
X301008Y300226D01*
X302595Y299569D01*
X304298Y299345D01*
X306001Y299569D01*
X307588Y300226D01*
X308951Y301272D01*
X309997Y302635D01*
X310654Y304222D01*
X310878Y305925D01*
X310654Y307628D01*
X309997Y309215D01*
X308951Y310578D01*
X307588Y311623D01*
X306001Y312281D01*
X304298Y312505D01*
D02*
G37*
G36*
X400050Y302828D02*
X398861Y302591D01*
X397853Y301917D01*
X397179Y300909D01*
X396942Y299720D01*
X397179Y298531D01*
X397853Y297523D01*
X398861Y296849D01*
X400050Y296612D01*
X401239Y296849D01*
X402248Y297523D01*
X402921Y298531D01*
X403158Y299720D01*
X402921Y300909D01*
X402248Y301917D01*
X401239Y302591D01*
X400050Y302828D01*
D02*
G37*
G36*
X122428Y301558D02*
X121239Y301321D01*
X120231Y300648D01*
X119557Y299639D01*
X119320Y298450D01*
X119557Y297261D01*
X120231Y296252D01*
X121239Y295579D01*
X122428Y295342D01*
X123617Y295579D01*
X124626Y296252D01*
X125299Y297261D01*
X125536Y298450D01*
X125299Y299639D01*
X124626Y300648D01*
X123617Y301321D01*
X122428Y301558D01*
D02*
G37*
G36*
X334137Y283016D02*
X332948Y282779D01*
X331940Y282106D01*
X331916Y282071D01*
X330389D01*
X330365Y282106D01*
X329357Y282779D01*
X328168Y283016D01*
X326979Y282779D01*
X325970Y282106D01*
X325947Y282071D01*
X324420D01*
X324397Y282106D01*
X323388Y282779D01*
X322199Y283016D01*
X321010Y282779D01*
X320001Y282106D01*
X319328Y281097D01*
X319091Y279908D01*
X319328Y278719D01*
X320001Y277710D01*
X321010Y277037D01*
X322199Y276800D01*
X323388Y277037D01*
X324397Y277710D01*
X324420Y277745D01*
X325947D01*
X325970Y277710D01*
X326979Y277037D01*
X328168Y276800D01*
X329357Y277037D01*
X330365Y277710D01*
X330389Y277745D01*
X331916D01*
X331940Y277710D01*
X332948Y277037D01*
X334137Y276800D01*
X335326Y277037D01*
X336334Y277710D01*
X337008Y278719D01*
X337245Y279908D01*
X337008Y281097D01*
X336334Y282106D01*
X335326Y282779D01*
X334137Y283016D01*
D02*
G37*
G36*
X366141Y282762D02*
X364952Y282525D01*
X363943Y281852D01*
X363920Y281817D01*
X362393D01*
X362369Y281852D01*
X361361Y282525D01*
X360172Y282762D01*
X358983Y282525D01*
X357975Y281852D01*
X357951Y281817D01*
X356424D01*
X356400Y281852D01*
X355392Y282525D01*
X354203Y282762D01*
X353014Y282525D01*
X352006Y281852D01*
X351332Y280843D01*
X351095Y279654D01*
X351332Y278465D01*
X352006Y277456D01*
X353014Y276783D01*
X354203Y276546D01*
X355392Y276783D01*
X356400Y277456D01*
X356424Y277491D01*
X357951D01*
X357975Y277456D01*
X358983Y276783D01*
X360172Y276546D01*
X361361Y276783D01*
X362369Y277456D01*
X362393Y277491D01*
X363920D01*
X363943Y277456D01*
X364952Y276783D01*
X366141Y276546D01*
X367330Y276783D01*
X368339Y277456D01*
X369012Y278465D01*
X369249Y279654D01*
X369012Y280843D01*
X368339Y281852D01*
X367330Y282525D01*
X366141Y282762D01*
D02*
G37*
G36*
X304298Y292294D02*
X302595Y292070D01*
X301008Y291412D01*
X299645Y290367D01*
X298599Y289004D01*
X297942Y287417D01*
X297718Y285714D01*
X297942Y284011D01*
X298599Y282424D01*
X299645Y281061D01*
X301008Y280015D01*
X302595Y279358D01*
X304298Y279133D01*
X306001Y279358D01*
X307588Y280015D01*
X308951Y281061D01*
X309997Y282424D01*
X310654Y284011D01*
X310878Y285714D01*
X310654Y287417D01*
X309997Y289004D01*
X308951Y290367D01*
X307588Y291412D01*
X306001Y292070D01*
X304298Y292294D01*
D02*
G37*
G36*
X369824Y300288D02*
X368635Y300051D01*
X367626Y299377D01*
X366953Y298369D01*
X366716Y297180D01*
X366953Y295991D01*
X367626Y294982D01*
X368635Y294309D01*
X369824Y294072D01*
X369991Y293933D01*
X370695Y292951D01*
X370526Y292100D01*
X370763Y290911D01*
X371437Y289902D01*
X372445Y289229D01*
X373634Y288992D01*
X374823Y289229D01*
X375441Y289642D01*
X376357Y288726D01*
X376351Y288717D01*
X376114Y287528D01*
X376351Y286339D01*
X376518Y286089D01*
X376933Y285115D01*
X376518Y284142D01*
X376351Y283891D01*
X376114Y282702D01*
X376351Y281513D01*
X376518Y281262D01*
X376933Y280289D01*
X376518Y279315D01*
X376351Y279065D01*
X376114Y277876D01*
X376351Y276687D01*
X377024Y275679D01*
X378033Y275005D01*
X379222Y274768D01*
X380411Y275005D01*
X381419Y275679D01*
X381443Y275713D01*
X382970D01*
X382994Y275679D01*
X384002Y275005D01*
X385191Y274768D01*
X386380Y275005D01*
X387388Y275679D01*
X387412Y275713D01*
X388939D01*
X388963Y275679D01*
X389971Y275005D01*
X391160Y274768D01*
X392349Y275005D01*
X393358Y275679D01*
X394031Y276687D01*
X394268Y277876D01*
X394031Y279065D01*
X393864Y279315D01*
X393449Y280289D01*
X393864Y281262D01*
X394031Y281513D01*
X394268Y282702D01*
X394031Y283891D01*
X393864Y284142D01*
X393449Y285115D01*
X393864Y286089D01*
X394031Y286339D01*
X394268Y287528D01*
X394031Y288717D01*
X393358Y289725D01*
X392349Y290399D01*
X391160Y290636D01*
X389971Y290399D01*
X388963Y289725D01*
X387515D01*
X386507Y290399D01*
X385318Y290636D01*
X384129Y290399D01*
X383120Y289725D01*
X383034Y289596D01*
X381506D01*
X381419Y289725D01*
X380411Y290399D01*
X379222Y290636D01*
X378033Y290399D01*
X377415Y289986D01*
X376499Y290902D01*
X376505Y290911D01*
X376742Y292100D01*
X376505Y293289D01*
X375831Y294298D01*
X374823Y294971D01*
X373634Y295208D01*
X373467Y295347D01*
X372762Y296329D01*
X372932Y297180D01*
X372695Y298369D01*
X372021Y299377D01*
X371013Y300051D01*
X369824Y300288D01*
D02*
G37*
G36*
X277114Y273110D02*
X275925Y272873D01*
X274916Y272199D01*
X274243Y271191D01*
X274006Y270002D01*
X274243Y268813D01*
X274916Y267805D01*
X275925Y267131D01*
X277114Y266894D01*
X278303Y267131D01*
X279312Y267805D01*
X279985Y268813D01*
X280222Y270002D01*
X279985Y271191D01*
X279312Y272199D01*
X278303Y272873D01*
X277114Y273110D01*
D02*
G37*
G36*
X304298Y271756D02*
X302595Y271532D01*
X301008Y270875D01*
X299645Y269829D01*
X298599Y268466D01*
X297942Y266879D01*
X297718Y265176D01*
X297942Y263473D01*
X298599Y261886D01*
X299645Y260523D01*
X301008Y259477D01*
X302595Y258820D01*
X304298Y258596D01*
X306001Y258820D01*
X307588Y259477D01*
X308951Y260523D01*
X309997Y261886D01*
X310654Y263473D01*
X310878Y265176D01*
X310654Y266879D01*
X309997Y268466D01*
X308951Y269829D01*
X307588Y270875D01*
X306001Y271532D01*
X304298Y271756D01*
D02*
G37*
G36*
X333502Y258378D02*
X332313Y258141D01*
X331305Y257467D01*
X331281Y257433D01*
X329754D01*
X329730Y257467D01*
X328722Y258141D01*
X327533Y258378D01*
X326344Y258141D01*
X325336Y257467D01*
X325312Y257433D01*
X323785D01*
X323761Y257467D01*
X322753Y258141D01*
X321564Y258378D01*
X320375Y258141D01*
X319366Y257467D01*
X318693Y256459D01*
X318456Y255270D01*
X318693Y254081D01*
X319366Y253072D01*
X320375Y252399D01*
X321564Y252162D01*
X322753Y252399D01*
X323761Y253072D01*
X323785Y253107D01*
X325136D01*
X325843Y252474D01*
X325881Y252056D01*
X325703Y251107D01*
X324370Y250555D01*
X323007Y249509D01*
X321961Y248146D01*
X321304Y246559D01*
X321080Y244856D01*
X321304Y243153D01*
X321961Y241566D01*
X323007Y240203D01*
X324370Y239157D01*
X325957Y238500D01*
X327660Y238276D01*
X329363Y238500D01*
X330950Y239157D01*
X332313Y240203D01*
X333359Y241566D01*
X334016Y243153D01*
X334240Y244856D01*
X334016Y246559D01*
X333359Y248146D01*
X332313Y249509D01*
X330950Y250555D01*
X329555Y251133D01*
X329342Y251887D01*
X329323Y252498D01*
X329979Y253107D01*
X331281D01*
X331305Y253072D01*
X332313Y252399D01*
X333502Y252162D01*
X334691Y252399D01*
X335700Y253072D01*
X336373Y254081D01*
X336610Y255270D01*
X336373Y256459D01*
X335700Y257467D01*
X334691Y258141D01*
X333502Y258378D01*
D02*
G37*
G36*
X304298Y251872D02*
X302595Y251647D01*
X301008Y250990D01*
X299645Y249944D01*
X298599Y248582D01*
X297942Y246994D01*
X297718Y245291D01*
X297942Y243588D01*
X298599Y242001D01*
X299645Y240639D01*
X301008Y239593D01*
X302595Y238935D01*
X304298Y238711D01*
X306001Y238935D01*
X307588Y239593D01*
X308951Y240639D01*
X309997Y242001D01*
X310654Y243588D01*
X310878Y245291D01*
X310654Y246994D01*
X309997Y248582D01*
X308951Y249944D01*
X307588Y250990D01*
X306001Y251647D01*
X304298Y251872D01*
D02*
G37*
G36*
X397510Y266572D02*
X360680D01*
X359514Y266088D01*
X354180Y260754D01*
X353696Y259588D01*
Y250698D01*
X354180Y249532D01*
X358244Y245468D01*
X359410Y244984D01*
X367363D01*
X371984Y240363D01*
Y238057D01*
X370714Y237804D01*
X370106Y239274D01*
X368980Y240742D01*
X367512Y241868D01*
X365804Y242575D01*
X363970Y242817D01*
X352970D01*
X351136Y242575D01*
X349428Y241868D01*
X347960Y240742D01*
X346834Y239274D01*
X346127Y237566D01*
X345885Y235732D01*
X346127Y233898D01*
X346834Y232190D01*
X347960Y230722D01*
X349428Y229597D01*
X351136Y228889D01*
X352970Y228647D01*
X363970D01*
X365804Y228889D01*
X367512Y229597D01*
X368980Y230722D01*
X370106Y232190D01*
X370714Y233660D01*
X371984Y233407D01*
Y228521D01*
X369420Y225956D01*
X368936Y224790D01*
Y205994D01*
X369420Y204828D01*
X369854Y204648D01*
Y204508D01*
X370191D01*
X370586Y204344D01*
X414528D01*
X415694Y204828D01*
X416178Y205994D01*
Y221742D01*
X415694Y222908D01*
X412900Y225702D01*
X411734Y226186D01*
X401495D01*
X398693Y228988D01*
X398770Y229327D01*
X399095Y229533D01*
X400172Y229760D01*
X401523Y228723D01*
X403475Y227915D01*
X405570Y227639D01*
X418570D01*
X420665Y227915D01*
X422617Y228723D01*
X424293Y230009D01*
X425579Y231685D01*
X426387Y233637D01*
X426663Y235732D01*
X426387Y237827D01*
X425579Y239779D01*
X424293Y241455D01*
X422617Y242741D01*
X420665Y243549D01*
X418570Y243825D01*
X405570D01*
X403475Y243549D01*
X402880Y243303D01*
X402160Y244379D01*
X402740Y244960D01*
X403224Y246126D01*
Y260858D01*
X402740Y262024D01*
X398676Y266088D01*
X397510Y266572D01*
D02*
G37*
G36*
X74168Y232724D02*
X72979Y232487D01*
X71971Y231814D01*
X71297Y230805D01*
X71060Y229616D01*
X71297Y228427D01*
X71971Y227418D01*
X72979Y226745D01*
X74168Y226508D01*
X75357Y226745D01*
X76365Y227418D01*
X77039Y228427D01*
X77276Y229616D01*
X77039Y230805D01*
X76365Y231814D01*
X75357Y232487D01*
X74168Y232724D01*
D02*
G37*
G36*
X338582Y219516D02*
X337393Y219279D01*
X336385Y218605D01*
X335711Y217597D01*
X335474Y216408D01*
X335711Y215219D01*
X336385Y214210D01*
X337393Y213537D01*
X338582Y213300D01*
X339771Y213537D01*
X340779Y214210D01*
X341453Y215219D01*
X341690Y216408D01*
X341453Y217597D01*
X340779Y218605D01*
X339771Y219279D01*
X338582Y219516D01*
D02*
G37*
G36*
X345948Y195386D02*
X345002Y195198D01*
X343916D01*
X342750Y194714D01*
X340718Y192682D01*
X340234Y191516D01*
X340234Y166878D01*
X340718Y165712D01*
X343512Y162918D01*
X344678Y162434D01*
X403606D01*
X403679Y162465D01*
X403755Y162441D01*
X404902Y162508D01*
Y162545D01*
X411299Y163127D01*
X411797Y163388D01*
X412316Y163603D01*
X414932Y166220D01*
X415416Y167386D01*
Y189738D01*
X414932Y190904D01*
X411122Y194714D01*
X409956Y195198D01*
X346894Y195198D01*
X345948Y195386D01*
D02*
G37*
G36*
X363970Y156417D02*
X352970D01*
X351136Y156175D01*
X349428Y155468D01*
X347960Y154342D01*
X346834Y152874D01*
X346127Y151166D01*
X345885Y149332D01*
X346127Y147498D01*
X346834Y145790D01*
X347960Y144323D01*
X349428Y143197D01*
X351136Y142489D01*
X352970Y142247D01*
X363970D01*
X365804Y142489D01*
X367512Y143197D01*
X368980Y144323D01*
X370106Y145790D01*
X370813Y147498D01*
X371055Y149332D01*
X370813Y151166D01*
X370106Y152874D01*
X368980Y154342D01*
X367512Y155468D01*
X365804Y156175D01*
X363970Y156417D01*
D02*
G37*
G36*
X328168Y152630D02*
X326465Y152406D01*
X324878Y151749D01*
X323515Y150703D01*
X322469Y149340D01*
X321812Y147753D01*
X321588Y146050D01*
X321812Y144347D01*
X322469Y142760D01*
X323515Y141397D01*
X324534Y140616D01*
X324030Y139401D01*
X323088Y139525D01*
X320701Y139211D01*
X318477Y138289D01*
X316566Y136824D01*
X315101Y134913D01*
X314179Y132689D01*
X313865Y130302D01*
X314179Y127915D01*
X315101Y125691D01*
X316566Y123780D01*
X318477Y122315D01*
X320701Y121393D01*
X323088Y121079D01*
X325475Y121393D01*
X327699Y122315D01*
X329610Y123780D01*
X331075Y125691D01*
X331997Y127915D01*
X332311Y130302D01*
X331997Y132689D01*
X331075Y134913D01*
X329610Y136824D01*
X327700Y138289D01*
X328168Y139470D01*
X329871Y139694D01*
X331458Y140351D01*
X332821Y141397D01*
X333867Y142760D01*
X334524Y144347D01*
X334748Y146050D01*
X334524Y147753D01*
X333867Y149340D01*
X332821Y150703D01*
X331458Y151749D01*
X329871Y152406D01*
X328168Y152630D01*
D02*
G37*
G36*
X339896Y139160D02*
X338396D01*
Y137160D01*
X339896D01*
Y139160D01*
D02*
G37*
G36*
Y134620D02*
X338396D01*
Y132620D01*
X339896D01*
Y134620D01*
D02*
G37*
G36*
X338710Y130666D02*
X335960D01*
Y128016D01*
X338710D01*
Y130666D01*
D02*
G37*
G36*
X124224Y151454D02*
X99224D01*
Y126454D01*
X124224D01*
Y151454D01*
D02*
G37*
G36*
X338710Y125476D02*
X335960D01*
Y122826D01*
X338710D01*
Y125476D01*
D02*
G37*
G36*
X100584Y125028D02*
X99395Y124791D01*
X98386Y124117D01*
X97713Y123109D01*
X97476Y121920D01*
X97713Y120731D01*
X98386Y119722D01*
X99395Y119049D01*
X100584Y118812D01*
X101773Y119049D01*
X102781Y119722D01*
X103455Y120731D01*
X103692Y121920D01*
X103455Y123109D01*
X102781Y124117D01*
X101773Y124791D01*
X100584Y125028D01*
D02*
G37*
G36*
X107188Y117154D02*
X105999Y116917D01*
X104991Y116243D01*
X104317Y115235D01*
X104080Y114046D01*
X104317Y112857D01*
X104991Y111848D01*
X105999Y111175D01*
X107188Y110938D01*
X108377Y111175D01*
X109385Y111848D01*
X110059Y112857D01*
X110296Y114046D01*
X110059Y115235D01*
X109385Y116243D01*
X108377Y116917D01*
X107188Y117154D01*
D02*
G37*
G36*
X161798Y113980D02*
X160609Y113743D01*
X159600Y113069D01*
X158927Y112061D01*
X158690Y110872D01*
X158927Y109683D01*
X159600Y108674D01*
X160609Y108001D01*
X161798Y107764D01*
X162987Y108001D01*
X163995Y108674D01*
X164669Y109683D01*
X164906Y110872D01*
X164669Y112061D01*
X163995Y113069D01*
X162987Y113743D01*
X161798Y113980D01*
D02*
G37*
G36*
X152654Y110550D02*
X151465Y110313D01*
X150456Y109640D01*
X149783Y108631D01*
X149546Y107442D01*
X149783Y106253D01*
X150456Y105245D01*
X151465Y104571D01*
X152654Y104334D01*
X153843Y104571D01*
X154852Y105245D01*
X155525Y106253D01*
X155762Y107442D01*
X155525Y108631D01*
X154852Y109640D01*
X153843Y110313D01*
X152654Y110550D01*
D02*
G37*
G36*
X121666Y112836D02*
X120477Y112599D01*
X119468Y111925D01*
X118795Y110917D01*
X118558Y109728D01*
X118795Y108539D01*
X119468Y107530D01*
X120477Y106857D01*
X121666Y106620D01*
X122352Y106757D01*
X123318Y106154D01*
X123552Y105799D01*
X123741Y104849D01*
X124415Y103841D01*
X125423Y103167D01*
X126612Y102930D01*
X127801Y103167D01*
X128809Y103841D01*
X129483Y104849D01*
X129720Y106038D01*
X129483Y107227D01*
X128809Y108236D01*
X127801Y108909D01*
X126612Y109146D01*
X125926Y109009D01*
X124960Y109612D01*
X124726Y109967D01*
X124537Y110917D01*
X123863Y111925D01*
X122855Y112599D01*
X121666Y112836D01*
D02*
G37*
G36*
X55118Y104708D02*
X53929Y104471D01*
X52920Y103798D01*
X52247Y102789D01*
X52010Y101600D01*
X52247Y100411D01*
X52920Y99403D01*
X53929Y98729D01*
X55118Y98492D01*
X56307Y98729D01*
X57316Y99403D01*
X57989Y100411D01*
X58226Y101600D01*
X57989Y102789D01*
X57316Y103798D01*
X56307Y104471D01*
X55118Y104708D01*
D02*
G37*
G36*
X279654Y104454D02*
X278465Y104217D01*
X277456Y103544D01*
X276783Y102535D01*
X276546Y101346D01*
X276783Y100157D01*
X277456Y99149D01*
X278465Y98475D01*
X279654Y98238D01*
X280843Y98475D01*
X281852Y99149D01*
X282525Y100157D01*
X282762Y101346D01*
X282525Y102535D01*
X281852Y103544D01*
X280843Y104217D01*
X279654Y104454D01*
D02*
G37*
G36*
X137160Y101914D02*
X135971Y101677D01*
X134963Y101004D01*
X134289Y99995D01*
X134052Y98806D01*
X134289Y97617D01*
X134963Y96608D01*
X135971Y95935D01*
X137160Y95698D01*
X138349Y95935D01*
X139358Y96608D01*
X140031Y97617D01*
X140268Y98806D01*
X140031Y99995D01*
X139358Y101004D01*
X138349Y101677D01*
X137160Y101914D01*
D02*
G37*
G36*
X104140Y101152D02*
X102951Y100915D01*
X101943Y100241D01*
X101269Y99233D01*
X101032Y98044D01*
X101269Y96855D01*
X101943Y95847D01*
X102951Y95173D01*
X104140Y94936D01*
X105329Y95173D01*
X106337Y95847D01*
X107011Y96855D01*
X107248Y98044D01*
X107011Y99233D01*
X106337Y100241D01*
X105329Y100915D01*
X104140Y101152D01*
D02*
G37*
G36*
X295402Y104454D02*
X294213Y104217D01*
X293204Y103544D01*
X292531Y102535D01*
X292294Y101346D01*
X292531Y100157D01*
X293204Y99149D01*
X294213Y98475D01*
X294401Y98437D01*
Y97143D01*
X294213Y97105D01*
X293204Y96432D01*
X292531Y95423D01*
X292294Y94234D01*
X292531Y93045D01*
X293204Y92037D01*
X294213Y91363D01*
X295402Y91126D01*
X296591Y91363D01*
X297600Y92037D01*
X298273Y93045D01*
X298510Y94234D01*
X298273Y95423D01*
X297600Y96432D01*
X296591Y97105D01*
X296403Y97143D01*
Y98437D01*
X296591Y98475D01*
X297600Y99149D01*
X298273Y100157D01*
X298510Y101346D01*
X298273Y102535D01*
X297600Y103544D01*
X296591Y104217D01*
X295402Y104454D01*
D02*
G37*
G36*
X287528D02*
X286339Y104217D01*
X285331Y103544D01*
X284657Y102535D01*
X284420Y101346D01*
X284657Y100157D01*
X285331Y99149D01*
X286339Y98475D01*
X286527Y98437D01*
Y97143D01*
X286339Y97105D01*
X285331Y96432D01*
X284657Y95423D01*
X284420Y94234D01*
X284657Y93045D01*
X285331Y92037D01*
X286339Y91363D01*
X287528Y91126D01*
X288717Y91363D01*
X289725Y92037D01*
X290399Y93045D01*
X290636Y94234D01*
X290399Y95423D01*
X289725Y96432D01*
X288717Y97105D01*
X288529Y97143D01*
Y98437D01*
X288717Y98475D01*
X289725Y99149D01*
X290399Y100157D01*
X290636Y101346D01*
X290399Y102535D01*
X289725Y103544D01*
X288717Y104217D01*
X287528Y104454D01*
D02*
G37*
G36*
X45720Y92516D02*
X44531Y92279D01*
X43523Y91606D01*
X42849Y90597D01*
X42612Y89408D01*
X42849Y88219D01*
X43523Y87211D01*
X44531Y86537D01*
X45720Y86300D01*
X46909Y86537D01*
X47917Y87211D01*
X48591Y88219D01*
X48828Y89408D01*
X48591Y90597D01*
X47917Y91606D01*
X46909Y92279D01*
X45720Y92516D01*
D02*
G37*
G36*
X158878Y87310D02*
X157689Y87073D01*
X156680Y86399D01*
X156007Y85391D01*
X155770Y84202D01*
X156007Y83013D01*
X156680Y82004D01*
X157689Y81331D01*
X158878Y81094D01*
X160067Y81331D01*
X161075Y82004D01*
X161749Y83013D01*
X161986Y84202D01*
X161749Y85391D01*
X161075Y86399D01*
X160067Y87073D01*
X158878Y87310D01*
D02*
G37*
G36*
X169418Y86928D02*
X168229Y86691D01*
X167220Y86018D01*
X166547Y85009D01*
X166310Y83820D01*
X166547Y82631D01*
X167220Y81622D01*
X168229Y80949D01*
X169418Y80712D01*
X170607Y80949D01*
X171616Y81622D01*
X172289Y82631D01*
X172526Y83820D01*
X172289Y85009D01*
X171616Y86018D01*
X170607Y86691D01*
X169418Y86928D01*
D02*
G37*
G36*
X191684Y76454D02*
X181684D01*
Y71954D01*
X191684D01*
Y76454D01*
D02*
G37*
G36*
X34224D02*
X24224D01*
Y71954D01*
X34224D01*
Y76454D01*
D02*
G37*
G36*
X21684D02*
X11684D01*
Y71954D01*
X21684D01*
Y76454D01*
D02*
G37*
G36*
X120222Y77356D02*
X119033Y77119D01*
X118025Y76445D01*
X117351Y75437D01*
X117114Y74248D01*
X117351Y73059D01*
X118025Y72050D01*
X119033Y71377D01*
X120222Y71140D01*
X121411Y71377D01*
X122420Y72050D01*
X123093Y73059D01*
X123330Y74248D01*
X123093Y75437D01*
X122420Y76445D01*
X121411Y77119D01*
X120222Y77356D01*
D02*
G37*
G36*
X160528Y76260D02*
X159339Y76023D01*
X158330Y75349D01*
X157657Y74341D01*
X157420Y73152D01*
X157657Y71963D01*
X158330Y70954D01*
X159339Y70281D01*
X160528Y70044D01*
X161717Y70281D01*
X162726Y70954D01*
X163399Y71963D01*
X163636Y73152D01*
X163399Y74341D01*
X162726Y75349D01*
X161717Y76023D01*
X160528Y76260D01*
D02*
G37*
G36*
X314298Y69850D02*
X309798D01*
Y61850D01*
X314298D01*
Y69850D01*
D02*
G37*
G36*
X320658Y41738D02*
X318008D01*
Y38988D01*
X320658D01*
Y41738D01*
D02*
G37*
G36*
X315468D02*
X312818D01*
Y38988D01*
X315468D01*
Y41738D01*
D02*
G37*
G36*
X410062Y52145D02*
X407020Y51744D01*
X404185Y50570D01*
X401750Y48702D01*
X399882Y46267D01*
X398708Y43432D01*
X398307Y40390D01*
X398708Y37348D01*
X399882Y34513D01*
X401750Y32078D01*
X404185Y30210D01*
X407020Y29036D01*
X410062Y28635D01*
X413104Y29036D01*
X415939Y30210D01*
X418374Y32078D01*
X420242Y34513D01*
X421416Y37348D01*
X421817Y40390D01*
X421416Y43432D01*
X420242Y46267D01*
X418374Y48702D01*
X415939Y50570D01*
X413104Y51744D01*
X410062Y52145D01*
D02*
G37*
G36*
X339962D02*
X336920Y51744D01*
X334085Y50570D01*
X331650Y48702D01*
X329782Y46267D01*
X328608Y43432D01*
X328208Y40390D01*
X328608Y37348D01*
X329782Y34513D01*
X331650Y32078D01*
X334085Y30210D01*
X336920Y29036D01*
X339962Y28635D01*
X343004Y29036D01*
X345839Y30210D01*
X348274Y32078D01*
X350142Y34513D01*
X351316Y37348D01*
X351717Y40390D01*
X351316Y43432D01*
X350142Y46267D01*
X348274Y48702D01*
X345839Y50570D01*
X343004Y51744D01*
X339962Y52145D01*
D02*
G37*
G36*
X397512Y24899D02*
X395077Y24579D01*
X392807Y23639D01*
X390859Y22143D01*
X389363Y20195D01*
X388423Y17925D01*
X388103Y15490D01*
X388423Y13055D01*
X389363Y10785D01*
X390859Y8837D01*
X392807Y7341D01*
X395077Y6401D01*
X397512Y6080D01*
X399948Y6401D01*
X402217Y7341D01*
X404166Y8837D01*
X405661Y10785D01*
X406601Y13055D01*
X406922Y15490D01*
X406601Y17925D01*
X405661Y20195D01*
X404166Y22143D01*
X402217Y23639D01*
X399948Y24579D01*
X397512Y24899D01*
D02*
G37*
G36*
X352512D02*
X350077Y24579D01*
X347807Y23639D01*
X345859Y22143D01*
X344363Y20195D01*
X343423Y17925D01*
X343103Y15490D01*
X343423Y13055D01*
X344363Y10785D01*
X345859Y8837D01*
X347807Y7341D01*
X350077Y6401D01*
X352512Y6080D01*
X354947Y6401D01*
X357217Y7341D01*
X359166Y8837D01*
X360661Y10785D01*
X361601Y13055D01*
X361922Y15490D01*
X361601Y17925D01*
X360661Y20195D01*
X359166Y22143D01*
X357217Y23639D01*
X354947Y24579D01*
X352512Y24899D01*
D02*
G37*
G36*
X302514Y8188D02*
X301325Y7951D01*
X300317Y7278D01*
X299643Y6269D01*
X299406Y5080D01*
X299643Y3891D01*
X300317Y2882D01*
X301325Y2209D01*
X302514Y1972D01*
X303703Y2209D01*
X304711Y2882D01*
X305385Y3891D01*
X305622Y5080D01*
X305385Y6269D01*
X304711Y7278D01*
X303703Y7951D01*
X302514Y8188D01*
D02*
G37*
G36*
X262636Y7934D02*
X261447Y7697D01*
X260438Y7024D01*
X259765Y6015D01*
X259528Y4826D01*
X259765Y3637D01*
X260438Y2628D01*
X261447Y1955D01*
X262636Y1718D01*
X263825Y1955D01*
X264834Y2628D01*
X265507Y3637D01*
X265744Y4826D01*
X265507Y6015D01*
X264834Y7024D01*
X263825Y7697D01*
X262636Y7934D01*
D02*
G37*
%LPD*%
G36*
X401574Y260858D02*
Y246126D01*
X396494Y241046D01*
Y228854D01*
X400812Y224536D01*
X411734D01*
X414528Y221742D01*
Y205994D01*
X370586D01*
Y224790D01*
X373634Y227838D01*
Y241046D01*
X368046Y246634D01*
X359410D01*
X355346Y250698D01*
Y259588D01*
X360680Y264922D01*
X397510D01*
X401574Y260858D01*
D02*
G37*
G36*
X413766Y189738D02*
Y167386D01*
X411150Y164770D01*
X403606Y164084D01*
X344678D01*
X341884Y166878D01*
X341884Y191516D01*
X343916Y193548D01*
X409956Y193548D01*
X413766Y189738D01*
D02*
G37*
%LPC*%
G36*
X171450Y301812D02*
X170261Y301575D01*
X169252Y300902D01*
X168579Y299893D01*
X168342Y298704D01*
X168579Y297515D01*
X169252Y296507D01*
X170261Y295833D01*
X171450Y295596D01*
X172639Y295833D01*
X173647Y296507D01*
X174321Y297515D01*
X174558Y298704D01*
X174321Y299893D01*
X173647Y300902D01*
X172639Y301575D01*
X171450Y301812D01*
D02*
G37*
G36*
X253038Y229574D02*
X250038D01*
Y222824D01*
X253038D01*
Y229574D01*
D02*
G37*
G36*
X247498D02*
X244498D01*
Y222824D01*
X247498D01*
Y229574D01*
D02*
G37*
G36*
X253038Y220284D02*
X250038D01*
Y213534D01*
X253038D01*
Y220284D01*
D02*
G37*
G36*
X247498D02*
X244498D01*
Y213534D01*
X247498D01*
Y220284D01*
D02*
G37*
G36*
X268050Y201148D02*
X266861Y200911D01*
X265853Y200238D01*
X265179Y199229D01*
X264942Y198040D01*
X265179Y196851D01*
X265853Y195842D01*
X266861Y195169D01*
X268050Y194932D01*
X269239Y195169D01*
X270247Y195842D01*
X270921Y196851D01*
X271158Y198040D01*
X270921Y199229D01*
X270247Y200238D01*
X269239Y200911D01*
X268050Y201148D01*
D02*
G37*
G36*
X298814Y196678D02*
X296164D01*
Y193928D01*
X298814D01*
Y196678D01*
D02*
G37*
G36*
X293624D02*
X290974D01*
Y193928D01*
X293624D01*
Y196678D01*
D02*
G37*
G36*
X263652Y195132D02*
X262463Y194895D01*
X261455Y194221D01*
X260781Y193213D01*
X260544Y192024D01*
X260781Y190835D01*
X261455Y189827D01*
X262463Y189153D01*
X263652Y188916D01*
X264841Y189153D01*
X265849Y189827D01*
X266523Y190835D01*
X266760Y192024D01*
X266523Y193213D01*
X265849Y194221D01*
X264841Y194895D01*
X263652Y195132D01*
D02*
G37*
G36*
X234664Y185860D02*
X232664D01*
Y184360D01*
X234664D01*
Y185860D01*
D02*
G37*
G36*
X230124D02*
X228124D01*
Y184360D01*
X230124D01*
Y185860D01*
D02*
G37*
G36*
X245586Y185606D02*
X243586D01*
Y184106D01*
X245586D01*
Y185606D01*
D02*
G37*
G36*
X241046D02*
X239046D01*
Y184106D01*
X241046D01*
Y185606D01*
D02*
G37*
G36*
X219258Y172390D02*
X214758D01*
Y164390D01*
X219258D01*
Y172390D01*
D02*
G37*
G36*
Y161850D02*
X214758D01*
Y153850D01*
X219258D01*
Y161850D01*
D02*
G37*
%LPD*%
D16*
X325196Y60230D02*
X330930D01*
X330962Y60198D01*
X231528Y141344D02*
Y163120D01*
Y141344D02*
X234696Y138176D01*
X242528Y143806D02*
Y163120D01*
Y143806D02*
X242570Y143764D01*
X340714Y357940D02*
Y361190D01*
X329992Y347218D02*
X340714Y357940D01*
X321818Y347218D02*
X329992D01*
X242316Y163332D02*
Y177336D01*
Y163332D02*
X242528Y163120D01*
X231394Y163254D02*
Y177590D01*
Y163254D02*
X231528Y163120D01*
X239268Y217424D02*
Y241554D01*
X226568Y204724D02*
X239268Y217424D01*
X192954Y204724D02*
X226568D01*
X280924Y58674D02*
X286258Y53340D01*
Y47498D02*
Y53340D01*
Y47498D02*
X286300Y47456D01*
X316738Y29338D02*
X323724D01*
X316356Y28956D02*
X316738Y29338D01*
X304800Y28956D02*
X316356D01*
X294300Y6436D02*
Y18456D01*
X279356Y8136D02*
Y8636D01*
Y8136D02*
X282478Y5014D01*
Y4796D02*
Y5014D01*
Y4796D02*
X282575Y4699D01*
D25*
X294894Y184278D02*
D03*
Y192658D02*
D03*
X316738Y29338D02*
D03*
Y37718D02*
D03*
D29*
X387378Y213532D02*
D03*
Y171532D02*
D03*
D31*
X236010Y329692D02*
D03*
X241510D02*
D03*
X246370Y269748D02*
D03*
X251870D02*
D03*
X241510Y338074D02*
D03*
X236010D02*
D03*
X241510Y346456D02*
D03*
X236010D02*
D03*
X246170Y255524D02*
D03*
X251670D02*
D03*
X341166Y135890D02*
D03*
X346666D02*
D03*
X333204Y85852D02*
D03*
X327704D02*
D03*
X279356Y8636D02*
D03*
X273856D02*
D03*
D32*
X231394Y183090D02*
D03*
Y177590D02*
D03*
X242316Y182836D02*
D03*
Y177336D02*
D03*
X325196Y60230D02*
D03*
Y54730D02*
D03*
X151459Y366246D02*
D03*
Y360746D02*
D03*
X174658Y366246D02*
D03*
Y360746D02*
D03*
X139860Y366246D02*
D03*
Y360746D02*
D03*
X163059Y366246D02*
D03*
Y360746D02*
D03*
D52*
X421700Y127060D02*
D03*
X365700D02*
D03*
X401700D02*
D03*
D124*
X346666Y135890D02*
X412870D01*
X421700Y127060D01*
X284606Y183134D02*
X285368Y183896D01*
X251670Y255524D02*
Y269748D01*
X310642Y215392D02*
X315722Y210312D01*
Y196082D02*
Y210312D01*
X304298Y184658D02*
X315722Y196082D01*
X296418Y215392D02*
X310642D01*
X269240Y242570D02*
X296418Y215392D01*
X258268Y241554D02*
X259284Y242570D01*
X269240D01*
X303536Y183896D02*
X304298Y184658D01*
X251670Y255524D02*
X256576D01*
X258064Y241758D02*
X258268Y241554D01*
X258064Y241758D02*
Y254036D01*
X256576Y255524D02*
X258064Y254036D01*
D126*
X424200Y54844D02*
Y71060D01*
Y54844D02*
X424434Y54610D01*
X404200Y55966D02*
Y69060D01*
X404114Y55880D02*
X404200Y55966D01*
X382778Y52070D02*
X383200Y52492D01*
Y69060D01*
X264160Y450596D02*
X276352Y462788D01*
X264160Y389636D02*
Y450596D01*
X216662Y342138D02*
X264160Y389636D01*
X216662Y223774D02*
Y342138D01*
X210312Y217424D02*
X216662Y223774D01*
X192954Y217424D02*
X210312D01*
X192954Y128524D02*
X222250D01*
X224282Y126492D01*
X131384Y360746D02*
X139860D01*
X128524Y357886D02*
X131384Y360746D01*
X128524Y352806D02*
Y357886D01*
X56769Y289687D02*
X88011D01*
X151459Y353135D02*
Y360746D01*
X40386Y273304D02*
X56769Y289687D01*
X88011D02*
X151459Y353135D01*
X109220Y231394D02*
X113284D01*
X45720Y167894D02*
X109220Y231394D01*
X49276Y219710D02*
X75184D01*
X22954Y230124D02*
X38862D01*
X49276Y219710D01*
X221488Y107442D02*
X232664D01*
X192954Y115824D02*
X213106D01*
X221488Y107442D01*
X348360Y126746D02*
X365386D01*
X365700Y127060D01*
X131318Y160782D02*
Y198374D01*
X163068Y230124D01*
X111506Y225298D02*
X112522D01*
X163059Y357877D02*
Y360746D01*
X84328Y279146D02*
X163059Y357877D01*
X67818Y279146D02*
X84328D01*
X174658Y346616D02*
Y360746D01*
X152404Y324362D02*
X174658Y346616D01*
X152404Y252824D02*
Y324362D01*
X22700Y102870D02*
X22954Y103124D01*
X6858Y102870D02*
X22700D01*
X45720Y134874D02*
Y167894D01*
X39370Y128524D02*
X45720Y134874D01*
X22954Y128524D02*
X39370D01*
X49784Y163576D02*
X111506Y225298D01*
X49784Y107696D02*
Y163576D01*
X22954Y103124D02*
X45212D01*
X49784Y107696D01*
X218440Y90424D02*
X222504Y86360D01*
X192954Y90424D02*
X218440D01*
X22954Y179324D02*
X39624D01*
X22954Y166624D02*
X40386D01*
X176276Y106934D02*
Y111506D01*
X180086Y103124D02*
X192954D01*
X176276Y106934D02*
X180086Y103124D01*
X170688Y141224D02*
X192954D01*
X246370Y278628D02*
X260096Y292354D01*
Y319024D01*
X246370Y269748D02*
Y278628D01*
X231140Y338074D02*
X236010D01*
X230886Y346456D02*
X230886Y346456D01*
X231140Y329692D02*
X231140Y329692D01*
X236010D01*
X230886Y346456D02*
X236010D01*
X315314Y350112D02*
Y361190D01*
X294894Y329692D02*
X315314Y350112D01*
X241510Y329692D02*
X294894D01*
X302614Y350874D02*
Y361190D01*
X289814Y338074D02*
X302614Y350874D01*
X241510Y338074D02*
X289814D01*
X289914Y351890D02*
Y361190D01*
X284480Y346456D02*
X289914Y351890D01*
X241510Y346456D02*
X284480D01*
X53848Y151384D02*
X62738Y142494D01*
X67818D01*
X172974Y192024D02*
X192954D01*
X146304Y165354D02*
X172974Y192024D01*
X136652Y165354D02*
X146304D01*
X176530Y179324D02*
X192954D01*
X167132Y169926D02*
X176530Y179324D01*
X167132Y163830D02*
Y169926D01*
X126746Y201676D02*
X165104Y240034D01*
X126746Y167640D02*
Y201676D01*
X163068Y230124D02*
X192954D01*
X165104Y240034D02*
Y252824D01*
X22954Y141224D02*
X23970Y140208D01*
X36322D01*
X22954Y153924D02*
X36555D01*
X37063Y153416D01*
X37338D01*
X6858Y217424D02*
X22954D01*
X6604Y217678D02*
X6858Y217424D01*
X22954Y204724D02*
X23462Y204216D01*
X40132D01*
X22954Y192024D02*
X38811D01*
X38862Y191973D01*
X316440Y46990D02*
X322047D01*
X310834D02*
X316440D01*
X310134Y55880D02*
X316992D01*
X325196Y50140D02*
Y54730D01*
X322047Y46990D02*
X325196Y50140D01*
X181483Y411038D02*
X181530Y410991D01*
Y377778D02*
Y410991D01*
X192954Y242824D02*
Y366354D01*
X181530Y377778D02*
X192954Y366354D01*
X139860Y366246D02*
Y378046D01*
X136652Y381254D02*
X139860Y378046D01*
X136652Y381254D02*
Y411038D01*
X142574Y383968D02*
Y396320D01*
X157292Y411038D02*
X159067D01*
X142574Y396320D02*
X157292Y411038D01*
X142574Y383968D02*
X151459Y375083D01*
Y366246D02*
Y375083D01*
X163059Y366246D02*
Y378281D01*
X151130Y390210D02*
X163059Y378281D01*
X174300Y366246D02*
X174658D01*
X173816Y366730D02*
X174300Y366246D01*
X173816Y366730D02*
Y389368D01*
X172974Y390210D02*
X173816Y389368D01*
X40386Y246634D02*
Y273304D01*
X36576Y242824D02*
X40386Y246634D01*
X22954Y242824D02*
X36576D01*
X63504Y252824D02*
Y274832D01*
X67818Y279146D01*
X22954Y115824D02*
X40386D01*
X301710Y47456D02*
X310134Y55880D01*
X298300Y47456D02*
X301710D01*
X192954Y166624D02*
X209550D01*
X241808Y255524D02*
X246170D01*
X239268Y252984D02*
X241808Y255524D01*
X239268Y241554D02*
Y252984D01*
X298300Y18456D02*
X311744D01*
X311912Y18288D01*
X290300Y4550D02*
Y18456D01*
X289306Y3556D02*
X290300Y4550D01*
Y47456D02*
Y63848D01*
X286528Y67620D02*
X290300Y63848D01*
X286528Y67620D02*
Y71120D01*
X316738Y37718D02*
X324992D01*
X304800Y36956D02*
X304816Y36972D01*
X315992D01*
X316738Y37718D01*
X276902Y47456D02*
X282300D01*
X274574Y49784D02*
X276902Y47456D01*
X294300D02*
Y55540D01*
X265368Y40956D02*
X275800D01*
X262890Y43434D02*
X265368Y40956D01*
X304800D02*
X307768D01*
X307784Y40972D01*
Y43940D01*
X310834Y46990D01*
X192954Y141224D02*
X221488D01*
X242528Y120184D01*
Y71120D02*
Y120184D01*
X231528Y71120D02*
Y94354D01*
X222758Y103124D02*
X231528Y94354D01*
X192954Y103124D02*
X222758D01*
X242528Y71120D02*
X242570Y71078D01*
Y54356D02*
Y71078D01*
X250444Y28956D02*
X275800D01*
X242570Y36830D02*
X250444Y28956D01*
X231394Y70986D02*
X231528Y71120D01*
X231394Y55626D02*
Y70986D01*
X250064Y36956D02*
X275800D01*
X231394Y55626D02*
X250064Y36956D01*
D127*
X363200Y78814D02*
G03*
X361423Y83077I-6002J0D01*
G01*
X361415Y83085D02*
G03*
X354697Y85852I-6718J-6772D01*
G01*
X361415Y83085D02*
G03*
X361423Y83077I2157J2153D01*
G01*
X304161Y85852D02*
G03*
X300483Y84329I0J-5203D01*
G01*
D02*
G03*
X297528Y77196I7130J-7133D01*
G01*
X363200Y71060D02*
Y78814D01*
X333204Y85852D02*
X354697D01*
X304161D02*
X325628D01*
X297528Y71120D02*
Y77196D01*
X6096Y90424D02*
X22954D01*
D128*
X273856Y8636D02*
Y24678D01*
X274134Y24956D02*
X275800D01*
X273856Y24678D02*
X274134Y24956D01*
D130*
X323088Y130302D02*
D03*
X14224Y458978D02*
D03*
D131*
X417068Y398272D02*
D03*
Y374396D02*
D03*
X329184Y101600D02*
D03*
X346202Y478790D02*
D03*
X308610Y325882D02*
D03*
X304298Y305925D02*
D03*
X327660Y244856D02*
D03*
X365506Y256032D02*
D03*
X304298Y184658D02*
D03*
Y204869D02*
D03*
Y225080D02*
D03*
Y245291D02*
D03*
X328168Y146050D02*
D03*
X304298Y285714D02*
D03*
X151130Y390210D02*
D03*
X203899Y411038D02*
D03*
X181483D02*
D03*
X159067D02*
D03*
X136652D02*
D03*
X304298Y265176D02*
D03*
X11684Y373700D02*
D03*
X217678Y389956D02*
D03*
X226314Y411038D02*
D03*
X194818Y390210D02*
D03*
X172974D02*
D03*
D132*
X417322Y475742D02*
D03*
D133*
Y450342D02*
D03*
D134*
X412070Y235732D02*
D03*
Y149332D02*
D03*
D135*
X358470Y235732D02*
D03*
Y149332D02*
D03*
D136*
X410062Y40390D02*
D03*
X339962D02*
D03*
D137*
X397512Y15490D02*
D03*
X352512D02*
D03*
D138*
X81026Y158496D02*
D03*
X87884D02*
D03*
X88138Y132080D02*
D03*
X81280D02*
D03*
X131064Y137160D02*
D03*
X136144D02*
D03*
X131064Y132080D02*
D03*
X136144D02*
D03*
X413860Y439420D02*
D03*
X422750Y421640D02*
D03*
Y386080D02*
D03*
Y350520D02*
D03*
Y314960D02*
D03*
X413860Y297180D02*
D03*
X422750Y279400D02*
D03*
Y208280D02*
D03*
Y172720D02*
D03*
X404970Y457200D02*
D03*
Y421640D02*
D03*
Y314960D02*
D03*
Y279400D02*
D03*
X387190Y386080D02*
D03*
X342740Y403860D02*
D03*
Y119380D02*
D03*
X333850Y421640D02*
D03*
X324960Y154940D02*
D03*
X333850Y137160D02*
D03*
X324960Y119380D02*
D03*
X307180Y474980D02*
D03*
Y297180D02*
D03*
X289400Y474980D02*
D03*
X298290Y457200D02*
D03*
X289400Y261620D02*
D03*
X280510Y457200D02*
D03*
X271620Y261620D02*
D03*
X236060Y474980D02*
D03*
X244950Y457200D02*
D03*
X236060Y261620D02*
D03*
X244950Y208280D02*
D03*
X218280Y439420D02*
D03*
X227170Y421640D02*
D03*
X218280Y403860D02*
D03*
X209390Y421640D02*
D03*
Y386080D02*
D03*
X200500Y297180D02*
D03*
X209390Y279400D02*
D03*
X200500Y261620D02*
D03*
X209390Y243840D02*
D03*
X191610Y421640D02*
D03*
X164940Y439420D02*
D03*
X173830Y421640D02*
D03*
X164940Y297180D02*
D03*
X173830Y279400D02*
D03*
Y243840D02*
D03*
X147160Y439420D02*
D03*
X138270Y421640D02*
D03*
X129380Y403860D02*
D03*
X120490Y421640D02*
D03*
X76040Y474980D02*
D03*
X84930Y457200D02*
D03*
X76040Y439420D02*
D03*
Y403860D02*
D03*
X58260Y474980D02*
D03*
X67150Y457200D02*
D03*
X58260Y439420D02*
D03*
X67150Y421640D02*
D03*
X58260Y403860D02*
D03*
Y368300D02*
D03*
X67150Y208280D02*
D03*
X40480Y474980D02*
D03*
X49370Y457200D02*
D03*
X40480Y439420D02*
D03*
X49370Y421640D02*
D03*
X40480Y403860D02*
D03*
X49370Y386080D02*
D03*
X40480Y368300D02*
D03*
X22700Y474980D02*
D03*
X31590Y457200D02*
D03*
X22700Y439420D02*
D03*
X31590Y421640D02*
D03*
X22700Y403860D02*
D03*
X31590Y386080D02*
D03*
X22700Y368300D02*
D03*
X4920Y474980D02*
D03*
Y439420D02*
D03*
X13810Y421640D02*
D03*
X4920Y403860D02*
D03*
X13810Y386080D02*
D03*
X4920Y368300D02*
D03*
Y261620D02*
D03*
Y226060D02*
D03*
X366776Y40132D02*
D03*
X374142D02*
D03*
X381508D02*
D03*
X71788Y456612D02*
D03*
X81788Y461612D02*
D03*
X71788Y446612D02*
D03*
X81788Y441612D02*
D03*
X338836Y145288D02*
D03*
Y150622D02*
D03*
X333502Y156210D02*
D03*
X338836D02*
D03*
X344170D02*
D03*
X333502Y161798D02*
D03*
X338836D02*
D03*
X377444Y148336D02*
D03*
X382778D02*
D03*
X388112D02*
D03*
X377444Y155702D02*
D03*
X382778D02*
D03*
X388112D02*
D03*
X17526Y285242D02*
D03*
X22860D02*
D03*
X28194D02*
D03*
X36068Y293116D02*
D03*
X41402D02*
D03*
X46736D02*
D03*
X20574D02*
D03*
X25908D02*
D03*
X31242D02*
D03*
X4318Y293370D02*
D03*
X9652D02*
D03*
X14986D02*
D03*
X28194Y275590D02*
D03*
X22860D02*
D03*
X17526D02*
D03*
X88900Y414528D02*
D03*
Y421386D02*
D03*
Y427228D02*
D03*
X137922Y434340D02*
D03*
X133096Y430022D02*
D03*
X127508Y427482D02*
D03*
X121412Y426720D02*
D03*
X115570D02*
D03*
X109982D02*
D03*
X104648Y401320D02*
D03*
Y406400D02*
D03*
Y411480D02*
D03*
Y416560D02*
D03*
Y421640D02*
D03*
Y426720D02*
D03*
X91788Y446612D02*
D03*
Y456612D02*
D03*
X81788Y451612D02*
D03*
X76280Y466250D02*
D03*
X71280Y476250D02*
D03*
X76280Y486250D02*
D03*
X86280Y466250D02*
D03*
X81280Y476250D02*
D03*
X86280Y486250D02*
D03*
X91280Y476250D02*
D03*
X195406Y418498D02*
D03*
X190406Y428498D02*
D03*
X195406Y438498D02*
D03*
X200406Y428498D02*
D03*
X205406Y438498D02*
D03*
X210406Y428498D02*
D03*
X169498Y418752D02*
D03*
X164498Y428752D02*
D03*
X169498Y438752D02*
D03*
X174498Y428752D02*
D03*
X179498Y438752D02*
D03*
X184498Y428752D02*
D03*
X142828Y419260D02*
D03*
X137828Y429260D02*
D03*
X142828Y439260D02*
D03*
X152828Y419260D02*
D03*
X147828Y429260D02*
D03*
X152828Y439260D02*
D03*
X157828Y429260D02*
D03*
X102929Y443738D02*
D03*
X96774D02*
D03*
X109085D02*
D03*
X121395D02*
D03*
X115240D02*
D03*
X96774Y479747D02*
D03*
Y485902D02*
D03*
Y473591D02*
D03*
Y461281D02*
D03*
Y467436D02*
D03*
Y448970D02*
D03*
Y455126D02*
D03*
X222279Y443992D02*
D03*
X193468D02*
D03*
X187706D02*
D03*
X199230D02*
D03*
X210755D02*
D03*
X204993D02*
D03*
X216517D02*
D03*
X146986D02*
D03*
X141224D02*
D03*
X152748D02*
D03*
X164273D02*
D03*
X158511D02*
D03*
X175797D02*
D03*
X170035D02*
D03*
X181559D02*
D03*
X222504Y456497D02*
D03*
Y450342D02*
D03*
Y468808D02*
D03*
Y462653D02*
D03*
Y474963D02*
D03*
Y487273D02*
D03*
Y481118D02*
D03*
X310286Y427990D02*
D03*
X321666D02*
D03*
X315976D02*
D03*
X310286Y434594D02*
D03*
X321666D02*
D03*
X315976D02*
D03*
X417576Y409702D02*
D03*
Y416115D02*
D03*
Y422529D02*
D03*
Y428942D02*
D03*
Y435356D02*
D03*
X348234Y462026D02*
D03*
X339852D02*
D03*
X351028Y467106D02*
D03*
X343662D02*
D03*
X336296D02*
D03*
X88138Y395224D02*
D03*
Y384048D02*
D03*
X80264Y395224D02*
D03*
Y389636D02*
D03*
Y384048D02*
D03*
X291794Y439472D02*
D03*
X250698Y480060D02*
D03*
X258572D02*
D03*
X276352Y462788D02*
D03*
X255219Y400355D02*
D03*
X246329Y406400D02*
D03*
X248514Y400355D02*
D03*
X246329Y412572D02*
D03*
X122428Y298450D02*
D03*
X332994Y374650D02*
D03*
X224282Y126492D02*
D03*
X256032Y351790D02*
D03*
X137002Y351886D02*
D03*
X128524Y352806D02*
D03*
X113284Y231394D02*
D03*
X75184Y219710D02*
D03*
X74168Y229616D02*
D03*
X232664Y107442D02*
D03*
X7620Y313182D02*
D03*
X13716D02*
D03*
X19304D02*
D03*
X24892D02*
D03*
X13970Y306070D02*
D03*
X19558D02*
D03*
X25146D02*
D03*
X31496D02*
D03*
X37084D02*
D03*
X42672D02*
D03*
X68072Y310896D02*
D03*
Y316484D02*
D03*
Y322072D02*
D03*
X399034Y220218D02*
D03*
Y214376D02*
D03*
X392557Y243078D02*
D03*
X386588D02*
D03*
X380619D02*
D03*
X392557Y233595D02*
D03*
X386588D02*
D03*
X380619D02*
D03*
X392557Y224113D02*
D03*
X386588D02*
D03*
X380619D02*
D03*
X392557Y214630D02*
D03*
X386588D02*
D03*
X380619D02*
D03*
X354203Y279654D02*
D03*
X360172D02*
D03*
X366141D02*
D03*
X322199Y279908D02*
D03*
X328168D02*
D03*
X334137D02*
D03*
X333502Y255270D02*
D03*
X327533D02*
D03*
X321564D02*
D03*
X379222Y287528D02*
D03*
X385318D02*
D03*
Y282702D02*
D03*
X369824Y297180D02*
D03*
X379222Y282702D02*
D03*
Y277876D02*
D03*
X385191D02*
D03*
X391160D02*
D03*
Y282702D02*
D03*
Y287528D02*
D03*
X347980Y318008D02*
D03*
X351536Y324104D02*
D03*
X373634Y292100D02*
D03*
X161036Y119888D02*
D03*
X148336Y74168D02*
D03*
X136398Y78994D02*
D03*
X131318D02*
D03*
X136398Y84074D02*
D03*
X131318D02*
D03*
Y160782D02*
D03*
X162306Y169164D02*
D03*
X338582Y216408D02*
D03*
X55328Y124250D02*
D03*
X224282Y213106D02*
D03*
X248920Y201168D02*
D03*
X279654Y101346D02*
D03*
X287528Y94234D02*
D03*
Y101346D02*
D03*
X295402Y94234D02*
D03*
Y101346D02*
D03*
X303276Y94234D02*
D03*
Y101346D02*
D03*
X330962Y60198D02*
D03*
X234696Y138176D02*
D03*
X242570Y143764D02*
D03*
X68834Y151892D02*
D03*
X169418Y83820D02*
D03*
X160528Y73152D02*
D03*
X208280Y75438D02*
D03*
X55118Y101600D02*
D03*
X45720Y89408D02*
D03*
X158878Y84202D02*
D03*
X120222Y74248D02*
D03*
X104140Y98044D02*
D03*
X112522Y225298D02*
D03*
X171450Y298704D02*
D03*
X105410Y376936D02*
D03*
X131572Y381762D02*
D03*
X122428Y398526D02*
D03*
X74930Y294386D02*
D03*
X277114Y270002D02*
D03*
X262890Y280924D02*
D03*
X257302Y281432D02*
D03*
X161798Y110872D02*
D03*
X107188Y114046D02*
D03*
X266446Y313182D02*
D03*
X6858Y102870D02*
D03*
X222504Y86360D02*
D03*
X273812Y18542D02*
D03*
X40386Y166624D02*
D03*
X39624Y179324D02*
D03*
X176276Y111506D02*
D03*
X170688Y141224D02*
D03*
X217042Y132462D02*
D03*
X218948Y119126D02*
D03*
X260096Y319024D02*
D03*
X326234Y401984D02*
D03*
X319734Y401626D02*
D03*
X121666Y109728D02*
D03*
X231140Y338074D02*
D03*
X230886Y346456D02*
D03*
X231140Y329692D02*
D03*
X242002Y320996D02*
D03*
X230944Y320860D02*
D03*
X321818Y347218D02*
D03*
X137160Y98806D02*
D03*
X152654Y107442D02*
D03*
X159512Y289560D02*
D03*
X272288Y90170D02*
D03*
X268050Y198040D02*
D03*
X67818Y142494D02*
D03*
X53848Y151384D02*
D03*
X263652Y192024D02*
D03*
X126612Y106038D02*
D03*
X100584Y121920D02*
D03*
X167132Y163830D02*
D03*
X136652Y165354D02*
D03*
X126746Y167640D02*
D03*
X36322Y140208D02*
D03*
X37338Y153416D02*
D03*
X58928Y164338D02*
D03*
X6604Y217678D02*
D03*
X40132Y204216D02*
D03*
X299008Y451308D02*
D03*
X355009Y378631D02*
D03*
X248514Y383286D02*
D03*
Y391820D02*
D03*
X252019Y406400D02*
D03*
X240640D02*
D03*
X252019Y412572D02*
D03*
X240640D02*
D03*
X38862Y191973D02*
D03*
X316992Y55880D02*
D03*
X316440Y46990D02*
D03*
X263703Y120548D02*
D03*
X291084Y143891D02*
D03*
Y137668D02*
D03*
X286512Y146558D02*
D03*
X291084Y150114D02*
D03*
X281940D02*
D03*
X40386Y115824D02*
D03*
X400050Y299720D02*
D03*
X399034Y372110D02*
D03*
X389636D02*
D03*
X374650Y369062D02*
D03*
X421894Y338582D02*
D03*
X380073Y382359D02*
D03*
X345948Y184489D02*
D03*
Y176699D02*
D03*
X327660Y342138D02*
D03*
X209550Y166624D02*
D03*
X311912Y18288D02*
D03*
X289306Y3556D02*
D03*
X280924Y58674D02*
D03*
X324992Y37718D02*
D03*
X274574Y49784D02*
D03*
X294300Y55540D02*
D03*
X262890Y43434D02*
D03*
X323724Y29338D02*
D03*
X294300Y6436D02*
D03*
X302514Y5080D02*
D03*
X282575Y4699D02*
D03*
X262636Y4826D02*
D03*
X242570Y54356D02*
D03*
Y36830D02*
D03*
X166661Y194056D02*
D03*
X162343D02*
D03*
X345948Y192278D02*
D03*
X410210Y170434D02*
D03*
Y178943D02*
D03*
Y187452D02*
D03*
X404876Y184404D02*
D03*
X395817D02*
D03*
X386757D02*
D03*
X377698D02*
D03*
Y191262D02*
D03*
X386757D02*
D03*
X395817D02*
D03*
X404876D02*
D03*
D139*
X6096Y90424D02*
D03*
D140*
X295910Y27178D02*
D03*
X284734D02*
D03*
X291846Y38862D02*
D03*
X291719Y32766D02*
D03*
X290322Y27178D02*
D03*
D141*
X275528Y120080D02*
Y163120D01*
X264528Y109080D02*
X275528Y120080D01*
X264528Y71120D02*
Y109080D01*
X275528Y163120D02*
X276226Y163818D01*
Y183896D01*
X286528Y163120D02*
X297528D01*
X275528D02*
X286528D01*
X285368Y183896D02*
X303536D01*
D143*
X276964Y482090D02*
D03*
X366264D02*
D03*
D144*
X353414Y361190D02*
D03*
X340714D02*
D03*
X328014D02*
D03*
X315314D02*
D03*
X302614D02*
D03*
X289914D02*
D03*
D145*
X274914Y367390D02*
D03*
X368214D02*
D03*
X274914Y424890D02*
D03*
X368214D02*
D03*
D146*
X97954Y152724D02*
D03*
D147*
X22954Y77724D02*
D03*
Y90424D02*
D03*
Y103124D02*
D03*
Y115824D02*
D03*
Y128524D02*
D03*
Y141224D02*
D03*
Y153924D02*
D03*
Y166624D02*
D03*
Y179324D02*
D03*
Y192024D02*
D03*
Y204724D02*
D03*
Y217424D02*
D03*
Y230124D02*
D03*
Y242824D02*
D03*
X192954D02*
D03*
Y230124D02*
D03*
Y217424D02*
D03*
Y204724D02*
D03*
Y192024D02*
D03*
Y179324D02*
D03*
Y166624D02*
D03*
Y153924D02*
D03*
Y141224D02*
D03*
Y128524D02*
D03*
Y115824D02*
D03*
Y103124D02*
D03*
Y90424D02*
D03*
Y77724D02*
D03*
D148*
X50804Y252824D02*
D03*
X63504D02*
D03*
X76204D02*
D03*
X88904D02*
D03*
X101604D02*
D03*
X114304D02*
D03*
X127004D02*
D03*
X139704D02*
D03*
X152404D02*
D03*
X165104D02*
D03*
D149*
X248768Y221554D02*
D03*
X258268Y241554D02*
D03*
X239268D02*
D03*
D150*
X276226Y183896D02*
D03*
X284606D02*
D03*
X348360Y126746D02*
D03*
X339980D02*
D03*
D151*
X424200Y71060D02*
D03*
X363200D02*
D03*
D152*
X404200Y69060D02*
D03*
X383200D02*
D03*
D153*
X304800Y28956D02*
D03*
Y32956D02*
D03*
Y36956D02*
D03*
Y40956D02*
D03*
X275800Y28956D02*
D03*
Y32956D02*
D03*
Y36956D02*
D03*
Y40956D02*
D03*
X304800Y24956D02*
D03*
X275800D02*
D03*
D154*
X290300Y18456D02*
D03*
Y47456D02*
D03*
X294300Y18456D02*
D03*
X298300D02*
D03*
X286300D02*
D03*
X282300D02*
D03*
X294300Y47456D02*
D03*
X298300D02*
D03*
X286300D02*
D03*
X282300D02*
D03*
D155*
X290300Y32956D02*
D03*
D156*
X308528Y71120D02*
D03*
X297528D02*
D03*
X286528D02*
D03*
X275528D02*
D03*
X264528D02*
D03*
X253528D02*
D03*
X242528D02*
D03*
X231528D02*
D03*
X220528D02*
D03*
X308528Y163120D02*
D03*
X297528D02*
D03*
X286528D02*
D03*
X275528D02*
D03*
X220528D02*
D03*
X231528D02*
D03*
X242528D02*
D03*
X253528D02*
D03*
X264528D02*
D03*
M02*
