G04*
G04 #@! TF.GenerationSoftware,Altium Limited,Altium Designer,20.0.1 (14)*
G04*
G04 Layer_Color=16711935*
%FSLAX44Y44*%
%MOMM*%
G71*
G01*
G75*
%ADD16C,0.2540*%
%ADD127C,0.3810*%
%ADD172C,0.0254*%
D16*
X588010Y1252215D02*
Y1236980D01*
X598167D01*
X605784Y1247137D02*
X610863D01*
X613402Y1244597D01*
Y1236980D01*
X605784D01*
X603245Y1239519D01*
X605784Y1242058D01*
X613402D01*
X618480Y1247137D02*
Y1239519D01*
X621019Y1236980D01*
X628637D01*
Y1234441D01*
X626098Y1231902D01*
X623559D01*
X628637Y1236980D02*
Y1247137D01*
X641333Y1236980D02*
X636254D01*
X633715Y1239519D01*
Y1244597D01*
X636254Y1247137D01*
X641333D01*
X643872Y1244597D01*
Y1242058D01*
X633715D01*
X648950Y1247137D02*
Y1236980D01*
Y1242058D01*
X651489Y1244597D01*
X654029Y1247137D01*
X656568D01*
X689577Y1249676D02*
X687038Y1252215D01*
X681960D01*
X679420Y1249676D01*
Y1247137D01*
X681960Y1244597D01*
X687038D01*
X689577Y1242058D01*
Y1239519D01*
X687038Y1236980D01*
X681960D01*
X679420Y1239519D01*
X697195Y1249676D02*
Y1247137D01*
X694656D01*
X699734D01*
X697195D01*
Y1239519D01*
X699734Y1236980D01*
X709891Y1247137D02*
X714969D01*
X717508Y1244597D01*
Y1236980D01*
X709891D01*
X707351Y1239519D01*
X709891Y1242058D01*
X717508D01*
X732743Y1247137D02*
X725126D01*
X722587Y1244597D01*
Y1239519D01*
X725126Y1236980D01*
X732743D01*
X737822D02*
Y1252215D01*
Y1242058D02*
X745439Y1247137D01*
X737822Y1242058D02*
X745439Y1236980D01*
X768292Y1252215D02*
Y1236980D01*
X775909D01*
X778448Y1239519D01*
Y1249676D01*
X775909Y1252215D01*
X768292D01*
X791144Y1236980D02*
X786066D01*
X783527Y1239519D01*
Y1244597D01*
X786066Y1247137D01*
X791144D01*
X793683Y1244597D01*
Y1242058D01*
X783527D01*
X801301Y1249676D02*
Y1247137D01*
X798762D01*
X803840D01*
X801301D01*
Y1239519D01*
X803840Y1236980D01*
X813997Y1247137D02*
X819075D01*
X821614Y1244597D01*
Y1236980D01*
X813997D01*
X811458Y1239519D01*
X813997Y1242058D01*
X821614D01*
X826693Y1236980D02*
X831771D01*
X829232D01*
Y1247137D01*
X826693D01*
X839389Y1236980D02*
X844467D01*
X841928D01*
Y1252215D01*
X839389D01*
X852085Y1236980D02*
X859702D01*
X862241Y1239519D01*
X859702Y1242058D01*
X854624D01*
X852085Y1244597D01*
X854624Y1247137D01*
X862241D01*
X1476914Y1202812D02*
Y1187577D01*
X1484531D01*
X1487070Y1190116D01*
Y1192655D01*
X1484531Y1195194D01*
X1476914D01*
X1484531D01*
X1487070Y1197734D01*
Y1200273D01*
X1484531Y1202812D01*
X1476914D01*
X1494688Y1187577D02*
X1499766D01*
X1502305Y1190116D01*
Y1195194D01*
X1499766Y1197734D01*
X1494688D01*
X1492149Y1195194D01*
Y1190116D01*
X1494688Y1187577D01*
X1509923Y1197734D02*
X1515001D01*
X1517540Y1195194D01*
Y1187577D01*
X1509923D01*
X1507384Y1190116D01*
X1509923Y1192655D01*
X1517540D01*
X1522619Y1197734D02*
Y1187577D01*
Y1192655D01*
X1525158Y1195194D01*
X1527697Y1197734D01*
X1530236D01*
X1548011Y1202812D02*
Y1187577D01*
X1540393D01*
X1537854Y1190116D01*
Y1195194D01*
X1540393Y1197734D01*
X1548011D01*
X1568324Y1202812D02*
Y1187577D01*
X1578481D01*
X1586098Y1197734D02*
X1591177D01*
X1593716Y1195194D01*
Y1187577D01*
X1586098D01*
X1583559Y1190116D01*
X1586098Y1192655D01*
X1593716D01*
X1598794Y1197734D02*
Y1190116D01*
X1601333Y1187577D01*
X1608951D01*
Y1185038D01*
X1606412Y1182499D01*
X1603873D01*
X1608951Y1187577D02*
Y1197734D01*
X1621647Y1187577D02*
X1616568D01*
X1614029Y1190116D01*
Y1195194D01*
X1616568Y1197734D01*
X1621647D01*
X1624186Y1195194D01*
Y1192655D01*
X1614029D01*
X1629264Y1197734D02*
Y1187577D01*
Y1192655D01*
X1631803Y1195194D01*
X1634343Y1197734D01*
X1636882D01*
X1669891Y1200273D02*
X1667352Y1202812D01*
X1662274D01*
X1659734Y1200273D01*
Y1197734D01*
X1662274Y1195194D01*
X1667352D01*
X1669891Y1192655D01*
Y1190116D01*
X1667352Y1187577D01*
X1662274D01*
X1659734Y1190116D01*
X1677509Y1200273D02*
Y1197734D01*
X1674969D01*
X1680048D01*
X1677509D01*
Y1190116D01*
X1680048Y1187577D01*
X1690205Y1197734D02*
X1695283D01*
X1697822Y1195194D01*
Y1187577D01*
X1690205D01*
X1687665Y1190116D01*
X1690205Y1192655D01*
X1697822D01*
X1713057Y1197734D02*
X1705440D01*
X1702901Y1195194D01*
Y1190116D01*
X1705440Y1187577D01*
X1713057D01*
X1718136D02*
Y1202812D01*
Y1192655D02*
X1725753Y1197734D01*
X1718136Y1192655D02*
X1725753Y1187577D01*
X1332169Y1139313D02*
X1334708Y1141852D01*
X1339786D01*
X1342326Y1139313D01*
Y1136774D01*
X1339786Y1134234D01*
X1337247D01*
X1339786D01*
X1342326Y1131695D01*
Y1129156D01*
X1339786Y1126617D01*
X1334708D01*
X1332169Y1129156D01*
X1347404Y1126617D02*
Y1129156D01*
X1349943D01*
Y1126617D01*
X1347404D01*
X1370257Y1141852D02*
X1360100D01*
Y1134234D01*
X1365178Y1136774D01*
X1367717D01*
X1370257Y1134234D01*
Y1129156D01*
X1367717Y1126617D01*
X1362639D01*
X1360100Y1129156D01*
X1339786Y1065657D02*
Y1080892D01*
X1332169Y1073275D01*
X1342326D01*
X1347404Y1065657D02*
Y1068196D01*
X1349943D01*
Y1065657D01*
X1347404D01*
X1360100D02*
X1365178D01*
X1362639D01*
Y1080892D01*
X1360100Y1078353D01*
X1339786Y1004697D02*
Y1019932D01*
X1332169Y1012315D01*
X1342326D01*
X1347404Y1004697D02*
Y1007236D01*
X1349943D01*
Y1004697D01*
X1347404D01*
X1360100D02*
X1365178D01*
X1362639D01*
Y1019932D01*
X1360100Y1017393D01*
X1339786Y943737D02*
Y958972D01*
X1332169Y951355D01*
X1342326D01*
X1347404Y943737D02*
Y946276D01*
X1349943D01*
Y943737D01*
X1347404D01*
X1360100Y956433D02*
X1362639Y958972D01*
X1367717D01*
X1370257Y956433D01*
Y953894D01*
X1367717Y951355D01*
X1370257Y948815D01*
Y946276D01*
X1367717Y943737D01*
X1362639D01*
X1360100Y946276D01*
Y948815D01*
X1362639Y951355D01*
X1360100Y953894D01*
Y956433D01*
X1362639Y951355D02*
X1367717D01*
X1339786Y882777D02*
Y898012D01*
X1332169Y890395D01*
X1342326D01*
X1347404Y882777D02*
Y885316D01*
X1349943D01*
Y882777D01*
X1347404D01*
X1360100D02*
X1365178D01*
X1362639D01*
Y898012D01*
X1360100Y895473D01*
X1339786Y821817D02*
Y837052D01*
X1332169Y829435D01*
X1342326D01*
X1347404Y821817D02*
Y824356D01*
X1349943D01*
Y821817D01*
X1347404D01*
X1360100D02*
X1365178D01*
X1362639D01*
Y837052D01*
X1360100Y834513D01*
X1332169Y773553D02*
X1334708Y776092D01*
X1339786D01*
X1342326Y773553D01*
Y771014D01*
X1339786Y768475D01*
X1337247D01*
X1339786D01*
X1342326Y765935D01*
Y763396D01*
X1339786Y760857D01*
X1334708D01*
X1332169Y763396D01*
X1347404Y760857D02*
Y763396D01*
X1349943D01*
Y760857D01*
X1347404D01*
X1370257Y776092D02*
X1360100D01*
Y768475D01*
X1365178Y771014D01*
X1367717D01*
X1370257Y768475D01*
Y763396D01*
X1367717Y760857D01*
X1362639D01*
X1360100Y763396D01*
X1342326Y1200273D02*
X1339786Y1202812D01*
X1334708D01*
X1332169Y1200273D01*
Y1190116D01*
X1334708Y1187577D01*
X1339786D01*
X1342326Y1190116D01*
X1349943Y1187577D02*
X1355022D01*
X1357561Y1190116D01*
Y1195194D01*
X1355022Y1197734D01*
X1349943D01*
X1347404Y1195194D01*
Y1190116D01*
X1349943Y1187577D01*
X1362639D02*
Y1197734D01*
X1370257D01*
X1372796Y1195194D01*
Y1187577D01*
X1377874D02*
X1385492D01*
X1388031Y1190116D01*
X1385492Y1192655D01*
X1380413D01*
X1377874Y1195194D01*
X1380413Y1197734D01*
X1388031D01*
X1395648Y1200273D02*
Y1197734D01*
X1393109D01*
X1398188D01*
X1395648D01*
Y1190116D01*
X1398188Y1187577D01*
X1408344Y1197734D02*
X1413423D01*
X1415962Y1195194D01*
Y1187577D01*
X1408344D01*
X1405805Y1190116D01*
X1408344Y1192655D01*
X1415962D01*
X1421040Y1187577D02*
Y1197734D01*
X1428658D01*
X1431197Y1195194D01*
Y1187577D01*
X1438814Y1200273D02*
Y1197734D01*
X1436275D01*
X1441354D01*
X1438814D01*
Y1190116D01*
X1441354Y1187577D01*
X1167111Y1139313D02*
X1169650Y1141852D01*
X1174728D01*
X1177268Y1139313D01*
Y1129156D01*
X1174728Y1126617D01*
X1169650D01*
X1167111Y1129156D01*
Y1139313D01*
X1182346Y1126617D02*
Y1129156D01*
X1184885D01*
Y1126617D01*
X1182346D01*
X1195042Y1139313D02*
X1197581Y1141852D01*
X1202659D01*
X1205199Y1139313D01*
Y1129156D01*
X1202659Y1126617D01*
X1197581D01*
X1195042Y1129156D01*
Y1139313D01*
X1210277Y1126617D02*
X1215355D01*
X1212816D01*
Y1141852D01*
X1210277Y1139313D01*
X1222973D02*
X1225512Y1141852D01*
X1230590D01*
X1233129Y1139313D01*
Y1129156D01*
X1230590Y1126617D01*
X1225512D01*
X1222973Y1129156D01*
Y1139313D01*
X1238208Y1126617D02*
Y1136774D01*
X1240747D01*
X1243286Y1134234D01*
Y1126617D01*
Y1134234D01*
X1245825Y1136774D01*
X1248364Y1134234D01*
Y1126617D01*
X1253443D02*
Y1136774D01*
X1255982D01*
X1258521Y1134234D01*
Y1126617D01*
Y1134234D01*
X1261060Y1136774D01*
X1263600Y1134234D01*
Y1126617D01*
X1167111Y1108833D02*
X1169650Y1111372D01*
X1174728D01*
X1177268Y1108833D01*
Y1098676D01*
X1174728Y1096137D01*
X1169650D01*
X1167111Y1098676D01*
Y1108833D01*
X1182346Y1096137D02*
Y1098676D01*
X1184885D01*
Y1096137D01*
X1182346D01*
X1195042Y1108833D02*
X1197581Y1111372D01*
X1202659D01*
X1205199Y1108833D01*
Y1098676D01*
X1202659Y1096137D01*
X1197581D01*
X1195042Y1098676D01*
Y1108833D01*
X1210277D02*
X1212816Y1111372D01*
X1217894D01*
X1220434Y1108833D01*
Y1106294D01*
X1217894Y1103755D01*
X1215355D01*
X1217894D01*
X1220434Y1101215D01*
Y1098676D01*
X1217894Y1096137D01*
X1212816D01*
X1210277Y1098676D01*
X1235669Y1111372D02*
X1225512D01*
Y1103755D01*
X1230590Y1106294D01*
X1233129D01*
X1235669Y1103755D01*
Y1098676D01*
X1233129Y1096137D01*
X1228051D01*
X1225512Y1098676D01*
X1240747Y1096137D02*
Y1106294D01*
X1243286D01*
X1245825Y1103755D01*
Y1096137D01*
Y1103755D01*
X1248364Y1106294D01*
X1250904Y1103755D01*
Y1096137D01*
X1255982D02*
Y1106294D01*
X1258521D01*
X1261060Y1103755D01*
Y1096137D01*
Y1103755D01*
X1263600Y1106294D01*
X1266139Y1103755D01*
Y1096137D01*
X1167111Y1078353D02*
X1169650Y1080892D01*
X1174728D01*
X1177268Y1078353D01*
Y1068196D01*
X1174728Y1065657D01*
X1169650D01*
X1167111Y1068196D01*
Y1078353D01*
X1182346Y1065657D02*
Y1068196D01*
X1184885D01*
Y1065657D01*
X1182346D01*
X1195042D02*
X1200120D01*
X1197581D01*
Y1080892D01*
X1195042Y1078353D01*
X1207738D02*
X1210277Y1080892D01*
X1215355D01*
X1217894Y1078353D01*
Y1068196D01*
X1215355Y1065657D01*
X1210277D01*
X1207738Y1068196D01*
Y1078353D01*
X1222973D02*
X1225512Y1080892D01*
X1230590D01*
X1233129Y1078353D01*
Y1068196D01*
X1230590Y1065657D01*
X1225512D01*
X1222973Y1068196D01*
Y1078353D01*
X1238208Y1065657D02*
Y1075814D01*
X1240747D01*
X1243286Y1073275D01*
Y1065657D01*
Y1073275D01*
X1245825Y1075814D01*
X1248364Y1073275D01*
Y1065657D01*
X1253443D02*
Y1075814D01*
X1255982D01*
X1258521Y1073275D01*
Y1065657D01*
Y1073275D01*
X1261060Y1075814D01*
X1263600Y1073275D01*
Y1065657D01*
X1167111Y1047873D02*
X1169650Y1050412D01*
X1174728D01*
X1177268Y1047873D01*
Y1037716D01*
X1174728Y1035177D01*
X1169650D01*
X1167111Y1037716D01*
Y1047873D01*
X1182346Y1035177D02*
Y1037716D01*
X1184885D01*
Y1035177D01*
X1182346D01*
X1195042Y1047873D02*
X1197581Y1050412D01*
X1202659D01*
X1205199Y1047873D01*
Y1037716D01*
X1202659Y1035177D01*
X1197581D01*
X1195042Y1037716D01*
Y1047873D01*
X1210277Y1035177D02*
X1215355D01*
X1212816D01*
Y1050412D01*
X1210277Y1047873D01*
X1222973Y1050412D02*
X1233129D01*
Y1047873D01*
X1222973Y1037716D01*
Y1035177D01*
X1238208D02*
Y1045334D01*
X1240747D01*
X1243286Y1042794D01*
Y1035177D01*
Y1042794D01*
X1245825Y1045334D01*
X1248364Y1042794D01*
Y1035177D01*
X1253443D02*
Y1045334D01*
X1255982D01*
X1258521Y1042794D01*
Y1035177D01*
Y1042794D01*
X1261060Y1045334D01*
X1263600Y1042794D01*
Y1035177D01*
X1167111Y1017393D02*
X1169650Y1019932D01*
X1174728D01*
X1177268Y1017393D01*
Y1007236D01*
X1174728Y1004697D01*
X1169650D01*
X1167111Y1007236D01*
Y1017393D01*
X1182346Y1004697D02*
Y1007236D01*
X1184885D01*
Y1004697D01*
X1182346D01*
X1195042Y1017393D02*
X1197581Y1019932D01*
X1202659D01*
X1205199Y1017393D01*
Y1014854D01*
X1202659Y1012315D01*
X1200120D01*
X1202659D01*
X1205199Y1009775D01*
Y1007236D01*
X1202659Y1004697D01*
X1197581D01*
X1195042Y1007236D01*
X1220434Y1019932D02*
X1215355Y1017393D01*
X1210277Y1012315D01*
Y1007236D01*
X1212816Y1004697D01*
X1217894D01*
X1220434Y1007236D01*
Y1009775D01*
X1217894Y1012315D01*
X1210277D01*
X1235669Y1019932D02*
X1225512D01*
Y1012315D01*
X1230590Y1014854D01*
X1233129D01*
X1235669Y1012315D01*
Y1007236D01*
X1233129Y1004697D01*
X1228051D01*
X1225512Y1007236D01*
X1240747Y1004697D02*
Y1014854D01*
X1243286D01*
X1245825Y1012315D01*
Y1004697D01*
Y1012315D01*
X1248364Y1014854D01*
X1250904Y1012315D01*
Y1004697D01*
X1255982D02*
Y1014854D01*
X1258521D01*
X1261060Y1012315D01*
Y1004697D01*
Y1012315D01*
X1263600Y1014854D01*
X1266139Y1012315D01*
Y1004697D01*
X1167111Y986913D02*
X1169650Y989452D01*
X1174728D01*
X1177268Y986913D01*
Y976756D01*
X1174728Y974217D01*
X1169650D01*
X1167111Y976756D01*
Y986913D01*
X1182346Y974217D02*
Y976756D01*
X1184885D01*
Y974217D01*
X1182346D01*
X1195042Y986913D02*
X1197581Y989452D01*
X1202659D01*
X1205199Y986913D01*
Y976756D01*
X1202659Y974217D01*
X1197581D01*
X1195042Y976756D01*
Y986913D01*
X1210277Y974217D02*
X1215355D01*
X1212816D01*
Y989452D01*
X1210277Y986913D01*
X1222973D02*
X1225512Y989452D01*
X1230590D01*
X1233129Y986913D01*
Y984374D01*
X1230590Y981834D01*
X1233129Y979295D01*
Y976756D01*
X1230590Y974217D01*
X1225512D01*
X1222973Y976756D01*
Y979295D01*
X1225512Y981834D01*
X1222973Y984374D01*
Y986913D01*
X1225512Y981834D02*
X1230590D01*
X1238208Y974217D02*
Y984374D01*
X1240747D01*
X1243286Y981834D01*
Y974217D01*
Y981834D01*
X1245825Y984374D01*
X1248364Y981834D01*
Y974217D01*
X1253443D02*
Y984374D01*
X1255982D01*
X1258521Y981834D01*
Y974217D01*
Y981834D01*
X1261060Y984374D01*
X1263600Y981834D01*
Y974217D01*
X1167111Y956433D02*
X1169650Y958972D01*
X1174728D01*
X1177268Y956433D01*
Y946276D01*
X1174728Y943737D01*
X1169650D01*
X1167111Y946276D01*
Y956433D01*
X1182346Y943737D02*
Y946276D01*
X1184885D01*
Y943737D01*
X1182346D01*
X1195042D02*
X1200120D01*
X1197581D01*
Y958972D01*
X1195042Y956433D01*
X1217894Y943737D02*
X1207738D01*
X1217894Y953894D01*
Y956433D01*
X1215355Y958972D01*
X1210277D01*
X1207738Y956433D01*
X1222973Y958972D02*
X1233129D01*
Y956433D01*
X1222973Y946276D01*
Y943737D01*
X1238208D02*
Y953894D01*
X1240747D01*
X1243286Y951355D01*
Y943737D01*
Y951355D01*
X1245825Y953894D01*
X1248364Y951355D01*
Y943737D01*
X1253443D02*
Y953894D01*
X1255982D01*
X1258521Y951355D01*
Y943737D01*
Y951355D01*
X1261060Y953894D01*
X1263600Y951355D01*
Y943737D01*
X1167111Y925953D02*
X1169650Y928492D01*
X1174728D01*
X1177268Y925953D01*
Y915796D01*
X1174728Y913257D01*
X1169650D01*
X1167111Y915796D01*
Y925953D01*
X1182346Y913257D02*
Y915796D01*
X1184885D01*
Y913257D01*
X1182346D01*
X1195042Y925953D02*
X1197581Y928492D01*
X1202659D01*
X1205199Y925953D01*
Y915796D01*
X1202659Y913257D01*
X1197581D01*
X1195042Y915796D01*
Y925953D01*
X1210277Y913257D02*
X1215355D01*
X1212816D01*
Y928492D01*
X1210277Y925953D01*
X1222973D02*
X1225512Y928492D01*
X1230590D01*
X1233129Y925953D01*
Y923414D01*
X1230590Y920874D01*
X1233129Y918335D01*
Y915796D01*
X1230590Y913257D01*
X1225512D01*
X1222973Y915796D01*
Y918335D01*
X1225512Y920874D01*
X1222973Y923414D01*
Y925953D01*
X1225512Y920874D02*
X1230590D01*
X1238208Y913257D02*
Y923414D01*
X1240747D01*
X1243286Y920874D01*
Y913257D01*
Y920874D01*
X1245825Y923414D01*
X1248364Y920874D01*
Y913257D01*
X1253443D02*
Y923414D01*
X1255982D01*
X1258521Y920874D01*
Y913257D01*
Y920874D01*
X1261060Y923414D01*
X1263600Y920874D01*
Y913257D01*
X1167111Y895473D02*
X1169650Y898012D01*
X1174728D01*
X1177268Y895473D01*
Y885316D01*
X1174728Y882777D01*
X1169650D01*
X1167111Y885316D01*
Y895473D01*
X1182346Y882777D02*
Y885316D01*
X1184885D01*
Y882777D01*
X1182346D01*
X1195042Y895473D02*
X1197581Y898012D01*
X1202659D01*
X1205199Y895473D01*
Y892934D01*
X1202659Y890395D01*
X1200120D01*
X1202659D01*
X1205199Y887855D01*
Y885316D01*
X1202659Y882777D01*
X1197581D01*
X1195042Y885316D01*
X1220434Y898012D02*
X1215355Y895473D01*
X1210277Y890395D01*
Y885316D01*
X1212816Y882777D01*
X1217894D01*
X1220434Y885316D01*
Y887855D01*
X1217894Y890395D01*
X1210277D01*
X1235669Y898012D02*
X1225512D01*
Y890395D01*
X1230590Y892934D01*
X1233129D01*
X1235669Y890395D01*
Y885316D01*
X1233129Y882777D01*
X1228051D01*
X1225512Y885316D01*
X1240747Y882777D02*
Y892934D01*
X1243286D01*
X1245825Y890395D01*
Y882777D01*
Y890395D01*
X1248364Y892934D01*
X1250904Y890395D01*
Y882777D01*
X1255982D02*
Y892934D01*
X1258521D01*
X1261060Y890395D01*
Y882777D01*
Y890395D01*
X1263600Y892934D01*
X1266139Y890395D01*
Y882777D01*
X1167111Y864993D02*
X1169650Y867532D01*
X1174728D01*
X1177268Y864993D01*
Y854836D01*
X1174728Y852297D01*
X1169650D01*
X1167111Y854836D01*
Y864993D01*
X1182346Y852297D02*
Y854836D01*
X1184885D01*
Y852297D01*
X1182346D01*
X1195042Y864993D02*
X1197581Y867532D01*
X1202659D01*
X1205199Y864993D01*
Y854836D01*
X1202659Y852297D01*
X1197581D01*
X1195042Y854836D01*
Y864993D01*
X1210277Y852297D02*
X1215355D01*
X1212816D01*
Y867532D01*
X1210277Y864993D01*
X1222973Y867532D02*
X1233129D01*
Y864993D01*
X1222973Y854836D01*
Y852297D01*
X1238208D02*
Y862454D01*
X1240747D01*
X1243286Y859914D01*
Y852297D01*
Y859914D01*
X1245825Y862454D01*
X1248364Y859914D01*
Y852297D01*
X1253443D02*
Y862454D01*
X1255982D01*
X1258521Y859914D01*
Y852297D01*
Y859914D01*
X1261060Y862454D01*
X1263600Y859914D01*
Y852297D01*
X1167111Y834513D02*
X1169650Y837052D01*
X1174728D01*
X1177268Y834513D01*
Y824356D01*
X1174728Y821817D01*
X1169650D01*
X1167111Y824356D01*
Y834513D01*
X1182346Y821817D02*
Y824356D01*
X1184885D01*
Y821817D01*
X1182346D01*
X1195042D02*
X1200120D01*
X1197581D01*
Y837052D01*
X1195042Y834513D01*
X1207738D02*
X1210277Y837052D01*
X1215355D01*
X1217894Y834513D01*
Y824356D01*
X1215355Y821817D01*
X1210277D01*
X1207738Y824356D01*
Y834513D01*
X1222973D02*
X1225512Y837052D01*
X1230590D01*
X1233129Y834513D01*
Y824356D01*
X1230590Y821817D01*
X1225512D01*
X1222973Y824356D01*
Y834513D01*
X1238208Y821817D02*
Y831974D01*
X1240747D01*
X1243286Y829435D01*
Y821817D01*
Y829435D01*
X1245825Y831974D01*
X1248364Y829435D01*
Y821817D01*
X1253443D02*
Y831974D01*
X1255982D01*
X1258521Y829435D01*
Y821817D01*
Y829435D01*
X1261060Y831974D01*
X1263600Y829435D01*
Y821817D01*
X1167111Y804033D02*
X1169650Y806572D01*
X1174728D01*
X1177268Y804033D01*
Y793876D01*
X1174728Y791337D01*
X1169650D01*
X1167111Y793876D01*
Y804033D01*
X1182346Y791337D02*
Y793876D01*
X1184885D01*
Y791337D01*
X1182346D01*
X1195042Y804033D02*
X1197581Y806572D01*
X1202659D01*
X1205199Y804033D01*
Y793876D01*
X1202659Y791337D01*
X1197581D01*
X1195042Y793876D01*
Y804033D01*
X1210277D02*
X1212816Y806572D01*
X1217894D01*
X1220434Y804033D01*
Y801494D01*
X1217894Y798954D01*
X1215355D01*
X1217894D01*
X1220434Y796415D01*
Y793876D01*
X1217894Y791337D01*
X1212816D01*
X1210277Y793876D01*
X1235669Y806572D02*
X1225512D01*
Y798954D01*
X1230590Y801494D01*
X1233129D01*
X1235669Y798954D01*
Y793876D01*
X1233129Y791337D01*
X1228051D01*
X1225512Y793876D01*
X1240747Y791337D02*
Y801494D01*
X1243286D01*
X1245825Y798954D01*
Y791337D01*
Y798954D01*
X1248364Y801494D01*
X1250904Y798954D01*
Y791337D01*
X1255982D02*
Y801494D01*
X1258521D01*
X1261060Y798954D01*
Y791337D01*
Y798954D01*
X1263600Y801494D01*
X1266139Y798954D01*
Y791337D01*
X1167111Y773553D02*
X1169650Y776092D01*
X1174728D01*
X1177268Y773553D01*
Y763396D01*
X1174728Y760857D01*
X1169650D01*
X1167111Y763396D01*
Y773553D01*
X1182346Y760857D02*
Y763396D01*
X1184885D01*
Y760857D01*
X1182346D01*
X1195042Y773553D02*
X1197581Y776092D01*
X1202659D01*
X1205199Y773553D01*
Y763396D01*
X1202659Y760857D01*
X1197581D01*
X1195042Y763396D01*
Y773553D01*
X1210277Y760857D02*
X1215355D01*
X1212816D01*
Y776092D01*
X1210277Y773553D01*
X1222973D02*
X1225512Y776092D01*
X1230590D01*
X1233129Y773553D01*
Y763396D01*
X1230590Y760857D01*
X1225512D01*
X1222973Y763396D01*
Y773553D01*
X1238208Y760857D02*
Y771014D01*
X1240747D01*
X1243286Y768475D01*
Y760857D01*
Y768475D01*
X1245825Y771014D01*
X1248364Y768475D01*
Y760857D01*
X1253443D02*
Y771014D01*
X1255982D01*
X1258521Y768475D01*
Y760857D01*
Y768475D01*
X1261060Y771014D01*
X1263600Y768475D01*
Y760857D01*
X1167111Y1202812D02*
X1177268D01*
X1172189D01*
Y1187577D01*
X1182346Y1202812D02*
Y1187577D01*
Y1195194D01*
X1184885Y1197734D01*
X1189963D01*
X1192503Y1195194D01*
Y1187577D01*
X1197581D02*
X1202659D01*
X1200120D01*
Y1197734D01*
X1197581D01*
X1220434D02*
X1212816D01*
X1210277Y1195194D01*
Y1190116D01*
X1212816Y1187577D01*
X1220434D01*
X1225512D02*
Y1202812D01*
Y1192655D02*
X1233129Y1197734D01*
X1225512Y1192655D02*
X1233129Y1187577D01*
X1240747D02*
Y1197734D01*
X1248364D01*
X1250904Y1195194D01*
Y1187577D01*
X1263600D02*
X1258521D01*
X1255982Y1190116D01*
Y1195194D01*
X1258521Y1197734D01*
X1263600D01*
X1266139Y1195194D01*
Y1192655D01*
X1255982D01*
X1271217Y1187577D02*
X1278835D01*
X1281374Y1190116D01*
X1278835Y1192655D01*
X1273756D01*
X1271217Y1195194D01*
X1273756Y1197734D01*
X1281374D01*
X1286452Y1187577D02*
X1294070D01*
X1296609Y1190116D01*
X1294070Y1192655D01*
X1288991D01*
X1286452Y1195194D01*
X1288991Y1197734D01*
X1296609D01*
X958887Y1139313D02*
X956348Y1141852D01*
X951269D01*
X948730Y1139313D01*
Y1136774D01*
X951269Y1134234D01*
X956348D01*
X958887Y1131695D01*
Y1129156D01*
X956348Y1126617D01*
X951269D01*
X948730Y1129156D01*
X966504Y1126617D02*
X971582D01*
X974122Y1129156D01*
Y1134234D01*
X971582Y1136774D01*
X966504D01*
X963965Y1134234D01*
Y1129156D01*
X966504Y1126617D01*
X979200D02*
X984278D01*
X981739D01*
Y1141852D01*
X979200D01*
X1002053D02*
Y1126617D01*
X994435D01*
X991896Y1129156D01*
Y1134234D01*
X994435Y1136774D01*
X1002053D01*
X1014749Y1126617D02*
X1009670D01*
X1007131Y1129156D01*
Y1134234D01*
X1009670Y1136774D01*
X1014749D01*
X1017288Y1134234D01*
Y1131695D01*
X1007131D01*
X1022366Y1136774D02*
Y1126617D01*
Y1131695D01*
X1024905Y1134234D01*
X1027445Y1136774D01*
X1029984D01*
X1052836Y1126617D02*
Y1141852D01*
X1060454D01*
X1062993Y1139313D01*
Y1134234D01*
X1060454Y1131695D01*
X1052836D01*
X1057915D02*
X1062993Y1126617D01*
X1075689D02*
X1070611D01*
X1068071Y1129156D01*
Y1134234D01*
X1070611Y1136774D01*
X1075689D01*
X1078228Y1134234D01*
Y1131695D01*
X1068071D01*
X1083306Y1126617D02*
X1090924D01*
X1093463Y1129156D01*
X1090924Y1131695D01*
X1085846D01*
X1083306Y1134234D01*
X1085846Y1136774D01*
X1093463D01*
X1098541Y1126617D02*
X1103620D01*
X1101081D01*
Y1136774D01*
X1098541D01*
X1111237Y1126617D02*
X1118855D01*
X1121394Y1129156D01*
X1118855Y1131695D01*
X1113776D01*
X1111237Y1134234D01*
X1113776Y1136774D01*
X1121394D01*
X1129012Y1139313D02*
Y1136774D01*
X1126472D01*
X1131551D01*
X1129012D01*
Y1129156D01*
X1131551Y1126617D01*
X958887Y1108833D02*
X956348Y1111372D01*
X951269D01*
X948730Y1108833D01*
Y1098676D01*
X951269Y1096137D01*
X956348D01*
X958887Y1098676D01*
X966504Y1096137D02*
X971582D01*
X974122Y1098676D01*
Y1103755D01*
X971582Y1106294D01*
X966504D01*
X963965Y1103755D01*
Y1098676D01*
X966504Y1096137D01*
X979200Y1091059D02*
Y1106294D01*
X986818D01*
X989357Y1103755D01*
Y1098676D01*
X986818Y1096137D01*
X979200D01*
X994435Y1091059D02*
Y1106294D01*
X1002053D01*
X1004592Y1103755D01*
Y1098676D01*
X1002053Y1096137D01*
X994435D01*
X1017288D02*
X1012209D01*
X1009670Y1098676D01*
Y1103755D01*
X1012209Y1106294D01*
X1017288D01*
X1019827Y1103755D01*
Y1101215D01*
X1009670D01*
X1024905Y1106294D02*
Y1096137D01*
Y1101215D01*
X1027445Y1103755D01*
X1029984Y1106294D01*
X1032523D01*
X948730Y1065657D02*
Y1080892D01*
X956348D01*
X958887Y1078353D01*
Y1073275D01*
X956348Y1070735D01*
X948730D01*
X963965Y1065657D02*
Y1080892D01*
X971582D01*
X974122Y1078353D01*
Y1073275D01*
X971582Y1070735D01*
X963965D01*
X979200Y1073275D02*
X989357D01*
X994435Y1078353D02*
X996974Y1080892D01*
X1002053D01*
X1004592Y1078353D01*
Y1068196D01*
X1002053Y1065657D01*
X996974D01*
X994435Y1068196D01*
Y1078353D01*
X1009670D02*
X1012209Y1080892D01*
X1017288D01*
X1019827Y1078353D01*
Y1068196D01*
X1017288Y1065657D01*
X1012209D01*
X1009670Y1068196D01*
Y1078353D01*
X1035062Y1080892D02*
X1029984Y1078353D01*
X1024905Y1073275D01*
Y1068196D01*
X1027445Y1065657D01*
X1032523D01*
X1035062Y1068196D01*
Y1070735D01*
X1032523Y1073275D01*
X1024905D01*
X958887Y1047873D02*
X956348Y1050412D01*
X951269D01*
X948730Y1047873D01*
Y1037716D01*
X951269Y1035177D01*
X956348D01*
X958887Y1037716D01*
X966504Y1035177D02*
X971582D01*
X974122Y1037716D01*
Y1042794D01*
X971582Y1045334D01*
X966504D01*
X963965Y1042794D01*
Y1037716D01*
X966504Y1035177D01*
X979200Y1030099D02*
Y1045334D01*
X986818D01*
X989357Y1042794D01*
Y1037716D01*
X986818Y1035177D01*
X979200D01*
X994435Y1030099D02*
Y1045334D01*
X1002053D01*
X1004592Y1042794D01*
Y1037716D01*
X1002053Y1035177D01*
X994435D01*
X1017288D02*
X1012209D01*
X1009670Y1037716D01*
Y1042794D01*
X1012209Y1045334D01*
X1017288D01*
X1019827Y1042794D01*
Y1040255D01*
X1009670D01*
X1024905Y1045334D02*
Y1035177D01*
Y1040255D01*
X1027445Y1042794D01*
X1029984Y1045334D01*
X1032523D01*
X948730Y1004697D02*
Y1019932D01*
X956348D01*
X958887Y1017393D01*
Y1012315D01*
X956348Y1009775D01*
X948730D01*
X963965Y1004697D02*
Y1019932D01*
X971582D01*
X974122Y1017393D01*
Y1012315D01*
X971582Y1009775D01*
X963965D01*
X979200Y1012315D02*
X989357D01*
X994435Y1017393D02*
X996974Y1019932D01*
X1002053D01*
X1004592Y1017393D01*
Y1007236D01*
X1002053Y1004697D01*
X996974D01*
X994435Y1007236D01*
Y1017393D01*
X1009670D02*
X1012209Y1019932D01*
X1017288D01*
X1019827Y1017393D01*
Y1007236D01*
X1017288Y1004697D01*
X1012209D01*
X1009670Y1007236D01*
Y1017393D01*
X1035062Y1019932D02*
X1029984Y1017393D01*
X1024905Y1012315D01*
Y1007236D01*
X1027445Y1004697D01*
X1032523D01*
X1035062Y1007236D01*
Y1009775D01*
X1032523Y1012315D01*
X1024905D01*
X958887Y986913D02*
X956348Y989452D01*
X951269D01*
X948730Y986913D01*
Y976756D01*
X951269Y974217D01*
X956348D01*
X958887Y976756D01*
X966504Y974217D02*
X971582D01*
X974122Y976756D01*
Y981834D01*
X971582Y984374D01*
X966504D01*
X963965Y981834D01*
Y976756D01*
X966504Y974217D01*
X979200Y969139D02*
Y984374D01*
X986818D01*
X989357Y981834D01*
Y976756D01*
X986818Y974217D01*
X979200D01*
X994435Y969139D02*
Y984374D01*
X1002053D01*
X1004592Y981834D01*
Y976756D01*
X1002053Y974217D01*
X994435D01*
X1017288D02*
X1012209D01*
X1009670Y976756D01*
Y981834D01*
X1012209Y984374D01*
X1017288D01*
X1019827Y981834D01*
Y979295D01*
X1009670D01*
X1024905Y984374D02*
Y974217D01*
Y979295D01*
X1027445Y981834D01*
X1029984Y984374D01*
X1032523D01*
X958887Y958972D02*
X948730D01*
Y951355D01*
X953808D01*
X948730D01*
Y943737D01*
X963965D02*
Y958972D01*
X971582D01*
X974122Y956433D01*
Y951355D01*
X971582Y948815D01*
X963965D01*
X969043D02*
X974122Y943737D01*
X979200Y951355D02*
X989357D01*
X1002053Y943737D02*
Y958972D01*
X994435Y951355D01*
X1004592D01*
X958887Y925953D02*
X956348Y928492D01*
X951269D01*
X948730Y925953D01*
Y915796D01*
X951269Y913257D01*
X956348D01*
X958887Y915796D01*
X966504Y913257D02*
X971582D01*
X974122Y915796D01*
Y920874D01*
X971582Y923414D01*
X966504D01*
X963965Y920874D01*
Y915796D01*
X966504Y913257D01*
X979200Y908179D02*
Y923414D01*
X986818D01*
X989357Y920874D01*
Y915796D01*
X986818Y913257D01*
X979200D01*
X994435Y908179D02*
Y923414D01*
X1002053D01*
X1004592Y920874D01*
Y915796D01*
X1002053Y913257D01*
X994435D01*
X1017288D02*
X1012209D01*
X1009670Y915796D01*
Y920874D01*
X1012209Y923414D01*
X1017288D01*
X1019827Y920874D01*
Y918335D01*
X1009670D01*
X1024905Y923414D02*
Y913257D01*
Y918335D01*
X1027445Y920874D01*
X1029984Y923414D01*
X1032523D01*
X948730Y882777D02*
Y898012D01*
X956348D01*
X958887Y895473D01*
Y890395D01*
X956348Y887855D01*
X948730D01*
X963965Y882777D02*
Y898012D01*
X971582D01*
X974122Y895473D01*
Y890395D01*
X971582Y887855D01*
X963965D01*
X979200Y890395D02*
X989357D01*
X994435Y895473D02*
X996974Y898012D01*
X1002053D01*
X1004592Y895473D01*
Y885316D01*
X1002053Y882777D01*
X996974D01*
X994435Y885316D01*
Y895473D01*
X1009670D02*
X1012209Y898012D01*
X1017288D01*
X1019827Y895473D01*
Y885316D01*
X1017288Y882777D01*
X1012209D01*
X1009670Y885316D01*
Y895473D01*
X1035062Y898012D02*
X1029984Y895473D01*
X1024905Y890395D01*
Y885316D01*
X1027445Y882777D01*
X1032523D01*
X1035062Y885316D01*
Y887855D01*
X1032523Y890395D01*
X1024905D01*
X958887Y864993D02*
X956348Y867532D01*
X951269D01*
X948730Y864993D01*
Y854836D01*
X951269Y852297D01*
X956348D01*
X958887Y854836D01*
X966504Y852297D02*
X971582D01*
X974122Y854836D01*
Y859914D01*
X971582Y862454D01*
X966504D01*
X963965Y859914D01*
Y854836D01*
X966504Y852297D01*
X979200Y847219D02*
Y862454D01*
X986818D01*
X989357Y859914D01*
Y854836D01*
X986818Y852297D01*
X979200D01*
X994435Y847219D02*
Y862454D01*
X1002053D01*
X1004592Y859914D01*
Y854836D01*
X1002053Y852297D01*
X994435D01*
X1017288D02*
X1012209D01*
X1009670Y854836D01*
Y859914D01*
X1012209Y862454D01*
X1017288D01*
X1019827Y859914D01*
Y857375D01*
X1009670D01*
X1024905Y862454D02*
Y852297D01*
Y857375D01*
X1027445Y859914D01*
X1029984Y862454D01*
X1032523D01*
X948730Y821817D02*
Y837052D01*
X956348D01*
X958887Y834513D01*
Y829435D01*
X956348Y826895D01*
X948730D01*
X963965Y821817D02*
Y837052D01*
X971582D01*
X974122Y834513D01*
Y829435D01*
X971582Y826895D01*
X963965D01*
X979200Y829435D02*
X989357D01*
X994435Y834513D02*
X996974Y837052D01*
X1002053D01*
X1004592Y834513D01*
Y824356D01*
X1002053Y821817D01*
X996974D01*
X994435Y824356D01*
Y834513D01*
X1009670D02*
X1012209Y837052D01*
X1017288D01*
X1019827Y834513D01*
Y824356D01*
X1017288Y821817D01*
X1012209D01*
X1009670Y824356D01*
Y834513D01*
X1035062Y837052D02*
X1029984Y834513D01*
X1024905Y829435D01*
Y824356D01*
X1027445Y821817D01*
X1032523D01*
X1035062Y824356D01*
Y826895D01*
X1032523Y829435D01*
X1024905D01*
X958887Y804033D02*
X956348Y806572D01*
X951269D01*
X948730Y804033D01*
Y793876D01*
X951269Y791337D01*
X956348D01*
X958887Y793876D01*
X966504Y791337D02*
X971582D01*
X974122Y793876D01*
Y798954D01*
X971582Y801494D01*
X966504D01*
X963965Y798954D01*
Y793876D01*
X966504Y791337D01*
X979200Y786259D02*
Y801494D01*
X986818D01*
X989357Y798954D01*
Y793876D01*
X986818Y791337D01*
X979200D01*
X994435Y786259D02*
Y801494D01*
X1002053D01*
X1004592Y798954D01*
Y793876D01*
X1002053Y791337D01*
X994435D01*
X1017288D02*
X1012209D01*
X1009670Y793876D01*
Y798954D01*
X1012209Y801494D01*
X1017288D01*
X1019827Y798954D01*
Y796415D01*
X1009670D01*
X1024905Y801494D02*
Y791337D01*
Y796415D01*
X1027445Y798954D01*
X1029984Y801494D01*
X1032523D01*
X958887Y773553D02*
X956348Y776092D01*
X951269D01*
X948730Y773553D01*
Y771014D01*
X951269Y768475D01*
X956348D01*
X958887Y765935D01*
Y763396D01*
X956348Y760857D01*
X951269D01*
X948730Y763396D01*
X966504Y760857D02*
X971582D01*
X974122Y763396D01*
Y768475D01*
X971582Y771014D01*
X966504D01*
X963965Y768475D01*
Y763396D01*
X966504Y760857D01*
X979200D02*
X984278D01*
X981739D01*
Y776092D01*
X979200D01*
X1002053D02*
Y760857D01*
X994435D01*
X991896Y763396D01*
Y768475D01*
X994435Y771014D01*
X1002053D01*
X1014749Y760857D02*
X1009670D01*
X1007131Y763396D01*
Y768475D01*
X1009670Y771014D01*
X1014749D01*
X1017288Y768475D01*
Y765935D01*
X1007131D01*
X1022366Y771014D02*
Y760857D01*
Y765935D01*
X1024905Y768475D01*
X1027445Y771014D01*
X1029984D01*
X1052836Y760857D02*
Y776092D01*
X1060454D01*
X1062993Y773553D01*
Y768475D01*
X1060454Y765935D01*
X1052836D01*
X1057915D02*
X1062993Y760857D01*
X1075689D02*
X1070611D01*
X1068071Y763396D01*
Y768475D01*
X1070611Y771014D01*
X1075689D01*
X1078228Y768475D01*
Y765935D01*
X1068071D01*
X1083306Y760857D02*
X1090924D01*
X1093463Y763396D01*
X1090924Y765935D01*
X1085846D01*
X1083306Y768475D01*
X1085846Y771014D01*
X1093463D01*
X1098541Y760857D02*
X1103620D01*
X1101081D01*
Y771014D01*
X1098541D01*
X1111237Y760857D02*
X1118855D01*
X1121394Y763396D01*
X1118855Y765935D01*
X1113776D01*
X1111237Y768475D01*
X1113776Y771014D01*
X1121394D01*
X1129012Y773553D02*
Y771014D01*
X1126472D01*
X1131551D01*
X1129012D01*
Y763396D01*
X1131551Y760857D01*
X948730Y1187577D02*
Y1202812D01*
X953808Y1197734D01*
X958887Y1202812D01*
Y1187577D01*
X966504Y1197734D02*
X971582D01*
X974122Y1195194D01*
Y1187577D01*
X966504D01*
X963965Y1190116D01*
X966504Y1192655D01*
X974122D01*
X981739Y1200273D02*
Y1197734D01*
X979200D01*
X984278D01*
X981739D01*
Y1190116D01*
X984278Y1187577D01*
X999513D02*
X994435D01*
X991896Y1190116D01*
Y1195194D01*
X994435Y1197734D01*
X999513D01*
X1002053Y1195194D01*
Y1192655D01*
X991896D01*
X1007131Y1197734D02*
Y1187577D01*
Y1192655D01*
X1009670Y1195194D01*
X1012209Y1197734D01*
X1014749D01*
X1022366Y1187577D02*
X1027445D01*
X1024905D01*
Y1197734D01*
X1022366D01*
X1037601D02*
X1042680D01*
X1045219Y1195194D01*
Y1187577D01*
X1037601D01*
X1035062Y1190116D01*
X1037601Y1192655D01*
X1045219D01*
X1050297Y1187577D02*
X1055375D01*
X1052836D01*
Y1202812D01*
X1050297D01*
X712575Y1172332D02*
X722731D01*
X717653D01*
Y1157097D01*
X730349D02*
X735427D01*
X737967Y1159636D01*
Y1164715D01*
X735427Y1167254D01*
X730349D01*
X727810Y1164715D01*
Y1159636D01*
X730349Y1157097D01*
X743045Y1152019D02*
Y1167254D01*
X750663D01*
X753202Y1164715D01*
Y1159636D01*
X750663Y1157097D01*
X743045D01*
X781133Y1172332D02*
X776054D01*
X773515Y1169793D01*
Y1159636D01*
X776054Y1157097D01*
X781133D01*
X783672Y1159636D01*
Y1169793D01*
X781133Y1172332D01*
X788750Y1167254D02*
X793829Y1157097D01*
X798907Y1167254D01*
X811603Y1157097D02*
X806524D01*
X803985Y1159636D01*
Y1164715D01*
X806524Y1167254D01*
X811603D01*
X814142Y1164715D01*
Y1162175D01*
X803985D01*
X819220Y1167254D02*
Y1157097D01*
Y1162175D01*
X821759Y1164715D01*
X824299Y1167254D01*
X826838D01*
X834455Y1157097D02*
X839534D01*
X836995D01*
Y1172332D01*
X834455D01*
X849690Y1167254D02*
X854769D01*
X857308Y1164715D01*
Y1157097D01*
X849690D01*
X847151Y1159636D01*
X849690Y1162175D01*
X857308D01*
X862386Y1167254D02*
Y1159636D01*
X864926Y1157097D01*
X872543D01*
Y1154558D01*
X870004Y1152019D01*
X867465D01*
X872543Y1157097D02*
Y1167254D01*
X712575Y1141852D02*
X722731D01*
X717653D01*
Y1126617D01*
X730349D02*
X735427D01*
X737967Y1129156D01*
Y1134234D01*
X735427Y1136774D01*
X730349D01*
X727810Y1134234D01*
Y1129156D01*
X730349Y1126617D01*
X743045Y1121539D02*
Y1136774D01*
X750663D01*
X753202Y1134234D01*
Y1129156D01*
X750663Y1126617D01*
X743045D01*
X783672Y1139313D02*
X781133Y1141852D01*
X776054D01*
X773515Y1139313D01*
Y1136774D01*
X776054Y1134234D01*
X781133D01*
X783672Y1131695D01*
Y1129156D01*
X781133Y1126617D01*
X776054D01*
X773515Y1129156D01*
X791289Y1126617D02*
X796368D01*
X798907Y1129156D01*
Y1134234D01*
X796368Y1136774D01*
X791289D01*
X788750Y1134234D01*
Y1129156D01*
X791289Y1126617D01*
X803985D02*
X809064D01*
X806524D01*
Y1141852D01*
X803985D01*
X826838D02*
Y1126617D01*
X819220D01*
X816681Y1129156D01*
Y1134234D01*
X819220Y1136774D01*
X826838D01*
X839534Y1126617D02*
X834455D01*
X831916Y1129156D01*
Y1134234D01*
X834455Y1136774D01*
X839534D01*
X842073Y1134234D01*
Y1131695D01*
X831916D01*
X847151Y1136774D02*
Y1126617D01*
Y1131695D01*
X849690Y1134234D01*
X852230Y1136774D01*
X854769D01*
X712575Y1111372D02*
X722731D01*
X717653D01*
Y1096137D01*
X730349D02*
X735427D01*
X737967Y1098676D01*
Y1103755D01*
X735427Y1106294D01*
X730349D01*
X727810Y1103755D01*
Y1098676D01*
X730349Y1096137D01*
X743045Y1091059D02*
Y1106294D01*
X750663D01*
X753202Y1103755D01*
Y1098676D01*
X750663Y1096137D01*
X743045D01*
X773515Y1111372D02*
Y1096137D01*
X783672D01*
X791289Y1106294D02*
X796368D01*
X798907Y1103755D01*
Y1096137D01*
X791289D01*
X788750Y1098676D01*
X791289Y1101215D01*
X798907D01*
X803985Y1106294D02*
Y1098676D01*
X806524Y1096137D01*
X814142D01*
Y1093598D01*
X811603Y1091059D01*
X809064D01*
X814142Y1096137D02*
Y1106294D01*
X826838Y1096137D02*
X821759D01*
X819220Y1098676D01*
Y1103755D01*
X821759Y1106294D01*
X826838D01*
X829377Y1103755D01*
Y1101215D01*
X819220D01*
X834455Y1106294D02*
Y1096137D01*
Y1101215D01*
X836995Y1103755D01*
X839534Y1106294D01*
X842073D01*
X712575Y1080892D02*
Y1065657D01*
X720192D01*
X722731Y1068196D01*
Y1078353D01*
X720192Y1080892D01*
X712575D01*
X727810Y1065657D02*
X732888D01*
X730349D01*
Y1075814D01*
X727810D01*
X748123Y1065657D02*
X743045D01*
X740506Y1068196D01*
Y1073275D01*
X743045Y1075814D01*
X748123D01*
X750663Y1073275D01*
Y1070735D01*
X740506D01*
X755741Y1065657D02*
X760819D01*
X758280D01*
Y1080892D01*
X755741D01*
X776054Y1065657D02*
X770976D01*
X768437Y1068196D01*
Y1073275D01*
X770976Y1075814D01*
X776054D01*
X778594Y1073275D01*
Y1070735D01*
X768437D01*
X793829Y1075814D02*
X786211D01*
X783672Y1073275D01*
Y1068196D01*
X786211Y1065657D01*
X793829D01*
X801446Y1078353D02*
Y1075814D01*
X798907D01*
X803985D01*
X801446D01*
Y1068196D01*
X803985Y1065657D01*
X811603Y1075814D02*
Y1065657D01*
Y1070735D01*
X814142Y1073275D01*
X816681Y1075814D01*
X819220D01*
X826838Y1065657D02*
X831916D01*
X829377D01*
Y1075814D01*
X826838D01*
X849690D02*
X842073D01*
X839534Y1073275D01*
Y1068196D01*
X842073Y1065657D01*
X849690D01*
X880161D02*
X870004D01*
X880161Y1075814D01*
Y1078353D01*
X877621Y1080892D01*
X872543D01*
X870004Y1078353D01*
X722731Y1047873D02*
X720192Y1050412D01*
X715114D01*
X712575Y1047873D01*
Y1037716D01*
X715114Y1035177D01*
X720192D01*
X722731Y1037716D01*
Y1042794D01*
X717653D01*
X727810Y1035177D02*
Y1050412D01*
X737967Y1035177D01*
Y1050412D01*
X743045D02*
Y1035177D01*
X750663D01*
X753202Y1037716D01*
Y1047873D01*
X750663Y1050412D01*
X743045D01*
X712575Y1019932D02*
Y1004697D01*
X720192D01*
X722731Y1007236D01*
Y1017393D01*
X720192Y1019932D01*
X712575D01*
X727810Y1004697D02*
X732888D01*
X730349D01*
Y1014854D01*
X727810D01*
X748123Y1004697D02*
X743045D01*
X740506Y1007236D01*
Y1012315D01*
X743045Y1014854D01*
X748123D01*
X750663Y1012315D01*
Y1009775D01*
X740506D01*
X755741Y1004697D02*
X760819D01*
X758280D01*
Y1019932D01*
X755741D01*
X776054Y1004697D02*
X770976D01*
X768437Y1007236D01*
Y1012315D01*
X770976Y1014854D01*
X776054D01*
X778594Y1012315D01*
Y1009775D01*
X768437D01*
X793829Y1014854D02*
X786211D01*
X783672Y1012315D01*
Y1007236D01*
X786211Y1004697D01*
X793829D01*
X801446Y1017393D02*
Y1014854D01*
X798907D01*
X803985D01*
X801446D01*
Y1007236D01*
X803985Y1004697D01*
X811603Y1014854D02*
Y1004697D01*
Y1009775D01*
X814142Y1012315D01*
X816681Y1014854D01*
X819220D01*
X826838Y1004697D02*
X831916D01*
X829377D01*
Y1014854D01*
X826838D01*
X849690D02*
X842073D01*
X839534Y1012315D01*
Y1007236D01*
X842073Y1004697D01*
X849690D01*
X877621D02*
Y1019932D01*
X870004Y1012315D01*
X880161D01*
X712575Y974217D02*
Y989452D01*
X720192D01*
X722731Y986913D01*
Y981834D01*
X720192Y979295D01*
X712575D01*
X735427Y989452D02*
X730349D01*
X727810Y986913D01*
Y976756D01*
X730349Y974217D01*
X735427D01*
X737967Y976756D01*
Y986913D01*
X735427Y989452D01*
X743045D02*
Y974217D01*
X748123Y979295D01*
X753202Y974217D01*
Y989452D01*
X768437D02*
X758280D01*
Y974217D01*
X768437D01*
X758280Y981834D02*
X763358D01*
X773515Y974217D02*
Y989452D01*
X781133D01*
X783672Y986913D01*
Y981834D01*
X781133Y979295D01*
X773515D01*
X778594D02*
X783672Y974217D01*
X712575Y958972D02*
Y943737D01*
X720192D01*
X722731Y946276D01*
Y956433D01*
X720192Y958972D01*
X712575D01*
X727810Y943737D02*
X732888D01*
X730349D01*
Y953894D01*
X727810D01*
X748123Y943737D02*
X743045D01*
X740506Y946276D01*
Y951355D01*
X743045Y953894D01*
X748123D01*
X750663Y951355D01*
Y948815D01*
X740506D01*
X755741Y943737D02*
X760819D01*
X758280D01*
Y958972D01*
X755741D01*
X776054Y943737D02*
X770976D01*
X768437Y946276D01*
Y951355D01*
X770976Y953894D01*
X776054D01*
X778594Y951355D01*
Y948815D01*
X768437D01*
X793829Y953894D02*
X786211D01*
X783672Y951355D01*
Y946276D01*
X786211Y943737D01*
X793829D01*
X801446Y956433D02*
Y953894D01*
X798907D01*
X803985D01*
X801446D01*
Y946276D01*
X803985Y943737D01*
X811603Y953894D02*
Y943737D01*
Y948815D01*
X814142Y951355D01*
X816681Y953894D01*
X819220D01*
X826838Y943737D02*
X831916D01*
X829377D01*
Y953894D01*
X826838D01*
X849690D02*
X842073D01*
X839534Y951355D01*
Y946276D01*
X842073Y943737D01*
X849690D01*
X870004D02*
X875082D01*
X872543D01*
Y958972D01*
X870004Y956433D01*
X722731Y925953D02*
X720192Y928492D01*
X715114D01*
X712575Y925953D01*
Y923414D01*
X715114Y920874D01*
X720192D01*
X722731Y918335D01*
Y915796D01*
X720192Y913257D01*
X715114D01*
X712575Y915796D01*
X727810Y928492D02*
X732888D01*
X730349D01*
Y913257D01*
X727810D01*
X732888D01*
X750663Y925953D02*
X748123Y928492D01*
X743045D01*
X740506Y925953D01*
Y915796D01*
X743045Y913257D01*
X748123D01*
X750663Y915796D01*
Y920874D01*
X745584D01*
X755741Y913257D02*
Y928492D01*
X765898Y913257D01*
Y928492D01*
X770976Y913257D02*
Y923414D01*
X776054Y928492D01*
X781133Y923414D01*
Y913257D01*
Y920874D01*
X770976D01*
X786211Y928492D02*
Y913257D01*
X796368D01*
X801446D02*
X806524D01*
X803985D01*
Y928492D01*
X801446Y925953D01*
X712575Y898012D02*
Y882777D01*
X720192D01*
X722731Y885316D01*
Y895473D01*
X720192Y898012D01*
X712575D01*
X727810Y882777D02*
X732888D01*
X730349D01*
Y892934D01*
X727810D01*
X748123Y882777D02*
X743045D01*
X740506Y885316D01*
Y890395D01*
X743045Y892934D01*
X748123D01*
X750663Y890395D01*
Y887855D01*
X740506D01*
X755741Y882777D02*
X760819D01*
X758280D01*
Y898012D01*
X755741D01*
X776054Y882777D02*
X770976D01*
X768437Y885316D01*
Y890395D01*
X770976Y892934D01*
X776054D01*
X778594Y890395D01*
Y887855D01*
X768437D01*
X793829Y892934D02*
X786211D01*
X783672Y890395D01*
Y885316D01*
X786211Y882777D01*
X793829D01*
X801446Y895473D02*
Y892934D01*
X798907D01*
X803985D01*
X801446D01*
Y885316D01*
X803985Y882777D01*
X811603Y892934D02*
Y882777D01*
Y887855D01*
X814142Y890395D01*
X816681Y892934D01*
X819220D01*
X826838Y882777D02*
X831916D01*
X829377D01*
Y892934D01*
X826838D01*
X849690D02*
X842073D01*
X839534Y890395D01*
Y885316D01*
X842073Y882777D01*
X849690D01*
X880161Y898012D02*
X870004D01*
Y890395D01*
X875082Y892934D01*
X877621D01*
X880161Y890395D01*
Y885316D01*
X877621Y882777D01*
X872543D01*
X870004Y885316D01*
X722731Y864993D02*
X720192Y867532D01*
X715114D01*
X712575Y864993D01*
Y862454D01*
X715114Y859914D01*
X720192D01*
X722731Y857375D01*
Y854836D01*
X720192Y852297D01*
X715114D01*
X712575Y854836D01*
X727810Y867532D02*
X732888D01*
X730349D01*
Y852297D01*
X727810D01*
X732888D01*
X750663Y864993D02*
X748123Y867532D01*
X743045D01*
X740506Y864993D01*
Y854836D01*
X743045Y852297D01*
X748123D01*
X750663Y854836D01*
Y859914D01*
X745584D01*
X755741Y852297D02*
Y867532D01*
X765898Y852297D01*
Y867532D01*
X770976Y852297D02*
Y862454D01*
X776054Y867532D01*
X781133Y862454D01*
Y852297D01*
Y859914D01*
X770976D01*
X786211Y867532D02*
Y852297D01*
X796368D01*
X811603D02*
X801446D01*
X811603Y862454D01*
Y864993D01*
X809064Y867532D01*
X803985D01*
X801446Y864993D01*
X712575Y837052D02*
Y821817D01*
X720192D01*
X722731Y824356D01*
Y834513D01*
X720192Y837052D01*
X712575D01*
X727810Y821817D02*
X732888D01*
X730349D01*
Y831974D01*
X727810D01*
X748123Y821817D02*
X743045D01*
X740506Y824356D01*
Y829435D01*
X743045Y831974D01*
X748123D01*
X750663Y829435D01*
Y826895D01*
X740506D01*
X755741Y821817D02*
X760819D01*
X758280D01*
Y837052D01*
X755741D01*
X776054Y821817D02*
X770976D01*
X768437Y824356D01*
Y829435D01*
X770976Y831974D01*
X776054D01*
X778594Y829435D01*
Y826895D01*
X768437D01*
X793829Y831974D02*
X786211D01*
X783672Y829435D01*
Y824356D01*
X786211Y821817D01*
X793829D01*
X801446Y834513D02*
Y831974D01*
X798907D01*
X803985D01*
X801446D01*
Y824356D01*
X803985Y821817D01*
X811603Y831974D02*
Y821817D01*
Y826895D01*
X814142Y829435D01*
X816681Y831974D01*
X819220D01*
X826838Y821817D02*
X831916D01*
X829377D01*
Y831974D01*
X826838D01*
X849690D02*
X842073D01*
X839534Y829435D01*
Y824356D01*
X842073Y821817D01*
X849690D01*
X870004Y834513D02*
X872543Y837052D01*
X877621D01*
X880161Y834513D01*
Y831974D01*
X877621Y829435D01*
X875082D01*
X877621D01*
X880161Y826895D01*
Y824356D01*
X877621Y821817D01*
X872543D01*
X870004Y824356D01*
X712575Y806572D02*
Y791337D01*
X720192D01*
X722731Y793876D01*
Y796415D01*
X720192Y798954D01*
X712575D01*
X720192D01*
X722731Y801494D01*
Y804033D01*
X720192Y806572D01*
X712575D01*
X730349Y791337D02*
X735427D01*
X737967Y793876D01*
Y798954D01*
X735427Y801494D01*
X730349D01*
X727810Y798954D01*
Y793876D01*
X730349Y791337D01*
X745584Y804033D02*
Y801494D01*
X743045D01*
X748123D01*
X745584D01*
Y793876D01*
X748123Y791337D01*
X758280Y804033D02*
Y801494D01*
X755741D01*
X760819D01*
X758280D01*
Y793876D01*
X760819Y791337D01*
X770976D02*
X776054D01*
X778594Y793876D01*
Y798954D01*
X776054Y801494D01*
X770976D01*
X768437Y798954D01*
Y793876D01*
X770976Y791337D01*
X783672D02*
Y801494D01*
X786211D01*
X788750Y798954D01*
Y791337D01*
Y798954D01*
X791289Y801494D01*
X793829Y798954D01*
Y791337D01*
X814142Y806572D02*
Y791337D01*
X824299D01*
X831916Y801494D02*
X836995D01*
X839534Y798954D01*
Y791337D01*
X831916D01*
X829377Y793876D01*
X831916Y796415D01*
X839534D01*
X844612Y801494D02*
Y793876D01*
X847151Y791337D01*
X854769D01*
Y788798D01*
X852230Y786259D01*
X849690D01*
X854769Y791337D02*
Y801494D01*
X867465Y791337D02*
X862386D01*
X859847Y793876D01*
Y798954D01*
X862386Y801494D01*
X867465D01*
X870004Y798954D01*
Y796415D01*
X859847D01*
X875082Y801494D02*
Y791337D01*
Y796415D01*
X877621Y798954D01*
X880161Y801494D01*
X882700D01*
X712575Y776092D02*
Y760857D01*
X720192D01*
X722731Y763396D01*
Y765935D01*
X720192Y768475D01*
X712575D01*
X720192D01*
X722731Y771014D01*
Y773553D01*
X720192Y776092D01*
X712575D01*
X730349Y760857D02*
X735427D01*
X737967Y763396D01*
Y768475D01*
X735427Y771014D01*
X730349D01*
X727810Y768475D01*
Y763396D01*
X730349Y760857D01*
X745584Y773553D02*
Y771014D01*
X743045D01*
X748123D01*
X745584D01*
Y763396D01*
X748123Y760857D01*
X758280Y773553D02*
Y771014D01*
X755741D01*
X760819D01*
X758280D01*
Y763396D01*
X760819Y760857D01*
X770976D02*
X776054D01*
X778594Y763396D01*
Y768475D01*
X776054Y771014D01*
X770976D01*
X768437Y768475D01*
Y763396D01*
X770976Y760857D01*
X783672D02*
Y771014D01*
X786211D01*
X788750Y768475D01*
Y760857D01*
Y768475D01*
X791289Y771014D01*
X793829Y768475D01*
Y760857D01*
X824299Y773553D02*
X821759Y776092D01*
X816681D01*
X814142Y773553D01*
Y771014D01*
X816681Y768475D01*
X821759D01*
X824299Y765935D01*
Y763396D01*
X821759Y760857D01*
X816681D01*
X814142Y763396D01*
X831916Y760857D02*
X836995D01*
X839534Y763396D01*
Y768475D01*
X836995Y771014D01*
X831916D01*
X829377Y768475D01*
Y763396D01*
X831916Y760857D01*
X844612D02*
X849690D01*
X847151D01*
Y776092D01*
X844612D01*
X867465D02*
Y760857D01*
X859847D01*
X857308Y763396D01*
Y768475D01*
X859847Y771014D01*
X867465D01*
X880161Y760857D02*
X875082D01*
X872543Y763396D01*
Y768475D01*
X875082Y771014D01*
X880161D01*
X882700Y768475D01*
Y765935D01*
X872543D01*
X887778Y771014D02*
Y760857D01*
Y765935D01*
X890317Y768475D01*
X892857Y771014D01*
X895396D01*
X712575Y745612D02*
Y730377D01*
X720192D01*
X722731Y732916D01*
Y735455D01*
X720192Y737995D01*
X712575D01*
X720192D01*
X722731Y740534D01*
Y743073D01*
X720192Y745612D01*
X712575D01*
X730349Y730377D02*
X735427D01*
X737967Y732916D01*
Y737995D01*
X735427Y740534D01*
X730349D01*
X727810Y737995D01*
Y732916D01*
X730349Y730377D01*
X745584Y743073D02*
Y740534D01*
X743045D01*
X748123D01*
X745584D01*
Y732916D01*
X748123Y730377D01*
X758280Y743073D02*
Y740534D01*
X755741D01*
X760819D01*
X758280D01*
Y732916D01*
X760819Y730377D01*
X770976D02*
X776054D01*
X778594Y732916D01*
Y737995D01*
X776054Y740534D01*
X770976D01*
X768437Y737995D01*
Y732916D01*
X770976Y730377D01*
X783672D02*
Y740534D01*
X786211D01*
X788750Y737995D01*
Y730377D01*
Y737995D01*
X791289Y740534D01*
X793829Y737995D01*
Y730377D01*
X821759Y745612D02*
X816681D01*
X814142Y743073D01*
Y732916D01*
X816681Y730377D01*
X821759D01*
X824299Y732916D01*
Y743073D01*
X821759Y745612D01*
X829377Y740534D02*
X834455Y730377D01*
X839534Y740534D01*
X852230Y730377D02*
X847151D01*
X844612Y732916D01*
Y737995D01*
X847151Y740534D01*
X852230D01*
X854769Y737995D01*
Y735455D01*
X844612D01*
X859847Y740534D02*
Y730377D01*
Y735455D01*
X862386Y737995D01*
X864926Y740534D01*
X867465D01*
X875082Y730377D02*
X880161D01*
X877621D01*
Y745612D01*
X875082D01*
X890317Y740534D02*
X895396D01*
X897935Y737995D01*
Y730377D01*
X890317D01*
X887778Y732916D01*
X890317Y735455D01*
X897935D01*
X903013Y740534D02*
Y732916D01*
X905552Y730377D01*
X913170D01*
Y727838D01*
X910631Y725299D01*
X908092D01*
X913170Y730377D02*
Y740534D01*
X712575Y1187577D02*
Y1202812D01*
X722731Y1187577D01*
Y1202812D01*
X730349Y1197734D02*
X735427D01*
X737967Y1195194D01*
Y1187577D01*
X730349D01*
X727810Y1190116D01*
X730349Y1192655D01*
X737967D01*
X743045Y1187577D02*
Y1197734D01*
X745584D01*
X748123Y1195194D01*
Y1187577D01*
Y1195194D01*
X750663Y1197734D01*
X753202Y1195194D01*
Y1187577D01*
X765898D02*
X760819D01*
X758280Y1190116D01*
Y1195194D01*
X760819Y1197734D01*
X765898D01*
X768437Y1195194D01*
Y1192655D01*
X758280D01*
X608457Y1096137D02*
X613535D01*
X610996D01*
Y1111372D01*
X608457Y1108833D01*
X618614Y1035177D02*
X608457D01*
X618614Y1045334D01*
Y1047873D01*
X616074Y1050412D01*
X610996D01*
X608457Y1047873D01*
Y986913D02*
X610996Y989452D01*
X616074D01*
X618614Y986913D01*
Y984374D01*
X616074Y981834D01*
X613535D01*
X616074D01*
X618614Y979295D01*
Y976756D01*
X616074Y974217D01*
X610996D01*
X608457Y976756D01*
X616074Y913257D02*
Y928492D01*
X608457Y920874D01*
X618614D01*
Y867532D02*
X608457D01*
Y859914D01*
X613535Y862454D01*
X616074D01*
X618614Y859914D01*
Y854836D01*
X616074Y852297D01*
X610996D01*
X608457Y854836D01*
X618614Y806572D02*
X613535Y804033D01*
X608457Y798954D01*
Y793876D01*
X610996Y791337D01*
X616074D01*
X618614Y793876D01*
Y796415D01*
X616074Y798954D01*
X608457D01*
Y1202812D02*
Y1187577D01*
X618614D01*
X626231Y1197734D02*
X631310D01*
X633849Y1195194D01*
Y1187577D01*
X626231D01*
X623692Y1190116D01*
X626231Y1192655D01*
X633849D01*
X638927Y1197734D02*
Y1190116D01*
X641466Y1187577D01*
X649084D01*
Y1185038D01*
X646545Y1182499D01*
X644006D01*
X649084Y1187577D02*
Y1197734D01*
X661780Y1187577D02*
X656701D01*
X654162Y1190116D01*
Y1195194D01*
X656701Y1197734D01*
X661780D01*
X664319Y1195194D01*
Y1192655D01*
X654162D01*
X669397Y1197734D02*
Y1187577D01*
Y1192655D01*
X671936Y1195194D01*
X674476Y1197734D01*
X677015D01*
D127*
X1743533Y722757D02*
Y1210437D01*
X1459134Y1149477D02*
X1743533D01*
X1459134Y1118997D02*
X1743533D01*
X1459134Y1088517D02*
X1743533D01*
X1459134Y1058037D02*
X1743533D01*
X1459134Y1027557D02*
X1743533D01*
X1459134Y997077D02*
X1743533D01*
X1459134Y966597D02*
X1743533D01*
X1459134Y936117D02*
X1743533D01*
X1459134Y905637D02*
X1743533D01*
X1459134Y875157D02*
X1743533D01*
X1459134Y844677D02*
X1743533D01*
X1459134Y814197D02*
X1743533D01*
X1459134Y783717D02*
X1743533D01*
X1459134Y753237D02*
X1743533D01*
X1459134Y722757D02*
X1743533D01*
X1459134D02*
Y1210437D01*
X1314389Y1149477D02*
X1459134D01*
X1314389Y1118997D02*
X1459134D01*
X1314389Y1088517D02*
X1459134D01*
X1314389Y1058037D02*
X1459134D01*
X1314389Y1027557D02*
X1459134D01*
X1314389Y997077D02*
X1459134D01*
X1314389Y966597D02*
X1459134D01*
X1314389Y936117D02*
X1459134D01*
X1314389Y905637D02*
X1459134D01*
X1314389Y875157D02*
X1459134D01*
X1314389Y844677D02*
X1459134D01*
X1314389Y814197D02*
X1459134D01*
X1314389Y783717D02*
X1459134D01*
X1314389Y753237D02*
X1459134D01*
X1314389Y722757D02*
X1459134D01*
X1314389D02*
Y1210437D01*
X1149331Y1149477D02*
X1314389D01*
X1149331Y1118997D02*
X1314389D01*
X1149331Y1088517D02*
X1314389D01*
X1149331Y1058037D02*
X1314389D01*
X1149331Y1027557D02*
X1314389D01*
X1149331Y997077D02*
X1314389D01*
X1149331Y966597D02*
X1314389D01*
X1149331Y936117D02*
X1314389D01*
X1149331Y905637D02*
X1314389D01*
X1149331Y875157D02*
X1314389D01*
X1149331Y844677D02*
X1314389D01*
X1149331Y814197D02*
X1314389D01*
X1149331Y783717D02*
X1314389D01*
X1149331Y753237D02*
X1314389D01*
X1149331Y722757D02*
X1314389D01*
X1149331D02*
Y1210437D01*
X930950Y1149477D02*
X1149331D01*
X930950Y1118997D02*
X1149331D01*
X930950Y1088517D02*
X1149331D01*
X930950Y1058037D02*
X1149331D01*
X930950Y1027557D02*
X1149331D01*
X930950Y997077D02*
X1149331D01*
X930950Y966597D02*
X1149331D01*
X930950Y936117D02*
X1149331D01*
X930950Y905637D02*
X1149331D01*
X930950Y875157D02*
X1149331D01*
X930950Y844677D02*
X1149331D01*
X930950Y814197D02*
X1149331D01*
X930950Y783717D02*
X1149331D01*
X930950Y753237D02*
X1149331D01*
X930950Y722757D02*
X1149331D01*
X930950D02*
Y1210437D01*
X694795Y1149477D02*
X930950D01*
X694795Y1118997D02*
X930950D01*
X694795Y1088517D02*
X930950D01*
X694795Y1058037D02*
X930950D01*
X694795Y1027557D02*
X930950D01*
X694795Y997077D02*
X930950D01*
X694795Y966597D02*
X930950D01*
X694795Y936117D02*
X930950D01*
X694795Y905637D02*
X930950D01*
X694795Y875157D02*
X930950D01*
X694795Y844677D02*
X930950D01*
X694795Y814197D02*
X930950D01*
X694795Y783717D02*
X930950D01*
X694795Y753237D02*
X930950D01*
X694795Y722757D02*
X930950D01*
X694795D02*
Y1210437D01*
X590677Y1149477D02*
X694795D01*
X590677Y1118997D02*
X694795D01*
X590677Y1088517D02*
X694795D01*
X590677Y1058037D02*
X694795D01*
X590677Y1027557D02*
X694795D01*
X590677Y997077D02*
X694795D01*
X590677Y966597D02*
X694795D01*
X590677Y936117D02*
X694795D01*
X590677Y905637D02*
X694795D01*
X590677Y875157D02*
X694795D01*
X590677Y844677D02*
X694795D01*
X590677Y814197D02*
X694795D01*
X590677Y783717D02*
X694795D01*
X590677Y753237D02*
X694795D01*
X590677Y722757D02*
X694795D01*
X590677D02*
Y1210437D01*
X1743533D01*
X590677Y1179957D02*
X1743533D01*
D172*
X1459134Y1169877D02*
X1469213Y1179957D01*
X1459134Y1154638D02*
X1484453Y1179957D01*
X1469213Y1149477D02*
X1499693Y1179957D01*
X1484453Y1149477D02*
X1514933Y1179957D01*
X1499693Y1149477D02*
X1530173Y1179957D01*
X1514933Y1149477D02*
X1545413Y1179957D01*
X1530173Y1149477D02*
X1560653Y1179957D01*
X1545413Y1149477D02*
X1575893Y1179957D01*
X1560653Y1149477D02*
X1591133Y1179957D01*
X1575893Y1149477D02*
X1606373Y1179957D01*
X1591133Y1149477D02*
X1621613Y1179957D01*
X1606373Y1149477D02*
X1636853Y1179957D01*
X1621613Y1149477D02*
X1652093Y1179957D01*
X1636853Y1149477D02*
X1667333Y1179957D01*
X1652093Y1149477D02*
X1682573Y1179957D01*
X1667333Y1149477D02*
X1697813Y1179957D01*
X1682573Y1149477D02*
X1713053Y1179957D01*
X1697813Y1149477D02*
X1728293Y1179957D01*
X1713053Y1149477D02*
X1743533Y1179957D01*
X1728293Y1149477D02*
X1743533Y1164717D01*
X1459134Y1139398D02*
X1469213Y1149477D01*
X1459134Y1124157D02*
X1484453Y1149477D01*
X1469213Y1118997D02*
X1499693Y1149477D01*
X1484453Y1118997D02*
X1514933Y1149477D01*
X1499693Y1118997D02*
X1530173Y1149477D01*
X1514933Y1118997D02*
X1545413Y1149477D01*
X1530173Y1118997D02*
X1560653Y1149477D01*
X1545413Y1118997D02*
X1575893Y1149477D01*
X1560653Y1118997D02*
X1591133Y1149477D01*
X1575893Y1118997D02*
X1606373Y1149477D01*
X1591133Y1118997D02*
X1621613Y1149477D01*
X1606373Y1118997D02*
X1636853Y1149477D01*
X1621613Y1118997D02*
X1652093Y1149477D01*
X1636853Y1118997D02*
X1667333Y1149477D01*
X1652093Y1118997D02*
X1682573Y1149477D01*
X1667333Y1118997D02*
X1697813Y1149477D01*
X1682573Y1118997D02*
X1713053Y1149477D01*
X1697813Y1118997D02*
X1728293Y1149477D01*
X1713053Y1118997D02*
X1743533Y1149477D01*
X1728293Y1118997D02*
X1743533Y1134237D01*
X1459134Y1108917D02*
X1469213Y1118997D01*
X1459134Y1093678D02*
X1484453Y1118997D01*
X1469213Y1088517D02*
X1499693Y1118997D01*
X1484453Y1088517D02*
X1514933Y1118997D01*
X1499693Y1088517D02*
X1530173Y1118997D01*
X1514933Y1088517D02*
X1545413Y1118997D01*
X1530173Y1088517D02*
X1560653Y1118997D01*
X1545413Y1088517D02*
X1575893Y1118997D01*
X1560653Y1088517D02*
X1591133Y1118997D01*
X1575893Y1088517D02*
X1606373Y1118997D01*
X1591133Y1088517D02*
X1621613Y1118997D01*
X1606373Y1088517D02*
X1636853Y1118997D01*
X1621613Y1088517D02*
X1652093Y1118997D01*
X1636853Y1088517D02*
X1667333Y1118997D01*
X1652093Y1088517D02*
X1682573Y1118997D01*
X1667333Y1088517D02*
X1697813Y1118997D01*
X1682573Y1088517D02*
X1713053Y1118997D01*
X1697813Y1088517D02*
X1728293Y1118997D01*
X1713053Y1088517D02*
X1743533Y1118997D01*
X1728293Y1088517D02*
X1743533Y1103757D01*
X1459134Y1078438D02*
X1469213Y1088517D01*
X1459134Y1063197D02*
X1484453Y1088517D01*
X1469213Y1058037D02*
X1499693Y1088517D01*
X1484453Y1058037D02*
X1514933Y1088517D01*
X1499693Y1058037D02*
X1530173Y1088517D01*
X1514933Y1058037D02*
X1545413Y1088517D01*
X1530173Y1058037D02*
X1560653Y1088517D01*
X1545413Y1058037D02*
X1575893Y1088517D01*
X1560653Y1058037D02*
X1591133Y1088517D01*
X1575893Y1058037D02*
X1606373Y1088517D01*
X1591133Y1058037D02*
X1621613Y1088517D01*
X1606373Y1058037D02*
X1636853Y1088517D01*
X1621613Y1058037D02*
X1652093Y1088517D01*
X1636853Y1058037D02*
X1667333Y1088517D01*
X1652093Y1058037D02*
X1682573Y1088517D01*
X1667333Y1058037D02*
X1697813Y1088517D01*
X1682573Y1058037D02*
X1713053Y1088517D01*
X1697813Y1058037D02*
X1728293Y1088517D01*
X1713053Y1058037D02*
X1743533Y1088517D01*
X1728293Y1058037D02*
X1743533Y1073277D01*
X1459134Y1047958D02*
X1469213Y1058037D01*
X1459134Y1032718D02*
X1484453Y1058037D01*
X1469213Y1027557D02*
X1499693Y1058037D01*
X1484453Y1027557D02*
X1514933Y1058037D01*
X1499693Y1027557D02*
X1530173Y1058037D01*
X1514933Y1027557D02*
X1545413Y1058037D01*
X1530173Y1027557D02*
X1560653Y1058037D01*
X1545413Y1027557D02*
X1575893Y1058037D01*
X1560653Y1027557D02*
X1591133Y1058037D01*
X1575893Y1027557D02*
X1606373Y1058037D01*
X1591133Y1027557D02*
X1621613Y1058037D01*
X1606373Y1027557D02*
X1636853Y1058037D01*
X1621613Y1027557D02*
X1652093Y1058037D01*
X1636853Y1027557D02*
X1667333Y1058037D01*
X1652093Y1027557D02*
X1682573Y1058037D01*
X1667333Y1027557D02*
X1697813Y1058037D01*
X1682573Y1027557D02*
X1713053Y1058037D01*
X1697813Y1027557D02*
X1728293Y1058037D01*
X1713053Y1027557D02*
X1743533Y1058037D01*
X1728293Y1027557D02*
X1743533Y1042797D01*
X1459134Y1017477D02*
X1469213Y1027557D01*
X1459134Y1002237D02*
X1484453Y1027557D01*
X1469213Y997077D02*
X1499693Y1027557D01*
X1484453Y997077D02*
X1514933Y1027557D01*
X1499693Y997077D02*
X1530173Y1027557D01*
X1514933Y997077D02*
X1545413Y1027557D01*
X1530173Y997077D02*
X1560653Y1027557D01*
X1545413Y997077D02*
X1575893Y1027557D01*
X1560653Y997077D02*
X1591133Y1027557D01*
X1575893Y997077D02*
X1606373Y1027557D01*
X1591133Y997077D02*
X1621613Y1027557D01*
X1606373Y997077D02*
X1636853Y1027557D01*
X1621613Y997077D02*
X1652093Y1027557D01*
X1636853Y997077D02*
X1667333Y1027557D01*
X1652093Y997077D02*
X1682573Y1027557D01*
X1667333Y997077D02*
X1697813Y1027557D01*
X1682573Y997077D02*
X1713053Y1027557D01*
X1697813Y997077D02*
X1728293Y1027557D01*
X1713053Y997077D02*
X1743533Y1027557D01*
X1728293Y997077D02*
X1743533Y1012317D01*
X1459134Y986998D02*
X1469213Y997077D01*
X1459134Y971758D02*
X1484453Y997077D01*
X1469213Y966597D02*
X1499693Y997077D01*
X1484453Y966597D02*
X1514933Y997077D01*
X1499693Y966597D02*
X1530173Y997077D01*
X1514933Y966597D02*
X1545413Y997077D01*
X1530173Y966597D02*
X1560653Y997077D01*
X1545413Y966597D02*
X1575893Y997077D01*
X1560653Y966597D02*
X1591133Y997077D01*
X1575893Y966597D02*
X1606373Y997077D01*
X1591133Y966597D02*
X1621613Y997077D01*
X1606373Y966597D02*
X1636853Y997077D01*
X1621613Y966597D02*
X1652093Y997077D01*
X1636853Y966597D02*
X1667333Y997077D01*
X1652093Y966597D02*
X1682573Y997077D01*
X1667333Y966597D02*
X1697813Y997077D01*
X1682573Y966597D02*
X1713053Y997077D01*
X1697813Y966597D02*
X1728293Y997077D01*
X1713053Y966597D02*
X1743533Y997077D01*
X1728293Y966597D02*
X1743533Y981837D01*
X1459134Y956517D02*
X1469213Y966597D01*
X1459134Y941277D02*
X1484453Y966597D01*
X1469213Y936117D02*
X1499693Y966597D01*
X1484453Y936117D02*
X1514933Y966597D01*
X1499693Y936117D02*
X1530173Y966597D01*
X1514933Y936117D02*
X1545413Y966597D01*
X1530173Y936117D02*
X1560653Y966597D01*
X1545413Y936117D02*
X1575893Y966597D01*
X1560653Y936117D02*
X1591133Y966597D01*
X1575893Y936117D02*
X1606373Y966597D01*
X1591133Y936117D02*
X1621613Y966597D01*
X1606373Y936117D02*
X1636853Y966597D01*
X1621613Y936117D02*
X1652093Y966597D01*
X1636853Y936117D02*
X1667333Y966597D01*
X1652093Y936117D02*
X1682573Y966597D01*
X1667333Y936117D02*
X1697813Y966597D01*
X1682573Y936117D02*
X1713053Y966597D01*
X1697813Y936117D02*
X1728293Y966597D01*
X1713053Y936117D02*
X1743533Y966597D01*
X1728293Y936117D02*
X1743533Y951357D01*
X1459134Y926038D02*
X1469213Y936117D01*
X1459134Y910798D02*
X1484453Y936117D01*
X1469213Y905637D02*
X1499693Y936117D01*
X1484453Y905637D02*
X1514933Y936117D01*
X1499693Y905637D02*
X1530173Y936117D01*
X1514933Y905637D02*
X1545413Y936117D01*
X1530173Y905637D02*
X1560653Y936117D01*
X1545413Y905637D02*
X1575893Y936117D01*
X1560653Y905637D02*
X1591133Y936117D01*
X1575893Y905637D02*
X1606373Y936117D01*
X1591133Y905637D02*
X1621613Y936117D01*
X1606373Y905637D02*
X1636853Y936117D01*
X1621613Y905637D02*
X1652093Y936117D01*
X1636853Y905637D02*
X1667333Y936117D01*
X1652093Y905637D02*
X1682573Y936117D01*
X1667333Y905637D02*
X1697813Y936117D01*
X1682573Y905637D02*
X1713053Y936117D01*
X1697813Y905637D02*
X1728293Y936117D01*
X1713053Y905637D02*
X1743533Y936117D01*
X1728293Y905637D02*
X1743533Y920877D01*
X1459134Y895557D02*
X1469213Y905637D01*
X1459134Y880318D02*
X1484453Y905637D01*
X1469213Y875157D02*
X1499693Y905637D01*
X1484453Y875157D02*
X1514933Y905637D01*
X1499693Y875157D02*
X1530173Y905637D01*
X1514933Y875157D02*
X1545413Y905637D01*
X1530173Y875157D02*
X1560653Y905637D01*
X1545413Y875157D02*
X1575893Y905637D01*
X1560653Y875157D02*
X1591133Y905637D01*
X1575893Y875157D02*
X1606373Y905637D01*
X1591133Y875157D02*
X1621613Y905637D01*
X1606373Y875157D02*
X1636853Y905637D01*
X1621613Y875157D02*
X1652093Y905637D01*
X1636853Y875157D02*
X1667333Y905637D01*
X1652093Y875157D02*
X1682573Y905637D01*
X1667333Y875157D02*
X1697813Y905637D01*
X1682573Y875157D02*
X1713053Y905637D01*
X1697813Y875157D02*
X1728293Y905637D01*
X1713053Y875157D02*
X1743533Y905637D01*
X1728293Y875157D02*
X1743533Y890397D01*
X1459134Y865078D02*
X1469213Y875157D01*
X1459134Y849837D02*
X1484453Y875157D01*
X1469213Y844677D02*
X1499693Y875157D01*
X1484453Y844677D02*
X1514933Y875157D01*
X1499693Y844677D02*
X1530173Y875157D01*
X1514933Y844677D02*
X1545413Y875157D01*
X1530173Y844677D02*
X1560653Y875157D01*
X1545413Y844677D02*
X1575893Y875157D01*
X1560653Y844677D02*
X1591133Y875157D01*
X1575893Y844677D02*
X1606373Y875157D01*
X1591133Y844677D02*
X1621613Y875157D01*
X1606373Y844677D02*
X1636853Y875157D01*
X1621613Y844677D02*
X1652093Y875157D01*
X1636853Y844677D02*
X1667333Y875157D01*
X1652093Y844677D02*
X1682573Y875157D01*
X1667333Y844677D02*
X1697813Y875157D01*
X1682573Y844677D02*
X1713053Y875157D01*
X1697813Y844677D02*
X1728293Y875157D01*
X1713053Y844677D02*
X1743533Y875157D01*
X1728293Y844677D02*
X1743533Y859917D01*
X1459134Y834597D02*
X1469213Y844677D01*
X1459134Y819358D02*
X1484453Y844677D01*
X1469213Y814197D02*
X1499693Y844677D01*
X1484453Y814197D02*
X1514933Y844677D01*
X1499693Y814197D02*
X1530173Y844677D01*
X1514933Y814197D02*
X1545413Y844677D01*
X1530173Y814197D02*
X1560653Y844677D01*
X1545413Y814197D02*
X1575893Y844677D01*
X1560653Y814197D02*
X1591133Y844677D01*
X1575893Y814197D02*
X1606373Y844677D01*
X1591133Y814197D02*
X1621613Y844677D01*
X1606373Y814197D02*
X1636853Y844677D01*
X1621613Y814197D02*
X1652093Y844677D01*
X1636853Y814197D02*
X1667333Y844677D01*
X1652093Y814197D02*
X1682573Y844677D01*
X1667333Y814197D02*
X1697813Y844677D01*
X1682573Y814197D02*
X1713053Y844677D01*
X1697813Y814197D02*
X1728293Y844677D01*
X1713053Y814197D02*
X1743533Y844677D01*
X1728293Y814197D02*
X1743533Y829437D01*
X1459134Y804118D02*
X1469213Y814197D01*
X1459134Y788877D02*
X1484453Y814197D01*
X1469213Y783717D02*
X1499693Y814197D01*
X1484453Y783717D02*
X1514933Y814197D01*
X1499693Y783717D02*
X1530173Y814197D01*
X1514933Y783717D02*
X1545413Y814197D01*
X1530173Y783717D02*
X1560653Y814197D01*
X1545413Y783717D02*
X1575893Y814197D01*
X1560653Y783717D02*
X1591133Y814197D01*
X1575893Y783717D02*
X1606373Y814197D01*
X1591133Y783717D02*
X1621613Y814197D01*
X1606373Y783717D02*
X1636853Y814197D01*
X1621613Y783717D02*
X1652093Y814197D01*
X1636853Y783717D02*
X1667333Y814197D01*
X1652093Y783717D02*
X1682573Y814197D01*
X1667333Y783717D02*
X1697813Y814197D01*
X1682573Y783717D02*
X1713053Y814197D01*
X1697813Y783717D02*
X1728293Y814197D01*
X1713053Y783717D02*
X1743533Y814197D01*
X1728293Y783717D02*
X1743533Y798957D01*
X1459134Y773637D02*
X1469213Y783717D01*
X1459134Y758398D02*
X1484453Y783717D01*
X1469213Y753237D02*
X1499693Y783717D01*
X1484453Y753237D02*
X1514933Y783717D01*
X1499693Y753237D02*
X1530173Y783717D01*
X1514933Y753237D02*
X1545413Y783717D01*
X1530173Y753237D02*
X1560653Y783717D01*
X1545413Y753237D02*
X1575893Y783717D01*
X1560653Y753237D02*
X1591133Y783717D01*
X1575893Y753237D02*
X1606373Y783717D01*
X1591133Y753237D02*
X1621613Y783717D01*
X1606373Y753237D02*
X1636853Y783717D01*
X1621613Y753237D02*
X1652093Y783717D01*
X1636853Y753237D02*
X1667333Y783717D01*
X1652093Y753237D02*
X1682573Y783717D01*
X1667333Y753237D02*
X1697813Y783717D01*
X1682573Y753237D02*
X1713053Y783717D01*
X1697813Y753237D02*
X1728293Y783717D01*
X1713053Y753237D02*
X1743533Y783717D01*
X1728293Y753237D02*
X1743533Y768477D01*
X1459134Y743158D02*
X1469213Y753237D01*
X1459134Y727917D02*
X1484453Y753237D01*
X1469213Y722757D02*
X1499693Y753237D01*
X1484453Y722757D02*
X1514933Y753237D01*
X1499693Y722757D02*
X1530173Y753237D01*
X1514933Y722757D02*
X1545413Y753237D01*
X1530173Y722757D02*
X1560653Y753237D01*
X1545413Y722757D02*
X1575893Y753237D01*
X1560653Y722757D02*
X1591133Y753237D01*
X1575893Y722757D02*
X1606373Y753237D01*
X1591133Y722757D02*
X1621613Y753237D01*
X1606373Y722757D02*
X1636853Y753237D01*
X1621613Y722757D02*
X1652093Y753237D01*
X1636853Y722757D02*
X1667333Y753237D01*
X1652093Y722757D02*
X1682573Y753237D01*
X1667333Y722757D02*
X1697813Y753237D01*
X1682573Y722757D02*
X1713053Y753237D01*
X1697813Y722757D02*
X1728293Y753237D01*
X1713053Y722757D02*
X1743533Y753237D01*
X1728293Y722757D02*
X1743533Y737997D01*
M02*
