G04*
G04 #@! TF.GenerationSoftware,Altium Limited,Altium Designer,20.0.1 (14)*
G04*
G04 Layer_Color=2752767*
%FSLAX44Y44*%
%MOMM*%
G71*
G01*
G75*
%ADD16C,0.2540*%
%ADD18C,0.0508*%
%ADD127C,0.3810*%
%ADD174C,0.4064*%
%ADD175C,0.3556*%
D16*
X611283Y418916D02*
G03*
X611283Y418916I-5080J0D01*
G01*
X614669D02*
G03*
X614669Y418916I-8467J0D01*
G01*
Y190316D02*
G03*
X614669Y190316I-8467J0D01*
G01*
X601123Y528136D02*
X611283D01*
Y538296D01*
X601123D02*
X611283D01*
X601123Y528136D02*
Y538296D01*
X597736Y524749D02*
X614669D01*
Y541683D01*
X597736D02*
X614669D01*
X597736Y524749D02*
Y541683D01*
X601969Y490882D02*
X606203Y486649D01*
X597736Y490882D02*
X601969D01*
X597736D02*
X601969Y495116D01*
X597736Y499349D02*
X601969Y495116D01*
X597736Y499349D02*
X601969D01*
X606203Y503582D01*
X610436Y499349D01*
X614669D01*
X610436Y495116D02*
X614669Y499349D01*
X610436Y495116D02*
X614669Y490882D01*
X610436D02*
X614669D01*
X606203Y486649D02*
X610436Y490882D01*
X597736Y448549D02*
X606203Y452783D01*
X614669Y448549D01*
X610436Y457016D02*
X614669Y448549D01*
X610436Y457016D02*
X614669Y465482D01*
X606203Y461249D02*
X614669Y465482D01*
X597736D02*
X606203Y461249D01*
X597736Y465482D02*
X601969Y457016D01*
X597736Y448549D02*
X601969Y457016D01*
X597736Y372349D02*
X614669D01*
Y389282D01*
X597736D02*
X614669D01*
X597736Y372349D02*
Y389282D01*
Y338483D02*
X601969D01*
X597736D02*
Y346949D01*
X601969D01*
Y351183D01*
X610436D01*
Y346949D02*
Y351183D01*
Y346949D02*
X614669D01*
Y338483D02*
Y346949D01*
X610436Y338483D02*
X614669D01*
X610436Y334249D02*
Y338483D01*
X601969Y334249D02*
X610436D01*
X601969D02*
Y338483D01*
X597736Y296149D02*
Y300382D01*
X601969Y304616D01*
X597736Y308849D02*
X601969Y304616D01*
X597736Y308849D02*
Y313083D01*
X601969D01*
X606203Y308849D01*
X610436Y313083D01*
X614669D01*
Y308849D02*
Y313083D01*
X610436Y304616D02*
X614669Y308849D01*
X610436Y304616D02*
X614669Y300382D01*
Y296149D02*
Y300382D01*
X610436Y296149D02*
X614669D01*
X606203Y300382D02*
X610436Y296149D01*
X601969D02*
X606203Y300382D01*
X597736Y296149D02*
X601969D01*
X597736Y266516D02*
X606203Y258049D01*
X614669Y266516D01*
X606203Y274982D02*
X614669Y266516D01*
X597736D02*
X606203Y274982D01*
Y219949D02*
X614669Y236882D01*
X597736D02*
X614669D01*
X597736D02*
X606203Y219949D01*
X2008626Y524749D02*
Y539984D01*
X2016244D01*
X2018783Y537445D01*
Y532367D01*
X2016244Y529827D01*
X2008626D01*
X2013705D02*
X2018783Y524749D01*
X2026400D02*
X2031479D01*
X2034018Y527288D01*
Y532367D01*
X2031479Y534906D01*
X2026400D01*
X2023861Y532367D01*
Y527288D01*
X2026400Y524749D01*
X2039096Y534906D02*
Y527288D01*
X2041635Y524749D01*
X2049253D01*
Y534906D01*
X2054331Y524749D02*
Y534906D01*
X2061949D01*
X2064488Y532367D01*
Y524749D01*
X2079723Y539984D02*
Y524749D01*
X2072106D01*
X2069566Y527288D01*
Y532367D01*
X2072106Y534906D01*
X2079723D01*
X2092419Y524749D02*
X2087341D01*
X2084801Y527288D01*
Y532367D01*
X2087341Y534906D01*
X2092419D01*
X2094958Y532367D01*
Y529827D01*
X2084801D01*
X2110193Y539984D02*
Y524749D01*
X2102576D01*
X2100037Y527288D01*
Y532367D01*
X2102576Y534906D01*
X2110193D01*
X2008626Y486649D02*
Y501884D01*
X2016244D01*
X2018783Y499345D01*
Y494267D01*
X2016244Y491727D01*
X2008626D01*
X2013705D02*
X2018783Y486649D01*
X2026400D02*
X2031479D01*
X2034018Y489188D01*
Y494267D01*
X2031479Y496806D01*
X2026400D01*
X2023861Y494267D01*
Y489188D01*
X2026400Y486649D01*
X2039096Y496806D02*
Y489188D01*
X2041635Y486649D01*
X2049253D01*
Y496806D01*
X2054331Y486649D02*
Y496806D01*
X2061949D01*
X2064488Y494267D01*
Y486649D01*
X2079723Y501884D02*
Y486649D01*
X2072106D01*
X2069566Y489188D01*
Y494267D01*
X2072106Y496806D01*
X2079723D01*
X2092419Y486649D02*
X2087341D01*
X2084801Y489188D01*
Y494267D01*
X2087341Y496806D01*
X2092419D01*
X2094958Y494267D01*
Y491727D01*
X2084801D01*
X2110193Y501884D02*
Y486649D01*
X2102576D01*
X2100037Y489188D01*
Y494267D01*
X2102576Y496806D01*
X2110193D01*
X2008626Y448549D02*
Y463784D01*
X2016244D01*
X2018783Y461245D01*
Y456167D01*
X2016244Y453628D01*
X2008626D01*
X2013705D02*
X2018783Y448549D01*
X2026400D02*
X2031479D01*
X2034018Y451088D01*
Y456167D01*
X2031479Y458706D01*
X2026400D01*
X2023861Y456167D01*
Y451088D01*
X2026400Y448549D01*
X2039096Y458706D02*
Y451088D01*
X2041635Y448549D01*
X2049253D01*
Y458706D01*
X2054331Y448549D02*
Y458706D01*
X2061949D01*
X2064488Y456167D01*
Y448549D01*
X2079723Y463784D02*
Y448549D01*
X2072106D01*
X2069566Y451088D01*
Y456167D01*
X2072106Y458706D01*
X2079723D01*
X2092419Y448549D02*
X2087341D01*
X2084801Y451088D01*
Y456167D01*
X2087341Y458706D01*
X2092419D01*
X2094958Y456167D01*
Y453628D01*
X2084801D01*
X2110193Y463784D02*
Y448549D01*
X2102576D01*
X2100037Y451088D01*
Y456167D01*
X2102576Y458706D01*
X2110193D01*
X2008626Y410449D02*
Y425684D01*
X2016244D01*
X2018783Y423145D01*
Y418067D01*
X2016244Y415527D01*
X2008626D01*
X2013705D02*
X2018783Y410449D01*
X2026400D02*
X2031479D01*
X2034018Y412988D01*
Y418067D01*
X2031479Y420606D01*
X2026400D01*
X2023861Y418067D01*
Y412988D01*
X2026400Y410449D01*
X2039096Y420606D02*
Y412988D01*
X2041635Y410449D01*
X2049253D01*
Y420606D01*
X2054331Y410449D02*
Y420606D01*
X2061949D01*
X2064488Y418067D01*
Y410449D01*
X2079723Y425684D02*
Y410449D01*
X2072106D01*
X2069566Y412988D01*
Y418067D01*
X2072106Y420606D01*
X2079723D01*
X2092419Y410449D02*
X2087341D01*
X2084801Y412988D01*
Y418067D01*
X2087341Y420606D01*
X2092419D01*
X2094958Y418067D01*
Y415527D01*
X2084801D01*
X2110193Y425684D02*
Y410449D01*
X2102576D01*
X2100037Y412988D01*
Y418067D01*
X2102576Y420606D01*
X2110193D01*
X2013705Y372349D02*
X2008626Y377427D01*
Y382506D01*
X2013705Y387584D01*
X2021322Y372349D02*
Y387584D01*
X2026400Y382506D01*
X2031479Y387584D01*
Y372349D01*
X2036557D02*
X2041635D01*
X2039096D01*
Y382506D01*
X2036557D01*
X2049253D02*
X2059410Y372349D01*
X2054331Y377427D01*
X2059410Y382506D01*
X2049253Y372349D01*
X2072106D02*
X2067027D01*
X2064488Y374888D01*
Y379967D01*
X2067027Y382506D01*
X2072106D01*
X2074645Y379967D01*
Y377427D01*
X2064488D01*
X2089880Y387584D02*
Y372349D01*
X2082262D01*
X2079723Y374888D01*
Y379967D01*
X2082262Y382506D01*
X2089880D01*
X2094958Y372349D02*
X2100037Y377427D01*
Y382506D01*
X2094958Y387584D01*
X2008626Y334249D02*
Y349484D01*
X2016244D01*
X2018783Y346945D01*
Y341867D01*
X2016244Y339328D01*
X2008626D01*
X2013705D02*
X2018783Y334249D01*
X2026400D02*
X2031479D01*
X2034018Y336788D01*
Y341867D01*
X2031479Y344406D01*
X2026400D01*
X2023861Y341867D01*
Y336788D01*
X2026400Y334249D01*
X2039096Y344406D02*
Y336788D01*
X2041635Y334249D01*
X2049253D01*
Y344406D01*
X2054331Y334249D02*
Y344406D01*
X2061949D01*
X2064488Y341867D01*
Y334249D01*
X2079723Y349484D02*
Y334249D01*
X2072106D01*
X2069566Y336788D01*
Y341867D01*
X2072106Y344406D01*
X2079723D01*
X2092419Y334249D02*
X2087341D01*
X2084801Y336788D01*
Y341867D01*
X2087341Y344406D01*
X2092419D01*
X2094958Y341867D01*
Y339328D01*
X2084801D01*
X2110193Y349484D02*
Y334249D01*
X2102576D01*
X2100037Y336788D01*
Y341867D01*
X2102576Y344406D01*
X2110193D01*
X2008626Y296149D02*
Y311384D01*
X2016244D01*
X2018783Y308845D01*
Y303767D01*
X2016244Y301227D01*
X2008626D01*
X2013705D02*
X2018783Y296149D01*
X2026400D02*
X2031479D01*
X2034018Y298688D01*
Y303767D01*
X2031479Y306306D01*
X2026400D01*
X2023861Y303767D01*
Y298688D01*
X2026400Y296149D01*
X2039096Y306306D02*
Y298688D01*
X2041635Y296149D01*
X2049253D01*
Y306306D01*
X2054331Y296149D02*
Y306306D01*
X2061949D01*
X2064488Y303767D01*
Y296149D01*
X2079723Y311384D02*
Y296149D01*
X2072106D01*
X2069566Y298688D01*
Y303767D01*
X2072106Y306306D01*
X2079723D01*
X2092419Y296149D02*
X2087341D01*
X2084801Y298688D01*
Y303767D01*
X2087341Y306306D01*
X2092419D01*
X2094958Y303767D01*
Y301227D01*
X2084801D01*
X2110193Y311384D02*
Y296149D01*
X2102576D01*
X2100037Y298688D01*
Y303767D01*
X2102576Y306306D01*
X2110193D01*
X2008626Y258049D02*
Y273284D01*
X2016244D01*
X2018783Y270745D01*
Y265667D01*
X2016244Y263127D01*
X2008626D01*
X2013705D02*
X2018783Y258049D01*
X2026400D02*
X2031479D01*
X2034018Y260588D01*
Y265667D01*
X2031479Y268206D01*
X2026400D01*
X2023861Y265667D01*
Y260588D01*
X2026400Y258049D01*
X2039096Y268206D02*
Y260588D01*
X2041635Y258049D01*
X2049253D01*
Y268206D01*
X2054331Y258049D02*
Y268206D01*
X2061949D01*
X2064488Y265667D01*
Y258049D01*
X2079723Y273284D02*
Y258049D01*
X2072106D01*
X2069566Y260588D01*
Y265667D01*
X2072106Y268206D01*
X2079723D01*
X2092419Y258049D02*
X2087341D01*
X2084801Y260588D01*
Y265667D01*
X2087341Y268206D01*
X2092419D01*
X2094958Y265667D01*
Y263127D01*
X2084801D01*
X2110193Y273284D02*
Y258049D01*
X2102576D01*
X2100037Y260588D01*
Y265667D01*
X2102576Y268206D01*
X2110193D01*
X2008626Y219949D02*
Y235184D01*
X2016244D01*
X2018783Y232645D01*
Y227567D01*
X2016244Y225028D01*
X2008626D01*
X2013705D02*
X2018783Y219949D01*
X2026400D02*
X2031479D01*
X2034018Y222488D01*
Y227567D01*
X2031479Y230106D01*
X2026400D01*
X2023861Y227567D01*
Y222488D01*
X2026400Y219949D01*
X2039096Y230106D02*
Y222488D01*
X2041635Y219949D01*
X2049253D01*
Y230106D01*
X2054331Y219949D02*
Y230106D01*
X2061949D01*
X2064488Y227567D01*
Y219949D01*
X2079723Y235184D02*
Y219949D01*
X2072106D01*
X2069566Y222488D01*
Y227567D01*
X2072106Y230106D01*
X2079723D01*
X2092419Y219949D02*
X2087341D01*
X2084801Y222488D01*
Y227567D01*
X2087341Y230106D01*
X2092419D01*
X2094958Y227567D01*
Y225028D01*
X2084801D01*
X2110193Y235184D02*
Y219949D01*
X2102576D01*
X2100037Y222488D01*
Y227567D01*
X2102576Y230106D01*
X2110193D01*
X2008626Y181849D02*
Y197084D01*
X2016244D01*
X2018783Y194545D01*
Y189467D01*
X2016244Y186928D01*
X2008626D01*
X2013705D02*
X2018783Y181849D01*
X2026400D02*
X2031479D01*
X2034018Y184388D01*
Y189467D01*
X2031479Y192006D01*
X2026400D01*
X2023861Y189467D01*
Y184388D01*
X2026400Y181849D01*
X2039096Y192006D02*
Y184388D01*
X2041635Y181849D01*
X2049253D01*
Y192006D01*
X2054331Y181849D02*
Y192006D01*
X2061949D01*
X2064488Y189467D01*
Y181849D01*
X2079723Y197084D02*
Y181849D01*
X2072106D01*
X2069566Y184388D01*
Y189467D01*
X2072106Y192006D01*
X2079723D01*
X2092419Y181849D02*
X2087341D01*
X2084801Y184388D01*
Y189467D01*
X2087341Y192006D01*
X2092419D01*
X2094958Y189467D01*
Y186928D01*
X2084801D01*
X2110193Y197084D02*
Y181849D01*
X2102576D01*
X2100037Y184388D01*
Y189467D01*
X2102576Y192006D01*
X2110193D01*
X1858805Y539984D02*
Y529827D01*
X1863883Y524749D01*
X1868961Y529827D01*
Y539984D01*
X1874040Y524749D02*
X1879118D01*
X1876579D01*
Y534906D01*
X1874040D01*
X1889275D02*
X1894353D01*
X1896892Y532367D01*
Y524749D01*
X1889275D01*
X1886736Y527288D01*
X1889275Y529827D01*
X1896892D01*
X1858805Y486649D02*
Y501884D01*
X1866422D01*
X1868961Y499345D01*
Y494267D01*
X1866422Y491727D01*
X1858805D01*
X1876579Y496806D02*
X1881657D01*
X1884196Y494267D01*
Y486649D01*
X1876579D01*
X1874040Y489188D01*
X1876579Y491727D01*
X1884196D01*
X1899431Y501884D02*
Y486649D01*
X1891814D01*
X1889275Y489188D01*
Y494267D01*
X1891814Y496806D01*
X1899431D01*
X1858805Y448549D02*
Y463784D01*
X1866422D01*
X1868961Y461245D01*
Y456167D01*
X1866422Y453628D01*
X1858805D01*
X1876579Y458706D02*
X1881657D01*
X1884196Y456167D01*
Y448549D01*
X1876579D01*
X1874040Y451088D01*
X1876579Y453628D01*
X1884196D01*
X1899431Y463784D02*
Y448549D01*
X1891814D01*
X1889275Y451088D01*
Y456167D01*
X1891814Y458706D01*
X1899431D01*
X1858805Y410449D02*
Y425684D01*
X1866422D01*
X1868961Y423145D01*
Y418067D01*
X1866422Y415527D01*
X1858805D01*
X1876579Y420606D02*
X1881657D01*
X1884196Y418067D01*
Y410449D01*
X1876579D01*
X1874040Y412988D01*
X1876579Y415527D01*
X1884196D01*
X1899431Y425684D02*
Y410449D01*
X1891814D01*
X1889275Y412988D01*
Y418067D01*
X1891814Y420606D01*
X1899431D01*
X1858805Y372349D02*
Y387584D01*
X1866422D01*
X1868961Y385045D01*
Y379967D01*
X1866422Y377427D01*
X1858805D01*
X1876579Y382506D02*
X1881657D01*
X1884196Y379967D01*
Y372349D01*
X1876579D01*
X1874040Y374888D01*
X1876579Y377427D01*
X1884196D01*
X1899431Y387584D02*
Y372349D01*
X1891814D01*
X1889275Y374888D01*
Y379967D01*
X1891814Y382506D01*
X1899431D01*
X1858805Y334249D02*
Y349484D01*
X1866422D01*
X1868961Y346945D01*
Y341867D01*
X1866422Y339328D01*
X1858805D01*
X1876579Y344406D02*
X1881657D01*
X1884196Y341867D01*
Y334249D01*
X1876579D01*
X1874040Y336788D01*
X1876579Y339328D01*
X1884196D01*
X1899431Y349484D02*
Y334249D01*
X1891814D01*
X1889275Y336788D01*
Y341867D01*
X1891814Y344406D01*
X1899431D01*
X1858805Y296149D02*
Y311384D01*
X1866422D01*
X1868961Y308845D01*
Y303767D01*
X1866422Y301227D01*
X1858805D01*
X1876579Y306306D02*
X1881657D01*
X1884196Y303767D01*
Y296149D01*
X1876579D01*
X1874040Y298688D01*
X1876579Y301227D01*
X1884196D01*
X1899431Y311384D02*
Y296149D01*
X1891814D01*
X1889275Y298688D01*
Y303767D01*
X1891814Y306306D01*
X1899431D01*
X1858805Y273284D02*
Y263127D01*
X1863883Y258049D01*
X1868961Y263127D01*
Y273284D01*
X1874040Y258049D02*
X1879118D01*
X1876579D01*
Y268206D01*
X1874040D01*
X1889275D02*
X1894353D01*
X1896892Y265667D01*
Y258049D01*
X1889275D01*
X1886736Y260588D01*
X1889275Y263127D01*
X1896892D01*
X1858805Y219949D02*
Y235184D01*
X1866422D01*
X1868961Y232645D01*
Y227567D01*
X1866422Y225028D01*
X1858805D01*
X1876579Y230106D02*
X1881657D01*
X1884196Y227567D01*
Y219949D01*
X1876579D01*
X1874040Y222488D01*
X1876579Y225028D01*
X1884196D01*
X1899431Y235184D02*
Y219949D01*
X1891814D01*
X1889275Y222488D01*
Y227567D01*
X1891814Y230106D01*
X1899431D01*
X1858805Y197084D02*
Y186928D01*
X1863883Y181849D01*
X1868961Y186928D01*
Y197084D01*
X1874040Y181849D02*
X1879118D01*
X1876579D01*
Y192006D01*
X1874040D01*
X1889275D02*
X1894353D01*
X1896892Y189467D01*
Y181849D01*
X1889275D01*
X1886736Y184388D01*
X1889275Y186928D01*
X1896892D01*
X1477919Y539984D02*
X1488076D01*
X1482997D01*
Y524749D01*
X1495693D02*
X1500771D01*
X1503311Y527288D01*
Y532367D01*
X1500771Y534906D01*
X1495693D01*
X1493154Y532367D01*
Y527288D01*
X1495693Y524749D01*
X1508389Y519671D02*
Y534906D01*
X1516006D01*
X1518546Y532367D01*
Y527288D01*
X1516006Y524749D01*
X1508389D01*
X1538859Y539984D02*
Y524749D01*
X1549016D01*
X1556633Y534906D02*
X1561712D01*
X1564251Y532367D01*
Y524749D01*
X1556633D01*
X1554094Y527288D01*
X1556633Y529827D01*
X1564251D01*
X1569329Y534906D02*
Y527288D01*
X1571868Y524749D01*
X1579486D01*
Y522210D01*
X1576947Y519671D01*
X1574408D01*
X1579486Y524749D02*
Y534906D01*
X1592182Y524749D02*
X1587103D01*
X1584564Y527288D01*
Y532367D01*
X1587103Y534906D01*
X1592182D01*
X1594721Y532367D01*
Y529827D01*
X1584564D01*
X1599799Y534906D02*
Y524749D01*
Y529827D01*
X1602339Y532367D01*
X1604878Y534906D01*
X1607417D01*
X1630269Y532367D02*
X1640426D01*
X1660740Y539984D02*
Y524749D01*
X1668357D01*
X1670896Y527288D01*
Y529827D01*
X1668357Y532367D01*
X1660740D01*
X1668357D01*
X1670896Y534906D01*
Y537445D01*
X1668357Y539984D01*
X1660740D01*
X1678514Y524749D02*
X1683592D01*
X1686131Y527288D01*
Y532367D01*
X1683592Y534906D01*
X1678514D01*
X1675975Y532367D01*
Y527288D01*
X1678514Y524749D01*
X1693749Y537445D02*
Y534906D01*
X1691210D01*
X1696288D01*
X1693749D01*
Y527288D01*
X1696288Y524749D01*
X1706445Y537445D02*
Y534906D01*
X1703906D01*
X1708984D01*
X1706445D01*
Y527288D01*
X1708984Y524749D01*
X1719141D02*
X1724219D01*
X1726758Y527288D01*
Y532367D01*
X1724219Y534906D01*
X1719141D01*
X1716602Y532367D01*
Y527288D01*
X1719141Y524749D01*
X1731837D02*
Y534906D01*
X1734376D01*
X1736915Y532367D01*
Y524749D01*
Y532367D01*
X1739454Y534906D01*
X1741993Y532367D01*
Y524749D01*
X1762307Y539984D02*
Y524749D01*
X1772464D01*
X1780081Y534906D02*
X1785159D01*
X1787699Y532367D01*
Y524749D01*
X1780081D01*
X1777542Y527288D01*
X1780081Y529827D01*
X1787699D01*
X1792777Y534906D02*
Y527288D01*
X1795316Y524749D01*
X1802934D01*
Y522210D01*
X1800394Y519671D01*
X1797855D01*
X1802934Y524749D02*
Y534906D01*
X1815629Y524749D02*
X1810551D01*
X1808012Y527288D01*
Y532367D01*
X1810551Y534906D01*
X1815629D01*
X1818169Y532367D01*
Y529827D01*
X1808012D01*
X1823247Y534906D02*
Y524749D01*
Y529827D01*
X1825786Y532367D01*
X1828325Y534906D01*
X1830865D01*
X1477919Y501884D02*
X1488076D01*
X1482997D01*
Y486649D01*
X1495693D02*
X1500771D01*
X1503311Y489188D01*
Y494267D01*
X1500771Y496806D01*
X1495693D01*
X1493154Y494267D01*
Y489188D01*
X1495693Y486649D01*
X1508389Y481571D02*
Y496806D01*
X1516006D01*
X1518546Y494267D01*
Y489188D01*
X1516006Y486649D01*
X1508389D01*
X1538859Y501884D02*
Y486649D01*
X1549016D01*
X1556633Y496806D02*
X1561712D01*
X1564251Y494267D01*
Y486649D01*
X1556633D01*
X1554094Y489188D01*
X1556633Y491727D01*
X1564251D01*
X1569329Y496806D02*
Y489188D01*
X1571868Y486649D01*
X1579486D01*
Y484110D01*
X1576947Y481571D01*
X1574408D01*
X1579486Y486649D02*
Y496806D01*
X1592182Y486649D02*
X1587103D01*
X1584564Y489188D01*
Y494267D01*
X1587103Y496806D01*
X1592182D01*
X1594721Y494267D01*
Y491727D01*
X1584564D01*
X1599799Y496806D02*
Y486649D01*
Y491727D01*
X1602339Y494267D01*
X1604878Y496806D01*
X1607417D01*
X1630269Y494267D02*
X1640426D01*
X1660740Y501884D02*
Y486649D01*
X1668357D01*
X1670896Y489188D01*
Y491727D01*
X1668357Y494267D01*
X1660740D01*
X1668357D01*
X1670896Y496806D01*
Y499345D01*
X1668357Y501884D01*
X1660740D01*
X1678514Y486649D02*
X1683592D01*
X1686131Y489188D01*
Y494267D01*
X1683592Y496806D01*
X1678514D01*
X1675975Y494267D01*
Y489188D01*
X1678514Y486649D01*
X1693749Y499345D02*
Y496806D01*
X1691210D01*
X1696288D01*
X1693749D01*
Y489188D01*
X1696288Y486649D01*
X1706445Y499345D02*
Y496806D01*
X1703906D01*
X1708984D01*
X1706445D01*
Y489188D01*
X1708984Y486649D01*
X1719141D02*
X1724219D01*
X1726758Y489188D01*
Y494267D01*
X1724219Y496806D01*
X1719141D01*
X1716602Y494267D01*
Y489188D01*
X1719141Y486649D01*
X1731837D02*
Y496806D01*
X1734376D01*
X1736915Y494267D01*
Y486649D01*
Y494267D01*
X1739454Y496806D01*
X1741993Y494267D01*
Y486649D01*
X1762307Y501884D02*
Y486649D01*
X1772464D01*
X1780081Y496806D02*
X1785159D01*
X1787699Y494267D01*
Y486649D01*
X1780081D01*
X1777542Y489188D01*
X1780081Y491727D01*
X1787699D01*
X1792777Y496806D02*
Y489188D01*
X1795316Y486649D01*
X1802934D01*
Y484110D01*
X1800394Y481571D01*
X1797855D01*
X1802934Y486649D02*
Y496806D01*
X1815629Y486649D02*
X1810551D01*
X1808012Y489188D01*
Y494267D01*
X1810551Y496806D01*
X1815629D01*
X1818169Y494267D01*
Y491727D01*
X1808012D01*
X1823247Y496806D02*
Y486649D01*
Y491727D01*
X1825786Y494267D01*
X1828325Y496806D01*
X1830865D01*
X1477919Y463784D02*
X1488076D01*
X1482997D01*
Y448549D01*
X1495693D02*
X1500771D01*
X1503311Y451088D01*
Y456167D01*
X1500771Y458706D01*
X1495693D01*
X1493154Y456167D01*
Y451088D01*
X1495693Y448549D01*
X1508389Y443471D02*
Y458706D01*
X1516006D01*
X1518546Y456167D01*
Y451088D01*
X1516006Y448549D01*
X1508389D01*
X1538859Y463784D02*
Y448549D01*
X1549016D01*
X1556633Y458706D02*
X1561712D01*
X1564251Y456167D01*
Y448549D01*
X1556633D01*
X1554094Y451088D01*
X1556633Y453628D01*
X1564251D01*
X1569329Y458706D02*
Y451088D01*
X1571868Y448549D01*
X1579486D01*
Y446010D01*
X1576947Y443471D01*
X1574408D01*
X1579486Y448549D02*
Y458706D01*
X1592182Y448549D02*
X1587103D01*
X1584564Y451088D01*
Y456167D01*
X1587103Y458706D01*
X1592182D01*
X1594721Y456167D01*
Y453628D01*
X1584564D01*
X1599799Y458706D02*
Y448549D01*
Y453628D01*
X1602339Y456167D01*
X1604878Y458706D01*
X1607417D01*
X1630269Y456167D02*
X1640426D01*
X1660740Y463784D02*
Y448549D01*
X1668357D01*
X1670896Y451088D01*
Y453628D01*
X1668357Y456167D01*
X1660740D01*
X1668357D01*
X1670896Y458706D01*
Y461245D01*
X1668357Y463784D01*
X1660740D01*
X1678514Y448549D02*
X1683592D01*
X1686131Y451088D01*
Y456167D01*
X1683592Y458706D01*
X1678514D01*
X1675975Y456167D01*
Y451088D01*
X1678514Y448549D01*
X1693749Y461245D02*
Y458706D01*
X1691210D01*
X1696288D01*
X1693749D01*
Y451088D01*
X1696288Y448549D01*
X1706445Y461245D02*
Y458706D01*
X1703906D01*
X1708984D01*
X1706445D01*
Y451088D01*
X1708984Y448549D01*
X1719141D02*
X1724219D01*
X1726758Y451088D01*
Y456167D01*
X1724219Y458706D01*
X1719141D01*
X1716602Y456167D01*
Y451088D01*
X1719141Y448549D01*
X1731837D02*
Y458706D01*
X1734376D01*
X1736915Y456167D01*
Y448549D01*
Y456167D01*
X1739454Y458706D01*
X1741993Y456167D01*
Y448549D01*
X1762307Y463784D02*
Y448549D01*
X1772464D01*
X1780081Y458706D02*
X1785159D01*
X1787699Y456167D01*
Y448549D01*
X1780081D01*
X1777542Y451088D01*
X1780081Y453628D01*
X1787699D01*
X1792777Y458706D02*
Y451088D01*
X1795316Y448549D01*
X1802934D01*
Y446010D01*
X1800394Y443471D01*
X1797855D01*
X1802934Y448549D02*
Y458706D01*
X1815629Y448549D02*
X1810551D01*
X1808012Y451088D01*
Y456167D01*
X1810551Y458706D01*
X1815629D01*
X1818169Y456167D01*
Y453628D01*
X1808012D01*
X1823247Y458706D02*
Y448549D01*
Y453628D01*
X1825786Y456167D01*
X1828325Y458706D01*
X1830865D01*
X1477919Y425684D02*
X1488076D01*
X1482997D01*
Y410449D01*
X1495693D02*
X1500771D01*
X1503311Y412988D01*
Y418067D01*
X1500771Y420606D01*
X1495693D01*
X1493154Y418067D01*
Y412988D01*
X1495693Y410449D01*
X1508389Y405371D02*
Y420606D01*
X1516006D01*
X1518546Y418067D01*
Y412988D01*
X1516006Y410449D01*
X1508389D01*
X1538859Y425684D02*
Y410449D01*
X1549016D01*
X1556633Y420606D02*
X1561712D01*
X1564251Y418067D01*
Y410449D01*
X1556633D01*
X1554094Y412988D01*
X1556633Y415527D01*
X1564251D01*
X1569329Y420606D02*
Y412988D01*
X1571868Y410449D01*
X1579486D01*
Y407910D01*
X1576947Y405371D01*
X1574408D01*
X1579486Y410449D02*
Y420606D01*
X1592182Y410449D02*
X1587103D01*
X1584564Y412988D01*
Y418067D01*
X1587103Y420606D01*
X1592182D01*
X1594721Y418067D01*
Y415527D01*
X1584564D01*
X1599799Y420606D02*
Y410449D01*
Y415527D01*
X1602339Y418067D01*
X1604878Y420606D01*
X1607417D01*
X1630269Y418067D02*
X1640426D01*
X1660740Y425684D02*
Y410449D01*
X1668357D01*
X1670896Y412988D01*
Y415527D01*
X1668357Y418067D01*
X1660740D01*
X1668357D01*
X1670896Y420606D01*
Y423145D01*
X1668357Y425684D01*
X1660740D01*
X1678514Y410449D02*
X1683592D01*
X1686131Y412988D01*
Y418067D01*
X1683592Y420606D01*
X1678514D01*
X1675975Y418067D01*
Y412988D01*
X1678514Y410449D01*
X1693749Y423145D02*
Y420606D01*
X1691210D01*
X1696288D01*
X1693749D01*
Y412988D01*
X1696288Y410449D01*
X1706445Y423145D02*
Y420606D01*
X1703906D01*
X1708984D01*
X1706445D01*
Y412988D01*
X1708984Y410449D01*
X1719141D02*
X1724219D01*
X1726758Y412988D01*
Y418067D01*
X1724219Y420606D01*
X1719141D01*
X1716602Y418067D01*
Y412988D01*
X1719141Y410449D01*
X1731837D02*
Y420606D01*
X1734376D01*
X1736915Y418067D01*
Y410449D01*
Y418067D01*
X1739454Y420606D01*
X1741993Y418067D01*
Y410449D01*
X1762307Y425684D02*
Y410449D01*
X1772464D01*
X1780081Y420606D02*
X1785159D01*
X1787699Y418067D01*
Y410449D01*
X1780081D01*
X1777542Y412988D01*
X1780081Y415527D01*
X1787699D01*
X1792777Y420606D02*
Y412988D01*
X1795316Y410449D01*
X1802934D01*
Y407910D01*
X1800394Y405371D01*
X1797855D01*
X1802934Y410449D02*
Y420606D01*
X1815629Y410449D02*
X1810551D01*
X1808012Y412988D01*
Y418067D01*
X1810551Y420606D01*
X1815629D01*
X1818169Y418067D01*
Y415527D01*
X1808012D01*
X1823247Y420606D02*
Y410449D01*
Y415527D01*
X1825786Y418067D01*
X1828325Y420606D01*
X1830865D01*
X1477919Y387584D02*
X1488076D01*
X1482997D01*
Y372349D01*
X1495693D02*
X1500771D01*
X1503311Y374888D01*
Y379967D01*
X1500771Y382506D01*
X1495693D01*
X1493154Y379967D01*
Y374888D01*
X1495693Y372349D01*
X1508389Y367271D02*
Y382506D01*
X1516006D01*
X1518546Y379967D01*
Y374888D01*
X1516006Y372349D01*
X1508389D01*
X1538859Y387584D02*
Y372349D01*
X1549016D01*
X1556633Y382506D02*
X1561712D01*
X1564251Y379967D01*
Y372349D01*
X1556633D01*
X1554094Y374888D01*
X1556633Y377427D01*
X1564251D01*
X1569329Y382506D02*
Y374888D01*
X1571868Y372349D01*
X1579486D01*
Y369810D01*
X1576947Y367271D01*
X1574408D01*
X1579486Y372349D02*
Y382506D01*
X1592182Y372349D02*
X1587103D01*
X1584564Y374888D01*
Y379967D01*
X1587103Y382506D01*
X1592182D01*
X1594721Y379967D01*
Y377427D01*
X1584564D01*
X1599799Y382506D02*
Y372349D01*
Y377427D01*
X1602339Y379967D01*
X1604878Y382506D01*
X1607417D01*
X1630269Y379967D02*
X1640426D01*
X1660740Y387584D02*
Y372349D01*
X1668357D01*
X1670896Y374888D01*
Y377427D01*
X1668357Y379967D01*
X1660740D01*
X1668357D01*
X1670896Y382506D01*
Y385045D01*
X1668357Y387584D01*
X1660740D01*
X1678514Y372349D02*
X1683592D01*
X1686131Y374888D01*
Y379967D01*
X1683592Y382506D01*
X1678514D01*
X1675975Y379967D01*
Y374888D01*
X1678514Y372349D01*
X1693749Y385045D02*
Y382506D01*
X1691210D01*
X1696288D01*
X1693749D01*
Y374888D01*
X1696288Y372349D01*
X1706445Y385045D02*
Y382506D01*
X1703906D01*
X1708984D01*
X1706445D01*
Y374888D01*
X1708984Y372349D01*
X1719141D02*
X1724219D01*
X1726758Y374888D01*
Y379967D01*
X1724219Y382506D01*
X1719141D01*
X1716602Y379967D01*
Y374888D01*
X1719141Y372349D01*
X1731837D02*
Y382506D01*
X1734376D01*
X1736915Y379967D01*
Y372349D01*
Y379967D01*
X1739454Y382506D01*
X1741993Y379967D01*
Y372349D01*
X1762307Y387584D02*
Y372349D01*
X1772464D01*
X1780081Y382506D02*
X1785159D01*
X1787699Y379967D01*
Y372349D01*
X1780081D01*
X1777542Y374888D01*
X1780081Y377427D01*
X1787699D01*
X1792777Y382506D02*
Y374888D01*
X1795316Y372349D01*
X1802934D01*
Y369810D01*
X1800394Y367271D01*
X1797855D01*
X1802934Y372349D02*
Y382506D01*
X1815629Y372349D02*
X1810551D01*
X1808012Y374888D01*
Y379967D01*
X1810551Y382506D01*
X1815629D01*
X1818169Y379967D01*
Y377427D01*
X1808012D01*
X1823247Y382506D02*
Y372349D01*
Y377427D01*
X1825786Y379967D01*
X1828325Y382506D01*
X1830865D01*
X1477919Y349484D02*
X1488076D01*
X1482997D01*
Y334249D01*
X1495693D02*
X1500771D01*
X1503311Y336788D01*
Y341867D01*
X1500771Y344406D01*
X1495693D01*
X1493154Y341867D01*
Y336788D01*
X1495693Y334249D01*
X1508389Y329171D02*
Y344406D01*
X1516006D01*
X1518546Y341867D01*
Y336788D01*
X1516006Y334249D01*
X1508389D01*
X1538859Y349484D02*
Y334249D01*
X1549016D01*
X1556633Y344406D02*
X1561712D01*
X1564251Y341867D01*
Y334249D01*
X1556633D01*
X1554094Y336788D01*
X1556633Y339328D01*
X1564251D01*
X1569329Y344406D02*
Y336788D01*
X1571868Y334249D01*
X1579486D01*
Y331710D01*
X1576947Y329171D01*
X1574408D01*
X1579486Y334249D02*
Y344406D01*
X1592182Y334249D02*
X1587103D01*
X1584564Y336788D01*
Y341867D01*
X1587103Y344406D01*
X1592182D01*
X1594721Y341867D01*
Y339328D01*
X1584564D01*
X1599799Y344406D02*
Y334249D01*
Y339328D01*
X1602339Y341867D01*
X1604878Y344406D01*
X1607417D01*
X1630269Y341867D02*
X1640426D01*
X1660740Y349484D02*
Y334249D01*
X1668357D01*
X1670896Y336788D01*
Y339328D01*
X1668357Y341867D01*
X1660740D01*
X1668357D01*
X1670896Y344406D01*
Y346945D01*
X1668357Y349484D01*
X1660740D01*
X1678514Y334249D02*
X1683592D01*
X1686131Y336788D01*
Y341867D01*
X1683592Y344406D01*
X1678514D01*
X1675975Y341867D01*
Y336788D01*
X1678514Y334249D01*
X1693749Y346945D02*
Y344406D01*
X1691210D01*
X1696288D01*
X1693749D01*
Y336788D01*
X1696288Y334249D01*
X1706445Y346945D02*
Y344406D01*
X1703906D01*
X1708984D01*
X1706445D01*
Y336788D01*
X1708984Y334249D01*
X1719141D02*
X1724219D01*
X1726758Y336788D01*
Y341867D01*
X1724219Y344406D01*
X1719141D01*
X1716602Y341867D01*
Y336788D01*
X1719141Y334249D01*
X1731837D02*
Y344406D01*
X1734376D01*
X1736915Y341867D01*
Y334249D01*
Y341867D01*
X1739454Y344406D01*
X1741993Y341867D01*
Y334249D01*
X1762307Y349484D02*
Y334249D01*
X1772464D01*
X1780081Y344406D02*
X1785159D01*
X1787699Y341867D01*
Y334249D01*
X1780081D01*
X1777542Y336788D01*
X1780081Y339328D01*
X1787699D01*
X1792777Y344406D02*
Y336788D01*
X1795316Y334249D01*
X1802934D01*
Y331710D01*
X1800394Y329171D01*
X1797855D01*
X1802934Y334249D02*
Y344406D01*
X1815629Y334249D02*
X1810551D01*
X1808012Y336788D01*
Y341867D01*
X1810551Y344406D01*
X1815629D01*
X1818169Y341867D01*
Y339328D01*
X1808012D01*
X1823247Y344406D02*
Y334249D01*
Y339328D01*
X1825786Y341867D01*
X1828325Y344406D01*
X1830865D01*
X1477919Y311384D02*
X1488076D01*
X1482997D01*
Y296149D01*
X1495693D02*
X1500771D01*
X1503311Y298688D01*
Y303767D01*
X1500771Y306306D01*
X1495693D01*
X1493154Y303767D01*
Y298688D01*
X1495693Y296149D01*
X1508389Y291071D02*
Y306306D01*
X1516006D01*
X1518546Y303767D01*
Y298688D01*
X1516006Y296149D01*
X1508389D01*
X1538859Y311384D02*
Y296149D01*
X1549016D01*
X1556633Y306306D02*
X1561712D01*
X1564251Y303767D01*
Y296149D01*
X1556633D01*
X1554094Y298688D01*
X1556633Y301227D01*
X1564251D01*
X1569329Y306306D02*
Y298688D01*
X1571868Y296149D01*
X1579486D01*
Y293610D01*
X1576947Y291071D01*
X1574408D01*
X1579486Y296149D02*
Y306306D01*
X1592182Y296149D02*
X1587103D01*
X1584564Y298688D01*
Y303767D01*
X1587103Y306306D01*
X1592182D01*
X1594721Y303767D01*
Y301227D01*
X1584564D01*
X1599799Y306306D02*
Y296149D01*
Y301227D01*
X1602339Y303767D01*
X1604878Y306306D01*
X1607417D01*
X1630269Y303767D02*
X1640426D01*
X1660740Y311384D02*
Y296149D01*
X1668357D01*
X1670896Y298688D01*
Y301227D01*
X1668357Y303767D01*
X1660740D01*
X1668357D01*
X1670896Y306306D01*
Y308845D01*
X1668357Y311384D01*
X1660740D01*
X1678514Y296149D02*
X1683592D01*
X1686131Y298688D01*
Y303767D01*
X1683592Y306306D01*
X1678514D01*
X1675975Y303767D01*
Y298688D01*
X1678514Y296149D01*
X1693749Y308845D02*
Y306306D01*
X1691210D01*
X1696288D01*
X1693749D01*
Y298688D01*
X1696288Y296149D01*
X1706445Y308845D02*
Y306306D01*
X1703906D01*
X1708984D01*
X1706445D01*
Y298688D01*
X1708984Y296149D01*
X1719141D02*
X1724219D01*
X1726758Y298688D01*
Y303767D01*
X1724219Y306306D01*
X1719141D01*
X1716602Y303767D01*
Y298688D01*
X1719141Y296149D01*
X1731837D02*
Y306306D01*
X1734376D01*
X1736915Y303767D01*
Y296149D01*
Y303767D01*
X1739454Y306306D01*
X1741993Y303767D01*
Y296149D01*
X1762307Y311384D02*
Y296149D01*
X1772464D01*
X1780081Y306306D02*
X1785159D01*
X1787699Y303767D01*
Y296149D01*
X1780081D01*
X1777542Y298688D01*
X1780081Y301227D01*
X1787699D01*
X1792777Y306306D02*
Y298688D01*
X1795316Y296149D01*
X1802934D01*
Y293610D01*
X1800394Y291071D01*
X1797855D01*
X1802934Y296149D02*
Y306306D01*
X1815629Y296149D02*
X1810551D01*
X1808012Y298688D01*
Y303767D01*
X1810551Y306306D01*
X1815629D01*
X1818169Y303767D01*
Y301227D01*
X1808012D01*
X1823247Y306306D02*
Y296149D01*
Y301227D01*
X1825786Y303767D01*
X1828325Y306306D01*
X1830865D01*
X1477919Y273284D02*
X1488076D01*
X1482997D01*
Y258049D01*
X1495693D02*
X1500771D01*
X1503311Y260588D01*
Y265667D01*
X1500771Y268206D01*
X1495693D01*
X1493154Y265667D01*
Y260588D01*
X1495693Y258049D01*
X1508389Y252971D02*
Y268206D01*
X1516006D01*
X1518546Y265667D01*
Y260588D01*
X1516006Y258049D01*
X1508389D01*
X1538859Y273284D02*
Y258049D01*
X1549016D01*
X1556633Y268206D02*
X1561712D01*
X1564251Y265667D01*
Y258049D01*
X1556633D01*
X1554094Y260588D01*
X1556633Y263127D01*
X1564251D01*
X1569329Y268206D02*
Y260588D01*
X1571868Y258049D01*
X1579486D01*
Y255510D01*
X1576947Y252971D01*
X1574408D01*
X1579486Y258049D02*
Y268206D01*
X1592182Y258049D02*
X1587103D01*
X1584564Y260588D01*
Y265667D01*
X1587103Y268206D01*
X1592182D01*
X1594721Y265667D01*
Y263127D01*
X1584564D01*
X1599799Y268206D02*
Y258049D01*
Y263127D01*
X1602339Y265667D01*
X1604878Y268206D01*
X1607417D01*
X1630269Y265667D02*
X1640426D01*
X1660740Y273284D02*
Y258049D01*
X1668357D01*
X1670896Y260588D01*
Y263127D01*
X1668357Y265667D01*
X1660740D01*
X1668357D01*
X1670896Y268206D01*
Y270745D01*
X1668357Y273284D01*
X1660740D01*
X1678514Y258049D02*
X1683592D01*
X1686131Y260588D01*
Y265667D01*
X1683592Y268206D01*
X1678514D01*
X1675975Y265667D01*
Y260588D01*
X1678514Y258049D01*
X1693749Y270745D02*
Y268206D01*
X1691210D01*
X1696288D01*
X1693749D01*
Y260588D01*
X1696288Y258049D01*
X1706445Y270745D02*
Y268206D01*
X1703906D01*
X1708984D01*
X1706445D01*
Y260588D01*
X1708984Y258049D01*
X1719141D02*
X1724219D01*
X1726758Y260588D01*
Y265667D01*
X1724219Y268206D01*
X1719141D01*
X1716602Y265667D01*
Y260588D01*
X1719141Y258049D01*
X1731837D02*
Y268206D01*
X1734376D01*
X1736915Y265667D01*
Y258049D01*
Y265667D01*
X1739454Y268206D01*
X1741993Y265667D01*
Y258049D01*
X1762307Y273284D02*
Y258049D01*
X1772464D01*
X1780081Y268206D02*
X1785159D01*
X1787699Y265667D01*
Y258049D01*
X1780081D01*
X1777542Y260588D01*
X1780081Y263127D01*
X1787699D01*
X1792777Y268206D02*
Y260588D01*
X1795316Y258049D01*
X1802934D01*
Y255510D01*
X1800394Y252971D01*
X1797855D01*
X1802934Y258049D02*
Y268206D01*
X1815629Y258049D02*
X1810551D01*
X1808012Y260588D01*
Y265667D01*
X1810551Y268206D01*
X1815629D01*
X1818169Y265667D01*
Y263127D01*
X1808012D01*
X1823247Y268206D02*
Y258049D01*
Y263127D01*
X1825786Y265667D01*
X1828325Y268206D01*
X1830865D01*
X1477919Y235184D02*
X1488076D01*
X1482997D01*
Y219949D01*
X1495693D02*
X1500771D01*
X1503311Y222488D01*
Y227567D01*
X1500771Y230106D01*
X1495693D01*
X1493154Y227567D01*
Y222488D01*
X1495693Y219949D01*
X1508389Y214871D02*
Y230106D01*
X1516006D01*
X1518546Y227567D01*
Y222488D01*
X1516006Y219949D01*
X1508389D01*
X1538859Y235184D02*
Y219949D01*
X1549016D01*
X1556633Y230106D02*
X1561712D01*
X1564251Y227567D01*
Y219949D01*
X1556633D01*
X1554094Y222488D01*
X1556633Y225028D01*
X1564251D01*
X1569329Y230106D02*
Y222488D01*
X1571868Y219949D01*
X1579486D01*
Y217410D01*
X1576947Y214871D01*
X1574408D01*
X1579486Y219949D02*
Y230106D01*
X1592182Y219949D02*
X1587103D01*
X1584564Y222488D01*
Y227567D01*
X1587103Y230106D01*
X1592182D01*
X1594721Y227567D01*
Y225028D01*
X1584564D01*
X1599799Y230106D02*
Y219949D01*
Y225028D01*
X1602339Y227567D01*
X1604878Y230106D01*
X1607417D01*
X1630269Y227567D02*
X1640426D01*
X1660740Y235184D02*
Y219949D01*
X1668357D01*
X1670896Y222488D01*
Y225028D01*
X1668357Y227567D01*
X1660740D01*
X1668357D01*
X1670896Y230106D01*
Y232645D01*
X1668357Y235184D01*
X1660740D01*
X1678514Y219949D02*
X1683592D01*
X1686131Y222488D01*
Y227567D01*
X1683592Y230106D01*
X1678514D01*
X1675975Y227567D01*
Y222488D01*
X1678514Y219949D01*
X1693749Y232645D02*
Y230106D01*
X1691210D01*
X1696288D01*
X1693749D01*
Y222488D01*
X1696288Y219949D01*
X1706445Y232645D02*
Y230106D01*
X1703906D01*
X1708984D01*
X1706445D01*
Y222488D01*
X1708984Y219949D01*
X1719141D02*
X1724219D01*
X1726758Y222488D01*
Y227567D01*
X1724219Y230106D01*
X1719141D01*
X1716602Y227567D01*
Y222488D01*
X1719141Y219949D01*
X1731837D02*
Y230106D01*
X1734376D01*
X1736915Y227567D01*
Y219949D01*
Y227567D01*
X1739454Y230106D01*
X1741993Y227567D01*
Y219949D01*
X1762307Y235184D02*
Y219949D01*
X1772464D01*
X1780081Y230106D02*
X1785159D01*
X1787699Y227567D01*
Y219949D01*
X1780081D01*
X1777542Y222488D01*
X1780081Y225028D01*
X1787699D01*
X1792777Y230106D02*
Y222488D01*
X1795316Y219949D01*
X1802934D01*
Y217410D01*
X1800394Y214871D01*
X1797855D01*
X1802934Y219949D02*
Y230106D01*
X1815629Y219949D02*
X1810551D01*
X1808012Y222488D01*
Y227567D01*
X1810551Y230106D01*
X1815629D01*
X1818169Y227567D01*
Y225028D01*
X1808012D01*
X1823247Y230106D02*
Y219949D01*
Y225028D01*
X1825786Y227567D01*
X1828325Y230106D01*
X1830865D01*
X1477919Y197084D02*
X1488076D01*
X1482997D01*
Y181849D01*
X1495693D02*
X1500771D01*
X1503311Y184388D01*
Y189467D01*
X1500771Y192006D01*
X1495693D01*
X1493154Y189467D01*
Y184388D01*
X1495693Y181849D01*
X1508389Y176771D02*
Y192006D01*
X1516006D01*
X1518546Y189467D01*
Y184388D01*
X1516006Y181849D01*
X1508389D01*
X1538859Y197084D02*
Y181849D01*
X1549016D01*
X1556633Y192006D02*
X1561712D01*
X1564251Y189467D01*
Y181849D01*
X1556633D01*
X1554094Y184388D01*
X1556633Y186928D01*
X1564251D01*
X1569329Y192006D02*
Y184388D01*
X1571868Y181849D01*
X1579486D01*
Y179310D01*
X1576947Y176771D01*
X1574408D01*
X1579486Y181849D02*
Y192006D01*
X1592182Y181849D02*
X1587103D01*
X1584564Y184388D01*
Y189467D01*
X1587103Y192006D01*
X1592182D01*
X1594721Y189467D01*
Y186928D01*
X1584564D01*
X1599799Y192006D02*
Y181849D01*
Y186928D01*
X1602339Y189467D01*
X1604878Y192006D01*
X1607417D01*
X1630269Y189467D02*
X1640426D01*
X1660740Y197084D02*
Y181849D01*
X1668357D01*
X1670896Y184388D01*
Y186928D01*
X1668357Y189467D01*
X1660740D01*
X1668357D01*
X1670896Y192006D01*
Y194545D01*
X1668357Y197084D01*
X1660740D01*
X1678514Y181849D02*
X1683592D01*
X1686131Y184388D01*
Y189467D01*
X1683592Y192006D01*
X1678514D01*
X1675975Y189467D01*
Y184388D01*
X1678514Y181849D01*
X1693749Y194545D02*
Y192006D01*
X1691210D01*
X1696288D01*
X1693749D01*
Y184388D01*
X1696288Y181849D01*
X1706445Y194545D02*
Y192006D01*
X1703906D01*
X1708984D01*
X1706445D01*
Y184388D01*
X1708984Y181849D01*
X1719141D02*
X1724219D01*
X1726758Y184388D01*
Y189467D01*
X1724219Y192006D01*
X1719141D01*
X1716602Y189467D01*
Y184388D01*
X1719141Y181849D01*
X1731837D02*
Y192006D01*
X1734376D01*
X1736915Y189467D01*
Y181849D01*
Y189467D01*
X1739454Y192006D01*
X1741993Y189467D01*
Y181849D01*
X1762307Y197084D02*
Y181849D01*
X1772464D01*
X1780081Y192006D02*
X1785159D01*
X1787699Y189467D01*
Y181849D01*
X1780081D01*
X1777542Y184388D01*
X1780081Y186928D01*
X1787699D01*
X1792777Y192006D02*
Y184388D01*
X1795316Y181849D01*
X1802934D01*
Y179310D01*
X1800394Y176771D01*
X1797855D01*
X1802934Y181849D02*
Y192006D01*
X1815629Y181849D02*
X1810551D01*
X1808012Y184388D01*
Y189467D01*
X1810551Y192006D01*
X1815629D01*
X1818169Y189467D01*
Y186928D01*
X1808012D01*
X1823247Y192006D02*
Y181849D01*
Y186928D01*
X1825786Y189467D01*
X1828325Y192006D01*
X1830865D01*
X1291533Y524749D02*
Y539984D01*
X1299151D01*
X1301690Y537445D01*
Y532367D01*
X1299151Y529827D01*
X1291533D01*
X1296611D02*
X1301690Y524749D01*
X1309307D02*
X1314386D01*
X1316925Y527288D01*
Y532367D01*
X1314386Y534906D01*
X1309307D01*
X1306768Y532367D01*
Y527288D01*
X1309307Y524749D01*
X1322003Y534906D02*
Y527288D01*
X1324542Y524749D01*
X1332160D01*
Y534906D01*
X1337238Y524749D02*
Y534906D01*
X1344856D01*
X1347395Y532367D01*
Y524749D01*
X1362630Y539984D02*
Y524749D01*
X1355013D01*
X1352473Y527288D01*
Y532367D01*
X1355013Y534906D01*
X1362630D01*
X1301690Y499345D02*
X1299151Y501884D01*
X1294072D01*
X1291533Y499345D01*
Y496806D01*
X1294072Y494267D01*
X1299151D01*
X1301690Y491727D01*
Y489188D01*
X1299151Y486649D01*
X1294072D01*
X1291533Y489188D01*
X1306768Y486649D02*
X1311846D01*
X1309307D01*
Y501884D01*
X1306768D01*
X1322003Y486649D02*
X1327082D01*
X1329621Y489188D01*
Y494267D01*
X1327082Y496806D01*
X1322003D01*
X1319464Y494267D01*
Y489188D01*
X1322003Y486649D01*
X1337238Y499345D02*
Y496806D01*
X1334699D01*
X1339778D01*
X1337238D01*
Y489188D01*
X1339778Y486649D01*
X1301690Y461245D02*
X1299151Y463784D01*
X1294072D01*
X1291533Y461245D01*
Y458706D01*
X1294072Y456167D01*
X1299151D01*
X1301690Y453628D01*
Y451088D01*
X1299151Y448549D01*
X1294072D01*
X1291533Y451088D01*
X1306768Y448549D02*
X1311846D01*
X1309307D01*
Y463784D01*
X1306768D01*
X1322003Y448549D02*
X1327082D01*
X1329621Y451088D01*
Y456167D01*
X1327082Y458706D01*
X1322003D01*
X1319464Y456167D01*
Y451088D01*
X1322003Y448549D01*
X1337238Y461245D02*
Y458706D01*
X1334699D01*
X1339778D01*
X1337238D01*
Y451088D01*
X1339778Y448549D01*
X1291533Y410449D02*
Y425684D01*
X1299151D01*
X1301690Y423145D01*
Y418067D01*
X1299151Y415527D01*
X1291533D01*
X1296611D02*
X1301690Y410449D01*
X1309307D02*
X1314386D01*
X1316925Y412988D01*
Y418067D01*
X1314386Y420606D01*
X1309307D01*
X1306768Y418067D01*
Y412988D01*
X1309307Y410449D01*
X1322003Y420606D02*
Y412988D01*
X1324542Y410449D01*
X1332160D01*
Y420606D01*
X1337238Y410449D02*
Y420606D01*
X1344856D01*
X1347395Y418067D01*
Y410449D01*
X1362630Y425684D02*
Y410449D01*
X1355013D01*
X1352473Y412988D01*
Y418067D01*
X1355013Y420606D01*
X1362630D01*
X1291533Y372349D02*
Y387584D01*
X1299151D01*
X1301690Y385045D01*
Y379967D01*
X1299151Y377427D01*
X1291533D01*
X1296611D02*
X1301690Y372349D01*
X1309307D02*
X1314386D01*
X1316925Y374888D01*
Y379967D01*
X1314386Y382506D01*
X1309307D01*
X1306768Y379967D01*
Y374888D01*
X1309307Y372349D01*
X1322003Y382506D02*
Y374888D01*
X1324542Y372349D01*
X1332160D01*
Y382506D01*
X1337238Y372349D02*
Y382506D01*
X1344856D01*
X1347395Y379967D01*
Y372349D01*
X1362630Y387584D02*
Y372349D01*
X1355013D01*
X1352473Y374888D01*
Y379967D01*
X1355013Y382506D01*
X1362630D01*
X1291533Y334249D02*
Y349484D01*
X1299151D01*
X1301690Y346945D01*
Y341867D01*
X1299151Y339328D01*
X1291533D01*
X1296611D02*
X1301690Y334249D01*
X1309307D02*
X1314386D01*
X1316925Y336788D01*
Y341867D01*
X1314386Y344406D01*
X1309307D01*
X1306768Y341867D01*
Y336788D01*
X1309307Y334249D01*
X1322003Y344406D02*
Y336788D01*
X1324542Y334249D01*
X1332160D01*
Y344406D01*
X1337238Y334249D02*
Y344406D01*
X1344856D01*
X1347395Y341867D01*
Y334249D01*
X1362630Y349484D02*
Y334249D01*
X1355013D01*
X1352473Y336788D01*
Y341867D01*
X1355013Y344406D01*
X1362630D01*
X1291533Y296149D02*
Y311384D01*
X1299151D01*
X1301690Y308845D01*
Y303767D01*
X1299151Y301227D01*
X1291533D01*
X1296611D02*
X1301690Y296149D01*
X1309307D02*
X1314386D01*
X1316925Y298688D01*
Y303767D01*
X1314386Y306306D01*
X1309307D01*
X1306768Y303767D01*
Y298688D01*
X1309307Y296149D01*
X1322003Y306306D02*
Y298688D01*
X1324542Y296149D01*
X1332160D01*
Y306306D01*
X1337238Y296149D02*
Y306306D01*
X1344856D01*
X1347395Y303767D01*
Y296149D01*
X1362630Y311384D02*
Y296149D01*
X1355013D01*
X1352473Y298688D01*
Y303767D01*
X1355013Y306306D01*
X1362630D01*
X1291533Y258049D02*
Y273284D01*
X1299151D01*
X1301690Y270745D01*
Y265667D01*
X1299151Y263127D01*
X1291533D01*
X1296611D02*
X1301690Y258049D01*
X1309307D02*
X1314386D01*
X1316925Y260588D01*
Y265667D01*
X1314386Y268206D01*
X1309307D01*
X1306768Y265667D01*
Y260588D01*
X1309307Y258049D01*
X1322003Y268206D02*
Y260588D01*
X1324542Y258049D01*
X1332160D01*
Y268206D01*
X1337238Y258049D02*
Y268206D01*
X1344856D01*
X1347395Y265667D01*
Y258049D01*
X1362630Y273284D02*
Y258049D01*
X1355013D01*
X1352473Y260588D01*
Y265667D01*
X1355013Y268206D01*
X1362630D01*
X1291533Y219949D02*
Y235184D01*
X1299151D01*
X1301690Y232645D01*
Y227567D01*
X1299151Y225028D01*
X1291533D01*
X1296611D02*
X1301690Y219949D01*
X1309307D02*
X1314386D01*
X1316925Y222488D01*
Y227567D01*
X1314386Y230106D01*
X1309307D01*
X1306768Y227567D01*
Y222488D01*
X1309307Y219949D01*
X1322003Y230106D02*
Y222488D01*
X1324542Y219949D01*
X1332160D01*
Y230106D01*
X1337238Y219949D02*
Y230106D01*
X1344856D01*
X1347395Y227567D01*
Y219949D01*
X1362630Y235184D02*
Y219949D01*
X1355013D01*
X1352473Y222488D01*
Y227567D01*
X1355013Y230106D01*
X1362630D01*
X1291533Y181849D02*
Y197084D01*
X1299151D01*
X1301690Y194545D01*
Y189467D01*
X1299151Y186928D01*
X1291533D01*
X1296611D02*
X1301690Y181849D01*
X1309307D02*
X1314386D01*
X1316925Y184388D01*
Y189467D01*
X1314386Y192006D01*
X1309307D01*
X1306768Y189467D01*
Y184388D01*
X1309307Y181849D01*
X1322003Y192006D02*
Y184388D01*
X1324542Y181849D01*
X1332160D01*
Y192006D01*
X1337238Y181849D02*
Y192006D01*
X1344856D01*
X1347395Y189467D01*
Y181849D01*
X1362630Y197084D02*
Y181849D01*
X1355013D01*
X1352473Y184388D01*
Y189467D01*
X1355013Y192006D01*
X1362630D01*
X1163041Y524749D02*
Y539984D01*
X1170658D01*
X1173197Y537445D01*
Y532367D01*
X1170658Y529827D01*
X1163041D01*
X1178276Y539984D02*
X1188432D01*
X1183354D01*
Y524749D01*
X1193511Y539984D02*
Y524749D01*
Y532367D01*
X1203668D01*
Y539984D01*
Y524749D01*
X1163041Y486649D02*
Y501884D01*
X1170658D01*
X1173197Y499345D01*
Y494267D01*
X1170658Y491727D01*
X1163041D01*
X1178276Y501884D02*
X1188432D01*
X1183354D01*
Y486649D01*
X1193511Y501884D02*
Y486649D01*
Y494267D01*
X1203668D01*
Y501884D01*
Y486649D01*
X1163041Y448549D02*
Y463784D01*
X1170658D01*
X1173197Y461245D01*
Y456167D01*
X1170658Y453628D01*
X1163041D01*
X1178276Y463784D02*
X1188432D01*
X1183354D01*
Y448549D01*
X1193511Y463784D02*
Y448549D01*
Y456167D01*
X1203668D01*
Y463784D01*
Y448549D01*
X1163041Y410449D02*
Y425684D01*
X1170658D01*
X1173197Y423145D01*
Y418067D01*
X1170658Y415527D01*
X1163041D01*
X1178276Y425684D02*
X1188432D01*
X1183354D01*
Y410449D01*
X1193511Y425684D02*
Y410449D01*
Y418067D01*
X1203668D01*
Y425684D01*
Y410449D01*
X1163041Y372349D02*
Y387584D01*
X1170658D01*
X1173197Y385045D01*
Y379967D01*
X1170658Y377427D01*
X1163041D01*
X1178276Y387584D02*
X1188432D01*
X1183354D01*
Y372349D01*
X1193511Y387584D02*
Y372349D01*
Y379967D01*
X1203668D01*
Y387584D01*
Y372349D01*
X1163041Y334249D02*
Y349484D01*
X1170658D01*
X1173197Y346945D01*
Y341867D01*
X1170658Y339328D01*
X1163041D01*
X1178276Y349484D02*
X1188432D01*
X1183354D01*
Y334249D01*
X1193511Y349484D02*
Y334249D01*
Y341867D01*
X1203668D01*
Y349484D01*
Y334249D01*
X1163041Y296149D02*
Y311384D01*
X1170658D01*
X1173197Y308845D01*
Y303767D01*
X1170658Y301227D01*
X1163041D01*
X1178276Y311384D02*
X1188432D01*
X1183354D01*
Y296149D01*
X1193511Y311384D02*
Y296149D01*
Y303767D01*
X1203668D01*
Y311384D01*
Y296149D01*
X1163041Y258049D02*
Y273284D01*
X1170658D01*
X1173197Y270745D01*
Y265667D01*
X1170658Y263127D01*
X1163041D01*
X1178276Y273284D02*
X1188432D01*
X1183354D01*
Y258049D01*
X1193511Y273284D02*
Y258049D01*
Y265667D01*
X1203668D01*
Y273284D01*
Y258049D01*
X1163041Y219949D02*
Y235184D01*
X1170658D01*
X1173197Y232645D01*
Y227567D01*
X1170658Y225028D01*
X1163041D01*
X1178276Y235184D02*
X1188432D01*
X1183354D01*
Y219949D01*
X1193511Y235184D02*
Y219949D01*
Y227567D01*
X1203668D01*
Y235184D01*
Y219949D01*
X1163041Y181849D02*
Y197084D01*
X1170658D01*
X1173197Y194545D01*
Y189467D01*
X1170658Y186928D01*
X1163041D01*
X1178276Y197084D02*
X1188432D01*
X1183354D01*
Y181849D01*
X1193511Y197084D02*
Y181849D01*
Y189467D01*
X1203668D01*
Y197084D01*
Y181849D01*
X883722Y524749D02*
X888800D01*
X886261D01*
Y539984D01*
X883722Y537445D01*
X906575Y524749D02*
X896418D01*
X906575Y534906D01*
Y537445D01*
X904035Y539984D01*
X898957D01*
X896418Y537445D01*
X911653Y524749D02*
Y527288D01*
X914192D01*
Y524749D01*
X911653D01*
X924349Y537445D02*
X926888Y539984D01*
X931966D01*
X934505Y537445D01*
Y527288D01*
X931966Y524749D01*
X926888D01*
X924349Y527288D01*
Y537445D01*
X939584D02*
X942123Y539984D01*
X947201D01*
X949741Y537445D01*
Y527288D01*
X947201Y524749D01*
X942123D01*
X939584Y527288D01*
Y537445D01*
X954819Y524749D02*
Y534906D01*
X957358D01*
X959897Y532367D01*
Y524749D01*
Y532367D01*
X962437Y534906D01*
X964976Y532367D01*
Y524749D01*
X970054D02*
X975132D01*
X972593D01*
Y534906D01*
X970054D01*
X982750Y524749D02*
X987828D01*
X985289D01*
Y539984D01*
X982750D01*
X1015759Y524749D02*
X1010681Y529827D01*
Y534906D01*
X1015759Y539984D01*
X1023377Y537445D02*
X1025916Y539984D01*
X1030994D01*
X1033533Y537445D01*
Y527288D01*
X1030994Y524749D01*
X1025916D01*
X1023377Y527288D01*
Y537445D01*
X1038612Y524749D02*
Y527288D01*
X1041151D01*
Y524749D01*
X1038612D01*
X1051308Y537445D02*
X1053847Y539984D01*
X1058925D01*
X1061464Y537445D01*
Y534906D01*
X1058925Y532367D01*
X1056386D01*
X1058925D01*
X1061464Y529827D01*
Y527288D01*
X1058925Y524749D01*
X1053847D01*
X1051308Y527288D01*
X1066543Y537445D02*
X1069082Y539984D01*
X1074160D01*
X1076700Y537445D01*
Y527288D01*
X1074160Y524749D01*
X1069082D01*
X1066543Y527288D01*
Y537445D01*
X1091935Y539984D02*
X1081778D01*
Y532367D01*
X1086856Y534906D01*
X1089395D01*
X1091935Y532367D01*
Y527288D01*
X1089395Y524749D01*
X1084317D01*
X1081778Y527288D01*
X1097013Y524749D02*
Y534906D01*
X1099552D01*
X1102091Y532367D01*
Y524749D01*
Y532367D01*
X1104631Y534906D01*
X1107170Y532367D01*
Y524749D01*
X1112248D02*
Y534906D01*
X1114787D01*
X1117326Y532367D01*
Y524749D01*
Y532367D01*
X1119866Y534906D01*
X1122405Y532367D01*
Y524749D01*
X1127483D02*
X1132561Y529827D01*
Y534906D01*
X1127483Y539984D01*
X893879Y486649D02*
X883722D01*
X893879Y496806D01*
Y499345D01*
X891339Y501884D01*
X886261D01*
X883722Y499345D01*
X898957D02*
X901496Y501884D01*
X906575D01*
X909114Y499345D01*
Y496806D01*
X906575Y494267D01*
X904035D01*
X906575D01*
X909114Y491727D01*
Y489188D01*
X906575Y486649D01*
X901496D01*
X898957Y489188D01*
X914192Y486649D02*
Y489188D01*
X916731D01*
Y486649D01*
X914192D01*
X937045Y501884D02*
X931966Y499345D01*
X926888Y494267D01*
Y489188D01*
X929427Y486649D01*
X934505D01*
X937045Y489188D01*
Y491727D01*
X934505Y494267D01*
X926888D01*
X952280Y486649D02*
X942123D01*
X952280Y496806D01*
Y499345D01*
X949741Y501884D01*
X944662D01*
X942123Y499345D01*
X957358Y486649D02*
Y496806D01*
X959897D01*
X962437Y494267D01*
Y486649D01*
Y494267D01*
X964976Y496806D01*
X967515Y494267D01*
Y486649D01*
X972593D02*
X977672D01*
X975132D01*
Y496806D01*
X972593D01*
X985289Y486649D02*
X990368D01*
X987828D01*
Y501884D01*
X985289D01*
X1018298Y486649D02*
X1013220Y491727D01*
Y496806D01*
X1018298Y501884D01*
X1025916Y499345D02*
X1028455Y501884D01*
X1033533D01*
X1036073Y499345D01*
Y489188D01*
X1033533Y486649D01*
X1028455D01*
X1025916Y489188D01*
Y499345D01*
X1041151Y486649D02*
Y489188D01*
X1043690D01*
Y486649D01*
X1041151D01*
X1064004Y501884D02*
X1058925Y499345D01*
X1053847Y494267D01*
Y489188D01*
X1056386Y486649D01*
X1061464D01*
X1064004Y489188D01*
Y491727D01*
X1061464Y494267D01*
X1053847D01*
X1069082Y499345D02*
X1071621Y501884D01*
X1076700D01*
X1079239Y499345D01*
Y489188D01*
X1076700Y486649D01*
X1071621D01*
X1069082Y489188D01*
Y499345D01*
X1084317D02*
X1086856Y501884D01*
X1091935D01*
X1094474Y499345D01*
Y489188D01*
X1091935Y486649D01*
X1086856D01*
X1084317Y489188D01*
Y499345D01*
X1099552Y486649D02*
Y496806D01*
X1102091D01*
X1104631Y494267D01*
Y486649D01*
Y494267D01*
X1107170Y496806D01*
X1109709Y494267D01*
Y486649D01*
X1114787D02*
Y496806D01*
X1117326D01*
X1119866Y494267D01*
Y486649D01*
Y494267D01*
X1122405Y496806D01*
X1124944Y494267D01*
Y486649D01*
X1130022D02*
X1135101Y491727D01*
Y496806D01*
X1130022Y501884D01*
X893879Y448549D02*
X883722D01*
X893879Y458706D01*
Y461245D01*
X891339Y463784D01*
X886261D01*
X883722Y461245D01*
X898957D02*
X901496Y463784D01*
X906575D01*
X909114Y461245D01*
Y458706D01*
X906575Y456167D01*
X904035D01*
X906575D01*
X909114Y453628D01*
Y451088D01*
X906575Y448549D01*
X901496D01*
X898957Y451088D01*
X914192Y448549D02*
Y451088D01*
X916731D01*
Y448549D01*
X914192D01*
X937045Y463784D02*
X931966Y461245D01*
X926888Y456167D01*
Y451088D01*
X929427Y448549D01*
X934505D01*
X937045Y451088D01*
Y453628D01*
X934505Y456167D01*
X926888D01*
X952280Y448549D02*
X942123D01*
X952280Y458706D01*
Y461245D01*
X949741Y463784D01*
X944662D01*
X942123Y461245D01*
X957358Y448549D02*
Y458706D01*
X959897D01*
X962437Y456167D01*
Y448549D01*
Y456167D01*
X964976Y458706D01*
X967515Y456167D01*
Y448549D01*
X972593D02*
X977672D01*
X975132D01*
Y458706D01*
X972593D01*
X985289Y448549D02*
X990368D01*
X987828D01*
Y463784D01*
X985289D01*
X1018298Y448549D02*
X1013220Y453628D01*
Y458706D01*
X1018298Y463784D01*
X1025916Y461245D02*
X1028455Y463784D01*
X1033533D01*
X1036073Y461245D01*
Y451088D01*
X1033533Y448549D01*
X1028455D01*
X1025916Y451088D01*
Y461245D01*
X1041151Y448549D02*
Y451088D01*
X1043690D01*
Y448549D01*
X1041151D01*
X1064004Y463784D02*
X1058925Y461245D01*
X1053847Y456167D01*
Y451088D01*
X1056386Y448549D01*
X1061464D01*
X1064004Y451088D01*
Y453628D01*
X1061464Y456167D01*
X1053847D01*
X1069082Y461245D02*
X1071621Y463784D01*
X1076700D01*
X1079239Y461245D01*
Y451088D01*
X1076700Y448549D01*
X1071621D01*
X1069082Y451088D01*
Y461245D01*
X1084317D02*
X1086856Y463784D01*
X1091935D01*
X1094474Y461245D01*
Y451088D01*
X1091935Y448549D01*
X1086856D01*
X1084317Y451088D01*
Y461245D01*
X1099552Y448549D02*
Y458706D01*
X1102091D01*
X1104631Y456167D01*
Y448549D01*
Y456167D01*
X1107170Y458706D01*
X1109709Y456167D01*
Y448549D01*
X1114787D02*
Y458706D01*
X1117326D01*
X1119866Y456167D01*
Y448549D01*
Y456167D01*
X1122405Y458706D01*
X1124944Y456167D01*
Y448549D01*
X1130022D02*
X1135101Y453628D01*
Y458706D01*
X1130022Y463784D01*
X883722Y423145D02*
X886261Y425684D01*
X891339D01*
X893879Y423145D01*
Y420606D01*
X891339Y418067D01*
X888800D01*
X891339D01*
X893879Y415527D01*
Y412988D01*
X891339Y410449D01*
X886261D01*
X883722Y412988D01*
X898957Y423145D02*
X901496Y425684D01*
X906575D01*
X909114Y423145D01*
Y412988D01*
X906575Y410449D01*
X901496D01*
X898957Y412988D01*
Y423145D01*
X914192Y410449D02*
Y412988D01*
X916731D01*
Y410449D01*
X914192D01*
X926888Y423145D02*
X929427Y425684D01*
X934505D01*
X937045Y423145D01*
Y412988D01*
X934505Y410449D01*
X929427D01*
X926888Y412988D01*
Y423145D01*
X942123D02*
X944662Y425684D01*
X949741D01*
X952280Y423145D01*
Y412988D01*
X949741Y410449D01*
X944662D01*
X942123Y412988D01*
Y423145D01*
X957358Y410449D02*
Y420606D01*
X959897D01*
X962437Y418067D01*
Y410449D01*
Y418067D01*
X964976Y420606D01*
X967515Y418067D01*
Y410449D01*
X972593D02*
X977672D01*
X975132D01*
Y420606D01*
X972593D01*
X985289Y410449D02*
X990368D01*
X987828D01*
Y425684D01*
X985289D01*
X1018298Y410449D02*
X1013220Y415527D01*
Y420606D01*
X1018298Y425684D01*
X1025916Y423145D02*
X1028455Y425684D01*
X1033533D01*
X1036073Y423145D01*
Y412988D01*
X1033533Y410449D01*
X1028455D01*
X1025916Y412988D01*
Y423145D01*
X1041151Y410449D02*
Y412988D01*
X1043690D01*
Y410449D01*
X1041151D01*
X1053847Y425684D02*
X1064004D01*
Y423145D01*
X1053847Y412988D01*
Y410449D01*
X1079239Y425684D02*
X1074160Y423145D01*
X1069082Y418067D01*
Y412988D01*
X1071621Y410449D01*
X1076700D01*
X1079239Y412988D01*
Y415527D01*
X1076700Y418067D01*
X1069082D01*
X1094474Y410449D02*
X1084317D01*
X1094474Y420606D01*
Y423145D01*
X1091935Y425684D01*
X1086856D01*
X1084317Y423145D01*
X1099552Y410449D02*
Y420606D01*
X1102091D01*
X1104631Y418067D01*
Y410449D01*
Y418067D01*
X1107170Y420606D01*
X1109709Y418067D01*
Y410449D01*
X1114787D02*
Y420606D01*
X1117326D01*
X1119866Y418067D01*
Y410449D01*
Y418067D01*
X1122405Y420606D01*
X1124944Y418067D01*
Y410449D01*
X1130022D02*
X1135101Y415527D01*
Y420606D01*
X1130022Y425684D01*
X883722Y385045D02*
X886261Y387584D01*
X891339D01*
X893879Y385045D01*
Y382506D01*
X891339Y379967D01*
X888800D01*
X891339D01*
X893879Y377427D01*
Y374888D01*
X891339Y372349D01*
X886261D01*
X883722Y374888D01*
X909114Y387584D02*
X898957D01*
Y379967D01*
X904035Y382506D01*
X906575D01*
X909114Y379967D01*
Y374888D01*
X906575Y372349D01*
X901496D01*
X898957Y374888D01*
X914192Y372349D02*
Y374888D01*
X916731D01*
Y372349D01*
X914192D01*
X934505D02*
Y387584D01*
X926888Y379967D01*
X937045D01*
X942123Y385045D02*
X944662Y387584D01*
X949741D01*
X952280Y385045D01*
Y382506D01*
X949741Y379967D01*
X947201D01*
X949741D01*
X952280Y377427D01*
Y374888D01*
X949741Y372349D01*
X944662D01*
X942123Y374888D01*
X957358Y372349D02*
Y382506D01*
X959897D01*
X962437Y379967D01*
Y372349D01*
Y379967D01*
X964976Y382506D01*
X967515Y379967D01*
Y372349D01*
X972593D02*
X977672D01*
X975132D01*
Y382506D01*
X972593D01*
X985289Y372349D02*
X990368D01*
X987828D01*
Y387584D01*
X985289D01*
X1018298Y372349D02*
X1013220Y377427D01*
Y382506D01*
X1018298Y387584D01*
X1025916Y385045D02*
X1028455Y387584D01*
X1033533D01*
X1036073Y385045D01*
Y374888D01*
X1033533Y372349D01*
X1028455D01*
X1025916Y374888D01*
Y385045D01*
X1041151Y372349D02*
Y374888D01*
X1043690D01*
Y372349D01*
X1041151D01*
X1053847Y374888D02*
X1056386Y372349D01*
X1061464D01*
X1064004Y374888D01*
Y385045D01*
X1061464Y387584D01*
X1056386D01*
X1053847Y385045D01*
Y382506D01*
X1056386Y379967D01*
X1064004D01*
X1069082Y385045D02*
X1071621Y387584D01*
X1076700D01*
X1079239Y385045D01*
Y374888D01*
X1076700Y372349D01*
X1071621D01*
X1069082Y374888D01*
Y385045D01*
X1084317D02*
X1086856Y387584D01*
X1091935D01*
X1094474Y385045D01*
Y374888D01*
X1091935Y372349D01*
X1086856D01*
X1084317Y374888D01*
Y385045D01*
X1099552Y372349D02*
Y382506D01*
X1102091D01*
X1104631Y379967D01*
Y372349D01*
Y379967D01*
X1107170Y382506D01*
X1109709Y379967D01*
Y372349D01*
X1114787D02*
Y382506D01*
X1117326D01*
X1119866Y379967D01*
Y372349D01*
Y379967D01*
X1122405Y382506D01*
X1124944Y379967D01*
Y372349D01*
X1130022D02*
X1135101Y377427D01*
Y382506D01*
X1130022Y387584D01*
X891339Y334249D02*
Y349484D01*
X883722Y341867D01*
X893879D01*
X898957Y346945D02*
X901496Y349484D01*
X906575D01*
X909114Y346945D01*
Y336788D01*
X906575Y334249D01*
X901496D01*
X898957Y336788D01*
Y346945D01*
X914192Y334249D02*
Y336788D01*
X916731D01*
Y334249D01*
X914192D01*
X926888Y336788D02*
X929427Y334249D01*
X934505D01*
X937045Y336788D01*
Y346945D01*
X934505Y349484D01*
X929427D01*
X926888Y346945D01*
Y344406D01*
X929427Y341867D01*
X937045D01*
X942123Y346945D02*
X944662Y349484D01*
X949741D01*
X952280Y346945D01*
Y344406D01*
X949741Y341867D01*
X952280Y339328D01*
Y336788D01*
X949741Y334249D01*
X944662D01*
X942123Y336788D01*
Y339328D01*
X944662Y341867D01*
X942123Y344406D01*
Y346945D01*
X944662Y341867D02*
X949741D01*
X957358Y334249D02*
Y344406D01*
X959897D01*
X962437Y341867D01*
Y334249D01*
Y341867D01*
X964976Y344406D01*
X967515Y341867D01*
Y334249D01*
X972593D02*
X977672D01*
X975132D01*
Y344406D01*
X972593D01*
X985289Y334249D02*
X990368D01*
X987828D01*
Y349484D01*
X985289D01*
X1018298Y334249D02*
X1013220Y339328D01*
Y344406D01*
X1018298Y349484D01*
X1025916Y334249D02*
X1030994D01*
X1028455D01*
Y349484D01*
X1025916Y346945D01*
X1038612Y334249D02*
Y336788D01*
X1041151D01*
Y334249D01*
X1038612D01*
X1051308Y346945D02*
X1053847Y349484D01*
X1058925D01*
X1061464Y346945D01*
Y336788D01*
X1058925Y334249D01*
X1053847D01*
X1051308Y336788D01*
Y346945D01*
X1074160Y334249D02*
Y349484D01*
X1066543Y341867D01*
X1076700D01*
X1081778Y334249D02*
X1086856D01*
X1084317D01*
Y349484D01*
X1081778Y346945D01*
X1094474Y334249D02*
Y344406D01*
X1097013D01*
X1099552Y341867D01*
Y334249D01*
Y341867D01*
X1102091Y344406D01*
X1104631Y341867D01*
Y334249D01*
X1109709D02*
Y344406D01*
X1112248D01*
X1114787Y341867D01*
Y334249D01*
Y341867D01*
X1117326Y344406D01*
X1119866Y341867D01*
Y334249D01*
X1124944D02*
X1130022Y339328D01*
Y344406D01*
X1124944Y349484D01*
X893879Y311384D02*
X883722D01*
Y303767D01*
X888800Y306306D01*
X891339D01*
X893879Y303767D01*
Y298688D01*
X891339Y296149D01*
X886261D01*
X883722Y298688D01*
X898957Y308845D02*
X901496Y311384D01*
X906575D01*
X909114Y308845D01*
Y306306D01*
X906575Y303767D01*
X904035D01*
X906575D01*
X909114Y301227D01*
Y298688D01*
X906575Y296149D01*
X901496D01*
X898957Y298688D01*
X914192Y296149D02*
Y298688D01*
X916731D01*
Y296149D01*
X914192D01*
X926888D02*
X931966D01*
X929427D01*
Y311384D01*
X926888Y308845D01*
X939584D02*
X942123Y311384D01*
X947201D01*
X949741Y308845D01*
Y306306D01*
X947201Y303767D01*
X949741Y301227D01*
Y298688D01*
X947201Y296149D01*
X942123D01*
X939584Y298688D01*
Y301227D01*
X942123Y303767D01*
X939584Y306306D01*
Y308845D01*
X942123Y303767D02*
X947201D01*
X954819Y296149D02*
Y306306D01*
X957358D01*
X959897Y303767D01*
Y296149D01*
Y303767D01*
X962437Y306306D01*
X964976Y303767D01*
Y296149D01*
X970054D02*
X975132D01*
X972593D01*
Y306306D01*
X970054D01*
X982750Y296149D02*
X987828D01*
X985289D01*
Y311384D01*
X982750D01*
X1015759Y296149D02*
X1010681Y301227D01*
Y306306D01*
X1015759Y311384D01*
X1023377Y296149D02*
X1028455D01*
X1025916D01*
Y311384D01*
X1023377Y308845D01*
X1036073Y296149D02*
Y298688D01*
X1038612D01*
Y296149D01*
X1036073D01*
X1048768Y308845D02*
X1051308Y311384D01*
X1056386D01*
X1058925Y308845D01*
Y306306D01*
X1056386Y303767D01*
X1053847D01*
X1056386D01*
X1058925Y301227D01*
Y298688D01*
X1056386Y296149D01*
X1051308D01*
X1048768Y298688D01*
X1074160Y311384D02*
X1064004D01*
Y303767D01*
X1069082Y306306D01*
X1071621D01*
X1074160Y303767D01*
Y298688D01*
X1071621Y296149D01*
X1066543D01*
X1064004Y298688D01*
X1079239Y296149D02*
X1084317D01*
X1081778D01*
Y311384D01*
X1079239Y308845D01*
X1091935Y296149D02*
Y306306D01*
X1094474D01*
X1097013Y303767D01*
Y296149D01*
Y303767D01*
X1099552Y306306D01*
X1102091Y303767D01*
Y296149D01*
X1107170D02*
Y306306D01*
X1109709D01*
X1112248Y303767D01*
Y296149D01*
Y303767D01*
X1114787Y306306D01*
X1117326Y303767D01*
Y296149D01*
X1122405D02*
X1127483Y301227D01*
Y306306D01*
X1122405Y311384D01*
X883722Y258049D02*
X888800D01*
X886261D01*
Y273284D01*
X883722Y270745D01*
X896418D02*
X898957Y273284D01*
X904035D01*
X906575Y270745D01*
Y260588D01*
X904035Y258049D01*
X898957D01*
X896418Y260588D01*
Y270745D01*
X911653Y258049D02*
Y260588D01*
X914192D01*
Y258049D01*
X911653D01*
X924349Y270745D02*
X926888Y273284D01*
X931966D01*
X934505Y270745D01*
Y260588D01*
X931966Y258049D01*
X926888D01*
X924349Y260588D01*
Y270745D01*
X939584D02*
X942123Y273284D01*
X947201D01*
X949741Y270745D01*
Y260588D01*
X947201Y258049D01*
X942123D01*
X939584Y260588D01*
Y270745D01*
X954819Y258049D02*
Y268206D01*
X957358D01*
X959897Y265667D01*
Y258049D01*
Y265667D01*
X962437Y268206D01*
X964976Y265667D01*
Y258049D01*
X970054D02*
X975132D01*
X972593D01*
Y268206D01*
X970054D01*
X982750Y258049D02*
X987828D01*
X985289D01*
Y273284D01*
X982750D01*
X1015759Y258049D02*
X1010681Y263127D01*
Y268206D01*
X1015759Y273284D01*
X1023377Y270745D02*
X1025916Y273284D01*
X1030994D01*
X1033533Y270745D01*
Y260588D01*
X1030994Y258049D01*
X1025916D01*
X1023377Y260588D01*
Y270745D01*
X1038612Y258049D02*
Y260588D01*
X1041151D01*
Y258049D01*
X1038612D01*
X1061464D02*
X1051308D01*
X1061464Y268206D01*
Y270745D01*
X1058925Y273284D01*
X1053847D01*
X1051308Y270745D01*
X1076700Y273284D02*
X1066543D01*
Y265667D01*
X1071621Y268206D01*
X1074160D01*
X1076700Y265667D01*
Y260588D01*
X1074160Y258049D01*
X1069082D01*
X1066543Y260588D01*
X1089395Y258049D02*
Y273284D01*
X1081778Y265667D01*
X1091935D01*
X1097013Y258049D02*
Y268206D01*
X1099552D01*
X1102091Y265667D01*
Y258049D01*
Y265667D01*
X1104631Y268206D01*
X1107170Y265667D01*
Y258049D01*
X1112248D02*
Y268206D01*
X1114787D01*
X1117326Y265667D01*
Y258049D01*
Y265667D01*
X1119866Y268206D01*
X1122405Y265667D01*
Y258049D01*
X1127483D02*
X1132561Y263127D01*
Y268206D01*
X1127483Y273284D01*
X883722Y219949D02*
X888800D01*
X886261D01*
Y235184D01*
X883722Y232645D01*
X896418Y222488D02*
X898957Y219949D01*
X904035D01*
X906575Y222488D01*
Y232645D01*
X904035Y235184D01*
X898957D01*
X896418Y232645D01*
Y230106D01*
X898957Y227567D01*
X906575D01*
X911653Y219949D02*
Y222488D01*
X914192D01*
Y219949D01*
X911653D01*
X934505Y235184D02*
X929427Y232645D01*
X924349Y227567D01*
Y222488D01*
X926888Y219949D01*
X931966D01*
X934505Y222488D01*
Y225028D01*
X931966Y227567D01*
X924349D01*
X939584Y222488D02*
X942123Y219949D01*
X947201D01*
X949741Y222488D01*
Y232645D01*
X947201Y235184D01*
X942123D01*
X939584Y232645D01*
Y230106D01*
X942123Y227567D01*
X949741D01*
X954819Y219949D02*
Y230106D01*
X957358D01*
X959897Y227567D01*
Y219949D01*
Y227567D01*
X962437Y230106D01*
X964976Y227567D01*
Y219949D01*
X970054D02*
X975132D01*
X972593D01*
Y230106D01*
X970054D01*
X982750Y219949D02*
X987828D01*
X985289D01*
Y235184D01*
X982750D01*
X1015759Y219949D02*
X1010681Y225028D01*
Y230106D01*
X1015759Y235184D01*
X1023377Y232645D02*
X1025916Y235184D01*
X1030994D01*
X1033533Y232645D01*
Y222488D01*
X1030994Y219949D01*
X1025916D01*
X1023377Y222488D01*
Y232645D01*
X1038612Y219949D02*
Y222488D01*
X1041151D01*
Y219949D01*
X1038612D01*
X1061464Y235184D02*
X1051308D01*
Y227567D01*
X1056386Y230106D01*
X1058925D01*
X1061464Y227567D01*
Y222488D01*
X1058925Y219949D01*
X1053847D01*
X1051308Y222488D01*
X1066543Y232645D02*
X1069082Y235184D01*
X1074160D01*
X1076700Y232645D01*
Y222488D01*
X1074160Y219949D01*
X1069082D01*
X1066543Y222488D01*
Y232645D01*
X1081778D02*
X1084317Y235184D01*
X1089395D01*
X1091935Y232645D01*
Y222488D01*
X1089395Y219949D01*
X1084317D01*
X1081778Y222488D01*
Y232645D01*
X1097013Y219949D02*
Y230106D01*
X1099552D01*
X1102091Y227567D01*
Y219949D01*
Y227567D01*
X1104631Y230106D01*
X1107170Y227567D01*
Y219949D01*
X1112248D02*
Y230106D01*
X1114787D01*
X1117326Y227567D01*
Y219949D01*
Y227567D01*
X1119866Y230106D01*
X1122405Y227567D01*
Y219949D01*
X1127483D02*
X1132561Y225028D01*
Y230106D01*
X1127483Y235184D01*
X883722Y194545D02*
X886261Y197084D01*
X891339D01*
X893879Y194545D01*
Y192006D01*
X891339Y189467D01*
X893879Y186928D01*
Y184388D01*
X891339Y181849D01*
X886261D01*
X883722Y184388D01*
Y186928D01*
X886261Y189467D01*
X883722Y192006D01*
Y194545D01*
X886261Y189467D02*
X891339D01*
X898957Y181849D02*
Y184388D01*
X901496D01*
Y181849D01*
X898957D01*
X911653Y194545D02*
X914192Y197084D01*
X919270D01*
X921810Y194545D01*
Y184388D01*
X919270Y181849D01*
X914192D01*
X911653Y184388D01*
Y194545D01*
X926888D02*
X929427Y197084D01*
X934505D01*
X937045Y194545D01*
Y184388D01*
X934505Y181849D01*
X929427D01*
X926888Y184388D01*
Y194545D01*
X942123Y181849D02*
Y192006D01*
X944662D01*
X947201Y189467D01*
Y181849D01*
Y189467D01*
X949741Y192006D01*
X952280Y189467D01*
Y181849D01*
X957358D02*
X962437D01*
X959897D01*
Y192006D01*
X957358D01*
X970054Y181849D02*
X975132D01*
X972593D01*
Y197084D01*
X970054D01*
X1003063Y181849D02*
X997985Y186928D01*
Y192006D01*
X1003063Y197084D01*
X1010681Y194545D02*
X1013220Y197084D01*
X1018298D01*
X1020838Y194545D01*
Y184388D01*
X1018298Y181849D01*
X1013220D01*
X1010681Y184388D01*
Y194545D01*
X1025916Y181849D02*
Y184388D01*
X1028455D01*
Y181849D01*
X1025916D01*
X1048769D02*
X1038612D01*
X1048769Y192006D01*
Y194545D01*
X1046229Y197084D01*
X1041151D01*
X1038612Y194545D01*
X1053847D02*
X1056386Y197084D01*
X1061464D01*
X1064004Y194545D01*
Y184388D01*
X1061464Y181849D01*
X1056386D01*
X1053847Y184388D01*
Y194545D01*
X1069082D02*
X1071621Y197084D01*
X1076700D01*
X1079239Y194545D01*
Y192006D01*
X1076700Y189467D01*
X1074160D01*
X1076700D01*
X1079239Y186928D01*
Y184388D01*
X1076700Y181849D01*
X1071621D01*
X1069082Y184388D01*
X1084317Y181849D02*
Y192006D01*
X1086856D01*
X1089395Y189467D01*
Y181849D01*
Y189467D01*
X1091935Y192006D01*
X1094474Y189467D01*
Y181849D01*
X1099552D02*
Y192006D01*
X1102091D01*
X1104631Y189467D01*
Y181849D01*
Y189467D01*
X1107170Y192006D01*
X1109709Y189467D01*
Y181849D01*
X1114787D02*
X1119866Y186928D01*
Y192006D01*
X1114787Y197084D01*
X741519Y143749D02*
Y158984D01*
X733901Y151367D01*
X744058D01*
X749137Y158984D02*
X759293D01*
Y156445D01*
X749137Y146288D01*
Y143749D01*
X764372D02*
X769450D01*
X766911D01*
Y158984D01*
X764372Y156445D01*
X792302Y158984D02*
X802459D01*
X797381D01*
Y143749D01*
X810077D02*
X815155D01*
X817694Y146288D01*
Y151367D01*
X815155Y153906D01*
X810077D01*
X807538Y151367D01*
Y146288D01*
X810077Y143749D01*
X825312Y156445D02*
Y153906D01*
X822773D01*
X827851D01*
X825312D01*
Y146288D01*
X827851Y143749D01*
X838008Y153906D02*
X843086D01*
X845625Y151367D01*
Y143749D01*
X838008D01*
X835469Y146288D01*
X838008Y148827D01*
X845625D01*
X850704Y143749D02*
X855782D01*
X853243D01*
Y158984D01*
X850704D01*
X733901Y524749D02*
X738980D01*
X736441D01*
Y539984D01*
X733901Y537445D01*
X744058Y486649D02*
X733901D01*
X744058Y496806D01*
Y499345D01*
X741519Y501884D01*
X736441D01*
X733901Y499345D01*
X744058Y448549D02*
X733901D01*
X744058Y458706D01*
Y461245D01*
X741519Y463784D01*
X736441D01*
X733901Y461245D01*
X744058Y410449D02*
X733901D01*
X744058Y420606D01*
Y423145D01*
X741519Y425684D01*
X736441D01*
X733901Y423145D01*
X744058Y372349D02*
X733901D01*
X744058Y382506D01*
Y385045D01*
X741519Y387584D01*
X736441D01*
X733901Y385045D01*
X744058Y334249D02*
X733901D01*
X744058Y344406D01*
Y346945D01*
X741519Y349484D01*
X736441D01*
X733901Y346945D01*
X744058Y296149D02*
X733901D01*
X744058Y306306D01*
Y308845D01*
X741519Y311384D01*
X736441D01*
X733901Y308845D01*
X744058Y273284D02*
X733901D01*
Y265667D01*
X738980Y268206D01*
X741519D01*
X744058Y265667D01*
Y260588D01*
X741519Y258049D01*
X736441D01*
X733901Y260588D01*
X744058Y219949D02*
X733901D01*
X744058Y230106D01*
Y232645D01*
X741519Y235184D01*
X736441D01*
X733901Y232645D01*
X759293Y235184D02*
X749137D01*
Y227567D01*
X754215Y230106D01*
X756754D01*
X759293Y227567D01*
Y222488D01*
X756754Y219949D01*
X751676D01*
X749137Y222488D01*
X741519Y181849D02*
Y197084D01*
X733901Y189467D01*
X744058D01*
X759293Y181849D02*
X749137D01*
X759293Y192006D01*
Y194545D01*
X756754Y197084D01*
X751676D01*
X749137Y194545D01*
X764372D02*
X766911Y197084D01*
X771989D01*
X774528Y194545D01*
Y192006D01*
X771989Y189467D01*
X774528Y186928D01*
Y184388D01*
X771989Y181849D01*
X766911D01*
X764372Y184388D01*
Y186928D01*
X766911Y189467D01*
X764372Y192006D01*
Y194545D01*
X766911Y189467D02*
X771989D01*
X1058918Y86611D02*
X1069075D01*
X1058918Y91689D02*
X1069075D01*
X1089388Y81532D02*
Y96767D01*
X1097006D01*
X1099545Y94228D01*
Y89150D01*
X1097006Y86611D01*
X1089388D01*
X1094467D02*
X1099545Y81532D01*
X1107163D02*
X1112241D01*
X1114780Y84072D01*
Y89150D01*
X1112241Y91689D01*
X1107163D01*
X1104623Y89150D01*
Y84072D01*
X1107163Y81532D01*
X1119858Y91689D02*
Y84072D01*
X1122398Y81532D01*
X1130015D01*
Y91689D01*
X1137633Y94228D02*
Y91689D01*
X1135094D01*
X1140172D01*
X1137633D01*
Y84072D01*
X1140172Y81532D01*
X1155407D02*
X1150329D01*
X1147790Y84072D01*
Y89150D01*
X1150329Y91689D01*
X1155407D01*
X1157946Y89150D01*
Y86611D01*
X1147790D01*
X1173181Y96767D02*
Y81532D01*
X1165564D01*
X1163025Y84072D01*
Y89150D01*
X1165564Y91689D01*
X1173181D01*
X1193495Y81532D02*
Y96767D01*
X1201112D01*
X1203651Y94228D01*
Y89150D01*
X1201112Y86611D01*
X1193495D01*
X1211269Y91689D02*
X1216347D01*
X1218886Y89150D01*
Y81532D01*
X1211269D01*
X1208730Y84072D01*
X1211269Y86611D01*
X1218886D01*
X1226504Y94228D02*
Y91689D01*
X1223965D01*
X1229043D01*
X1226504D01*
Y84072D01*
X1229043Y81532D01*
X1236661Y96767D02*
Y81532D01*
Y89150D01*
X1239200Y91689D01*
X1244278D01*
X1246817Y89150D01*
Y81532D01*
X1267131Y96767D02*
Y81532D01*
X1277288D01*
X1289984D02*
X1284905D01*
X1282366Y84072D01*
Y89150D01*
X1284905Y91689D01*
X1289984D01*
X1292523Y89150D01*
Y86611D01*
X1282366D01*
X1297601Y81532D02*
Y91689D01*
X1305219D01*
X1307758Y89150D01*
Y81532D01*
X1317914Y76454D02*
X1320454D01*
X1322993Y78993D01*
Y91689D01*
X1315375D01*
X1312836Y89150D01*
Y84072D01*
X1315375Y81532D01*
X1322993D01*
X1330610Y94228D02*
Y91689D01*
X1328071D01*
X1333150D01*
X1330610D01*
Y84072D01*
X1333150Y81532D01*
X1340767Y96767D02*
Y81532D01*
Y89150D01*
X1343306Y91689D01*
X1348385D01*
X1350924Y89150D01*
Y81532D01*
X1371237Y89150D02*
X1381394D01*
X1376316Y94228D02*
Y84072D01*
X1401707Y96767D02*
X1411864D01*
X1406786D01*
Y81532D01*
X1419482D02*
X1424560D01*
X1427099Y84072D01*
Y89150D01*
X1424560Y91689D01*
X1419482D01*
X1416942Y89150D01*
Y84072D01*
X1419482Y81532D01*
X1434717D02*
X1439795D01*
X1442334Y84072D01*
Y89150D01*
X1439795Y91689D01*
X1434717D01*
X1432177Y89150D01*
Y84072D01*
X1434717Y81532D01*
X1447413D02*
X1452491D01*
X1449952D01*
Y96767D01*
X1447413D01*
X1485500Y94228D02*
X1482961Y96767D01*
X1477883D01*
X1475343Y94228D01*
Y91689D01*
X1477883Y89150D01*
X1482961D01*
X1485500Y86611D01*
Y84072D01*
X1482961Y81532D01*
X1477883D01*
X1475343Y84072D01*
X1490579Y81532D02*
X1495657D01*
X1493118D01*
Y91689D01*
X1490579D01*
X1503275D02*
X1513431D01*
X1503275Y81532D01*
X1513431D01*
X1526127D02*
X1521049D01*
X1518510Y84072D01*
Y89150D01*
X1521049Y91689D01*
X1526127D01*
X1528666Y89150D01*
Y86611D01*
X1518510D01*
X1548980D02*
X1559136D01*
X1548980Y91689D02*
X1559136D01*
X1589607Y94228D02*
X1587067Y96767D01*
X1581989D01*
X1579450Y94228D01*
Y91689D01*
X1581989Y89150D01*
X1587067D01*
X1589607Y86611D01*
Y84072D01*
X1587067Y81532D01*
X1581989D01*
X1579450Y84072D01*
X1594685Y81532D02*
X1599763D01*
X1597224D01*
Y96767D01*
X1594685D01*
X1609920Y81532D02*
X1614998D01*
X1617538Y84072D01*
Y89150D01*
X1614998Y91689D01*
X1609920D01*
X1607381Y89150D01*
Y84072D01*
X1609920Y81532D01*
X1625155Y94228D02*
Y91689D01*
X1622616D01*
X1627694D01*
X1625155D01*
Y84072D01*
X1627694Y81532D01*
X1650547D02*
X1655625D01*
X1653086D01*
Y96767D01*
X1650547D01*
X1670860Y81532D02*
X1665782D01*
X1663243Y84072D01*
Y89150D01*
X1665782Y91689D01*
X1670860D01*
X1673399Y89150D01*
Y86611D01*
X1663243D01*
X1678478Y81532D02*
Y91689D01*
X1686095D01*
X1688634Y89150D01*
Y81532D01*
X1698791Y76454D02*
X1701330D01*
X1703870Y78993D01*
Y91689D01*
X1696252D01*
X1693713Y89150D01*
Y84072D01*
X1696252Y81532D01*
X1703870D01*
X1711487Y94228D02*
Y91689D01*
X1708948D01*
X1714026D01*
X1711487D01*
Y84072D01*
X1714026Y81532D01*
X1721644Y96767D02*
Y81532D01*
Y89150D01*
X1724183Y91689D01*
X1729261D01*
X1731801Y89150D01*
Y81532D01*
X1754653Y91689D02*
X1759731D01*
X1762271Y89150D01*
Y81532D01*
X1754653D01*
X1752114Y84072D01*
X1754653Y86611D01*
X1762271D01*
X1767349Y81532D02*
X1774967D01*
X1777506Y84072D01*
X1774967Y86611D01*
X1769888D01*
X1767349Y89150D01*
X1769888Y91689D01*
X1777506D01*
X1807976Y96767D02*
Y81532D01*
X1800358D01*
X1797819Y84072D01*
Y89150D01*
X1800358Y91689D01*
X1807976D01*
X1820672Y81532D02*
X1815593D01*
X1813054Y84072D01*
Y89150D01*
X1815593Y91689D01*
X1820672D01*
X1823211Y89150D01*
Y86611D01*
X1813054D01*
X1830829Y81532D02*
Y94228D01*
Y89150D01*
X1828289D01*
X1833368D01*
X1830829D01*
Y94228D01*
X1833368Y96767D01*
X1840985Y81532D02*
X1846064D01*
X1843524D01*
Y91689D01*
X1840985D01*
X1853681Y81532D02*
Y91689D01*
X1861299D01*
X1863838Y89150D01*
Y81532D01*
X1876534D02*
X1871455D01*
X1868916Y84072D01*
Y89150D01*
X1871455Y91689D01*
X1876534D01*
X1879073Y89150D01*
Y86611D01*
X1868916D01*
X1894308Y96767D02*
Y81532D01*
X1886690D01*
X1884151Y84072D01*
Y89150D01*
X1886690Y91689D01*
X1894308D01*
X1914621Y81532D02*
X1919700D01*
X1917161D01*
Y91689D01*
X1914621D01*
X1927317Y81532D02*
Y91689D01*
X1934935D01*
X1937474Y89150D01*
Y81532D01*
X1960327Y94228D02*
Y91689D01*
X1957787D01*
X1962866D01*
X1960327D01*
Y84072D01*
X1962866Y81532D01*
X1970483Y96767D02*
Y81532D01*
Y89150D01*
X1973022Y91689D01*
X1978101D01*
X1980640Y89150D01*
Y81532D01*
X1993336D02*
X1988258D01*
X1985718Y84072D01*
Y89150D01*
X1988258Y91689D01*
X1993336D01*
X1995875Y89150D01*
Y86611D01*
X1985718D01*
X2016189Y81532D02*
Y96767D01*
X2023806D01*
X2026345Y94228D01*
Y89150D01*
X2023806Y86611D01*
X2016189D01*
X2041580Y94228D02*
X2039041Y96767D01*
X2033963D01*
X2031424Y94228D01*
Y84072D01*
X2033963Y81532D01*
X2039041D01*
X2041580Y84072D01*
X2046659Y96767D02*
Y81532D01*
X2054276D01*
X2056815Y84072D01*
Y86611D01*
X2054276Y89150D01*
X2046659D01*
X2054276D01*
X2056815Y91689D01*
Y94228D01*
X2054276Y96767D01*
X2046659D01*
X2077129Y81532D02*
X2082207D01*
X2079668D01*
Y96767D01*
X2077129D01*
X2092364Y91689D02*
X2097442D01*
X2099981Y89150D01*
Y81532D01*
X2092364D01*
X2089825Y84072D01*
X2092364Y86611D01*
X2099981D01*
X2105060Y91689D02*
Y84072D01*
X2107599Y81532D01*
X2115217D01*
Y78993D01*
X2112677Y76454D01*
X2110138D01*
X2115217Y81532D02*
Y91689D01*
X2122834Y81532D02*
X2127912D01*
X2130452Y84072D01*
Y89150D01*
X2127912Y91689D01*
X2122834D01*
X2120295Y89150D01*
Y84072D01*
X2122834Y81532D01*
X2135530Y91689D02*
Y84072D01*
X2138069Y81532D01*
X2145687D01*
Y91689D01*
X2153304Y94228D02*
Y91689D01*
X2150765D01*
X2155843D01*
X2153304D01*
Y84072D01*
X2155843Y81532D01*
X1147790Y112004D02*
X1157946D01*
X1147790Y117083D02*
X1157946D01*
X1188416Y119622D02*
X1185877Y122161D01*
X1180799D01*
X1178260Y119622D01*
Y109465D01*
X1180799Y106926D01*
X1185877D01*
X1188416Y109465D01*
X1196034Y117083D02*
X1201112D01*
X1203651Y114543D01*
Y106926D01*
X1196034D01*
X1193495Y109465D01*
X1196034Y112004D01*
X1203651D01*
X1208730Y106926D02*
X1213808D01*
X1211269D01*
Y122161D01*
X1208730D01*
X1231582Y117083D02*
X1223965D01*
X1221426Y114543D01*
Y109465D01*
X1223965Y106926D01*
X1231582D01*
X1236661Y117083D02*
Y109465D01*
X1239200Y106926D01*
X1246817D01*
Y117083D01*
X1251896Y106926D02*
X1256974D01*
X1254435D01*
Y122161D01*
X1251896D01*
X1267131Y117083D02*
X1272209D01*
X1274748Y114543D01*
Y106926D01*
X1267131D01*
X1264592Y109465D01*
X1267131Y112004D01*
X1274748D01*
X1282366Y119622D02*
Y117083D01*
X1279827D01*
X1284905D01*
X1282366D01*
Y109465D01*
X1284905Y106926D01*
X1300140D02*
X1295062D01*
X1292523Y109465D01*
Y114543D01*
X1295062Y117083D01*
X1300140D01*
X1302679Y114543D01*
Y112004D01*
X1292523D01*
X1317914Y122161D02*
Y106926D01*
X1310297D01*
X1307758Y109465D01*
Y114543D01*
X1310297Y117083D01*
X1317914D01*
X1340767Y106926D02*
Y119622D01*
Y114543D01*
X1338228D01*
X1343306D01*
X1340767D01*
Y119622D01*
X1343306Y122161D01*
X1350924Y117083D02*
Y106926D01*
Y112004D01*
X1353463Y114543D01*
X1356002Y117083D01*
X1358541D01*
X1368698Y106926D02*
X1373776D01*
X1376316Y109465D01*
Y114543D01*
X1373776Y117083D01*
X1368698D01*
X1366159Y114543D01*
Y109465D01*
X1368698Y106926D01*
X1381394D02*
Y117083D01*
X1383933D01*
X1386472Y114543D01*
Y106926D01*
Y114543D01*
X1389011Y117083D01*
X1391551Y114543D01*
Y106926D01*
X1414403Y119622D02*
Y117083D01*
X1411864D01*
X1416942D01*
X1414403D01*
Y109465D01*
X1416942Y106926D01*
X1427099D02*
X1432177D01*
X1434717Y109465D01*
Y114543D01*
X1432177Y117083D01*
X1427099D01*
X1424560Y114543D01*
Y109465D01*
X1427099Y106926D01*
X1442334D02*
X1447413D01*
X1449952Y109465D01*
Y114543D01*
X1447413Y117083D01*
X1442334D01*
X1439795Y114543D01*
Y109465D01*
X1442334Y106926D01*
X1455030D02*
X1460108D01*
X1457569D01*
Y122161D01*
X1455030D01*
X1482961Y106926D02*
X1490579D01*
X1493118Y109465D01*
X1490579Y112004D01*
X1485500D01*
X1482961Y114543D01*
X1485500Y117083D01*
X1493118D01*
X1500735Y119622D02*
Y117083D01*
X1498196D01*
X1503275D01*
X1500735D01*
Y109465D01*
X1503275Y106926D01*
X1513431Y117083D02*
X1518510D01*
X1521049Y114543D01*
Y106926D01*
X1513431D01*
X1510892Y109465D01*
X1513431Y112004D01*
X1521049D01*
X1526127Y117083D02*
Y106926D01*
Y112004D01*
X1528666Y114543D01*
X1531205Y117083D01*
X1533745D01*
X1543901Y119622D02*
Y117083D01*
X1541362D01*
X1546440D01*
X1543901D01*
Y109465D01*
X1546440Y106926D01*
X1579450Y117083D02*
X1571832D01*
X1569293Y114543D01*
Y109465D01*
X1571832Y106926D01*
X1579450D01*
X1592146D02*
X1587067D01*
X1584528Y109465D01*
Y114543D01*
X1587067Y117083D01*
X1592146D01*
X1594685Y114543D01*
Y112004D01*
X1584528D01*
X1599763Y106926D02*
Y117083D01*
X1607381D01*
X1609920Y114543D01*
Y106926D01*
X1617538Y119622D02*
Y117083D01*
X1614998D01*
X1620077D01*
X1617538D01*
Y109465D01*
X1620077Y106926D01*
X1627694Y117083D02*
Y106926D01*
Y112004D01*
X1630233Y114543D01*
X1632773Y117083D01*
X1635312D01*
X1650547Y106926D02*
X1645468D01*
X1642929Y109465D01*
Y114543D01*
X1645468Y117083D01*
X1650547D01*
X1653086Y114543D01*
Y112004D01*
X1642929D01*
X1673399Y101847D02*
Y117083D01*
X1681017D01*
X1683556Y114543D01*
Y109465D01*
X1681017Y106926D01*
X1673399D01*
X1691174D02*
X1696252D01*
X1698791Y109465D01*
Y114543D01*
X1696252Y117083D01*
X1691174D01*
X1688634Y114543D01*
Y109465D01*
X1691174Y106926D01*
X1703870D02*
X1711487D01*
X1714026Y109465D01*
X1711487Y112004D01*
X1706409D01*
X1703870Y114543D01*
X1706409Y117083D01*
X1714026D01*
X1719105Y106926D02*
X1724183D01*
X1721644D01*
Y117083D01*
X1719105D01*
X1734340Y119622D02*
Y117083D01*
X1731801D01*
X1736879D01*
X1734340D01*
Y109465D01*
X1736879Y106926D01*
X1744496D02*
X1749575D01*
X1747036D01*
Y117083D01*
X1744496D01*
X1759731Y106926D02*
X1764810D01*
X1767349Y109465D01*
Y114543D01*
X1764810Y117083D01*
X1759731D01*
X1757192Y114543D01*
Y109465D01*
X1759731Y106926D01*
X1772427D02*
Y117083D01*
X1780045D01*
X1782584Y114543D01*
Y106926D01*
X1805437Y119622D02*
Y117083D01*
X1802897D01*
X1807976D01*
X1805437D01*
Y109465D01*
X1807976Y106926D01*
X1818133D02*
X1823211D01*
X1825750Y109465D01*
Y114543D01*
X1823211Y117083D01*
X1818133D01*
X1815593Y114543D01*
Y109465D01*
X1818133Y106926D01*
X1848603Y119622D02*
Y117083D01*
X1846064D01*
X1851142D01*
X1848603D01*
Y109465D01*
X1851142Y106926D01*
X1861299D02*
X1866377D01*
X1868916Y109465D01*
Y114543D01*
X1866377Y117083D01*
X1861299D01*
X1858759Y114543D01*
Y109465D01*
X1861299Y106926D01*
X1876534D02*
X1881612D01*
X1884151Y109465D01*
Y114543D01*
X1881612Y117083D01*
X1876534D01*
X1873994Y114543D01*
Y109465D01*
X1876534Y106926D01*
X1889230D02*
X1894308D01*
X1891769D01*
Y122161D01*
X1889230D01*
X1924778Y106926D02*
X1919700D01*
X1917160Y109465D01*
Y114543D01*
X1919700Y117083D01*
X1924778D01*
X1927317Y114543D01*
Y112004D01*
X1917160D01*
X1932396Y106926D02*
Y117083D01*
X1940013D01*
X1942552Y114543D01*
Y106926D01*
X1957787Y122161D02*
Y106926D01*
X1950170D01*
X1947631Y109465D01*
Y114543D01*
X1950170Y117083D01*
X1957787D01*
X1988257D02*
X1980640D01*
X1978101Y114543D01*
Y109465D01*
X1980640Y106926D01*
X1988257D01*
X2000953D02*
X1995875D01*
X1993336Y109465D01*
Y114543D01*
X1995875Y117083D01*
X2000953D01*
X2003493Y114543D01*
Y112004D01*
X1993336D01*
X2008571Y106926D02*
Y117083D01*
X2016189D01*
X2018728Y114543D01*
Y106926D01*
X2026345Y119622D02*
Y117083D01*
X2023806D01*
X2028884D01*
X2026345D01*
Y109465D01*
X2028884Y106926D01*
X2036502Y117083D02*
Y106926D01*
Y112004D01*
X2039041Y114543D01*
X2041580Y117083D01*
X2044120D01*
X2059355Y106926D02*
X2054276D01*
X2051737Y109465D01*
Y114543D01*
X2054276Y117083D01*
X2059355D01*
X2061894Y114543D01*
Y112004D01*
X2051737D01*
X2082207Y101847D02*
Y117083D01*
X2089825D01*
X2092364Y114543D01*
Y109465D01*
X2089825Y106926D01*
X2082207D01*
X2099981D02*
X2105060D01*
X2107599Y109465D01*
Y114543D01*
X2105060Y117083D01*
X2099981D01*
X2097442Y114543D01*
Y109465D01*
X2099981Y106926D01*
X2112677D02*
X2120295D01*
X2122834Y109465D01*
X2120295Y112004D01*
X2115217D01*
X2112677Y114543D01*
X2115217Y117083D01*
X2122834D01*
X2127912Y106926D02*
X2132991D01*
X2130452D01*
Y117083D01*
X2127912D01*
X2143147Y119622D02*
Y117083D01*
X2140608D01*
X2145687D01*
X2143147D01*
Y109465D01*
X2145687Y106926D01*
X2153304D02*
X2158383D01*
X2155843D01*
Y117083D01*
X2153304D01*
X2168539Y106926D02*
X2173618D01*
X2176157Y109465D01*
Y114543D01*
X2173618Y117083D01*
X2168539D01*
X2166000Y114543D01*
Y109465D01*
X2168539Y106926D01*
X2181235D02*
Y117083D01*
X2188853D01*
X2191392Y114543D01*
Y106926D01*
X2196470D02*
Y109465D01*
X2199009D01*
Y106926D01*
X2196470D01*
X584962Y626867D02*
Y611632D01*
X592579D01*
X595119Y614171D01*
Y624328D01*
X592579Y626867D01*
X584962D01*
X600197Y621789D02*
Y611632D01*
Y616710D01*
X602736Y619249D01*
X605275Y621789D01*
X607815D01*
X615432Y611632D02*
X620510D01*
X617971D01*
Y621789D01*
X615432D01*
X628128Y611632D02*
X633206D01*
X630667D01*
Y626867D01*
X628128D01*
X640824Y611632D02*
X645902D01*
X643363D01*
Y626867D01*
X640824D01*
X668755D02*
X678912D01*
X673833D01*
Y611632D01*
X686529Y621789D02*
X691608D01*
X694147Y619249D01*
Y611632D01*
X686529D01*
X683990Y614171D01*
X686529Y616710D01*
X694147D01*
X699225Y626867D02*
Y611632D01*
X706843D01*
X709382Y614171D01*
Y616710D01*
Y619249D01*
X706843Y621789D01*
X699225D01*
X714460Y611632D02*
X719538D01*
X716999D01*
Y626867D01*
X714460D01*
X734773Y611632D02*
X729695D01*
X727156Y614171D01*
Y619249D01*
X729695Y621789D01*
X734773D01*
X737313Y619249D01*
Y616710D01*
X727156D01*
D18*
X407416Y191262D02*
G03*
X407416Y191262I-2540J0D01*
G01*
X398357D02*
G03*
X398357Y191262I-2540J0D01*
G01*
X389297D02*
G03*
X389297Y191262I-2540J0D01*
G01*
X380238D02*
G03*
X380238Y191262I-2540J0D01*
G01*
Y184404D02*
G03*
X380238Y184404I-2540J0D01*
G01*
X389297D02*
G03*
X389297Y184404I-2540J0D01*
G01*
X398357D02*
G03*
X398357Y184404I-2540J0D01*
G01*
X407416D02*
G03*
X407416Y184404I-2540J0D01*
G01*
X412750Y187452D02*
G03*
X412750Y187452I-2540J0D01*
G01*
Y178943D02*
G03*
X412750Y178943I-2540J0D01*
G01*
Y170434D02*
G03*
X412750Y170434I-2540J0D01*
G01*
X348488Y192278D02*
G03*
X348488Y192278I-2540J0D01*
G01*
X164883Y194056D02*
G03*
X164883Y194056I-2540J0D01*
G01*
X169201D02*
G03*
X169201Y194056I-2540J0D01*
G01*
X245110Y36830D02*
G03*
X245110Y36830I-2540J0D01*
G01*
Y54356D02*
G03*
X245110Y54356I-2540J0D01*
G01*
X265176Y4826D02*
G03*
X265176Y4826I-2540J0D01*
G01*
X285115Y4699D02*
G03*
X285115Y4699I-2540J0D01*
G01*
X305054Y5080D02*
G03*
X305054Y5080I-2540J0D01*
G01*
X296840Y6436D02*
G03*
X296840Y6436I-2540J0D01*
G01*
X326264Y29338D02*
G03*
X326264Y29338I-2540J0D01*
G01*
X265430Y43434D02*
G03*
X265430Y43434I-2540J0D01*
G01*
X296840Y55540D02*
G03*
X296840Y55540I-2540J0D01*
G01*
X277114Y49784D02*
G03*
X277114Y49784I-2540J0D01*
G01*
X327532Y37718D02*
G03*
X327532Y37718I-2540J0D01*
G01*
X283464Y58674D02*
G03*
X283464Y58674I-2540J0D01*
G01*
X291846Y3556D02*
G03*
X291846Y3556I-2540J0D01*
G01*
X314452Y18288D02*
G03*
X314452Y18288I-2540J0D01*
G01*
X212090Y166624D02*
G03*
X212090Y166624I-2540J0D01*
G01*
X330200Y342138D02*
G03*
X330200Y342138I-2540J0D01*
G01*
X348488Y176699D02*
G03*
X348488Y176699I-2540J0D01*
G01*
Y184489D02*
G03*
X348488Y184489I-2540J0D01*
G01*
X382612Y382359D02*
G03*
X382612Y382359I-2540J0D01*
G01*
X424434Y338582D02*
G03*
X424434Y338582I-2540J0D01*
G01*
X377190Y369062D02*
G03*
X377190Y369062I-2540J0D01*
G01*
X392176Y372110D02*
G03*
X392176Y372110I-2540J0D01*
G01*
X401574D02*
G03*
X401574Y372110I-2540J0D01*
G01*
X402590Y299720D02*
G03*
X402590Y299720I-2540J0D01*
G01*
X42926Y115824D02*
G03*
X42926Y115824I-2540J0D01*
G01*
X284480Y150114D02*
G03*
X284480Y150114I-2540J0D01*
G01*
X293624D02*
G03*
X293624Y150114I-2540J0D01*
G01*
X289052Y146558D02*
G03*
X289052Y146558I-2540J0D01*
G01*
X293624Y137668D02*
G03*
X293624Y137668I-2540J0D01*
G01*
Y143891D02*
G03*
X293624Y143891I-2540J0D01*
G01*
X266243Y120548D02*
G03*
X266243Y120548I-2540J0D01*
G01*
X318980Y46990D02*
G03*
X318980Y46990I-2540J0D01*
G01*
X319532Y55880D02*
G03*
X319532Y55880I-2540J0D01*
G01*
X41402Y191973D02*
G03*
X41402Y191973I-2540J0D01*
G01*
X243180Y412572D02*
G03*
X243180Y412572I-2540J0D01*
G01*
X254559D02*
G03*
X254559Y412572I-2540J0D01*
G01*
X243180Y406400D02*
G03*
X243180Y406400I-2540J0D01*
G01*
X254559D02*
G03*
X254559Y406400I-2540J0D01*
G01*
X251054Y391820D02*
G03*
X251054Y391820I-2540J0D01*
G01*
Y383286D02*
G03*
X251054Y383286I-2540J0D01*
G01*
X357549Y378631D02*
G03*
X357549Y378631I-2540J0D01*
G01*
X301548Y451308D02*
G03*
X301548Y451308I-2540J0D01*
G01*
X42672Y204216D02*
G03*
X42672Y204216I-2540J0D01*
G01*
X9144Y217678D02*
G03*
X9144Y217678I-2540J0D01*
G01*
X61468Y164338D02*
G03*
X61468Y164338I-2540J0D01*
G01*
X39878Y153416D02*
G03*
X39878Y153416I-2540J0D01*
G01*
X38862Y140208D02*
G03*
X38862Y140208I-2540J0D01*
G01*
X129286Y167640D02*
G03*
X129286Y167640I-2540J0D01*
G01*
X139192Y165354D02*
G03*
X139192Y165354I-2540J0D01*
G01*
X169672Y163830D02*
G03*
X169672Y163830I-2540J0D01*
G01*
X103124Y121920D02*
G03*
X103124Y121920I-2540J0D01*
G01*
X129152Y106038D02*
G03*
X129152Y106038I-2540J0D01*
G01*
X266192Y192024D02*
G03*
X266192Y192024I-2540J0D01*
G01*
X56388Y151384D02*
G03*
X56388Y151384I-2540J0D01*
G01*
X70358Y142494D02*
G03*
X70358Y142494I-2540J0D01*
G01*
X270590Y198040D02*
G03*
X270590Y198040I-2540J0D01*
G01*
X274828Y90170D02*
G03*
X274828Y90170I-2540J0D01*
G01*
X162052Y289560D02*
G03*
X162052Y289560I-2540J0D01*
G01*
X155194Y107442D02*
G03*
X155194Y107442I-2540J0D01*
G01*
X139700Y98806D02*
G03*
X139700Y98806I-2540J0D01*
G01*
X324358Y347218D02*
G03*
X324358Y347218I-2540J0D01*
G01*
X233484Y320860D02*
G03*
X233484Y320860I-2540J0D01*
G01*
X244542Y320996D02*
G03*
X244542Y320996I-2540J0D01*
G01*
X233680Y329692D02*
G03*
X233680Y329692I-2540J0D01*
G01*
X233426Y346456D02*
G03*
X233426Y346456I-2540J0D01*
G01*
X233680Y338074D02*
G03*
X233680Y338074I-2540J0D01*
G01*
X124206Y109728D02*
G03*
X124206Y109728I-2540J0D01*
G01*
X322274Y401626D02*
G03*
X322274Y401626I-2540J0D01*
G01*
X328774Y401984D02*
G03*
X328774Y401984I-2540J0D01*
G01*
X262636Y319024D02*
G03*
X262636Y319024I-2540J0D01*
G01*
X221488Y119126D02*
G03*
X221488Y119126I-2540J0D01*
G01*
X219582Y132462D02*
G03*
X219582Y132462I-2540J0D01*
G01*
X173228Y141224D02*
G03*
X173228Y141224I-2540J0D01*
G01*
X178816Y111506D02*
G03*
X178816Y111506I-2540J0D01*
G01*
X42164Y179324D02*
G03*
X42164Y179324I-2540J0D01*
G01*
X42926Y166624D02*
G03*
X42926Y166624I-2540J0D01*
G01*
X276352Y18542D02*
G03*
X276352Y18542I-2540J0D01*
G01*
X225044Y86360D02*
G03*
X225044Y86360I-2540J0D01*
G01*
X9398Y102870D02*
G03*
X9398Y102870I-2540J0D01*
G01*
X268986Y313182D02*
G03*
X268986Y313182I-2540J0D01*
G01*
X109728Y114046D02*
G03*
X109728Y114046I-2540J0D01*
G01*
X164338Y110872D02*
G03*
X164338Y110872I-2540J0D01*
G01*
X259842Y281432D02*
G03*
X259842Y281432I-2540J0D01*
G01*
X265430Y280924D02*
G03*
X265430Y280924I-2540J0D01*
G01*
X279654Y270002D02*
G03*
X279654Y270002I-2540J0D01*
G01*
X77470Y294386D02*
G03*
X77470Y294386I-2540J0D01*
G01*
X124968Y398526D02*
G03*
X124968Y398526I-2540J0D01*
G01*
X134112Y381762D02*
G03*
X134112Y381762I-2540J0D01*
G01*
X107950Y376936D02*
G03*
X107950Y376936I-2540J0D01*
G01*
X173990Y298704D02*
G03*
X173990Y298704I-2540J0D01*
G01*
X115062Y225298D02*
G03*
X115062Y225298I-2540J0D01*
G01*
X106680Y98044D02*
G03*
X106680Y98044I-2540J0D01*
G01*
X122762Y74248D02*
G03*
X122762Y74248I-2540J0D01*
G01*
X161418Y84202D02*
G03*
X161418Y84202I-2540J0D01*
G01*
X48260Y89408D02*
G03*
X48260Y89408I-2540J0D01*
G01*
X57658Y101600D02*
G03*
X57658Y101600I-2540J0D01*
G01*
X210820Y75438D02*
G03*
X210820Y75438I-2540J0D01*
G01*
X163068Y73152D02*
G03*
X163068Y73152I-2540J0D01*
G01*
X171958Y83820D02*
G03*
X171958Y83820I-2540J0D01*
G01*
X71374Y151892D02*
G03*
X71374Y151892I-2540J0D01*
G01*
X245110Y143764D02*
G03*
X245110Y143764I-2540J0D01*
G01*
X237236Y138176D02*
G03*
X237236Y138176I-2540J0D01*
G01*
X333502Y60198D02*
G03*
X333502Y60198I-2540J0D01*
G01*
X305816Y101346D02*
G03*
X305816Y101346I-2540J0D01*
G01*
Y94234D02*
G03*
X305816Y94234I-2540J0D01*
G01*
X297942Y101346D02*
G03*
X297942Y101346I-2540J0D01*
G01*
Y94234D02*
G03*
X297942Y94234I-2540J0D01*
G01*
X290068Y101346D02*
G03*
X290068Y101346I-2540J0D01*
G01*
Y94234D02*
G03*
X290068Y94234I-2540J0D01*
G01*
X282194Y101346D02*
G03*
X282194Y101346I-2540J0D01*
G01*
X251460Y201168D02*
G03*
X251460Y201168I-2540J0D01*
G01*
X226822Y213106D02*
G03*
X226822Y213106I-2540J0D01*
G01*
X57868Y124250D02*
G03*
X57868Y124250I-2540J0D01*
G01*
X341122Y216408D02*
G03*
X341122Y216408I-2540J0D01*
G01*
X164846Y169164D02*
G03*
X164846Y169164I-2540J0D01*
G01*
X133858Y160782D02*
G03*
X133858Y160782I-2540J0D01*
G01*
Y84074D02*
G03*
X133858Y84074I-2540J0D01*
G01*
X138938D02*
G03*
X138938Y84074I-2540J0D01*
G01*
X133858Y78994D02*
G03*
X133858Y78994I-2540J0D01*
G01*
X138938D02*
G03*
X138938Y78994I-2540J0D01*
G01*
X150876Y74168D02*
G03*
X150876Y74168I-2540J0D01*
G01*
X163576Y119888D02*
G03*
X163576Y119888I-2540J0D01*
G01*
X376174Y292100D02*
G03*
X376174Y292100I-2540J0D01*
G01*
X354076Y324104D02*
G03*
X354076Y324104I-2540J0D01*
G01*
X350520Y318008D02*
G03*
X350520Y318008I-2540J0D01*
G01*
X393700Y287528D02*
G03*
X393700Y287528I-2540J0D01*
G01*
Y282702D02*
G03*
X393700Y282702I-2540J0D01*
G01*
Y277876D02*
G03*
X393700Y277876I-2540J0D01*
G01*
X387731D02*
G03*
X387731Y277876I-2540J0D01*
G01*
X381762D02*
G03*
X381762Y277876I-2540J0D01*
G01*
Y282702D02*
G03*
X381762Y282702I-2540J0D01*
G01*
X372364Y297180D02*
G03*
X372364Y297180I-2540J0D01*
G01*
X387858Y282702D02*
G03*
X387858Y282702I-2540J0D01*
G01*
Y287528D02*
G03*
X387858Y287528I-2540J0D01*
G01*
X381762D02*
G03*
X381762Y287528I-2540J0D01*
G01*
X324104Y255270D02*
G03*
X324104Y255270I-2540J0D01*
G01*
X330073D02*
G03*
X330073Y255270I-2540J0D01*
G01*
X336042D02*
G03*
X336042Y255270I-2540J0D01*
G01*
X336677Y279908D02*
G03*
X336677Y279908I-2540J0D01*
G01*
X330708D02*
G03*
X330708Y279908I-2540J0D01*
G01*
X324739D02*
G03*
X324739Y279908I-2540J0D01*
G01*
X368681Y279654D02*
G03*
X368681Y279654I-2540J0D01*
G01*
X362712D02*
G03*
X362712Y279654I-2540J0D01*
G01*
X356743D02*
G03*
X356743Y279654I-2540J0D01*
G01*
X383159Y214630D02*
G03*
X383159Y214630I-2540J0D01*
G01*
X389128D02*
G03*
X389128Y214630I-2540J0D01*
G01*
X395097D02*
G03*
X395097Y214630I-2540J0D01*
G01*
X383159Y224113D02*
G03*
X383159Y224113I-2540J0D01*
G01*
X389128D02*
G03*
X389128Y224113I-2540J0D01*
G01*
X395097D02*
G03*
X395097Y224113I-2540J0D01*
G01*
X383159Y233595D02*
G03*
X383159Y233595I-2540J0D01*
G01*
X389128D02*
G03*
X389128Y233595I-2540J0D01*
G01*
X395097D02*
G03*
X395097Y233595I-2540J0D01*
G01*
X383159Y243078D02*
G03*
X383159Y243078I-2540J0D01*
G01*
X389128D02*
G03*
X389128Y243078I-2540J0D01*
G01*
X395097D02*
G03*
X395097Y243078I-2540J0D01*
G01*
X401574Y214376D02*
G03*
X401574Y214376I-2540J0D01*
G01*
Y220218D02*
G03*
X401574Y220218I-2540J0D01*
G01*
X70612Y322072D02*
G03*
X70612Y322072I-2540J0D01*
G01*
Y316484D02*
G03*
X70612Y316484I-2540J0D01*
G01*
Y310896D02*
G03*
X70612Y310896I-2540J0D01*
G01*
X45212Y306070D02*
G03*
X45212Y306070I-2540J0D01*
G01*
X39624D02*
G03*
X39624Y306070I-2540J0D01*
G01*
X34036D02*
G03*
X34036Y306070I-2540J0D01*
G01*
X27686D02*
G03*
X27686Y306070I-2540J0D01*
G01*
X22098D02*
G03*
X22098Y306070I-2540J0D01*
G01*
X16510D02*
G03*
X16510Y306070I-2540J0D01*
G01*
X27432Y313182D02*
G03*
X27432Y313182I-2540J0D01*
G01*
X21844D02*
G03*
X21844Y313182I-2540J0D01*
G01*
X16256D02*
G03*
X16256Y313182I-2540J0D01*
G01*
X10160D02*
G03*
X10160Y313182I-2540J0D01*
G01*
X235204Y107442D02*
G03*
X235204Y107442I-2540J0D01*
G01*
X76708Y229616D02*
G03*
X76708Y229616I-2540J0D01*
G01*
X77724Y219710D02*
G03*
X77724Y219710I-2540J0D01*
G01*
X115824Y231394D02*
G03*
X115824Y231394I-2540J0D01*
G01*
X131064Y352806D02*
G03*
X131064Y352806I-2540J0D01*
G01*
X139542Y351886D02*
G03*
X139542Y351886I-2540J0D01*
G01*
X258572Y351790D02*
G03*
X258572Y351790I-2540J0D01*
G01*
X226822Y126492D02*
G03*
X226822Y126492I-2540J0D01*
G01*
X335534Y374650D02*
G03*
X335534Y374650I-2540J0D01*
G01*
X124968Y298450D02*
G03*
X124968Y298450I-2540J0D01*
G01*
X248869Y412572D02*
G03*
X248869Y412572I-2540J0D01*
G01*
X251054Y400355D02*
G03*
X251054Y400355I-2540J0D01*
G01*
X248869Y406400D02*
G03*
X248869Y406400I-2540J0D01*
G01*
X257759Y400355D02*
G03*
X257759Y400355I-2540J0D01*
G01*
X278892Y462788D02*
G03*
X278892Y462788I-2540J0D01*
G01*
X261112Y480060D02*
G03*
X261112Y480060I-2540J0D01*
G01*
X253238D02*
G03*
X253238Y480060I-2540J0D01*
G01*
X294334Y439472D02*
G03*
X294334Y439472I-2540J0D01*
G01*
X82804Y384048D02*
G03*
X82804Y384048I-2540J0D01*
G01*
Y389636D02*
G03*
X82804Y389636I-2540J0D01*
G01*
Y395224D02*
G03*
X82804Y395224I-2540J0D01*
G01*
X90678Y384048D02*
G03*
X90678Y384048I-2540J0D01*
G01*
Y395224D02*
G03*
X90678Y395224I-2540J0D01*
G01*
X338836Y467106D02*
G03*
X338836Y467106I-2540J0D01*
G01*
X346202D02*
G03*
X346202Y467106I-2540J0D01*
G01*
X353568D02*
G03*
X353568Y467106I-2540J0D01*
G01*
X342392Y462026D02*
G03*
X342392Y462026I-2540J0D01*
G01*
X350774D02*
G03*
X350774Y462026I-2540J0D01*
G01*
X420116Y435356D02*
G03*
X420116Y435356I-2540J0D01*
G01*
Y428942D02*
G03*
X420116Y428942I-2540J0D01*
G01*
Y422529D02*
G03*
X420116Y422529I-2540J0D01*
G01*
Y416115D02*
G03*
X420116Y416115I-2540J0D01*
G01*
Y409702D02*
G03*
X420116Y409702I-2540J0D01*
G01*
X318516Y434594D02*
G03*
X318516Y434594I-2540J0D01*
G01*
X324206D02*
G03*
X324206Y434594I-2540J0D01*
G01*
X312826D02*
G03*
X312826Y434594I-2540J0D01*
G01*
X318516Y427990D02*
G03*
X318516Y427990I-2540J0D01*
G01*
X324206D02*
G03*
X324206Y427990I-2540J0D01*
G01*
X312826D02*
G03*
X312826Y427990I-2540J0D01*
G01*
X225044Y481118D02*
G03*
X225044Y481118I-2540J0D01*
G01*
Y487273D02*
G03*
X225044Y487273I-2540J0D01*
G01*
Y474963D02*
G03*
X225044Y474963I-2540J0D01*
G01*
Y462653D02*
G03*
X225044Y462653I-2540J0D01*
G01*
Y468808D02*
G03*
X225044Y468808I-2540J0D01*
G01*
Y450342D02*
G03*
X225044Y450342I-2540J0D01*
G01*
Y456497D02*
G03*
X225044Y456497I-2540J0D01*
G01*
X184099Y443992D02*
G03*
X184099Y443992I-2540J0D01*
G01*
X172575D02*
G03*
X172575Y443992I-2540J0D01*
G01*
X178337D02*
G03*
X178337Y443992I-2540J0D01*
G01*
X161050D02*
G03*
X161050Y443992I-2540J0D01*
G01*
X166813D02*
G03*
X166813Y443992I-2540J0D01*
G01*
X155288D02*
G03*
X155288Y443992I-2540J0D01*
G01*
X143764D02*
G03*
X143764Y443992I-2540J0D01*
G01*
X149526D02*
G03*
X149526Y443992I-2540J0D01*
G01*
X219057D02*
G03*
X219057Y443992I-2540J0D01*
G01*
X207533D02*
G03*
X207533Y443992I-2540J0D01*
G01*
X213295D02*
G03*
X213295Y443992I-2540J0D01*
G01*
X201770D02*
G03*
X201770Y443992I-2540J0D01*
G01*
X190246D02*
G03*
X190246Y443992I-2540J0D01*
G01*
X196008D02*
G03*
X196008Y443992I-2540J0D01*
G01*
X224819D02*
G03*
X224819Y443992I-2540J0D01*
G01*
X99314Y455126D02*
G03*
X99314Y455126I-2540J0D01*
G01*
Y448970D02*
G03*
X99314Y448970I-2540J0D01*
G01*
Y467436D02*
G03*
X99314Y467436I-2540J0D01*
G01*
Y461281D02*
G03*
X99314Y461281I-2540J0D01*
G01*
Y473591D02*
G03*
X99314Y473591I-2540J0D01*
G01*
Y485902D02*
G03*
X99314Y485902I-2540J0D01*
G01*
Y479747D02*
G03*
X99314Y479747I-2540J0D01*
G01*
X117780Y443738D02*
G03*
X117780Y443738I-2540J0D01*
G01*
X123935D02*
G03*
X123935Y443738I-2540J0D01*
G01*
X111624D02*
G03*
X111624Y443738I-2540J0D01*
G01*
X99314D02*
G03*
X99314Y443738I-2540J0D01*
G01*
X105469D02*
G03*
X105469Y443738I-2540J0D01*
G01*
X160368Y429260D02*
G03*
X160368Y429260I-2540J0D01*
G01*
X155368Y439260D02*
G03*
X155368Y439260I-2540J0D01*
G01*
X150368Y429260D02*
G03*
X150368Y429260I-2540J0D01*
G01*
X155368Y419260D02*
G03*
X155368Y419260I-2540J0D01*
G01*
X145368Y439260D02*
G03*
X145368Y439260I-2540J0D01*
G01*
X140368Y429260D02*
G03*
X140368Y429260I-2540J0D01*
G01*
X145368Y419260D02*
G03*
X145368Y419260I-2540J0D01*
G01*
X187038Y428752D02*
G03*
X187038Y428752I-2540J0D01*
G01*
X182038Y438752D02*
G03*
X182038Y438752I-2540J0D01*
G01*
X177038Y428752D02*
G03*
X177038Y428752I-2540J0D01*
G01*
X172038Y438752D02*
G03*
X172038Y438752I-2540J0D01*
G01*
X167038Y428752D02*
G03*
X167038Y428752I-2540J0D01*
G01*
X172038Y418752D02*
G03*
X172038Y418752I-2540J0D01*
G01*
X212946Y428498D02*
G03*
X212946Y428498I-2540J0D01*
G01*
X207946Y438498D02*
G03*
X207946Y438498I-2540J0D01*
G01*
X202946Y428498D02*
G03*
X202946Y428498I-2540J0D01*
G01*
X197946Y438498D02*
G03*
X197946Y438498I-2540J0D01*
G01*
X192946Y428498D02*
G03*
X192946Y428498I-2540J0D01*
G01*
X197946Y418498D02*
G03*
X197946Y418498I-2540J0D01*
G01*
X93820Y476250D02*
G03*
X93820Y476250I-2540J0D01*
G01*
X88820Y486250D02*
G03*
X88820Y486250I-2540J0D01*
G01*
X83820Y476250D02*
G03*
X83820Y476250I-2540J0D01*
G01*
X88820Y466250D02*
G03*
X88820Y466250I-2540J0D01*
G01*
X78820Y486250D02*
G03*
X78820Y486250I-2540J0D01*
G01*
X73820Y476250D02*
G03*
X73820Y476250I-2540J0D01*
G01*
X78820Y466250D02*
G03*
X78820Y466250I-2540J0D01*
G01*
X84328Y451612D02*
G03*
X84328Y451612I-2540J0D01*
G01*
X94328Y456612D02*
G03*
X94328Y456612I-2540J0D01*
G01*
Y446612D02*
G03*
X94328Y446612I-2540J0D01*
G01*
X107188Y426720D02*
G03*
X107188Y426720I-2540J0D01*
G01*
Y421640D02*
G03*
X107188Y421640I-2540J0D01*
G01*
Y416560D02*
G03*
X107188Y416560I-2540J0D01*
G01*
Y411480D02*
G03*
X107188Y411480I-2540J0D01*
G01*
Y406400D02*
G03*
X107188Y406400I-2540J0D01*
G01*
Y401320D02*
G03*
X107188Y401320I-2540J0D01*
G01*
X112522Y426720D02*
G03*
X112522Y426720I-2540J0D01*
G01*
X118110D02*
G03*
X118110Y426720I-2540J0D01*
G01*
X123952D02*
G03*
X123952Y426720I-2540J0D01*
G01*
X130048Y427482D02*
G03*
X130048Y427482I-2540J0D01*
G01*
X135636Y430022D02*
G03*
X135636Y430022I-2540J0D01*
G01*
X140462Y434340D02*
G03*
X140462Y434340I-2540J0D01*
G01*
X91440Y427228D02*
G03*
X91440Y427228I-2540J0D01*
G01*
Y421386D02*
G03*
X91440Y421386I-2540J0D01*
G01*
Y414528D02*
G03*
X91440Y414528I-2540J0D01*
G01*
X20066Y275590D02*
G03*
X20066Y275590I-2540J0D01*
G01*
X25400D02*
G03*
X25400Y275590I-2540J0D01*
G01*
X30734D02*
G03*
X30734Y275590I-2540J0D01*
G01*
X17526Y293370D02*
G03*
X17526Y293370I-2540J0D01*
G01*
X12192D02*
G03*
X12192Y293370I-2540J0D01*
G01*
X6858D02*
G03*
X6858Y293370I-2540J0D01*
G01*
X33782Y293116D02*
G03*
X33782Y293116I-2540J0D01*
G01*
X28448D02*
G03*
X28448Y293116I-2540J0D01*
G01*
X23114D02*
G03*
X23114Y293116I-2540J0D01*
G01*
X49276D02*
G03*
X49276Y293116I-2540J0D01*
G01*
X43942D02*
G03*
X43942Y293116I-2540J0D01*
G01*
X38608D02*
G03*
X38608Y293116I-2540J0D01*
G01*
X30734Y285242D02*
G03*
X30734Y285242I-2540J0D01*
G01*
X25400D02*
G03*
X25400Y285242I-2540J0D01*
G01*
X20066D02*
G03*
X20066Y285242I-2540J0D01*
G01*
X390652Y155702D02*
G03*
X390652Y155702I-2540J0D01*
G01*
X385318D02*
G03*
X385318Y155702I-2540J0D01*
G01*
X379984D02*
G03*
X379984Y155702I-2540J0D01*
G01*
X390652Y148336D02*
G03*
X390652Y148336I-2540J0D01*
G01*
X385318D02*
G03*
X385318Y148336I-2540J0D01*
G01*
X379984D02*
G03*
X379984Y148336I-2540J0D01*
G01*
X341376Y161798D02*
G03*
X341376Y161798I-2540J0D01*
G01*
X336042D02*
G03*
X336042Y161798I-2540J0D01*
G01*
X346710Y156210D02*
G03*
X346710Y156210I-2540J0D01*
G01*
X341376D02*
G03*
X341376Y156210I-2540J0D01*
G01*
X336042D02*
G03*
X336042Y156210I-2540J0D01*
G01*
X341376Y150622D02*
G03*
X341376Y150622I-2540J0D01*
G01*
Y145288D02*
G03*
X341376Y145288I-2540J0D01*
G01*
X84328Y441612D02*
G03*
X84328Y441612I-2540J0D01*
G01*
X74328Y446612D02*
G03*
X74328Y446612I-2540J0D01*
G01*
X84328Y461612D02*
G03*
X84328Y461612I-2540J0D01*
G01*
X74328Y456612D02*
G03*
X74328Y456612I-2540J0D01*
G01*
X384048Y40132D02*
G03*
X384048Y40132I-2540J0D01*
G01*
X376682D02*
G03*
X376682Y40132I-2540J0D01*
G01*
X369316D02*
G03*
X369316Y40132I-2540J0D01*
G01*
X7460Y226060D02*
G03*
X7460Y226060I-2540J0D01*
G01*
Y261620D02*
G03*
X7460Y261620I-2540J0D01*
G01*
Y368300D02*
G03*
X7460Y368300I-2540J0D01*
G01*
X16350Y386080D02*
G03*
X16350Y386080I-2540J0D01*
G01*
X7460Y403860D02*
G03*
X7460Y403860I-2540J0D01*
G01*
X16350Y421640D02*
G03*
X16350Y421640I-2540J0D01*
G01*
X7460Y439420D02*
G03*
X7460Y439420I-2540J0D01*
G01*
Y474980D02*
G03*
X7460Y474980I-2540J0D01*
G01*
X25240Y368300D02*
G03*
X25240Y368300I-2540J0D01*
G01*
X34130Y386080D02*
G03*
X34130Y386080I-2540J0D01*
G01*
X25240Y403860D02*
G03*
X25240Y403860I-2540J0D01*
G01*
X34130Y421640D02*
G03*
X34130Y421640I-2540J0D01*
G01*
X25240Y439420D02*
G03*
X25240Y439420I-2540J0D01*
G01*
X34130Y457200D02*
G03*
X34130Y457200I-2540J0D01*
G01*
X25240Y474980D02*
G03*
X25240Y474980I-2540J0D01*
G01*
X43020Y368300D02*
G03*
X43020Y368300I-2540J0D01*
G01*
X51910Y386080D02*
G03*
X51910Y386080I-2540J0D01*
G01*
X43020Y403860D02*
G03*
X43020Y403860I-2540J0D01*
G01*
X51910Y421640D02*
G03*
X51910Y421640I-2540J0D01*
G01*
X43020Y439420D02*
G03*
X43020Y439420I-2540J0D01*
G01*
X51910Y457200D02*
G03*
X51910Y457200I-2540J0D01*
G01*
X43020Y474980D02*
G03*
X43020Y474980I-2540J0D01*
G01*
X69690Y208280D02*
G03*
X69690Y208280I-2540J0D01*
G01*
X60800Y368300D02*
G03*
X60800Y368300I-2540J0D01*
G01*
Y403860D02*
G03*
X60800Y403860I-2540J0D01*
G01*
X69690Y421640D02*
G03*
X69690Y421640I-2540J0D01*
G01*
X60800Y439420D02*
G03*
X60800Y439420I-2540J0D01*
G01*
X69690Y457200D02*
G03*
X69690Y457200I-2540J0D01*
G01*
X60800Y474980D02*
G03*
X60800Y474980I-2540J0D01*
G01*
X78580Y403860D02*
G03*
X78580Y403860I-2540J0D01*
G01*
Y439420D02*
G03*
X78580Y439420I-2540J0D01*
G01*
X87470Y457200D02*
G03*
X87470Y457200I-2540J0D01*
G01*
X78580Y474980D02*
G03*
X78580Y474980I-2540J0D01*
G01*
X123030Y421640D02*
G03*
X123030Y421640I-2540J0D01*
G01*
X131920Y403860D02*
G03*
X131920Y403860I-2540J0D01*
G01*
X140810Y421640D02*
G03*
X140810Y421640I-2540J0D01*
G01*
X149700Y439420D02*
G03*
X149700Y439420I-2540J0D01*
G01*
X176370Y243840D02*
G03*
X176370Y243840I-2540J0D01*
G01*
Y279400D02*
G03*
X176370Y279400I-2540J0D01*
G01*
X167480Y297180D02*
G03*
X167480Y297180I-2540J0D01*
G01*
X176370Y421640D02*
G03*
X176370Y421640I-2540J0D01*
G01*
X167480Y439420D02*
G03*
X167480Y439420I-2540J0D01*
G01*
X194150Y421640D02*
G03*
X194150Y421640I-2540J0D01*
G01*
X211930Y243840D02*
G03*
X211930Y243840I-2540J0D01*
G01*
X203040Y261620D02*
G03*
X203040Y261620I-2540J0D01*
G01*
X211930Y279400D02*
G03*
X211930Y279400I-2540J0D01*
G01*
X203040Y297180D02*
G03*
X203040Y297180I-2540J0D01*
G01*
X211930Y386080D02*
G03*
X211930Y386080I-2540J0D01*
G01*
Y421640D02*
G03*
X211930Y421640I-2540J0D01*
G01*
X220820Y403860D02*
G03*
X220820Y403860I-2540J0D01*
G01*
X229710Y421640D02*
G03*
X229710Y421640I-2540J0D01*
G01*
X220820Y439420D02*
G03*
X220820Y439420I-2540J0D01*
G01*
X247490Y208280D02*
G03*
X247490Y208280I-2540J0D01*
G01*
X238600Y261620D02*
G03*
X238600Y261620I-2540J0D01*
G01*
X247490Y457200D02*
G03*
X247490Y457200I-2540J0D01*
G01*
X238600Y474980D02*
G03*
X238600Y474980I-2540J0D01*
G01*
X274160Y261620D02*
G03*
X274160Y261620I-2540J0D01*
G01*
X283050Y457200D02*
G03*
X283050Y457200I-2540J0D01*
G01*
X291940Y261620D02*
G03*
X291940Y261620I-2540J0D01*
G01*
X300830Y457200D02*
G03*
X300830Y457200I-2540J0D01*
G01*
X291940Y474980D02*
G03*
X291940Y474980I-2540J0D01*
G01*
X309720Y297180D02*
G03*
X309720Y297180I-2540J0D01*
G01*
Y474980D02*
G03*
X309720Y474980I-2540J0D01*
G01*
X327500Y119380D02*
G03*
X327500Y119380I-2540J0D01*
G01*
X336390Y137160D02*
G03*
X336390Y137160I-2540J0D01*
G01*
X327500Y154940D02*
G03*
X327500Y154940I-2540J0D01*
G01*
X336390Y421640D02*
G03*
X336390Y421640I-2540J0D01*
G01*
X345280Y119380D02*
G03*
X345280Y119380I-2540J0D01*
G01*
Y403860D02*
G03*
X345280Y403860I-2540J0D01*
G01*
X389730Y386080D02*
G03*
X389730Y386080I-2540J0D01*
G01*
X407510Y279400D02*
G03*
X407510Y279400I-2540J0D01*
G01*
Y314960D02*
G03*
X407510Y314960I-2540J0D01*
G01*
Y421640D02*
G03*
X407510Y421640I-2540J0D01*
G01*
Y457200D02*
G03*
X407510Y457200I-2540J0D01*
G01*
X425290Y172720D02*
G03*
X425290Y172720I-2540J0D01*
G01*
Y208280D02*
G03*
X425290Y208280I-2540J0D01*
G01*
Y279400D02*
G03*
X425290Y279400I-2540J0D01*
G01*
X416400Y297180D02*
G03*
X416400Y297180I-2540J0D01*
G01*
X425290Y314960D02*
G03*
X425290Y314960I-2540J0D01*
G01*
Y350520D02*
G03*
X425290Y350520I-2540J0D01*
G01*
Y386080D02*
G03*
X425290Y386080I-2540J0D01*
G01*
Y421640D02*
G03*
X425290Y421640I-2540J0D01*
G01*
X416400Y439420D02*
G03*
X416400Y439420I-2540J0D01*
G01*
X138684Y132080D02*
G03*
X138684Y132080I-2540J0D01*
G01*
X133604D02*
G03*
X133604Y132080I-2540J0D01*
G01*
X138684Y137160D02*
G03*
X138684Y137160I-2540J0D01*
G01*
X133604D02*
G03*
X133604Y137160I-2540J0D01*
G01*
X83820Y132080D02*
G03*
X83820Y132080I-2540J0D01*
G01*
X90678D02*
G03*
X90678Y132080I-2540J0D01*
G01*
X90424Y158496D02*
G03*
X90424Y158496I-2540J0D01*
G01*
X83566D02*
G03*
X83566Y158496I-2540J0D01*
G01*
X15748Y458978D02*
G03*
X15748Y458978I-1524J0D01*
G01*
X16764D02*
G03*
X16764Y458978I-2540J0D01*
G01*
X324612Y130302D02*
G03*
X324612Y130302I-1524J0D01*
G01*
X325628D02*
G03*
X325628Y130302I-2540J0D01*
G01*
X287782Y27178D02*
X290322Y24638D01*
X292862Y27178D01*
X290322Y29718D02*
X292862Y27178D01*
X287782D02*
X290322Y29718D01*
X289179Y32766D02*
X291719Y30226D01*
X294259Y32766D01*
X291719Y35306D02*
X294259Y32766D01*
X289179D02*
X291719Y35306D01*
X289306Y38862D02*
X291846Y36322D01*
X294386Y38862D01*
X291846Y41402D02*
X294386Y38862D01*
X289306D02*
X291846Y41402D01*
X282194Y27178D02*
X284734Y24638D01*
X287274Y27178D01*
X284734Y29718D02*
X287274Y27178D01*
X282194D02*
X284734Y29718D01*
X293370Y27178D02*
X295910Y24638D01*
X298450Y27178D01*
X295910Y29718D02*
X298450Y27178D01*
X293370D02*
X295910Y29718D01*
X4572Y88900D02*
X7620D01*
Y91948D01*
X4572D02*
X7620D01*
X4572Y88900D02*
Y91948D01*
X3556Y87884D02*
X8636D01*
Y92964D01*
X3556D02*
X8636D01*
X3556Y87884D02*
Y92964D01*
X172974Y387670D02*
X175514Y392750D01*
X170434D02*
X175514D01*
X170434D02*
X172974Y387670D01*
X194818D02*
X197358Y392750D01*
X192278D02*
X197358D01*
X192278D02*
X194818Y387670D01*
X226314Y408498D02*
X228854Y413578D01*
X223774D02*
X228854D01*
X223774D02*
X226314Y408498D01*
X217678Y387416D02*
X220218Y392496D01*
X215138D02*
X220218D01*
X215138D02*
X217678Y387416D01*
X349972Y14220D02*
X351242D01*
X349972D02*
Y16760D01*
X351242D01*
Y18030D01*
X353782D01*
Y16760D02*
Y18030D01*
Y16760D02*
X355052D01*
Y14220D02*
Y16760D01*
X353782Y14220D02*
X355052D01*
X353782Y12950D02*
Y14220D01*
X351242Y12950D02*
X353782D01*
X351242D02*
Y14220D01*
X394972D02*
X396242D01*
X394972D02*
Y16760D01*
X396242D01*
Y18030D01*
X398782D01*
Y16760D02*
Y18030D01*
Y16760D02*
X400052D01*
Y14220D02*
Y16760D01*
X398782Y14220D02*
X400052D01*
X398782Y12950D02*
Y14220D01*
X396242Y12950D02*
X398782D01*
X396242D02*
Y14220D01*
X337422Y37850D02*
Y39120D01*
X338692Y40390D01*
X337422Y41660D02*
X338692Y40390D01*
X337422Y41660D02*
Y42930D01*
X338692D01*
X339962Y41660D01*
X341232Y42930D01*
X342502D01*
Y41660D02*
Y42930D01*
X341232Y40390D02*
X342502Y41660D01*
X341232Y40390D02*
X342502Y39120D01*
Y37850D02*
Y39120D01*
X341232Y37850D02*
X342502D01*
X339962Y39120D02*
X341232Y37850D01*
X338692D02*
X339962Y39120D01*
X337422Y37850D02*
X338692D01*
X407522D02*
Y39120D01*
X408792Y40390D01*
X407522Y41660D02*
X408792Y40390D01*
X407522Y41660D02*
Y42930D01*
X408792D01*
X410062Y41660D01*
X411332Y42930D01*
X412602D01*
Y41660D02*
Y42930D01*
X411332Y40390D02*
X412602Y41660D01*
X411332Y40390D02*
X412602Y39120D01*
Y37850D02*
Y39120D01*
X411332Y37850D02*
X412602D01*
X410062Y39120D02*
X411332Y37850D01*
X408792D02*
X410062Y39120D01*
X407522Y37850D02*
X408792D01*
X11684Y371160D02*
X14224Y376240D01*
X9144D02*
X14224D01*
X9144D02*
X11684Y371160D01*
X304298Y262636D02*
X306838Y267716D01*
X301758D02*
X306838D01*
X301758D02*
X304298Y262636D01*
X136652Y408498D02*
X139192Y413578D01*
X134112D02*
X139192D01*
X134112D02*
X136652Y408498D01*
X159067D02*
X161607Y413578D01*
X156528D02*
X161607D01*
X156528D02*
X159067Y408498D01*
X181483D02*
X184023Y413578D01*
X178943D02*
X184023D01*
X178943D02*
X181483Y408498D01*
X203899D02*
X206439Y413578D01*
X201359D02*
X206439D01*
X201359D02*
X203899Y408498D01*
X151130Y387670D02*
X153670Y392750D01*
X148590D02*
X153670D01*
X148590D02*
X151130Y387670D01*
X304298Y283174D02*
X306838Y288254D01*
X301758D02*
X306838D01*
X301758D02*
X304298Y283174D01*
X328168Y143510D02*
X330708Y148590D01*
X325628D02*
X330708D01*
X325628D02*
X328168Y143510D01*
X304298Y242751D02*
X306838Y247831D01*
X301758D02*
X306838D01*
X301758D02*
X304298Y242751D01*
Y222540D02*
X306838Y227620D01*
X301758D02*
X306838D01*
X301758D02*
X304298Y222540D01*
Y202329D02*
X306838Y207409D01*
X301758D02*
X306838D01*
X301758D02*
X304298Y202329D01*
Y182118D02*
X306838Y187198D01*
X301758D02*
X306838D01*
X301758D02*
X304298Y182118D01*
X365506Y253492D02*
X368046Y258572D01*
X362966D02*
X368046D01*
X362966D02*
X365506Y253492D01*
X357200Y148062D02*
X358470Y146792D01*
X355930Y148062D02*
X357200D01*
X355930D02*
X357200Y149332D01*
X355930Y150602D02*
X357200Y149332D01*
X355930Y150602D02*
X357200D01*
X358470Y151872D01*
X359740Y150602D01*
X361010D01*
X359740Y149332D02*
X361010Y150602D01*
X359740Y149332D02*
X361010Y148062D01*
X359740D02*
X361010D01*
X358470Y146792D02*
X359740Y148062D01*
X357200Y234462D02*
X358470Y233192D01*
X355930Y234462D02*
X357200D01*
X355930D02*
X357200Y235732D01*
X355930Y237002D02*
X357200Y235732D01*
X355930Y237002D02*
X357200D01*
X358470Y238272D01*
X359740Y237002D01*
X361010D01*
X359740Y235732D02*
X361010Y237002D01*
X359740Y235732D02*
X361010Y234462D01*
X359740D02*
X361010D01*
X358470Y233192D02*
X359740Y234462D01*
X409530Y146792D02*
X412070Y148062D01*
X414610Y146792D01*
X413340Y149332D02*
X414610Y146792D01*
X413340Y149332D02*
X414610Y151872D01*
X412070Y150602D02*
X414610Y151872D01*
X409530D02*
X412070Y150602D01*
X409530Y151872D02*
X410800Y149332D01*
X409530Y146792D02*
X410800Y149332D01*
X409530Y233192D02*
X412070Y234462D01*
X414610Y233192D01*
X413340Y235732D02*
X414610Y233192D01*
X413340Y235732D02*
X414610Y238272D01*
X412070Y237002D02*
X414610Y238272D01*
X409530D02*
X412070Y237002D01*
X409530Y238272D02*
X410800Y235732D01*
X409530Y233192D02*
X410800Y235732D01*
X327660Y242316D02*
X330200Y247396D01*
X325120D02*
X330200D01*
X325120D02*
X327660Y242316D01*
X304298Y303385D02*
X306838Y308465D01*
X301758D02*
X306838D01*
X301758D02*
X304298Y303385D01*
X308610Y323342D02*
X311150Y328422D01*
X306070D02*
X311150D01*
X306070D02*
X308610Y323342D01*
X346202Y476250D02*
X348742Y481330D01*
X343662D02*
X348742D01*
X343662D02*
X346202Y476250D01*
X414782Y447802D02*
X419862D01*
Y452882D01*
X414782D02*
X419862D01*
X414782Y447802D02*
Y452882D01*
Y473202D02*
X419862D01*
Y478282D01*
X414782D02*
X419862D01*
X414782Y473202D02*
Y478282D01*
X329184Y99060D02*
X331724Y104140D01*
X326644D02*
X331724D01*
X326644D02*
X329184Y99060D01*
X417068Y371856D02*
X419608Y376936D01*
X414528D02*
X419608D01*
X414528D02*
X417068Y371856D01*
Y395732D02*
X419608Y400812D01*
X414528D02*
X419608D01*
X414528D02*
X417068Y395732D01*
D127*
X582549Y551419D02*
X2198059D01*
X582549Y170419D02*
X2198059D01*
X582549Y132319D02*
X2198059D01*
Y589519D01*
X582549D02*
X2198059D01*
X582549Y132319D02*
Y589519D01*
X1997196Y132319D02*
Y589519D01*
X1847375Y132319D02*
Y589519D01*
X1466489Y132319D02*
Y589519D01*
X1280103Y132319D02*
Y589519D01*
X1151611Y132319D02*
Y589519D01*
X872292Y132319D02*
Y589519D01*
X722471Y132319D02*
Y589519D01*
D174*
X2008626Y562849D02*
Y581131D01*
X2017767D01*
X2020814Y578084D01*
Y571990D01*
X2017767Y568943D01*
X2008626D01*
X2029955Y575037D02*
X2036049D01*
X2039096Y571990D01*
Y562849D01*
X2029955D01*
X2026908Y565896D01*
X2029955Y568943D01*
X2039096D01*
X2057378Y581131D02*
Y562849D01*
X2048237D01*
X2045190Y565896D01*
Y571990D01*
X2048237Y575037D01*
X2057378D01*
X2093943Y578084D02*
X2090896Y581131D01*
X2084801D01*
X2081754Y578084D01*
Y575037D01*
X2084801Y571990D01*
X2090896D01*
X2093943Y568943D01*
Y565896D01*
X2090896Y562849D01*
X2084801D01*
X2081754Y565896D01*
X2100037Y581131D02*
Y562849D01*
Y571990D01*
X2103084Y575037D01*
X2109178D01*
X2112225Y571990D01*
Y562849D01*
X2121366Y575037D02*
X2127460D01*
X2130507Y571990D01*
Y562849D01*
X2121366D01*
X2118319Y565896D01*
X2121366Y568943D01*
X2130507D01*
X2136601Y556755D02*
Y575037D01*
X2145742D01*
X2148789Y571990D01*
Y565896D01*
X2145742Y562849D01*
X2136601D01*
X2164024D02*
X2157930D01*
X2154883Y565896D01*
Y571990D01*
X2157930Y575037D01*
X2164024D01*
X2167071Y571990D01*
Y568943D01*
X2154883D01*
X1858805Y581131D02*
Y568943D01*
X1864899Y562849D01*
X1870993Y568943D01*
Y581131D01*
X1877087Y562849D02*
X1883181D01*
X1880134D01*
Y575037D01*
X1877087D01*
X1895369D02*
X1901463D01*
X1904510Y571990D01*
Y562849D01*
X1895369D01*
X1892322Y565896D01*
X1895369Y568943D01*
X1904510D01*
X1910604Y562849D02*
X1922792Y575037D01*
X1928886Y562849D02*
Y581131D01*
X1938027D01*
X1941074Y578084D01*
Y571990D01*
X1938027Y568943D01*
X1928886D01*
X1950215Y575037D02*
X1956309D01*
X1959356Y571990D01*
Y562849D01*
X1950215D01*
X1947168Y565896D01*
X1950215Y568943D01*
X1959356D01*
X1977638Y581131D02*
Y562849D01*
X1968497D01*
X1965450Y565896D01*
Y571990D01*
X1968497Y575037D01*
X1977638D01*
X1477919Y581131D02*
Y562849D01*
X1487060D01*
X1490107Y565896D01*
Y578084D01*
X1487060Y581131D01*
X1477919D01*
X1496201Y575037D02*
Y562849D01*
Y568943D01*
X1499248Y571990D01*
X1502295Y575037D01*
X1505342D01*
X1514483Y562849D02*
X1520577D01*
X1517530D01*
Y575037D01*
X1514483D01*
X1529718Y562849D02*
X1535812D01*
X1532765D01*
Y581131D01*
X1529718D01*
X1544953Y562849D02*
X1551047D01*
X1548000D01*
Y581131D01*
X1544953D01*
X1578470D02*
Y562849D01*
X1590658D01*
X1599799Y575037D02*
X1605893D01*
X1608940Y571990D01*
Y562849D01*
X1599799D01*
X1596752Y565896D01*
X1599799Y568943D01*
X1608940D01*
X1615034Y575037D02*
Y565896D01*
X1618081Y562849D01*
X1627222D01*
Y559802D01*
X1624176Y556755D01*
X1621128D01*
X1627222Y562849D02*
Y575037D01*
X1642457Y562849D02*
X1636364D01*
X1633316Y565896D01*
Y571990D01*
X1636364Y575037D01*
X1642457D01*
X1645505Y571990D01*
Y568943D01*
X1633316D01*
X1651599Y575037D02*
Y562849D01*
Y568943D01*
X1654646Y571990D01*
X1657693Y575037D01*
X1660740D01*
X1688163Y562849D02*
Y581131D01*
X1697304D01*
X1700351Y578084D01*
Y571990D01*
X1697304Y568943D01*
X1688163D01*
X1709492Y575037D02*
X1715586D01*
X1718633Y571990D01*
Y562849D01*
X1709492D01*
X1706445Y565896D01*
X1709492Y568943D01*
X1718633D01*
X1724727Y562849D02*
X1730821D01*
X1727774D01*
Y575037D01*
X1724727D01*
X1739962D02*
Y562849D01*
Y568943D01*
X1743009Y571990D01*
X1746056Y575037D01*
X1749103D01*
X1291533Y581131D02*
Y562849D01*
Y571990D01*
X1303721D01*
Y581131D01*
Y562849D01*
X1312862D02*
X1318956D01*
X1322003Y565896D01*
Y571990D01*
X1318956Y575037D01*
X1312862D01*
X1309815Y571990D01*
Y565896D01*
X1312862Y562849D01*
X1328097D02*
X1334191D01*
X1331144D01*
Y581131D01*
X1328097D01*
X1352473Y562849D02*
X1346379D01*
X1343332Y565896D01*
Y571990D01*
X1346379Y575037D01*
X1352473D01*
X1355520Y571990D01*
Y568943D01*
X1343332D01*
X1379897Y581131D02*
X1392085D01*
X1385990D01*
Y562849D01*
X1398179Y575037D02*
Y565896D01*
X1401226Y562849D01*
X1410367D01*
Y559802D01*
X1407320Y556755D01*
X1404273D01*
X1410367Y562849D02*
Y575037D01*
X1416461Y556755D02*
Y575037D01*
X1425602D01*
X1428649Y571990D01*
Y565896D01*
X1425602Y562849D01*
X1416461D01*
X1443884D02*
X1437790D01*
X1434743Y565896D01*
Y571990D01*
X1437790Y575037D01*
X1443884D01*
X1446931Y571990D01*
Y568943D01*
X1434743D01*
X1163041Y562849D02*
Y581131D01*
X1172182D01*
X1175229Y578084D01*
Y571990D01*
X1172182Y568943D01*
X1163041D01*
X1181323Y562849D02*
X1187417D01*
X1184370D01*
Y581131D01*
X1181323D01*
X1199605Y575037D02*
X1205699D01*
X1208746Y571990D01*
Y562849D01*
X1199605D01*
X1196558Y565896D01*
X1199605Y568943D01*
X1208746D01*
X1217887Y578084D02*
Y575037D01*
X1214840D01*
X1220934D01*
X1217887D01*
Y565896D01*
X1220934Y562849D01*
X1239216D02*
X1233122D01*
X1230075Y565896D01*
Y571990D01*
X1233122Y575037D01*
X1239216D01*
X1242263Y571990D01*
Y568943D01*
X1230075D01*
X1260545Y581131D02*
Y562849D01*
X1251404D01*
X1248357Y565896D01*
Y571990D01*
X1251404Y575037D01*
X1260545D01*
X883722Y581131D02*
Y562849D01*
Y571990D01*
X895910D01*
Y581131D01*
Y562849D01*
X905051D02*
X911145D01*
X914192Y565896D01*
Y571990D01*
X911145Y575037D01*
X905051D01*
X902004Y571990D01*
Y565896D01*
X905051Y562849D01*
X920286D02*
X926380D01*
X923333D01*
Y581131D01*
X920286D01*
X944662Y562849D02*
X938568D01*
X935521Y565896D01*
Y571990D01*
X938568Y575037D01*
X944662D01*
X947709Y571990D01*
Y568943D01*
X935521D01*
X984273Y578084D02*
X981226Y581131D01*
X975132D01*
X972085Y578084D01*
Y575037D01*
X975132Y571990D01*
X981226D01*
X984273Y568943D01*
Y565896D01*
X981226Y562849D01*
X975132D01*
X972085Y565896D01*
X990368Y562849D02*
X996461D01*
X993415D01*
Y575037D01*
X990368D01*
X1005602D02*
X1017791D01*
X1005602Y562849D01*
X1017791D01*
X1033026D02*
X1026932D01*
X1023885Y565896D01*
Y571990D01*
X1026932Y575037D01*
X1033026D01*
X1036073Y571990D01*
Y568943D01*
X1023885D01*
X746089Y578084D02*
X743043Y581131D01*
X736948D01*
X733901Y578084D01*
Y565896D01*
X736948Y562849D01*
X743043D01*
X746089Y565896D01*
X755230Y562849D02*
X761325D01*
X764372Y565896D01*
Y571990D01*
X761325Y575037D01*
X755230D01*
X752184Y571990D01*
Y565896D01*
X755230Y562849D01*
X770466Y575037D02*
Y565896D01*
X773513Y562849D01*
X782654D01*
Y575037D01*
X788748Y562849D02*
Y575037D01*
X797889D01*
X800936Y571990D01*
Y562849D01*
X810077Y578084D02*
Y575037D01*
X807030D01*
X813124D01*
X810077D01*
Y565896D01*
X813124Y562849D01*
X617597Y578084D02*
X614550Y581131D01*
X608456D01*
X605409Y578084D01*
Y575037D01*
X608456Y571990D01*
X614550D01*
X617597Y568943D01*
Y565896D01*
X614550Y562849D01*
X608456D01*
X605409Y565896D01*
X623691Y575037D02*
Y565896D01*
X626738Y562849D01*
X635879D01*
Y559802D01*
X632832Y556755D01*
X629785D01*
X635879Y562849D02*
Y575037D01*
X641973Y562849D02*
Y575037D01*
X645020D01*
X648067Y571990D01*
Y562849D01*
Y571990D01*
X651114Y575037D01*
X654161Y571990D01*
Y562849D01*
X660255Y581131D02*
Y562849D01*
X669396D01*
X672443Y565896D01*
Y568943D01*
Y571990D01*
X669396Y575037D01*
X660255D01*
X681584Y562849D02*
X687678D01*
X690725Y565896D01*
Y571990D01*
X687678Y575037D01*
X681584D01*
X678537Y571990D01*
Y565896D01*
X681584Y562849D01*
X696819D02*
X702913D01*
X699866D01*
Y581131D01*
X696819D01*
D175*
X867712Y96767D02*
Y81532D01*
Y89150D01*
X877869D01*
Y96767D01*
Y81532D01*
X885486D02*
X890565D01*
X893104Y84072D01*
Y89150D01*
X890565Y91689D01*
X885486D01*
X882947Y89150D01*
Y84072D01*
X885486Y81532D01*
X898182D02*
X903261D01*
X900721D01*
Y96767D01*
X898182D01*
X918496Y81532D02*
X913417D01*
X910878Y84072D01*
Y89150D01*
X913417Y91689D01*
X918496D01*
X921035Y89150D01*
Y86611D01*
X910878D01*
X941348Y96767D02*
Y81532D01*
X951505D01*
X964201D02*
X959122D01*
X956583Y84072D01*
Y89150D01*
X959122Y91689D01*
X964201D01*
X966740Y89150D01*
Y86611D01*
X956583D01*
X971818Y81532D02*
Y91689D01*
X979436D01*
X981975Y89150D01*
Y81532D01*
X992132Y76454D02*
X994671D01*
X997210Y78993D01*
Y91689D01*
X989593D01*
X987054Y89150D01*
Y84072D01*
X989593Y81532D01*
X997210D01*
X1004828Y94228D02*
Y91689D01*
X1002289D01*
X1007367D01*
X1004828D01*
Y84072D01*
X1007367Y81532D01*
X1014985Y96767D02*
Y81532D01*
Y89150D01*
X1017524Y91689D01*
X1022602D01*
X1025141Y89150D01*
Y81532D01*
X867712Y106926D02*
Y122161D01*
X875330D01*
X877869Y119622D01*
Y114543D01*
X875330Y112004D01*
X867712D01*
X872791D02*
X877869Y106926D01*
X885486D02*
X890565D01*
X893104Y109465D01*
Y114543D01*
X890565Y117083D01*
X885486D01*
X882947Y114543D01*
Y109465D01*
X885486Y106926D01*
X898182Y117083D02*
Y109465D01*
X900721Y106926D01*
X908339D01*
Y117083D01*
X915956Y119622D02*
Y117083D01*
X913417D01*
X918496D01*
X915956D01*
Y109465D01*
X918496Y106926D01*
X933731D02*
X928652D01*
X926113Y109465D01*
Y114543D01*
X928652Y117083D01*
X933731D01*
X936270Y114543D01*
Y112004D01*
X926113D01*
X951505Y122161D02*
Y106926D01*
X943887D01*
X941348Y109465D01*
Y114543D01*
X943887Y117083D01*
X951505D01*
X971818Y106926D02*
Y122161D01*
X979436D01*
X981975Y119622D01*
Y114543D01*
X979436Y112004D01*
X971818D01*
X989593Y117083D02*
X994671D01*
X997210Y114543D01*
Y106926D01*
X989593D01*
X987054Y109465D01*
X989593Y112004D01*
X997210D01*
X1004828Y119622D02*
Y117083D01*
X1002289D01*
X1007367D01*
X1004828D01*
Y109465D01*
X1007367Y106926D01*
X1014985Y122161D02*
Y106926D01*
Y114543D01*
X1017524Y117083D01*
X1022602D01*
X1025141Y114543D01*
Y106926D01*
X1045455Y122161D02*
Y106926D01*
X1055611D01*
X1068307D02*
X1063229D01*
X1060690Y109465D01*
Y114543D01*
X1063229Y117083D01*
X1068307D01*
X1070846Y114543D01*
Y112004D01*
X1060690D01*
X1075925Y106926D02*
Y117083D01*
X1083542D01*
X1086081Y114543D01*
Y106926D01*
X1096238Y101847D02*
X1098777D01*
X1101317Y104387D01*
Y117083D01*
X1093699D01*
X1091160Y114543D01*
Y109465D01*
X1093699Y106926D01*
X1101317D01*
X1108934Y119622D02*
Y117083D01*
X1106395D01*
X1111473D01*
X1108934D01*
Y109465D01*
X1111473Y106926D01*
X1119091Y122161D02*
Y106926D01*
Y114543D01*
X1121630Y117083D01*
X1126708D01*
X1129248Y114543D01*
Y106926D01*
X615566Y119622D02*
X613027Y122161D01*
X607948D01*
X605409Y119622D01*
Y117083D01*
X607948Y114543D01*
X613027D01*
X615566Y112004D01*
Y109465D01*
X613027Y106926D01*
X607948D01*
X605409Y109465D01*
X620644Y106926D02*
X625722D01*
X623183D01*
Y122161D01*
X620644D01*
X635879Y106926D02*
X640957D01*
X643497Y109465D01*
Y114543D01*
X640957Y117083D01*
X635879D01*
X633340Y114543D01*
Y109465D01*
X635879Y106926D01*
X651114Y119622D02*
Y117083D01*
X648575D01*
X653653D01*
X651114D01*
Y109465D01*
X653653Y106926D01*
X686663Y122161D02*
Y106926D01*
X679045D01*
X676506Y109465D01*
Y114543D01*
X679045Y117083D01*
X686663D01*
X699359Y106926D02*
X694280D01*
X691741Y109465D01*
Y114543D01*
X694280Y117083D01*
X699359D01*
X701898Y114543D01*
Y112004D01*
X691741D01*
X709515Y106926D02*
Y119622D01*
Y114543D01*
X706976D01*
X712055D01*
X709515D01*
Y119622D01*
X712055Y122161D01*
X719672Y106926D02*
X724750D01*
X722211D01*
Y117083D01*
X719672D01*
X732368Y106926D02*
Y117083D01*
X739985D01*
X742525Y114543D01*
Y106926D01*
X747603D02*
X752681D01*
X750142D01*
Y117083D01*
X747603D01*
X762838Y119622D02*
Y117083D01*
X760299D01*
X765377D01*
X762838D01*
Y109465D01*
X765377Y106926D01*
X772995D02*
X778073D01*
X775534D01*
Y117083D01*
X772995D01*
X788230Y106926D02*
X793308D01*
X795847Y109465D01*
Y114543D01*
X793308Y117083D01*
X788230D01*
X785691Y114543D01*
Y109465D01*
X788230Y106926D01*
X800926D02*
Y117083D01*
X808543D01*
X811082Y114543D01*
Y106926D01*
X816161D02*
X823778D01*
X826318Y109465D01*
X823778Y112004D01*
X818700D01*
X816161Y114543D01*
X818700Y117083D01*
X826318D01*
X846631D02*
X849170D01*
Y114543D01*
X846631D01*
Y117083D01*
Y109465D02*
X849170D01*
Y106926D01*
X846631D01*
Y109465D01*
M02*
