G04*
G04 #@! TF.GenerationSoftware,Altium Limited,Altium Designer,20.0.1 (14)*
G04*
G04 Layer_Color=8388736*
%FSLAX44Y44*%
%MOMM*%
G71*
G01*
G75*
%ADD16C,0.2540*%
%ADD172C,0.0254*%
D16*
X601218Y-21590D02*
Y-6355D01*
X611375Y-21590D01*
Y-6355D01*
X618992Y-21590D02*
X624071D01*
X626610Y-19051D01*
Y-13973D01*
X624071Y-11433D01*
X618992D01*
X616453Y-13973D01*
Y-19051D01*
X618992Y-21590D01*
X634227Y-8894D02*
Y-11433D01*
X631688D01*
X636767D01*
X634227D01*
Y-19051D01*
X636767Y-21590D01*
X652002D02*
X646923D01*
X644384Y-19051D01*
Y-13973D01*
X646923Y-11433D01*
X652002D01*
X654541Y-13973D01*
Y-16512D01*
X644384D01*
X674854Y-11433D02*
X677393D01*
Y-13973D01*
X674854D01*
Y-11433D01*
Y-19051D02*
X677393D01*
Y-21590D01*
X674854D01*
Y-19051D01*
X702785Y-6355D02*
X712942D01*
X707863D01*
Y-21590D01*
X718020Y-6355D02*
Y-21590D01*
Y-13973D01*
X720559Y-11433D01*
X725638D01*
X728177Y-13973D01*
Y-21590D01*
X733255D02*
X738334D01*
X735795D01*
Y-11433D01*
X733255D01*
X745951Y-21590D02*
X753569D01*
X756108Y-19051D01*
X753569Y-16512D01*
X748490D01*
X745951Y-13973D01*
X748490Y-11433D01*
X756108D01*
X776421Y-21590D02*
X781500D01*
X778960D01*
Y-11433D01*
X776421D01*
X789117Y-21590D02*
X796735D01*
X799274Y-19051D01*
X796735Y-16512D01*
X791656D01*
X789117Y-13973D01*
X791656Y-11433D01*
X799274D01*
X819587Y-21590D02*
Y-6355D01*
X827205D01*
X829744Y-8894D01*
Y-13973D01*
X827205Y-16512D01*
X819587D01*
X844979Y-8894D02*
X842440Y-6355D01*
X837362D01*
X834822Y-8894D01*
Y-19051D01*
X837362Y-21590D01*
X842440D01*
X844979Y-19051D01*
X850058Y-6355D02*
Y-21590D01*
X857675D01*
X860214Y-19051D01*
Y-16512D01*
X857675Y-13973D01*
X850058D01*
X857675D01*
X860214Y-11433D01*
Y-8894D01*
X857675Y-6355D01*
X850058D01*
X880528D02*
Y-21590D01*
X888145D01*
X890684Y-19051D01*
Y-16512D01*
X888145Y-13973D01*
X880528D01*
X888145D01*
X890684Y-11433D01*
Y-8894D01*
X888145Y-6355D01*
X880528D01*
X898302Y-21590D02*
X903380D01*
X905919Y-19051D01*
Y-13973D01*
X903380Y-11433D01*
X898302D01*
X895763Y-13973D01*
Y-19051D01*
X898302Y-21590D01*
X910998Y-11433D02*
Y-21590D01*
Y-16512D01*
X913537Y-13973D01*
X916076Y-11433D01*
X918615D01*
X936390Y-6355D02*
Y-21590D01*
X928772D01*
X926233Y-19051D01*
Y-13973D01*
X928772Y-11433D01*
X936390D01*
X949085Y-21590D02*
X944007D01*
X941468Y-19051D01*
Y-13973D01*
X944007Y-11433D01*
X949085D01*
X951625Y-13973D01*
Y-16512D01*
X941468D01*
X956703Y-11433D02*
Y-21590D01*
Y-16512D01*
X959242Y-13973D01*
X961781Y-11433D01*
X964321D01*
X987173Y-6355D02*
Y-21590D01*
X997330D01*
X1004947Y-11433D02*
X1010026D01*
X1012565Y-13973D01*
Y-21590D01*
X1004947D01*
X1002408Y-19051D01*
X1004947Y-16512D01*
X1012565D01*
X1017643Y-11433D02*
Y-19051D01*
X1020182Y-21590D01*
X1027800D01*
Y-24129D01*
X1025261Y-26668D01*
X1022722D01*
X1027800Y-21590D02*
Y-11433D01*
X1040496Y-21590D02*
X1035417D01*
X1032878Y-19051D01*
Y-13973D01*
X1035417Y-11433D01*
X1040496D01*
X1043035Y-13973D01*
Y-16512D01*
X1032878D01*
X1048113Y-11433D02*
Y-21590D01*
Y-16512D01*
X1050653Y-13973D01*
X1053192Y-11433D01*
X1055731D01*
D172*
X205000Y0D02*
X430000D01*
Y490000D01*
X0D02*
X430000D01*
X0Y65000D02*
Y490000D01*
Y65000D02*
X205000D01*
Y0D02*
Y65000D01*
M02*
