G04*
G04 #@! TF.GenerationSoftware,Altium Limited,Altium Designer,20.0.1 (14)*
G04*
G04 Layer_Physical_Order=4*
G04 Layer_Color=6736896*
%FSLAX44Y44*%
%MOMM*%
G71*
G01*
G75*
%ADD16C,0.2540*%
%ADD126C,0.2032*%
%ADD127C,0.3810*%
%ADD131C,1.0000*%
%ADD137C,1.5610*%
%ADD138C,0.3048*%
%ADD142C,0.1090*%
D16*
X332994Y342646D02*
X351536Y324104D01*
X332994Y342646D02*
Y374650D01*
X137098Y351790D02*
X256032D01*
X105156Y370078D02*
Y377190D01*
X74930Y339852D02*
X105156Y370078D01*
X74930Y294386D02*
Y339852D01*
D126*
X316992Y55880D02*
Y104140D01*
X305816Y115316D02*
X316992Y104140D01*
X305816Y115316D02*
Y167640D01*
X343914Y205738D02*
Y289050D01*
X305816Y167640D02*
X343914Y205738D01*
X137002Y351886D02*
X137098Y351790D01*
X131572Y381762D02*
X133096Y380238D01*
Y340360D02*
Y380238D01*
Y340360D02*
X143764Y329692D01*
X113284Y231394D02*
Y251714D01*
X33020Y208280D02*
X54356Y229616D01*
X74168D01*
X33020Y168602D02*
Y208280D01*
X37338Y153416D02*
Y164284D01*
X33020Y168602D02*
X37338Y164284D01*
X42418Y147828D02*
X58928Y164338D01*
X25400Y147828D02*
X42418D01*
X6604Y166624D02*
X25400Y147828D01*
X292499Y204869D02*
X304298D01*
X273812Y186182D02*
X292499Y204869D01*
X232664Y107442D02*
X273812Y148590D01*
Y186182D01*
X362966Y308102D02*
X391668D01*
X343914Y289050D02*
X362966Y308102D01*
X391668D02*
X400050Y299720D01*
X162306Y169164D02*
X195072D01*
X242316Y216408D01*
X338582D01*
X106172Y125222D02*
Y251714D01*
X100584Y121920D02*
Y261366D01*
X106172Y251714D02*
X175318Y320860D01*
X113284Y251714D02*
X172720Y311150D01*
X252222D01*
X100584Y261366D02*
X164084Y324866D01*
X106172Y125222D02*
X121666Y109728D01*
X96520Y93980D02*
X276860D01*
X56896Y90424D02*
X266446D01*
X40386Y106934D02*
X56896Y90424D01*
X276860Y93980D02*
X311379Y59461D01*
X63500Y127000D02*
Y181102D01*
Y127000D02*
X96520Y93980D01*
X266446Y90424D02*
X302031Y54839D01*
X276098Y306070D02*
Y351848D01*
X265938Y295910D02*
X276098Y306070D01*
X217424Y295910D02*
X265938D01*
X276098Y351848D02*
X326234Y401984D01*
X271780Y353672D02*
X319734Y401626D01*
X271780Y309880D02*
Y353672D01*
X264160Y302260D02*
X271780Y309880D01*
X211328Y302260D02*
X264160D01*
X252222Y311150D02*
X260096Y319024D01*
X222504Y86360D02*
X240284D01*
X268986Y57658D01*
Y23368D02*
Y57658D01*
Y23368D02*
X273812Y18542D01*
X175318Y320860D02*
X230944D01*
X238132Y324866D02*
X242002Y320996D01*
X164084Y324866D02*
X238132D01*
X6604Y166624D02*
Y217678D01*
X157734Y162814D02*
X176276Y144272D01*
X157734Y162814D02*
Y236220D01*
X176276Y111506D02*
Y144272D01*
X153670Y158242D02*
X170688Y141224D01*
X153670Y244602D02*
X211328Y302260D01*
X153670Y158242D02*
Y244602D01*
X148844Y278892D02*
X159512Y289560D01*
X148844Y111252D02*
Y278892D01*
Y111252D02*
X152654Y107442D01*
X157734Y236220D02*
X217424Y295910D01*
X260096Y319024D02*
Y432308D01*
X279096Y451308D01*
X299008D01*
X143764Y329692D02*
X231140D01*
X130034Y102616D02*
X208534D01*
X126612Y106038D02*
X130034Y102616D01*
X263652Y157734D02*
Y192024D01*
X208534Y102616D02*
X263652Y157734D01*
X214122Y98806D02*
X268050Y152734D01*
X137160Y98806D02*
X214122D01*
X311379Y52052D02*
Y59461D01*
X268050Y152734D02*
Y198040D01*
X306883Y23317D02*
Y55575D01*
X272288Y90170D02*
X306883Y55575D01*
X52629Y191973D02*
X63500Y181102D01*
X38862Y191973D02*
X52629D01*
X311379Y52052D02*
X316440Y46990D01*
X306883Y23317D02*
X311912Y18288D01*
X302031Y17755D02*
Y54839D01*
Y17755D02*
X315976Y3810D01*
X385832D02*
X397512Y15490D01*
X315976Y3810D02*
X385832D01*
X40386Y106934D02*
Y115824D01*
X242570Y36830D02*
Y54356D01*
D127*
X99314Y114046D02*
X107188D01*
X93472Y119888D02*
X99314Y114046D01*
X93472Y119888D02*
Y269494D01*
X122428Y298450D01*
Y398526D01*
D131*
X304298Y204869D02*
D03*
Y285714D02*
D03*
Y265176D02*
D03*
D137*
X397512Y15490D02*
D03*
D138*
X122428Y298450D02*
D03*
X332994Y374650D02*
D03*
X256032Y351790D02*
D03*
X137002Y351886D02*
D03*
X113284Y231394D02*
D03*
X74168Y229616D02*
D03*
X232664Y107442D02*
D03*
X351536Y324104D02*
D03*
X162306Y169164D02*
D03*
X338582Y216408D02*
D03*
X105410Y376936D02*
D03*
X131572Y381762D02*
D03*
X122428Y398526D02*
D03*
X74930Y294386D02*
D03*
X107188Y114046D02*
D03*
X222504Y86360D02*
D03*
X273812Y18542D02*
D03*
X176276Y111506D02*
D03*
X170688Y141224D02*
D03*
X260096Y319024D02*
D03*
X326234Y401984D02*
D03*
X319734Y401626D02*
D03*
X121666Y109728D02*
D03*
X231140Y329692D02*
D03*
X242002Y320996D02*
D03*
X230944Y320860D02*
D03*
X137160Y98806D02*
D03*
X152654Y107442D02*
D03*
X159512Y289560D02*
D03*
X272288Y90170D02*
D03*
X268050Y198040D02*
D03*
X263652Y192024D02*
D03*
X126612Y106038D02*
D03*
X100584Y121920D02*
D03*
X37338Y153416D02*
D03*
X58928Y164338D02*
D03*
X6604Y217678D02*
D03*
X299008Y451308D02*
D03*
X38862Y191973D02*
D03*
X316992Y55880D02*
D03*
X316440Y46990D02*
D03*
X40386Y115824D02*
D03*
X400050Y299720D02*
D03*
X311912Y18288D02*
D03*
X242570Y54356D02*
D03*
Y36830D02*
D03*
X166661Y194056D02*
D03*
X162343D02*
D03*
D142*
X232393Y276625D02*
X303659D01*
X233371Y274265D02*
X303659D01*
X163322Y207554D02*
X232393Y276625D01*
X163322Y195564D02*
Y207554D01*
X165682Y206576D02*
X233371Y274265D01*
X165682Y195564D02*
Y206576D01*
X303659Y276625D02*
X304298Y277264D01*
Y285714D01*
X303659Y274265D02*
X304298Y273626D01*
Y265176D02*
Y273626D01*
X162343Y194056D02*
Y194586D01*
X163322Y195564D01*
X166661Y194056D02*
Y194586D01*
X165682Y195564D02*
X166661Y194586D01*
M02*
