G04*
G04 #@! TF.GenerationSoftware,Altium Limited,Altium Designer,20.0.1 (14)*
G04*
G04 Layer_Color=32896*
%FSLAX44Y44*%
%MOMM*%
G71*
G01*
G75*
%ADD16C,0.2540*%
%ADD173C,0.1524*%
D16*
X414760Y564920D02*
X430000Y570000D01*
X414760Y575080D02*
X430000Y570000D01*
X0D02*
X15240Y575080D01*
X0Y570000D02*
X15240Y564920D01*
X249279Y570000D02*
X430000D01*
X0D02*
X172593D01*
X430000Y492667D02*
Y572540D01*
X0Y492667D02*
Y572540D01*
X-95080Y15240D02*
X-90000Y0D01*
X-84920Y15240D01*
X-90000Y490000D02*
X-84920Y474760D01*
X-95080D02*
X-90000Y490000D01*
Y0D02*
Y202593D01*
Y279279D02*
Y490000D01*
X-92540Y0D02*
X-2540D01*
X-92540Y490000D02*
X-2667D01*
X603504Y-66548D02*
Y-51313D01*
X613661Y-66548D01*
Y-51313D01*
X621278Y-66548D02*
X626357D01*
X628896Y-64009D01*
Y-58931D01*
X626357Y-56391D01*
X621278D01*
X618739Y-58931D01*
Y-64009D01*
X621278Y-66548D01*
X636513Y-53852D02*
Y-56391D01*
X633974D01*
X639053D01*
X636513D01*
Y-64009D01*
X639053Y-66548D01*
X654288D02*
X649209D01*
X646670Y-64009D01*
Y-58931D01*
X649209Y-56391D01*
X654288D01*
X656827Y-58931D01*
Y-61470D01*
X646670D01*
X677140Y-56391D02*
X679679D01*
Y-58931D01*
X677140D01*
Y-56391D01*
Y-64009D02*
X679679D01*
Y-66548D01*
X677140D01*
Y-64009D01*
X705071Y-51313D02*
X715228D01*
X710150D01*
Y-66548D01*
X720306Y-51313D02*
Y-66548D01*
Y-58931D01*
X722845Y-56391D01*
X727924D01*
X730463Y-58931D01*
Y-66548D01*
X735541D02*
X740620D01*
X738081D01*
Y-56391D01*
X735541D01*
X748237Y-66548D02*
X755855D01*
X758394Y-64009D01*
X755855Y-61470D01*
X750776D01*
X748237Y-58931D01*
X750776Y-56391D01*
X758394D01*
X778707Y-66548D02*
X783786D01*
X781246D01*
Y-56391D01*
X778707D01*
X791403Y-66548D02*
X799021D01*
X801560Y-64009D01*
X799021Y-61470D01*
X793942D01*
X791403Y-58931D01*
X793942Y-56391D01*
X801560D01*
X821873Y-66548D02*
Y-51313D01*
X829491D01*
X832030Y-53852D01*
Y-58931D01*
X829491Y-61470D01*
X821873D01*
X847265Y-53852D02*
X844726Y-51313D01*
X839648D01*
X837108Y-53852D01*
Y-64009D01*
X839648Y-66548D01*
X844726D01*
X847265Y-64009D01*
X852344Y-51313D02*
Y-66548D01*
X859961D01*
X862500Y-64009D01*
Y-61470D01*
X859961Y-58931D01*
X852344D01*
X859961D01*
X862500Y-56391D01*
Y-53852D01*
X859961Y-51313D01*
X852344D01*
X882814D02*
Y-66548D01*
X890431D01*
X892970Y-64009D01*
Y-53852D01*
X890431Y-51313D01*
X882814D01*
X898049Y-66548D02*
X903127D01*
X900588D01*
Y-56391D01*
X898049D01*
X910745Y-66548D02*
Y-56391D01*
X913284D01*
X915823Y-58931D01*
Y-66548D01*
Y-58931D01*
X918362Y-56391D01*
X920901Y-58931D01*
Y-66548D01*
X933597D02*
X928519D01*
X925980Y-64009D01*
Y-58931D01*
X928519Y-56391D01*
X933597D01*
X936136Y-58931D01*
Y-61470D01*
X925980D01*
X941215Y-66548D02*
Y-56391D01*
X948832D01*
X951372Y-58931D01*
Y-66548D01*
X958989Y-53852D02*
Y-56391D01*
X956450D01*
X961528D01*
X958989D01*
Y-64009D01*
X961528Y-66548D01*
X969146D02*
X974224D01*
X971685D01*
Y-56391D01*
X969146D01*
X984381Y-66548D02*
X989459D01*
X991998Y-64009D01*
Y-58931D01*
X989459Y-56391D01*
X984381D01*
X981842Y-58931D01*
Y-64009D01*
X984381Y-66548D01*
X997077D02*
Y-56391D01*
X1004694D01*
X1007233Y-58931D01*
Y-66548D01*
X1027547Y-51313D02*
Y-66548D01*
X1037703D01*
X1045321Y-56391D02*
X1050399D01*
X1052939Y-58931D01*
Y-66548D01*
X1045321D01*
X1042782Y-64009D01*
X1045321Y-61470D01*
X1052939D01*
X1058017Y-56391D02*
Y-64009D01*
X1060556Y-66548D01*
X1068174D01*
Y-69087D01*
X1065635Y-71626D01*
X1063095D01*
X1068174Y-66548D02*
Y-56391D01*
X1080870Y-66548D02*
X1075791D01*
X1073252Y-64009D01*
Y-58931D01*
X1075791Y-56391D01*
X1080870D01*
X1083409Y-58931D01*
Y-61470D01*
X1073252D01*
X1088487Y-56391D02*
Y-66548D01*
Y-61470D01*
X1091026Y-58931D01*
X1093565Y-56391D01*
X1096105D01*
D173*
X184275Y560858D02*
Y576093D01*
X176657Y568476D01*
X186814D01*
X191892Y573554D02*
X194431Y576093D01*
X199510D01*
X202049Y573554D01*
Y571015D01*
X199510Y568476D01*
X196971D01*
X199510D01*
X202049Y565937D01*
Y563398D01*
X199510Y560858D01*
X194431D01*
X191892Y563398D01*
X207127Y560858D02*
Y563398D01*
X209666D01*
Y560858D01*
X207127D01*
X219823Y573554D02*
X222362Y576093D01*
X227441D01*
X229980Y573554D01*
Y563398D01*
X227441Y560858D01*
X222362D01*
X219823Y563398D01*
Y573554D01*
X235058D02*
X237597Y576093D01*
X242676D01*
X245215Y573554D01*
Y563398D01*
X242676Y560858D01*
X237597D01*
X235058Y563398D01*
Y573554D01*
X-80858Y214275D02*
X-96094D01*
X-88476Y206657D01*
Y216814D01*
X-83398Y221892D02*
X-80858Y224431D01*
Y229510D01*
X-83398Y232049D01*
X-93554D01*
X-96094Y229510D01*
Y224431D01*
X-93554Y221892D01*
X-91015D01*
X-88476Y224431D01*
Y232049D01*
X-80858Y237127D02*
X-83398D01*
Y239666D01*
X-80858D01*
Y237127D01*
X-93554Y249823D02*
X-96094Y252362D01*
Y257441D01*
X-93554Y259980D01*
X-83398D01*
X-80858Y257441D01*
Y252362D01*
X-83398Y249823D01*
X-93554D01*
Y265058D02*
X-96094Y267597D01*
Y272676D01*
X-93554Y275215D01*
X-83398D01*
X-80858Y272676D01*
Y267597D01*
X-83398Y265058D01*
X-93554D01*
M02*
