G04*
G04 #@! TF.GenerationSoftware,Altium Limited,Altium Designer,20.0.1 (14)*
G04*
G04 Layer_Color=32896*
%FSLAX44Y44*%
%MOMM*%
G71*
G01*
G75*
%ADD10C,0.1000*%
%ADD11C,0.2000*%
%ADD14C,0.0760*%
%ADD18C,0.0508*%
%ADD19C,0.1270*%
%ADD22C,0.0762*%
%ADD24C,0.1016*%
%ADD171C,0.3000*%
D10*
X378700Y134060D02*
X388700D01*
X428700Y83060D02*
Y118060D01*
X358700Y83060D02*
Y118060D01*
X368700Y64060D02*
X418700D01*
D11*
X420700Y138560D02*
G03*
X422700Y138560I1000J0D01*
G01*
D02*
G03*
X420700Y138560I-1000J0D01*
G01*
X221528Y178120D02*
G03*
X221528Y178120I-1000J0D01*
G01*
X233768Y234804D02*
Y248304D01*
X403378Y181282D02*
Y203532D01*
X371378Y181282D02*
Y203532D01*
X407242Y160831D02*
Y224282D01*
X367058Y160831D02*
Y224282D01*
Y160831D02*
X407242D01*
X367058Y224282D02*
X407242D01*
D14*
X298994Y180168D02*
Y196868D01*
X290894Y180168D02*
Y196868D01*
Y180168D02*
X298994D01*
X290894Y196868D02*
X298994D01*
X320838Y25228D02*
Y41928D01*
X312738Y25228D02*
Y41928D01*
Y25228D02*
X320838D01*
X312738Y41928D02*
X320838D01*
D18*
X233160Y326392D02*
X244160D01*
Y332992D01*
X233160D02*
X244160D01*
X233160Y326392D02*
Y332992D01*
X243520Y266448D02*
X254520D01*
Y273048D01*
X243520D02*
X254520D01*
X243520Y266448D02*
Y273048D01*
X233160Y334774D02*
Y341374D01*
X244160D01*
Y334774D02*
Y341374D01*
X233160Y334774D02*
X244160D01*
X233160Y343156D02*
Y349756D01*
X244160D01*
Y343156D02*
Y349756D01*
X233160Y343156D02*
X244160D01*
X254520Y252224D02*
Y258824D01*
X243520Y252224D02*
X254520D01*
X243520D02*
Y258824D01*
X254520D01*
X228594Y175340D02*
X234194D01*
X228594D02*
Y185340D01*
X234194D01*
Y175340D02*
Y185340D01*
X239516Y175086D02*
X245116D01*
X239516D02*
Y185086D01*
X245116D01*
Y175086D02*
Y185086D01*
X349516Y132590D02*
Y139190D01*
X338516Y132590D02*
X349516D01*
X338516D02*
Y139190D01*
X349516D01*
X325454Y83052D02*
Y88652D01*
X335454D01*
Y83052D02*
Y88652D01*
X325454Y83052D02*
X335454D01*
X322396Y52480D02*
X327996D01*
X322396D02*
Y62480D01*
X327996D01*
Y52480D02*
Y62480D01*
X271606Y5836D02*
Y11436D01*
X281606D01*
Y5836D02*
Y11436D01*
X271606Y5836D02*
X281606D01*
X148159Y357896D02*
X154759D01*
X148159D02*
Y368896D01*
X154759D01*
Y357896D02*
Y368896D01*
X171358Y357896D02*
X177958D01*
X171358D02*
Y368896D01*
X177958D01*
Y357896D02*
Y368896D01*
X136560Y357896D02*
X143160D01*
X136560D02*
Y368896D01*
X143160D01*
Y357896D02*
Y368896D01*
X159759Y357896D02*
X166359D01*
X159759D02*
Y368896D01*
X166359D01*
Y357896D02*
Y368896D01*
D19*
X277300Y17956D02*
G03*
X277300Y17956I-2500J0D01*
G01*
X279214Y360690D02*
X284614D01*
X358514D02*
X364014D01*
X273814Y378790D02*
Y413790D01*
X369414Y378590D02*
Y413590D01*
Y436190D02*
Y474890D01*
X273814Y435990D02*
Y474690D01*
X284214Y485690D02*
X359014D01*
X17954Y2824D02*
Y70324D01*
Y2824D02*
X197954D01*
Y70324D01*
X17954Y250324D02*
Y257824D01*
X42954D01*
X172954D02*
X197954D01*
Y250324D02*
Y257824D01*
X18354Y65824D02*
X197554D01*
X214028Y68620D02*
Y165620D01*
X315028Y68620D02*
Y165620D01*
D22*
X272016Y187996D02*
X288816D01*
X272016Y179696D02*
Y187996D01*
Y179696D02*
X288816D01*
Y187996D01*
X335770Y122646D02*
X352570D01*
Y130946D01*
X335770D02*
X352570D01*
X335770Y122646D02*
Y130946D01*
D24*
X382302Y405891D02*
X382937Y405256D01*
Y403987D01*
X382302Y403352D01*
X379763D01*
X379128Y403987D01*
Y405256D01*
X379763Y405891D01*
X379128Y407161D02*
Y408430D01*
Y407796D01*
X382937D01*
X382302Y407161D01*
X294640Y61975D02*
Y58801D01*
X294005Y58166D01*
X292736D01*
X292101Y58801D01*
Y61975D01*
X290831Y58166D02*
X289562D01*
X290196D01*
Y61975D01*
X290831Y61340D01*
X285753Y58166D02*
Y61975D01*
X287657Y60070D01*
X285118D01*
X350709Y98044D02*
X353883D01*
X354518Y97409D01*
Y96140D01*
X353883Y95505D01*
X350709D01*
X354518Y94235D02*
Y92966D01*
Y93600D01*
X350709D01*
X351344Y94235D01*
X354518Y88522D02*
Y91061D01*
X351979Y88522D01*
X351344D01*
X350709Y89157D01*
Y90426D01*
X351344Y91061D01*
X26416Y273049D02*
Y269875D01*
X25781Y269240D01*
X24512D01*
X23877Y269875D01*
Y273049D01*
X22607D02*
X20068D01*
Y272414D01*
X22607Y269875D01*
Y269240D01*
X227077Y245110D02*
X230251D01*
X230886Y244475D01*
Y243206D01*
X230251Y242571D01*
X227077D01*
Y238762D02*
X227712Y240032D01*
X228982Y241301D01*
X230251D01*
X230886Y240666D01*
Y239397D01*
X230251Y238762D01*
X229616D01*
X228982Y239397D01*
Y241301D01*
X205741Y123698D02*
X208915D01*
X209550Y123063D01*
Y121794D01*
X208915Y121159D01*
X205741D01*
X209550Y119889D02*
Y118620D01*
Y119254D01*
X205741D01*
X206376Y119889D01*
X284226Y10414D02*
Y6605D01*
X286130D01*
X286765Y7240D01*
Y8510D01*
X286130Y9144D01*
X284226D01*
X285496D02*
X286765Y10414D01*
X289939D02*
Y6605D01*
X288035Y8510D01*
X290574D01*
X291844Y7240D02*
X292478Y6605D01*
X293748D01*
X294383Y7240D01*
Y9779D01*
X293748Y10414D01*
X292478D01*
X291844Y9779D01*
Y7240D01*
X334848Y62052D02*
X331039D01*
Y60148D01*
X331674Y59513D01*
X332944D01*
X333579Y60148D01*
Y62052D01*
Y60783D02*
X334848Y59513D01*
X331674Y58243D02*
X331039Y57609D01*
Y56339D01*
X331674Y55704D01*
X332309D01*
X332944Y56339D01*
Y56974D01*
Y56339D01*
X333579Y55704D01*
X334213D01*
X334848Y56339D01*
Y57609D01*
X334213Y58243D01*
Y54435D02*
X334848Y53800D01*
Y52530D01*
X334213Y51895D01*
X331674D01*
X331039Y52530D01*
Y53800D01*
X331674Y54435D01*
X332309D01*
X332944Y53800D01*
Y51895D01*
X179832Y371602D02*
Y375411D01*
X177928D01*
X177293Y374776D01*
Y373506D01*
X177928Y372872D01*
X179832D01*
X178562D02*
X177293Y371602D01*
X176023Y374776D02*
X175388Y375411D01*
X174119D01*
X173484Y374776D01*
Y374141D01*
X174119Y373506D01*
X174754D01*
X174119D01*
X173484Y372872D01*
Y372237D01*
X174119Y371602D01*
X175388D01*
X176023Y372237D01*
X172214Y375411D02*
X169675D01*
Y374776D01*
X172214Y372237D01*
Y371602D01*
X133350Y368300D02*
X129541D01*
Y366396D01*
X130176Y365761D01*
X131446D01*
X132080Y366396D01*
Y368300D01*
Y367030D02*
X133350Y365761D01*
X130176Y364491D02*
X129541Y363856D01*
Y362587D01*
X130176Y361952D01*
X130811D01*
X131446Y362587D01*
Y363222D01*
Y362587D01*
X132080Y361952D01*
X132715D01*
X133350Y362587D01*
Y363856D01*
X132715Y364491D01*
X129541Y358143D02*
X130176Y359413D01*
X131446Y360682D01*
X132715D01*
X133350Y360048D01*
Y358778D01*
X132715Y358143D01*
X132080D01*
X131446Y358778D01*
Y360682D01*
X168148Y350774D02*
Y354583D01*
X166244D01*
X165609Y353948D01*
Y352678D01*
X166244Y352044D01*
X168148D01*
X166878D02*
X165609Y350774D01*
X164339Y353948D02*
X163704Y354583D01*
X162435D01*
X161800Y353948D01*
Y353313D01*
X162435Y352678D01*
X163070D01*
X162435D01*
X161800Y352044D01*
Y351409D01*
X162435Y350774D01*
X163704D01*
X164339Y351409D01*
X157991Y354583D02*
X160530D01*
Y352678D01*
X159261Y353313D01*
X158626D01*
X157991Y352678D01*
Y351409D01*
X158626Y350774D01*
X159896D01*
X160530Y351409D01*
X156464Y371856D02*
Y375665D01*
X154560D01*
X153925Y375030D01*
Y373760D01*
X154560Y373126D01*
X156464D01*
X155194D02*
X153925Y371856D01*
X152655Y375030D02*
X152020Y375665D01*
X150751D01*
X150116Y375030D01*
Y374395D01*
X150751Y373760D01*
X151386D01*
X150751D01*
X150116Y373126D01*
Y372491D01*
X150751Y371856D01*
X152020D01*
X152655Y372491D01*
X146942Y371856D02*
Y375665D01*
X148846Y373760D01*
X146307D01*
X267208Y253746D02*
Y257555D01*
X265304D01*
X264669Y256920D01*
Y255650D01*
X265304Y255016D01*
X267208D01*
X265938D02*
X264669Y253746D01*
X263399Y256920D02*
X262764Y257555D01*
X261495D01*
X260860Y256920D01*
Y256285D01*
X261495Y255650D01*
X262130D01*
X261495D01*
X260860Y255016D01*
Y254381D01*
X261495Y253746D01*
X262764D01*
X263399Y254381D01*
X257051Y253746D02*
X259590D01*
X257051Y256285D01*
Y256920D01*
X257686Y257555D01*
X258956D01*
X259590Y256920D01*
X256794Y272034D02*
Y268225D01*
X258698D01*
X259333Y268860D01*
Y270130D01*
X258698Y270764D01*
X256794D01*
X258064D02*
X259333Y272034D01*
X263142D02*
X260603D01*
X263142Y269495D01*
Y268860D01*
X262507Y268225D01*
X261238D01*
X260603Y268860D01*
X266951Y268225D02*
X265681Y268860D01*
X264412Y270130D01*
Y271399D01*
X265046Y272034D01*
X266316D01*
X266951Y271399D01*
Y270764D01*
X266316Y270130D01*
X264412D01*
X256794Y344678D02*
Y348487D01*
X254890D01*
X254255Y347852D01*
Y346582D01*
X254890Y345948D01*
X256794D01*
X255524D02*
X254255Y344678D01*
X250446D02*
X252985D01*
X250446Y347217D01*
Y347852D01*
X251081Y348487D01*
X252350D01*
X252985Y347852D01*
X249176D02*
X248542Y348487D01*
X247272D01*
X246637Y347852D01*
Y345313D01*
X247272Y344678D01*
X248542D01*
X249176Y345313D01*
Y347852D01*
X335788Y134112D02*
Y137921D01*
X333884D01*
X333249Y137286D01*
Y136016D01*
X333884Y135382D01*
X335788D01*
X334518D02*
X333249Y134112D01*
X331979Y134747D02*
X331344Y134112D01*
X330075D01*
X329440Y134747D01*
Y137286D01*
X330075Y137921D01*
X331344D01*
X331979Y137286D01*
Y136651D01*
X331344Y136016D01*
X329440D01*
X253746Y336550D02*
Y340359D01*
X251842D01*
X251207Y339724D01*
Y338454D01*
X251842Y337820D01*
X253746D01*
X252476D02*
X251207Y336550D01*
X249937Y340359D02*
X247398D01*
Y339724D01*
X249937Y337185D01*
Y336550D01*
X252984Y327914D02*
Y331723D01*
X251080D01*
X250445Y331088D01*
Y329818D01*
X251080Y329184D01*
X252984D01*
X251714D02*
X250445Y327914D01*
X247271D02*
Y331723D01*
X249175Y329818D01*
X246636D01*
X333248Y128777D02*
Y124968D01*
X330709D01*
X329439Y128142D02*
X328804Y128777D01*
X327535D01*
X326900Y128142D01*
Y127507D01*
X327535Y126872D01*
X328170D01*
X327535D01*
X326900Y126238D01*
Y125603D01*
X327535Y124968D01*
X328804D01*
X329439Y125603D01*
X276606Y171451D02*
Y175260D01*
X279145D01*
X282954D02*
X280415D01*
X282954Y172721D01*
Y172086D01*
X282319Y171451D01*
X281050D01*
X280415Y172086D01*
X264575Y472695D02*
Y473964D01*
Y473330D01*
X267749D01*
X268384Y473964D01*
Y474599D01*
X267749Y475234D01*
X268384Y468886D02*
Y471425D01*
X265845Y468886D01*
X265210D01*
X264575Y469521D01*
Y470790D01*
X265210Y471425D01*
X384237Y233679D02*
X386776D01*
Y231774D01*
X385506D01*
X386776D01*
Y229870D01*
X382967D02*
X381698D01*
X382332D01*
Y233679D01*
X382967Y233044D01*
X328040Y29971D02*
X328675Y29336D01*
Y28067D01*
X328040Y27432D01*
X325501D01*
X324866Y28067D01*
Y29336D01*
X325501Y29971D01*
X324866Y33145D02*
X328675D01*
X326770Y31241D01*
Y33780D01*
X328040Y35050D02*
X328675Y35684D01*
Y36954D01*
X328040Y37589D01*
X327405D01*
X326770Y36954D01*
X326136Y37589D01*
X325501D01*
X324866Y36954D01*
Y35684D01*
X325501Y35050D01*
X326136D01*
X326770Y35684D01*
X327405Y35050D01*
X328040D01*
X326770Y35684D02*
Y36954D01*
X333757Y95630D02*
X334392Y96265D01*
X335661D01*
X336296Y95630D01*
Y93091D01*
X335661Y92456D01*
X334392D01*
X333757Y93091D01*
X329948Y92456D02*
X332487D01*
X329948Y94995D01*
Y95630D01*
X330583Y96265D01*
X331852D01*
X332487Y95630D01*
X328678D02*
X328044Y96265D01*
X326774D01*
X326139Y95630D01*
Y93091D01*
X326774Y92456D01*
X328044D01*
X328678Y93091D01*
Y95630D01*
X232790Y190753D02*
X233425Y190118D01*
Y188849D01*
X232790Y188214D01*
X230251D01*
X229616Y188849D01*
Y190118D01*
X230251Y190753D01*
X229616Y192023D02*
Y193292D01*
Y192658D01*
X233425D01*
X232790Y192023D01*
X230251Y195197D02*
X229616Y195832D01*
Y197101D01*
X230251Y197736D01*
X232790D01*
X233425Y197101D01*
Y195832D01*
X232790Y195197D01*
X232155D01*
X231520Y195832D01*
Y197736D01*
X244474Y190753D02*
X245109Y190118D01*
Y188849D01*
X244474Y188214D01*
X241935D01*
X241300Y188849D01*
Y190118D01*
X241935Y190753D01*
X241300Y192023D02*
Y193292D01*
Y192658D01*
X245109D01*
X244474Y192023D01*
X245109Y195197D02*
Y197736D01*
X244474D01*
X241935Y195197D01*
X241300D01*
X297689Y204342D02*
X298324Y204977D01*
X299593D01*
X300228Y204342D01*
Y201803D01*
X299593Y201168D01*
X298324D01*
X297689Y201803D01*
X296419Y201168D02*
X295150D01*
X295784D01*
Y204977D01*
X296419Y204342D01*
X290706Y204977D02*
X291976Y204342D01*
X293245Y203072D01*
Y201803D01*
X292610Y201168D01*
X291341D01*
X290706Y201803D01*
Y202438D01*
X291341Y203072D01*
X293245D01*
D171*
X12044Y64894D02*
G03*
X11461Y63985I-1000J0D01*
G01*
M02*
