G04*
G04 #@! TF.GenerationSoftware,Altium Limited,Altium Designer,20.0.1 (14)*
G04*
G04 Layer_Physical_Order=2*
G04 Layer_Color=36540*
%FSLAX44Y44*%
%MOMM*%
G71*
G01*
G75*
%ADD131C,1.0000*%
%ADD133C,1.6000*%
%ADD138C,0.3048*%
%ADD140C,0.4064*%
G36*
X430000Y135890D02*
X351028D01*
X347218Y132080D01*
Y64770D01*
X353568Y58420D01*
X430000D01*
Y0D01*
X206650D01*
Y65000D01*
X206166Y66166D01*
X205000Y66650D01*
X0D01*
Y490000D01*
X100330D01*
X100330Y446664D01*
X219710Y446664D01*
X219710Y490000D01*
X430000D01*
Y135890D01*
D02*
G37*
%LPC*%
G36*
X258572Y483168D02*
X257383Y482931D01*
X256374Y482257D01*
X255701Y481249D01*
X255464Y480060D01*
X255701Y478871D01*
X256374Y477863D01*
X257383Y477189D01*
X258572Y476952D01*
X259761Y477189D01*
X260770Y477863D01*
X261443Y478871D01*
X261680Y480060D01*
X261443Y481249D01*
X260770Y482257D01*
X259761Y482931D01*
X258572Y483168D01*
D02*
G37*
G36*
X250698D02*
X249509Y482931D01*
X248500Y482257D01*
X247827Y481249D01*
X247590Y480060D01*
X247827Y478871D01*
X248500Y477863D01*
X249509Y477189D01*
X250698Y476952D01*
X251887Y477189D01*
X252896Y477863D01*
X253569Y478871D01*
X253806Y480060D01*
X253569Y481249D01*
X252896Y482257D01*
X251887Y482931D01*
X250698Y483168D01*
D02*
G37*
G36*
X346202Y485370D02*
X344499Y485146D01*
X342912Y484489D01*
X341549Y483443D01*
X340503Y482080D01*
X339846Y480493D01*
X339622Y478790D01*
X339846Y477087D01*
X340503Y475500D01*
X341549Y474137D01*
X342912Y473091D01*
X344499Y472434D01*
X346202Y472210D01*
X347905Y472434D01*
X349492Y473091D01*
X350855Y474137D01*
X351901Y475500D01*
X352558Y477087D01*
X352782Y478790D01*
X352558Y480493D01*
X351901Y482080D01*
X350855Y483443D01*
X349492Y484489D01*
X347905Y485146D01*
X346202Y485370D01*
D02*
G37*
G36*
X351028Y470214D02*
X349839Y469977D01*
X348830Y469304D01*
X348157Y468295D01*
X347992Y467469D01*
X346698D01*
X346533Y468295D01*
X345859Y469304D01*
X344851Y469977D01*
X343662Y470214D01*
X342473Y469977D01*
X341465Y469304D01*
X340791Y468295D01*
X340626Y467469D01*
X339332D01*
X339167Y468295D01*
X338493Y469304D01*
X337485Y469977D01*
X336296Y470214D01*
X335107Y469977D01*
X334099Y469304D01*
X333425Y468295D01*
X333188Y467106D01*
X333425Y465917D01*
X334099Y464908D01*
X335107Y464235D01*
X336014Y464054D01*
X336473Y463656D01*
X336903Y462824D01*
X336744Y462026D01*
X336981Y460837D01*
X337654Y459828D01*
X338663Y459155D01*
X339852Y458918D01*
X341041Y459155D01*
X342049Y459828D01*
X342723Y460837D01*
X342960Y462026D01*
X342840Y462629D01*
X343625Y463739D01*
X344417Y463857D01*
X345297Y462885D01*
X345126Y462026D01*
X345363Y460837D01*
X346036Y459828D01*
X347045Y459155D01*
X348234Y458918D01*
X349423Y459155D01*
X350432Y459828D01*
X351105Y460837D01*
X351342Y462026D01*
X351181Y462832D01*
X351128Y463240D01*
X351982Y464188D01*
X352217Y464235D01*
X353226Y464908D01*
X353899Y465917D01*
X354136Y467106D01*
X353899Y468295D01*
X353226Y469304D01*
X352217Y469977D01*
X351028Y470214D01*
D02*
G37*
G36*
X426846Y485266D02*
X407798D01*
Y466218D01*
X426846D01*
Y485266D01*
D02*
G37*
G36*
X276352Y465896D02*
X275163Y465659D01*
X274154Y464986D01*
X273481Y463977D01*
X273244Y462788D01*
X273481Y461599D01*
X274154Y460591D01*
X275163Y459917D01*
X276352Y459680D01*
X277541Y459917D01*
X278549Y460591D01*
X279223Y461599D01*
X279460Y462788D01*
X279223Y463977D01*
X278549Y464986D01*
X277541Y465659D01*
X276352Y465896D01*
D02*
G37*
G36*
X14224Y468201D02*
X11837Y467887D01*
X9613Y466965D01*
X7702Y465500D01*
X6237Y463589D01*
X5315Y461365D01*
X5001Y458978D01*
X5315Y456591D01*
X6237Y454367D01*
X7702Y452456D01*
X9613Y450991D01*
X11837Y450069D01*
X14224Y449755D01*
X16611Y450069D01*
X18835Y450991D01*
X20746Y452456D01*
X22211Y454367D01*
X23133Y456591D01*
X23447Y458978D01*
X23133Y461365D01*
X22211Y463589D01*
X20746Y465500D01*
X18835Y466965D01*
X16611Y467887D01*
X14224Y468201D01*
D02*
G37*
G36*
X299008Y454416D02*
X297819Y454179D01*
X296810Y453506D01*
X296137Y452497D01*
X295900Y451308D01*
X296137Y450119D01*
X296810Y449110D01*
X297819Y448437D01*
X299008Y448200D01*
X300197Y448437D01*
X301206Y449110D01*
X301879Y450119D01*
X302116Y451308D01*
X301879Y452497D01*
X301206Y453506D01*
X300197Y454179D01*
X299008Y454416D01*
D02*
G37*
G36*
X291794Y442579D02*
X290605Y442343D01*
X289597Y441669D01*
X288923Y440661D01*
X288687Y439472D01*
X288923Y438283D01*
X289597Y437274D01*
X290605Y436601D01*
X291794Y436364D01*
X292983Y436601D01*
X293992Y437274D01*
X294665Y438283D01*
X294902Y439472D01*
X294665Y440661D01*
X293992Y441669D01*
X292983Y442343D01*
X291794Y442579D01*
D02*
G37*
G36*
X252019Y415680D02*
X250830Y415443D01*
X249982Y414877D01*
X249459Y414751D01*
X248888D01*
X248366Y414877D01*
X247519Y415443D01*
X246329Y415680D01*
X245140Y415443D01*
X244293Y414877D01*
X243770Y414751D01*
X243199D01*
X242676Y414877D01*
X241829Y415443D01*
X240640Y415680D01*
X239450Y415443D01*
X238442Y414770D01*
X237768Y413761D01*
X237532Y412572D01*
X237768Y411383D01*
X238442Y410375D01*
X238629Y410250D01*
Y408722D01*
X238442Y408597D01*
X237768Y407589D01*
X237532Y406400D01*
X237768Y405211D01*
X238442Y404202D01*
X239450Y403529D01*
X240640Y403292D01*
X241829Y403529D01*
X242676Y404095D01*
X243199Y404221D01*
X243770D01*
X244293Y404095D01*
X245140Y403529D01*
X245508Y403456D01*
X245562Y403396D01*
X245990Y402065D01*
X245642Y401544D01*
X245406Y400355D01*
X245642Y399165D01*
X246316Y398157D01*
X247324Y397484D01*
X248514Y397247D01*
X249703Y397484D01*
X250711Y398157D01*
X251161Y398830D01*
X251396Y398897D01*
X252337D01*
X252572Y398830D01*
X253022Y398157D01*
X254030Y397484D01*
X255219Y397247D01*
X256409Y397484D01*
X257417Y398157D01*
X258090Y399165D01*
X258327Y400355D01*
X258090Y401544D01*
X257417Y402552D01*
X256409Y403226D01*
X255219Y403462D01*
X254490Y404612D01*
X254890Y405211D01*
X255126Y406400D01*
X254890Y407589D01*
X254216Y408597D01*
X254029Y408722D01*
Y410250D01*
X254216Y410375D01*
X254890Y411383D01*
X255126Y412572D01*
X254890Y413761D01*
X254216Y414770D01*
X253208Y415443D01*
X252019Y415680D01*
D02*
G37*
G36*
X226314Y417618D02*
X224611Y417394D01*
X223024Y416737D01*
X221661Y415691D01*
X220615Y414328D01*
X219958Y412741D01*
X219734Y411038D01*
X219958Y409335D01*
X220615Y407748D01*
X221661Y406385D01*
X223024Y405339D01*
X224611Y404682D01*
X226314Y404458D01*
X228017Y404682D01*
X229604Y405339D01*
X230967Y406385D01*
X232013Y407748D01*
X232670Y409335D01*
X232894Y411038D01*
X232670Y412741D01*
X232013Y414328D01*
X230967Y415691D01*
X229604Y416737D01*
X228017Y417394D01*
X226314Y417618D01*
D02*
G37*
G36*
X203899D02*
X202195Y417394D01*
X200608Y416737D01*
X199246Y415691D01*
X198200Y414328D01*
X197542Y412741D01*
X197318Y411038D01*
X197542Y409335D01*
X198200Y407748D01*
X199246Y406385D01*
X200608Y405339D01*
X202195Y404682D01*
X203899Y404458D01*
X205602Y404682D01*
X207189Y405339D01*
X208551Y406385D01*
X209597Y407748D01*
X210255Y409335D01*
X210479Y411038D01*
X210255Y412741D01*
X209597Y414328D01*
X208551Y415691D01*
X207189Y416737D01*
X205602Y417394D01*
X203899Y417618D01*
D02*
G37*
G36*
X181483D02*
X179780Y417394D01*
X178193Y416737D01*
X176830Y415691D01*
X175784Y414328D01*
X175127Y412741D01*
X174903Y411038D01*
X175127Y409335D01*
X175784Y407748D01*
X176830Y406385D01*
X178193Y405339D01*
X179780Y404682D01*
X181483Y404458D01*
X183186Y404682D01*
X184773Y405339D01*
X186136Y406385D01*
X187182Y407748D01*
X187839Y409335D01*
X188063Y411038D01*
X187839Y412741D01*
X187182Y414328D01*
X186136Y415691D01*
X184773Y416737D01*
X183186Y417394D01*
X181483Y417618D01*
D02*
G37*
G36*
X159067D02*
X157364Y417394D01*
X155777Y416737D01*
X154415Y415691D01*
X153369Y414328D01*
X152711Y412741D01*
X152487Y411038D01*
X152711Y409335D01*
X153369Y407748D01*
X154415Y406385D01*
X155777Y405339D01*
X157364Y404682D01*
X159067Y404458D01*
X160771Y404682D01*
X162358Y405339D01*
X163720Y406385D01*
X164766Y407748D01*
X165424Y409335D01*
X165648Y411038D01*
X165424Y412741D01*
X164766Y414328D01*
X163720Y415691D01*
X162358Y416737D01*
X160771Y417394D01*
X159067Y417618D01*
D02*
G37*
G36*
X136652D02*
X134949Y417394D01*
X133362Y416737D01*
X131999Y415691D01*
X130953Y414328D01*
X130296Y412741D01*
X130072Y411038D01*
X130296Y409335D01*
X130953Y407748D01*
X131999Y406385D01*
X133362Y405339D01*
X134949Y404682D01*
X136652Y404458D01*
X138355Y404682D01*
X139942Y405339D01*
X141305Y406385D01*
X142351Y407748D01*
X143008Y409335D01*
X143232Y411038D01*
X143008Y412741D01*
X142351Y414328D01*
X141305Y415691D01*
X139942Y416737D01*
X138355Y417394D01*
X136652Y417618D01*
D02*
G37*
G36*
X326234Y405092D02*
X325045Y404855D01*
X324036Y404182D01*
X323628Y403570D01*
X322389Y403424D01*
X322159Y403483D01*
X321931Y403824D01*
X320923Y404497D01*
X319734Y404734D01*
X318545Y404497D01*
X317537Y403824D01*
X316863Y402815D01*
X316626Y401626D01*
X316863Y400437D01*
X317537Y399428D01*
X318545Y398755D01*
X319734Y398518D01*
X320923Y398755D01*
X321931Y399428D01*
X322340Y400040D01*
X323579Y400186D01*
X323809Y400127D01*
X324036Y399786D01*
X325045Y399113D01*
X326234Y398876D01*
X327423Y399113D01*
X328432Y399786D01*
X329105Y400795D01*
X329342Y401984D01*
X329105Y403173D01*
X328432Y404182D01*
X327423Y404855D01*
X326234Y405092D01*
D02*
G37*
G36*
X122428Y401634D02*
X121239Y401397D01*
X120231Y400723D01*
X119557Y399715D01*
X119320Y398526D01*
X119557Y397337D01*
X120231Y396329D01*
X121239Y395655D01*
X122428Y395418D01*
X123617Y395655D01*
X124626Y396329D01*
X125299Y397337D01*
X125536Y398526D01*
X125299Y399715D01*
X124626Y400723D01*
X123617Y401397D01*
X122428Y401634D01*
D02*
G37*
G36*
X417068Y404852D02*
X415365Y404628D01*
X413778Y403971D01*
X412415Y402925D01*
X411369Y401562D01*
X410712Y399975D01*
X410488Y398272D01*
X410712Y396569D01*
X411369Y394982D01*
X412415Y393619D01*
X413778Y392573D01*
X415365Y391916D01*
X417068Y391692D01*
X418771Y391916D01*
X420358Y392573D01*
X421721Y393619D01*
X422767Y394982D01*
X423424Y396569D01*
X423648Y398272D01*
X423424Y399975D01*
X422767Y401562D01*
X421721Y402925D01*
X420358Y403971D01*
X418771Y404628D01*
X417068Y404852D01*
D02*
G37*
G36*
X248514Y394928D02*
X247324Y394692D01*
X246316Y394018D01*
X245642Y393010D01*
X245406Y391820D01*
X245642Y390631D01*
X246316Y389623D01*
X247324Y388949D01*
X248514Y388713D01*
X249703Y388949D01*
X250711Y389623D01*
X251385Y390631D01*
X251621Y391820D01*
X251385Y393010D01*
X250711Y394018D01*
X249703Y394692D01*
X248514Y394928D01*
D02*
G37*
G36*
X194818Y396790D02*
X193115Y396566D01*
X191528Y395909D01*
X190165Y394863D01*
X189119Y393500D01*
X188462Y391913D01*
X188238Y390210D01*
X188462Y388507D01*
X189119Y386920D01*
X190165Y385557D01*
X191528Y384511D01*
X193115Y383854D01*
X194818Y383630D01*
X196521Y383854D01*
X198108Y384511D01*
X199471Y385557D01*
X200517Y386920D01*
X201174Y388507D01*
X201398Y390210D01*
X201174Y391913D01*
X200517Y393500D01*
X199471Y394863D01*
X198108Y395909D01*
X196521Y396566D01*
X194818Y396790D01*
D02*
G37*
G36*
X172974D02*
X171271Y396566D01*
X169684Y395909D01*
X168321Y394863D01*
X167275Y393500D01*
X166618Y391913D01*
X166394Y390210D01*
X166618Y388507D01*
X167275Y386920D01*
X168321Y385557D01*
X169684Y384511D01*
X171271Y383854D01*
X172974Y383630D01*
X174677Y383854D01*
X176264Y384511D01*
X177627Y385557D01*
X178673Y386920D01*
X179330Y388507D01*
X179554Y390210D01*
X179330Y391913D01*
X178673Y393500D01*
X177627Y394863D01*
X176264Y395909D01*
X174677Y396566D01*
X172974Y396790D01*
D02*
G37*
G36*
X151130D02*
X149427Y396566D01*
X147840Y395909D01*
X146477Y394863D01*
X145431Y393500D01*
X144774Y391913D01*
X144550Y390210D01*
X144774Y388507D01*
X145431Y386920D01*
X146477Y385557D01*
X147840Y384511D01*
X149427Y383854D01*
X151130Y383630D01*
X152833Y383854D01*
X154420Y384511D01*
X155783Y385557D01*
X156829Y386920D01*
X157486Y388507D01*
X157710Y390210D01*
X157486Y391913D01*
X156829Y393500D01*
X155783Y394863D01*
X154420Y395909D01*
X152833Y396566D01*
X151130Y396790D01*
D02*
G37*
G36*
X217678Y396536D02*
X215975Y396312D01*
X214388Y395655D01*
X213025Y394609D01*
X211979Y393246D01*
X211322Y391659D01*
X211098Y389956D01*
X211322Y388253D01*
X211979Y386666D01*
X213025Y385303D01*
X214388Y384257D01*
X215975Y383600D01*
X217678Y383376D01*
X219381Y383600D01*
X220968Y384257D01*
X222331Y385303D01*
X223377Y386666D01*
X224034Y388253D01*
X224258Y389956D01*
X224034Y391659D01*
X223377Y393246D01*
X222331Y394609D01*
X220968Y395655D01*
X219381Y396312D01*
X217678Y396536D01*
D02*
G37*
G36*
X248514Y386394D02*
X247324Y386157D01*
X246316Y385484D01*
X245642Y384475D01*
X245406Y383286D01*
X245642Y382097D01*
X246316Y381088D01*
X247324Y380415D01*
X248514Y380178D01*
X249703Y380415D01*
X250711Y381088D01*
X251385Y382097D01*
X251621Y383286D01*
X251385Y384475D01*
X250711Y385484D01*
X249703Y386157D01*
X248514Y386394D01*
D02*
G37*
G36*
X131572Y384870D02*
X130383Y384633D01*
X129375Y383960D01*
X128701Y382951D01*
X128464Y381762D01*
X128701Y380573D01*
X129375Y379565D01*
X130383Y378891D01*
X131572Y378654D01*
X132761Y378891D01*
X133770Y379565D01*
X134443Y380573D01*
X134680Y381762D01*
X134443Y382951D01*
X133770Y383960D01*
X132761Y384633D01*
X131572Y384870D01*
D02*
G37*
G36*
X105410Y380044D02*
X104221Y379807D01*
X103212Y379133D01*
X102539Y378125D01*
X102302Y376936D01*
X102539Y375747D01*
X103212Y374739D01*
X104221Y374065D01*
X105410Y373828D01*
X106599Y374065D01*
X107607Y374739D01*
X108281Y375747D01*
X108518Y376936D01*
X108281Y378125D01*
X107607Y379133D01*
X106599Y379807D01*
X105410Y380044D01*
D02*
G37*
G36*
X332994Y377758D02*
X331805Y377521D01*
X330797Y376847D01*
X330123Y375839D01*
X329886Y374650D01*
X330123Y373461D01*
X330797Y372453D01*
X331805Y371779D01*
X332994Y371542D01*
X334183Y371779D01*
X335191Y372453D01*
X335865Y373461D01*
X336102Y374650D01*
X335865Y375839D01*
X335191Y376847D01*
X334183Y377521D01*
X332994Y377758D01*
D02*
G37*
G36*
X417068Y380976D02*
X415365Y380752D01*
X413778Y380095D01*
X412415Y379049D01*
X411369Y377686D01*
X410712Y376099D01*
X410488Y374396D01*
X410712Y372693D01*
X411369Y371106D01*
X412415Y369743D01*
X413778Y368697D01*
X415365Y368040D01*
X417068Y367816D01*
X418771Y368040D01*
X420358Y368697D01*
X421721Y369743D01*
X422767Y371106D01*
X423424Y372693D01*
X423648Y374396D01*
X423424Y376099D01*
X422767Y377686D01*
X421721Y379049D01*
X420358Y380095D01*
X418771Y380752D01*
X417068Y380976D01*
D02*
G37*
G36*
X11684Y380280D02*
X9981Y380056D01*
X8394Y379399D01*
X7031Y378353D01*
X5985Y376990D01*
X5328Y375403D01*
X5104Y373700D01*
X5328Y371997D01*
X5985Y370410D01*
X7031Y369047D01*
X8394Y368001D01*
X9981Y367344D01*
X11684Y367120D01*
X13387Y367344D01*
X14974Y368001D01*
X16337Y369047D01*
X17383Y370410D01*
X18040Y371997D01*
X18264Y373700D01*
X18040Y375403D01*
X17383Y376990D01*
X16337Y378353D01*
X14974Y379399D01*
X13387Y380056D01*
X11684Y380280D01*
D02*
G37*
G36*
X374650Y372170D02*
X373461Y371933D01*
X372453Y371259D01*
X371779Y370251D01*
X371542Y369062D01*
X371779Y367873D01*
X372453Y366865D01*
X373461Y366191D01*
X374650Y365954D01*
X375839Y366191D01*
X376847Y366865D01*
X377521Y367873D01*
X377758Y369062D01*
X377521Y370251D01*
X376847Y371259D01*
X375839Y371933D01*
X374650Y372170D01*
D02*
G37*
G36*
X128524Y355914D02*
X127335Y355677D01*
X126327Y355004D01*
X125653Y353995D01*
X125416Y352806D01*
X125653Y351617D01*
X126327Y350608D01*
X127335Y349935D01*
X128524Y349698D01*
X129713Y349935D01*
X130722Y350608D01*
X131395Y351617D01*
X131632Y352806D01*
X131395Y353995D01*
X130722Y355004D01*
X129713Y355677D01*
X128524Y355914D01*
D02*
G37*
G36*
X137002Y354994D02*
X135813Y354757D01*
X134805Y354084D01*
X134131Y353075D01*
X133894Y351886D01*
X134131Y350697D01*
X134805Y349689D01*
X135813Y349015D01*
X137002Y348778D01*
X138191Y349015D01*
X139199Y349689D01*
X139873Y350697D01*
X140110Y351886D01*
X139873Y353075D01*
X139199Y354084D01*
X138191Y354757D01*
X137002Y354994D01*
D02*
G37*
G36*
X256032Y354898D02*
X254843Y354661D01*
X253834Y353988D01*
X253161Y352979D01*
X252924Y351790D01*
X253161Y350601D01*
X253834Y349593D01*
X254843Y348919D01*
X256032Y348682D01*
X257221Y348919D01*
X258230Y349593D01*
X258903Y350601D01*
X259140Y351790D01*
X258903Y352979D01*
X258230Y353988D01*
X257221Y354661D01*
X256032Y354898D01*
D02*
G37*
G36*
X321818Y350326D02*
X320629Y350089D01*
X319620Y349416D01*
X318947Y348407D01*
X318710Y347218D01*
X318947Y346029D01*
X319620Y345020D01*
X320629Y344347D01*
X321818Y344110D01*
X323007Y344347D01*
X324016Y345020D01*
X324689Y346029D01*
X324926Y347218D01*
X324689Y348407D01*
X324016Y349416D01*
X323007Y350089D01*
X321818Y350326D01*
D02*
G37*
G36*
X230886Y349564D02*
X229697Y349327D01*
X228689Y348653D01*
X228015Y347645D01*
X227778Y346456D01*
X228015Y345267D01*
X228689Y344258D01*
X229697Y343585D01*
X230886Y343348D01*
X232075Y343585D01*
X233083Y344258D01*
X233757Y345267D01*
X233994Y346456D01*
X233757Y347645D01*
X233083Y348653D01*
X232075Y349327D01*
X230886Y349564D01*
D02*
G37*
G36*
X231140Y341182D02*
X229951Y340945D01*
X228943Y340271D01*
X228269Y339263D01*
X228032Y338074D01*
X228269Y336885D01*
X228943Y335877D01*
X229951Y335203D01*
X231140Y334966D01*
X232329Y335203D01*
X233337Y335877D01*
X234011Y336885D01*
X234248Y338074D01*
X234011Y339263D01*
X233337Y340271D01*
X232329Y340945D01*
X231140Y341182D01*
D02*
G37*
G36*
X231140Y332800D02*
X229951Y332563D01*
X228943Y331889D01*
X228269Y330881D01*
X228032Y329692D01*
X228269Y328503D01*
X228943Y327495D01*
X229951Y326821D01*
X231140Y326584D01*
X232329Y326821D01*
X233337Y327495D01*
X234011Y328503D01*
X234248Y329692D01*
X234011Y330881D01*
X233337Y331889D01*
X232329Y332563D01*
X231140Y332800D01*
D02*
G37*
G36*
X351536Y327212D02*
X350347Y326975D01*
X349338Y326301D01*
X348665Y325293D01*
X348428Y324104D01*
X348665Y322915D01*
X349158Y322176D01*
X348678Y321172D01*
X348529Y321007D01*
X347980Y321116D01*
X346791Y320879D01*
X345783Y320205D01*
X345109Y319197D01*
X344872Y318008D01*
X345109Y316819D01*
X345783Y315811D01*
X346791Y315137D01*
X347980Y314900D01*
X349169Y315137D01*
X350177Y315811D01*
X350851Y316819D01*
X351088Y318008D01*
X350851Y319197D01*
X350358Y319936D01*
X350838Y320940D01*
X350987Y321105D01*
X351536Y320996D01*
X352725Y321233D01*
X353733Y321907D01*
X354407Y322915D01*
X354644Y324104D01*
X354407Y325293D01*
X353733Y326301D01*
X352725Y326975D01*
X351536Y327212D01*
D02*
G37*
G36*
X308610Y332462D02*
X306907Y332238D01*
X305320Y331581D01*
X303957Y330535D01*
X302911Y329172D01*
X302254Y327585D01*
X302030Y325882D01*
X302254Y324179D01*
X302911Y322592D01*
X303957Y321229D01*
X305320Y320183D01*
X306907Y319526D01*
X308610Y319302D01*
X310313Y319526D01*
X311900Y320183D01*
X313263Y321229D01*
X314309Y322592D01*
X314966Y324179D01*
X315190Y325882D01*
X314966Y327585D01*
X314309Y329172D01*
X313263Y330535D01*
X311900Y331581D01*
X310313Y332238D01*
X308610Y332462D01*
D02*
G37*
G36*
X242002Y324104D02*
X240813Y323867D01*
X239805Y323194D01*
X239131Y322185D01*
X238894Y320996D01*
X239131Y319807D01*
X239805Y318799D01*
X240813Y318125D01*
X242002Y317888D01*
X243191Y318125D01*
X244200Y318799D01*
X244873Y319807D01*
X245110Y320996D01*
X244873Y322185D01*
X244200Y323194D01*
X243191Y323867D01*
X242002Y324104D01*
D02*
G37*
G36*
X230944Y323968D02*
X229755Y323731D01*
X228747Y323058D01*
X228073Y322049D01*
X227836Y320860D01*
X228073Y319671D01*
X228747Y318663D01*
X229755Y317989D01*
X230944Y317752D01*
X232133Y317989D01*
X233141Y318663D01*
X233815Y319671D01*
X234052Y320860D01*
X233815Y322049D01*
X233141Y323058D01*
X232133Y323731D01*
X230944Y323968D01*
D02*
G37*
G36*
X260096Y322132D02*
X258907Y321895D01*
X257899Y321222D01*
X257225Y320213D01*
X256988Y319024D01*
X257225Y317835D01*
X257899Y316826D01*
X258907Y316153D01*
X260096Y315916D01*
X261285Y316153D01*
X262293Y316826D01*
X262967Y317835D01*
X263204Y319024D01*
X262967Y320213D01*
X262293Y321222D01*
X261285Y321895D01*
X260096Y322132D01*
D02*
G37*
G36*
X24892Y316290D02*
X23703Y316053D01*
X22926Y315534D01*
X22098Y315444D01*
X21270Y315534D01*
X20493Y316053D01*
X19304Y316290D01*
X18115Y316053D01*
X17338Y315534D01*
X16510Y315444D01*
X15682Y315534D01*
X14905Y316053D01*
X13716Y316290D01*
X12527Y316053D01*
X11518Y315380D01*
X11432Y315250D01*
X9904D01*
X9818Y315380D01*
X8809Y316053D01*
X7620Y316290D01*
X6431Y316053D01*
X5422Y315380D01*
X4749Y314371D01*
X4512Y313182D01*
X4749Y311993D01*
X5422Y310984D01*
X6431Y310311D01*
X7620Y310074D01*
X8809Y310311D01*
X9818Y310984D01*
X9904Y311114D01*
X11432D01*
X11518Y310984D01*
X12527Y310311D01*
X12842Y310248D01*
Y308953D01*
X12781Y308941D01*
X11773Y308267D01*
X11099Y307259D01*
X10862Y306070D01*
X11099Y304881D01*
X11773Y303873D01*
X12781Y303199D01*
X13970Y302962D01*
X15159Y303199D01*
X15936Y303718D01*
X16764Y303808D01*
X17592Y303718D01*
X18369Y303199D01*
X19558Y302962D01*
X20747Y303199D01*
X21524Y303718D01*
X22352Y303808D01*
X23180Y303718D01*
X23957Y303199D01*
X25146Y302962D01*
X26335Y303199D01*
X27343Y303873D01*
X27564Y304202D01*
X29079D01*
X29299Y303873D01*
X30307Y303199D01*
X31496Y302962D01*
X32685Y303199D01*
X33462Y303718D01*
X34290Y303808D01*
X35118Y303718D01*
X35895Y303199D01*
X37084Y302962D01*
X38273Y303199D01*
X39050Y303718D01*
X39878Y303808D01*
X40706Y303718D01*
X41483Y303199D01*
X42672Y302962D01*
X43861Y303199D01*
X44869Y303873D01*
X45543Y304881D01*
X45780Y306070D01*
X45543Y307259D01*
X44869Y308267D01*
X43861Y308941D01*
X42672Y309178D01*
X41483Y308941D01*
X40706Y308422D01*
X39878Y308332D01*
X39050Y308422D01*
X38273Y308941D01*
X37084Y309178D01*
X35895Y308941D01*
X35118Y308422D01*
X34290Y308332D01*
X33462Y308422D01*
X32685Y308941D01*
X31496Y309178D01*
X30307Y308941D01*
X29299Y308267D01*
X29079Y307938D01*
X27564D01*
X27343Y308267D01*
X26335Y308941D01*
X26020Y309004D01*
Y310299D01*
X26081Y310311D01*
X27090Y310984D01*
X27763Y311993D01*
X28000Y313182D01*
X27763Y314371D01*
X27090Y315380D01*
X26081Y316053D01*
X24892Y316290D01*
D02*
G37*
G36*
X266446D02*
X265257Y316053D01*
X264249Y315380D01*
X263575Y314371D01*
X263338Y313182D01*
X263575Y311993D01*
X264249Y310984D01*
X265257Y310311D01*
X266446Y310074D01*
X267635Y310311D01*
X268643Y310984D01*
X269317Y311993D01*
X269554Y313182D01*
X269317Y314371D01*
X268643Y315380D01*
X267635Y316053D01*
X266446Y316290D01*
D02*
G37*
G36*
X68072Y325180D02*
X66883Y324943D01*
X65875Y324269D01*
X65201Y323261D01*
X64964Y322072D01*
X65201Y320883D01*
X65720Y320106D01*
X65810Y319278D01*
X65720Y318450D01*
X65201Y317673D01*
X64964Y316484D01*
X65201Y315295D01*
X65720Y314518D01*
X65810Y313690D01*
X65720Y312862D01*
X65201Y312085D01*
X64964Y310896D01*
X65201Y309707D01*
X65875Y308699D01*
X66883Y308025D01*
X68072Y307788D01*
X69261Y308025D01*
X70269Y308699D01*
X70943Y309707D01*
X71180Y310896D01*
X70943Y312085D01*
X70424Y312862D01*
X70334Y313690D01*
X70424Y314518D01*
X70943Y315295D01*
X71180Y316484D01*
X70943Y317673D01*
X70424Y318450D01*
X70334Y319278D01*
X70424Y320106D01*
X70943Y320883D01*
X71180Y322072D01*
X70943Y323261D01*
X70269Y324269D01*
X69261Y324943D01*
X68072Y325180D01*
D02*
G37*
G36*
X304298Y312505D02*
X302595Y312281D01*
X301008Y311623D01*
X299645Y310578D01*
X298599Y309215D01*
X297942Y307628D01*
X297718Y305925D01*
X297942Y304222D01*
X298599Y302635D01*
X299645Y301272D01*
X301008Y300226D01*
X302595Y299569D01*
X304298Y299345D01*
X306001Y299569D01*
X307588Y300226D01*
X308951Y301272D01*
X309997Y302635D01*
X310654Y304222D01*
X310878Y305925D01*
X310654Y307628D01*
X309997Y309215D01*
X308951Y310578D01*
X307588Y311623D01*
X306001Y312281D01*
X304298Y312505D01*
D02*
G37*
G36*
X400050Y302828D02*
X398861Y302591D01*
X397853Y301917D01*
X397179Y300909D01*
X396942Y299720D01*
X397179Y298531D01*
X397853Y297523D01*
X398861Y296849D01*
X400050Y296612D01*
X401239Y296849D01*
X402248Y297523D01*
X402921Y298531D01*
X403158Y299720D01*
X402921Y300909D01*
X402248Y301917D01*
X401239Y302591D01*
X400050Y302828D01*
D02*
G37*
G36*
X171450Y301812D02*
X170261Y301575D01*
X169252Y300902D01*
X168579Y299893D01*
X168342Y298704D01*
X168579Y297515D01*
X169252Y296507D01*
X170261Y295833D01*
X171450Y295596D01*
X172639Y295833D01*
X173647Y296507D01*
X174321Y297515D01*
X174558Y298704D01*
X174321Y299893D01*
X173647Y300902D01*
X172639Y301575D01*
X171450Y301812D01*
D02*
G37*
G36*
X122428Y301558D02*
X121239Y301321D01*
X120231Y300648D01*
X119557Y299639D01*
X119320Y298450D01*
X119557Y297261D01*
X120231Y296252D01*
X121239Y295579D01*
X122428Y295342D01*
X123617Y295579D01*
X124626Y296252D01*
X125299Y297261D01*
X125536Y298450D01*
X125299Y299639D01*
X124626Y300648D01*
X123617Y301321D01*
X122428Y301558D01*
D02*
G37*
G36*
X74930Y297494D02*
X73741Y297257D01*
X72733Y296583D01*
X72059Y295575D01*
X71822Y294386D01*
X72059Y293197D01*
X72733Y292188D01*
X73741Y291515D01*
X74930Y291278D01*
X76119Y291515D01*
X77127Y292188D01*
X77801Y293197D01*
X78038Y294386D01*
X77801Y295575D01*
X77127Y296583D01*
X76119Y297257D01*
X74930Y297494D01*
D02*
G37*
G36*
X159512Y292668D02*
X158323Y292431D01*
X157315Y291758D01*
X156641Y290749D01*
X156404Y289560D01*
X156641Y288371D01*
X157315Y287362D01*
X158323Y286689D01*
X159512Y286452D01*
X160701Y286689D01*
X161709Y287362D01*
X162383Y288371D01*
X162620Y289560D01*
X162383Y290749D01*
X161709Y291758D01*
X160701Y292431D01*
X159512Y292668D01*
D02*
G37*
G36*
X334137Y283016D02*
X332948Y282779D01*
X331940Y282106D01*
X331916Y282071D01*
X330389D01*
X330365Y282106D01*
X329357Y282779D01*
X328168Y283016D01*
X326979Y282779D01*
X325970Y282106D01*
X325947Y282071D01*
X324420D01*
X324397Y282106D01*
X323388Y282779D01*
X322199Y283016D01*
X321010Y282779D01*
X320001Y282106D01*
X319328Y281097D01*
X319091Y279908D01*
X319328Y278719D01*
X320001Y277710D01*
X321010Y277037D01*
X322199Y276800D01*
X323388Y277037D01*
X324397Y277710D01*
X324420Y277745D01*
X325947D01*
X325970Y277710D01*
X326979Y277037D01*
X328168Y276800D01*
X329357Y277037D01*
X330365Y277710D01*
X330389Y277745D01*
X331916D01*
X331940Y277710D01*
X332948Y277037D01*
X334137Y276800D01*
X335326Y277037D01*
X336334Y277710D01*
X337008Y278719D01*
X337245Y279908D01*
X337008Y281097D01*
X336334Y282106D01*
X335326Y282779D01*
X334137Y283016D01*
D02*
G37*
G36*
X366141Y282762D02*
X364952Y282525D01*
X363943Y281852D01*
X363920Y281817D01*
X362393D01*
X362369Y281852D01*
X361361Y282525D01*
X360172Y282762D01*
X358983Y282525D01*
X357975Y281852D01*
X357951Y281817D01*
X356424D01*
X356400Y281852D01*
X355392Y282525D01*
X354203Y282762D01*
X353014Y282525D01*
X352006Y281852D01*
X351332Y280843D01*
X351095Y279654D01*
X351332Y278465D01*
X352006Y277456D01*
X353014Y276783D01*
X354203Y276546D01*
X355392Y276783D01*
X356400Y277456D01*
X356424Y277491D01*
X357951D01*
X357975Y277456D01*
X358983Y276783D01*
X360172Y276546D01*
X361361Y276783D01*
X362369Y277456D01*
X362393Y277491D01*
X363920D01*
X363943Y277456D01*
X364952Y276783D01*
X366141Y276546D01*
X367330Y276783D01*
X368339Y277456D01*
X369012Y278465D01*
X369249Y279654D01*
X369012Y280843D01*
X368339Y281852D01*
X367330Y282525D01*
X366141Y282762D01*
D02*
G37*
G36*
X304298Y292294D02*
X302595Y292070D01*
X301008Y291412D01*
X299645Y290367D01*
X298599Y289004D01*
X297942Y287417D01*
X297718Y285714D01*
X297942Y284011D01*
X298599Y282424D01*
X299645Y281061D01*
X301008Y280015D01*
X302595Y279358D01*
X304298Y279133D01*
X306001Y279358D01*
X307588Y280015D01*
X308951Y281061D01*
X309997Y282424D01*
X310654Y284011D01*
X310878Y285714D01*
X310654Y287417D01*
X309997Y289004D01*
X308951Y290367D01*
X307588Y291412D01*
X306001Y292070D01*
X304298Y292294D01*
D02*
G37*
G36*
X257302Y284540D02*
X256113Y284303D01*
X255105Y283629D01*
X254431Y282621D01*
X254194Y281432D01*
X254431Y280243D01*
X255105Y279235D01*
X256113Y278561D01*
X257302Y278324D01*
X258491Y278561D01*
X259499Y279235D01*
X260690Y278730D01*
X260693Y278727D01*
X261701Y278053D01*
X262890Y277816D01*
X264079Y278053D01*
X265088Y278727D01*
X265761Y279735D01*
X265998Y280924D01*
X265761Y282113D01*
X265088Y283121D01*
X264079Y283795D01*
X262890Y284032D01*
X261701Y283795D01*
X260693Y283121D01*
X259502Y283626D01*
X259499Y283629D01*
X258491Y284303D01*
X257302Y284540D01*
D02*
G37*
G36*
X369824Y300288D02*
X368635Y300051D01*
X367626Y299377D01*
X366953Y298369D01*
X366716Y297180D01*
X366953Y295991D01*
X367626Y294982D01*
X368635Y294309D01*
X369824Y294072D01*
X369991Y293933D01*
X370695Y292951D01*
X370526Y292100D01*
X370763Y290911D01*
X371437Y289902D01*
X372445Y289229D01*
X373634Y288992D01*
X374823Y289229D01*
X375441Y289642D01*
X376357Y288726D01*
X376351Y288717D01*
X376114Y287528D01*
X376351Y286339D01*
X376518Y286089D01*
X376933Y285115D01*
X376518Y284142D01*
X376351Y283891D01*
X376114Y282702D01*
X376351Y281513D01*
X376518Y281262D01*
X376933Y280289D01*
X376518Y279315D01*
X376351Y279065D01*
X376114Y277876D01*
X376351Y276687D01*
X377024Y275679D01*
X378033Y275005D01*
X379222Y274768D01*
X380411Y275005D01*
X381419Y275679D01*
X381443Y275713D01*
X382970D01*
X382994Y275679D01*
X384002Y275005D01*
X385191Y274768D01*
X386380Y275005D01*
X387388Y275679D01*
X387412Y275713D01*
X388939D01*
X388963Y275679D01*
X389971Y275005D01*
X391160Y274768D01*
X392349Y275005D01*
X393358Y275679D01*
X394031Y276687D01*
X394268Y277876D01*
X394031Y279065D01*
X393864Y279315D01*
X393449Y280289D01*
X393864Y281262D01*
X394031Y281513D01*
X394268Y282702D01*
X394031Y283891D01*
X393864Y284142D01*
X393449Y285115D01*
X393864Y286089D01*
X394031Y286339D01*
X394268Y287528D01*
X394031Y288717D01*
X393358Y289725D01*
X392349Y290399D01*
X391160Y290636D01*
X389971Y290399D01*
X388963Y289725D01*
X387515D01*
X386507Y290399D01*
X385318Y290636D01*
X384129Y290399D01*
X383120Y289725D01*
X383034Y289596D01*
X381506D01*
X381419Y289725D01*
X380411Y290399D01*
X379222Y290636D01*
X378033Y290399D01*
X377415Y289986D01*
X376499Y290902D01*
X376505Y290911D01*
X376742Y292100D01*
X376505Y293289D01*
X375831Y294298D01*
X374823Y294971D01*
X373634Y295208D01*
X373467Y295347D01*
X372762Y296329D01*
X372932Y297180D01*
X372695Y298369D01*
X372021Y299377D01*
X371013Y300051D01*
X369824Y300288D01*
D02*
G37*
G36*
X277114Y273110D02*
X275925Y272873D01*
X274916Y272199D01*
X274243Y271191D01*
X274006Y270002D01*
X274243Y268813D01*
X274916Y267805D01*
X275925Y267131D01*
X277114Y266894D01*
X278303Y267131D01*
X279312Y267805D01*
X279985Y268813D01*
X280222Y270002D01*
X279985Y271191D01*
X279312Y272199D01*
X278303Y272873D01*
X277114Y273110D01*
D02*
G37*
G36*
X304298Y271756D02*
X302595Y271532D01*
X301008Y270875D01*
X299645Y269829D01*
X298599Y268466D01*
X297942Y266879D01*
X297718Y265176D01*
X297942Y263473D01*
X298599Y261886D01*
X299645Y260523D01*
X301008Y259477D01*
X302595Y258820D01*
X304298Y258596D01*
X306001Y258820D01*
X307588Y259477D01*
X308951Y260523D01*
X309997Y261886D01*
X310654Y263473D01*
X310878Y265176D01*
X310654Y266879D01*
X309997Y268466D01*
X308951Y269829D01*
X307588Y270875D01*
X306001Y271532D01*
X304298Y271756D01*
D02*
G37*
G36*
X333502Y258378D02*
X332313Y258141D01*
X331305Y257467D01*
X331281Y257433D01*
X329754D01*
X329730Y257467D01*
X328722Y258141D01*
X327533Y258378D01*
X326344Y258141D01*
X325336Y257467D01*
X325312Y257433D01*
X323785D01*
X323761Y257467D01*
X322753Y258141D01*
X321564Y258378D01*
X320375Y258141D01*
X319366Y257467D01*
X318693Y256459D01*
X318456Y255270D01*
X318693Y254081D01*
X319366Y253072D01*
X320375Y252399D01*
X321564Y252162D01*
X322753Y252399D01*
X323761Y253072D01*
X323785Y253107D01*
X325136D01*
X325843Y252474D01*
X325881Y252056D01*
X325703Y251107D01*
X324370Y250555D01*
X323007Y249509D01*
X321961Y248146D01*
X321304Y246559D01*
X321080Y244856D01*
X321304Y243153D01*
X321961Y241566D01*
X323007Y240203D01*
X324370Y239157D01*
X325957Y238500D01*
X327660Y238276D01*
X329363Y238500D01*
X330950Y239157D01*
X332313Y240203D01*
X333359Y241566D01*
X334016Y243153D01*
X334240Y244856D01*
X334016Y246559D01*
X333359Y248146D01*
X332313Y249509D01*
X330950Y250555D01*
X329555Y251133D01*
X329342Y251887D01*
X329323Y252498D01*
X329979Y253107D01*
X331281D01*
X331305Y253072D01*
X332313Y252399D01*
X333502Y252162D01*
X334691Y252399D01*
X335700Y253072D01*
X336373Y254081D01*
X336610Y255270D01*
X336373Y256459D01*
X335700Y257467D01*
X334691Y258141D01*
X333502Y258378D01*
D02*
G37*
G36*
X365506Y262612D02*
X363803Y262388D01*
X362216Y261731D01*
X360853Y260685D01*
X359807Y259322D01*
X359150Y257735D01*
X358926Y256032D01*
X359150Y254329D01*
X359807Y252742D01*
X360853Y251379D01*
X362216Y250333D01*
X363803Y249676D01*
X365506Y249452D01*
X367209Y249676D01*
X368796Y250333D01*
X370159Y251379D01*
X371205Y252742D01*
X371862Y254329D01*
X372086Y256032D01*
X371862Y257735D01*
X371205Y259322D01*
X370159Y260685D01*
X368796Y261731D01*
X367209Y262388D01*
X365506Y262612D01*
D02*
G37*
G36*
X392557Y246186D02*
X391368Y245949D01*
X390359Y245275D01*
X390336Y245241D01*
X388809D01*
X388786Y245275D01*
X387777Y245949D01*
X386588Y246186D01*
X385399Y245949D01*
X384390Y245275D01*
X384367Y245241D01*
X382840D01*
X382817Y245275D01*
X381808Y245949D01*
X380619Y246186D01*
X379430Y245949D01*
X378422Y245275D01*
X377748Y244267D01*
X377511Y243078D01*
X377748Y241889D01*
X378422Y240881D01*
X379430Y240207D01*
X380619Y239970D01*
X381808Y240207D01*
X382817Y240881D01*
X382840Y240915D01*
X384367D01*
X384390Y240881D01*
X385399Y240207D01*
X386588Y239970D01*
X387777Y240207D01*
X388786Y240881D01*
X388809Y240915D01*
X390336D01*
X390359Y240881D01*
X391368Y240207D01*
X392557Y239970D01*
X393746Y240207D01*
X394754Y240881D01*
X395428Y241889D01*
X395665Y243078D01*
X395428Y244267D01*
X394754Y245275D01*
X393746Y245949D01*
X392557Y246186D01*
D02*
G37*
G36*
X304298Y251872D02*
X302595Y251647D01*
X301008Y250990D01*
X299645Y249944D01*
X298599Y248582D01*
X297942Y246994D01*
X297718Y245291D01*
X297942Y243588D01*
X298599Y242001D01*
X299645Y240639D01*
X301008Y239593D01*
X302595Y238935D01*
X304298Y238711D01*
X306001Y238935D01*
X307588Y239593D01*
X308951Y240639D01*
X309997Y242001D01*
X310654Y243588D01*
X310878Y245291D01*
X310654Y246994D01*
X309997Y248582D01*
X308951Y249944D01*
X307588Y250990D01*
X306001Y251647D01*
X304298Y251872D01*
D02*
G37*
G36*
X392557Y236703D02*
X391368Y236467D01*
X390359Y235793D01*
X390336Y235758D01*
X388809D01*
X388786Y235793D01*
X387777Y236467D01*
X386588Y236703D01*
X385399Y236467D01*
X384390Y235793D01*
X384367Y235758D01*
X382840D01*
X382817Y235793D01*
X381808Y236467D01*
X380619Y236703D01*
X379430Y236467D01*
X378422Y235793D01*
X377748Y234785D01*
X377511Y233595D01*
X377748Y232406D01*
X378422Y231398D01*
X379430Y230724D01*
X380619Y230488D01*
X381808Y230724D01*
X382817Y231398D01*
X382840Y231433D01*
X384367D01*
X384390Y231398D01*
X385399Y230724D01*
X386588Y230488D01*
X387777Y230724D01*
X388786Y231398D01*
X388809Y231433D01*
X390336D01*
X390359Y231398D01*
X391368Y230724D01*
X392557Y230488D01*
X393746Y230724D01*
X394754Y231398D01*
X395428Y232406D01*
X395665Y233595D01*
X395428Y234785D01*
X394754Y235793D01*
X393746Y236467D01*
X392557Y236703D01*
D02*
G37*
G36*
X363970Y242817D02*
X352970D01*
X351136Y242575D01*
X349428Y241868D01*
X347960Y240742D01*
X346834Y239274D01*
X346127Y237566D01*
X345885Y235732D01*
X346127Y233898D01*
X346834Y232190D01*
X347960Y230722D01*
X349428Y229597D01*
X351136Y228889D01*
X352970Y228647D01*
X363970D01*
X365804Y228889D01*
X367512Y229597D01*
X368980Y230722D01*
X370106Y232190D01*
X370813Y233898D01*
X371055Y235732D01*
X370813Y237566D01*
X370106Y239274D01*
X368980Y240742D01*
X367512Y241868D01*
X365804Y242575D01*
X363970Y242817D01*
D02*
G37*
G36*
X418570Y243825D02*
X405570D01*
X403475Y243549D01*
X401523Y242741D01*
X399847Y241455D01*
X398561Y239779D01*
X397752Y237827D01*
X397477Y235732D01*
X397752Y233637D01*
X398561Y231685D01*
X399847Y230009D01*
X401523Y228723D01*
X403475Y227915D01*
X405570Y227639D01*
X418570D01*
X420665Y227915D01*
X422617Y228723D01*
X424293Y230009D01*
X425579Y231685D01*
X426387Y233637D01*
X426663Y235732D01*
X426387Y237827D01*
X425579Y239779D01*
X424293Y241455D01*
X422617Y242741D01*
X420665Y243549D01*
X418570Y243825D01*
D02*
G37*
G36*
X74168Y232724D02*
X72979Y232487D01*
X71971Y231814D01*
X71297Y230805D01*
X71060Y229616D01*
X71297Y228427D01*
X71971Y227418D01*
X72979Y226745D01*
X74168Y226508D01*
X75357Y226745D01*
X76365Y227418D01*
X77039Y228427D01*
X77276Y229616D01*
X77039Y230805D01*
X76365Y231814D01*
X75357Y232487D01*
X74168Y232724D01*
D02*
G37*
G36*
X392557Y227220D02*
X391368Y226984D01*
X390359Y226310D01*
X390336Y226275D01*
X388809D01*
X388786Y226310D01*
X387777Y226984D01*
X386588Y227220D01*
X385399Y226984D01*
X384390Y226310D01*
X384367Y226275D01*
X382840D01*
X382817Y226310D01*
X381808Y226984D01*
X380619Y227220D01*
X379430Y226984D01*
X378422Y226310D01*
X377748Y225302D01*
X377511Y224113D01*
X377748Y222923D01*
X378422Y221915D01*
X379430Y221241D01*
X380619Y221005D01*
X381808Y221241D01*
X382817Y221915D01*
X382840Y221950D01*
X384367D01*
X384390Y221915D01*
X385399Y221241D01*
X386588Y221005D01*
X387777Y221241D01*
X388786Y221915D01*
X388809Y221950D01*
X390336D01*
X390359Y221915D01*
X391368Y221241D01*
X392557Y221005D01*
X393746Y221241D01*
X394754Y221915D01*
X395428Y222923D01*
X395665Y224113D01*
X395428Y225302D01*
X394754Y226310D01*
X393746Y226984D01*
X392557Y227220D01*
D02*
G37*
G36*
X113284Y234502D02*
X112095Y234265D01*
X111087Y233591D01*
X110413Y232583D01*
X110176Y231394D01*
X110413Y230205D01*
X110985Y229348D01*
X111065Y229078D01*
X110835Y227837D01*
X110324Y227495D01*
X109651Y226487D01*
X109414Y225298D01*
X109651Y224109D01*
X110324Y223100D01*
X111333Y222427D01*
X112522Y222190D01*
X113711Y222427D01*
X114719Y223100D01*
X115393Y224109D01*
X115630Y225298D01*
X115393Y226487D01*
X114821Y227344D01*
X114741Y227614D01*
X114971Y228855D01*
X115482Y229196D01*
X116155Y230205D01*
X116392Y231394D01*
X116155Y232583D01*
X115482Y233591D01*
X114473Y234265D01*
X113284Y234502D01*
D02*
G37*
G36*
X304298Y231661D02*
X302595Y231436D01*
X301008Y230779D01*
X299645Y229733D01*
X298599Y228370D01*
X297942Y226783D01*
X297718Y225080D01*
X297942Y223377D01*
X298599Y221790D01*
X299645Y220427D01*
X301008Y219382D01*
X302595Y218724D01*
X304298Y218500D01*
X306001Y218724D01*
X307588Y219382D01*
X308951Y220427D01*
X309997Y221790D01*
X310654Y223377D01*
X310878Y225080D01*
X310654Y226783D01*
X309997Y228370D01*
X308951Y229733D01*
X307588Y230779D01*
X306001Y231436D01*
X304298Y231661D01*
D02*
G37*
G36*
X399034Y223326D02*
X397845Y223089D01*
X396837Y222416D01*
X396163Y221407D01*
X395926Y220218D01*
X396163Y219029D01*
X396837Y218020D01*
Y217300D01*
X396226Y216723D01*
X394754Y216828D01*
X393746Y217501D01*
X392557Y217738D01*
X391368Y217501D01*
X390359Y216828D01*
X390336Y216793D01*
X388809D01*
X388786Y216828D01*
X387777Y217501D01*
X386588Y217738D01*
X385399Y217501D01*
X384390Y216828D01*
X384367Y216793D01*
X382840D01*
X382817Y216828D01*
X381808Y217501D01*
X380619Y217738D01*
X379430Y217501D01*
X378422Y216828D01*
X377748Y215819D01*
X377511Y214630D01*
X377748Y213441D01*
X378422Y212432D01*
X379430Y211759D01*
X380619Y211522D01*
X381808Y211759D01*
X382817Y212432D01*
X382840Y212467D01*
X384367D01*
X384390Y212432D01*
X385399Y211759D01*
X386588Y211522D01*
X387777Y211759D01*
X388786Y212432D01*
X388809Y212467D01*
X390336D01*
X390359Y212432D01*
X391368Y211759D01*
X392557Y211522D01*
X393746Y211759D01*
X394754Y212432D01*
X395005Y212808D01*
X395113Y212843D01*
X396474Y212721D01*
X396837Y212178D01*
X397845Y211505D01*
X399034Y211268D01*
X400223Y211505D01*
X401231Y212178D01*
X401905Y213187D01*
X402142Y214376D01*
X401905Y215565D01*
X401231Y216574D01*
Y218020D01*
X401905Y219029D01*
X402142Y220218D01*
X401905Y221407D01*
X401231Y222416D01*
X400223Y223089D01*
X399034Y223326D01*
D02*
G37*
G36*
X75184Y222818D02*
X73995Y222581D01*
X72986Y221908D01*
X72313Y220899D01*
X72076Y219710D01*
X72313Y218521D01*
X72986Y217512D01*
X73995Y216839D01*
X75184Y216602D01*
X76373Y216839D01*
X77382Y217512D01*
X78055Y218521D01*
X78292Y219710D01*
X78055Y220899D01*
X77382Y221908D01*
X76373Y222581D01*
X75184Y222818D01*
D02*
G37*
G36*
X6604Y220786D02*
X5415Y220549D01*
X4406Y219876D01*
X3733Y218867D01*
X3496Y217678D01*
X3733Y216489D01*
X4406Y215480D01*
X5415Y214807D01*
X6604Y214570D01*
X7793Y214807D01*
X8802Y215480D01*
X9475Y216489D01*
X9712Y217678D01*
X9475Y218867D01*
X8802Y219876D01*
X7793Y220549D01*
X6604Y220786D01*
D02*
G37*
G36*
X338582Y219516D02*
X337393Y219279D01*
X336385Y218605D01*
X335711Y217597D01*
X335474Y216408D01*
X335711Y215219D01*
X336385Y214210D01*
X337393Y213537D01*
X338582Y213300D01*
X339771Y213537D01*
X340779Y214210D01*
X341453Y215219D01*
X341690Y216408D01*
X341453Y217597D01*
X340779Y218605D01*
X339771Y219279D01*
X338582Y219516D01*
D02*
G37*
G36*
X40132Y207324D02*
X38943Y207087D01*
X37935Y206413D01*
X37261Y205405D01*
X37024Y204216D01*
X37261Y203027D01*
X37935Y202019D01*
X38943Y201345D01*
X40132Y201108D01*
X41321Y201345D01*
X42330Y202019D01*
X43003Y203027D01*
X43240Y204216D01*
X43003Y205405D01*
X42330Y206413D01*
X41321Y207087D01*
X40132Y207324D01*
D02*
G37*
G36*
X304298Y211449D02*
X302595Y211225D01*
X301008Y210568D01*
X299645Y209522D01*
X298599Y208159D01*
X297942Y206572D01*
X297718Y204869D01*
X297942Y203166D01*
X298599Y201579D01*
X299645Y200216D01*
X301008Y199170D01*
X302595Y198513D01*
X304298Y198289D01*
X306001Y198513D01*
X307588Y199170D01*
X308951Y200216D01*
X309997Y201579D01*
X310654Y203166D01*
X310878Y204869D01*
X310654Y206572D01*
X309997Y208159D01*
X308951Y209522D01*
X307588Y210568D01*
X306001Y211225D01*
X304298Y211449D01*
D02*
G37*
G36*
X166661Y197164D02*
X165472Y196927D01*
X164502Y196279D01*
X163532Y196927D01*
X162343Y197164D01*
X161154Y196927D01*
X160146Y196254D01*
X159472Y195245D01*
X159235Y194056D01*
X159472Y192867D01*
X160146Y191859D01*
X161154Y191185D01*
X162343Y190948D01*
X163532Y191185D01*
X164502Y191833D01*
X165472Y191185D01*
X166661Y190948D01*
X167850Y191185D01*
X168859Y191859D01*
X169532Y192867D01*
X169769Y194056D01*
X169532Y195245D01*
X168859Y196254D01*
X167850Y196927D01*
X166661Y197164D01*
D02*
G37*
G36*
X268050Y201148D02*
X266861Y200911D01*
X265853Y200238D01*
X265179Y199229D01*
X264942Y198040D01*
X265179Y196851D01*
X265853Y195842D01*
X266861Y195169D01*
X268050Y194932D01*
X269239Y195169D01*
X270247Y195842D01*
X270921Y196851D01*
X271158Y198040D01*
X270921Y199229D01*
X270247Y200238D01*
X269239Y200911D01*
X268050Y201148D01*
D02*
G37*
G36*
X345948Y195386D02*
X344759Y195149D01*
X343750Y194475D01*
X343077Y193467D01*
X342840Y192278D01*
X343077Y191089D01*
X343750Y190081D01*
X344759Y189407D01*
X345948Y189170D01*
X347137Y189407D01*
X348145Y190081D01*
X348819Y191089D01*
X349056Y192278D01*
X348819Y193467D01*
X348145Y194475D01*
X347137Y195149D01*
X345948Y195386D01*
D02*
G37*
G36*
X263652Y195132D02*
X262463Y194895D01*
X261455Y194221D01*
X260781Y193213D01*
X260544Y192024D01*
X260781Y190835D01*
X261455Y189827D01*
X262463Y189153D01*
X263652Y188916D01*
X264841Y189153D01*
X265849Y189827D01*
X266523Y190835D01*
X266760Y192024D01*
X266523Y193213D01*
X265849Y194221D01*
X264841Y194895D01*
X263652Y195132D01*
D02*
G37*
G36*
X38862Y195081D02*
X37673Y194844D01*
X36665Y194171D01*
X35991Y193162D01*
X35754Y191973D01*
X35991Y190784D01*
X36665Y189776D01*
X37673Y189102D01*
X38862Y188866D01*
X40051Y189102D01*
X41059Y189776D01*
X41733Y190784D01*
X41970Y191973D01*
X41733Y193162D01*
X41059Y194171D01*
X40051Y194844D01*
X38862Y195081D01*
D02*
G37*
G36*
X404876Y194370D02*
X403687Y194133D01*
X402678Y193459D01*
X402005Y192451D01*
X401768Y191262D01*
X402005Y190073D01*
X402678Y189065D01*
X403480Y188529D01*
X403594Y187839D01*
Y187827D01*
X403480Y187137D01*
X402678Y186602D01*
X402005Y185593D01*
X401768Y184404D01*
X402005Y183215D01*
X402678Y182206D01*
X403687Y181533D01*
X404876Y181296D01*
X406065Y181533D01*
X407073Y182206D01*
X407747Y183215D01*
X407868Y183824D01*
X408913Y184510D01*
X409208Y184544D01*
X410210Y184344D01*
X411399Y184581D01*
X412407Y185254D01*
X413081Y186263D01*
X413318Y187452D01*
X413081Y188641D01*
X412407Y189650D01*
X411399Y190323D01*
X410210Y190560D01*
X409021Y190323D01*
X407960Y191142D01*
X407984Y191262D01*
X407747Y192451D01*
X407073Y193459D01*
X406065Y194133D01*
X404876Y194370D01*
D02*
G37*
G36*
X345948Y187596D02*
X344759Y187360D01*
X343750Y186686D01*
X343077Y185678D01*
X342840Y184489D01*
X343077Y183299D01*
X343750Y182291D01*
X344759Y181618D01*
X345948Y181381D01*
X347137Y181618D01*
X348145Y182291D01*
X348819Y183299D01*
X349056Y184489D01*
X348819Y185678D01*
X348145Y186686D01*
X347137Y187360D01*
X345948Y187596D01*
D02*
G37*
G36*
X395817Y194370D02*
X394627Y194133D01*
X393619Y193459D01*
X392946Y192451D01*
X392709Y191262D01*
X392946Y190073D01*
X393619Y189065D01*
X394421Y188529D01*
X394534Y187839D01*
Y187827D01*
X394421Y187137D01*
X393619Y186602D01*
X392946Y185593D01*
X392709Y184404D01*
X392946Y183215D01*
X393619Y182206D01*
X394627Y181533D01*
X395817Y181296D01*
X397006Y181533D01*
X398014Y182206D01*
X398688Y183215D01*
X398924Y184404D01*
X398688Y185593D01*
X398014Y186602D01*
X397213Y187137D01*
X397099Y187827D01*
Y187839D01*
X397213Y188529D01*
X398014Y189065D01*
X398688Y190073D01*
X398924Y191262D01*
X398688Y192451D01*
X398014Y193459D01*
X397006Y194133D01*
X395817Y194370D01*
D02*
G37*
G36*
X386757D02*
X385568Y194133D01*
X384560Y193459D01*
X383886Y192451D01*
X383650Y191262D01*
X383886Y190073D01*
X384560Y189065D01*
X385361Y188529D01*
X385475Y187839D01*
Y187827D01*
X385361Y187137D01*
X384560Y186602D01*
X383886Y185593D01*
X383650Y184404D01*
X383886Y183215D01*
X384560Y182206D01*
X385568Y181533D01*
X386757Y181296D01*
X387947Y181533D01*
X388955Y182206D01*
X389628Y183215D01*
X389865Y184404D01*
X389628Y185593D01*
X388955Y186602D01*
X388153Y187137D01*
X388040Y187827D01*
Y187839D01*
X388153Y188529D01*
X388955Y189065D01*
X389628Y190073D01*
X389865Y191262D01*
X389628Y192451D01*
X388955Y193459D01*
X387947Y194133D01*
X386757Y194370D01*
D02*
G37*
G36*
X377698D02*
X376509Y194133D01*
X375500Y193459D01*
X374827Y192451D01*
X374590Y191262D01*
X374827Y190073D01*
X375500Y189065D01*
X376302Y188529D01*
X376416Y187839D01*
Y187827D01*
X376302Y187137D01*
X375500Y186602D01*
X374827Y185593D01*
X374590Y184404D01*
X374827Y183215D01*
X375500Y182206D01*
X376509Y181533D01*
X377698Y181296D01*
X378887Y181533D01*
X379896Y182206D01*
X380569Y183215D01*
X380806Y184404D01*
X380569Y185593D01*
X379896Y186602D01*
X379094Y187137D01*
X378980Y187827D01*
Y187839D01*
X379094Y188529D01*
X379896Y189065D01*
X380569Y190073D01*
X380806Y191262D01*
X380569Y192451D01*
X379896Y193459D01*
X378887Y194133D01*
X377698Y194370D01*
D02*
G37*
G36*
X304298Y191238D02*
X302595Y191014D01*
X301008Y190357D01*
X299645Y189311D01*
X298599Y187948D01*
X297942Y186361D01*
X297718Y184658D01*
X297942Y182955D01*
X298599Y181368D01*
X299645Y180005D01*
X301008Y178959D01*
X302595Y178302D01*
X304298Y178078D01*
X306001Y178302D01*
X307588Y178959D01*
X308951Y180005D01*
X309997Y181368D01*
X310654Y182955D01*
X310878Y184658D01*
X310654Y186361D01*
X309997Y187948D01*
X308951Y189311D01*
X307588Y190357D01*
X306001Y191014D01*
X304298Y191238D01*
D02*
G37*
G36*
X39624Y182432D02*
X38435Y182195D01*
X37427Y181521D01*
X36753Y180513D01*
X36516Y179324D01*
X36753Y178135D01*
X37427Y177127D01*
X38435Y176453D01*
X39624Y176216D01*
X40813Y176453D01*
X41821Y177127D01*
X42495Y178135D01*
X42732Y179324D01*
X42495Y180513D01*
X41821Y181521D01*
X40813Y182195D01*
X39624Y182432D01*
D02*
G37*
G36*
X410210Y182051D02*
X409021Y181814D01*
X408013Y181140D01*
X407339Y180132D01*
X407102Y178943D01*
X407339Y177754D01*
X408013Y176745D01*
X409021Y176072D01*
X410210Y175835D01*
X411399Y176072D01*
X412407Y176745D01*
X413081Y177754D01*
X413318Y178943D01*
X413081Y180132D01*
X412407Y181140D01*
X411399Y181814D01*
X410210Y182051D01*
D02*
G37*
G36*
X345948Y179807D02*
X344759Y179571D01*
X343750Y178897D01*
X343077Y177889D01*
X342840Y176699D01*
X343077Y175510D01*
X343750Y174502D01*
X344759Y173828D01*
X345948Y173592D01*
X347137Y173828D01*
X348145Y174502D01*
X348819Y175510D01*
X349056Y176699D01*
X348819Y177889D01*
X348145Y178897D01*
X347137Y179571D01*
X345948Y179807D01*
D02*
G37*
G36*
X410210Y173542D02*
X409021Y173305D01*
X408013Y172631D01*
X407339Y171623D01*
X407102Y170434D01*
X407339Y169245D01*
X408013Y168237D01*
X409021Y167563D01*
X410210Y167326D01*
X411399Y167563D01*
X412407Y168237D01*
X413081Y169245D01*
X413318Y170434D01*
X413081Y171623D01*
X412407Y172631D01*
X411399Y173305D01*
X410210Y173542D01*
D02*
G37*
G36*
X126746Y170748D02*
X125557Y170511D01*
X124549Y169837D01*
X123875Y168829D01*
X123638Y167640D01*
X123875Y166451D01*
X124549Y165443D01*
X125557Y164769D01*
X126746Y164532D01*
X127935Y164769D01*
X128944Y165443D01*
X129617Y166451D01*
X129854Y167640D01*
X129617Y168829D01*
X128944Y169837D01*
X127935Y170511D01*
X126746Y170748D01*
D02*
G37*
G36*
X209550Y169732D02*
X208361Y169495D01*
X207353Y168822D01*
X206679Y167813D01*
X206442Y166624D01*
X206679Y165435D01*
X207353Y164426D01*
X208361Y163753D01*
X209550Y163516D01*
X210739Y163753D01*
X211747Y164426D01*
X212421Y165435D01*
X212658Y166624D01*
X212421Y167813D01*
X211747Y168822D01*
X210739Y169495D01*
X209550Y169732D01*
D02*
G37*
G36*
X40386D02*
X39197Y169495D01*
X38189Y168822D01*
X37515Y167813D01*
X37278Y166624D01*
X37515Y165435D01*
X38189Y164426D01*
X39197Y163753D01*
X40386Y163516D01*
X41575Y163753D01*
X42583Y164426D01*
X43257Y165435D01*
X43494Y166624D01*
X43257Y167813D01*
X42583Y168822D01*
X41575Y169495D01*
X40386Y169732D01*
D02*
G37*
G36*
X136652Y168462D02*
X135463Y168225D01*
X134454Y167551D01*
X133781Y166543D01*
X133544Y165354D01*
X133743Y164355D01*
X133304Y163874D01*
X132714Y163515D01*
X132507Y163653D01*
X131318Y163890D01*
X130129Y163653D01*
X129121Y162980D01*
X128447Y161971D01*
X128210Y160782D01*
X128447Y159593D01*
X129121Y158584D01*
X130129Y157911D01*
X131318Y157674D01*
X132507Y157911D01*
X133516Y158584D01*
X134189Y159593D01*
X134426Y160782D01*
X134227Y161781D01*
X134666Y162262D01*
X135256Y162621D01*
X135463Y162483D01*
X136652Y162246D01*
X137841Y162483D01*
X138849Y163157D01*
X139523Y164165D01*
X139760Y165354D01*
X139523Y166543D01*
X138849Y167551D01*
X137841Y168225D01*
X136652Y168462D01*
D02*
G37*
G36*
X58928Y167446D02*
X57739Y167209D01*
X56730Y166535D01*
X56057Y165527D01*
X55820Y164338D01*
X56057Y163149D01*
X56730Y162141D01*
X57739Y161467D01*
X58928Y161230D01*
X60117Y161467D01*
X61125Y162141D01*
X61799Y163149D01*
X62036Y164338D01*
X61799Y165527D01*
X61125Y166535D01*
X60117Y167209D01*
X58928Y167446D01*
D02*
G37*
G36*
X162306Y172272D02*
X161117Y172035D01*
X160109Y171362D01*
X159435Y170353D01*
X159198Y169164D01*
X159435Y167975D01*
X160109Y166966D01*
X161117Y166293D01*
X162306Y166056D01*
X163495Y166293D01*
X163656Y166400D01*
X164572Y165485D01*
X164261Y165019D01*
X164024Y163830D01*
X164261Y162641D01*
X164935Y161632D01*
X165943Y160959D01*
X167132Y160722D01*
X168321Y160959D01*
X169329Y161632D01*
X170003Y162641D01*
X170240Y163830D01*
X170003Y165019D01*
X169329Y166028D01*
X168321Y166701D01*
X167132Y166938D01*
X165943Y166701D01*
X165782Y166594D01*
X164866Y167509D01*
X165177Y167975D01*
X165414Y169164D01*
X165177Y170353D01*
X164503Y171362D01*
X163495Y172035D01*
X162306Y172272D01*
D02*
G37*
G36*
X37338Y156524D02*
X36149Y156287D01*
X35141Y155613D01*
X34467Y154605D01*
X34230Y153416D01*
X34467Y152227D01*
X35141Y151219D01*
X36149Y150545D01*
X37338Y150308D01*
X38527Y150545D01*
X39536Y151219D01*
X40209Y152227D01*
X40446Y153416D01*
X40209Y154605D01*
X39536Y155613D01*
X38527Y156287D01*
X37338Y156524D01*
D02*
G37*
G36*
X291084Y153222D02*
X289895Y152985D01*
X288887Y152311D01*
X288213Y151303D01*
X288064Y150553D01*
X287913Y150088D01*
X286781Y149612D01*
X286512Y149666D01*
X286243Y149612D01*
X285110Y150088D01*
X284960Y150553D01*
X284811Y151303D01*
X284137Y152311D01*
X283129Y152985D01*
X281940Y153222D01*
X280751Y152985D01*
X279743Y152311D01*
X279069Y151303D01*
X278832Y150114D01*
X279069Y148925D01*
X279743Y147916D01*
X280751Y147243D01*
X281940Y147006D01*
X282209Y147060D01*
X283342Y146584D01*
X283492Y146119D01*
X283641Y145369D01*
X284314Y144361D01*
X285323Y143687D01*
X286512Y143450D01*
X286808Y143509D01*
X287488Y143539D01*
X288202Y142747D01*
X288213Y142702D01*
X288887Y141693D01*
X289111Y141543D01*
Y140016D01*
X288887Y139866D01*
X288213Y138857D01*
X287976Y137668D01*
X288213Y136479D01*
X288887Y135471D01*
X289895Y134797D01*
X291084Y134560D01*
X292273Y134797D01*
X293281Y135471D01*
X293955Y136479D01*
X294192Y137668D01*
X293955Y138857D01*
X293281Y139866D01*
X293057Y140016D01*
Y141543D01*
X293281Y141693D01*
X293955Y142702D01*
X294192Y143891D01*
X293955Y145080D01*
X293281Y146088D01*
X293057Y146239D01*
Y147766D01*
X293281Y147916D01*
X293955Y148925D01*
X294192Y150114D01*
X293955Y151303D01*
X293281Y152311D01*
X292273Y152985D01*
X291084Y153222D01*
D02*
G37*
G36*
X68834Y155000D02*
X67645Y154763D01*
X66637Y154089D01*
X65963Y153081D01*
X65726Y151892D01*
X65963Y150703D01*
X66637Y149694D01*
X67645Y149021D01*
X68834Y148784D01*
X70023Y149021D01*
X71031Y149694D01*
X71705Y150703D01*
X71942Y151892D01*
X71705Y153081D01*
X71031Y154089D01*
X70023Y154763D01*
X68834Y155000D01*
D02*
G37*
G36*
X53848Y154492D02*
X52659Y154255D01*
X51651Y153581D01*
X50977Y152573D01*
X50740Y151384D01*
X50977Y150195D01*
X51651Y149186D01*
X52659Y148513D01*
X53848Y148276D01*
X55037Y148513D01*
X56045Y149186D01*
X56719Y150195D01*
X56956Y151384D01*
X56719Y152573D01*
X56045Y153581D01*
X55037Y154255D01*
X53848Y154492D01*
D02*
G37*
G36*
X363970Y156417D02*
X352970D01*
X351136Y156175D01*
X349428Y155468D01*
X347960Y154342D01*
X346834Y152874D01*
X346127Y151166D01*
X345885Y149332D01*
X346127Y147498D01*
X346834Y145790D01*
X347960Y144323D01*
X349428Y143197D01*
X351136Y142489D01*
X352970Y142247D01*
X363970D01*
X365804Y142489D01*
X367512Y143197D01*
X368980Y144323D01*
X370106Y145790D01*
X370813Y147498D01*
X371055Y149332D01*
X370813Y151166D01*
X370106Y152874D01*
X368980Y154342D01*
X367512Y155468D01*
X365804Y156175D01*
X363970Y156417D01*
D02*
G37*
G36*
X418570Y157425D02*
X405570D01*
X403475Y157149D01*
X401523Y156341D01*
X399847Y155055D01*
X398561Y153379D01*
X397752Y151427D01*
X397477Y149332D01*
X397752Y147237D01*
X398561Y145285D01*
X399847Y143609D01*
X401523Y142323D01*
X403475Y141515D01*
X405570Y141239D01*
X418570D01*
X420665Y141515D01*
X422617Y142323D01*
X424293Y143609D01*
X425579Y145285D01*
X426387Y147237D01*
X426663Y149332D01*
X426387Y151427D01*
X425579Y153379D01*
X424293Y155055D01*
X422617Y156341D01*
X420665Y157149D01*
X418570Y157425D01*
D02*
G37*
G36*
X242570Y146872D02*
X241381Y146635D01*
X240373Y145962D01*
X239699Y144953D01*
X239462Y143764D01*
X239699Y142575D01*
X240373Y141566D01*
X241381Y140893D01*
X242570Y140656D01*
X243759Y140893D01*
X244767Y141566D01*
X245441Y142575D01*
X245678Y143764D01*
X245441Y144953D01*
X244767Y145962D01*
X243759Y146635D01*
X242570Y146872D01*
D02*
G37*
G36*
X328168Y152630D02*
X326465Y152406D01*
X324878Y151749D01*
X323515Y150703D01*
X322469Y149340D01*
X321812Y147753D01*
X321588Y146050D01*
X321812Y144347D01*
X322469Y142760D01*
X323515Y141397D01*
X324534Y140616D01*
X324030Y139401D01*
X323088Y139525D01*
X320701Y139211D01*
X318477Y138289D01*
X316566Y136824D01*
X315101Y134913D01*
X314179Y132689D01*
X313865Y130302D01*
X314179Y127915D01*
X315101Y125691D01*
X316566Y123780D01*
X318477Y122315D01*
X320701Y121393D01*
X323088Y121079D01*
X325475Y121393D01*
X327699Y122315D01*
X329610Y123780D01*
X331075Y125691D01*
X331997Y127915D01*
X332311Y130302D01*
X331997Y132689D01*
X331075Y134913D01*
X329610Y136824D01*
X327700Y138289D01*
X328168Y139470D01*
X329871Y139694D01*
X331458Y140351D01*
X332821Y141397D01*
X333867Y142760D01*
X334524Y144347D01*
X334748Y146050D01*
X334524Y147753D01*
X333867Y149340D01*
X332821Y150703D01*
X331458Y151749D01*
X329871Y152406D01*
X328168Y152630D01*
D02*
G37*
G36*
X67818Y145602D02*
X66629Y145365D01*
X65620Y144691D01*
X64947Y143683D01*
X64710Y142494D01*
X64947Y141305D01*
X65620Y140296D01*
X66629Y139623D01*
X67818Y139386D01*
X69007Y139623D01*
X70016Y140296D01*
X70689Y141305D01*
X70926Y142494D01*
X70689Y143683D01*
X70016Y144691D01*
X69007Y145365D01*
X67818Y145602D01*
D02*
G37*
G36*
X170688Y144332D02*
X169499Y144095D01*
X168491Y143421D01*
X167817Y142413D01*
X167580Y141224D01*
X167817Y140035D01*
X168491Y139026D01*
X169499Y138353D01*
X170688Y138116D01*
X171877Y138353D01*
X172885Y139026D01*
X173559Y140035D01*
X173796Y141224D01*
X173559Y142413D01*
X172885Y143421D01*
X171877Y144095D01*
X170688Y144332D01*
D02*
G37*
G36*
X36322Y143316D02*
X35133Y143079D01*
X34125Y142406D01*
X33451Y141397D01*
X33214Y140208D01*
X33451Y139019D01*
X34125Y138011D01*
X35133Y137337D01*
X36322Y137100D01*
X37511Y137337D01*
X38519Y138011D01*
X39193Y139019D01*
X39430Y140208D01*
X39193Y141397D01*
X38519Y142406D01*
X37511Y143079D01*
X36322Y143316D01*
D02*
G37*
G36*
X234696Y141284D02*
X233507Y141047D01*
X232498Y140373D01*
X231825Y139365D01*
X231588Y138176D01*
X231825Y136987D01*
X232498Y135978D01*
X233507Y135305D01*
X234696Y135068D01*
X235885Y135305D01*
X236894Y135978D01*
X237567Y136987D01*
X237804Y138176D01*
X237567Y139365D01*
X236894Y140373D01*
X235885Y141047D01*
X234696Y141284D01*
D02*
G37*
G36*
X217042Y135570D02*
X215853Y135333D01*
X214844Y134660D01*
X214171Y133651D01*
X213934Y132462D01*
X214171Y131273D01*
X214844Y130265D01*
X215853Y129591D01*
X217042Y129354D01*
X218231Y129591D01*
X219240Y130265D01*
X219913Y131273D01*
X220150Y132462D01*
X219913Y133651D01*
X219240Y134660D01*
X218231Y135333D01*
X217042Y135570D01*
D02*
G37*
G36*
X224282Y129600D02*
X223093Y129363D01*
X222085Y128689D01*
X221411Y127681D01*
X221174Y126492D01*
X221411Y125303D01*
X222085Y124295D01*
X223093Y123621D01*
X224282Y123384D01*
X225471Y123621D01*
X226479Y124295D01*
X227153Y125303D01*
X227390Y126492D01*
X227153Y127681D01*
X226479Y128689D01*
X225471Y129363D01*
X224282Y129600D01*
D02*
G37*
G36*
X55328Y127358D02*
X54139Y127121D01*
X53130Y126447D01*
X52457Y125439D01*
X52220Y124250D01*
X52457Y123061D01*
X53130Y122052D01*
X54139Y121379D01*
X55328Y121142D01*
X56517Y121379D01*
X57526Y122052D01*
X58199Y123061D01*
X58436Y124250D01*
X58199Y125439D01*
X57526Y126447D01*
X56517Y127121D01*
X55328Y127358D01*
D02*
G37*
G36*
X100584Y125028D02*
X99395Y124791D01*
X98386Y124117D01*
X97713Y123109D01*
X97476Y121920D01*
X97713Y120731D01*
X98386Y119722D01*
X99395Y119049D01*
X100584Y118812D01*
X101773Y119049D01*
X102781Y119722D01*
X103455Y120731D01*
X103692Y121920D01*
X103455Y123109D01*
X102781Y124117D01*
X101773Y124791D01*
X100584Y125028D01*
D02*
G37*
G36*
X263703Y123656D02*
X262514Y123420D01*
X261505Y122746D01*
X260832Y121738D01*
X260595Y120548D01*
X260832Y119359D01*
X261505Y118351D01*
X262514Y117677D01*
X263703Y117441D01*
X264892Y117677D01*
X265900Y118351D01*
X266574Y119359D01*
X266810Y120548D01*
X266574Y121738D01*
X265900Y122746D01*
X264892Y123420D01*
X263703Y123656D01*
D02*
G37*
G36*
X218948Y122234D02*
X217759Y121997D01*
X216751Y121323D01*
X216077Y120315D01*
X215840Y119126D01*
X216077Y117937D01*
X216751Y116929D01*
X217759Y116255D01*
X218948Y116018D01*
X220137Y116255D01*
X221145Y116929D01*
X221819Y117937D01*
X222056Y119126D01*
X221819Y120315D01*
X221145Y121323D01*
X220137Y121997D01*
X218948Y122234D01*
D02*
G37*
G36*
X40386Y118932D02*
X39197Y118695D01*
X38189Y118021D01*
X37515Y117013D01*
X37278Y115824D01*
X37515Y114635D01*
X38189Y113626D01*
X39197Y112953D01*
X40386Y112716D01*
X41575Y112953D01*
X42583Y113626D01*
X43257Y114635D01*
X43494Y115824D01*
X43257Y117013D01*
X42583Y118021D01*
X41575Y118695D01*
X40386Y118932D01*
D02*
G37*
G36*
X107188Y117154D02*
X105999Y116917D01*
X104991Y116243D01*
X104317Y115235D01*
X104080Y114046D01*
X104317Y112857D01*
X104991Y111848D01*
X105999Y111175D01*
X107188Y110938D01*
X108377Y111175D01*
X109385Y111848D01*
X110059Y112857D01*
X110296Y114046D01*
X110059Y115235D01*
X109385Y116243D01*
X108377Y116917D01*
X107188Y117154D01*
D02*
G37*
G36*
X176276Y114614D02*
X175087Y114377D01*
X174079Y113703D01*
X173405Y112695D01*
X173168Y111506D01*
X173405Y110317D01*
X174079Y109309D01*
X175087Y108635D01*
X176276Y108398D01*
X177465Y108635D01*
X178473Y109309D01*
X179147Y110317D01*
X179384Y111506D01*
X179147Y112695D01*
X178473Y113703D01*
X177465Y114377D01*
X176276Y114614D01*
D02*
G37*
G36*
X161798Y113980D02*
X160609Y113743D01*
X159600Y113069D01*
X158927Y112061D01*
X158690Y110872D01*
X158927Y109683D01*
X159600Y108674D01*
X160609Y108001D01*
X161798Y107764D01*
X162987Y108001D01*
X163995Y108674D01*
X164669Y109683D01*
X164906Y110872D01*
X164669Y112061D01*
X163995Y113069D01*
X162987Y113743D01*
X161798Y113980D01*
D02*
G37*
G36*
X232664Y110550D02*
X231475Y110313D01*
X230466Y109640D01*
X229793Y108631D01*
X229556Y107442D01*
X229793Y106253D01*
X230466Y105245D01*
X231475Y104571D01*
X232664Y104334D01*
X233853Y104571D01*
X234862Y105245D01*
X235535Y106253D01*
X235772Y107442D01*
X235535Y108631D01*
X234862Y109640D01*
X233853Y110313D01*
X232664Y110550D01*
D02*
G37*
G36*
X152654D02*
X151465Y110313D01*
X150456Y109640D01*
X149783Y108631D01*
X149546Y107442D01*
X149783Y106253D01*
X150456Y105245D01*
X151465Y104571D01*
X152654Y104334D01*
X153843Y104571D01*
X154852Y105245D01*
X155525Y106253D01*
X155762Y107442D01*
X155525Y108631D01*
X154852Y109640D01*
X153843Y110313D01*
X152654Y110550D01*
D02*
G37*
G36*
X121666Y112836D02*
X120477Y112599D01*
X119468Y111925D01*
X118795Y110917D01*
X118558Y109728D01*
X118795Y108539D01*
X119468Y107530D01*
X120477Y106857D01*
X121666Y106620D01*
X122352Y106757D01*
X123318Y106154D01*
X123552Y105799D01*
X123741Y104849D01*
X124415Y103841D01*
X125423Y103167D01*
X126612Y102930D01*
X127801Y103167D01*
X128809Y103841D01*
X129483Y104849D01*
X129720Y106038D01*
X129483Y107227D01*
X128809Y108236D01*
X127801Y108909D01*
X126612Y109146D01*
X125926Y109009D01*
X124960Y109612D01*
X124726Y109967D01*
X124537Y110917D01*
X123863Y111925D01*
X122855Y112599D01*
X121666Y112836D01*
D02*
G37*
G36*
X6858Y105978D02*
X5669Y105741D01*
X4660Y105068D01*
X3987Y104059D01*
X3750Y102870D01*
X3987Y101681D01*
X4660Y100673D01*
X5669Y99999D01*
X6858Y99762D01*
X8047Y99999D01*
X9056Y100673D01*
X9729Y101681D01*
X9966Y102870D01*
X9729Y104059D01*
X9056Y105068D01*
X8047Y105741D01*
X6858Y105978D01*
D02*
G37*
G36*
X55118Y104708D02*
X53929Y104471D01*
X52920Y103798D01*
X52247Y102789D01*
X52010Y101600D01*
X52247Y100411D01*
X52920Y99403D01*
X53929Y98729D01*
X55118Y98492D01*
X56307Y98729D01*
X57316Y99403D01*
X57989Y100411D01*
X58226Y101600D01*
X57989Y102789D01*
X57316Y103798D01*
X56307Y104471D01*
X55118Y104708D01*
D02*
G37*
G36*
X279654Y104454D02*
X278465Y104217D01*
X277456Y103544D01*
X276783Y102535D01*
X276546Y101346D01*
X276783Y100157D01*
X277456Y99149D01*
X278465Y98475D01*
X279654Y98238D01*
X280843Y98475D01*
X281852Y99149D01*
X282525Y100157D01*
X282762Y101346D01*
X282525Y102535D01*
X281852Y103544D01*
X280843Y104217D01*
X279654Y104454D01*
D02*
G37*
G36*
X137160Y101914D02*
X135971Y101677D01*
X134963Y101004D01*
X134289Y99995D01*
X134052Y98806D01*
X134289Y97617D01*
X134963Y96608D01*
X135971Y95935D01*
X137160Y95698D01*
X138349Y95935D01*
X139358Y96608D01*
X140031Y97617D01*
X140268Y98806D01*
X140031Y99995D01*
X139358Y101004D01*
X138349Y101677D01*
X137160Y101914D01*
D02*
G37*
G36*
X104140Y101152D02*
X102951Y100915D01*
X101943Y100241D01*
X101269Y99233D01*
X101032Y98044D01*
X101269Y96855D01*
X101943Y95847D01*
X102951Y95173D01*
X104140Y94936D01*
X105329Y95173D01*
X106337Y95847D01*
X107011Y96855D01*
X107248Y98044D01*
X107011Y99233D01*
X106337Y100241D01*
X105329Y100915D01*
X104140Y101152D01*
D02*
G37*
G36*
X303276Y104454D02*
X302087Y104217D01*
X301078Y103544D01*
X300405Y102535D01*
X300168Y101346D01*
X300405Y100157D01*
X301078Y99149D01*
X302087Y98475D01*
X302275Y98437D01*
Y97143D01*
X302087Y97105D01*
X301078Y96432D01*
X300405Y95423D01*
X300168Y94234D01*
X300405Y93045D01*
X301078Y92037D01*
X302087Y91363D01*
X303276Y91126D01*
X304465Y91363D01*
X305473Y92037D01*
X306147Y93045D01*
X306384Y94234D01*
X306147Y95423D01*
X305473Y96432D01*
X304465Y97105D01*
X304277Y97143D01*
Y98437D01*
X304465Y98475D01*
X305473Y99149D01*
X306147Y100157D01*
X306384Y101346D01*
X306147Y102535D01*
X305473Y103544D01*
X304465Y104217D01*
X303276Y104454D01*
D02*
G37*
G36*
X295402D02*
X294213Y104217D01*
X293204Y103544D01*
X292531Y102535D01*
X292294Y101346D01*
X292531Y100157D01*
X293204Y99149D01*
X294213Y98475D01*
X294401Y98437D01*
Y97143D01*
X294213Y97105D01*
X293204Y96432D01*
X292531Y95423D01*
X292294Y94234D01*
X292531Y93045D01*
X293204Y92037D01*
X294213Y91363D01*
X295402Y91126D01*
X296591Y91363D01*
X297600Y92037D01*
X298273Y93045D01*
X298510Y94234D01*
X298273Y95423D01*
X297600Y96432D01*
X296591Y97105D01*
X296403Y97143D01*
Y98437D01*
X296591Y98475D01*
X297600Y99149D01*
X298273Y100157D01*
X298510Y101346D01*
X298273Y102535D01*
X297600Y103544D01*
X296591Y104217D01*
X295402Y104454D01*
D02*
G37*
G36*
X287528D02*
X286339Y104217D01*
X285331Y103544D01*
X284657Y102535D01*
X284420Y101346D01*
X284657Y100157D01*
X285331Y99149D01*
X286339Y98475D01*
X286527Y98437D01*
Y97143D01*
X286339Y97105D01*
X285331Y96432D01*
X284657Y95423D01*
X284420Y94234D01*
X284657Y93045D01*
X285331Y92037D01*
X286339Y91363D01*
X287528Y91126D01*
X288717Y91363D01*
X289725Y92037D01*
X290399Y93045D01*
X290636Y94234D01*
X290399Y95423D01*
X289725Y96432D01*
X288717Y97105D01*
X288529Y97143D01*
Y98437D01*
X288717Y98475D01*
X289725Y99149D01*
X290399Y100157D01*
X290636Y101346D01*
X290399Y102535D01*
X289725Y103544D01*
X288717Y104217D01*
X287528Y104454D01*
D02*
G37*
G36*
X272288Y93278D02*
X271099Y93041D01*
X270091Y92367D01*
X269417Y91359D01*
X269180Y90170D01*
X269417Y88981D01*
X270091Y87972D01*
X271099Y87299D01*
X272288Y87062D01*
X273477Y87299D01*
X274485Y87972D01*
X275159Y88981D01*
X275396Y90170D01*
X275159Y91359D01*
X274485Y92367D01*
X273477Y93041D01*
X272288Y93278D01*
D02*
G37*
G36*
X45720Y92516D02*
X44531Y92279D01*
X43523Y91606D01*
X42849Y90597D01*
X42612Y89408D01*
X42849Y88219D01*
X43523Y87211D01*
X44531Y86537D01*
X45720Y86300D01*
X46909Y86537D01*
X47917Y87211D01*
X48591Y88219D01*
X48828Y89408D01*
X48591Y90597D01*
X47917Y91606D01*
X46909Y92279D01*
X45720Y92516D01*
D02*
G37*
G36*
X6096Y94568D02*
X4510Y94252D01*
X3166Y93354D01*
X2268Y92010D01*
X1952Y90424D01*
X2268Y88838D01*
X3166Y87494D01*
X4510Y86596D01*
X6096Y86280D01*
X7682Y86596D01*
X9026Y87494D01*
X9924Y88838D01*
X10240Y90424D01*
X9924Y92010D01*
X9026Y93354D01*
X7682Y94252D01*
X6096Y94568D01*
D02*
G37*
G36*
X222504Y89468D02*
X221315Y89231D01*
X220306Y88558D01*
X219633Y87549D01*
X219396Y86360D01*
X219633Y85171D01*
X220306Y84163D01*
X221315Y83489D01*
X222504Y83252D01*
X223693Y83489D01*
X224701Y84163D01*
X225375Y85171D01*
X225612Y86360D01*
X225375Y87549D01*
X224701Y88558D01*
X223693Y89231D01*
X222504Y89468D01*
D02*
G37*
G36*
X158878Y87310D02*
X157689Y87073D01*
X156680Y86399D01*
X156007Y85391D01*
X155770Y84202D01*
X156007Y83013D01*
X156680Y82004D01*
X157689Y81331D01*
X158878Y81094D01*
X160067Y81331D01*
X161075Y82004D01*
X161749Y83013D01*
X161986Y84202D01*
X161749Y85391D01*
X161075Y86399D01*
X160067Y87073D01*
X158878Y87310D01*
D02*
G37*
G36*
X169418Y86928D02*
X168229Y86691D01*
X167220Y86018D01*
X166547Y85009D01*
X166310Y83820D01*
X166547Y82631D01*
X167220Y81622D01*
X168229Y80949D01*
X169418Y80712D01*
X170607Y80949D01*
X171616Y81622D01*
X172289Y82631D01*
X172526Y83820D01*
X172289Y85009D01*
X171616Y86018D01*
X170607Y86691D01*
X169418Y86928D01*
D02*
G37*
G36*
X208280Y78546D02*
X207091Y78309D01*
X206082Y77635D01*
X205409Y76627D01*
X205172Y75438D01*
X205409Y74249D01*
X206082Y73240D01*
X207091Y72567D01*
X208280Y72330D01*
X209469Y72567D01*
X210478Y73240D01*
X211151Y74249D01*
X211388Y75438D01*
X211151Y76627D01*
X210478Y77635D01*
X209469Y78309D01*
X208280Y78546D01*
D02*
G37*
G36*
X120222Y77356D02*
X119033Y77119D01*
X118025Y76445D01*
X117351Y75437D01*
X117114Y74248D01*
X117351Y73059D01*
X118025Y72050D01*
X119033Y71377D01*
X120222Y71140D01*
X121411Y71377D01*
X122420Y72050D01*
X123093Y73059D01*
X123330Y74248D01*
X123093Y75437D01*
X122420Y76445D01*
X121411Y77119D01*
X120222Y77356D01*
D02*
G37*
G36*
X160528Y76260D02*
X159339Y76023D01*
X158330Y75349D01*
X157657Y74341D01*
X157420Y73152D01*
X157657Y71963D01*
X158330Y70954D01*
X159339Y70281D01*
X160528Y70044D01*
X161717Y70281D01*
X162726Y70954D01*
X163399Y71963D01*
X163636Y73152D01*
X163399Y74341D01*
X162726Y75349D01*
X161717Y76023D01*
X160528Y76260D01*
D02*
G37*
G36*
X330962Y63306D02*
X329773Y63069D01*
X328764Y62396D01*
X328091Y61387D01*
X327854Y60198D01*
X328091Y59009D01*
X328764Y58000D01*
X329773Y57327D01*
X330962Y57090D01*
X332151Y57327D01*
X333159Y58000D01*
X333833Y59009D01*
X334070Y60198D01*
X333833Y61387D01*
X333159Y62396D01*
X332151Y63069D01*
X330962Y63306D01*
D02*
G37*
G36*
X280924Y61782D02*
X279735Y61545D01*
X278727Y60872D01*
X278053Y59863D01*
X277816Y58674D01*
X278053Y57485D01*
X278727Y56476D01*
X279735Y55803D01*
X280924Y55566D01*
X282113Y55803D01*
X283121Y56476D01*
X283795Y57485D01*
X284032Y58674D01*
X283795Y59863D01*
X283121Y60872D01*
X282113Y61545D01*
X280924Y61782D01*
D02*
G37*
G36*
X316992Y58988D02*
X315803Y58751D01*
X314795Y58078D01*
X314121Y57069D01*
X313884Y55880D01*
X314121Y54691D01*
X314795Y53682D01*
X315803Y53009D01*
X316992Y52772D01*
X318181Y53009D01*
X319189Y53682D01*
X319863Y54691D01*
X320100Y55880D01*
X319863Y57069D01*
X319189Y58078D01*
X318181Y58751D01*
X316992Y58988D01*
D02*
G37*
G36*
X294300Y58648D02*
X293111Y58411D01*
X292103Y57737D01*
X291429Y56729D01*
X291192Y55540D01*
X291429Y54351D01*
X292103Y53342D01*
X293111Y52669D01*
X294300Y52432D01*
X295489Y52669D01*
X296497Y53342D01*
X297171Y54351D01*
X297408Y55540D01*
X297171Y56729D01*
X296497Y57737D01*
X295489Y58411D01*
X294300Y58648D01*
D02*
G37*
G36*
X242570Y57464D02*
X241381Y57227D01*
X240373Y56554D01*
X239699Y55545D01*
X239462Y54356D01*
X239699Y53167D01*
X240373Y52158D01*
X241381Y51485D01*
X242570Y51248D01*
X243759Y51485D01*
X244767Y52158D01*
X245441Y53167D01*
X245678Y54356D01*
X245441Y55545D01*
X244767Y56554D01*
X243759Y57227D01*
X242570Y57464D01*
D02*
G37*
G36*
X274574Y52892D02*
X273385Y52655D01*
X272376Y51982D01*
X271703Y50973D01*
X271466Y49784D01*
X271703Y48595D01*
X272376Y47586D01*
X273385Y46913D01*
X274574Y46676D01*
X275763Y46913D01*
X276772Y47586D01*
X277445Y48595D01*
X277682Y49784D01*
X277445Y50973D01*
X276772Y51982D01*
X275763Y52655D01*
X274574Y52892D01*
D02*
G37*
G36*
X316440Y50098D02*
X315251Y49861D01*
X314243Y49187D01*
X313569Y48179D01*
X313333Y46990D01*
X313569Y45801D01*
X314243Y44792D01*
X315251Y44119D01*
X316440Y43882D01*
X317630Y44119D01*
X318638Y44792D01*
X319312Y45801D01*
X319548Y46990D01*
X319312Y48179D01*
X318638Y49187D01*
X317630Y49861D01*
X316440Y50098D01*
D02*
G37*
G36*
X262890Y46542D02*
X261701Y46305D01*
X260693Y45631D01*
X260019Y44623D01*
X259782Y43434D01*
X260019Y42245D01*
X260693Y41237D01*
X261701Y40563D01*
X262890Y40326D01*
X264079Y40563D01*
X265088Y41237D01*
X265761Y42245D01*
X265998Y43434D01*
X265761Y44623D01*
X265088Y45631D01*
X264079Y46305D01*
X262890Y46542D01*
D02*
G37*
G36*
X242570Y39938D02*
X241381Y39701D01*
X240373Y39028D01*
X239699Y38019D01*
X239462Y36830D01*
X239699Y35641D01*
X240373Y34632D01*
X241381Y33959D01*
X242570Y33722D01*
X243759Y33959D01*
X244767Y34632D01*
X245441Y35641D01*
X245678Y36830D01*
X245441Y38019D01*
X244767Y39028D01*
X243759Y39701D01*
X242570Y39938D01*
D02*
G37*
G36*
X410062Y52145D02*
X407020Y51744D01*
X404185Y50570D01*
X401750Y48702D01*
X399882Y46267D01*
X398708Y43432D01*
X398307Y40390D01*
X398708Y37348D01*
X399882Y34513D01*
X401750Y32078D01*
X404185Y30210D01*
X407020Y29036D01*
X410062Y28635D01*
X413104Y29036D01*
X415939Y30210D01*
X418374Y32078D01*
X420242Y34513D01*
X421416Y37348D01*
X421817Y40390D01*
X421416Y43432D01*
X420242Y46267D01*
X418374Y48702D01*
X415939Y50570D01*
X413104Y51744D01*
X410062Y52145D01*
D02*
G37*
G36*
X339962D02*
X336920Y51744D01*
X334085Y50570D01*
X331650Y48702D01*
X329782Y46267D01*
X328608Y43432D01*
X328208Y40390D01*
X328608Y37348D01*
X329782Y34513D01*
X331650Y32078D01*
X334085Y30210D01*
X336920Y29036D01*
X339962Y28635D01*
X343004Y29036D01*
X345839Y30210D01*
X348274Y32078D01*
X350142Y34513D01*
X351316Y37348D01*
X351717Y40390D01*
X351316Y43432D01*
X350142Y46267D01*
X348274Y48702D01*
X345839Y50570D01*
X343004Y51744D01*
X339962Y52145D01*
D02*
G37*
G36*
X323724Y32446D02*
X322535Y32209D01*
X321526Y31535D01*
X320853Y30527D01*
X320616Y29338D01*
X320853Y28149D01*
X321526Y27141D01*
X322535Y26467D01*
X323724Y26230D01*
X324913Y26467D01*
X325922Y27141D01*
X326595Y28149D01*
X326832Y29338D01*
X326595Y30527D01*
X325922Y31535D01*
X324913Y32209D01*
X323724Y32446D01*
D02*
G37*
G36*
X273812Y21650D02*
X272623Y21413D01*
X271614Y20740D01*
X270941Y19731D01*
X270704Y18542D01*
X270941Y17353D01*
X271614Y16344D01*
X272623Y15671D01*
X273812Y15434D01*
X275001Y15671D01*
X276010Y16344D01*
X276683Y17353D01*
X276920Y18542D01*
X276683Y19731D01*
X276010Y20740D01*
X275001Y21413D01*
X273812Y21650D01*
D02*
G37*
G36*
X311912Y21396D02*
X310723Y21159D01*
X309715Y20485D01*
X309041Y19477D01*
X308804Y18288D01*
X309041Y17099D01*
X309715Y16091D01*
X310723Y15417D01*
X311912Y15180D01*
X313101Y15417D01*
X314109Y16091D01*
X314783Y17099D01*
X315020Y18288D01*
X314783Y19477D01*
X314109Y20485D01*
X313101Y21159D01*
X311912Y21396D01*
D02*
G37*
G36*
X397512Y24899D02*
X395077Y24579D01*
X392807Y23639D01*
X390859Y22143D01*
X389363Y20195D01*
X388423Y17925D01*
X388103Y15490D01*
X388423Y13055D01*
X389363Y10785D01*
X390859Y8837D01*
X392807Y7341D01*
X395077Y6401D01*
X397512Y6080D01*
X399948Y6401D01*
X402217Y7341D01*
X404166Y8837D01*
X405661Y10785D01*
X406601Y13055D01*
X406922Y15490D01*
X406601Y17925D01*
X405661Y20195D01*
X404166Y22143D01*
X402217Y23639D01*
X399948Y24579D01*
X397512Y24899D01*
D02*
G37*
G36*
X352512D02*
X350077Y24579D01*
X347807Y23639D01*
X345859Y22143D01*
X344363Y20195D01*
X343423Y17925D01*
X343103Y15490D01*
X343423Y13055D01*
X344363Y10785D01*
X345859Y8837D01*
X347807Y7341D01*
X350077Y6401D01*
X352512Y6080D01*
X354947Y6401D01*
X357217Y7341D01*
X359166Y8837D01*
X360661Y10785D01*
X361601Y13055D01*
X361922Y15490D01*
X361601Y17925D01*
X360661Y20195D01*
X359166Y22143D01*
X357217Y23639D01*
X354947Y24579D01*
X352512Y24899D01*
D02*
G37*
G36*
X294300Y9544D02*
X293111Y9307D01*
X292103Y8633D01*
X291429Y7625D01*
X291192Y6436D01*
X291429Y5247D01*
X292103Y4238D01*
X293111Y3565D01*
X294300Y3328D01*
X295489Y3565D01*
X296497Y4238D01*
X297171Y5247D01*
X297408Y6436D01*
X297171Y7625D01*
X296497Y8633D01*
X295489Y9307D01*
X294300Y9544D01*
D02*
G37*
G36*
X302514Y8188D02*
X301325Y7951D01*
X300317Y7278D01*
X299643Y6269D01*
X299406Y5080D01*
X299643Y3891D01*
X300317Y2882D01*
X301325Y2209D01*
X302514Y1972D01*
X303703Y2209D01*
X304711Y2882D01*
X305385Y3891D01*
X305622Y5080D01*
X305385Y6269D01*
X304711Y7278D01*
X303703Y7951D01*
X302514Y8188D01*
D02*
G37*
G36*
X262636Y7934D02*
X261447Y7697D01*
X260438Y7024D01*
X259765Y6015D01*
X259528Y4826D01*
X259765Y3637D01*
X260438Y2628D01*
X261447Y1955D01*
X262636Y1718D01*
X263825Y1955D01*
X264834Y2628D01*
X265507Y3637D01*
X265744Y4826D01*
X265507Y6015D01*
X264834Y7024D01*
X263825Y7697D01*
X262636Y7934D01*
D02*
G37*
G36*
X282575Y7807D02*
X281386Y7570D01*
X280378Y6896D01*
X279704Y5888D01*
X279467Y4699D01*
X279704Y3510D01*
X280378Y2501D01*
X281386Y1828D01*
X282575Y1591D01*
X283764Y1828D01*
X284772Y2501D01*
X285446Y3510D01*
X285683Y4699D01*
X285446Y5888D01*
X284772Y6896D01*
X283764Y7570D01*
X282575Y7807D01*
D02*
G37*
%LPD*%
D131*
X329184Y101600D02*
D03*
D133*
X417322Y450342D02*
D03*
D138*
X81026Y158496D02*
D03*
X87884D02*
D03*
X88138Y132080D02*
D03*
X81280D02*
D03*
X131064Y137160D02*
D03*
X136144D02*
D03*
X131064Y132080D02*
D03*
X136144D02*
D03*
X413860Y439420D02*
D03*
X422750Y421640D02*
D03*
Y386080D02*
D03*
Y350520D02*
D03*
Y314960D02*
D03*
X413860Y297180D02*
D03*
X422750Y279400D02*
D03*
Y208280D02*
D03*
Y172720D02*
D03*
X404970Y457200D02*
D03*
Y421640D02*
D03*
Y314960D02*
D03*
Y279400D02*
D03*
X387190Y386080D02*
D03*
X342740Y403860D02*
D03*
Y119380D02*
D03*
X333850Y421640D02*
D03*
X324960Y154940D02*
D03*
X333850Y137160D02*
D03*
X324960Y119380D02*
D03*
X307180Y474980D02*
D03*
Y297180D02*
D03*
X289400Y474980D02*
D03*
X298290Y457200D02*
D03*
X289400Y261620D02*
D03*
X280510Y457200D02*
D03*
X271620Y261620D02*
D03*
X236060Y474980D02*
D03*
X244950Y457200D02*
D03*
X236060Y261620D02*
D03*
X244950Y208280D02*
D03*
X218280Y439420D02*
D03*
X227170Y421640D02*
D03*
X218280Y403860D02*
D03*
X209390Y421640D02*
D03*
Y386080D02*
D03*
X200500Y297180D02*
D03*
X209390Y279400D02*
D03*
X200500Y261620D02*
D03*
X209390Y243840D02*
D03*
X191610Y421640D02*
D03*
X164940Y439420D02*
D03*
X173830Y421640D02*
D03*
X164940Y297180D02*
D03*
X173830Y279400D02*
D03*
Y243840D02*
D03*
X147160Y439420D02*
D03*
X138270Y421640D02*
D03*
X129380Y403860D02*
D03*
X120490Y421640D02*
D03*
X76040Y474980D02*
D03*
X84930Y457200D02*
D03*
X76040Y439420D02*
D03*
Y403860D02*
D03*
X58260Y474980D02*
D03*
X67150Y457200D02*
D03*
X58260Y439420D02*
D03*
X67150Y421640D02*
D03*
X58260Y403860D02*
D03*
Y368300D02*
D03*
X67150Y208280D02*
D03*
X40480Y474980D02*
D03*
X49370Y457200D02*
D03*
X40480Y439420D02*
D03*
X49370Y421640D02*
D03*
X40480Y403860D02*
D03*
X49370Y386080D02*
D03*
X40480Y368300D02*
D03*
X22700Y474980D02*
D03*
X31590Y457200D02*
D03*
X22700Y439420D02*
D03*
X31590Y421640D02*
D03*
X22700Y403860D02*
D03*
X31590Y386080D02*
D03*
X22700Y368300D02*
D03*
X4920Y474980D02*
D03*
Y439420D02*
D03*
X13810Y421640D02*
D03*
X4920Y403860D02*
D03*
X13810Y386080D02*
D03*
X4920Y368300D02*
D03*
Y261620D02*
D03*
Y226060D02*
D03*
X366776Y40132D02*
D03*
X374142D02*
D03*
X381508D02*
D03*
X71788Y456612D02*
D03*
X81788Y461612D02*
D03*
X71788Y446612D02*
D03*
X81788Y441612D02*
D03*
X338836Y145288D02*
D03*
Y150622D02*
D03*
X333502Y156210D02*
D03*
X338836D02*
D03*
X344170D02*
D03*
X333502Y161798D02*
D03*
X338836D02*
D03*
X377444Y148336D02*
D03*
X382778D02*
D03*
X388112D02*
D03*
X377444Y155702D02*
D03*
X382778D02*
D03*
X388112D02*
D03*
X17526Y285242D02*
D03*
X22860D02*
D03*
X28194D02*
D03*
X36068Y293116D02*
D03*
X41402D02*
D03*
X46736D02*
D03*
X20574D02*
D03*
X25908D02*
D03*
X31242D02*
D03*
X4318Y293370D02*
D03*
X9652D02*
D03*
X14986D02*
D03*
X28194Y275590D02*
D03*
X22860D02*
D03*
X17526D02*
D03*
X88900Y414528D02*
D03*
Y421386D02*
D03*
Y427228D02*
D03*
X137922Y434340D02*
D03*
X133096Y430022D02*
D03*
X127508Y427482D02*
D03*
X121412Y426720D02*
D03*
X115570D02*
D03*
X109982D02*
D03*
X104648Y401320D02*
D03*
Y406400D02*
D03*
Y411480D02*
D03*
Y416560D02*
D03*
Y421640D02*
D03*
Y426720D02*
D03*
X91788Y446612D02*
D03*
Y456612D02*
D03*
X81788Y451612D02*
D03*
X76280Y466250D02*
D03*
X71280Y476250D02*
D03*
X76280Y486250D02*
D03*
X86280Y466250D02*
D03*
X81280Y476250D02*
D03*
X86280Y486250D02*
D03*
X91280Y476250D02*
D03*
X195406Y418498D02*
D03*
X190406Y428498D02*
D03*
X195406Y438498D02*
D03*
X200406Y428498D02*
D03*
X205406Y438498D02*
D03*
X210406Y428498D02*
D03*
X169498Y418752D02*
D03*
X164498Y428752D02*
D03*
X169498Y438752D02*
D03*
X174498Y428752D02*
D03*
X179498Y438752D02*
D03*
X184498Y428752D02*
D03*
X142828Y419260D02*
D03*
X137828Y429260D02*
D03*
X142828Y439260D02*
D03*
X152828Y419260D02*
D03*
X147828Y429260D02*
D03*
X152828Y439260D02*
D03*
X157828Y429260D02*
D03*
X102929Y443738D02*
D03*
X96774D02*
D03*
X109085D02*
D03*
X121395D02*
D03*
X115240D02*
D03*
X96774Y479747D02*
D03*
Y485902D02*
D03*
Y473591D02*
D03*
Y461281D02*
D03*
Y467436D02*
D03*
Y448970D02*
D03*
Y455126D02*
D03*
X222279Y443992D02*
D03*
X193468D02*
D03*
X187706D02*
D03*
X199230D02*
D03*
X210755D02*
D03*
X204993D02*
D03*
X216517D02*
D03*
X146986D02*
D03*
X141224D02*
D03*
X152748D02*
D03*
X164273D02*
D03*
X158511D02*
D03*
X175797D02*
D03*
X170035D02*
D03*
X181559D02*
D03*
X222504Y456497D02*
D03*
Y450342D02*
D03*
Y468808D02*
D03*
Y462653D02*
D03*
Y474963D02*
D03*
Y487273D02*
D03*
Y481118D02*
D03*
X310286Y427990D02*
D03*
X321666D02*
D03*
X315976D02*
D03*
X310286Y434594D02*
D03*
X321666D02*
D03*
X315976D02*
D03*
X417576Y409702D02*
D03*
Y416115D02*
D03*
Y422529D02*
D03*
Y428942D02*
D03*
Y435356D02*
D03*
X88138Y395224D02*
D03*
Y384048D02*
D03*
X80264Y395224D02*
D03*
Y389636D02*
D03*
Y384048D02*
D03*
X161036Y119888D02*
D03*
X148336Y74168D02*
D03*
X136398Y78994D02*
D03*
X131318D02*
D03*
X136398Y84074D02*
D03*
X131318D02*
D03*
X224282Y213106D02*
D03*
X248920Y201168D02*
D03*
X355009Y378631D02*
D03*
X399034Y372110D02*
D03*
X389636D02*
D03*
X421894Y338582D02*
D03*
X380073Y382359D02*
D03*
X327660Y342138D02*
D03*
X289306Y3556D02*
D03*
X324992Y37718D02*
D03*
D140*
X295910Y27178D02*
D03*
X284734D02*
D03*
X291846Y38862D02*
D03*
X291719Y32766D02*
D03*
X290322Y27178D02*
D03*
M02*
