G04*
G04 #@! TF.GenerationSoftware,Altium Limited,Altium Designer,20.0.1 (14)*
G04*
G04 Layer_Color=128*
%FSLAX44Y44*%
%MOMM*%
G71*
G01*
G75*
%ADD18C,0.0508*%
D18*
X319278Y130302D02*
X326898D01*
X323088Y126492D02*
Y134112D01*
X10414Y458978D02*
X18034D01*
X14224Y455168D02*
Y462788D01*
X414568Y398272D02*
X419568D01*
X417068Y395772D02*
Y400772D01*
X414568Y374396D02*
X419568D01*
X417068Y371896D02*
Y376896D01*
X326684Y101600D02*
X331684D01*
X329184Y99100D02*
Y104100D01*
X412822Y475742D02*
X421822D01*
X417322Y471242D02*
Y480242D01*
X412822Y450342D02*
X421822D01*
X417322Y445842D02*
Y454842D01*
X343702Y478790D02*
X348702D01*
X346202Y476290D02*
Y481290D01*
X306110Y325882D02*
X311110D01*
X308610Y323382D02*
Y328382D01*
X301798Y305925D02*
X306798D01*
X304298Y303425D02*
Y308425D01*
X325160Y244856D02*
X330160D01*
X327660Y242356D02*
Y247356D01*
X409070Y235732D02*
X415070D01*
X412070Y232732D02*
Y238732D01*
X409070Y149332D02*
X415070D01*
X412070Y146332D02*
Y152332D01*
X355470Y235732D02*
X361470D01*
X358470Y232732D02*
Y238732D01*
X355470Y149332D02*
X361470D01*
X358470Y146332D02*
Y152332D01*
X363006Y256032D02*
X368006D01*
X365506Y253532D02*
Y258532D01*
X301798Y184658D02*
X306798D01*
X304298Y182158D02*
Y187158D01*
X301798Y204869D02*
X306798D01*
X304298Y202369D02*
Y207369D01*
X301798Y225080D02*
X306798D01*
X304298Y222580D02*
Y227580D01*
X301798Y245291D02*
X306798D01*
X304298Y242791D02*
Y247791D01*
X325668Y146050D02*
X330668D01*
X328168Y143550D02*
Y148550D01*
X301798Y285714D02*
X306798D01*
X304298Y283214D02*
Y288214D01*
X148630Y390210D02*
X153630D01*
X151130Y387710D02*
Y392710D01*
X201399Y411038D02*
X206399D01*
X203899Y408538D02*
Y413538D01*
X178983Y411038D02*
X183983D01*
X181483Y408538D02*
Y413538D01*
X156567Y411038D02*
X161567D01*
X159067Y408538D02*
Y413538D01*
X134152Y411038D02*
X139152D01*
X136652Y408538D02*
Y413538D01*
X301798Y265176D02*
X306798D01*
X304298Y262676D02*
Y267676D01*
X9184Y373700D02*
X14184D01*
X11684Y371200D02*
Y376200D01*
X403308Y40390D02*
X416816D01*
X410062Y33636D02*
Y47144D01*
X333208Y40390D02*
X346716D01*
X339962Y33636D02*
Y47144D01*
X392308Y15490D02*
X402716D01*
X397512Y10286D02*
Y20694D01*
X347308Y15490D02*
X357716D01*
X352512Y10286D02*
Y20694D01*
X215178Y389956D02*
X220178D01*
X217678Y387456D02*
Y392456D01*
X223814Y411038D02*
X228814D01*
X226314Y408538D02*
Y413538D01*
X192318Y390210D02*
X197318D01*
X194818Y387710D02*
Y392710D01*
X170474Y390210D02*
X175474D01*
X172974Y387710D02*
Y392710D01*
X80010Y158496D02*
X82042D01*
X81026Y157480D02*
Y159512D01*
X86868Y158496D02*
X88900D01*
X87884Y157480D02*
Y159512D01*
X87122Y132080D02*
X89154D01*
X88138Y131064D02*
Y133096D01*
X80264Y132080D02*
X82296D01*
X81280Y131064D02*
Y133096D01*
X130048Y137160D02*
X132080D01*
X131064Y136144D02*
Y138176D01*
X135128Y137160D02*
X137160D01*
X136144Y136144D02*
Y138176D01*
X130048Y132080D02*
X132080D01*
X131064Y131064D02*
Y133096D01*
X135128Y132080D02*
X137160D01*
X136144Y131064D02*
Y133096D01*
X412844Y439420D02*
X414876D01*
X413860Y438404D02*
Y440436D01*
X421734Y421640D02*
X423766D01*
X422750Y420624D02*
Y422656D01*
X421734Y386080D02*
X423766D01*
X422750Y385064D02*
Y387096D01*
X421734Y350520D02*
X423766D01*
X422750Y349504D02*
Y351536D01*
X421734Y314960D02*
X423766D01*
X422750Y313944D02*
Y315976D01*
X412844Y297180D02*
X414876D01*
X413860Y296164D02*
Y298196D01*
X421734Y279400D02*
X423766D01*
X422750Y278384D02*
Y280416D01*
X421734Y208280D02*
X423766D01*
X422750Y207264D02*
Y209296D01*
X421734Y172720D02*
X423766D01*
X422750Y171704D02*
Y173736D01*
X403954Y457200D02*
X405986D01*
X404970Y456184D02*
Y458216D01*
X403954Y421640D02*
X405986D01*
X404970Y420624D02*
Y422656D01*
X403954Y314960D02*
X405986D01*
X404970Y313944D02*
Y315976D01*
X403954Y279400D02*
X405986D01*
X404970Y278384D02*
Y280416D01*
X386174Y386080D02*
X388206D01*
X387190Y385064D02*
Y387096D01*
X341724Y403860D02*
X343756D01*
X342740Y402844D02*
Y404876D01*
X341724Y119380D02*
X343756D01*
X342740Y118364D02*
Y120396D01*
X332834Y421640D02*
X334866D01*
X333850Y420624D02*
Y422656D01*
X323944Y154940D02*
X325976D01*
X324960Y153924D02*
Y155956D01*
X332834Y137160D02*
X334866D01*
X333850Y136144D02*
Y138176D01*
X323944Y119380D02*
X325976D01*
X324960Y118364D02*
Y120396D01*
X306164Y474980D02*
X308196D01*
X307180Y473964D02*
Y475996D01*
X306164Y297180D02*
X308196D01*
X307180Y296164D02*
Y298196D01*
X288384Y474980D02*
X290416D01*
X289400Y473964D02*
Y475996D01*
X297274Y457200D02*
X299306D01*
X298290Y456184D02*
Y458216D01*
X288384Y261620D02*
X290416D01*
X289400Y260604D02*
Y262636D01*
X279494Y457200D02*
X281526D01*
X280510Y456184D02*
Y458216D01*
X270604Y261620D02*
X272636D01*
X271620Y260604D02*
Y262636D01*
X235044Y474980D02*
X237076D01*
X236060Y473964D02*
Y475996D01*
X243934Y457200D02*
X245966D01*
X244950Y456184D02*
Y458216D01*
X235044Y261620D02*
X237076D01*
X236060Y260604D02*
Y262636D01*
X243934Y208280D02*
X245966D01*
X244950Y207264D02*
Y209296D01*
X217264Y439420D02*
X219296D01*
X218280Y438404D02*
Y440436D01*
X226154Y421640D02*
X228186D01*
X227170Y420624D02*
Y422656D01*
X217264Y403860D02*
X219296D01*
X218280Y402844D02*
Y404876D01*
X208374Y421640D02*
X210406D01*
X209390Y420624D02*
Y422656D01*
X208374Y386080D02*
X210406D01*
X209390Y385064D02*
Y387096D01*
X199484Y297180D02*
X201516D01*
X200500Y296164D02*
Y298196D01*
X208374Y279400D02*
X210406D01*
X209390Y278384D02*
Y280416D01*
X199484Y261620D02*
X201516D01*
X200500Y260604D02*
Y262636D01*
X208374Y243840D02*
X210406D01*
X209390Y242824D02*
Y244856D01*
X190594Y421640D02*
X192626D01*
X191610Y420624D02*
Y422656D01*
X163924Y439420D02*
X165956D01*
X164940Y438404D02*
Y440436D01*
X172814Y421640D02*
X174846D01*
X173830Y420624D02*
Y422656D01*
X163924Y297180D02*
X165956D01*
X164940Y296164D02*
Y298196D01*
X172814Y279400D02*
X174846D01*
X173830Y278384D02*
Y280416D01*
X172814Y243840D02*
X174846D01*
X173830Y242824D02*
Y244856D01*
X146144Y439420D02*
X148176D01*
X147160Y438404D02*
Y440436D01*
X137254Y421640D02*
X139286D01*
X138270Y420624D02*
Y422656D01*
X128364Y403860D02*
X130396D01*
X129380Y402844D02*
Y404876D01*
X119474Y421640D02*
X121506D01*
X120490Y420624D02*
Y422656D01*
X75024Y474980D02*
X77056D01*
X76040Y473964D02*
Y475996D01*
X83914Y457200D02*
X85946D01*
X84930Y456184D02*
Y458216D01*
X75024Y439420D02*
X77056D01*
X76040Y438404D02*
Y440436D01*
X75024Y403860D02*
X77056D01*
X76040Y402844D02*
Y404876D01*
X57244Y474980D02*
X59276D01*
X58260Y473964D02*
Y475996D01*
X66134Y457200D02*
X68166D01*
X67150Y456184D02*
Y458216D01*
X57244Y439420D02*
X59276D01*
X58260Y438404D02*
Y440436D01*
X66134Y421640D02*
X68166D01*
X67150Y420624D02*
Y422656D01*
X57244Y403860D02*
X59276D01*
X58260Y402844D02*
Y404876D01*
X57244Y368300D02*
X59276D01*
X58260Y367284D02*
Y369316D01*
X66134Y208280D02*
X68166D01*
X67150Y207264D02*
Y209296D01*
X39464Y474980D02*
X41496D01*
X40480Y473964D02*
Y475996D01*
X48354Y457200D02*
X50386D01*
X49370Y456184D02*
Y458216D01*
X39464Y439420D02*
X41496D01*
X40480Y438404D02*
Y440436D01*
X48354Y421640D02*
X50386D01*
X49370Y420624D02*
Y422656D01*
X39464Y403860D02*
X41496D01*
X40480Y402844D02*
Y404876D01*
X48354Y386080D02*
X50386D01*
X49370Y385064D02*
Y387096D01*
X39464Y368300D02*
X41496D01*
X40480Y367284D02*
Y369316D01*
X21684Y474980D02*
X23716D01*
X22700Y473964D02*
Y475996D01*
X30574Y457200D02*
X32606D01*
X31590Y456184D02*
Y458216D01*
X21684Y439420D02*
X23716D01*
X22700Y438404D02*
Y440436D01*
X30574Y421640D02*
X32606D01*
X31590Y420624D02*
Y422656D01*
X21684Y403860D02*
X23716D01*
X22700Y402844D02*
Y404876D01*
X30574Y386080D02*
X32606D01*
X31590Y385064D02*
Y387096D01*
X21684Y368300D02*
X23716D01*
X22700Y367284D02*
Y369316D01*
X3904Y474980D02*
X5936D01*
X4920Y473964D02*
Y475996D01*
X3904Y439420D02*
X5936D01*
X4920Y438404D02*
Y440436D01*
X12794Y421640D02*
X14826D01*
X13810Y420624D02*
Y422656D01*
X3904Y403860D02*
X5936D01*
X4920Y402844D02*
Y404876D01*
X12794Y386080D02*
X14826D01*
X13810Y385064D02*
Y387096D01*
X3904Y368300D02*
X5936D01*
X4920Y367284D02*
Y369316D01*
X3904Y261620D02*
X5936D01*
X4920Y260604D02*
Y262636D01*
X3904Y226060D02*
X5936D01*
X4920Y225044D02*
Y227076D01*
X365760Y40132D02*
X367792D01*
X366776Y39116D02*
Y41148D01*
X373126Y40132D02*
X375158D01*
X374142Y39116D02*
Y41148D01*
X380492Y40132D02*
X382524D01*
X381508Y39116D02*
Y41148D01*
X70772Y456612D02*
X72804D01*
X71788Y455596D02*
Y457628D01*
X80772Y461612D02*
X82804D01*
X81788Y460596D02*
Y462628D01*
X70772Y446612D02*
X72804D01*
X71788Y445596D02*
Y447628D01*
X80772Y441612D02*
X82804D01*
X81788Y440596D02*
Y442628D01*
X337820Y145288D02*
X339852D01*
X338836Y144272D02*
Y146304D01*
X337820Y150622D02*
X339852D01*
X338836Y149606D02*
Y151638D01*
X332486Y156210D02*
X334518D01*
X333502Y155194D02*
Y157226D01*
X337820Y156210D02*
X339852D01*
X338836Y155194D02*
Y157226D01*
X343154Y156210D02*
X345186D01*
X344170Y155194D02*
Y157226D01*
X332486Y161798D02*
X334518D01*
X333502Y160782D02*
Y162814D01*
X337820Y161798D02*
X339852D01*
X338836Y160782D02*
Y162814D01*
X376428Y148336D02*
X378460D01*
X377444Y147320D02*
Y149352D01*
X381762Y148336D02*
X383794D01*
X382778Y147320D02*
Y149352D01*
X387096Y148336D02*
X389128D01*
X388112Y147320D02*
Y149352D01*
X376428Y155702D02*
X378460D01*
X377444Y154686D02*
Y156718D01*
X381762Y155702D02*
X383794D01*
X382778Y154686D02*
Y156718D01*
X387096Y155702D02*
X389128D01*
X388112Y154686D02*
Y156718D01*
X16510Y285242D02*
X18542D01*
X17526Y284226D02*
Y286258D01*
X21844Y285242D02*
X23876D01*
X22860Y284226D02*
Y286258D01*
X27178Y285242D02*
X29210D01*
X28194Y284226D02*
Y286258D01*
X35052Y293116D02*
X37084D01*
X36068Y292100D02*
Y294132D01*
X40386Y293116D02*
X42418D01*
X41402Y292100D02*
Y294132D01*
X45720Y293116D02*
X47752D01*
X46736Y292100D02*
Y294132D01*
X19558Y293116D02*
X21590D01*
X20574Y292100D02*
Y294132D01*
X24892Y293116D02*
X26924D01*
X25908Y292100D02*
Y294132D01*
X30226Y293116D02*
X32258D01*
X31242Y292100D02*
Y294132D01*
X3302Y293370D02*
X5334D01*
X4318Y292354D02*
Y294386D01*
X8636Y293370D02*
X10668D01*
X9652Y292354D02*
Y294386D01*
X13970Y293370D02*
X16002D01*
X14986Y292354D02*
Y294386D01*
X27178Y275590D02*
X29210D01*
X28194Y274574D02*
Y276606D01*
X21844Y275590D02*
X23876D01*
X22860Y274574D02*
Y276606D01*
X16510Y275590D02*
X18542D01*
X17526Y274574D02*
Y276606D01*
X87884Y414528D02*
X89916D01*
X88900Y413512D02*
Y415544D01*
X87884Y421386D02*
X89916D01*
X88900Y420370D02*
Y422402D01*
X87884Y427228D02*
X89916D01*
X88900Y426212D02*
Y428244D01*
X136906Y434340D02*
X138938D01*
X137922Y433324D02*
Y435356D01*
X132080Y430022D02*
X134112D01*
X133096Y429006D02*
Y431038D01*
X126492Y427482D02*
X128524D01*
X127508Y426466D02*
Y428498D01*
X120396Y426720D02*
X122428D01*
X121412Y425704D02*
Y427736D01*
X114554Y426720D02*
X116586D01*
X115570Y425704D02*
Y427736D01*
X108966Y426720D02*
X110998D01*
X109982Y425704D02*
Y427736D01*
X103632Y401320D02*
X105664D01*
X104648Y400304D02*
Y402336D01*
X103632Y406400D02*
X105664D01*
X104648Y405384D02*
Y407416D01*
X103632Y411480D02*
X105664D01*
X104648Y410464D02*
Y412496D01*
X103632Y416560D02*
X105664D01*
X104648Y415544D02*
Y417576D01*
X103632Y421640D02*
X105664D01*
X104648Y420624D02*
Y422656D01*
X103632Y426720D02*
X105664D01*
X104648Y425704D02*
Y427736D01*
X90772Y446612D02*
X92804D01*
X91788Y445596D02*
Y447628D01*
X90772Y456612D02*
X92804D01*
X91788Y455596D02*
Y457628D01*
X80772Y451612D02*
X82804D01*
X81788Y450596D02*
Y452628D01*
X75264Y466250D02*
X77296D01*
X76280Y465234D02*
Y467266D01*
X70264Y476250D02*
X72296D01*
X71280Y475234D02*
Y477266D01*
X75264Y486250D02*
X77296D01*
X76280Y485234D02*
Y487266D01*
X85264Y466250D02*
X87296D01*
X86280Y465234D02*
Y467266D01*
X80264Y476250D02*
X82296D01*
X81280Y475234D02*
Y477266D01*
X85264Y486250D02*
X87296D01*
X86280Y485234D02*
Y487266D01*
X90264Y476250D02*
X92296D01*
X91280Y475234D02*
Y477266D01*
X194390Y418498D02*
X196422D01*
X195406Y417482D02*
Y419514D01*
X189390Y428498D02*
X191422D01*
X190406Y427482D02*
Y429514D01*
X194390Y438498D02*
X196422D01*
X195406Y437482D02*
Y439514D01*
X199390Y428498D02*
X201422D01*
X200406Y427482D02*
Y429514D01*
X204390Y438498D02*
X206422D01*
X205406Y437482D02*
Y439514D01*
X209390Y428498D02*
X211422D01*
X210406Y427482D02*
Y429514D01*
X168482Y418752D02*
X170514D01*
X169498Y417736D02*
Y419768D01*
X163482Y428752D02*
X165514D01*
X164498Y427736D02*
Y429768D01*
X168482Y438752D02*
X170514D01*
X169498Y437736D02*
Y439768D01*
X173482Y428752D02*
X175514D01*
X174498Y427736D02*
Y429768D01*
X178482Y438752D02*
X180514D01*
X179498Y437736D02*
Y439768D01*
X183482Y428752D02*
X185514D01*
X184498Y427736D02*
Y429768D01*
X141812Y419260D02*
X143844D01*
X142828Y418244D02*
Y420276D01*
X136812Y429260D02*
X138844D01*
X137828Y428244D02*
Y430276D01*
X141812Y439260D02*
X143844D01*
X142828Y438244D02*
Y440276D01*
X151812Y419260D02*
X153844D01*
X152828Y418244D02*
Y420276D01*
X146812Y429260D02*
X148844D01*
X147828Y428244D02*
Y430276D01*
X151812Y439260D02*
X153844D01*
X152828Y438244D02*
Y440276D01*
X156812Y429260D02*
X158844D01*
X157828Y428244D02*
Y430276D01*
X101913Y443738D02*
X103945D01*
X102929Y442722D02*
Y444754D01*
X95758Y443738D02*
X97790D01*
X96774Y442722D02*
Y444754D01*
X108069Y443738D02*
X110100D01*
X109085Y442722D02*
Y444754D01*
X120379Y443738D02*
X122411D01*
X121395Y442722D02*
Y444754D01*
X114224Y443738D02*
X116256D01*
X115240Y442722D02*
Y444754D01*
X95758Y479747D02*
X97790D01*
X96774Y478731D02*
Y480763D01*
X95758Y485902D02*
X97790D01*
X96774Y484886D02*
Y486918D01*
X95758Y473591D02*
X97790D01*
X96774Y472575D02*
Y474608D01*
X95758Y461281D02*
X97790D01*
X96774Y460265D02*
Y462297D01*
X95758Y467436D02*
X97790D01*
X96774Y466420D02*
Y468452D01*
X95758Y448970D02*
X97790D01*
X96774Y447954D02*
Y449986D01*
X95758Y455126D02*
X97790D01*
X96774Y454110D02*
Y456142D01*
X221263Y443992D02*
X223295D01*
X222279Y442976D02*
Y445008D01*
X192452Y443992D02*
X194484D01*
X193468Y442976D02*
Y445008D01*
X186690Y443992D02*
X188722D01*
X187706Y442976D02*
Y445008D01*
X198214Y443992D02*
X200246D01*
X199230Y442976D02*
Y445008D01*
X209739Y443992D02*
X211771D01*
X210755Y442976D02*
Y445008D01*
X203976Y443992D02*
X206008D01*
X204993Y442976D02*
Y445008D01*
X215501Y443992D02*
X217533D01*
X216517Y442976D02*
Y445008D01*
X145970Y443992D02*
X148002D01*
X146986Y442976D02*
Y445008D01*
X140208Y443992D02*
X142240D01*
X141224Y442976D02*
Y445008D01*
X151732Y443992D02*
X153764D01*
X152748Y442976D02*
Y445008D01*
X163257Y443992D02*
X165289D01*
X164273Y442976D02*
Y445008D01*
X157494Y443992D02*
X159527D01*
X158511Y442976D02*
Y445008D01*
X174781Y443992D02*
X176813D01*
X175797Y442976D02*
Y445008D01*
X169019Y443992D02*
X171051D01*
X170035Y442976D02*
Y445008D01*
X180543Y443992D02*
X182575D01*
X181559Y442976D02*
Y445008D01*
X221488Y456497D02*
X223520D01*
X222504Y455481D02*
Y457513D01*
X221488Y450342D02*
X223520D01*
X222504Y449326D02*
Y451358D01*
X221488Y468808D02*
X223520D01*
X222504Y467792D02*
Y469824D01*
X221488Y462653D02*
X223520D01*
X222504Y461637D02*
Y463669D01*
X221488Y474963D02*
X223520D01*
X222504Y473947D02*
Y475979D01*
X221488Y487273D02*
X223520D01*
X222504Y486258D02*
Y488289D01*
X221488Y481118D02*
X223520D01*
X222504Y480102D02*
Y482134D01*
X309270Y427990D02*
X311302D01*
X310286Y426974D02*
Y429006D01*
X320650Y427990D02*
X322682D01*
X321666Y426974D02*
Y429006D01*
X314960Y427990D02*
X316992D01*
X315976Y426974D02*
Y429006D01*
X309270Y434594D02*
X311302D01*
X310286Y433578D02*
Y435610D01*
X320650Y434594D02*
X322682D01*
X321666Y433578D02*
Y435610D01*
X314960Y434594D02*
X316992D01*
X315976Y433578D02*
Y435610D01*
X416560Y409702D02*
X418592D01*
X417576Y408686D02*
Y410718D01*
X416560Y416115D02*
X418592D01*
X417576Y415099D02*
Y417132D01*
X416560Y422529D02*
X418592D01*
X417576Y421513D02*
Y423545D01*
X416560Y428942D02*
X418592D01*
X417576Y427926D02*
Y429958D01*
X416560Y435356D02*
X418592D01*
X417576Y434340D02*
Y436372D01*
X347218Y462026D02*
X349250D01*
X348234Y461010D02*
Y463042D01*
X338836Y462026D02*
X340868D01*
X339852Y461010D02*
Y463042D01*
X350012Y467106D02*
X352044D01*
X351028Y466090D02*
Y468122D01*
X342646Y467106D02*
X344678D01*
X343662Y466090D02*
Y468122D01*
X335280Y467106D02*
X337312D01*
X336296Y466090D02*
Y468122D01*
X87122Y395224D02*
X89154D01*
X88138Y394208D02*
Y396240D01*
X87122Y384048D02*
X89154D01*
X88138Y383032D02*
Y385064D01*
X79248Y395224D02*
X81280D01*
X80264Y394208D02*
Y396240D01*
X79248Y389636D02*
X81280D01*
X80264Y388620D02*
Y390652D01*
X79248Y384048D02*
X81280D01*
X80264Y383032D02*
Y385064D01*
X290778Y439472D02*
X292810D01*
X291794Y438456D02*
Y440488D01*
X249682Y480060D02*
X251714D01*
X250698Y479044D02*
Y481076D01*
X257556Y480060D02*
X259588D01*
X258572Y479044D02*
Y481076D01*
X275336Y462788D02*
X277368D01*
X276352Y461772D02*
Y463804D01*
X254203Y400355D02*
X256235D01*
X255219Y399339D02*
Y401371D01*
X245313Y406400D02*
X247345D01*
X246329Y405384D02*
Y407416D01*
X247498Y400355D02*
X249530D01*
X248514Y399339D02*
Y401371D01*
X245313Y412572D02*
X247345D01*
X246329Y411556D02*
Y413588D01*
X121412Y298450D02*
X123444D01*
X122428Y297434D02*
Y299466D01*
X331978Y374650D02*
X334010D01*
X332994Y373634D02*
Y375666D01*
X223266Y126492D02*
X225298D01*
X224282Y125476D02*
Y127508D01*
X255016Y351790D02*
X257048D01*
X256032Y350774D02*
Y352806D01*
X135986Y351886D02*
X138018D01*
X137002Y350870D02*
Y352902D01*
X127508Y352806D02*
X129540D01*
X128524Y351790D02*
Y353822D01*
X112268Y231394D02*
X114300D01*
X113284Y230378D02*
Y232410D01*
X74168Y219710D02*
X76200D01*
X75184Y218694D02*
Y220726D01*
X73152Y229616D02*
X75184D01*
X74168Y228600D02*
Y230632D01*
X231648Y107442D02*
X233680D01*
X232664Y106426D02*
Y108458D01*
X6604Y313182D02*
X8636D01*
X7620Y312166D02*
Y314198D01*
X12700Y313182D02*
X14732D01*
X13716Y312166D02*
Y314198D01*
X18288Y313182D02*
X20320D01*
X19304Y312166D02*
Y314198D01*
X23876Y313182D02*
X25908D01*
X24892Y312166D02*
Y314198D01*
X12954Y306070D02*
X14986D01*
X13970Y305054D02*
Y307086D01*
X18542Y306070D02*
X20574D01*
X19558Y305054D02*
Y307086D01*
X24130Y306070D02*
X26162D01*
X25146Y305054D02*
Y307086D01*
X30480Y306070D02*
X32512D01*
X31496Y305054D02*
Y307086D01*
X36068Y306070D02*
X38100D01*
X37084Y305054D02*
Y307086D01*
X41656Y306070D02*
X43688D01*
X42672Y305054D02*
Y307086D01*
X67056Y310896D02*
X69088D01*
X68072Y309880D02*
Y311912D01*
X67056Y316484D02*
X69088D01*
X68072Y315468D02*
Y317500D01*
X67056Y322072D02*
X69088D01*
X68072Y321056D02*
Y323088D01*
X398018Y220218D02*
X400050D01*
X399034Y219202D02*
Y221234D01*
X398018Y214376D02*
X400050D01*
X399034Y213360D02*
Y215392D01*
X391541Y243078D02*
X393573D01*
X392557Y242062D02*
Y244094D01*
X385572Y243078D02*
X387604D01*
X386588Y242062D02*
Y244094D01*
X379603Y243078D02*
X381635D01*
X380619Y242062D02*
Y244094D01*
X391541Y233595D02*
X393573D01*
X392557Y232579D02*
Y234611D01*
X385572Y233595D02*
X387604D01*
X386588Y232579D02*
Y234611D01*
X379603Y233595D02*
X381635D01*
X380619Y232579D02*
Y234611D01*
X391541Y224113D02*
X393573D01*
X392557Y223097D02*
Y225129D01*
X385572Y224113D02*
X387604D01*
X386588Y223097D02*
Y225129D01*
X379603Y224113D02*
X381635D01*
X380619Y223097D02*
Y225129D01*
X391541Y214630D02*
X393573D01*
X392557Y213614D02*
Y215646D01*
X385572Y214630D02*
X387604D01*
X386588Y213614D02*
Y215646D01*
X379603Y214630D02*
X381635D01*
X380619Y213614D02*
Y215646D01*
X353187Y279654D02*
X355219D01*
X354203Y278638D02*
Y280670D01*
X359156Y279654D02*
X361188D01*
X360172Y278638D02*
Y280670D01*
X365125Y279654D02*
X367157D01*
X366141Y278638D02*
Y280670D01*
X321183Y279908D02*
X323215D01*
X322199Y278892D02*
Y280924D01*
X327152Y279908D02*
X329184D01*
X328168Y278892D02*
Y280924D01*
X333121Y279908D02*
X335153D01*
X334137Y278892D02*
Y280924D01*
X332486Y255270D02*
X334518D01*
X333502Y254254D02*
Y256286D01*
X326517Y255270D02*
X328549D01*
X327533Y254254D02*
Y256286D01*
X320548Y255270D02*
X322580D01*
X321564Y254254D02*
Y256286D01*
X378206Y287528D02*
X380238D01*
X379222Y286512D02*
Y288544D01*
X384302Y287528D02*
X386334D01*
X385318Y286512D02*
Y288544D01*
X384302Y282702D02*
X386334D01*
X385318Y281686D02*
Y283718D01*
X368808Y297180D02*
X370840D01*
X369824Y296164D02*
Y298196D01*
X378206Y282702D02*
X380238D01*
X379222Y281686D02*
Y283718D01*
X378206Y277876D02*
X380238D01*
X379222Y276860D02*
Y278892D01*
X384175Y277876D02*
X386207D01*
X385191Y276860D02*
Y278892D01*
X390144Y277876D02*
X392176D01*
X391160Y276860D02*
Y278892D01*
X390144Y282702D02*
X392176D01*
X391160Y281686D02*
Y283718D01*
X390144Y287528D02*
X392176D01*
X391160Y286512D02*
Y288544D01*
X346964Y318008D02*
X348996D01*
X347980Y316992D02*
Y319024D01*
X350520Y324104D02*
X352552D01*
X351536Y323088D02*
Y325120D01*
X372618Y292100D02*
X374650D01*
X373634Y291084D02*
Y293116D01*
X160020Y119888D02*
X162052D01*
X161036Y118872D02*
Y120904D01*
X147320Y74168D02*
X149352D01*
X148336Y73152D02*
Y75184D01*
X135382Y78994D02*
X137414D01*
X136398Y77978D02*
Y80010D01*
X130302Y78994D02*
X132334D01*
X131318Y77978D02*
Y80010D01*
X135382Y84074D02*
X137414D01*
X136398Y83058D02*
Y85090D01*
X130302Y84074D02*
X132334D01*
X131318Y83058D02*
Y85090D01*
X130302Y160782D02*
X132334D01*
X131318Y159766D02*
Y161798D01*
X161290Y169164D02*
X163322D01*
X162306Y168148D02*
Y170180D01*
X337566Y216408D02*
X339598D01*
X338582Y215392D02*
Y217424D01*
X54312Y124250D02*
X56344D01*
X55328Y123234D02*
Y125266D01*
X223266Y213106D02*
X225298D01*
X224282Y212090D02*
Y214122D01*
X247904Y201168D02*
X249936D01*
X248920Y200152D02*
Y202184D01*
X278638Y101346D02*
X280670D01*
X279654Y100330D02*
Y102362D01*
X286512Y94234D02*
X288544D01*
X287528Y93218D02*
Y95250D01*
X286512Y101346D02*
X288544D01*
X287528Y100330D02*
Y102362D01*
X294386Y94234D02*
X296418D01*
X295402Y93218D02*
Y95250D01*
X294386Y101346D02*
X296418D01*
X295402Y100330D02*
Y102362D01*
X302260Y94234D02*
X304292D01*
X303276Y93218D02*
Y95250D01*
X302260Y101346D02*
X304292D01*
X303276Y100330D02*
Y102362D01*
X329946Y60198D02*
X331978D01*
X330962Y59182D02*
Y61214D01*
X233680Y138176D02*
X235712D01*
X234696Y137160D02*
Y139192D01*
X241554Y143764D02*
X243586D01*
X242570Y142748D02*
Y144780D01*
X67818Y151892D02*
X69850D01*
X68834Y150876D02*
Y152908D01*
X168402Y83820D02*
X170434D01*
X169418Y82804D02*
Y84836D01*
X159512Y73152D02*
X161544D01*
X160528Y72136D02*
Y74168D01*
X207264Y75438D02*
X209296D01*
X208280Y74422D02*
Y76454D01*
X54102Y101600D02*
X56134D01*
X55118Y100584D02*
Y102616D01*
X44704Y89408D02*
X46736D01*
X45720Y88392D02*
Y90424D01*
X157862Y84202D02*
X159894D01*
X158878Y83186D02*
Y85218D01*
X119206Y74248D02*
X121238D01*
X120222Y73232D02*
Y75264D01*
X103124Y98044D02*
X105156D01*
X104140Y97028D02*
Y99060D01*
X4572Y90424D02*
X7620D01*
X6096Y88900D02*
Y91948D01*
X111506Y225298D02*
X113538D01*
X112522Y224282D02*
Y226314D01*
X170434Y298704D02*
X172466D01*
X171450Y297688D02*
Y299720D01*
X104394Y376936D02*
X106426D01*
X105410Y375920D02*
Y377952D01*
X130556Y381762D02*
X132588D01*
X131572Y380746D02*
Y382778D01*
X121412Y398526D02*
X123444D01*
X122428Y397510D02*
Y399542D01*
X73914Y294386D02*
X75946D01*
X74930Y293370D02*
Y295402D01*
X276098Y270002D02*
X278130D01*
X277114Y268986D02*
Y271018D01*
X261874Y280924D02*
X263906D01*
X262890Y279908D02*
Y281940D01*
X256286Y281432D02*
X258318D01*
X257302Y280416D02*
Y282448D01*
X160782Y110872D02*
X162814D01*
X161798Y109856D02*
Y111888D01*
X106172Y114046D02*
X108204D01*
X107188Y113030D02*
Y115062D01*
X265430Y313182D02*
X267462D01*
X266446Y312166D02*
Y314198D01*
X5842Y102870D02*
X7874D01*
X6858Y101854D02*
Y103886D01*
X221488Y86360D02*
X223520D01*
X222504Y85344D02*
Y87376D01*
X272796Y18542D02*
X274828D01*
X273812Y17526D02*
Y19558D01*
X39370Y166624D02*
X41402D01*
X40386Y165608D02*
Y167640D01*
X38608Y179324D02*
X40640D01*
X39624Y178308D02*
Y180340D01*
X175260Y111506D02*
X177292D01*
X176276Y110490D02*
Y112522D01*
X169672Y141224D02*
X171704D01*
X170688Y140208D02*
Y142240D01*
X216026Y132462D02*
X218058D01*
X217042Y131446D02*
Y133478D01*
X217932Y119126D02*
X219964D01*
X218948Y118110D02*
Y120142D01*
X259080Y319024D02*
X261112D01*
X260096Y318008D02*
Y320040D01*
X325218Y401984D02*
X327250D01*
X326234Y400968D02*
Y403000D01*
X318718Y401626D02*
X320750D01*
X319734Y400610D02*
Y402642D01*
X120650Y109728D02*
X122682D01*
X121666Y108712D02*
Y110744D01*
X230124Y338074D02*
X232156D01*
X231140Y337058D02*
Y339090D01*
X229870Y346456D02*
X231902D01*
X230886Y345440D02*
Y347472D01*
X230124Y329692D02*
X232156D01*
X231140Y328676D02*
Y330708D01*
X240986Y320996D02*
X243018D01*
X242002Y319980D02*
Y322012D01*
X229928Y320860D02*
X231960D01*
X230944Y319844D02*
Y321876D01*
X320802Y347218D02*
X322834D01*
X321818Y346202D02*
Y348234D01*
X136144Y98806D02*
X138176D01*
X137160Y97790D02*
Y99822D01*
X151638Y107442D02*
X153670D01*
X152654Y106426D02*
Y108458D01*
X158496Y289560D02*
X160528D01*
X159512Y288544D02*
Y290576D01*
X271272Y90170D02*
X273304D01*
X272288Y89154D02*
Y91186D01*
X267034Y198040D02*
X269066D01*
X268050Y197024D02*
Y199056D01*
X66802Y142494D02*
X68834D01*
X67818Y141478D02*
Y143510D01*
X52832Y151384D02*
X54864D01*
X53848Y150368D02*
Y152400D01*
X262636Y192024D02*
X264668D01*
X263652Y191008D02*
Y193040D01*
X125596Y106038D02*
X127628D01*
X126612Y105022D02*
Y107054D01*
X99568Y121920D02*
X101600D01*
X100584Y120904D02*
Y122936D01*
X166116Y163830D02*
X168148D01*
X167132Y162814D02*
Y164846D01*
X135636Y165354D02*
X137668D01*
X136652Y164338D02*
Y166370D01*
X125730Y167640D02*
X127762D01*
X126746Y166624D02*
Y168656D01*
X35306Y140208D02*
X37338D01*
X36322Y139192D02*
Y141224D01*
Y153416D02*
X38354D01*
X37338Y152400D02*
Y154432D01*
X57912Y164338D02*
X59944D01*
X58928Y163322D02*
Y165354D01*
X5588Y217678D02*
X7620D01*
X6604Y216662D02*
Y218694D01*
X39116Y204216D02*
X41148D01*
X40132Y203200D02*
Y205232D01*
X297992Y451308D02*
X300024D01*
X299008Y450292D02*
Y452324D01*
X353993Y378631D02*
X356025D01*
X355009Y377615D02*
Y379647D01*
X247498Y383286D02*
X249530D01*
X248514Y382270D02*
Y384302D01*
X247498Y391820D02*
X249530D01*
X248514Y390804D02*
Y392836D01*
X251003Y406400D02*
X253035D01*
X252019Y405384D02*
Y407416D01*
X239624Y406400D02*
X241656D01*
X240640Y405384D02*
Y407416D01*
X251003Y412572D02*
X253035D01*
X252019Y411556D02*
Y413588D01*
X239624Y412572D02*
X241656D01*
X240640Y411556D02*
Y413588D01*
X37846Y191973D02*
X39878D01*
X38862Y190957D02*
Y192989D01*
X315976Y55880D02*
X318008D01*
X316992Y54864D02*
Y56896D01*
X315424Y46990D02*
X317456D01*
X316440Y45974D02*
Y48006D01*
X262687Y120548D02*
X264719D01*
X263703Y119532D02*
Y121564D01*
X290068Y143891D02*
X292100D01*
X291084Y142875D02*
Y144907D01*
X290068Y137668D02*
X292100D01*
X291084Y136652D02*
Y138684D01*
X285496Y146558D02*
X287528D01*
X286512Y145542D02*
Y147574D01*
X290068Y150114D02*
X292100D01*
X291084Y149098D02*
Y151130D01*
X280924Y150114D02*
X282956D01*
X281940Y149098D02*
Y151130D01*
X39370Y115824D02*
X41402D01*
X40386Y114808D02*
Y116840D01*
X399034Y299720D02*
X401066D01*
X400050Y298704D02*
Y300736D01*
X398018Y372110D02*
X400050D01*
X399034Y371094D02*
Y373126D01*
X388620Y372110D02*
X390652D01*
X389636Y371094D02*
Y373126D01*
X373634Y369062D02*
X375666D01*
X374650Y368046D02*
Y370078D01*
X420878Y338582D02*
X422910D01*
X421894Y337566D02*
Y339598D01*
X379057Y382359D02*
X381088D01*
X380073Y381343D02*
Y383374D01*
X344932Y184489D02*
X346964D01*
X345948Y183473D02*
Y185505D01*
X344932Y176699D02*
X346964D01*
X345948Y175683D02*
Y177715D01*
X326644Y342138D02*
X328676D01*
X327660Y341122D02*
Y343154D01*
X208534Y166624D02*
X210566D01*
X209550Y165608D02*
Y167640D01*
X310896Y18288D02*
X312928D01*
X311912Y17272D02*
Y19304D01*
X288290Y3556D02*
X290322D01*
X289306Y2540D02*
Y4572D01*
X279908Y58674D02*
X281940D01*
X280924Y57658D02*
Y59690D01*
X294640Y27178D02*
X297180D01*
X295910Y25908D02*
Y28448D01*
X283464Y27178D02*
X286004D01*
X284734Y25908D02*
Y28448D01*
X323976Y37718D02*
X326008D01*
X324992Y36702D02*
Y38734D01*
X290576Y38862D02*
X293116D01*
X291846Y37592D02*
Y40132D01*
X290449Y32766D02*
X292989D01*
X291719Y31496D02*
Y34036D01*
X289052Y27178D02*
X291592D01*
X290322Y25908D02*
Y28448D01*
X273558Y49784D02*
X275590D01*
X274574Y48768D02*
Y50800D01*
X293284Y55540D02*
X295316D01*
X294300Y54524D02*
Y56556D01*
X261874Y43434D02*
X263906D01*
X262890Y42418D02*
Y44450D01*
X322708Y29338D02*
X324740D01*
X323724Y28322D02*
Y30354D01*
X293284Y6436D02*
X295316D01*
X294300Y5420D02*
Y7452D01*
X301498Y5080D02*
X303530D01*
X302514Y4064D02*
Y6096D01*
X281559Y4699D02*
X283591D01*
X282575Y3683D02*
Y5715D01*
X261620Y4826D02*
X263652D01*
X262636Y3810D02*
Y5842D01*
X241554Y54356D02*
X243586D01*
X242570Y53340D02*
Y55372D01*
X241554Y36830D02*
X243586D01*
X242570Y35814D02*
Y37846D01*
X165645Y194056D02*
X167677D01*
X166661Y193040D02*
Y195072D01*
X161327Y194056D02*
X163359D01*
X162343Y193040D02*
Y195072D01*
X344932Y192278D02*
X346964D01*
X345948Y191262D02*
Y193294D01*
X409194Y170434D02*
X411226D01*
X410210Y169418D02*
Y171450D01*
X409194Y178943D02*
X411226D01*
X410210Y177927D02*
Y179959D01*
X409194Y187452D02*
X411226D01*
X410210Y186436D02*
Y188468D01*
X403860Y184404D02*
X405892D01*
X404876Y183388D02*
Y185420D01*
X394801Y184404D02*
X396833D01*
X395817Y183388D02*
Y185420D01*
X385741Y184404D02*
X387773D01*
X386757Y183388D02*
Y185420D01*
X376682Y184404D02*
X378714D01*
X377698Y183388D02*
Y185420D01*
X376682Y191262D02*
X378714D01*
X377698Y190246D02*
Y192278D01*
X385741Y191262D02*
X387773D01*
X386757Y190246D02*
Y192278D01*
X394801Y191262D02*
X396833D01*
X395817Y190246D02*
Y192278D01*
X403860Y191262D02*
X405892D01*
X404876Y190246D02*
Y192278D01*
M02*
